G04 PROTEUS GERBER X2 FILE*
%TF.GenerationSoftware,Labcenter,Proteus,8.7-SP3-Build25561*%
%TF.CreationDate,2021-05-23T19:26:12+00:00*%
%TF.FileFunction,Paste,Bot*%
%TF.FilePolarity,Positive*%
%TF.Part,Single*%
%TF.SameCoordinates,{495e9ac3-030e-4fb4-ac65-1a152484cd29}*%
%FSLAX45Y45*%
%MOMM*%
G01*
%TA.AperFunction,Material*%
%ADD98R,0.889000X1.016000*%
%ADD93R,6.985000X6.985000*%
%ADD94R,1.524000X2.540000*%
%TA.AperFunction,Material*%
%ADD90R,2.108200X2.108200*%
%ADD97R,0.889000X0.635000*%
%ADD87R,1.193800X5.308600*%
%ADD91R,1.651000X3.048000*%
%TA.AperFunction,Material*%
%ADD99R,2.032000X0.635000*%
%ADD95R,0.635000X2.032000*%
%TA.AperFunction,Material*%
%ADD92R,3.403600X1.244600*%
%ADD96R,2.540000X1.524000*%
%ADD88R,1.143000X1.803400*%
%ADD89R,1.803400X1.143000*%
%TA.AperFunction,Profile*%
%ADD39C,0.203200*%
%TD.AperFunction*%
D98*
X+8196580Y-1389380D03*
X+8290560Y-1579880D03*
X+8102600Y-1579880D03*
D93*
X+7874000Y+825500D03*
D94*
X+8102600Y+134620D03*
X+7645400Y+134620D03*
D98*
X+5783580Y-1389380D03*
X+5877560Y-1579880D03*
X+5689600Y-1579880D03*
D93*
X+5461000Y+825500D03*
D94*
X+5689600Y+134620D03*
X+5232400Y+134620D03*
D98*
X+3370580Y-1389380D03*
X+3464560Y-1579880D03*
X+3276600Y-1579880D03*
D93*
X+3048000Y+825500D03*
D94*
X+3276600Y+134620D03*
X+2819400Y+134620D03*
D98*
X+957580Y-1389380D03*
X+1051560Y-1579880D03*
X+863600Y-1579880D03*
D93*
X+635000Y+825500D03*
D94*
X+863600Y+134620D03*
X+406400Y+134620D03*
D98*
X-1455420Y-1389380D03*
X-1361440Y-1579880D03*
X-1549400Y-1579880D03*
D93*
X-1778000Y+825500D03*
D94*
X-1549400Y+134620D03*
X-2006600Y+134620D03*
D90*
X+7086600Y+1404620D03*
X+7086600Y+954620D03*
D97*
X+8039100Y-1960880D03*
X+8039100Y-1725930D03*
D90*
X+4673600Y+1404620D03*
X+4673600Y+954620D03*
D97*
X+5626100Y-1960880D03*
X+5626100Y-1725930D03*
D90*
X+2260600Y+1404620D03*
X+2260600Y+954620D03*
D97*
X+3213100Y-1960880D03*
X+3213100Y-1725930D03*
D90*
X-152400Y+1404620D03*
X-152400Y+954620D03*
D97*
X+800100Y-1960880D03*
X+800100Y-1725930D03*
D90*
X-2565400Y+1404620D03*
X-2565400Y+954620D03*
D97*
X-1612900Y-1960880D03*
X-1612900Y-1725930D03*
D87*
X+6705600Y+198120D03*
X+7305600Y+198120D03*
X+4229100Y+198120D03*
X+4829100Y+198120D03*
X+1816100Y+198120D03*
X+2416100Y+198120D03*
X-596900Y+198120D03*
X+3100Y+198120D03*
X-3009900Y+198120D03*
X-2409900Y+198120D03*
D91*
X+6324600Y+914620D03*
X+6324600Y+1359120D03*
X+3911600Y+914620D03*
X+3911600Y+1359120D03*
X+1498600Y+914620D03*
X+1498600Y+1359120D03*
X-914400Y+914620D03*
X-914400Y+1359120D03*
X-3327400Y+914620D03*
X-3327400Y+1359120D03*
D99*
X+6908800Y-1008380D03*
X+6908800Y-1135380D03*
X+6908800Y-1262380D03*
X+6908800Y-1389380D03*
X+6388100Y-1389380D03*
X+6388100Y-1262380D03*
X+6388100Y-1135380D03*
X+6388100Y-1008380D03*
D95*
X+7848600Y-2100580D03*
X+7721600Y-2100580D03*
X+7594600Y-2100580D03*
X+7467600Y-2100580D03*
X+7467600Y-1579880D03*
X+7594600Y-1579880D03*
X+7721600Y-1579880D03*
X+7848600Y-1579880D03*
D99*
X+4432300Y-1008380D03*
X+4432300Y-1135380D03*
X+4432300Y-1262380D03*
X+4432300Y-1389380D03*
X+3911600Y-1389380D03*
X+3911600Y-1262380D03*
X+3911600Y-1135380D03*
X+3911600Y-1008380D03*
D95*
X+5435600Y-2100580D03*
X+5308600Y-2100580D03*
X+5181600Y-2100580D03*
X+5054600Y-2100580D03*
X+5054600Y-1579880D03*
X+5181600Y-1579880D03*
X+5308600Y-1579880D03*
X+5435600Y-1579880D03*
D99*
X+2019300Y-1008380D03*
X+2019300Y-1135380D03*
X+2019300Y-1262380D03*
X+2019300Y-1389380D03*
X+1498600Y-1389380D03*
X+1498600Y-1262380D03*
X+1498600Y-1135380D03*
X+1498600Y-1008380D03*
D95*
X+3022600Y-2100580D03*
X+2895600Y-2100580D03*
X+2768600Y-2100580D03*
X+2641600Y-2100580D03*
X+2641600Y-1579880D03*
X+2768600Y-1579880D03*
X+2895600Y-1579880D03*
X+3022600Y-1579880D03*
D99*
X-393700Y-1008380D03*
X-393700Y-1135380D03*
X-393700Y-1262380D03*
X-393700Y-1389380D03*
X-914400Y-1389380D03*
X-914400Y-1262380D03*
X-914400Y-1135380D03*
X-914400Y-1008380D03*
D95*
X+609600Y-2100580D03*
X+482600Y-2100580D03*
X+355600Y-2100580D03*
X+228600Y-2100580D03*
X+228600Y-1579880D03*
X+355600Y-1579880D03*
X+482600Y-1579880D03*
X+609600Y-1579880D03*
D99*
X-2806700Y-1008380D03*
X-2806700Y-1135380D03*
X-2806700Y-1262380D03*
X-2806700Y-1389380D03*
X-3327400Y-1389380D03*
X-3327400Y-1262380D03*
X-3327400Y-1135380D03*
X-3327400Y-1008380D03*
D95*
X-1803400Y-2100580D03*
X-1930400Y-2100580D03*
X-2057400Y-2100580D03*
X-2184400Y-2100580D03*
X-2184400Y-1579880D03*
X-2057400Y-1579880D03*
X-1930400Y-1579880D03*
X-1803400Y-1579880D03*
D92*
X-3327400Y+642620D03*
X-3327400Y+32620D03*
X+6324600Y+642620D03*
X+6324600Y+32620D03*
X+1498600Y+642620D03*
X+1498600Y+32620D03*
X+3911600Y+642620D03*
X+3911600Y+32620D03*
X-914400Y+642620D03*
X-914400Y+32620D03*
D96*
X+7874000Y-1143000D03*
X+7493000Y-1143000D03*
D88*
X+7848600Y-754380D03*
X+7548600Y-754380D03*
D96*
X+5461000Y-1143000D03*
X+5080000Y-1143000D03*
D88*
X+5435600Y-754380D03*
X+5135600Y-754380D03*
D96*
X+3111500Y-1143000D03*
X+2730500Y-1143000D03*
D88*
X+3022600Y-754380D03*
X+2722600Y-754380D03*
D96*
X+635000Y-1143000D03*
X+254000Y-1143000D03*
D88*
X+609600Y-754380D03*
X+309600Y-754380D03*
D96*
X-1778000Y-1143000D03*
X-2159000Y-1143000D03*
D88*
X-1803400Y-754380D03*
X-2103400Y-754380D03*
X+6705600Y-2151380D03*
X+6415600Y-2151380D03*
X+6678100Y-1643380D03*
X+6388100Y-1643380D03*
D89*
X+6388100Y-599880D03*
X+6388100Y-309880D03*
X+6896100Y-599880D03*
X+6896100Y-309880D03*
D88*
X+7249600Y-2151380D03*
X+6959600Y-2151380D03*
D89*
X+8128000Y-2250000D03*
X+8128000Y-2540000D03*
D88*
X+7848600Y-2405380D03*
X+7548600Y-2405380D03*
D89*
X+7150100Y-309880D03*
X+7150100Y-609880D03*
X+8102600Y-119380D03*
X+8102600Y-409380D03*
D88*
X+7594600Y-119380D03*
X+7884600Y-119380D03*
X+7848600Y-2659380D03*
X+7558600Y-2659380D03*
D89*
X+6642100Y-309880D03*
X+6642100Y-609880D03*
D88*
X+7023100Y-817880D03*
X+6723100Y-817880D03*
X+7259600Y-1643380D03*
X+6959600Y-1643380D03*
X+7259600Y-1897380D03*
X+6959600Y-1897380D03*
X+6705600Y-1897380D03*
X+6405600Y-1897380D03*
X+4864100Y-1897380D03*
X+4564100Y-1897380D03*
X+4546600Y-817880D03*
X+4246600Y-817880D03*
X+4211600Y-1643380D03*
X+3911600Y-1643380D03*
D89*
X+4165600Y-309880D03*
X+4165600Y-609880D03*
D88*
X+4864100Y-1643380D03*
X+4564100Y-1643380D03*
X+5435600Y-2405380D03*
X+5135600Y-2405380D03*
X+5435600Y-2659380D03*
X+5145600Y-2659380D03*
D89*
X+5689600Y-2242380D03*
X+5689600Y-2532380D03*
X+5689600Y-119380D03*
X+5689600Y-409380D03*
D88*
X+5145600Y-119380D03*
X+5435600Y-119380D03*
X+3022600Y-2659380D03*
X+2732600Y-2659380D03*
D89*
X+3276600Y-2278380D03*
X+3276600Y-2568380D03*
X+3276600Y-182880D03*
X+3276600Y-472880D03*
D88*
X+2768600Y-182880D03*
X+3058600Y-182880D03*
D89*
X+3911600Y-599880D03*
X+3911600Y-309880D03*
X+4419600Y-599880D03*
X+4419600Y-309880D03*
X+4673600Y-309880D03*
X+4673600Y-609880D03*
D88*
X+4201600Y-2151380D03*
X+3911600Y-2151380D03*
X+4201600Y-1897380D03*
X+3911600Y-1897380D03*
X+4864100Y-2151380D03*
X+4574100Y-2151380D03*
X+3022600Y-2405380D03*
X+2722600Y-2405380D03*
D89*
X+2006600Y-563880D03*
X+2006600Y-273880D03*
X+1498600Y-563880D03*
X+1498600Y-273880D03*
X-914400Y-599880D03*
X-914400Y-309880D03*
X-406400Y-599880D03*
X-406400Y-309880D03*
X+1752600Y-263880D03*
X+1752600Y-563880D03*
X-660400Y-309880D03*
X-660400Y-609880D03*
D88*
X+2179600Y-817880D03*
X+1879600Y-817880D03*
X-233400Y-817880D03*
X-533400Y-817880D03*
D89*
X+2260600Y-263880D03*
X+2260600Y-563880D03*
X-152400Y-309880D03*
X-152400Y-609880D03*
X-3327400Y-563880D03*
X-3327400Y-273880D03*
X-2819400Y-563880D03*
X-2819400Y-273880D03*
X-2565400Y-263880D03*
X-2565400Y-563880D03*
X-3073400Y-263880D03*
X-3073400Y-563880D03*
D88*
X-2692400Y-817880D03*
X-2992400Y-817880D03*
X+1788600Y-2151380D03*
X+1498600Y-2151380D03*
X+1788600Y-1643380D03*
X+1498600Y-1643380D03*
X+2360100Y-2151380D03*
X+2070100Y-2151380D03*
X+2370100Y-1897380D03*
X+2070100Y-1897380D03*
X+1798600Y-1897380D03*
X+1498600Y-1897380D03*
X+2370100Y-1643380D03*
X+2070100Y-1643380D03*
X+609600Y-2405380D03*
X+309600Y-2405380D03*
D89*
X+863600Y-2242380D03*
X+863600Y-2532380D03*
D88*
X+609600Y-2659380D03*
X+319600Y-2659380D03*
D89*
X+863600Y-182880D03*
X+863600Y-472880D03*
D88*
X+355600Y-182880D03*
X+645600Y-182880D03*
X+10600Y-2151380D03*
X-279400Y-2151380D03*
X-624400Y-2151380D03*
X-914400Y-2151380D03*
X-624400Y-1643380D03*
X-914400Y-1643380D03*
X+20600Y-1897380D03*
X-279400Y-1897380D03*
X-614400Y-1897380D03*
X-914400Y-1897380D03*
X+20600Y-1643380D03*
X-279400Y-1643380D03*
X-2392400Y-1897380D03*
X-2692400Y-1897380D03*
X-3027400Y-1643380D03*
X-3327400Y-1643380D03*
X-2392400Y-1643380D03*
X-2692400Y-1643380D03*
X-1803400Y-2405380D03*
X-2103400Y-2405380D03*
X-3037400Y-2151380D03*
X-3327400Y-2151380D03*
X-3037400Y-1897380D03*
X-3327400Y-1897380D03*
X-2402400Y-2151380D03*
X-2692400Y-2151380D03*
D89*
X-1549400Y-2278380D03*
X-1549400Y-2568380D03*
X-1549400Y-146880D03*
X-1549400Y-436880D03*
D88*
X-2057400Y-182880D03*
X-1767400Y-182880D03*
X-1803400Y-2659380D03*
X-2093400Y-2659380D03*
D93*
X-4254500Y+817880D03*
D94*
X-4025900Y+127000D03*
X-4483100Y+127000D03*
D92*
X-5905500Y+635000D03*
X-5905500Y+25000D03*
D99*
X-5143500Y-1016000D03*
X-5143500Y-1143000D03*
X-5143500Y-1270000D03*
X-5143500Y-1397000D03*
X-5664200Y-1397000D03*
X-5664200Y-1270000D03*
X-5664200Y-1143000D03*
X-5664200Y-1016000D03*
D95*
X-4191000Y-2108200D03*
X-4318000Y-2108200D03*
X-4445000Y-2108200D03*
X-4572000Y-2108200D03*
X-4572000Y-1587500D03*
X-4445000Y-1587500D03*
X-4318000Y-1587500D03*
X-4191000Y-1587500D03*
D90*
X-5080000Y+1460500D03*
X-5080000Y+1010500D03*
D97*
X-4000500Y-1949450D03*
X-4000500Y-1714500D03*
D98*
X-3843020Y-1333500D03*
X-3749040Y-1524000D03*
X-3937000Y-1524000D03*
D91*
X-5905500Y+970500D03*
X-5905500Y+1415000D03*
D87*
X-5489500Y+190500D03*
X-4889500Y+190500D03*
D88*
X-4780000Y-1905000D03*
X-5080000Y-1905000D03*
X-5034000Y-825500D03*
X-5334000Y-825500D03*
X-5351500Y-1651000D03*
X-5651500Y-1651000D03*
D89*
X-5397500Y-317500D03*
X-5397500Y-617500D03*
D88*
X-4780000Y-1651000D03*
X-5080000Y-1651000D03*
X-4191000Y-2413000D03*
X-4491000Y-2413000D03*
X-4191000Y-762000D03*
X-4491000Y-762000D03*
D89*
X-4889500Y-317500D03*
X-4889500Y-617500D03*
D96*
X-4141610Y-1157110D03*
X-4522610Y-1157110D03*
D88*
X-5361500Y-2159000D03*
X-5651500Y-2159000D03*
X-5361500Y-1905000D03*
X-5651500Y-1905000D03*
D89*
X-5651500Y-607500D03*
X-5651500Y-317500D03*
X-5143500Y-607500D03*
X-5143500Y-317500D03*
D88*
X-4790000Y-2159000D03*
X-5080000Y-2159000D03*
D89*
X-3937000Y-2250000D03*
X-3937000Y-2540000D03*
X-4000500Y-190500D03*
X-4000500Y-480500D03*
D88*
X-4508500Y-190500D03*
X-4218500Y-190500D03*
X-4191000Y-2667000D03*
X-4481000Y-2667000D03*
X+7366000Y-2413000D03*
X+7076000Y-2413000D03*
X+4953000Y-2413000D03*
X+4663000Y-2413000D03*
X+2540000Y-2413000D03*
X+2250000Y-2413000D03*
X+127000Y-2413000D03*
X-163000Y-2413000D03*
X-2286000Y-2413000D03*
X-2576000Y-2413000D03*
X-4790000Y-2476500D03*
X-5080000Y-2476500D03*
D39*
X-7429500Y-4254500D02*
X+8509000Y-4254500D01*
X+8509000Y+2921000D01*
X-7429500Y+2921000D01*
X-7429500Y-4254500D01*
M02*
