G04 PROTEUS GERBER X2 FILE*
%TF.GenerationSoftware,Labcenter,Proteus,8.7-SP3-Build25561*%
%TF.CreationDate,2021-04-27T11:41:34+00:00*%
%TF.FileFunction,Plated,1,6,PTH*%
%TF.FilePolarity,Positive*%
%TF.Part,Single*%
%TF.SameCoordinates,{43023d15-ec65-4f75-b5c5-abaf8f280f1e}*%
%FSLAX45Y45*%
%MOMM*%
G01*
%TA.AperFunction,ViaDrill*%
%ADD133C,0.381000*%
%ADD134C,0.508000*%
%TA.AperFunction,ComponentDrill*%
%ADD135C,1.524000*%
%ADD136C,1.143000*%
%ADD137C,0.762000*%
%TA.AperFunction,OtherDrill,Unknown*%
%ADD138C,4.064000*%
%TD.AperFunction*%
D133*
X+1145382Y-2682923D03*
D134*
X-1079500Y-2730500D03*
X-2032000Y-3556000D03*
X-1524000Y-3048000D03*
X-1270000Y-2413000D03*
X+825500Y-3048000D03*
X+319343Y-3295127D03*
X+254000Y-3556000D03*
X+2730500Y-3302000D03*
X+2730500Y-3556000D03*
X-4233153Y-4064000D03*
X-2039404Y-3298486D03*
X-2033394Y-3554606D03*
X+5207000Y-3302000D03*
X+5207000Y-3556000D03*
X+6032500Y-2095500D03*
X+3238500Y-3048000D03*
X+1079500Y-2413000D03*
X+1143584Y-2681125D03*
X-3783137Y-2867613D03*
X-3424759Y-2876572D03*
X-3810000Y-1079500D03*
X-3683000Y-2222500D03*
X+6858000Y-3556000D03*
D133*
X-4635500Y-3302000D03*
D134*
X+5715000Y-3048000D03*
D133*
X+7556500Y-2857500D03*
X+3429000Y-3302000D03*
D134*
X-3937000Y-3048000D03*
X-4635657Y-3301843D03*
X-4762500Y-3556000D03*
X+4635500Y-3048000D03*
X+5995294Y-3705851D03*
X+8128000Y-2730500D03*
X+7558600Y-2855400D03*
X-5973747Y-483809D03*
X-5497414Y-3295974D03*
X-5143500Y+2349500D03*
X-3873500Y+1333500D03*
X-4635500Y+1460500D03*
X-2984500Y+1587500D03*
X-571500Y+1651000D03*
X-88587Y+1658838D03*
X+1714500Y+1651000D03*
X+2182519Y+1654135D03*
X+4134346Y+1645009D03*
X+4538704Y+1652360D03*
X+5778500Y+1968500D03*
X+6437156Y+1707029D03*
D135*
X-6223000Y-2476500D03*
X-6223000Y-2921000D03*
D136*
X-2095500Y+1841500D03*
X-1651000Y+1841500D03*
D137*
X-2921000Y-3556000D03*
X-2921000Y-3048000D03*
X-2921000Y-3302000D03*
D136*
X+571500Y+1841500D03*
X+127000Y+1841500D03*
D137*
X-762000Y-3556000D03*
X-762000Y-3302000D03*
X-762000Y-3048000D03*
X+1587500Y-3302000D03*
X+1587500Y-3556000D03*
X+1587500Y-3048000D03*
D136*
X+2857500Y+1841500D03*
X+2413000Y+1841500D03*
D137*
X+3937000Y-3556000D03*
X+6223000Y-3556000D03*
X+3937000Y-3048000D03*
X+6223000Y-3048000D03*
X+3937000Y-3302000D03*
X+6223000Y-3302000D03*
D136*
X+5207000Y+1841500D03*
X+4762500Y+1841500D03*
X+7556500Y+1841500D03*
X+7112000Y+1841500D03*
D137*
X+7112000Y-3302000D03*
X+5461000Y-3302000D03*
X+2984500Y-3302000D03*
X+571500Y-3302000D03*
X-1778000Y-3302000D03*
X+7112000Y-3556000D03*
X+5461000Y-3556000D03*
X+2984500Y-3556000D03*
X+571500Y-3556000D03*
X-1778000Y-3556000D03*
X+7112000Y-3048000D03*
X+5461000Y-3048000D03*
X+2984500Y-3048000D03*
X+571500Y-3048000D03*
X-1778000Y-3048000D03*
D136*
X+6667500Y+1841500D03*
X+6223000Y+1841500D03*
X+4318000Y+1841500D03*
X+3873500Y+1841500D03*
X+1968500Y+1841500D03*
X+1524000Y+1841500D03*
X-317500Y+1841500D03*
X-762000Y+1841500D03*
X-2540000Y+1841500D03*
X-2984500Y+1841500D03*
X-5016500Y+1905000D03*
X-4635500Y+1905000D03*
D137*
X-4318000Y-3556000D03*
X-4318000Y-3048000D03*
X-4318000Y-3302000D03*
D138*
X-6096000Y-3746500D03*
X-6096000Y+2413000D03*
X+8001000Y+2413000D03*
X+8001000Y-3746500D03*
D137*
X-5207000Y-3048000D03*
X-5207000Y-3302000D03*
X-5207000Y-3556000D03*
M02*
