G04 PROTEUS RS274X GERBER FILE*
%FSLAX45Y45*%
%MOMM*%
G01*
%ADD39C,0.203200*%
%ADD42C,0.250000*%
%ADD41C,0.200000*%
%ADD43C,0.101600*%
%ADD44C,0.100000*%
D39*
X-7429500Y-4254500D02*
X+8509000Y-4254500D01*
X+8509000Y+2921000D01*
X-7429500Y+2921000D01*
X-7429500Y-4254500D01*
X+8051800Y-1424940D02*
X+8140700Y-1424940D01*
X+8158480Y-1536700D02*
X+8229600Y-1536700D01*
X+8051800Y-1424940D02*
X+8051800Y-1516380D01*
X+8341360Y-1518920D02*
X+8341360Y-1424940D01*
X+8255000Y-1424940D01*
X+8191500Y+452120D02*
X+8191500Y+375920D01*
X+7556500Y+375920D01*
X+7556500Y+452120D01*
X+7912100Y+375920D02*
X+7912100Y+325120D01*
X+7835900Y+325120D01*
X+7835900Y+375920D01*
X+8140700Y+375920D02*
X+8140700Y+299720D01*
X+8077200Y+299720D01*
X+8077200Y+375920D01*
X+7607300Y+375920D02*
X+7607300Y+299720D01*
X+7670800Y+299720D01*
X+7670800Y+375920D02*
X+7670800Y+299720D01*
X+5638800Y-1424940D02*
X+5727700Y-1424940D01*
X+5745480Y-1536700D02*
X+5816600Y-1536700D01*
X+5638800Y-1424940D02*
X+5638800Y-1516380D01*
X+5928360Y-1518920D02*
X+5928360Y-1424940D01*
X+5842000Y-1424940D01*
X+5778500Y+452120D02*
X+5778500Y+375920D01*
X+5143500Y+375920D01*
X+5143500Y+452120D01*
X+5499100Y+375920D02*
X+5499100Y+325120D01*
X+5422900Y+325120D01*
X+5422900Y+375920D01*
X+5727700Y+375920D02*
X+5727700Y+299720D01*
X+5664200Y+299720D01*
X+5664200Y+375920D01*
X+5194300Y+375920D02*
X+5194300Y+299720D01*
X+5257800Y+299720D01*
X+5257800Y+375920D02*
X+5257800Y+299720D01*
X+3225800Y-1424940D02*
X+3314700Y-1424940D01*
X+3332480Y-1536700D02*
X+3403600Y-1536700D01*
X+3225800Y-1424940D02*
X+3225800Y-1516380D01*
X+3515360Y-1518920D02*
X+3515360Y-1424940D01*
X+3429000Y-1424940D01*
X+3365500Y+452120D02*
X+3365500Y+375920D01*
X+2730500Y+375920D01*
X+2730500Y+452120D01*
X+3086100Y+375920D02*
X+3086100Y+325120D01*
X+3009900Y+325120D01*
X+3009900Y+375920D01*
X+3314700Y+375920D02*
X+3314700Y+299720D01*
X+3251200Y+299720D01*
X+3251200Y+375920D01*
X+2781300Y+375920D02*
X+2781300Y+299720D01*
X+2844800Y+299720D01*
X+2844800Y+375920D02*
X+2844800Y+299720D01*
X+812800Y-1424940D02*
X+901700Y-1424940D01*
X+919480Y-1536700D02*
X+990600Y-1536700D01*
X+812800Y-1424940D02*
X+812800Y-1516380D01*
X+1102360Y-1518920D02*
X+1102360Y-1424940D01*
X+1016000Y-1424940D01*
X+952500Y+452120D02*
X+952500Y+375920D01*
X+317500Y+375920D01*
X+317500Y+452120D01*
X+673100Y+375920D02*
X+673100Y+325120D01*
X+596900Y+325120D01*
X+596900Y+375920D01*
X+901700Y+375920D02*
X+901700Y+299720D01*
X+838200Y+299720D01*
X+838200Y+375920D01*
X+368300Y+375920D02*
X+368300Y+299720D01*
X+431800Y+299720D01*
X+431800Y+375920D02*
X+431800Y+299720D01*
X-1600200Y-1424940D02*
X-1511300Y-1424940D01*
X-1493520Y-1536700D02*
X-1422400Y-1536700D01*
X-1600200Y-1424940D02*
X-1600200Y-1516380D01*
X-1310640Y-1518920D02*
X-1310640Y-1424940D01*
X-1397000Y-1424940D01*
X-1460500Y+452120D02*
X-1460500Y+375920D01*
X-2095500Y+375920D01*
X-2095500Y+452120D01*
X-1739900Y+375920D02*
X-1739900Y+325120D01*
X-1816100Y+325120D01*
X-1816100Y+375920D01*
X-1511300Y+375920D02*
X-1511300Y+299720D01*
X-1574800Y+299720D01*
X-1574800Y+375920D01*
X-2044700Y+375920D02*
X-2044700Y+299720D01*
X-1981200Y+299720D01*
X-1981200Y+375920D02*
X-1981200Y+299720D01*
D42*
X+7259100Y+834620D02*
X+7259057Y+835659D01*
X+7258705Y+837738D01*
X+7257968Y+839817D01*
X+7256764Y+841896D01*
X+7254923Y+843946D01*
X+7252844Y+845449D01*
X+7250765Y+846406D01*
X+7248686Y+846945D01*
X+7246607Y+847120D01*
X+7246600Y+847120D01*
X+7234100Y+834620D02*
X+7234143Y+835659D01*
X+7234495Y+837738D01*
X+7235232Y+839817D01*
X+7236436Y+841896D01*
X+7238277Y+843946D01*
X+7240356Y+845449D01*
X+7242435Y+846406D01*
X+7244514Y+846945D01*
X+7246593Y+847120D01*
X+7246600Y+847120D01*
X+7234100Y+834620D02*
X+7234143Y+833581D01*
X+7234495Y+831502D01*
X+7235232Y+829423D01*
X+7236436Y+827344D01*
X+7238277Y+825294D01*
X+7240356Y+823791D01*
X+7242435Y+822834D01*
X+7244514Y+822295D01*
X+7246593Y+822120D01*
X+7246600Y+822120D01*
X+7259100Y+834620D02*
X+7259057Y+833581D01*
X+7258705Y+831502D01*
X+7257968Y+829423D01*
X+7256764Y+827344D01*
X+7254923Y+825294D01*
X+7252844Y+823791D01*
X+7250765Y+822834D01*
X+7248686Y+822295D01*
X+7246607Y+822120D01*
X+7246600Y+822120D01*
D41*
X+7231600Y+899620D02*
X+7276600Y+899620D01*
X+7276600Y+1459620D01*
X+7231600Y+1459620D01*
X+6941600Y+899620D02*
X+6896600Y+899620D01*
X+6896600Y+1459620D01*
X+6941600Y+1459620D01*
D43*
X+7969100Y-1793340D02*
X+8109100Y-1793340D01*
X+7969100Y-1813340D02*
X+8109100Y-1813340D01*
X+7969100Y-1923340D02*
X+8109100Y-1923340D01*
X+8109100Y-1763340D01*
X+7969100Y-1763340D01*
X+7969100Y-1923340D01*
D42*
X+4846100Y+834620D02*
X+4846057Y+835659D01*
X+4845705Y+837738D01*
X+4844968Y+839817D01*
X+4843764Y+841896D01*
X+4841923Y+843946D01*
X+4839844Y+845449D01*
X+4837765Y+846406D01*
X+4835686Y+846945D01*
X+4833607Y+847120D01*
X+4833600Y+847120D01*
X+4821100Y+834620D02*
X+4821143Y+835659D01*
X+4821495Y+837738D01*
X+4822232Y+839817D01*
X+4823436Y+841896D01*
X+4825277Y+843946D01*
X+4827356Y+845449D01*
X+4829435Y+846406D01*
X+4831514Y+846945D01*
X+4833593Y+847120D01*
X+4833600Y+847120D01*
X+4821100Y+834620D02*
X+4821143Y+833581D01*
X+4821495Y+831502D01*
X+4822232Y+829423D01*
X+4823436Y+827344D01*
X+4825277Y+825294D01*
X+4827356Y+823791D01*
X+4829435Y+822834D01*
X+4831514Y+822295D01*
X+4833593Y+822120D01*
X+4833600Y+822120D01*
X+4846100Y+834620D02*
X+4846057Y+833581D01*
X+4845705Y+831502D01*
X+4844968Y+829423D01*
X+4843764Y+827344D01*
X+4841923Y+825294D01*
X+4839844Y+823791D01*
X+4837765Y+822834D01*
X+4835686Y+822295D01*
X+4833607Y+822120D01*
X+4833600Y+822120D01*
D41*
X+4818600Y+899620D02*
X+4863600Y+899620D01*
X+4863600Y+1459620D01*
X+4818600Y+1459620D01*
X+4528600Y+899620D02*
X+4483600Y+899620D01*
X+4483600Y+1459620D01*
X+4528600Y+1459620D01*
D43*
X+5556100Y-1793340D02*
X+5696100Y-1793340D01*
X+5556100Y-1813340D02*
X+5696100Y-1813340D01*
X+5556100Y-1923340D02*
X+5696100Y-1923340D01*
X+5696100Y-1763340D01*
X+5556100Y-1763340D01*
X+5556100Y-1923340D01*
D42*
X+2433100Y+834620D02*
X+2433057Y+835659D01*
X+2432705Y+837738D01*
X+2431968Y+839817D01*
X+2430764Y+841896D01*
X+2428923Y+843946D01*
X+2426844Y+845449D01*
X+2424765Y+846406D01*
X+2422686Y+846945D01*
X+2420607Y+847120D01*
X+2420600Y+847120D01*
X+2408100Y+834620D02*
X+2408143Y+835659D01*
X+2408495Y+837738D01*
X+2409232Y+839817D01*
X+2410436Y+841896D01*
X+2412277Y+843946D01*
X+2414356Y+845449D01*
X+2416435Y+846406D01*
X+2418514Y+846945D01*
X+2420593Y+847120D01*
X+2420600Y+847120D01*
X+2408100Y+834620D02*
X+2408143Y+833581D01*
X+2408495Y+831502D01*
X+2409232Y+829423D01*
X+2410436Y+827344D01*
X+2412277Y+825294D01*
X+2414356Y+823791D01*
X+2416435Y+822834D01*
X+2418514Y+822295D01*
X+2420593Y+822120D01*
X+2420600Y+822120D01*
X+2433100Y+834620D02*
X+2433057Y+833581D01*
X+2432705Y+831502D01*
X+2431968Y+829423D01*
X+2430764Y+827344D01*
X+2428923Y+825294D01*
X+2426844Y+823791D01*
X+2424765Y+822834D01*
X+2422686Y+822295D01*
X+2420607Y+822120D01*
X+2420600Y+822120D01*
D41*
X+2405600Y+899620D02*
X+2450600Y+899620D01*
X+2450600Y+1459620D01*
X+2405600Y+1459620D01*
X+2115600Y+899620D02*
X+2070600Y+899620D01*
X+2070600Y+1459620D01*
X+2115600Y+1459620D01*
D43*
X+3143100Y-1793340D02*
X+3283100Y-1793340D01*
X+3143100Y-1813340D02*
X+3283100Y-1813340D01*
X+3143100Y-1923340D02*
X+3283100Y-1923340D01*
X+3283100Y-1763340D01*
X+3143100Y-1763340D01*
X+3143100Y-1923340D01*
D42*
X+20100Y+834620D02*
X+20057Y+835659D01*
X+19705Y+837738D01*
X+18968Y+839817D01*
X+17764Y+841896D01*
X+15923Y+843946D01*
X+13844Y+845449D01*
X+11765Y+846406D01*
X+9686Y+846945D01*
X+7607Y+847120D01*
X+7600Y+847120D01*
X-4900Y+834620D02*
X-4857Y+835659D01*
X-4505Y+837738D01*
X-3768Y+839817D01*
X-2564Y+841896D01*
X-723Y+843946D01*
X+1356Y+845449D01*
X+3435Y+846406D01*
X+5514Y+846945D01*
X+7593Y+847120D01*
X+7600Y+847120D01*
X-4900Y+834620D02*
X-4857Y+833581D01*
X-4505Y+831502D01*
X-3768Y+829423D01*
X-2564Y+827344D01*
X-723Y+825294D01*
X+1356Y+823791D01*
X+3435Y+822834D01*
X+5514Y+822295D01*
X+7593Y+822120D01*
X+7600Y+822120D01*
X+20100Y+834620D02*
X+20057Y+833581D01*
X+19705Y+831502D01*
X+18968Y+829423D01*
X+17764Y+827344D01*
X+15923Y+825294D01*
X+13844Y+823791D01*
X+11765Y+822834D01*
X+9686Y+822295D01*
X+7607Y+822120D01*
X+7600Y+822120D01*
D41*
X-7400Y+899620D02*
X+37600Y+899620D01*
X+37600Y+1459620D01*
X-7400Y+1459620D01*
X-297400Y+899620D02*
X-342400Y+899620D01*
X-342400Y+1459620D01*
X-297400Y+1459620D01*
D43*
X+730100Y-1793340D02*
X+870100Y-1793340D01*
X+730100Y-1813340D02*
X+870100Y-1813340D01*
X+730100Y-1923340D02*
X+870100Y-1923340D01*
X+870100Y-1763340D01*
X+730100Y-1763340D01*
X+730100Y-1923340D01*
D42*
X-2392900Y+834620D02*
X-2392943Y+835659D01*
X-2393295Y+837738D01*
X-2394032Y+839817D01*
X-2395236Y+841896D01*
X-2397077Y+843946D01*
X-2399156Y+845449D01*
X-2401235Y+846406D01*
X-2403314Y+846945D01*
X-2405393Y+847120D01*
X-2405400Y+847120D01*
X-2417900Y+834620D02*
X-2417857Y+835659D01*
X-2417505Y+837738D01*
X-2416768Y+839817D01*
X-2415564Y+841896D01*
X-2413723Y+843946D01*
X-2411644Y+845449D01*
X-2409565Y+846406D01*
X-2407486Y+846945D01*
X-2405407Y+847120D01*
X-2405400Y+847120D01*
X-2417900Y+834620D02*
X-2417857Y+833581D01*
X-2417505Y+831502D01*
X-2416768Y+829423D01*
X-2415564Y+827344D01*
X-2413723Y+825294D01*
X-2411644Y+823791D01*
X-2409565Y+822834D01*
X-2407486Y+822295D01*
X-2405407Y+822120D01*
X-2405400Y+822120D01*
X-2392900Y+834620D02*
X-2392943Y+833581D01*
X-2393295Y+831502D01*
X-2394032Y+829423D01*
X-2395236Y+827344D01*
X-2397077Y+825294D01*
X-2399156Y+823791D01*
X-2401235Y+822834D01*
X-2403314Y+822295D01*
X-2405393Y+822120D01*
X-2405400Y+822120D01*
D41*
X-2420400Y+899620D02*
X-2375400Y+899620D01*
X-2375400Y+1459620D01*
X-2420400Y+1459620D01*
X-2710400Y+899620D02*
X-2755400Y+899620D01*
X-2755400Y+1459620D01*
X-2710400Y+1459620D01*
D43*
X-1682900Y-1793340D02*
X-1542900Y-1793340D01*
X-1682900Y-1813340D02*
X-1542900Y-1813340D01*
X-1682900Y-1923340D02*
X-1542900Y-1923340D01*
X-1542900Y-1763340D01*
X-1682900Y-1763340D01*
X-1682900Y-1923340D01*
D41*
X+6805600Y+463120D02*
X+7205600Y+463120D01*
X+6805600Y-66880D02*
X+7205600Y-66880D01*
X+4329100Y+463120D02*
X+4729100Y+463120D01*
X+4329100Y-66880D02*
X+4729100Y-66880D01*
X+1916100Y+463120D02*
X+2316100Y+463120D01*
X+1916100Y-66880D02*
X+2316100Y-66880D01*
X-496900Y+463120D02*
X-96900Y+463120D01*
X-496900Y-66880D02*
X-96900Y-66880D01*
X-2909900Y+463120D02*
X-2509900Y+463120D01*
X-2909900Y-66880D02*
X-2509900Y-66880D01*
D39*
X+6642100Y+978120D02*
X+6515100Y+851120D01*
X+6134100Y+851120D01*
X+6007100Y+978120D01*
X+6007100Y+1422620D01*
X+6642100Y+1422620D01*
X+6642100Y+978120D01*
X+6515100Y+914620D02*
X+6515100Y+1041620D01*
X+6578600Y+978120D02*
X+6451600Y+978120D01*
X+4229100Y+978120D02*
X+4102100Y+851120D01*
X+3721100Y+851120D01*
X+3594100Y+978120D01*
X+3594100Y+1422620D01*
X+4229100Y+1422620D01*
X+4229100Y+978120D01*
X+4102100Y+914620D02*
X+4102100Y+1041620D01*
X+4165600Y+978120D02*
X+4038600Y+978120D01*
X+1816100Y+978120D02*
X+1689100Y+851120D01*
X+1308100Y+851120D01*
X+1181100Y+978120D01*
X+1181100Y+1422620D01*
X+1816100Y+1422620D01*
X+1816100Y+978120D01*
X+1689100Y+914620D02*
X+1689100Y+1041620D01*
X+1752600Y+978120D02*
X+1625600Y+978120D01*
X-596900Y+978120D02*
X-723900Y+851120D01*
X-1104900Y+851120D01*
X-1231900Y+978120D01*
X-1231900Y+1422620D01*
X-596900Y+1422620D01*
X-596900Y+978120D01*
X-723900Y+914620D02*
X-723900Y+1041620D01*
X-660400Y+978120D02*
X-787400Y+978120D01*
X-3009900Y+978120D02*
X-3136900Y+851120D01*
X-3517900Y+851120D01*
X-3644900Y+978120D01*
X-3644900Y+1422620D01*
X-3009900Y+1422620D01*
X-3009900Y+978120D01*
X-3136900Y+914620D02*
X-3136900Y+1041620D01*
X-3073400Y+978120D02*
X-3200400Y+978120D01*
D42*
X+6902800Y-1090900D02*
X+6902757Y-1089861D01*
X+6902405Y-1087782D01*
X+6901668Y-1085703D01*
X+6900464Y-1083624D01*
X+6898623Y-1081574D01*
X+6896544Y-1080071D01*
X+6894465Y-1079114D01*
X+6892386Y-1078575D01*
X+6890307Y-1078400D01*
X+6890300Y-1078400D01*
X+6877800Y-1090900D02*
X+6877843Y-1089861D01*
X+6878195Y-1087782D01*
X+6878932Y-1085703D01*
X+6880136Y-1083624D01*
X+6881977Y-1081574D01*
X+6884056Y-1080071D01*
X+6886135Y-1079114D01*
X+6888214Y-1078575D01*
X+6890293Y-1078400D01*
X+6890300Y-1078400D01*
X+6877800Y-1090900D02*
X+6877843Y-1091939D01*
X+6878195Y-1094018D01*
X+6878932Y-1096097D01*
X+6880136Y-1098176D01*
X+6881977Y-1100226D01*
X+6884056Y-1101729D01*
X+6886135Y-1102686D01*
X+6888214Y-1103225D01*
X+6890293Y-1103400D01*
X+6890300Y-1103400D01*
X+6902800Y-1090900D02*
X+6902757Y-1091939D01*
X+6902405Y-1094018D01*
X+6901668Y-1096097D01*
X+6900464Y-1098176D01*
X+6898623Y-1100226D01*
X+6896544Y-1101729D01*
X+6894465Y-1102686D01*
X+6892386Y-1103225D01*
X+6890307Y-1103400D01*
X+6890300Y-1103400D01*
D41*
X+6740300Y-1420900D02*
X+6520300Y-1420900D01*
X+6520300Y-1110900D01*
X+6740300Y-1110900D01*
X+6740300Y-1420900D01*
D44*
X+6740300Y-1120900D02*
X+6730300Y-1110900D01*
X+6740300Y-1130900D02*
X+6720300Y-1110900D01*
X+6740300Y-1140900D02*
X+6710300Y-1110900D01*
X+6740300Y-1150900D02*
X+6700300Y-1110900D01*
X+6740300Y-1160900D02*
X+6690300Y-1110900D01*
X+6740300Y-1170900D02*
X+6680300Y-1110900D01*
X+6740300Y-1180900D02*
X+6670300Y-1110900D01*
X+6740300Y-1190900D02*
X+6660300Y-1110900D01*
X+6740300Y-1200900D02*
X+6650300Y-1110900D01*
D39*
X+7881620Y-1948180D02*
X+7881620Y-1867218D01*
X+7870999Y-1865136D01*
X+7862433Y-1859416D01*
X+7856714Y-1850851D01*
X+7854632Y-1840230D01*
X+7881620Y-1813242D02*
X+7870999Y-1815324D01*
X+7862433Y-1821044D01*
X+7856714Y-1829609D01*
X+7854632Y-1840230D01*
X+7881620Y-1813242D02*
X+7881620Y-1732280D01*
X+7434580Y-1871980D02*
X+7434580Y-1808480D01*
X+7848600Y-1948180D02*
X+7467600Y-1948180D01*
X+7848600Y-1732280D02*
X+7467600Y-1732280D01*
X+7848600Y-1948180D02*
X+7881620Y-1948180D01*
X+7881620Y-1732280D02*
X+7848600Y-1732280D01*
X+7434580Y-1808480D02*
X+7434580Y-1732280D01*
X+7467600Y-1732280D01*
X+7467600Y-1948180D02*
X+7434580Y-1948180D01*
X+7434580Y-1871980D01*
X+7842504Y-1912620D02*
X+7842469Y-1911775D01*
X+7842182Y-1910084D01*
X+7841583Y-1908393D01*
X+7840603Y-1906702D01*
X+7839103Y-1905034D01*
X+7837412Y-1903814D01*
X+7835721Y-1903038D01*
X+7834030Y-1902601D01*
X+7832344Y-1902460D01*
X+7822184Y-1912620D02*
X+7822219Y-1911775D01*
X+7822506Y-1910084D01*
X+7823105Y-1908393D01*
X+7824085Y-1906702D01*
X+7825585Y-1905034D01*
X+7827276Y-1903814D01*
X+7828967Y-1903038D01*
X+7830658Y-1902601D01*
X+7832344Y-1902460D01*
X+7822184Y-1912620D02*
X+7822219Y-1913465D01*
X+7822506Y-1915156D01*
X+7823105Y-1916847D01*
X+7824085Y-1918538D01*
X+7825585Y-1920206D01*
X+7827276Y-1921426D01*
X+7828967Y-1922202D01*
X+7830658Y-1922639D01*
X+7832344Y-1922780D01*
X+7842504Y-1912620D02*
X+7842469Y-1913465D01*
X+7842182Y-1915156D01*
X+7841583Y-1916847D01*
X+7840603Y-1918538D01*
X+7839103Y-1920206D01*
X+7837412Y-1921426D01*
X+7835721Y-1922202D01*
X+7834030Y-1922639D01*
X+7832344Y-1922780D01*
D42*
X+4399100Y-1099100D02*
X+4399057Y-1098061D01*
X+4398705Y-1095982D01*
X+4397968Y-1093903D01*
X+4396764Y-1091824D01*
X+4394923Y-1089774D01*
X+4392844Y-1088271D01*
X+4390765Y-1087314D01*
X+4388686Y-1086775D01*
X+4386607Y-1086600D01*
X+4386600Y-1086600D01*
X+4374100Y-1099100D02*
X+4374143Y-1098061D01*
X+4374495Y-1095982D01*
X+4375232Y-1093903D01*
X+4376436Y-1091824D01*
X+4378277Y-1089774D01*
X+4380356Y-1088271D01*
X+4382435Y-1087314D01*
X+4384514Y-1086775D01*
X+4386593Y-1086600D01*
X+4386600Y-1086600D01*
X+4374100Y-1099100D02*
X+4374143Y-1100139D01*
X+4374495Y-1102218D01*
X+4375232Y-1104297D01*
X+4376436Y-1106376D01*
X+4378277Y-1108426D01*
X+4380356Y-1109929D01*
X+4382435Y-1110886D01*
X+4384514Y-1111425D01*
X+4386593Y-1111600D01*
X+4386600Y-1111600D01*
X+4399100Y-1099100D02*
X+4399057Y-1100139D01*
X+4398705Y-1102218D01*
X+4397968Y-1104297D01*
X+4396764Y-1106376D01*
X+4394923Y-1108426D01*
X+4392844Y-1109929D01*
X+4390765Y-1110886D01*
X+4388686Y-1111425D01*
X+4386607Y-1111600D01*
X+4386600Y-1111600D01*
D41*
X+4236600Y-1429100D02*
X+4016600Y-1429100D01*
X+4016600Y-1119100D01*
X+4236600Y-1119100D01*
X+4236600Y-1429100D01*
D44*
X+4236600Y-1129100D02*
X+4226600Y-1119100D01*
X+4236600Y-1139100D02*
X+4216600Y-1119100D01*
X+4236600Y-1149100D02*
X+4206600Y-1119100D01*
X+4236600Y-1159100D02*
X+4196600Y-1119100D01*
X+4236600Y-1169100D02*
X+4186600Y-1119100D01*
X+4236600Y-1179100D02*
X+4176600Y-1119100D01*
X+4236600Y-1189100D02*
X+4166600Y-1119100D01*
X+4236600Y-1199100D02*
X+4156600Y-1119100D01*
X+4236600Y-1209100D02*
X+4146600Y-1119100D01*
D39*
X+5468620Y-1948180D02*
X+5468620Y-1867218D01*
X+5457999Y-1865136D01*
X+5449433Y-1859416D01*
X+5443714Y-1850851D01*
X+5441632Y-1840230D01*
X+5468620Y-1813242D02*
X+5457999Y-1815324D01*
X+5449433Y-1821044D01*
X+5443714Y-1829609D01*
X+5441632Y-1840230D01*
X+5468620Y-1813242D02*
X+5468620Y-1732280D01*
X+5021580Y-1871980D02*
X+5021580Y-1808480D01*
X+5435600Y-1948180D02*
X+5054600Y-1948180D01*
X+5435600Y-1732280D02*
X+5054600Y-1732280D01*
X+5435600Y-1948180D02*
X+5468620Y-1948180D01*
X+5468620Y-1732280D02*
X+5435600Y-1732280D01*
X+5021580Y-1808480D02*
X+5021580Y-1732280D01*
X+5054600Y-1732280D01*
X+5054600Y-1948180D02*
X+5021580Y-1948180D01*
X+5021580Y-1871980D01*
X+5429504Y-1912620D02*
X+5429469Y-1911775D01*
X+5429182Y-1910084D01*
X+5428583Y-1908393D01*
X+5427603Y-1906702D01*
X+5426103Y-1905034D01*
X+5424412Y-1903814D01*
X+5422721Y-1903038D01*
X+5421030Y-1902601D01*
X+5419344Y-1902460D01*
X+5409184Y-1912620D02*
X+5409219Y-1911775D01*
X+5409506Y-1910084D01*
X+5410105Y-1908393D01*
X+5411085Y-1906702D01*
X+5412585Y-1905034D01*
X+5414276Y-1903814D01*
X+5415967Y-1903038D01*
X+5417658Y-1902601D01*
X+5419344Y-1902460D01*
X+5409184Y-1912620D02*
X+5409219Y-1913465D01*
X+5409506Y-1915156D01*
X+5410105Y-1916847D01*
X+5411085Y-1918538D01*
X+5412585Y-1920206D01*
X+5414276Y-1921426D01*
X+5415967Y-1922202D01*
X+5417658Y-1922639D01*
X+5419344Y-1922780D01*
X+5429504Y-1912620D02*
X+5429469Y-1913465D01*
X+5429182Y-1915156D01*
X+5428583Y-1916847D01*
X+5427603Y-1918538D01*
X+5426103Y-1920206D01*
X+5424412Y-1921426D01*
X+5422721Y-1922202D01*
X+5421030Y-1922639D01*
X+5419344Y-1922780D01*
D42*
X+1986100Y-1086400D02*
X+1986057Y-1085361D01*
X+1985705Y-1083282D01*
X+1984968Y-1081203D01*
X+1983764Y-1079124D01*
X+1981923Y-1077074D01*
X+1979844Y-1075571D01*
X+1977765Y-1074614D01*
X+1975686Y-1074075D01*
X+1973607Y-1073900D01*
X+1973600Y-1073900D01*
X+1961100Y-1086400D02*
X+1961143Y-1085361D01*
X+1961495Y-1083282D01*
X+1962232Y-1081203D01*
X+1963436Y-1079124D01*
X+1965277Y-1077074D01*
X+1967356Y-1075571D01*
X+1969435Y-1074614D01*
X+1971514Y-1074075D01*
X+1973593Y-1073900D01*
X+1973600Y-1073900D01*
X+1961100Y-1086400D02*
X+1961143Y-1087439D01*
X+1961495Y-1089518D01*
X+1962232Y-1091597D01*
X+1963436Y-1093676D01*
X+1965277Y-1095726D01*
X+1967356Y-1097229D01*
X+1969435Y-1098186D01*
X+1971514Y-1098725D01*
X+1973593Y-1098900D01*
X+1973600Y-1098900D01*
X+1986100Y-1086400D02*
X+1986057Y-1087439D01*
X+1985705Y-1089518D01*
X+1984968Y-1091597D01*
X+1983764Y-1093676D01*
X+1981923Y-1095726D01*
X+1979844Y-1097229D01*
X+1977765Y-1098186D01*
X+1975686Y-1098725D01*
X+1973607Y-1098900D01*
X+1973600Y-1098900D01*
D41*
X+1823600Y-1416400D02*
X+1603600Y-1416400D01*
X+1603600Y-1106400D01*
X+1823600Y-1106400D01*
X+1823600Y-1416400D01*
D44*
X+1823600Y-1116400D02*
X+1813600Y-1106400D01*
X+1823600Y-1126400D02*
X+1803600Y-1106400D01*
X+1823600Y-1136400D02*
X+1793600Y-1106400D01*
X+1823600Y-1146400D02*
X+1783600Y-1106400D01*
X+1823600Y-1156400D02*
X+1773600Y-1106400D01*
X+1823600Y-1166400D02*
X+1763600Y-1106400D01*
X+1823600Y-1176400D02*
X+1753600Y-1106400D01*
X+1823600Y-1186400D02*
X+1743600Y-1106400D01*
X+1823600Y-1196400D02*
X+1733600Y-1106400D01*
D39*
X+3055620Y-1948180D02*
X+3055620Y-1867218D01*
X+3044999Y-1865136D01*
X+3036433Y-1859416D01*
X+3030714Y-1850851D01*
X+3028632Y-1840230D01*
X+3055620Y-1813242D02*
X+3044999Y-1815324D01*
X+3036433Y-1821044D01*
X+3030714Y-1829609D01*
X+3028632Y-1840230D01*
X+3055620Y-1813242D02*
X+3055620Y-1732280D01*
X+2608580Y-1871980D02*
X+2608580Y-1808480D01*
X+3022600Y-1948180D02*
X+2641600Y-1948180D01*
X+3022600Y-1732280D02*
X+2641600Y-1732280D01*
X+3022600Y-1948180D02*
X+3055620Y-1948180D01*
X+3055620Y-1732280D02*
X+3022600Y-1732280D01*
X+2608580Y-1808480D02*
X+2608580Y-1732280D01*
X+2641600Y-1732280D01*
X+2641600Y-1948180D02*
X+2608580Y-1948180D01*
X+2608580Y-1871980D01*
X+3016504Y-1912620D02*
X+3016469Y-1911775D01*
X+3016182Y-1910084D01*
X+3015583Y-1908393D01*
X+3014603Y-1906702D01*
X+3013103Y-1905034D01*
X+3011412Y-1903814D01*
X+3009721Y-1903038D01*
X+3008030Y-1902601D01*
X+3006344Y-1902460D01*
X+2996184Y-1912620D02*
X+2996219Y-1911775D01*
X+2996506Y-1910084D01*
X+2997105Y-1908393D01*
X+2998085Y-1906702D01*
X+2999585Y-1905034D01*
X+3001276Y-1903814D01*
X+3002967Y-1903038D01*
X+3004658Y-1902601D01*
X+3006344Y-1902460D01*
X+2996184Y-1912620D02*
X+2996219Y-1913465D01*
X+2996506Y-1915156D01*
X+2997105Y-1916847D01*
X+2998085Y-1918538D01*
X+2999585Y-1920206D01*
X+3001276Y-1921426D01*
X+3002967Y-1922202D01*
X+3004658Y-1922639D01*
X+3006344Y-1922780D01*
X+3016504Y-1912620D02*
X+3016469Y-1913465D01*
X+3016182Y-1915156D01*
X+3015583Y-1916847D01*
X+3014603Y-1918538D01*
X+3013103Y-1920206D01*
X+3011412Y-1921426D01*
X+3009721Y-1922202D01*
X+3008030Y-1922639D01*
X+3006344Y-1922780D01*
D42*
X-412400Y-1087900D02*
X-412443Y-1086861D01*
X-412795Y-1084782D01*
X-413532Y-1082703D01*
X-414736Y-1080624D01*
X-416577Y-1078574D01*
X-418656Y-1077071D01*
X-420735Y-1076114D01*
X-422814Y-1075575D01*
X-424893Y-1075400D01*
X-424900Y-1075400D01*
X-437400Y-1087900D02*
X-437357Y-1086861D01*
X-437005Y-1084782D01*
X-436268Y-1082703D01*
X-435064Y-1080624D01*
X-433223Y-1078574D01*
X-431144Y-1077071D01*
X-429065Y-1076114D01*
X-426986Y-1075575D01*
X-424907Y-1075400D01*
X-424900Y-1075400D01*
X-437400Y-1087900D02*
X-437357Y-1088939D01*
X-437005Y-1091018D01*
X-436268Y-1093097D01*
X-435064Y-1095176D01*
X-433223Y-1097226D01*
X-431144Y-1098729D01*
X-429065Y-1099686D01*
X-426986Y-1100225D01*
X-424907Y-1100400D01*
X-424900Y-1100400D01*
X-412400Y-1087900D02*
X-412443Y-1088939D01*
X-412795Y-1091018D01*
X-413532Y-1093097D01*
X-414736Y-1095176D01*
X-416577Y-1097226D01*
X-418656Y-1098729D01*
X-420735Y-1099686D01*
X-422814Y-1100225D01*
X-424893Y-1100400D01*
X-424900Y-1100400D01*
D41*
X-574900Y-1417900D02*
X-794900Y-1417900D01*
X-794900Y-1107900D01*
X-574900Y-1107900D01*
X-574900Y-1417900D01*
D44*
X-574900Y-1117900D02*
X-584900Y-1107900D01*
X-574900Y-1127900D02*
X-594900Y-1107900D01*
X-574900Y-1137900D02*
X-604900Y-1107900D01*
X-574900Y-1147900D02*
X-614900Y-1107900D01*
X-574900Y-1157900D02*
X-624900Y-1107900D01*
X-574900Y-1167900D02*
X-634900Y-1107900D01*
X-574900Y-1177900D02*
X-644900Y-1107900D01*
X-574900Y-1187900D02*
X-654900Y-1107900D01*
X-574900Y-1197900D02*
X-664900Y-1107900D01*
D39*
X+642620Y-1948180D02*
X+642620Y-1867218D01*
X+631999Y-1865136D01*
X+623433Y-1859416D01*
X+617714Y-1850851D01*
X+615632Y-1840230D01*
X+642620Y-1813242D02*
X+631999Y-1815324D01*
X+623433Y-1821044D01*
X+617714Y-1829609D01*
X+615632Y-1840230D01*
X+642620Y-1813242D02*
X+642620Y-1732280D01*
X+195580Y-1871980D02*
X+195580Y-1808480D01*
X+609600Y-1948180D02*
X+228600Y-1948180D01*
X+609600Y-1732280D02*
X+228600Y-1732280D01*
X+609600Y-1948180D02*
X+642620Y-1948180D01*
X+642620Y-1732280D02*
X+609600Y-1732280D01*
X+195580Y-1808480D02*
X+195580Y-1732280D01*
X+228600Y-1732280D01*
X+228600Y-1948180D02*
X+195580Y-1948180D01*
X+195580Y-1871980D01*
X+603504Y-1912620D02*
X+603469Y-1911775D01*
X+603182Y-1910084D01*
X+602583Y-1908393D01*
X+601603Y-1906702D01*
X+600103Y-1905034D01*
X+598412Y-1903814D01*
X+596721Y-1903038D01*
X+595030Y-1902601D01*
X+593344Y-1902460D01*
X+583184Y-1912620D02*
X+583219Y-1911775D01*
X+583506Y-1910084D01*
X+584105Y-1908393D01*
X+585085Y-1906702D01*
X+586585Y-1905034D01*
X+588276Y-1903814D01*
X+589967Y-1903038D01*
X+591658Y-1902601D01*
X+593344Y-1902460D01*
X+583184Y-1912620D02*
X+583219Y-1913465D01*
X+583506Y-1915156D01*
X+584105Y-1916847D01*
X+585085Y-1918538D01*
X+586585Y-1920206D01*
X+588276Y-1921426D01*
X+589967Y-1922202D01*
X+591658Y-1922639D01*
X+593344Y-1922780D01*
X+603504Y-1912620D02*
X+603469Y-1913465D01*
X+603182Y-1915156D01*
X+602583Y-1916847D01*
X+601603Y-1918538D01*
X+600103Y-1920206D01*
X+598412Y-1921426D01*
X+596721Y-1922202D01*
X+595030Y-1922639D01*
X+593344Y-1922780D01*
D42*
X-2812700Y-1087900D02*
X-2812743Y-1086861D01*
X-2813095Y-1084782D01*
X-2813832Y-1082703D01*
X-2815036Y-1080624D01*
X-2816877Y-1078574D01*
X-2818956Y-1077071D01*
X-2821035Y-1076114D01*
X-2823114Y-1075575D01*
X-2825193Y-1075400D01*
X-2825200Y-1075400D01*
X-2837700Y-1087900D02*
X-2837657Y-1086861D01*
X-2837305Y-1084782D01*
X-2836568Y-1082703D01*
X-2835364Y-1080624D01*
X-2833523Y-1078574D01*
X-2831444Y-1077071D01*
X-2829365Y-1076114D01*
X-2827286Y-1075575D01*
X-2825207Y-1075400D01*
X-2825200Y-1075400D01*
X-2837700Y-1087900D02*
X-2837657Y-1088939D01*
X-2837305Y-1091018D01*
X-2836568Y-1093097D01*
X-2835364Y-1095176D01*
X-2833523Y-1097226D01*
X-2831444Y-1098729D01*
X-2829365Y-1099686D01*
X-2827286Y-1100225D01*
X-2825207Y-1100400D01*
X-2825200Y-1100400D01*
X-2812700Y-1087900D02*
X-2812743Y-1088939D01*
X-2813095Y-1091018D01*
X-2813832Y-1093097D01*
X-2815036Y-1095176D01*
X-2816877Y-1097226D01*
X-2818956Y-1098729D01*
X-2821035Y-1099686D01*
X-2823114Y-1100225D01*
X-2825193Y-1100400D01*
X-2825200Y-1100400D01*
D41*
X-2975200Y-1417900D02*
X-3195200Y-1417900D01*
X-3195200Y-1107900D01*
X-2975200Y-1107900D01*
X-2975200Y-1417900D01*
D44*
X-2975200Y-1117900D02*
X-2985200Y-1107900D01*
X-2975200Y-1127900D02*
X-2995200Y-1107900D01*
X-2975200Y-1137900D02*
X-3005200Y-1107900D01*
X-2975200Y-1147900D02*
X-3015200Y-1107900D01*
X-2975200Y-1157900D02*
X-3025200Y-1107900D01*
X-2975200Y-1167900D02*
X-3035200Y-1107900D01*
X-2975200Y-1177900D02*
X-3045200Y-1107900D01*
X-2975200Y-1187900D02*
X-3055200Y-1107900D01*
X-2975200Y-1197900D02*
X-3065200Y-1107900D01*
D39*
X-1770380Y-1948180D02*
X-1770380Y-1867218D01*
X-1781001Y-1865136D01*
X-1789567Y-1859416D01*
X-1795286Y-1850851D01*
X-1797368Y-1840230D01*
X-1770380Y-1813242D02*
X-1781001Y-1815324D01*
X-1789567Y-1821044D01*
X-1795286Y-1829609D01*
X-1797368Y-1840230D01*
X-1770380Y-1813242D02*
X-1770380Y-1732280D01*
X-2217420Y-1871980D02*
X-2217420Y-1808480D01*
X-1803400Y-1948180D02*
X-2184400Y-1948180D01*
X-1803400Y-1732280D02*
X-2184400Y-1732280D01*
X-1803400Y-1948180D02*
X-1770380Y-1948180D01*
X-1770380Y-1732280D02*
X-1803400Y-1732280D01*
X-2217420Y-1808480D02*
X-2217420Y-1732280D01*
X-2184400Y-1732280D01*
X-2184400Y-1948180D02*
X-2217420Y-1948180D01*
X-2217420Y-1871980D01*
X-1809496Y-1912620D02*
X-1809531Y-1911775D01*
X-1809818Y-1910084D01*
X-1810417Y-1908393D01*
X-1811397Y-1906702D01*
X-1812897Y-1905034D01*
X-1814588Y-1903814D01*
X-1816279Y-1903038D01*
X-1817970Y-1902601D01*
X-1819656Y-1902460D01*
X-1829816Y-1912620D02*
X-1829781Y-1911775D01*
X-1829494Y-1910084D01*
X-1828895Y-1908393D01*
X-1827915Y-1906702D01*
X-1826415Y-1905034D01*
X-1824724Y-1903814D01*
X-1823033Y-1903038D01*
X-1821342Y-1902601D01*
X-1819656Y-1902460D01*
X-1829816Y-1912620D02*
X-1829781Y-1913465D01*
X-1829494Y-1915156D01*
X-1828895Y-1916847D01*
X-1827915Y-1918538D01*
X-1826415Y-1920206D01*
X-1824724Y-1921426D01*
X-1823033Y-1922202D01*
X-1821342Y-1922639D01*
X-1819656Y-1922780D01*
X-1809496Y-1912620D02*
X-1809531Y-1913465D01*
X-1809818Y-1915156D01*
X-1810417Y-1916847D01*
X-1811397Y-1918538D01*
X-1812897Y-1920206D01*
X-1814588Y-1921426D01*
X-1816279Y-1922202D01*
X-1817970Y-1922639D01*
X-1819656Y-1922780D01*
D41*
X-3157400Y+542620D02*
X-3157400Y+132620D01*
X-3497400Y+542620D02*
X-3497400Y+132620D01*
X+6494600Y+542620D02*
X+6494600Y+132620D01*
X+6154600Y+542620D02*
X+6154600Y+132620D01*
X+1668600Y+542620D02*
X+1668600Y+132620D01*
X+1328600Y+542620D02*
X+1328600Y+132620D01*
X+4081600Y+542620D02*
X+4081600Y+132620D01*
X+3741600Y+542620D02*
X+3741600Y+132620D01*
X-744400Y+542620D02*
X-744400Y+132620D01*
X-1084400Y+542620D02*
X-1084400Y+132620D01*
D39*
X+7810500Y-889000D02*
X+7937500Y-1016000D01*
X+7937500Y-1270000D01*
X+7810500Y-1397000D01*
X+7429500Y-1397000D01*
X+7429500Y-889000D01*
X+7810500Y-889000D01*
X+7874000Y-1016000D02*
X+7747000Y-1016000D01*
X+7810500Y-952500D02*
X+7810500Y-1079500D01*
D41*
X+7753600Y-844380D02*
X+7643600Y-844380D01*
X+7753600Y-664380D02*
X+7643600Y-664380D01*
D39*
X+5397500Y-889000D02*
X+5524500Y-1016000D01*
X+5524500Y-1270000D01*
X+5397500Y-1397000D01*
X+5016500Y-1397000D01*
X+5016500Y-889000D01*
X+5397500Y-889000D01*
X+5461000Y-1016000D02*
X+5334000Y-1016000D01*
X+5397500Y-952500D02*
X+5397500Y-1079500D01*
D41*
X+5340600Y-844380D02*
X+5230600Y-844380D01*
X+5340600Y-664380D02*
X+5230600Y-664380D01*
D39*
X+3048000Y-889000D02*
X+3175000Y-1016000D01*
X+3175000Y-1270000D01*
X+3048000Y-1397000D01*
X+2667000Y-1397000D01*
X+2667000Y-889000D01*
X+3048000Y-889000D01*
X+3111500Y-1016000D02*
X+2984500Y-1016000D01*
X+3048000Y-952500D02*
X+3048000Y-1079500D01*
D41*
X+2927600Y-844380D02*
X+2817600Y-844380D01*
X+2927600Y-664380D02*
X+2817600Y-664380D01*
D39*
X+571500Y-889000D02*
X+698500Y-1016000D01*
X+698500Y-1270000D01*
X+571500Y-1397000D01*
X+190500Y-1397000D01*
X+190500Y-889000D01*
X+571500Y-889000D01*
X+635000Y-1016000D02*
X+508000Y-1016000D01*
X+571500Y-952500D02*
X+571500Y-1079500D01*
D41*
X+514600Y-844380D02*
X+404600Y-844380D01*
X+514600Y-664380D02*
X+404600Y-664380D01*
D39*
X-1841500Y-889000D02*
X-1714500Y-1016000D01*
X-1714500Y-1270000D01*
X-1841500Y-1397000D01*
X-2222500Y-1397000D01*
X-2222500Y-889000D01*
X-1841500Y-889000D01*
X-1778000Y-1016000D02*
X-1905000Y-1016000D01*
X-1841500Y-952500D02*
X-1841500Y-1079500D01*
D41*
X-1898400Y-844380D02*
X-2008400Y-844380D01*
X-1898400Y-664380D02*
X-2008400Y-664380D01*
X+6610600Y-2241380D02*
X+6510600Y-2241380D01*
X+6610600Y-2061380D02*
X+6510600Y-2061380D01*
X+6583100Y-1733380D02*
X+6483100Y-1733380D01*
X+6583100Y-1553380D02*
X+6483100Y-1553380D01*
X+6298100Y-504880D02*
X+6298100Y-404880D01*
X+6478100Y-504880D02*
X+6478100Y-404880D01*
X+6806100Y-504880D02*
X+6806100Y-404880D01*
X+6986100Y-504880D02*
X+6986100Y-404880D01*
X+7154600Y-2241380D02*
X+7054600Y-2241380D01*
X+7154600Y-2061380D02*
X+7054600Y-2061380D01*
X+8218000Y-2345000D02*
X+8218000Y-2445000D01*
X+8038000Y-2345000D02*
X+8038000Y-2445000D01*
X+7753600Y-2495380D02*
X+7643600Y-2495380D01*
X+7753600Y-2315380D02*
X+7643600Y-2315380D01*
X+7240100Y-404880D02*
X+7240100Y-514880D01*
X+7060100Y-404880D02*
X+7060100Y-514880D01*
X+8192600Y-214380D02*
X+8192600Y-314380D01*
X+8012600Y-214380D02*
X+8012600Y-314380D01*
X+7689600Y-29380D02*
X+7789600Y-29380D01*
X+7689600Y-209380D02*
X+7789600Y-209380D01*
X+7753600Y-2749380D02*
X+7653600Y-2749380D01*
X+7753600Y-2569380D02*
X+7653600Y-2569380D01*
X+6732100Y-404880D02*
X+6732100Y-514880D01*
X+6552100Y-404880D02*
X+6552100Y-514880D01*
X+6928100Y-907880D02*
X+6818100Y-907880D01*
X+6928100Y-727880D02*
X+6818100Y-727880D01*
X+7164600Y-1733380D02*
X+7054600Y-1733380D01*
X+7164600Y-1553380D02*
X+7054600Y-1553380D01*
X+7164600Y-1987380D02*
X+7054600Y-1987380D01*
X+7164600Y-1807380D02*
X+7054600Y-1807380D01*
X+6610600Y-1987380D02*
X+6500600Y-1987380D01*
X+6610600Y-1807380D02*
X+6500600Y-1807380D01*
X+4769100Y-1987380D02*
X+4659100Y-1987380D01*
X+4769100Y-1807380D02*
X+4659100Y-1807380D01*
X+4451600Y-907880D02*
X+4341600Y-907880D01*
X+4451600Y-727880D02*
X+4341600Y-727880D01*
X+4116600Y-1733380D02*
X+4006600Y-1733380D01*
X+4116600Y-1553380D02*
X+4006600Y-1553380D01*
X+4255600Y-404880D02*
X+4255600Y-514880D01*
X+4075600Y-404880D02*
X+4075600Y-514880D01*
X+4769100Y-1733380D02*
X+4659100Y-1733380D01*
X+4769100Y-1553380D02*
X+4659100Y-1553380D01*
X+5340600Y-2495380D02*
X+5230600Y-2495380D01*
X+5340600Y-2315380D02*
X+5230600Y-2315380D01*
X+5340600Y-2749380D02*
X+5240600Y-2749380D01*
X+5340600Y-2569380D02*
X+5240600Y-2569380D01*
X+5779600Y-2337380D02*
X+5779600Y-2437380D01*
X+5599600Y-2337380D02*
X+5599600Y-2437380D01*
X+5779600Y-214380D02*
X+5779600Y-314380D01*
X+5599600Y-214380D02*
X+5599600Y-314380D01*
X+5240600Y-29380D02*
X+5340600Y-29380D01*
X+5240600Y-209380D02*
X+5340600Y-209380D01*
X+2927600Y-2749380D02*
X+2827600Y-2749380D01*
X+2927600Y-2569380D02*
X+2827600Y-2569380D01*
X+3366600Y-2373380D02*
X+3366600Y-2473380D01*
X+3186600Y-2373380D02*
X+3186600Y-2473380D01*
X+3366600Y-277880D02*
X+3366600Y-377880D01*
X+3186600Y-277880D02*
X+3186600Y-377880D01*
X+2863600Y-92880D02*
X+2963600Y-92880D01*
X+2863600Y-272880D02*
X+2963600Y-272880D01*
X+3821600Y-504880D02*
X+3821600Y-404880D01*
X+4001600Y-504880D02*
X+4001600Y-404880D01*
X+4329600Y-504880D02*
X+4329600Y-404880D01*
X+4509600Y-504880D02*
X+4509600Y-404880D01*
X+4763600Y-404880D02*
X+4763600Y-514880D01*
X+4583600Y-404880D02*
X+4583600Y-514880D01*
X+4106600Y-2241380D02*
X+4006600Y-2241380D01*
X+4106600Y-2061380D02*
X+4006600Y-2061380D01*
X+4106600Y-1987380D02*
X+4006600Y-1987380D01*
X+4106600Y-1807380D02*
X+4006600Y-1807380D01*
X+4769100Y-2241380D02*
X+4669100Y-2241380D01*
X+4769100Y-2061380D02*
X+4669100Y-2061380D01*
X+2927600Y-2495380D02*
X+2817600Y-2495380D01*
X+2927600Y-2315380D02*
X+2817600Y-2315380D01*
X+1916600Y-468880D02*
X+1916600Y-368880D01*
X+2096600Y-468880D02*
X+2096600Y-368880D01*
X+1408600Y-468880D02*
X+1408600Y-368880D01*
X+1588600Y-468880D02*
X+1588600Y-368880D01*
X-1004400Y-504880D02*
X-1004400Y-404880D01*
X-824400Y-504880D02*
X-824400Y-404880D01*
X-496400Y-504880D02*
X-496400Y-404880D01*
X-316400Y-504880D02*
X-316400Y-404880D01*
X+1842600Y-358880D02*
X+1842600Y-468880D01*
X+1662600Y-358880D02*
X+1662600Y-468880D01*
X-570400Y-404880D02*
X-570400Y-514880D01*
X-750400Y-404880D02*
X-750400Y-514880D01*
X+2084600Y-907880D02*
X+1974600Y-907880D01*
X+2084600Y-727880D02*
X+1974600Y-727880D01*
X-328400Y-907880D02*
X-438400Y-907880D01*
X-328400Y-727880D02*
X-438400Y-727880D01*
X+2350600Y-358880D02*
X+2350600Y-468880D01*
X+2170600Y-358880D02*
X+2170600Y-468880D01*
X-62400Y-404880D02*
X-62400Y-514880D01*
X-242400Y-404880D02*
X-242400Y-514880D01*
X-3417400Y-468880D02*
X-3417400Y-368880D01*
X-3237400Y-468880D02*
X-3237400Y-368880D01*
X-2909400Y-468880D02*
X-2909400Y-368880D01*
X-2729400Y-468880D02*
X-2729400Y-368880D01*
X-2475400Y-358880D02*
X-2475400Y-468880D01*
X-2655400Y-358880D02*
X-2655400Y-468880D01*
X-2983400Y-358880D02*
X-2983400Y-468880D01*
X-3163400Y-358880D02*
X-3163400Y-468880D01*
X-2787400Y-907880D02*
X-2897400Y-907880D01*
X-2787400Y-727880D02*
X-2897400Y-727880D01*
X+1693600Y-2241380D02*
X+1593600Y-2241380D01*
X+1693600Y-2061380D02*
X+1593600Y-2061380D01*
X+1693600Y-1733380D02*
X+1593600Y-1733380D01*
X+1693600Y-1553380D02*
X+1593600Y-1553380D01*
X+2265100Y-2241380D02*
X+2165100Y-2241380D01*
X+2265100Y-2061380D02*
X+2165100Y-2061380D01*
X+2275100Y-1987380D02*
X+2165100Y-1987380D01*
X+2275100Y-1807380D02*
X+2165100Y-1807380D01*
X+1703600Y-1987380D02*
X+1593600Y-1987380D01*
X+1703600Y-1807380D02*
X+1593600Y-1807380D01*
X+2275100Y-1733380D02*
X+2165100Y-1733380D01*
X+2275100Y-1553380D02*
X+2165100Y-1553380D01*
X+514600Y-2495380D02*
X+404600Y-2495380D01*
X+514600Y-2315380D02*
X+404600Y-2315380D01*
X+953600Y-2337380D02*
X+953600Y-2437380D01*
X+773600Y-2337380D02*
X+773600Y-2437380D01*
X+514600Y-2749380D02*
X+414600Y-2749380D01*
X+514600Y-2569380D02*
X+414600Y-2569380D01*
X+953600Y-277880D02*
X+953600Y-377880D01*
X+773600Y-277880D02*
X+773600Y-377880D01*
X+450600Y-92880D02*
X+550600Y-92880D01*
X+450600Y-272880D02*
X+550600Y-272880D01*
X-84400Y-2241380D02*
X-184400Y-2241380D01*
X-84400Y-2061380D02*
X-184400Y-2061380D01*
X-719400Y-2241380D02*
X-819400Y-2241380D01*
X-719400Y-2061380D02*
X-819400Y-2061380D01*
X-719400Y-1733380D02*
X-819400Y-1733380D01*
X-719400Y-1553380D02*
X-819400Y-1553380D01*
X-74400Y-1987380D02*
X-184400Y-1987380D01*
X-74400Y-1807380D02*
X-184400Y-1807380D01*
X-709400Y-1987380D02*
X-819400Y-1987380D01*
X-709400Y-1807380D02*
X-819400Y-1807380D01*
X-74400Y-1733380D02*
X-184400Y-1733380D01*
X-74400Y-1553380D02*
X-184400Y-1553380D01*
X-2487400Y-1987380D02*
X-2597400Y-1987380D01*
X-2487400Y-1807380D02*
X-2597400Y-1807380D01*
X-3122400Y-1733380D02*
X-3232400Y-1733380D01*
X-3122400Y-1553380D02*
X-3232400Y-1553380D01*
X-2487400Y-1733380D02*
X-2597400Y-1733380D01*
X-2487400Y-1553380D02*
X-2597400Y-1553380D01*
X-1898400Y-2495380D02*
X-2008400Y-2495380D01*
X-1898400Y-2315380D02*
X-2008400Y-2315380D01*
X-3132400Y-2241380D02*
X-3232400Y-2241380D01*
X-3132400Y-2061380D02*
X-3232400Y-2061380D01*
X-3132400Y-1987380D02*
X-3232400Y-1987380D01*
X-3132400Y-1807380D02*
X-3232400Y-1807380D01*
X-2497400Y-2241380D02*
X-2597400Y-2241380D01*
X-2497400Y-2061380D02*
X-2597400Y-2061380D01*
X-1459400Y-2373380D02*
X-1459400Y-2473380D01*
X-1639400Y-2373380D02*
X-1639400Y-2473380D01*
X-1459400Y-241880D02*
X-1459400Y-341880D01*
X-1639400Y-241880D02*
X-1639400Y-341880D01*
X-1962400Y-92880D02*
X-1862400Y-92880D01*
X-1962400Y-272880D02*
X-1862400Y-272880D01*
X-1898400Y-2749380D02*
X-1998400Y-2749380D01*
X-1898400Y-2569380D02*
X-1998400Y-2569380D01*
D39*
X-3937000Y+444500D02*
X-3937000Y+368300D01*
X-4572000Y+368300D01*
X-4572000Y+444500D01*
X-4216400Y+368300D02*
X-4216400Y+317500D01*
X-4292600Y+317500D01*
X-4292600Y+368300D01*
X-3987800Y+368300D02*
X-3987800Y+292100D01*
X-4051300Y+292100D01*
X-4051300Y+368300D01*
X-4521200Y+368300D02*
X-4521200Y+292100D01*
X-4457700Y+292100D01*
X-4457700Y+368300D02*
X-4457700Y+292100D01*
D41*
X-5735500Y+535000D02*
X-5735500Y+125000D01*
X-6075500Y+535000D02*
X-6075500Y+125000D01*
D42*
X-5174900Y-1100600D02*
X-5174943Y-1099561D01*
X-5175295Y-1097482D01*
X-5176032Y-1095403D01*
X-5177236Y-1093324D01*
X-5179077Y-1091274D01*
X-5181156Y-1089771D01*
X-5183235Y-1088814D01*
X-5185314Y-1088275D01*
X-5187393Y-1088100D01*
X-5187400Y-1088100D01*
X-5199900Y-1100600D02*
X-5199857Y-1099561D01*
X-5199505Y-1097482D01*
X-5198768Y-1095403D01*
X-5197564Y-1093324D01*
X-5195723Y-1091274D01*
X-5193644Y-1089771D01*
X-5191565Y-1088814D01*
X-5189486Y-1088275D01*
X-5187407Y-1088100D01*
X-5187400Y-1088100D01*
X-5199900Y-1100600D02*
X-5199857Y-1101639D01*
X-5199505Y-1103718D01*
X-5198768Y-1105797D01*
X-5197564Y-1107876D01*
X-5195723Y-1109926D01*
X-5193644Y-1111429D01*
X-5191565Y-1112386D01*
X-5189486Y-1112925D01*
X-5187407Y-1113100D01*
X-5187400Y-1113100D01*
X-5174900Y-1100600D02*
X-5174943Y-1101639D01*
X-5175295Y-1103718D01*
X-5176032Y-1105797D01*
X-5177236Y-1107876D01*
X-5179077Y-1109926D01*
X-5181156Y-1111429D01*
X-5183235Y-1112386D01*
X-5185314Y-1112925D01*
X-5187393Y-1113100D01*
X-5187400Y-1113100D01*
D41*
X-5337400Y-1430600D02*
X-5557400Y-1430600D01*
X-5557400Y-1120600D01*
X-5337400Y-1120600D01*
X-5337400Y-1430600D01*
D44*
X-5337400Y-1130600D02*
X-5347400Y-1120600D01*
X-5337400Y-1140600D02*
X-5357400Y-1120600D01*
X-5337400Y-1150600D02*
X-5367400Y-1120600D01*
X-5337400Y-1160600D02*
X-5377400Y-1120600D01*
X-5337400Y-1170600D02*
X-5387400Y-1120600D01*
X-5337400Y-1180600D02*
X-5397400Y-1120600D01*
X-5337400Y-1190600D02*
X-5407400Y-1120600D01*
X-5337400Y-1200600D02*
X-5417400Y-1120600D01*
X-5337400Y-1210600D02*
X-5427400Y-1120600D01*
D39*
X-4157980Y-1955800D02*
X-4157980Y-1874838D01*
X-4168601Y-1872756D01*
X-4177167Y-1867036D01*
X-4182886Y-1858471D01*
X-4184968Y-1847850D01*
X-4157980Y-1820862D02*
X-4168601Y-1822944D01*
X-4177167Y-1828664D01*
X-4182886Y-1837229D01*
X-4184968Y-1847850D01*
X-4157980Y-1820862D02*
X-4157980Y-1739900D01*
X-4605020Y-1879600D02*
X-4605020Y-1816100D01*
X-4191000Y-1955800D02*
X-4572000Y-1955800D01*
X-4191000Y-1739900D02*
X-4572000Y-1739900D01*
X-4191000Y-1955800D02*
X-4157980Y-1955800D01*
X-4157980Y-1739900D02*
X-4191000Y-1739900D01*
X-4605020Y-1816100D02*
X-4605020Y-1739900D01*
X-4572000Y-1739900D01*
X-4572000Y-1955800D02*
X-4605020Y-1955800D01*
X-4605020Y-1879600D01*
X-4197096Y-1920240D02*
X-4197131Y-1919395D01*
X-4197418Y-1917704D01*
X-4198017Y-1916013D01*
X-4198997Y-1914322D01*
X-4200497Y-1912654D01*
X-4202188Y-1911434D01*
X-4203879Y-1910658D01*
X-4205570Y-1910221D01*
X-4207256Y-1910080D01*
X-4217416Y-1920240D02*
X-4217381Y-1919395D01*
X-4217094Y-1917704D01*
X-4216495Y-1916013D01*
X-4215515Y-1914322D01*
X-4214015Y-1912654D01*
X-4212324Y-1911434D01*
X-4210633Y-1910658D01*
X-4208942Y-1910221D01*
X-4207256Y-1910080D01*
X-4217416Y-1920240D02*
X-4217381Y-1921085D01*
X-4217094Y-1922776D01*
X-4216495Y-1924467D01*
X-4215515Y-1926158D01*
X-4214015Y-1927826D01*
X-4212324Y-1929046D01*
X-4210633Y-1929822D01*
X-4208942Y-1930259D01*
X-4207256Y-1930400D01*
X-4197096Y-1920240D02*
X-4197131Y-1921085D01*
X-4197418Y-1922776D01*
X-4198017Y-1924467D01*
X-4198997Y-1926158D01*
X-4200497Y-1927826D01*
X-4202188Y-1929046D01*
X-4203879Y-1929822D01*
X-4205570Y-1930259D01*
X-4207256Y-1930400D01*
D42*
X-4907500Y+890500D02*
X-4907543Y+891539D01*
X-4907895Y+893618D01*
X-4908632Y+895697D01*
X-4909836Y+897776D01*
X-4911677Y+899826D01*
X-4913756Y+901329D01*
X-4915835Y+902286D01*
X-4917914Y+902825D01*
X-4919993Y+903000D01*
X-4920000Y+903000D01*
X-4932500Y+890500D02*
X-4932457Y+891539D01*
X-4932105Y+893618D01*
X-4931368Y+895697D01*
X-4930164Y+897776D01*
X-4928323Y+899826D01*
X-4926244Y+901329D01*
X-4924165Y+902286D01*
X-4922086Y+902825D01*
X-4920007Y+903000D01*
X-4920000Y+903000D01*
X-4932500Y+890500D02*
X-4932457Y+889461D01*
X-4932105Y+887382D01*
X-4931368Y+885303D01*
X-4930164Y+883224D01*
X-4928323Y+881174D01*
X-4926244Y+879671D01*
X-4924165Y+878714D01*
X-4922086Y+878175D01*
X-4920007Y+878000D01*
X-4920000Y+878000D01*
X-4907500Y+890500D02*
X-4907543Y+889461D01*
X-4907895Y+887382D01*
X-4908632Y+885303D01*
X-4909836Y+883224D01*
X-4911677Y+881174D01*
X-4913756Y+879671D01*
X-4915835Y+878714D01*
X-4917914Y+878175D01*
X-4919993Y+878000D01*
X-4920000Y+878000D01*
D41*
X-4935000Y+955500D02*
X-4890000Y+955500D01*
X-4890000Y+1515500D01*
X-4935000Y+1515500D01*
X-5225000Y+955500D02*
X-5270000Y+955500D01*
X-5270000Y+1515500D01*
X-5225000Y+1515500D01*
D43*
X-4070500Y-1781910D02*
X-3930500Y-1781910D01*
X-4070500Y-1801910D02*
X-3930500Y-1801910D01*
X-4070500Y-1911910D02*
X-3930500Y-1911910D01*
X-3930500Y-1751910D01*
X-4070500Y-1751910D01*
X-4070500Y-1911910D01*
D39*
X-3987800Y-1369060D02*
X-3898900Y-1369060D01*
X-3881120Y-1480820D02*
X-3810000Y-1480820D01*
X-3987800Y-1369060D02*
X-3987800Y-1460500D01*
X-3698240Y-1463040D02*
X-3698240Y-1369060D01*
X-3784600Y-1369060D01*
X-5588000Y+1034000D02*
X-5715000Y+907000D01*
X-6096000Y+907000D01*
X-6223000Y+1034000D01*
X-6223000Y+1478500D01*
X-5588000Y+1478500D01*
X-5588000Y+1034000D01*
X-5715000Y+970500D02*
X-5715000Y+1097500D01*
X-5651500Y+1034000D02*
X-5778500Y+1034000D01*
D41*
X-5389500Y+455500D02*
X-4989500Y+455500D01*
X-5389500Y-74500D02*
X-4989500Y-74500D01*
D39*
X-3381375Y-3487420D02*
X-3444875Y-3487420D01*
X-3413125Y-3487420D02*
X-3413125Y-3578860D01*
X-3381375Y-3578860D02*
X-3444875Y-3578860D01*
X-3492500Y-3578860D02*
X-3492500Y-3487420D01*
X-3587750Y-3487420D01*
X-3492500Y-3533140D02*
X-3556000Y-3533140D01*
X-3619500Y-3578860D02*
X-3619500Y-3487420D01*
X-3698875Y-3487420D01*
X-3714750Y-3502660D01*
X-3714750Y-3517900D01*
X-3698875Y-3533140D01*
X-3714750Y-3548380D01*
X-3714750Y-3563620D01*
X-3698875Y-3578860D01*
X-3619500Y-3578860D01*
X-3619500Y-3533140D02*
X-3698875Y-3533140D01*
X-3778250Y-3517900D02*
X-3810000Y-3487420D01*
X-3810000Y-3578860D01*
X-3905250Y-3517900D02*
X-3937000Y-3487420D01*
X-3937000Y-3578860D01*
X-3470275Y-2966720D02*
X-3533775Y-2966720D01*
X-3502025Y-2966720D02*
X-3502025Y-3058160D01*
X-3470275Y-3058160D02*
X-3533775Y-3058160D01*
X-3581400Y-3058160D02*
X-3581400Y-2966720D01*
X-3676650Y-3058160D01*
X-3676650Y-2966720D01*
X-3708400Y-3058160D02*
X-3708400Y-2966720D01*
X-3803650Y-2966720D02*
X-3803650Y-3058160D01*
X-3708400Y-3012440D02*
X-3803650Y-3012440D01*
X-3867150Y-2997200D02*
X-3898900Y-2966720D01*
X-3898900Y-3058160D01*
X-3994150Y-2997200D02*
X-4025900Y-2966720D01*
X-4025900Y-3058160D01*
X-3416300Y-3344449D02*
X-3416300Y-3253009D01*
X-3495675Y-3253009D01*
X-3511550Y-3268249D01*
X-3511550Y-3283489D01*
X-3495675Y-3298729D01*
X-3416300Y-3298729D01*
X-3543300Y-3253009D02*
X-3543300Y-3344449D01*
X-3590925Y-3298729D01*
X-3638550Y-3344449D01*
X-3638550Y-3253009D01*
X-3670300Y-3344449D02*
X-3670300Y-3253009D01*
X-3717925Y-3298729D01*
X-3765550Y-3253009D01*
X-3765550Y-3344449D01*
X-3829050Y-3283489D02*
X-3860800Y-3253009D01*
X-3860800Y-3344449D01*
X-3956050Y-3283489D02*
X-3987800Y-3253009D01*
X-3987800Y-3344449D01*
D41*
X-4875000Y-1995000D02*
X-4985000Y-1995000D01*
X-4875000Y-1815000D02*
X-4985000Y-1815000D01*
X-5129000Y-915500D02*
X-5239000Y-915500D01*
X-5129000Y-735500D02*
X-5239000Y-735500D01*
X-5446500Y-1741000D02*
X-5556500Y-1741000D01*
X-5446500Y-1561000D02*
X-5556500Y-1561000D01*
X-5307500Y-412500D02*
X-5307500Y-522500D01*
X-5487500Y-412500D02*
X-5487500Y-522500D01*
X-4875000Y-1741000D02*
X-4985000Y-1741000D01*
X-4875000Y-1561000D02*
X-4985000Y-1561000D01*
X-4286000Y-2503000D02*
X-4396000Y-2503000D01*
X-4286000Y-2323000D02*
X-4396000Y-2323000D01*
X-4286000Y-852000D02*
X-4396000Y-852000D01*
X-4286000Y-672000D02*
X-4396000Y-672000D01*
X-4799500Y-412500D02*
X-4799500Y-522500D01*
X-4979500Y-412500D02*
X-4979500Y-522500D01*
D39*
X-4205110Y-903110D02*
X-4078110Y-1030110D01*
X-4078110Y-1284110D01*
X-4205110Y-1411110D01*
X-4586110Y-1411110D01*
X-4586110Y-903110D01*
X-4205110Y-903110D01*
X-4141610Y-1030110D02*
X-4268610Y-1030110D01*
X-4205110Y-966610D02*
X-4205110Y-1093610D01*
D41*
X-5456500Y-2249000D02*
X-5556500Y-2249000D01*
X-5456500Y-2069000D02*
X-5556500Y-2069000D01*
X-5456500Y-1995000D02*
X-5556500Y-1995000D01*
X-5456500Y-1815000D02*
X-5556500Y-1815000D01*
X-5741500Y-512500D02*
X-5741500Y-412500D01*
X-5561500Y-512500D02*
X-5561500Y-412500D01*
X-5233500Y-512500D02*
X-5233500Y-412500D01*
X-5053500Y-512500D02*
X-5053500Y-412500D01*
X-4885000Y-2249000D02*
X-4985000Y-2249000D01*
X-4885000Y-2069000D02*
X-4985000Y-2069000D01*
X-3847000Y-2345000D02*
X-3847000Y-2445000D01*
X-4027000Y-2345000D02*
X-4027000Y-2445000D01*
X-3910500Y-285500D02*
X-3910500Y-385500D01*
X-4090500Y-285500D02*
X-4090500Y-385500D01*
X-4413500Y-100500D02*
X-4313500Y-100500D01*
X-4413500Y-280500D02*
X-4313500Y-280500D01*
X-4286000Y-2757000D02*
X-4386000Y-2757000D01*
X-4286000Y-2577000D02*
X-4386000Y-2577000D01*
X+7271000Y-2503000D02*
X+7171000Y-2503000D01*
X+7271000Y-2323000D02*
X+7171000Y-2323000D01*
D39*
X+7475000Y-2282520D02*
X+7475000Y-2191080D01*
X+7395625Y-2191080D01*
X+7379750Y-2206320D01*
X+7379750Y-2221560D01*
X+7395625Y-2236800D01*
X+7475000Y-2236800D01*
X+7395625Y-2236800D02*
X+7379750Y-2252040D01*
X+7379750Y-2282520D01*
X+7348000Y-2191080D02*
X+7348000Y-2236800D01*
X+7300375Y-2282520D01*
X+7252750Y-2236800D01*
X+7252750Y-2191080D01*
X+7125750Y-2252040D02*
X+7221000Y-2252040D01*
X+7157500Y-2191080D01*
X+7157500Y-2282520D01*
X+7078125Y-2206320D02*
X+7062250Y-2191080D01*
X+7014625Y-2191080D01*
X+6998750Y-2206320D01*
X+6998750Y-2221560D01*
X+7014625Y-2236800D01*
X+6998750Y-2252040D01*
X+6998750Y-2267280D01*
X+7014625Y-2282520D01*
X+7062250Y-2282520D01*
X+7078125Y-2267280D01*
X+7046375Y-2236800D02*
X+7014625Y-2236800D01*
D41*
X+4858000Y-2503000D02*
X+4758000Y-2503000D01*
X+4858000Y-2323000D02*
X+4758000Y-2323000D01*
D39*
X+5062000Y-2282520D02*
X+5062000Y-2191080D01*
X+4982625Y-2191080D01*
X+4966750Y-2206320D01*
X+4966750Y-2221560D01*
X+4982625Y-2236800D01*
X+5062000Y-2236800D01*
X+4982625Y-2236800D02*
X+4966750Y-2252040D01*
X+4966750Y-2282520D01*
X+4935000Y-2191080D02*
X+4935000Y-2236800D01*
X+4887375Y-2282520D01*
X+4839750Y-2236800D01*
X+4839750Y-2191080D01*
X+4712750Y-2191080D02*
X+4792125Y-2191080D01*
X+4792125Y-2221560D01*
X+4728625Y-2221560D01*
X+4712750Y-2236800D01*
X+4712750Y-2267280D01*
X+4728625Y-2282520D01*
X+4776250Y-2282520D01*
X+4792125Y-2267280D01*
X+4585750Y-2252040D02*
X+4681000Y-2252040D01*
X+4617500Y-2191080D01*
X+4617500Y-2282520D01*
D41*
X+2445000Y-2503000D02*
X+2345000Y-2503000D01*
X+2445000Y-2323000D02*
X+2345000Y-2323000D01*
D39*
X+2649000Y-2282520D02*
X+2649000Y-2191080D01*
X+2569625Y-2191080D01*
X+2553750Y-2206320D01*
X+2553750Y-2221560D01*
X+2569625Y-2236800D01*
X+2649000Y-2236800D01*
X+2569625Y-2236800D02*
X+2553750Y-2252040D01*
X+2553750Y-2282520D01*
X+2522000Y-2191080D02*
X+2522000Y-2236800D01*
X+2474375Y-2282520D01*
X+2426750Y-2236800D01*
X+2426750Y-2191080D01*
X+2299750Y-2191080D02*
X+2379125Y-2191080D01*
X+2379125Y-2221560D01*
X+2315625Y-2221560D01*
X+2299750Y-2236800D01*
X+2299750Y-2267280D01*
X+2315625Y-2282520D01*
X+2363250Y-2282520D01*
X+2379125Y-2267280D01*
X+2172750Y-2191080D02*
X+2252125Y-2191080D01*
X+2252125Y-2221560D01*
X+2188625Y-2221560D01*
X+2172750Y-2236800D01*
X+2172750Y-2267280D01*
X+2188625Y-2282520D01*
X+2236250Y-2282520D01*
X+2252125Y-2267280D01*
D41*
X+32000Y-2503000D02*
X-68000Y-2503000D01*
X+32000Y-2323000D02*
X-68000Y-2323000D01*
D39*
X+236000Y-2282520D02*
X+236000Y-2191080D01*
X+156625Y-2191080D01*
X+140750Y-2206320D01*
X+140750Y-2221560D01*
X+156625Y-2236800D01*
X+236000Y-2236800D01*
X+156625Y-2236800D02*
X+140750Y-2252040D01*
X+140750Y-2282520D01*
X+109000Y-2191080D02*
X+109000Y-2236800D01*
X+61375Y-2282520D01*
X+13750Y-2236800D01*
X+13750Y-2191080D01*
X-113250Y-2206320D02*
X-97375Y-2191080D01*
X-49750Y-2191080D01*
X-33875Y-2206320D01*
X-33875Y-2267280D01*
X-49750Y-2282520D01*
X-97375Y-2282520D01*
X-113250Y-2267280D01*
X-113250Y-2252040D01*
X-97375Y-2236800D01*
X-33875Y-2236800D01*
X-240250Y-2206320D02*
X-224375Y-2191080D01*
X-176750Y-2191080D01*
X-160875Y-2206320D01*
X-160875Y-2267280D01*
X-176750Y-2282520D01*
X-224375Y-2282520D01*
X-240250Y-2267280D01*
X-240250Y-2252040D01*
X-224375Y-2236800D01*
X-160875Y-2236800D01*
D41*
X-2381000Y-2503000D02*
X-2481000Y-2503000D01*
X-2381000Y-2323000D02*
X-2481000Y-2323000D01*
D39*
X-2177000Y-2282520D02*
X-2177000Y-2191080D01*
X-2256375Y-2191080D01*
X-2272250Y-2206320D01*
X-2272250Y-2221560D01*
X-2256375Y-2236800D01*
X-2177000Y-2236800D01*
X-2256375Y-2236800D02*
X-2272250Y-2252040D01*
X-2272250Y-2282520D01*
X-2304000Y-2191080D02*
X-2304000Y-2236800D01*
X-2351625Y-2282520D01*
X-2399250Y-2236800D01*
X-2399250Y-2191080D01*
X-2526250Y-2206320D02*
X-2510375Y-2191080D01*
X-2462750Y-2191080D01*
X-2446875Y-2206320D01*
X-2446875Y-2267280D01*
X-2462750Y-2282520D01*
X-2510375Y-2282520D01*
X-2526250Y-2267280D01*
X-2526250Y-2252040D01*
X-2510375Y-2236800D01*
X-2446875Y-2236800D01*
X-2573875Y-2191080D02*
X-2653250Y-2191080D01*
X-2653250Y-2206320D01*
X-2573875Y-2282520D01*
D41*
X-4885000Y-2566500D02*
X-4985000Y-2566500D01*
X-4885000Y-2386500D02*
X-4985000Y-2386500D01*
D39*
X-4681000Y-2346020D02*
X-4681000Y-2254580D01*
X-4760375Y-2254580D01*
X-4776250Y-2269820D01*
X-4776250Y-2285060D01*
X-4760375Y-2300300D01*
X-4681000Y-2300300D01*
X-4760375Y-2300300D02*
X-4776250Y-2315540D01*
X-4776250Y-2346020D01*
X-4808000Y-2254580D02*
X-4808000Y-2300300D01*
X-4855625Y-2346020D01*
X-4903250Y-2300300D01*
X-4903250Y-2254580D01*
X-4950875Y-2254580D02*
X-5030250Y-2254580D01*
X-5030250Y-2269820D01*
X-4950875Y-2346020D01*
X-5093750Y-2300300D02*
X-5077875Y-2285060D01*
X-5077875Y-2269820D01*
X-5093750Y-2254580D01*
X-5141375Y-2254580D01*
X-5157250Y-2269820D01*
X-5157250Y-2285060D01*
X-5141375Y-2300300D01*
X-5093750Y-2300300D01*
X-5077875Y-2315540D01*
X-5077875Y-2330780D01*
X-5093750Y-2346020D01*
X-5141375Y-2346020D01*
X-5157250Y-2330780D01*
X-5157250Y-2315540D01*
X-5141375Y-2300300D01*
X-6946900Y-1739900D02*
X-7023100Y-1739900D01*
X-7099300Y-1692275D01*
X-7023100Y-1644650D01*
X-6946900Y-1644650D01*
X-6997700Y-1597025D02*
X-6997700Y-1533525D01*
X-7023100Y-1517650D01*
X-7099300Y-1517650D01*
X-7099300Y-1597025D01*
X-7073900Y-1612900D01*
X-7048500Y-1597025D01*
X-7048500Y-1517650D01*
X-6946900Y-1438275D02*
X-7099300Y-1438275D01*
X-6997700Y-1358900D02*
X-7099300Y-1311275D01*
X-6997700Y-1263650D01*
X-7048500Y-1231900D02*
X-7048500Y-1136650D01*
X-7023100Y-1136650D01*
X-6997700Y-1152525D01*
X-6997700Y-1216025D01*
X-7023100Y-1231900D01*
X-7073900Y-1231900D01*
X-7099300Y-1216025D01*
X-7099300Y-1152525D01*
X-7099300Y-1104900D02*
X-6946900Y-1104900D01*
X-6946900Y-1041400D01*
X-6997700Y-1009650D01*
X-7048500Y-1009650D01*
X-7099300Y-1041400D01*
X-7099300Y-1104900D01*
X-7099300Y-977900D02*
X-6997700Y-977900D01*
X-7023100Y-977900D02*
X-6997700Y-962025D01*
X-6997700Y-898525D01*
X-7023100Y-882650D01*
X-6997700Y-803275D02*
X-7099300Y-803275D01*
X-6946900Y-803275D02*
X-6946900Y-803275D01*
X-6997700Y-723900D02*
X-7099300Y-676275D01*
X-6997700Y-628650D01*
X-7048500Y-596900D02*
X-7048500Y-501650D01*
X-7023100Y-501650D01*
X-6997700Y-517525D01*
X-6997700Y-581025D01*
X-7023100Y-596900D01*
X-7073900Y-596900D01*
X-7099300Y-581025D01*
X-7099300Y-517525D01*
X-7099300Y-469900D02*
X-6997700Y-469900D01*
X-7023100Y-469900D02*
X-6997700Y-454025D01*
X-6997700Y-390525D01*
X-7023100Y-374650D01*
X-7124700Y-342900D02*
X-7124700Y-247650D01*
X-7099300Y-215900D02*
X-6946900Y-215900D01*
X-6946900Y-136525D01*
X-6972300Y-120650D01*
X-6997700Y-120650D01*
X-7023100Y-136525D01*
X-7023100Y-215900D01*
X-7073900Y+6350D02*
X-7099300Y-9525D01*
X-7099300Y-57150D01*
X-7048500Y-88900D01*
X-6997700Y-88900D01*
X-6946900Y-57150D01*
X-6946900Y-9525D01*
X-6972300Y+6350D01*
X-7099300Y+38100D02*
X-6946900Y+38100D01*
X-6946900Y+117475D01*
X-6972300Y+133350D01*
X-6997700Y+133350D01*
X-7023100Y+117475D01*
X-7048500Y+133350D01*
X-7073900Y+133350D01*
X-7099300Y+117475D01*
X-7099300Y+38100D01*
X-7023100Y+38100D02*
X-7023100Y+117475D01*
X-6997700Y+196850D02*
X-6946900Y+228600D01*
X-7099300Y+228600D01*
X-7124700Y+292100D02*
X-7124700Y+387350D01*
X-6997700Y+419100D02*
X-7099300Y+466725D01*
X-6997700Y+514350D01*
X-7073900Y+546100D02*
X-6972300Y+546100D01*
X-6946900Y+561975D01*
X-6946900Y+625475D01*
X-6972300Y+641350D01*
X-7073900Y+641350D01*
X-7099300Y+625475D01*
X-7099300Y+561975D01*
X-7073900Y+546100D01*
X-7099300Y+546100D02*
X-6946900Y+641350D01*
X-7073900Y+720725D02*
X-7073900Y+736600D01*
X-7099300Y+736600D01*
X-7099300Y+720725D01*
X-7073900Y+720725D01*
X-7048500Y+895350D02*
X-7048500Y+800100D01*
X-6946900Y+863600D01*
X-7099300Y+863600D01*
X-7124700Y+927100D02*
X-7124700Y+1022350D01*
X-7099300Y+1054100D02*
X-6997700Y+1054100D01*
X-6946900Y+1085850D01*
X-6946900Y+1117600D01*
X-6997700Y+1149350D01*
X-7099300Y+1149350D01*
X-7048500Y+1054100D02*
X-7048500Y+1149350D01*
X-6946900Y+1181100D02*
X-6946900Y+1276350D01*
X-6946900Y+1228725D02*
X-7099300Y+1228725D01*
M02*
