G04 PROTEUS RS274X GERBER FILE*
%FSLAX45Y45*%
%MOMM*%
G01*
%ADD11C,1.016000*%
%ADD10C,0.508000*%
%ADD14C,0.762000*%
%ADD12C,1.270000*%
%ADD15C,2.032000*%
%ADD40C,1.524000*%
%ADD16C,2.540000*%
%ADD18C,0.381000*%
%ADD19C,1.270000*%
%ADD70C,0.762000*%
%ADD71C,2.032000*%
%ADD13C,0.254000*%
%ADD21C,3.810000*%
%ADD22C,2.540000*%
%ADD23R,2.286000X2.286000*%
%ADD32R,0.889000X1.016000*%
%ADD29R,6.985000X6.985000*%
%ADD72R,1.524000X2.540000*%
%ADD26R,2.108200X2.108200*%
%ADD31R,0.889000X0.635000*%
%ADD20R,1.193800X5.308600*%
%ADD27R,1.651000X3.048000*%
%ADD33R,1.778000X0.381000*%
%ADD73R,0.635000X2.032000*%
%ADD28R,3.403600X1.244600*%
%ADD30R,2.540000X1.524000*%
%ADD24R,1.143000X1.803400*%
%ADD25R,1.803400X1.143000*%
%ADD34C,7.620000*%
%ADD39C,0.203200*%
G36*
X+8448040Y-4193540D02*
X-6712345Y-4193540D01*
X-6502401Y-3983596D01*
X-6502401Y-3636404D01*
X-6747904Y-3390901D01*
X-7095096Y-3390901D01*
X-7340599Y-3636404D01*
X-7340599Y-3983596D01*
X-7130655Y-4193540D01*
X-7368540Y-4193540D01*
X-7368540Y+2860040D01*
X+8448040Y+2860040D01*
X+8448040Y-4193540D01*
G37*
%LPC*%
G36*
X-6819901Y-2381811D02*
X-6819901Y-2571189D01*
X-6947462Y-2698750D01*
X-6819901Y-2826311D01*
X-6819901Y-3015689D01*
X-6953811Y-3149599D01*
X-7143189Y-3149599D01*
X-7277099Y-3015689D01*
X-7277099Y-2826311D01*
X-7149538Y-2698750D01*
X-7277099Y-2571189D01*
X-7277099Y-2381811D01*
X-7143189Y-2247901D01*
X-6953811Y-2247901D01*
X-6819901Y-2381811D01*
G37*
G36*
X-1993899Y+1773114D02*
X-1993899Y+1909886D01*
X-1897186Y+2006599D01*
X-1760414Y+2006599D01*
X-1663701Y+1909886D01*
X-1663701Y+1773114D01*
X-1760414Y+1676401D01*
X-1897186Y+1676401D01*
X-1993899Y+1773114D01*
G37*
G36*
X-2768601Y-3200399D02*
X-2768601Y-3708399D01*
X-3073399Y-3708399D01*
X-3073399Y-2895601D01*
X-2768601Y-2895601D01*
X-2768601Y-3200399D01*
G37*
G36*
X+266701Y+1773114D02*
X+266701Y+1909886D01*
X+363414Y+2006599D01*
X+500186Y+2006599D01*
X+596899Y+1909886D01*
X+596899Y+1773114D01*
X+500186Y+1676401D01*
X+363414Y+1676401D01*
X+266701Y+1773114D01*
G37*
G36*
X-609601Y-3200399D02*
X-609601Y-3708399D01*
X-914399Y-3708399D01*
X-914399Y-2895601D01*
X-609601Y-2895601D01*
X-609601Y-3200399D01*
G37*
G36*
X+1739899Y-3200399D02*
X+1739899Y-3708399D01*
X+1435101Y-3708399D01*
X+1435101Y-2895601D01*
X+1739899Y-2895601D01*
X+1739899Y-3200399D01*
G37*
G36*
X+2514601Y+1773114D02*
X+2514601Y+1909886D01*
X+2611314Y+2006599D01*
X+2748086Y+2006599D01*
X+2844799Y+1909886D01*
X+2844799Y+1773114D01*
X+2748086Y+1676401D01*
X+2611314Y+1676401D01*
X+2514601Y+1773114D01*
G37*
G36*
X+4089399Y-3200399D02*
X+4089399Y-3708399D01*
X+3784601Y-3708399D01*
X+3784601Y-2895601D01*
X+4089399Y-2895601D01*
X+4089399Y-3200399D01*
G37*
G36*
X+5581986Y+2716093D02*
X+6680629Y+2716093D01*
X+6983723Y+2412999D01*
X+7212323Y+2412999D01*
X+7962899Y+1662423D01*
X+7962899Y+1212849D01*
X+8261349Y+1212849D01*
X+8261349Y+438151D01*
X+7486651Y+438151D01*
X+7486651Y+1212849D01*
X+7785101Y+1212849D01*
X+7785101Y+1588777D01*
X+7138677Y+2235201D01*
X+6910077Y+2235201D01*
X+6606983Y+2538295D01*
X+5581986Y+2538295D01*
X+5562599Y+2518908D01*
X+5562599Y+2070099D01*
X+5682535Y+2070099D01*
X+5720635Y+2108199D01*
X+5836365Y+2108199D01*
X+5894471Y+2050093D01*
X+6095803Y+2251425D01*
X+6620755Y+2251425D01*
X+6807199Y+2064981D01*
X+6807199Y+1986086D01*
X+6883399Y+1909886D01*
X+6883399Y+1773114D01*
X+6786686Y+1676401D01*
X+6649914Y+1676401D01*
X+6553201Y+1773114D01*
X+6553201Y+1909886D01*
X+6629401Y+1986086D01*
X+6629401Y+1991335D01*
X+6547109Y+2073627D01*
X+6169449Y+2073627D01*
X+6066925Y+1971103D01*
X+6066925Y+416017D01*
X+6349993Y+132949D01*
X+6532879Y+132949D01*
X+6532879Y-67709D01*
X+6451599Y-67709D01*
X+6451599Y-214631D01*
X+6832601Y-214631D01*
X+6832601Y+83456D01*
X+6803389Y+112668D01*
X+6803389Y-105409D01*
X+6607811Y-105409D01*
X+6607811Y+487687D01*
X+6541777Y+553721D01*
X+6532879Y+553721D01*
X+6532879Y+542291D01*
X+6116321Y+542291D01*
X+6116321Y+742949D01*
X+6203951Y+742949D01*
X+6203951Y+1105119D01*
X+6445249Y+1105119D01*
X+6445249Y+742949D01*
X+6532879Y+742949D01*
X+6532879Y+731519D01*
X+6615423Y+731519D01*
X+6794499Y+552443D01*
X+6794499Y+501649D01*
X+6803389Y+501649D01*
X+6803389Y+262850D01*
X+6832807Y+262850D01*
X+6959599Y+136058D01*
X+6959599Y-214631D01*
X+7278369Y-214631D01*
X+7278369Y-405129D01*
X+7081149Y-405129D01*
X+7190651Y-514631D01*
X+7278369Y-514631D01*
X+7278369Y-705129D01*
X+7118349Y-705129D01*
X+7118349Y-946149D01*
X+6953249Y-946149D01*
X+6953249Y-1111251D01*
X+6972299Y-1111251D01*
X+6972299Y-1420549D01*
X+6718301Y-1420549D01*
X+6718301Y-1111251D01*
X+6821629Y-1111251D01*
X+6838951Y-1093929D01*
X+6838951Y-695129D01*
X+6818349Y-695129D01*
X+6818349Y-946149D01*
X+6708735Y-946149D01*
X+6708735Y-1099189D01*
X+6646243Y-1161681D01*
X+6646243Y-1515111D01*
X+6773349Y-1515111D01*
X+6773349Y-1769111D01*
X+6800849Y-1769111D01*
X+6800849Y-2087881D01*
X+6864351Y-2087881D01*
X+6864351Y-1515111D01*
X+7054849Y-1515111D01*
X+7054849Y-1579881D01*
X+7101841Y-1579881D01*
X+7164351Y-1642391D01*
X+7164351Y-1515111D01*
X+7354849Y-1515111D01*
X+7354849Y-2025649D01*
X+7344849Y-2025649D01*
X+7344849Y-2279649D01*
X+7310505Y-2279649D01*
X+7310505Y-2284731D01*
X+7453351Y-2284731D01*
X+7453351Y-2277111D01*
X+7643849Y-2277111D01*
X+7643849Y-2531111D01*
X+7653849Y-2531111D01*
X+7653849Y-2787649D01*
X+7622099Y-2787649D01*
X+7622099Y-3008701D01*
X+7265301Y-3365499D01*
X+7264399Y-3365499D01*
X+7264399Y-3708399D01*
X+6959601Y-3708399D01*
X+6959601Y-3610405D01*
X+6804497Y-3455302D01*
X+6804497Y-2889407D01*
X+7152635Y-2541269D01*
X+6980751Y-2541269D01*
X+6980751Y-2284731D01*
X+7171249Y-2284731D01*
X+7171249Y-2349501D01*
X+7183507Y-2349501D01*
X+7183507Y-2279649D01*
X+7154351Y-2279649D01*
X+7154351Y-2214879D01*
X+7110970Y-2214879D01*
X+7108375Y-2212285D01*
X+7054849Y-2158759D01*
X+7054849Y-2279649D01*
X+6864351Y-2279649D01*
X+6864351Y-2214879D01*
X+6800849Y-2214879D01*
X+6800849Y-2279649D01*
X+6633670Y-2279649D01*
X+6633670Y-2649326D01*
X+6538951Y-2744045D01*
X+6226712Y-2744045D01*
X+6075155Y-2895601D01*
X+6375399Y-2895601D01*
X+6375399Y-3708399D01*
X+6096893Y-3708399D01*
X+6096893Y-3747935D01*
X+6037378Y-3807450D01*
X+5953210Y-3807450D01*
X+5893695Y-3747935D01*
X+5893695Y-3663767D01*
X+5931795Y-3625667D01*
X+5931795Y-3212198D01*
X+5931796Y-3100908D01*
X+5931795Y-2971805D01*
X+5841999Y-3061601D01*
X+5841999Y-3987801D01*
X+5873939Y-3987801D01*
X+5874478Y-3987262D01*
X+7080541Y-3987699D01*
X+7325803Y-3742437D01*
X+7325803Y-3424937D01*
X+7905939Y-2844801D01*
X+8141318Y-2844801D01*
X+8154020Y-2832099D01*
X+8085916Y-2832099D01*
X+8026401Y-2772584D01*
X+8026401Y-2688416D01*
X+8064501Y-2650316D01*
X+8064501Y-2635249D01*
X+7999731Y-2635249D01*
X+7999731Y-2468879D01*
X+7943849Y-2468879D01*
X+7943849Y-2787649D01*
X+7753351Y-2787649D01*
X+7753351Y-2714592D01*
X+7718398Y-2714592D01*
X+7658101Y-2654295D01*
X+7658101Y-2240279D01*
X+7397751Y-2240279D01*
X+7397751Y-1960881D01*
X+7795271Y-1960881D01*
X+7858771Y-1897381D01*
X+7956551Y-1897381D01*
X+7956551Y-1891031D01*
X+8121649Y-1891031D01*
X+8121649Y-2030729D01*
X+7956551Y-2030729D01*
X+7956551Y-2024379D01*
X+7918449Y-2024379D01*
X+7918449Y-2240279D01*
X+7912099Y-2240279D01*
X+7912099Y-2277111D01*
X+7943849Y-2277111D01*
X+7943849Y-2341881D01*
X+7999731Y-2341881D01*
X+7999731Y-2154751D01*
X+8133449Y-2154751D01*
X+8227061Y-2061139D01*
X+8227061Y-1668779D01*
X+8208011Y-1668779D01*
X+8208011Y-1490981D01*
X+8373109Y-1490981D01*
X+8373109Y-1668779D01*
X+8354059Y-1668779D01*
X+8354059Y-2113741D01*
X+8256269Y-2211531D01*
X+8256269Y-2341881D01*
X+8307791Y-2341881D01*
X+8363378Y-2397468D01*
X+8363378Y-2644752D01*
X+8376078Y-2657452D01*
X+8376078Y-2825561D01*
X+8204440Y-2997199D01*
X+7969061Y-2997199D01*
X+7478201Y-3488059D01*
X+7478201Y-3805559D01*
X+7143643Y-4140117D01*
X+7112065Y-4140106D01*
X+5937580Y-4139680D01*
X+5937061Y-4140199D01*
X-3079563Y-4140199D01*
X-3081856Y-4137906D01*
X-3359108Y-4137906D01*
X-3500958Y-3996056D01*
X-3500958Y-2948297D01*
X-3530599Y-2918656D01*
X-3530599Y-2834488D01*
X-3488258Y-2792147D01*
X-3488258Y-2737000D01*
X-3748759Y-2476499D01*
X-3808731Y-2476499D01*
X-3808731Y-2635249D01*
X-3860801Y-2635249D01*
X-3860801Y-2926167D01*
X-3905437Y-2970803D01*
X-3905439Y-2970803D01*
X-4060605Y-3125969D01*
X-4165601Y-3125969D01*
X-4165601Y-3708399D01*
X-4470399Y-3708399D01*
X-4470399Y-3617903D01*
X-4690897Y-3617903D01*
X-4853499Y-3455302D01*
X-4853499Y-2792801D01*
X-5016499Y-2629802D01*
X-5016499Y-2604769D01*
X-5175249Y-2604769D01*
X-5175249Y-2348231D01*
X-5016499Y-2348231D01*
X-5016499Y-2287269D01*
X-5175249Y-2287269D01*
X-5175249Y-2222499D01*
X-5266251Y-2222499D01*
X-5266251Y-2287269D01*
X-5427706Y-2287269D01*
X-5427706Y-3181994D01*
X-5371199Y-3238501D01*
X-5359399Y-3238501D01*
X-5359399Y-2895601D01*
X-5054601Y-2895601D01*
X-5054601Y-3962399D01*
X-5359399Y-3962399D01*
X-5359399Y-3365499D01*
X-5423801Y-3365499D01*
X-5554704Y-3234596D01*
X-5554704Y-1430249D01*
X-5600701Y-1430249D01*
X-5600701Y-1522731D01*
X-5556251Y-1522731D01*
X-5556251Y-2287269D01*
X-5746749Y-2287269D01*
X-5746749Y-1522731D01*
X-5727699Y-1522731D01*
X-5727699Y-1430249D01*
X-5789399Y-1430249D01*
X-5789399Y-1120951D01*
X-5719549Y-1120951D01*
X-5719549Y-702749D01*
X-5779769Y-702749D01*
X-5779769Y-512251D01*
X-5523231Y-512251D01*
X-5523231Y-522251D01*
X-5318549Y-522251D01*
X-5428051Y-412749D01*
X-5779769Y-412749D01*
X-5779769Y-406399D01*
X-5942323Y-406399D01*
X-5994399Y-354323D01*
X-5994399Y-83665D01*
X-6002735Y-75329D01*
X-6113779Y-75329D01*
X-6113779Y+35715D01*
X-6589117Y+511053D01*
X-6589117Y+1597578D01*
X-6141996Y+2044699D01*
X-5173786Y+2044699D01*
X-5148386Y+2070099D01*
X-5011614Y+2070099D01*
X-4914901Y+1973386D01*
X-4914901Y+1836614D01*
X-5011614Y+1739901D01*
X-5148386Y+1739901D01*
X-5173786Y+1765301D01*
X-6026266Y+1765301D01*
X-6309719Y+1481848D01*
X-6309719Y+626783D01*
X-5808265Y+125329D01*
X-5697221Y+125329D01*
X-5697221Y-75329D01*
X-5808265Y-75329D01*
X-5816601Y-83665D01*
X-5816601Y-228601D01*
X-5779769Y-228601D01*
X-5779769Y-222251D01*
X-5328549Y-222251D01*
X-5437771Y-113029D01*
X-5587289Y-113029D01*
X-5587289Y+478467D01*
X-5654923Y+546101D01*
X-5697221Y+546101D01*
X-5697221Y+534671D01*
X-6113779Y+534671D01*
X-6113779Y+735329D01*
X-5994399Y+735329D01*
X-5994399Y+780001D01*
X-6026149Y+780001D01*
X-6026149Y+1160999D01*
X-5784851Y+1160999D01*
X-5784851Y+780001D01*
X-5816601Y+780001D01*
X-5816601Y+735329D01*
X-5697221Y+735329D01*
X-5697221Y+723899D01*
X-5677415Y+723899D01*
X-5666169Y+735145D01*
X-5592523Y+735145D01*
X-5400601Y+543223D01*
X-5400601Y+494029D01*
X-5391711Y+494029D01*
X-5391711Y+20511D01*
X-5148949Y-222251D01*
X-4761231Y-222251D01*
X-4761231Y-412749D01*
X-4923583Y-412749D01*
X-4826001Y-510331D01*
X-4826001Y-522251D01*
X-4761231Y-522251D01*
X-4761231Y-712749D01*
X-4938751Y-712749D01*
X-4938751Y-953769D01*
X-5080001Y-953769D01*
X-5080001Y-1004202D01*
X-5086351Y-1010552D01*
X-5086351Y-1175585D01*
X-5105401Y-1194635D01*
X-5105401Y-1430249D01*
X-5359399Y-1430249D01*
X-5359399Y-1120951D01*
X-5200649Y-1120951D01*
X-5200649Y-1010552D01*
X-5206999Y-1004202D01*
X-5206998Y-792700D01*
X-5206999Y-702749D01*
X-5238751Y-702749D01*
X-5238751Y-953769D01*
X-5372469Y-953769D01*
X-5427706Y-1009006D01*
X-5427706Y-1522731D01*
X-5256251Y-1522731D01*
X-5256251Y-1779269D01*
X-5266251Y-1779269D01*
X-5266251Y-2095501D01*
X-5175249Y-2095501D01*
X-5175249Y-1522731D01*
X-4984751Y-1522731D01*
X-4984751Y-1587501D01*
X-4970601Y-1587501D01*
X-4889501Y-1668601D01*
X-4889501Y-2095501D01*
X-4885249Y-2095501D01*
X-4885249Y-2030731D01*
X-4875249Y-2030731D01*
X-4875249Y-1522731D01*
X-4684751Y-1522731D01*
X-4684751Y-2033269D01*
X-4694751Y-2033269D01*
X-4694751Y-2287269D01*
X-4885249Y-2287269D01*
X-4885249Y-2222499D01*
X-4889501Y-2222499D01*
X-4889501Y-2577199D01*
X-4885249Y-2581451D01*
X-4885249Y-2348231D01*
X-4694751Y-2348231D01*
X-4694751Y-2604769D01*
X-4861931Y-2604769D01*
X-4726501Y-2740198D01*
X-4726501Y-3402699D01*
X-4638295Y-3490905D01*
X-4470399Y-3490905D01*
X-4470399Y-3357997D01*
X-4564547Y-3357997D01*
X-4699156Y-3223389D01*
X-4699156Y-2795355D01*
X-4661958Y-2758158D01*
X-4576249Y-2672449D01*
X-4576249Y-2541269D01*
X-4586249Y-2541269D01*
X-4586249Y-2284731D01*
X-4395751Y-2284731D01*
X-4395751Y-2538731D01*
X-4385751Y-2538731D01*
X-4385751Y-2795269D01*
X-4519469Y-2795269D01*
X-4572158Y-2847958D01*
X-4572158Y-3170786D01*
X-4511945Y-3230999D01*
X-4470399Y-3230999D01*
X-4470399Y-2895601D01*
X-4165601Y-2895601D01*
X-4165601Y-2973571D01*
X-4123727Y-2973571D01*
X-4013199Y-2863043D01*
X-4013199Y-2635249D01*
X-4065269Y-2635249D01*
X-4065269Y-2476499D01*
X-4095751Y-2476499D01*
X-4095751Y-2795269D01*
X-4286249Y-2795269D01*
X-4286249Y-2730499D01*
X-4317790Y-2730499D01*
X-4380882Y-2667407D01*
X-4380882Y-2247899D01*
X-4641849Y-2247899D01*
X-4641849Y-1968501D01*
X-4255096Y-1968501D01*
X-4255096Y-1952033D01*
X-4189014Y-1885951D01*
X-4083049Y-1885951D01*
X-4083049Y-1879601D01*
X-3917951Y-1879601D01*
X-3917951Y-2019299D01*
X-4083049Y-2019299D01*
X-4083049Y-2012949D01*
X-4121151Y-2012949D01*
X-4121151Y-2247899D01*
X-4127501Y-2247899D01*
X-4127501Y-2284731D01*
X-4095751Y-2284731D01*
X-4095751Y-2349501D01*
X-3696157Y-2349501D01*
X-3361260Y-2684398D01*
X-3361260Y-2800629D01*
X-3327401Y-2834488D01*
X-3327401Y-2918656D01*
X-3348560Y-2939815D01*
X-3348560Y-3932934D01*
X-3295986Y-3985508D01*
X-3018732Y-3985508D01*
X-3016439Y-3987801D01*
X-1333499Y-3987801D01*
X-1333499Y-2493184D01*
X-1357804Y-2468879D01*
X-1708151Y-2468879D01*
X-1708151Y-2787649D01*
X-1898649Y-2787649D01*
X-1898649Y-2722551D01*
X-1924893Y-2722551D01*
X-1993898Y-2653546D01*
X-1993898Y-2627244D01*
X-1993899Y-2240279D01*
X-2254249Y-2240279D01*
X-2254249Y-1960881D01*
X-1829701Y-1960881D01*
X-1766201Y-1897381D01*
X-1695449Y-1897381D01*
X-1695449Y-1891031D01*
X-1530351Y-1891031D01*
X-1530351Y-2030729D01*
X-1695449Y-2030729D01*
X-1695449Y-2024379D01*
X-1713599Y-2024379D01*
X-1733551Y-2044331D01*
X-1733551Y-2240279D01*
X-1739901Y-2240279D01*
X-1739901Y-2277111D01*
X-1708151Y-2277111D01*
X-1708151Y-2341881D01*
X-1677669Y-2341881D01*
X-1677669Y-2183131D01*
X-1543951Y-2183131D01*
X-1424939Y-2064119D01*
X-1424939Y-1668779D01*
X-1443989Y-1668779D01*
X-1443989Y-1490981D01*
X-1278891Y-1490981D01*
X-1278891Y-1668779D01*
X-1297941Y-1668779D01*
X-1297941Y-2116721D01*
X-1421131Y-2239911D01*
X-1421131Y-2341881D01*
X-1342564Y-2341881D01*
X-1312084Y-2311401D01*
X-1227916Y-2311401D01*
X-1168401Y-2370916D01*
X-1168401Y-2455084D01*
X-1206501Y-2493184D01*
X-1206501Y-3987801D01*
X+952501Y-3987801D01*
X+952501Y-2627629D01*
X+927099Y-2627629D01*
X+927098Y-2721976D01*
X+927099Y-2937874D01*
X+889901Y-2975071D01*
X+753473Y-3111499D01*
X+723899Y-3111499D01*
X+723899Y-3708399D01*
X+419101Y-3708399D01*
X+419101Y-3619498D01*
X+412750Y-3619498D01*
X+227698Y-3619499D01*
X+190501Y-3582301D01*
X-116820Y-3274980D01*
X-116820Y-3248678D01*
X-116821Y-2541269D01*
X-258249Y-2541269D01*
X-258249Y-2284731D01*
X-116821Y-2284731D01*
X-116821Y-2197147D01*
X-184151Y-2129817D01*
X-184151Y-2279649D01*
X-374649Y-2279649D01*
X-374649Y-2214879D01*
X-529151Y-2214879D01*
X-529151Y-2279649D01*
X-698501Y-2279649D01*
X-698501Y-2566301D01*
X-977901Y-2845701D01*
X-977901Y-2899584D01*
X-1037416Y-2959099D01*
X-1121584Y-2959099D01*
X-1181099Y-2899584D01*
X-1181099Y-2815416D01*
X-1121584Y-2755901D01*
X-1067701Y-2755901D01*
X-825499Y-2513699D01*
X-825499Y-2279649D01*
X-1009649Y-2279649D01*
X-1009649Y-1515111D01*
X-957049Y-1515111D01*
X-957049Y-1417549D01*
X-1026899Y-1417549D01*
X-1026899Y-1108251D01*
X-957049Y-1108251D01*
X-957049Y-695129D01*
X-1042669Y-695129D01*
X-1042669Y-504631D01*
X-786131Y-504631D01*
X-786131Y-514631D01*
X-545449Y-514631D01*
X-654951Y-405129D01*
X-1042669Y-405129D01*
X-1042669Y-214631D01*
X-977899Y-214631D01*
X-977899Y-67709D01*
X-1122679Y-67709D01*
X-1122679Y-56279D01*
X-1145261Y-56279D01*
X-1276379Y+74839D01*
X-1276379Y+1944584D01*
X-1061964Y+2158999D01*
X-166377Y+2158999D01*
X-13977Y+2006599D01*
X+42986Y+2006599D01*
X+139699Y+1909886D01*
X+139699Y+1773114D01*
X+42986Y+1676401D01*
X-93786Y+1676401D01*
X-190499Y+1773114D01*
X-190499Y+1909886D01*
X-179604Y+1920782D01*
X-240023Y+1981201D01*
X-988318Y+1981201D01*
X-1098581Y+1870938D01*
X-1098581Y+742949D01*
X-1035049Y+742949D01*
X-1035049Y+1105119D01*
X-793751Y+1105119D01*
X-793751Y+742949D01*
X-706121Y+742949D01*
X-706121Y+731519D01*
X-623577Y+731519D01*
X-508001Y+615943D01*
X-508001Y+501649D01*
X-499111Y+501649D01*
X-499111Y+190131D01*
X-342902Y+33922D01*
X-342902Y+7620D01*
X-342901Y-214631D01*
X-24131Y-214631D01*
X-24131Y-405129D01*
X-221351Y-405129D01*
X-111849Y-514631D01*
X-24131Y-514631D01*
X-24131Y-705129D01*
X-138151Y-705129D01*
X-138151Y-946149D01*
X-328649Y-946149D01*
X-328649Y-695129D01*
X-334378Y-695129D01*
X-334378Y-1185518D01*
X-342901Y-1194041D01*
X-342901Y-1417549D01*
X-596899Y-1417549D01*
X-596899Y-1108251D01*
X-448674Y-1108251D01*
X-448674Y-946149D01*
X-628649Y-946149D01*
X-628649Y-925692D01*
X-660401Y-957444D01*
X-660401Y-1515111D01*
X-529151Y-1515111D01*
X-529151Y-1769111D01*
X-519151Y-1769111D01*
X-519151Y-2025649D01*
X-529151Y-2025649D01*
X-529151Y-2087881D01*
X-374649Y-2087881D01*
X-374649Y-1515111D01*
X-184151Y-1515111D01*
X-184151Y-1579881D01*
X-155724Y-1579881D01*
X-74649Y-1660956D01*
X-74649Y-1515111D01*
X+115849Y-1515111D01*
X+115849Y-2025649D01*
X+105849Y-2025649D01*
X+105849Y-2279649D01*
X+10177Y-2279649D01*
X+10177Y-2439401D01*
X+10176Y-3222376D01*
X+280301Y-3492501D01*
X+419101Y-3492502D01*
X+419101Y-3364301D01*
X+256101Y-3201302D01*
X+256101Y-2787649D01*
X+224351Y-2787649D01*
X+224351Y-2533649D01*
X+222249Y-2533649D01*
X+222249Y-2541269D01*
X+31751Y-2541269D01*
X+31751Y-2284731D01*
X+214351Y-2284731D01*
X+214351Y-2277111D01*
X+404849Y-2277111D01*
X+404849Y-2531111D01*
X+414849Y-2531111D01*
X+414849Y-2787649D01*
X+383099Y-2787649D01*
X+383099Y-3148699D01*
X+419101Y-3184701D01*
X+419101Y-2895601D01*
X+723899Y-2895601D01*
X+723899Y-2961473D01*
X+800101Y-2885271D01*
X+800102Y-2721976D01*
X+800101Y-2627629D01*
X+735331Y-2627629D01*
X+735331Y-2468879D01*
X+704849Y-2468879D01*
X+704849Y-2787649D01*
X+514351Y-2787649D01*
X+514351Y-2721467D01*
X+479817Y-2721467D01*
X+419101Y-2660751D01*
X+419101Y-2240279D01*
X+158751Y-2240279D01*
X+158751Y-1960881D01*
X+546381Y-1960881D01*
X+546381Y-1951252D01*
X+600252Y-1897381D01*
X+717551Y-1897381D01*
X+717551Y-1891031D01*
X+882649Y-1891031D01*
X+882649Y-2030729D01*
X+717551Y-2030729D01*
X+717551Y-2024379D01*
X+679449Y-2024379D01*
X+679449Y-2240279D01*
X+673099Y-2240279D01*
X+673099Y-2277111D01*
X+704849Y-2277111D01*
X+704849Y-2341881D01*
X+1006936Y-2341881D01*
X+1037416Y-2311401D01*
X+1121584Y-2311401D01*
X+1181099Y-2370916D01*
X+1181099Y-2455084D01*
X+1121584Y-2514599D01*
X+1079499Y-2514599D01*
X+1079499Y-3987801D01*
X+3365501Y-3987801D01*
X+3365501Y-3346263D01*
X+3352801Y-3333563D01*
X+3352801Y-3270437D01*
X+3365501Y-3257737D01*
X+3365501Y-2978376D01*
X+3363769Y-2976644D01*
X+3363769Y-2663629D01*
X+3340099Y-2663629D01*
X+3340099Y-2900169D01*
X+3302901Y-2937366D01*
X+3136899Y-3103368D01*
X+3136899Y-3708399D01*
X+2832101Y-3708399D01*
X+2832101Y-3610787D01*
X+2500240Y-3610787D01*
X+2296601Y-3407148D01*
X+2296601Y-2541269D01*
X+2154751Y-2541269D01*
X+2154751Y-2284731D01*
X+2296602Y-2284731D01*
X+2296602Y-2279649D01*
X+2264851Y-2279649D01*
X+2264851Y-2210594D01*
X+2245511Y-2210594D01*
X+2165349Y-2130432D01*
X+2165349Y-2279649D01*
X+1974851Y-2279649D01*
X+1974851Y-2214879D01*
X+1883849Y-2214879D01*
X+1883849Y-2279649D01*
X+1714499Y-2279649D01*
X+1714499Y-2593190D01*
X+1561268Y-2746422D01*
X+1561266Y-2746422D01*
X+1372788Y-2934900D01*
X+1286024Y-2934359D01*
X+1248584Y-2971799D01*
X+1164416Y-2971799D01*
X+1104901Y-2912284D01*
X+1104901Y-2828116D01*
X+1164416Y-2768601D01*
X+1248584Y-2768601D01*
X+1287166Y-2807183D01*
X+1320608Y-2807480D01*
X+1587501Y-2540585D01*
X+1587501Y-2279649D01*
X+1403351Y-2279649D01*
X+1403351Y-1515111D01*
X+1435101Y-1515111D01*
X+1435101Y-1416049D01*
X+1371601Y-1416049D01*
X+1371601Y-1106751D01*
X+1441451Y-1106751D01*
X+1441452Y-854508D01*
X+1559395Y-736565D01*
X+1559395Y-659129D01*
X+1370331Y-659129D01*
X+1370331Y-468631D01*
X+1867551Y-468631D01*
X+1758049Y-359129D01*
X+1626869Y-359129D01*
X+1626869Y-369129D01*
X+1370331Y-369129D01*
X+1370331Y-178631D01*
X+1435101Y-178631D01*
X+1435101Y-67709D01*
X+1290321Y-67709D01*
X+1290321Y+115177D01*
X+1068213Y+337285D01*
X+1068213Y+2002562D01*
X+1325820Y+2260169D01*
X+2135083Y+2260169D01*
X+2311399Y+2083853D01*
X+2311399Y+1986086D01*
X+2387599Y+1909886D01*
X+2387599Y+1773114D01*
X+2290886Y+1676401D01*
X+2154114Y+1676401D01*
X+2057401Y+1773114D01*
X+2057401Y+1909886D01*
X+2133601Y+1986086D01*
X+2133601Y+2010207D01*
X+2061437Y+2082371D01*
X+1399466Y+2082371D01*
X+1246011Y+1928916D01*
X+1246011Y+410931D01*
X+1523993Y+132949D01*
X+1706879Y+132949D01*
X+1706879Y-67709D01*
X+1562099Y-67709D01*
X+1562099Y-178631D01*
X+1624331Y-178631D01*
X+1624331Y-168631D01*
X+1880869Y-168631D01*
X+1880869Y-178631D01*
X+1943101Y-178631D01*
X+1943101Y-18681D01*
X+1913889Y+10531D01*
X+1913889Y-105409D01*
X+1718311Y-105409D01*
X+1718311Y+501649D01*
X+1727201Y+501649D01*
X+1727201Y+542297D01*
X+1715777Y+553721D01*
X+1706879Y+553721D01*
X+1706879Y+542291D01*
X+1290321Y+542291D01*
X+1290321Y+742949D01*
X+1377951Y+742949D01*
X+1377951Y+1105119D01*
X+1619249Y+1105119D01*
X+1619249Y+742949D01*
X+1706879Y+742949D01*
X+1706879Y+731519D01*
X+1789423Y+731519D01*
X+1904999Y+615943D01*
X+1904999Y+501649D01*
X+1913889Y+501649D01*
X+1913889Y+190131D01*
X+2070099Y+33921D01*
X+2070099Y-178631D01*
X+2132331Y-178631D01*
X+2132331Y-168631D01*
X+2388869Y-168631D01*
X+2388869Y-359129D01*
X+2181649Y-359129D01*
X+2291151Y-468631D01*
X+2388869Y-468631D01*
X+2388869Y-659129D01*
X+2063749Y-659129D01*
X+2063749Y-961883D01*
X+1985749Y-1039883D01*
X+1985749Y-1106751D01*
X+2055599Y-1106751D01*
X+2055599Y-1416049D01*
X+1801601Y-1416049D01*
X+1801601Y-1112679D01*
X+1752599Y-1161681D01*
X+1752599Y-1448701D01*
X+1714499Y-1486801D01*
X+1714499Y-1515111D01*
X+1883849Y-1515111D01*
X+1883849Y-1769111D01*
X+1893849Y-1769111D01*
X+1893849Y-2025649D01*
X+1883849Y-2025649D01*
X+1883849Y-2087881D01*
X+1974851Y-2087881D01*
X+1974851Y-1515111D01*
X+2165349Y-1515111D01*
X+2165349Y-1579881D01*
X+2186159Y-1579881D01*
X+2274851Y-1668573D01*
X+2274851Y-1515111D01*
X+2465349Y-1515111D01*
X+2465349Y-2025649D01*
X+2455349Y-2025649D01*
X+2455349Y-2279649D01*
X+2423598Y-2279649D01*
X+2423598Y-2282190D01*
X+2423599Y-2413000D01*
X+2423599Y-3354546D01*
X+2552842Y-3483789D01*
X+2832101Y-3483789D01*
X+2832101Y-3362790D01*
X+2764990Y-3362790D01*
X+2667001Y-3264802D01*
X+2667001Y-2787649D01*
X+2637351Y-2787649D01*
X+2637351Y-2533649D01*
X+2635249Y-2533649D01*
X+2635249Y-2541269D01*
X+2444751Y-2541269D01*
X+2444751Y-2284731D01*
X+2627351Y-2284731D01*
X+2627351Y-2277111D01*
X+2817849Y-2277111D01*
X+2817849Y-2531111D01*
X+2827849Y-2531111D01*
X+2827849Y-2787649D01*
X+2793999Y-2787649D01*
X+2793999Y-3212199D01*
X+2817592Y-3235792D01*
X+2832101Y-3235792D01*
X+2832101Y-2895601D01*
X+3136899Y-2895601D01*
X+3136899Y-2923768D01*
X+3213101Y-2847566D01*
X+3213101Y-2663629D01*
X+3148331Y-2663629D01*
X+3148331Y-2473131D01*
X+3357225Y-2473131D01*
X+3352973Y-2468879D01*
X+3117849Y-2468879D01*
X+3117849Y-2787649D01*
X+2927351Y-2787649D01*
X+2927351Y-2722879D01*
X+2899126Y-2722879D01*
X+2832101Y-2655854D01*
X+2832101Y-2240279D01*
X+2571751Y-2240279D01*
X+2571751Y-1960881D01*
X+2970948Y-1960881D01*
X+3034448Y-1897381D01*
X+3130551Y-1897381D01*
X+3130551Y-1891031D01*
X+3295649Y-1891031D01*
X+3295649Y-2030729D01*
X+3130551Y-2030729D01*
X+3130551Y-2024379D01*
X+3092449Y-2024379D01*
X+3092449Y-2240279D01*
X+3086099Y-2240279D01*
X+3086099Y-2277111D01*
X+3117849Y-2277111D01*
X+3117849Y-2341881D01*
X+3148331Y-2341881D01*
X+3148331Y-2183131D01*
X+3282049Y-2183131D01*
X+3401061Y-2064119D01*
X+3401061Y-1668779D01*
X+3382011Y-1668779D01*
X+3382011Y-1490981D01*
X+3547109Y-1490981D01*
X+3547109Y-1668779D01*
X+3528059Y-1668779D01*
X+3528059Y-2116721D01*
X+3404869Y-2239911D01*
X+3404869Y-2341881D01*
X+3405576Y-2341881D01*
X+3490767Y-2427072D01*
X+3490766Y-2623687D01*
X+3490767Y-2767698D01*
X+3490767Y-2924042D01*
X+3492499Y-2925774D01*
X+3492499Y-3257737D01*
X+3505199Y-3270437D01*
X+3505199Y-3333563D01*
X+3492499Y-3346263D01*
X+3492499Y-3987801D01*
X+5715001Y-3987801D01*
X+5715001Y-3008999D01*
X+5842001Y-2881999D01*
X+5842001Y-2468879D01*
X+5817869Y-2468879D01*
X+5817869Y-2627629D01*
X+5778498Y-2627629D01*
X+5778499Y-2883802D01*
X+5741301Y-2920999D01*
X+5613399Y-3048901D01*
X+5613399Y-3708399D01*
X+5308601Y-3708399D01*
X+5308601Y-3619499D01*
X+4926699Y-3619499D01*
X+4762501Y-3455301D01*
X+4762501Y-2481110D01*
X+4758249Y-2476858D01*
X+4758249Y-2541269D01*
X+4567751Y-2541269D01*
X+4567751Y-2284731D01*
X+4720692Y-2284731D01*
X+4720692Y-2203773D01*
X+4669349Y-2152430D01*
X+4669349Y-2279649D01*
X+4478851Y-2279649D01*
X+4478851Y-2214879D01*
X+4296849Y-2214879D01*
X+4296849Y-2279649D01*
X+4157190Y-2279649D01*
X+4157190Y-2484008D01*
X+4619583Y-2946401D01*
X+4677584Y-2946401D01*
X+4737099Y-3005916D01*
X+4737099Y-3090084D01*
X+4677584Y-3149599D01*
X+4593416Y-3149599D01*
X+4533901Y-3090084D01*
X+4533901Y-3040319D01*
X+4030192Y-2536610D01*
X+4030192Y-1812241D01*
X+4025901Y-1807950D01*
X+4025901Y-1428749D01*
X+3968749Y-1428749D01*
X+3968748Y-1515111D01*
X+4006849Y-1515111D01*
X+4006849Y-2279649D01*
X+3816351Y-2279649D01*
X+3816351Y-1515111D01*
X+3854452Y-1515111D01*
X+3854452Y-1507490D01*
X+3854451Y-1428749D01*
X+3784601Y-1428749D01*
X+3784601Y-1119451D01*
X+3854451Y-1119451D01*
X+3854451Y-926428D01*
X+3976905Y-803974D01*
X+3976905Y-695129D01*
X+3783331Y-695129D01*
X+3783331Y-504631D01*
X+4039869Y-504631D01*
X+4039869Y-514631D01*
X+4280551Y-514631D01*
X+4171049Y-405129D01*
X+3783331Y-405129D01*
X+3783331Y-214631D01*
X+3848101Y-214631D01*
X+3848101Y-67709D01*
X+3703321Y-67709D01*
X+3703321Y+115177D01*
X+3453208Y+365290D01*
X+3453208Y+1985644D01*
X+3423365Y+1955801D01*
X+3327399Y+1955801D01*
X+3327399Y+1598825D01*
X+3136899Y+1408325D01*
X+3136899Y+1212849D01*
X+3435349Y+1212849D01*
X+3435349Y+438151D01*
X+2660651Y+438151D01*
X+2660651Y+1212849D01*
X+2959101Y+1212849D01*
X+2959101Y+1481971D01*
X+3149601Y+1672471D01*
X+3149601Y+2022756D01*
X+3124201Y+2048156D01*
X+3124201Y+2487495D01*
X+983811Y+2487495D01*
X+983811Y+2235199D01*
X+1010365Y+2235199D01*
X+1092199Y+2153365D01*
X+1092199Y+2037635D01*
X+1010365Y+1955801D01*
X+958411Y+1955801D01*
X+958411Y+1573636D01*
X+723899Y+1339124D01*
X+723899Y+1212849D01*
X+1022349Y+1212849D01*
X+1022349Y+438151D01*
X+247651Y+438151D01*
X+247651Y+1212849D01*
X+546101Y+1212849D01*
X+546101Y+1412770D01*
X+780613Y+1647282D01*
X+780613Y+2022756D01*
X+755213Y+2048156D01*
X+755213Y+2487495D01*
X-1282701Y+2487495D01*
X-1282701Y+2235199D01*
X-1275635Y+2235199D01*
X-1193801Y+2153365D01*
X-1193801Y+2037635D01*
X-1275635Y+1955801D01*
X-1308101Y+1955801D01*
X-1308101Y+1614177D01*
X-1689101Y+1233177D01*
X-1689101Y+1212849D01*
X-1390651Y+1212849D01*
X-1390651Y+438151D01*
X-2165349Y+438151D01*
X-2165349Y+1212849D01*
X-1866899Y+1212849D01*
X-1866899Y+1306823D01*
X-1485899Y+1687823D01*
X-1485899Y+2022756D01*
X-1511299Y+2048156D01*
X-1511299Y+2487495D01*
X-4114801Y+2487495D01*
X-4114801Y+2058329D01*
X-4089402Y+2032930D01*
X-4089402Y+1896158D01*
X-4165601Y+1819959D01*
X-4165601Y+1205229D01*
X-3867151Y+1205229D01*
X-3867151Y+482411D01*
X-3736928Y+352188D01*
X-3736928Y+2008492D01*
X-3513064Y+2232356D01*
X-2381269Y+2232356D01*
X-2184401Y+2035488D01*
X-2184401Y+1986086D01*
X-2108201Y+1909886D01*
X-2108201Y+1773114D01*
X-2204914Y+1676401D01*
X-2341686Y+1676401D01*
X-2438399Y+1773114D01*
X-2438399Y+1909886D01*
X-2374321Y+1973964D01*
X-2454915Y+2054558D01*
X-3439418Y+2054558D01*
X-3559130Y+1934846D01*
X-3559130Y+390072D01*
X-3302007Y+132949D01*
X-3119121Y+132949D01*
X-3119121Y-67709D01*
X-3263901Y-67709D01*
X-3263901Y-178631D01*
X-3201669Y-178631D01*
X-3201669Y-168631D01*
X-2945131Y-168631D01*
X-2945131Y-178631D01*
X-2882899Y-178631D01*
X-2882899Y-18681D01*
X-2912111Y+10531D01*
X-2912111Y-105409D01*
X-3107689Y-105409D01*
X-3107689Y+501649D01*
X-3098799Y+501649D01*
X-3098799Y+542297D01*
X-3110223Y+553721D01*
X-3119121Y+553721D01*
X-3119121Y+542291D01*
X-3535679Y+542291D01*
X-3535679Y+742949D01*
X-3448049Y+742949D01*
X-3448049Y+1105119D01*
X-3206751Y+1105119D01*
X-3206751Y+742949D01*
X-3119121Y+742949D01*
X-3119121Y+731519D01*
X-3036577Y+731519D01*
X-2921001Y+615943D01*
X-2921001Y+501649D01*
X-2912111Y+501649D01*
X-2912111Y+190131D01*
X-2755901Y+33921D01*
X-2755901Y-178631D01*
X-2693669Y-178631D01*
X-2693669Y-168631D01*
X-2437131Y-168631D01*
X-2437131Y-359129D01*
X-2644351Y-359129D01*
X-2534849Y-468631D01*
X-2437131Y-468631D01*
X-2437131Y-659129D01*
X-2762252Y-659129D01*
X-2762252Y-689611D01*
X-2597151Y-689611D01*
X-2597151Y-946149D01*
X-2762252Y-946149D01*
X-2762252Y-1108251D01*
X-2743201Y-1108251D01*
X-2743201Y-1417549D01*
X-2997199Y-1417549D01*
X-2997199Y-1108251D01*
X-2890871Y-1108251D01*
X-2876548Y-1093928D01*
X-2876548Y-659129D01*
X-3243051Y-659129D01*
X-3243051Y-1108251D01*
X-3189229Y-1108251D01*
X-3189229Y-848928D01*
X-3099789Y-759488D01*
X-3087649Y-759488D01*
X-3087649Y-689611D01*
X-2897151Y-689611D01*
X-2897151Y-946149D01*
X-3074931Y-946149D01*
X-3074931Y-1220274D01*
X-3142206Y-1287549D01*
X-3173201Y-1287549D01*
X-3173201Y-1417549D01*
X-3270251Y-1417549D01*
X-3270251Y-1515111D01*
X-3232151Y-1515111D01*
X-3232151Y-2279649D01*
X-3378555Y-2279649D01*
X-3140974Y-2517230D01*
X-3140972Y-2517230D01*
X-3096336Y-2561866D01*
X-3096336Y-3808481D01*
X-3073401Y-3831416D01*
X-3073401Y-3915584D01*
X-3132916Y-3975099D01*
X-3217084Y-3975099D01*
X-3276599Y-3915584D01*
X-3276599Y-3831416D01*
X-3248734Y-3803551D01*
X-3248734Y-2624990D01*
X-3607192Y-2266532D01*
X-3607192Y-857061D01*
X-3619975Y-844278D01*
X-3682361Y-844278D01*
X-3707761Y-869678D01*
X-3791929Y-869678D01*
X-3851444Y-810163D01*
X-3851444Y-725995D01*
X-3791929Y-666480D01*
X-3707761Y-666480D01*
X-3682361Y-691880D01*
X-3556853Y-691880D01*
X-3499432Y-749301D01*
X-3499430Y-749301D01*
X-3454794Y-793937D01*
X-3454794Y-1173252D01*
X-3427199Y-1173252D01*
X-3427199Y-1108251D01*
X-3357349Y-1108251D01*
X-3357349Y-659129D01*
X-3455669Y-659129D01*
X-3455669Y-468631D01*
X-2958449Y-468631D01*
X-3067951Y-359129D01*
X-3199131Y-359129D01*
X-3199131Y-369129D01*
X-3455669Y-369129D01*
X-3455669Y-178631D01*
X-3390899Y-178631D01*
X-3390899Y-67709D01*
X-3535679Y-67709D01*
X-3535679Y+115177D01*
X-3644901Y+224399D01*
X-3644901Y+148416D01*
X-3704416Y+88901D01*
X-3788584Y+88901D01*
X-3848099Y+148416D01*
X-3848099Y+232584D01*
X-3840472Y+240212D01*
X-4030791Y+430531D01*
X-4641849Y+430531D01*
X-4641849Y+1205229D01*
X-4343399Y+1205229D01*
X-4343399Y+1801037D01*
X-4429059Y+1886697D01*
X-4429059Y+2023469D01*
X-4394199Y+2058329D01*
X-4394199Y+2667044D01*
X-4377075Y+2684168D01*
X-4377075Y+2685059D01*
X-4295241Y+2766893D01*
X+5531186Y+2766893D01*
X+5581986Y+2716093D01*
G37*
G36*
X+6997701Y+1773114D02*
X+6997701Y+1909886D01*
X+7094414Y+2006599D01*
X+7231186Y+2006599D01*
X+7327899Y+1909886D01*
X+7327899Y+1773114D01*
X+7231186Y+1676401D01*
X+7094414Y+1676401D01*
X+6997701Y+1773114D01*
G37*
G36*
X+7230109Y+936833D02*
X+7394499Y+772443D01*
X+7394499Y+501649D01*
X+7403389Y+501649D01*
X+7403389Y+226053D01*
X+7405923Y+223519D01*
X+7531101Y+223519D01*
X+7531101Y+299719D01*
X+7759699Y+299719D01*
X+7759699Y-30479D01*
X+7689849Y-30479D01*
X+7689849Y-247649D01*
X+7612099Y-247649D01*
X+7612099Y-626111D01*
X+7620001Y-626111D01*
X+7620001Y-521479D01*
X+7787483Y-353997D01*
X+7974331Y-353997D01*
X+7974331Y-314131D01*
X+8230869Y-314131D01*
X+8230869Y-447849D01*
X+8260079Y-477059D01*
X+8260079Y-1300481D01*
X+8279129Y-1300481D01*
X+8279129Y-1478279D01*
X+8114031Y-1478279D01*
X+8114031Y-1300481D01*
X+8133081Y-1300481D01*
X+8133081Y-529661D01*
X+8108049Y-504629D01*
X+7974331Y-504629D01*
X+7974331Y-480993D01*
X+7840087Y-480993D01*
X+7746999Y-574081D01*
X+7746999Y-1028701D01*
X+7785101Y-1028701D01*
X+7785101Y-882649D01*
X+7753351Y-882649D01*
X+7753351Y-626111D01*
X+7943849Y-626111D01*
X+7943849Y-882649D01*
X+7912099Y-882649D01*
X+7912099Y-1028701D01*
X+8039099Y-1028701D01*
X+8039099Y-1257299D01*
X+7912099Y-1257299D01*
X+7912099Y-1440181D01*
X+7918449Y-1440181D01*
X+7918449Y-1662431D01*
X+7956551Y-1662431D01*
X+7956551Y-1656081D01*
X+8020051Y-1656081D01*
X+8020051Y-1490981D01*
X+8185149Y-1490981D01*
X+8185149Y-1668779D01*
X+8121649Y-1668779D01*
X+8121649Y-1795779D01*
X+7956551Y-1795779D01*
X+7956551Y-1789429D01*
X+7848106Y-1789429D01*
X+7784392Y-1725715D01*
X+7784392Y-1719579D01*
X+7397751Y-1719579D01*
X+7397751Y-1440181D01*
X+7531101Y-1440181D01*
X+7531102Y-1270902D01*
X+7517499Y-1257299D01*
X+7327901Y-1257299D01*
X+7327901Y-1028701D01*
X+7485101Y-1028701D01*
X+7485101Y-882649D01*
X+7453351Y-882649D01*
X+7453351Y-626111D01*
X+7485101Y-626111D01*
X+7485101Y-139079D01*
X+7499351Y-124829D01*
X+7499351Y+8889D01*
X+7531101Y+8889D01*
X+7531101Y+45721D01*
X+7403389Y+45721D01*
X+7403389Y-105409D01*
X+7207811Y-105409D01*
X+7207811Y+501649D01*
X+7216701Y+501649D01*
X+7216701Y+698797D01*
X+7104387Y+811111D01*
X+6943091Y+811111D01*
X+6943091Y+1098129D01*
X+7230109Y+1098129D01*
X+7230109Y+936833D01*
G37*
G36*
X+8216899Y-24131D02*
X+8230869Y-24131D01*
X+8230869Y-214629D01*
X+7979849Y-214629D01*
X+7979849Y-247649D01*
X+7789351Y-247649D01*
X+7789351Y+8889D01*
X+7979849Y+8889D01*
X+7979849Y-24131D01*
X+7988301Y-24131D01*
X+7988301Y+299719D01*
X+8216899Y+299719D01*
X+8216899Y-24131D01*
G37*
G36*
X+2404109Y+936833D02*
X+2504999Y+835943D01*
X+2504999Y+501649D01*
X+2513889Y+501649D01*
X+2513889Y+226053D01*
X+2516423Y+223519D01*
X+2705101Y+223519D01*
X+2705101Y+299719D01*
X+2933699Y+299719D01*
X+2933699Y-30479D01*
X+2832099Y-30479D01*
X+2832099Y-54611D01*
X+2863849Y-54611D01*
X+2863849Y-311149D01*
X+2832099Y-311149D01*
X+2832099Y-1028701D01*
X+2867767Y-1028701D01*
X+2867767Y-980529D01*
X+2835062Y-947824D01*
X+2835062Y-539113D01*
X+2964793Y-409382D01*
X+2991095Y-409382D01*
X+3148331Y-409381D01*
X+3148331Y-377631D01*
X+3404869Y-377631D01*
X+3404869Y-511349D01*
X+3434079Y-540559D01*
X+3434079Y-1300481D01*
X+3453129Y-1300481D01*
X+3453129Y-1478279D01*
X+3288031Y-1478279D01*
X+3288031Y-1300481D01*
X+3307081Y-1300481D01*
X+3307081Y-593161D01*
X+3282049Y-568129D01*
X+3148331Y-568129D01*
X+3148331Y-536379D01*
X+3017397Y-536378D01*
X+2962060Y-591715D01*
X+2962060Y-626111D01*
X+3117849Y-626111D01*
X+3117849Y-759829D01*
X+3174998Y-816978D01*
X+3174998Y-843280D01*
X+3174999Y-1028701D01*
X+3276599Y-1028701D01*
X+3276599Y-1257299D01*
X+3087001Y-1257299D01*
X+3086099Y-1258201D01*
X+3086099Y-1440181D01*
X+3092449Y-1440181D01*
X+3092449Y-1662431D01*
X+3130551Y-1662431D01*
X+3130551Y-1656081D01*
X+3194051Y-1656081D01*
X+3194051Y-1490981D01*
X+3359149Y-1490981D01*
X+3359149Y-1668779D01*
X+3295649Y-1668779D01*
X+3295649Y-1795779D01*
X+3130551Y-1795779D01*
X+3130551Y-1789429D01*
X+3015349Y-1789429D01*
X+2959101Y-1733181D01*
X+2959101Y-1719579D01*
X+2571751Y-1719579D01*
X+2571751Y-1440181D01*
X+2705101Y-1440181D01*
X+2705101Y-1257299D01*
X+2565401Y-1257299D01*
X+2565401Y-1028701D01*
X+2705101Y-1028701D01*
X+2705101Y-882649D01*
X+2627351Y-882649D01*
X+2627351Y-626111D01*
X+2705101Y-626111D01*
X+2705101Y-311149D01*
X+2673351Y-311149D01*
X+2673351Y-54611D01*
X+2705101Y-54611D01*
X+2705101Y+45721D01*
X+2513889Y+45721D01*
X+2513889Y-105409D01*
X+2318311Y-105409D01*
X+2318311Y+501649D01*
X+2327201Y+501649D01*
X+2327201Y+762297D01*
X+2278387Y+811111D01*
X+2117091Y+811111D01*
X+2117091Y+1098129D01*
X+2404109Y+1098129D01*
X+2404109Y+936833D01*
G37*
G36*
X+3390899Y-30479D02*
X+3340098Y-30479D01*
X+3340099Y-87631D01*
X+3404869Y-87631D01*
X+3404869Y-278129D01*
X+3153849Y-278129D01*
X+3153849Y-311149D01*
X+2963351Y-311149D01*
X+2963351Y-54611D01*
X+3153849Y-54611D01*
X+3153849Y-87631D01*
X+3213101Y-87631D01*
X+3213102Y-30479D01*
X+3162301Y-30479D01*
X+3162301Y+299719D01*
X+3390899Y+299719D01*
X+3390899Y-30479D01*
G37*
G36*
X-8891Y+936833D02*
X+91999Y+835943D01*
X+91999Y+501649D01*
X+100889Y+501649D01*
X+100889Y+226053D01*
X+103423Y+223519D01*
X+292101Y+223519D01*
X+292101Y+299719D01*
X+520699Y+299719D01*
X+520699Y-30479D01*
X+419099Y-30479D01*
X+419099Y-54611D01*
X+450849Y-54611D01*
X+450849Y-311149D01*
X+419099Y-311149D01*
X+419099Y-493871D01*
X+528952Y-384018D01*
X+735331Y-384018D01*
X+735331Y-377631D01*
X+991869Y-377631D01*
X+991869Y-568129D01*
X+927099Y-568129D01*
X+927099Y-1269099D01*
X+958481Y-1300481D01*
X+1040129Y-1300481D01*
X+1040129Y-1478279D01*
X+875031Y-1478279D01*
X+875031Y-1396631D01*
X+800101Y-1321701D01*
X+800101Y-568129D01*
X+735331Y-568129D01*
X+735331Y-511016D01*
X+581554Y-511016D01*
X+510771Y-581799D01*
X+510771Y-1028701D01*
X+546101Y-1028701D01*
X+546101Y-882649D01*
X+514351Y-882649D01*
X+514351Y-626111D01*
X+704849Y-626111D01*
X+704849Y-882649D01*
X+673099Y-882649D01*
X+673099Y-1028701D01*
X+800099Y-1028701D01*
X+800099Y-1257299D01*
X+673099Y-1257299D01*
X+673099Y-1440181D01*
X+679449Y-1440181D01*
X+679449Y-1662431D01*
X+717551Y-1662431D01*
X+717551Y-1656081D01*
X+781051Y-1656081D01*
X+781051Y-1490981D01*
X+946149Y-1490981D01*
X+946149Y-1668779D01*
X+882649Y-1668779D01*
X+882649Y-1795779D01*
X+717551Y-1795779D01*
X+717551Y-1789429D01*
X+602349Y-1789429D01*
X+546101Y-1733181D01*
X+546101Y-1719579D01*
X+158751Y-1719579D01*
X+158751Y-1440181D01*
X+282641Y-1440181D01*
X+238443Y-1395983D01*
X+238443Y-1257299D01*
X+88901Y-1257299D01*
X+88901Y-1028701D01*
X+246101Y-1028701D01*
X+246101Y-882649D01*
X+214351Y-882649D01*
X+214351Y-626111D01*
X+292101Y-626111D01*
X+292101Y-311149D01*
X+260351Y-311149D01*
X+260351Y-54611D01*
X+292101Y-54611D01*
X+292101Y+45721D01*
X+100889Y+45721D01*
X+100889Y-105409D01*
X-94689Y-105409D01*
X-94689Y+501649D01*
X-85799Y+501649D01*
X-85799Y+762297D01*
X-134613Y+811111D01*
X-295909Y+811111D01*
X-295909Y+1098129D01*
X-8891Y+1098129D01*
X-8891Y+936833D01*
G37*
G36*
X+1134109Y-1668779D02*
X+1115059Y-1668779D01*
X+1115059Y-2080721D01*
X+991869Y-2203911D01*
X+991869Y-2337629D01*
X+735331Y-2337629D01*
X+735331Y-2147131D01*
X+869049Y-2147131D01*
X+988061Y-2028119D01*
X+988061Y-1668779D01*
X+969011Y-1668779D01*
X+969011Y-1490981D01*
X+1134109Y-1490981D01*
X+1134109Y-1668779D01*
G37*
G36*
X+977899Y-30479D02*
X+927098Y-30479D01*
X+927099Y-87631D01*
X+991869Y-87631D01*
X+991869Y-278129D01*
X+740849Y-278129D01*
X+740849Y-311149D01*
X+550351Y-311149D01*
X+550351Y-54611D01*
X+740849Y-54611D01*
X+740849Y-87631D01*
X+800101Y-87631D01*
X+800102Y-30479D01*
X+749301Y-30479D01*
X+749301Y+299719D01*
X+977899Y+299719D01*
X+977899Y-30479D01*
G37*
G36*
X-2421891Y+937137D02*
X-2397129Y+912446D01*
X-2321001Y+836318D01*
X-2321001Y+501649D01*
X-2312111Y+501649D01*
X-2312111Y+223519D01*
X-2120899Y+223519D01*
X-2120899Y+299719D01*
X-1892301Y+299719D01*
X-1892301Y-30479D01*
X-1993901Y-30479D01*
X-1993901Y-54611D01*
X-1962151Y-54611D01*
X-1962151Y-311149D01*
X-2039901Y-311149D01*
X-2039901Y-626111D01*
X-2031999Y-626111D01*
X-2031999Y-535476D01*
X-1884367Y-387844D01*
X-1677669Y-387844D01*
X-1677669Y-341631D01*
X-1421131Y-341631D01*
X-1421131Y-532129D01*
X-1485901Y-532129D01*
X-1485901Y-1269099D01*
X-1454519Y-1300481D01*
X-1372871Y-1300481D01*
X-1372871Y-1478279D01*
X-1537969Y-1478279D01*
X-1537969Y-1396631D01*
X-1612899Y-1321701D01*
X-1612899Y-532129D01*
X-1677669Y-532129D01*
X-1677669Y-514842D01*
X-1831765Y-514842D01*
X-1905001Y-588078D01*
X-1905001Y-1028701D01*
X-1866899Y-1028701D01*
X-1866899Y-882649D01*
X-1898649Y-882649D01*
X-1898649Y-626111D01*
X-1708151Y-626111D01*
X-1708151Y-882649D01*
X-1739901Y-882649D01*
X-1739901Y-1028701D01*
X-1612901Y-1028701D01*
X-1612901Y-1257299D01*
X-1739901Y-1257299D01*
X-1739901Y-1440181D01*
X-1733551Y-1440181D01*
X-1733551Y-1662431D01*
X-1695449Y-1662431D01*
X-1695449Y-1656081D01*
X-1631949Y-1656081D01*
X-1631949Y-1490981D01*
X-1466851Y-1490981D01*
X-1466851Y-1668779D01*
X-1530351Y-1668779D01*
X-1530351Y-1795779D01*
X-1695449Y-1795779D01*
X-1695449Y-1789429D01*
X-1810651Y-1789429D01*
X-1866899Y-1733181D01*
X-1866899Y-1719579D01*
X-2254249Y-1719579D01*
X-2254249Y-1440181D01*
X-2125155Y-1440181D01*
X-2222498Y-1342838D01*
X-2222498Y-1257299D01*
X-2324099Y-1257299D01*
X-2324099Y-1028701D01*
X-2166899Y-1028701D01*
X-2166899Y-882649D01*
X-2198649Y-882649D01*
X-2198649Y-626111D01*
X-2166899Y-626111D01*
X-2166899Y-202579D01*
X-2152649Y-188329D01*
X-2152649Y-54611D01*
X-2120899Y-54611D01*
X-2120899Y+45721D01*
X-2312111Y+45721D01*
X-2312111Y-105409D01*
X-2507689Y-105409D01*
X-2507689Y+501649D01*
X-2498799Y+501649D01*
X-2498799Y+762672D01*
X-2522851Y+786724D01*
X-2547353Y+811111D01*
X-2708909Y+811111D01*
X-2708909Y+1098129D01*
X-2421891Y+1098129D01*
X-2421891Y+937137D01*
G37*
G36*
X-1435101Y-30479D02*
X-1485901Y-30479D01*
X-1485901Y-51631D01*
X-1421131Y-51631D01*
X-1421131Y-242129D01*
X-1554849Y-242129D01*
X-1559099Y-246379D01*
X-1672151Y-246379D01*
X-1672151Y-311149D01*
X-1862649Y-311149D01*
X-1862649Y-54611D01*
X-1677669Y-54611D01*
X-1677669Y-51631D01*
X-1612899Y-51631D01*
X-1612899Y-30479D01*
X-1663699Y-30479D01*
X-1663699Y+299719D01*
X-1435101Y+299719D01*
X-1435101Y-30479D01*
G37*
G36*
X+7230109Y+1261111D02*
X+6943091Y+1261111D01*
X+6943091Y+1548129D01*
X+7230109Y+1548129D01*
X+7230109Y+1261111D01*
G37*
G36*
X+2404109Y+1261111D02*
X+2117091Y+1261111D01*
X+2117091Y+1548129D01*
X+2404109Y+1548129D01*
X+2404109Y+1261111D01*
G37*
G36*
X-8891Y+1261111D02*
X-295909Y+1261111D01*
X-295909Y+1548129D01*
X-8891Y+1548129D01*
X-8891Y+1261111D01*
G37*
G36*
X-2421891Y+1261111D02*
X-2708909Y+1261111D01*
X-2708909Y+1548129D01*
X-2421891Y+1548129D01*
X-2421891Y+1261111D01*
G37*
G36*
X-2297151Y-1771649D02*
X-2297151Y-2025649D01*
X-2307151Y-2025649D01*
X-2307151Y-2279649D01*
X-2404464Y-2279649D01*
X-2404464Y-3339578D01*
X-2252935Y-3491107D01*
X-1930399Y-3491107D01*
X-1930399Y-3365499D01*
X-1992701Y-3365499D01*
X-2156899Y-3201302D01*
X-2156899Y-2787649D01*
X-2188649Y-2787649D01*
X-2188649Y-2533649D01*
X-2190751Y-2533649D01*
X-2190751Y-2541269D01*
X-2381249Y-2541269D01*
X-2381249Y-2284731D01*
X-2198649Y-2284731D01*
X-2198649Y-2277111D01*
X-2008151Y-2277111D01*
X-2008151Y-2531111D01*
X-1998151Y-2531111D01*
X-1998151Y-2787649D01*
X-2029901Y-2787649D01*
X-2029901Y-3148699D01*
X-1940099Y-3238501D01*
X-1930399Y-3238501D01*
X-1930399Y-2895601D01*
X-1677301Y-2895601D01*
X-1612899Y-2831199D01*
X-1612899Y-2663629D01*
X-1677669Y-2663629D01*
X-1677669Y-2473131D01*
X-1421131Y-2473131D01*
X-1421131Y-2663629D01*
X-1485901Y-2663629D01*
X-1485901Y-2883802D01*
X-1523099Y-2920999D01*
X-1625601Y-3023501D01*
X-1625601Y-3708399D01*
X-1930399Y-3708399D01*
X-1930399Y-3618105D01*
X-2305537Y-3618105D01*
X-2531462Y-3392180D01*
X-2531462Y-2541269D01*
X-2671249Y-2541269D01*
X-2671249Y-2284731D01*
X-2531462Y-2284731D01*
X-2531462Y-2154642D01*
X-2528200Y-2151380D01*
X-2589207Y-2090373D01*
X-2589207Y-1756150D01*
X-2597151Y-1748206D01*
X-2597151Y-2279649D01*
X-2787649Y-2279649D01*
X-2787649Y-2214879D01*
X-2942151Y-2214879D01*
X-2942151Y-2279649D01*
X-3132649Y-2279649D01*
X-3132649Y-1769111D01*
X-3122649Y-1769111D01*
X-3122649Y-1515111D01*
X-2932151Y-1515111D01*
X-2932151Y-1771649D01*
X-2942151Y-1771649D01*
X-2942151Y-2087881D01*
X-2787649Y-2087881D01*
X-2787649Y-1515111D01*
X-2597151Y-1515111D01*
X-2597151Y-1572693D01*
X-2590834Y-1579010D01*
X-2590834Y-1579881D01*
X-2585876Y-1579881D01*
X-2487649Y-1678108D01*
X-2487649Y-1515111D01*
X-2297151Y-1515111D01*
X-2297151Y-1771649D01*
G37*
G36*
X+6445249Y+1168621D02*
X+6203951Y+1168621D01*
X+6203951Y+1549619D01*
X+6445249Y+1549619D01*
X+6445249Y+1168621D01*
G37*
G36*
X+1619249Y+1168621D02*
X+1377951Y+1168621D01*
X+1377951Y+1549619D01*
X+1619249Y+1549619D01*
X+1619249Y+1168621D01*
G37*
G36*
X-793751Y+1168621D02*
X-1035049Y+1168621D01*
X-1035049Y+1549619D01*
X-793751Y+1549619D01*
X-793751Y+1168621D01*
G37*
G36*
X-3206751Y+1168621D02*
X-3448049Y+1168621D01*
X-3448049Y+1549619D01*
X-3206751Y+1549619D01*
X-3206751Y+1168621D01*
G37*
G36*
X+2084351Y-689611D02*
X+2274849Y-689611D01*
X+2274849Y-946149D01*
X+2084351Y-946149D01*
X+2084351Y-689611D01*
G37*
G36*
X-3911601Y-38099D02*
X-3937001Y-38099D01*
X-3937001Y-95251D01*
X-3872231Y-95251D01*
X-3872231Y-285749D01*
X-4123251Y-285749D01*
X-4123251Y-318769D01*
X-4313749Y-318769D01*
X-4313749Y-62231D01*
X-4123251Y-62231D01*
X-4123251Y-95251D01*
X-4063999Y-95251D01*
X-4063999Y-38099D01*
X-4140199Y-38099D01*
X-4140199Y+292099D01*
X-3911601Y+292099D01*
X-3911601Y-38099D01*
G37*
G36*
X-4936491Y+970863D02*
X-4930880Y+963007D01*
X-4800601Y+832728D01*
X-4800601Y+494029D01*
X-4791711Y+494029D01*
X-4791711Y+218433D01*
X-4789177Y+215899D01*
X-4597399Y+215899D01*
X-4597399Y+292099D01*
X-4368801Y+292099D01*
X-4368801Y-38099D01*
X-4419601Y-38099D01*
X-4419601Y-62231D01*
X-4413251Y-62231D01*
X-4413251Y-318769D01*
X-4427501Y-318769D01*
X-4427501Y-633731D01*
X-4395751Y-633731D01*
X-4395751Y-890269D01*
X-4417502Y-890269D01*
X-4417502Y-1042811D01*
X-4395609Y-1042811D01*
X-4395609Y-540103D01*
X-4272507Y-417001D01*
X-4128769Y-417001D01*
X-4128769Y-385251D01*
X-3872231Y-385251D01*
X-3872231Y-575749D01*
X-3873501Y-575749D01*
X-3873501Y-1213219D01*
X-3842119Y-1244601D01*
X-3760471Y-1244601D01*
X-3760471Y-1422399D01*
X-3925569Y-1422399D01*
X-3925569Y-1340751D01*
X-3994911Y-1271409D01*
X-4078111Y-1271409D01*
X-4078111Y-1613801D01*
X-4115309Y-1650999D01*
X-4121151Y-1650999D01*
X-4121151Y-1651001D01*
X-4083049Y-1651001D01*
X-4083049Y-1644651D01*
X-3917951Y-1644651D01*
X-3917951Y-1784349D01*
X-4083049Y-1784349D01*
X-4083049Y-1777999D01*
X-4222551Y-1777999D01*
X-4260413Y-1740137D01*
X-4260413Y-1727199D01*
X-4641849Y-1727199D01*
X-4641849Y-1447801D01*
X-4508499Y-1447801D01*
X-4508499Y-1271409D01*
X-4687709Y-1271409D01*
X-4687709Y-1042811D01*
X-4544498Y-1042811D01*
X-4544498Y-890269D01*
X-4586249Y-890269D01*
X-4586249Y-633731D01*
X-4554499Y-633731D01*
X-4554499Y-318769D01*
X-4603749Y-318769D01*
X-4603749Y-62231D01*
X-4546599Y-62231D01*
X-4546599Y-38099D01*
X-4597399Y-38099D01*
X-4597399Y+38101D01*
X-4791711Y+38101D01*
X-4791711Y-113029D01*
X-4987289Y-113029D01*
X-4987289Y+494029D01*
X-4978399Y+494029D01*
X-4978399Y+759082D01*
X-5065586Y+846269D01*
X-5082389Y+866991D01*
X-5223509Y+866991D01*
X-5223509Y+1154009D01*
X-4936491Y+1154009D01*
X-4936491Y+970863D01*
G37*
G36*
X-4936491Y+1316991D02*
X-5223509Y+1316991D01*
X-5223509Y+1604009D01*
X-4936491Y+1604009D01*
X-4936491Y+1316991D01*
G37*
G36*
X-3666491Y-1612899D02*
X-3685541Y-1612899D01*
X-3685541Y-2034766D01*
X-3722739Y-2071963D01*
X-3808731Y-2157955D01*
X-3808731Y-2345249D01*
X-4065269Y-2345249D01*
X-4065269Y-2154751D01*
X-3985128Y-2154751D01*
X-3963301Y-2132925D01*
X-3812539Y-1982163D01*
X-3812539Y-1612899D01*
X-3831589Y-1612899D01*
X-3831589Y-1435101D01*
X-3666491Y-1435101D01*
X-3666491Y-1612899D01*
G37*
G36*
X-3854451Y-1612899D02*
X-4019549Y-1612899D01*
X-4019549Y-1435101D01*
X-3854451Y-1435101D01*
X-3854451Y-1612899D01*
G37*
G36*
X-5784851Y+1224501D02*
X-6026149Y+1224501D01*
X-6026149Y+1605499D01*
X-5784851Y+1605499D01*
X-5784851Y+1224501D01*
G37*
G36*
X-7340599Y+2239404D02*
X-7340599Y+2586596D01*
X-7095096Y+2832099D01*
X-6747904Y+2832099D01*
X-6502401Y+2586596D01*
X-6502401Y+2239404D01*
X-6747904Y+1993901D01*
X-7095096Y+1993901D01*
X-7340599Y+2239404D01*
G37*
G36*
X+7581901Y+2239404D02*
X+7581901Y+2586596D01*
X+7827404Y+2832099D01*
X+8174596Y+2832099D01*
X+8420099Y+2586596D01*
X+8420099Y+2239404D01*
X+8174596Y+1993901D01*
X+7827404Y+1993901D01*
X+7581901Y+2239404D01*
G37*
G36*
X+7581901Y-3920096D02*
X+7581901Y-3572904D01*
X+7827404Y-3327401D01*
X+8174596Y-3327401D01*
X+8420099Y-3572904D01*
X+8420099Y-3920096D01*
X+8174596Y-4165599D01*
X+7827404Y-4165599D01*
X+7581901Y-3920096D01*
G37*
G36*
X-4800599Y+1836614D02*
X-4800599Y+1973386D01*
X-4703886Y+2070099D01*
X-4567114Y+2070099D01*
X-4470401Y+1973386D01*
X-4470401Y+1836614D01*
X-4567114Y+1739901D01*
X-4703886Y+1739901D01*
X-4800599Y+1836614D01*
G37*
G36*
X-3022600Y+1571718D02*
X-3022600Y+1603282D01*
X-3000282Y+1625600D01*
X-2968718Y+1625600D01*
X-2946400Y+1603282D01*
X-2946400Y+1571718D01*
X-2968718Y+1549400D01*
X-3000282Y+1549400D01*
X-3022600Y+1571718D01*
G37*
G36*
X-609600Y+1635218D02*
X-609600Y+1666782D01*
X-587282Y+1689100D01*
X-555718Y+1689100D01*
X-533400Y+1666782D01*
X-533400Y+1635218D01*
X-555718Y+1612900D01*
X-587282Y+1612900D01*
X-609600Y+1635218D01*
G37*
G36*
X+1676400Y+1635218D02*
X+1676400Y+1666782D01*
X+1698718Y+1689100D01*
X+1730282Y+1689100D01*
X+1752600Y+1666782D01*
X+1752600Y+1635218D01*
X+1730282Y+1612900D01*
X+1698718Y+1612900D01*
X+1676400Y+1635218D01*
G37*
G36*
X+6399056Y+1691247D02*
X+6399056Y+1722811D01*
X+6421374Y+1745129D01*
X+6452938Y+1745129D01*
X+6475256Y+1722811D01*
X+6475256Y+1691247D01*
X+6452938Y+1668929D01*
X+6421374Y+1668929D01*
X+6399056Y+1691247D01*
G37*
G36*
X-4673600Y-2492282D02*
X-4673600Y-2460718D01*
X-4651282Y-2438400D01*
X-4619718Y-2438400D01*
X-4597400Y-2460718D01*
X-4597400Y-2492282D01*
X-4619718Y-2514600D01*
X-4651282Y-2514600D01*
X-4673600Y-2492282D01*
G37*
G36*
X-5432660Y+702904D02*
X-5432660Y+734468D01*
X-5410342Y+756786D01*
X-5378778Y+756786D01*
X-5356460Y+734468D01*
X-5356460Y+702904D01*
X-5378778Y+680586D01*
X-5410342Y+680586D01*
X-5432660Y+702904D01*
G37*
%LPD*%
G36*
X+5359401Y+2391584D02*
X+5359401Y+1926416D01*
X+5372101Y+1913716D01*
X+5372101Y+1212849D01*
X+5073651Y+1212849D01*
X+5073651Y+438151D01*
X+5848349Y+438151D01*
X+5848349Y+1212849D01*
X+5549899Y+1212849D01*
X+5549899Y+1866901D01*
X+5682535Y+1866901D01*
X+5720635Y+1828801D01*
X+5836365Y+1828801D01*
X+5889127Y+1881563D01*
X+5889127Y+342371D01*
X+6116321Y+115177D01*
X+6116321Y-67709D01*
X+6324601Y-67709D01*
X+6324601Y-214631D01*
X+6259831Y-214631D01*
X+6259831Y-405129D01*
X+6611549Y-405129D01*
X+6721051Y-514631D01*
X+6516369Y-514631D01*
X+6516369Y-504631D01*
X+6259831Y-504631D01*
X+6259831Y-695129D01*
X+6461980Y-695129D01*
X+6461980Y-771735D01*
X+6358151Y-875564D01*
X+6358151Y-1111251D01*
X+6288301Y-1111251D01*
X+6288301Y-1420549D01*
X+6358151Y-1420549D01*
X+6358152Y-1515111D01*
X+6292851Y-1515111D01*
X+6292851Y-1771649D01*
X+6310351Y-1771649D01*
X+6310351Y-2025649D01*
X+6320351Y-2025649D01*
X+6320351Y-2279649D01*
X+6506672Y-2279649D01*
X+6506672Y-2596724D01*
X+6486349Y-2617047D01*
X+6174110Y-2617047D01*
X+5968999Y-2822157D01*
X+5968999Y-2248801D01*
X+6020701Y-2197099D01*
X+6074584Y-2197099D01*
X+6134099Y-2137584D01*
X+6134099Y-2053416D01*
X+6074584Y-1993901D01*
X+5990416Y-1993901D01*
X+5941059Y-2043258D01*
X+5941059Y-1668779D01*
X+5960109Y-1668779D01*
X+5960109Y-1490981D01*
X+5795011Y-1490981D01*
X+5795011Y-1668779D01*
X+5814061Y-1668779D01*
X+5814061Y-2028119D01*
X+5695049Y-2147131D01*
X+5561331Y-2147131D01*
X+5561331Y-2337629D01*
X+5817869Y-2337629D01*
X+5817869Y-2203911D01*
X+5930901Y-2090879D01*
X+5930901Y-2107299D01*
X+5842001Y-2196198D01*
X+5842001Y-2341881D01*
X+5530849Y-2341881D01*
X+5530849Y-2277111D01*
X+5499099Y-2277111D01*
X+5499099Y-2240279D01*
X+5505449Y-2240279D01*
X+5505449Y-2024379D01*
X+5543551Y-2024379D01*
X+5543551Y-2030729D01*
X+5708649Y-2030729D01*
X+5708649Y-1891031D01*
X+5543551Y-1891031D01*
X+5543551Y-1897381D01*
X+5442632Y-1897381D01*
X+5379132Y-1960881D01*
X+4984751Y-1960881D01*
X+4984751Y-2240279D01*
X+5245101Y-2240279D01*
X+5245101Y-2667901D01*
X+5307699Y-2730499D01*
X+5340351Y-2730499D01*
X+5340351Y-2787649D01*
X+5530849Y-2787649D01*
X+5530849Y-2468879D01*
X+5561331Y-2468879D01*
X+5561331Y-2627629D01*
X+5651502Y-2627629D01*
X+5651501Y-2831199D01*
X+5587099Y-2895601D01*
X+5308601Y-2895601D01*
X+5308601Y-3184701D01*
X+5209099Y-3085199D01*
X+5209099Y-2787649D01*
X+5240849Y-2787649D01*
X+5240849Y-2531111D01*
X+5230849Y-2531111D01*
X+5230849Y-2277111D01*
X+5040351Y-2277111D01*
X+5040351Y-2284731D01*
X+4857751Y-2284731D01*
X+4857751Y-2396760D01*
X+4847690Y-2386699D01*
X+4847690Y-2279649D01*
X+4959349Y-2279649D01*
X+4959349Y-1515111D01*
X+4768851Y-1515111D01*
X+4768851Y-1654554D01*
X+4694178Y-1579881D01*
X+4659349Y-1579881D01*
X+4659349Y-1515111D01*
X+4468851Y-1515111D01*
X+4468851Y-2025649D01*
X+4478851Y-2025649D01*
X+4478851Y-2087881D01*
X+4296849Y-2087881D01*
X+4296849Y-1771649D01*
X+4306849Y-1771649D01*
X+4306849Y-1515111D01*
X+4152899Y-1515111D01*
X+4152899Y-1001381D01*
X+4208131Y-946149D01*
X+4332177Y-946149D01*
X+4284451Y-993875D01*
X+4284451Y-1119451D01*
X+4214601Y-1119451D01*
X+4214601Y-1428749D01*
X+4468599Y-1428749D01*
X+4468599Y-1119451D01*
X+4398749Y-1119451D01*
X+4398749Y-1041217D01*
X+4476749Y-963217D01*
X+4476749Y-946149D01*
X+4641849Y-946149D01*
X+4641849Y-705129D01*
X+4801869Y-705129D01*
X+4801869Y-514631D01*
X+4714151Y-514631D01*
X+4604649Y-405129D01*
X+4801869Y-405129D01*
X+4801869Y-214631D01*
X+4483099Y-214631D01*
X+4483099Y+134184D01*
X+4355664Y+261619D01*
X+4326889Y+261619D01*
X+4326889Y+501649D01*
X+4317999Y+501649D01*
X+4317999Y+615943D01*
X+4202423Y+731519D01*
X+4119879Y+731519D01*
X+4119879Y+742949D01*
X+4032249Y+742949D01*
X+4032249Y+1105119D01*
X+3790951Y+1105119D01*
X+3790951Y+742949D01*
X+3703321Y+742949D01*
X+3703321Y+542291D01*
X+4119879Y+542291D01*
X+4119879Y+553721D01*
X+4128777Y+553721D01*
X+4140201Y+542297D01*
X+4140201Y+501649D01*
X+4131311Y+501649D01*
X+4131311Y-105409D01*
X+4326889Y-105409D01*
X+4326889Y+110794D01*
X+4356101Y+81582D01*
X+4356101Y-214631D01*
X+3975099Y-214631D01*
X+3975099Y-67709D01*
X+4119879Y-67709D01*
X+4119879Y+132949D01*
X+3936993Y+132949D01*
X+3631006Y+438936D01*
X+3631006Y+1917784D01*
X+3783323Y+2070101D01*
X+4294130Y+2070101D01*
X+4392523Y+1971708D01*
X+4330701Y+1909886D01*
X+4330701Y+1773114D01*
X+4427414Y+1676401D01*
X+4564186Y+1676401D01*
X+4660899Y+1773114D01*
X+4660899Y+1909886D01*
X+4584699Y+1986086D01*
X+4584699Y+2030976D01*
X+4367776Y+2247899D01*
X+3709677Y+2247899D01*
X+3505199Y+2043421D01*
X+3505199Y+2153365D01*
X+3423365Y+2235199D01*
X+3352799Y+2235199D01*
X+3352799Y+2487495D01*
X+5359401Y+2487495D01*
X+5359401Y+2391584D01*
G37*
%LPC*%
G36*
X+4787901Y+1773114D02*
X+4787901Y+1909886D01*
X+4884614Y+2006599D01*
X+5021386Y+2006599D01*
X+5118099Y+1909886D01*
X+5118099Y+1773114D01*
X+5021386Y+1676401D01*
X+4884614Y+1676401D01*
X+4787901Y+1773114D01*
G37*
G36*
X+4817109Y+936833D02*
X+4917999Y+835943D01*
X+4917999Y+501649D01*
X+4926889Y+501649D01*
X+4926889Y+226053D01*
X+4929423Y+223519D01*
X+5118101Y+223519D01*
X+5118101Y+299719D01*
X+5346699Y+299719D01*
X+5346699Y+8889D01*
X+5530849Y+8889D01*
X+5530849Y-55881D01*
X+5561331Y-55881D01*
X+5561331Y-24131D01*
X+5575301Y-24131D01*
X+5575301Y+299719D01*
X+5803899Y+299719D01*
X+5803899Y-24131D01*
X+5817869Y-24131D01*
X+5817869Y-214629D01*
X+5561331Y-214629D01*
X+5561331Y-182879D01*
X+5530849Y-182879D01*
X+5530849Y-247649D01*
X+5340351Y-247649D01*
X+5340351Y-30479D01*
X+5245099Y-30479D01*
X+5245099Y-438994D01*
X+5336178Y-347915D01*
X+5561331Y-347915D01*
X+5561331Y-314131D01*
X+5817869Y-314131D01*
X+5817869Y-447849D01*
X+5847079Y-477059D01*
X+5847079Y-1300481D01*
X+5866129Y-1300481D01*
X+5866129Y-1478279D01*
X+5701031Y-1478279D01*
X+5701031Y-1300481D01*
X+5720081Y-1300481D01*
X+5720081Y-529661D01*
X+5695049Y-504629D01*
X+5561331Y-504629D01*
X+5561331Y-474913D01*
X+5388780Y-474913D01*
X+5333999Y-529694D01*
X+5333999Y-1028701D01*
X+5397501Y-1028701D01*
X+5397501Y-882649D01*
X+5340351Y-882649D01*
X+5340351Y-626111D01*
X+5530849Y-626111D01*
X+5530849Y-882649D01*
X+5524499Y-882649D01*
X+5524499Y-1028701D01*
X+5626099Y-1028701D01*
X+5626099Y-1257299D01*
X+5524499Y-1257299D01*
X+5524499Y-1606181D01*
X+5505765Y-1624915D01*
X+5505765Y-1662432D01*
X+5543551Y-1662432D01*
X+5543551Y-1656081D01*
X+5607051Y-1656081D01*
X+5607051Y-1490981D01*
X+5772149Y-1490981D01*
X+5772149Y-1668779D01*
X+5708649Y-1668779D01*
X+5708649Y-1795779D01*
X+5543551Y-1795779D01*
X+5543551Y-1789428D01*
X+5447680Y-1789428D01*
X+5378767Y-1720515D01*
X+5378767Y-1719579D01*
X+4984751Y-1719579D01*
X+4984751Y-1440181D01*
X+5118101Y-1440181D01*
X+5118101Y-1407024D01*
X+5051984Y-1340907D01*
X+5051984Y-1257299D01*
X+4914901Y-1257299D01*
X+4914901Y-1028701D01*
X+5016501Y-1028701D01*
X+5016501Y-783679D01*
X+5040351Y-759829D01*
X+5040351Y-626111D01*
X+5118101Y-626111D01*
X+5118101Y-247649D01*
X+5050351Y-247649D01*
X+5050351Y+8889D01*
X+5118101Y+8889D01*
X+5118101Y+45721D01*
X+4926889Y+45721D01*
X+4926889Y-105409D01*
X+4731311Y-105409D01*
X+4731311Y+501649D01*
X+4740201Y+501649D01*
X+4740201Y+762297D01*
X+4691387Y+811111D01*
X+4530091Y+811111D01*
X+4530091Y+1098129D01*
X+4817109Y+1098129D01*
X+4817109Y+936833D01*
G37*
G36*
X+4817109Y+1261111D02*
X+4530091Y+1261111D01*
X+4530091Y+1548129D01*
X+4817109Y+1548129D01*
X+4817109Y+1261111D01*
G37*
G36*
X+4032249Y+1168621D02*
X+3790951Y+1168621D01*
X+3790951Y+1549619D01*
X+4032249Y+1549619D01*
X+4032249Y+1168621D01*
G37*
G36*
X+4096246Y+1629227D02*
X+4096246Y+1660791D01*
X+4118564Y+1683109D01*
X+4150128Y+1683109D01*
X+4172446Y+1660791D01*
X+4172446Y+1629227D01*
X+4150128Y+1606909D01*
X+4118564Y+1606909D01*
X+4096246Y+1629227D01*
G37*
%LPD*%
G36*
X+7463351Y-2787649D02*
X+7495101Y-2787649D01*
X+7495101Y-2956099D01*
X+7264399Y-3186801D01*
X+7264399Y-2895601D01*
X+6977903Y-2895601D01*
X+7310505Y-2562999D01*
X+7310505Y-2541269D01*
X+7461249Y-2541269D01*
X+7461249Y-2533649D01*
X+7463351Y-2533649D01*
X+7463351Y-2787649D01*
G37*
G36*
X+5050351Y-2787649D02*
X+5082101Y-2787649D01*
X+5082101Y-3137802D01*
X+5119299Y-3174999D01*
X+5308601Y-3364301D01*
X+5308601Y-3492501D01*
X+4979301Y-3492501D01*
X+4889499Y-3402699D01*
X+4889499Y-2541269D01*
X+5048249Y-2541269D01*
X+5048249Y-2533649D01*
X+5050351Y-2533649D01*
X+5050351Y-2787649D01*
G37*
D11*
X-2409900Y+198120D02*
X-2409900Y+799495D01*
X-2459990Y+849585D01*
X-2565400Y+954620D01*
X-2006600Y+134620D02*
X-2370717Y+134620D01*
X-2401897Y+165800D01*
X-2409900Y+198120D01*
X-3009900Y+198120D02*
X-3009900Y+579120D01*
X-3073400Y+642620D01*
X-3327400Y+642620D01*
X-3327400Y+914620D01*
X+3100Y+198120D02*
X+3100Y+799120D01*
X-152400Y+954620D01*
X-914400Y+642620D02*
X-914400Y+914620D01*
X-596900Y+198120D02*
X-596900Y+579120D01*
X-660400Y+642620D01*
X-872385Y+642620D01*
X-876606Y+638399D01*
X-914400Y+642620D01*
X+2819400Y+134620D02*
X+2479600Y+134620D01*
X+2416100Y+198120D01*
X+2416100Y+799120D01*
X+2260600Y+954620D01*
X+1816100Y+198120D02*
X+1816100Y+579120D01*
X+1752600Y+642620D01*
X+1538849Y+642620D01*
X+1533895Y+637666D01*
X+1498600Y+642620D01*
X+1498600Y+914620D02*
X+1498600Y+642620D01*
X+7305600Y+198120D02*
X+7305600Y+735620D01*
X+7086600Y+954620D01*
X+7645400Y+134620D02*
X+7369100Y+134620D01*
X+7305600Y+198120D01*
X+6324600Y+642620D02*
X+6324600Y+914620D01*
X+6705600Y+198120D02*
X+6705600Y+515620D01*
X+6578600Y+642620D01*
X+6324600Y+642620D01*
X+5232400Y+134620D02*
X+4892600Y+134620D01*
X+4829100Y+198120D01*
X+4829100Y+799120D01*
X+4673600Y+954620D01*
X+3911600Y+914620D02*
X+3911600Y+642620D01*
X+4229100Y+198120D02*
X+4229100Y+579120D01*
X+4165600Y+642620D01*
X+3911600Y+642620D01*
D10*
X-2565400Y-263880D02*
X-2565400Y-182880D01*
X-2628900Y-119380D01*
X-2692400Y-55880D01*
X-2692400Y+325120D01*
X-2692400Y+642620D01*
X-2882900Y+833120D01*
X-2882900Y+1404620D01*
X-2819400Y-273880D02*
X-2565400Y-527880D01*
X-2565400Y-563880D01*
X-3073400Y-263880D02*
X-2819400Y-517880D01*
X-2819400Y-563880D01*
X-3327400Y-273880D02*
X-3327400Y+32620D01*
X-2819400Y-273880D02*
X-2819400Y+7620D01*
X-3009900Y+198120D01*
X-3327400Y-1643380D02*
X-3327400Y-1897380D01*
X-3327400Y-2151380D01*
X-3037400Y-1897380D02*
X-3037400Y-1653380D01*
X-3027400Y-1643380D01*
X-2374900Y-754380D02*
X-2374900Y-334797D01*
X-2449995Y-259702D01*
X-2561222Y-259702D01*
X-2565400Y-263880D01*
X-2806700Y-1262380D02*
X-2374900Y-1262380D01*
X-2374900Y-1625880D01*
X-2392400Y-1643380D01*
X-2692400Y-817880D02*
X-2374900Y-817880D01*
X-2374900Y-1262380D02*
X-2374900Y-817880D01*
X-2374900Y-754380D01*
X-2692400Y-2151380D02*
X-2692400Y-1897380D01*
X-3037400Y-2151380D02*
X-2692400Y-2151380D01*
X-2184400Y-2100580D02*
X-2184400Y-2405380D01*
X-2103400Y-2405380D01*
X-1930400Y-2100580D02*
X-1930400Y-2627244D01*
X-1898592Y-2659052D01*
X-1803728Y-2659052D01*
X-1803400Y-2659380D01*
X-1803400Y-2405380D02*
X-1803400Y-2100580D01*
X-1803400Y-2024380D01*
X-1739900Y-1960880D01*
X-1612900Y-1960880D01*
X-1361440Y-1579880D02*
X-1361440Y-2090420D01*
X-1549400Y-2278380D01*
X-2392400Y-1833880D02*
X-2392400Y-1897380D01*
X-2392400Y-1833880D02*
X-2392400Y-1643380D01*
X-2184400Y-2100580D02*
X-2184400Y-1833431D01*
X-1549400Y-1579880D02*
X-1485900Y-1643380D01*
X-1485900Y-1706880D01*
X-1485900Y-1812443D01*
X-1506888Y-1833431D01*
X-2184400Y-1833431D01*
X-2391951Y-1833431D01*
X-2392400Y-1833880D01*
X-2057400Y-182880D02*
X-2057400Y-144753D01*
X-2057400Y+83820D01*
X-2006600Y+134620D01*
X-1803400Y-1643380D02*
X-1803400Y-1579880D01*
X-1612900Y-1725930D02*
X-1784350Y-1725930D01*
X-1803400Y-1706880D01*
X-1803400Y-1643380D01*
X-1767400Y-182880D02*
X-1585400Y-182880D01*
X-1549400Y-146880D01*
X-1549400Y+134620D01*
X-1549400Y-436880D02*
X-1549400Y-1295400D01*
X-1455420Y-1389380D01*
X-914400Y-2151380D02*
X-914400Y-1897380D01*
X-614400Y-1897380D02*
X-614400Y-1653380D01*
X-624400Y-1643380D01*
X-914400Y-599880D02*
X-670400Y-599880D01*
X-660400Y-609880D01*
X-914400Y-309880D02*
X-914400Y+32620D01*
X-406400Y-309880D02*
X-152400Y-563880D01*
X-152400Y-609880D01*
X-152400Y-309880D02*
X-152400Y-182880D01*
X-215900Y-119380D01*
X-287922Y-47358D01*
X-287922Y+651142D01*
X-406400Y+769620D01*
X-498191Y+861411D01*
X-498191Y+1404620D01*
D11*
X-152400Y+1404620D01*
D10*
X-406400Y-309880D02*
X-406400Y+7620D01*
X-596900Y+198120D01*
X-233400Y-817880D02*
X+38100Y-817880D01*
X+38100Y-500380D01*
X-152400Y-309880D01*
X+20600Y-1897380D02*
X+20600Y-1643380D01*
X+38100Y-1262380D02*
X+38100Y-1625880D01*
X+20600Y-1643380D01*
X-393700Y-1262380D02*
X+38100Y-1262380D01*
X+38100Y-817880D01*
X+228600Y-2100580D02*
X+228600Y-1833880D01*
X+863600Y-1579880D02*
X+927100Y-1643380D01*
X+927100Y-1833880D01*
X+228600Y-1833880D01*
X+77750Y-1833880D01*
X+20600Y-1897380D01*
X+1051560Y-1579880D02*
X+1051560Y-2054420D01*
X+863600Y-2242380D01*
X+800100Y-1725930D02*
X+628650Y-1725930D01*
X+609600Y-1706880D01*
X+609600Y-1579880D01*
X+355600Y-182880D02*
X+355600Y+116926D01*
X+373294Y+134620D01*
X+406400Y+134620D01*
D11*
X+373294Y+134620D02*
X+66600Y+134620D01*
X+3100Y+198120D01*
D10*
X+645600Y-182880D02*
X+863600Y-182880D01*
X+863600Y+134620D01*
X+863600Y-472880D02*
X+863600Y-1295400D01*
X+957580Y-1389380D01*
X+309600Y-754380D02*
X+355600Y-754380D01*
X+355600Y-182880D01*
X+482600Y-2100580D02*
X+482600Y-2634450D01*
X+506118Y-2657968D01*
X+608188Y-2657968D01*
X+609600Y-2659380D01*
X+609600Y-2405380D02*
X+609600Y-2142112D01*
X+609600Y-2100580D01*
X+800100Y-1960880D02*
X+626553Y-1960880D01*
X+609880Y-1977553D01*
X+609880Y-2141832D01*
X+609600Y-2142112D01*
X+608476Y-2143236D01*
X+609600Y-2100580D01*
X+228600Y-2100580D02*
X+228600Y-2405380D01*
X+309600Y-2405380D01*
X-624400Y-2151380D02*
X-279400Y-2151380D01*
X-279400Y-1897380D01*
X+3022600Y-2405380D02*
X+3022600Y-2100580D01*
X+2895600Y-2100580D02*
X+2895600Y-2629553D01*
X+2925427Y-2659380D01*
X+3022600Y-2659380D01*
X+1788600Y-2151380D02*
X+2070100Y-2151380D01*
X+2070100Y-1897380D01*
X+1498600Y-2151380D02*
X+1498600Y-1897380D01*
X+1498600Y-1643380D01*
X+1788600Y-1643380D02*
X+1788600Y-1887380D01*
X+1798600Y-1897380D01*
X+2370100Y-1643380D02*
X+2370100Y-1897380D01*
X+2070100Y-1643380D02*
X+2159858Y-1643380D01*
X+2214411Y-1697933D01*
X+2214411Y-2089694D01*
X+2271812Y-2147095D01*
X+2355815Y-2147095D01*
X+2360100Y-2151380D01*
X+2179600Y-817880D02*
X+2451100Y-817880D01*
X+2451100Y-454380D01*
X+2260600Y-263880D01*
X+2451100Y-1144337D02*
X+2451100Y-817880D01*
X+2006600Y-563880D02*
X+2006600Y-517880D01*
X+1752600Y-263880D01*
X+2006600Y-273880D02*
X+2260600Y-527880D01*
X+2260600Y-563880D01*
X+1498600Y-273880D02*
X+1498600Y+32620D01*
X+2006600Y-273880D02*
X+2006600Y+7620D01*
X+1816100Y+198120D01*
X+2260600Y-263880D02*
X+2260600Y-129650D01*
X+2201728Y-70778D01*
X+2201728Y+488196D01*
X+1922115Y+767809D01*
X+1922115Y+1398107D01*
X+1928628Y+1404620D01*
D11*
X+2260600Y+1404620D01*
D10*
X+3058600Y-182880D02*
X+3276600Y-182880D01*
X+3276600Y+134620D01*
X+2768600Y-182880D02*
X+2768600Y+83820D01*
X+2819400Y+134620D01*
X+2722600Y-754380D02*
X+2754277Y-754380D01*
X+2768600Y-768703D01*
X+3370580Y-1389380D02*
X+3370580Y-566860D01*
X+3276600Y-472880D01*
X+3213100Y-1725930D02*
X+3041650Y-1725930D01*
X+3022600Y-1706880D01*
X+3022600Y-1579880D01*
X+3213100Y-1960880D02*
X+3060749Y-1960880D01*
X+3022649Y-1998980D01*
X+3022600Y-2100580D01*
X+3464560Y-1579880D02*
X+3464560Y-2090420D01*
X+3276600Y-2278380D01*
X+2641600Y-2100580D02*
X+2641600Y-1833880D01*
X+3276600Y-1579880D02*
X+3340100Y-1643380D01*
X+3340100Y-1833880D01*
X+2641600Y-1833880D01*
X+2427250Y-1833880D01*
X+2370100Y-1897380D01*
X+2641600Y-2100580D02*
X+2641600Y-2391269D01*
X+2655711Y-2405380D01*
X+2722600Y-2405380D02*
X+2655711Y-2405380D01*
X+2019300Y-1262380D02*
X+2451100Y-1262380D01*
X+2370100Y-1643380D02*
X+2370100Y-1470380D01*
X+2451100Y-1389380D01*
X+2451100Y-1262380D01*
X+2451100Y-1144337D01*
X+3911600Y-2151380D02*
X+3911600Y-1897380D01*
X+3911600Y-1643380D01*
X+4201600Y-1897380D02*
X+4201600Y-1653380D01*
X+4211600Y-1643380D01*
X+4864100Y-1897380D02*
X+4864100Y-1643380D01*
X+4546600Y-817880D02*
X+4864100Y-817880D01*
X+4864100Y-373380D01*
X+4800600Y-309880D01*
X+4714377Y-309880D01*
X+4711322Y-306825D01*
X+4673600Y-309880D01*
X+4864100Y-1643380D02*
X+4864100Y-1262380D01*
X+4864100Y-817880D01*
X+4574100Y-2151380D02*
X+4574100Y-1907380D01*
X+4564100Y-1897380D01*
X+4201600Y-2151380D02*
X+4574100Y-2151380D01*
X+5054600Y-2100580D02*
X+5054600Y-2405380D01*
X+5135600Y-2405380D01*
X+5626100Y-1960880D02*
X+5468933Y-1960880D01*
X+5431156Y-1998657D01*
X+5431156Y-2096136D01*
X+5435600Y-2100580D01*
X+5626100Y-1725930D02*
X+5473982Y-1725930D01*
X+5442266Y-1694214D01*
X+5442266Y-1586546D01*
X+5435600Y-1579880D01*
X+5145600Y-119380D02*
X+5168231Y-119380D01*
X+5181600Y-132749D01*
X+5181600Y+52180D01*
X+5219478Y+90058D01*
X+5232400Y+134620D01*
X+5135600Y-754380D02*
X+5181600Y-754380D01*
X+5181600Y-132749D01*
X+3911600Y-309880D02*
X+3911600Y+32620D01*
X+4165600Y-309880D02*
X+4419600Y-563880D01*
X+4419600Y-599880D01*
X+4419600Y-309880D02*
X+4673600Y-563880D01*
X+4673600Y-609880D01*
X+4419600Y-309880D02*
X+4419600Y+107883D01*
X+4330478Y+197005D01*
X+4329363Y+198120D01*
X+4229100Y+198120D01*
X+5054600Y-2100580D02*
X+5054600Y-1842839D01*
X+5045641Y-1833880D01*
X+5689600Y-1579880D02*
X+5753100Y-1643380D01*
X+5753100Y-1833880D01*
X+5045641Y-1833880D01*
X+4921250Y-1833880D01*
X+4864100Y-1897380D01*
X+5435600Y-2100580D02*
X+5435600Y-2405380D01*
X+5877560Y-1579880D02*
X+5877560Y-2054420D01*
X+5689600Y-2242380D01*
X+5783580Y-1389380D02*
X+5783580Y-503360D01*
X+5689600Y-409380D01*
X+5689600Y-119380D02*
X+5435600Y-119380D01*
X+5689600Y+134620D02*
X+5689600Y-119380D01*
X+6388100Y-309880D02*
X+6388100Y-30880D01*
X+6324600Y+32620D01*
X+6896100Y-309880D02*
X+7150100Y-563880D01*
X+7150100Y-609880D01*
X+6896100Y-599880D02*
X+6642100Y-345880D01*
X+6642100Y-309880D01*
X+6896100Y-309880D02*
X+6896100Y+109757D01*
X+6806506Y+199351D01*
X+6706831Y+199351D01*
X+6705600Y+198120D01*
X+7150100Y-309880D02*
X+7150100Y+425241D01*
X+6778507Y+796834D01*
X+6778507Y+1373262D01*
X+6747149Y+1404620D01*
X+4673600Y-309880D02*
X+4673600Y-217586D01*
X+4621728Y-165714D01*
X+4621728Y+532375D01*
X+4308522Y+845581D01*
X+4308522Y+1404620D01*
D11*
X+4673600Y+1404620D02*
X+4308522Y+1404620D01*
D10*
X+7594600Y-119380D02*
X+7594600Y+83820D01*
X+7645400Y+134620D01*
X+7884600Y-119380D02*
X+8102600Y-119380D01*
X+8102600Y+134620D01*
X+8196580Y-1389380D02*
X+8196580Y-503360D01*
X+8159750Y-466530D01*
X+8102600Y-409380D01*
X+8039100Y-1725930D02*
X+7874407Y-1725930D01*
X+7847891Y-1699414D01*
X+7847891Y-1580589D01*
X+7848600Y-1579880D01*
X+7259600Y-1643380D02*
X+7259600Y-1897380D01*
X+7467600Y-2100580D02*
X+7467600Y-1833880D01*
X+8102600Y-1579880D02*
X+8166100Y-1643380D01*
X+8166100Y-1833880D01*
X+7467600Y-1833880D01*
X+7278892Y-1833880D01*
X+7265528Y-1847244D01*
X+7259600Y-1897380D01*
X+6678100Y-1643380D02*
X+6678100Y-1869880D01*
X+6705600Y-1897380D01*
X+6959600Y-1897380D02*
X+6959600Y-2151380D01*
X+6705600Y-2151380D01*
X+6388100Y-1643380D02*
X+6415600Y-1643380D01*
X+6415600Y-2151380D02*
X+6415600Y-1987550D01*
X+6405600Y-1897380D01*
X+6415600Y-1987550D02*
X+6415600Y-1643380D01*
X+7467600Y-2100580D02*
X+7467600Y-2399087D01*
X+7461307Y-2405380D01*
X+7548600Y-2405380D01*
X+7721600Y-2100580D02*
X+7721600Y-2627994D01*
X+7744699Y-2651093D01*
X+7840313Y-2651093D01*
X+7848600Y-2659380D01*
X+7848600Y-2405380D02*
X+7848600Y-2100580D01*
X+7847891Y-2099871D01*
X+7848600Y-2100580D01*
X+8039100Y-1960880D02*
X+7885072Y-1960880D01*
X+7847891Y-1998061D01*
X+7847891Y-2099871D01*
D11*
X-2984500Y+1404620D02*
X-2984500Y+1587500D01*
X-2984500Y+1404620D02*
X-2882900Y+1404620D01*
X+1714500Y+1404620D02*
X+1714500Y+1651000D01*
X+1714500Y+1404620D02*
X+1928628Y+1404620D01*
X-571500Y+1404620D02*
X-571500Y+1651000D01*
X-762000Y+1404620D02*
X-571500Y+1404620D01*
X-498191Y+1404620D01*
X+4191000Y+1404620D02*
X+4191000Y+1588355D01*
X+4134346Y+1645009D01*
X+4308522Y+1404620D02*
X+4191000Y+1404620D01*
X+6747149Y+1404620D02*
X+6477000Y+1404620D01*
X+5461000Y+1905000D02*
X+5461000Y+1968500D01*
X+5461000Y+825500D02*
X+5461000Y+1905000D01*
D10*
X+609600Y-2405380D02*
X+1071880Y-2405380D01*
X+1079500Y-2413000D01*
D11*
X-5905500Y+635000D02*
X-5905500Y+970500D01*
X-5489500Y+190500D02*
X-5489500Y+506400D01*
X-5629346Y+646246D01*
X-5640592Y+635000D01*
X-5905500Y+635000D01*
D10*
X-4889500Y-617500D02*
X-4889500Y-536632D01*
X-5108632Y-317500D01*
X-5143500Y-317500D01*
X-5489500Y+28500D01*
X-5489500Y+190500D01*
D11*
X-5080000Y+1460500D02*
X-5418666Y+1460500D01*
X-4483100Y+127000D02*
X-4826000Y+127000D01*
X-4889500Y+190500D01*
X-4889500Y+795905D01*
X-4998685Y+905090D01*
X-5080000Y+1010500D01*
D10*
X-4218500Y-190500D02*
X-4000500Y-190500D01*
X-4000500Y+101600D01*
X-4025900Y+127000D01*
X-5143500Y-607500D02*
X-5397500Y-353500D01*
X-5397500Y-317500D01*
X-5651500Y-607500D02*
X-5407500Y-607500D01*
X-5397500Y-617500D01*
X-4780000Y-1828957D02*
X-4780000Y-1651000D01*
X-4000500Y-1714500D02*
X-4196250Y-1714500D01*
X-4196914Y-1713836D01*
X-4196914Y-1593414D01*
X-4191000Y-1587500D01*
X-5080000Y-2159000D02*
X-5080000Y-1905000D01*
X-5080000Y-2159000D02*
X-5375548Y-2159000D01*
X-5390444Y-2144104D01*
X-5361500Y-2159000D01*
X-5664200Y-1397000D02*
X-5664200Y-1638300D01*
X-5651500Y-1651000D01*
X-5651500Y-1905000D01*
X-5651500Y-2159000D01*
X-4508500Y-1833535D02*
X-4564035Y-1833535D01*
X-4775422Y-1833535D01*
X-4780000Y-1828957D01*
X-4780000Y-1905000D01*
X-4564035Y-1833535D02*
X-4572000Y-1841500D01*
X-4572000Y-2108200D01*
X-4191000Y-2667000D02*
X-4291489Y-2667000D01*
X-4317383Y-2641106D01*
X-4317383Y-2108817D01*
X-4318000Y-2108200D01*
X-4000500Y-1949450D02*
X-4162713Y-1949450D01*
X-4191597Y-1978334D01*
X-4191597Y-2107603D01*
X-4191000Y-2108200D01*
X-4191000Y-2413000D01*
X-4491000Y-762000D02*
X-4481000Y-772000D01*
X-3843020Y-1333500D02*
X-3937000Y-1239520D01*
X-3937000Y-544000D01*
X-4000500Y-480500D01*
X+1689100Y-1135380D02*
X+1752600Y-1071880D01*
X+1752600Y-863465D01*
X+1796812Y-819253D01*
X+1878227Y-819253D01*
X+1879600Y-817880D01*
X+6582744Y-1135380D02*
X+6634037Y-1084087D01*
X+6645236Y-1072888D01*
X+6645236Y-828743D01*
X+6712237Y-828743D01*
X+6723100Y-817880D01*
X+5308600Y-2100580D02*
X+5308600Y-2641600D01*
X+5334000Y-2667000D01*
X+5427980Y-2667000D01*
X+5435600Y-2659380D01*
X-1803400Y-2405380D02*
X-1397000Y-2405380D01*
X-1277620Y-2405380D01*
X-1270000Y-2413000D01*
X+1534965Y-2682923D02*
X+1534966Y-2682923D01*
X+1591792Y-2626097D01*
X+1651000Y-2566889D01*
X+1651000Y-2566887D01*
X+1651000Y-2373738D01*
X+1534966Y-2682923D02*
X+1534965Y-2682923D01*
X+1591792Y-2626097D01*
X+1632694Y-2585194D01*
X+6959600Y-1643380D02*
X+7075540Y-1643380D01*
X+7104260Y-1672100D01*
X+7104260Y-2118369D01*
X+7134677Y-2148786D02*
X+7156505Y-2148786D01*
X+4706877Y-2100157D02*
X+4751322Y-2144602D01*
X+4564100Y-1643380D02*
X+4667877Y-1643380D01*
X+4706877Y-1682380D01*
X+4706877Y-2100157D01*
X-121650Y-2102517D02*
X-104801Y-2119366D01*
X-72787Y-2151380D01*
X-279400Y-1643380D02*
X-182025Y-1643380D01*
X-152540Y-1672865D01*
X-121650Y-1703755D01*
X-121650Y-1773960D01*
X-121650Y-2102517D01*
X-72787Y-2151380D02*
X+10600Y-2151380D01*
X-2501900Y-2087880D02*
X-2525708Y-2064072D01*
X-2525708Y-1729849D01*
X-2612177Y-1643380D01*
X-2692400Y-1643380D01*
X-2402400Y-2151380D02*
X-2438400Y-2151380D01*
X-2501900Y-2087880D01*
X+4751322Y-2144602D02*
X+4784191Y-2144602D01*
X+4857322Y-2144602D01*
X+4864100Y-2151380D01*
X+7104260Y-2118369D02*
X+7134677Y-2148786D01*
X+7137271Y-2151380D01*
X+7159099Y-2151380D01*
X+7156505Y-2148786D01*
X+6091478Y-2789478D02*
X+6189579Y-2691378D01*
X+5905500Y-2222500D02*
X+6032500Y-2095500D01*
X+5435600Y-2405380D02*
X+5899754Y-2405380D01*
X+5905500Y-2399634D01*
X+5905500Y-2222500D01*
D14*
X+1016000Y-4064000D02*
X-1270000Y-4064000D01*
D10*
X+1016000Y-4064000D02*
X+1016000Y-2476500D01*
X+1079500Y-2413000D01*
X-1270000Y-2413000D02*
X-1270000Y-4064000D01*
D14*
X+3429000Y-4064000D02*
X+1016000Y-4064000D01*
D10*
X-4491000Y-2413000D02*
X-4572000Y-2332000D01*
X-4572000Y-2108200D01*
X-3937000Y-2196424D02*
X-3749040Y-2008464D01*
X-3749040Y-1966574D01*
X-3749040Y-1905000D01*
X-3749040Y-1524000D02*
X-3749040Y-1905000D01*
X-3937000Y-2196424D02*
X-3937000Y-2250000D01*
X-3866816Y-1626026D02*
X-3866816Y-1795896D01*
X-3904455Y-1833535D01*
X-3937000Y-1524000D02*
X-3937000Y-1555842D01*
X-3866816Y-1626026D01*
X-3904455Y-1833535D02*
X-4508500Y-1833535D01*
D14*
X-3161921Y-4061707D02*
X-3050293Y-4061707D01*
X-3048000Y-4064000D01*
X-1270000Y-4064000D02*
X-3048000Y-4064000D01*
D10*
X-3159628Y-4064000D01*
X-3161921Y-4061707D01*
X+3365500Y-2405380D02*
X+3379274Y-2405380D01*
X+3427268Y-2453374D01*
X+3022600Y-2405380D02*
X+3365500Y-2405380D01*
X+3427268Y-2794000D02*
X+3427268Y-2453374D01*
X+7048500Y-3556000D02*
X+7048500Y-3556000D01*
X+8299879Y-2603500D02*
X+8299879Y-2684771D01*
X+8299879Y-2689015D01*
X+7848600Y-2405380D02*
X+8281490Y-2405380D01*
X+8299879Y-2423769D01*
X+8299879Y-2603500D01*
X+8299879Y-2684771D02*
X+8302001Y-2686893D01*
X+8299879Y-2689015D01*
D14*
X+5778500Y-4064000D02*
X+3429000Y-4064000D01*
D10*
X+5995294Y-3238500D02*
X+5995294Y-3705851D01*
X+6091478Y-2789478D02*
X+5995294Y-2885662D01*
X+5995294Y-2950740D01*
X+5995294Y-3238500D01*
X+8290560Y-1579880D02*
X+8290560Y-2087440D01*
X+8128000Y-2250000D01*
X+8128000Y-2730500D02*
X+8128000Y-2540000D01*
X+6923852Y-2859852D02*
X+6956191Y-2827513D01*
X+7176675Y-2607029D01*
X+7247006Y-2153974D02*
X+7247006Y-2151380D01*
X+7247006Y-2148786D01*
X+7156505Y-2148786D02*
X+7247006Y-2148786D01*
X+7249600Y-2151380D01*
X+7247006Y-2151380D01*
X+7159099Y-2151380D01*
X+7249600Y-2151380D02*
X+7247006Y-2153974D01*
X+3429000Y-3302000D02*
X+3429000Y-3375698D01*
X+3429000Y-4064000D02*
X+3429000Y-3375698D01*
X+3429000Y-3302000D02*
X+3429000Y-2952075D01*
X+3427268Y-2950343D01*
X+3427268Y-2794000D01*
X-4953000Y-825500D02*
X-4849045Y-825500D01*
X-5034000Y-825500D02*
X-4953000Y-825500D01*
X-4780000Y-952500D02*
X-4780000Y-894545D01*
X-4780000Y-825500D01*
X-4849045Y-825500D02*
X-4780000Y-825500D01*
X-4689005Y-734505D01*
X-4889500Y-317500D02*
X-4873820Y-333180D01*
X-4689005Y-517995D01*
X-4689005Y-603383D01*
X-4689005Y-677613D01*
X-4689005Y-734505D02*
X-4689005Y-677613D01*
D11*
X-5651500Y-317500D02*
X-5905500Y-317500D01*
X-5905500Y+25000D01*
X+5469273Y+2623146D02*
X+5473321Y+2627194D01*
D12*
X+5469273Y+2623146D02*
X+5461000Y+2614873D01*
X+5461000Y+2349500D01*
X+5461000Y+2159000D01*
X+5461000Y+1968500D01*
X+5778500Y+1968500D01*
D10*
X-1778000Y+825500D02*
X-1778000Y+1169939D01*
X-1778000Y+1169940D01*
X-1778000Y+825500D02*
X-1778000Y+1169940D01*
D15*
X+865669Y+2627194D02*
X-1407200Y+2627194D01*
X+5473321Y+2627194D02*
X+3238500Y+2627194D01*
X+865669Y+2627194D01*
D11*
X+3365500Y+2095500D02*
X+3238500Y+2095500D01*
X+3048000Y+825500D02*
X+3048000Y+1445148D01*
X+3146175Y+1543323D01*
X+3238500Y+1635648D01*
X+3238500Y+2095500D01*
D40*
X+3238500Y+2627194D01*
D11*
X+952500Y+2095500D02*
X+869512Y+2095500D01*
X+635000Y+825500D02*
X+635000Y+1375947D01*
X+869512Y+1610459D01*
X+869512Y+2095500D01*
D40*
X+869512Y+2623351D01*
X+865669Y+2627194D01*
D11*
X-1333500Y+2095500D02*
X-1397000Y+2095500D01*
X-1778000Y+1169940D02*
X-1778000Y+1270000D01*
X-1397000Y+1651000D01*
X-1397000Y+2095500D01*
D40*
X-1397000Y+2616994D01*
X-1407200Y+2627194D01*
D11*
X+6477000Y+1404620D02*
X+6477000Y+1667185D01*
X+6437156Y+1707029D01*
D14*
X-3172535Y-2593429D02*
X-3172535Y-2706741D01*
X-3172535Y-3871035D01*
X-3175000Y-3873500D01*
X-3424759Y-3095036D02*
X-3424759Y-3964495D01*
X-3327547Y-4061707D01*
X-3161921Y-4061707D01*
D10*
X-4191000Y-2413000D02*
X-3722458Y-2413000D01*
X-3424759Y-2710699D01*
X-3424759Y-2876572D01*
D14*
X-3424759Y-2921000D01*
X-3424759Y-3024001D01*
X-3424759Y-3095036D01*
X-3530993Y-825500D02*
X-3588414Y-768079D01*
X-3749845Y-768079D01*
X-3530993Y-825500D02*
X-3530993Y-1104507D01*
X-4254500Y+817880D02*
X-4254500Y+762000D01*
X-3746500Y+254000D01*
X-3746500Y+190500D01*
D10*
X+7366000Y-2413000D02*
X+7453687Y-2413000D01*
X+7461307Y-2405380D01*
X+7076000Y-2413000D02*
X+7236105Y-2413000D01*
X+7247006Y-2402099D01*
X+7176675Y-2607029D02*
X+7247006Y-2536698D01*
X+7247006Y-2402099D01*
X+7247006Y-2153974D01*
X+4663000Y-2413000D02*
X+4784191Y-2413000D01*
X+4784191Y-2144602D02*
X+4784191Y-2413000D01*
X+4953000Y-2413000D02*
X+5127980Y-2413000D01*
X+5135600Y-2405380D01*
X+2540000Y-2413000D02*
X+2714980Y-2413000D01*
X+2722600Y-2405380D01*
X+2250000Y-2413000D02*
X+2360100Y-2413000D01*
X+2360100Y-2151380D02*
X+2360100Y-2413000D01*
X-163000Y-2413000D02*
X-53421Y-2413000D01*
X-53322Y-2413099D01*
X-53322Y-2215302D01*
X+10600Y-2151380D01*
X+127000Y-2413000D02*
X+301980Y-2413000D01*
X+309600Y-2405380D01*
X-2286000Y-2413000D02*
X-2192020Y-2413000D01*
X-2184400Y-2405380D01*
X-2576000Y-2413000D02*
X-2467963Y-2413000D01*
X-2438400Y-2151380D02*
X-2467963Y-2180943D01*
X-2467963Y-2413000D01*
X-5080000Y-1651000D02*
X-4996902Y-1651000D01*
X-4953000Y-1694902D01*
X-4953000Y-2101772D01*
X-4953000Y-2159000D02*
X-4790000Y-2159000D01*
X-4953000Y-2101772D02*
X-4953000Y-2159000D01*
X-4953000Y-2222500D02*
X-4953000Y-2286000D01*
X-4953000Y-2349500D01*
X-4953000Y-2381123D01*
X-4957590Y-2385713D01*
X-4953000Y-2159000D02*
X-4953000Y-2222500D01*
X-5080000Y-2476500D02*
X-4960283Y-2476500D01*
X-4953000Y-2469217D01*
X-4953000Y-2381123D02*
X-4953000Y-2469217D01*
X-4953000Y-2603500D01*
X-4889500Y-2667000D02*
X-4803130Y-2753370D01*
X-4790000Y-2766500D01*
X-4790000Y-2825941D01*
X-4953000Y-2603500D02*
X-4889500Y-2667000D01*
X-4790000Y-2476500D02*
X-4635500Y-2476500D01*
X-4554500Y-2476500D01*
X-4491000Y-2413000D01*
X-2692400Y-1643380D02*
X-2654332Y-1605312D01*
X-4318000Y-1587500D02*
X-4318000Y-1384300D01*
X-4332110Y-1370190D01*
X-4332110Y-566404D01*
X-4246206Y-480500D01*
X-4000500Y-480500D01*
X-4141610Y-1157110D02*
X-4141610Y-762000D01*
X-4191000Y-762000D01*
X-4191000Y-1587500D02*
X-4141610Y-1587500D01*
X-4141610Y-1157110D01*
X-4445000Y-1587500D02*
X-4445000Y-1234720D01*
X-4522610Y-1157110D01*
X-4491000Y-762000D02*
X-4491000Y-208000D01*
X-4508500Y-190500D01*
X-4483100Y+127000D02*
X-4483100Y-165100D01*
X-4508500Y-190500D01*
X-4522610Y-1157110D02*
X-4481000Y-1115500D01*
X-4481000Y-852170D01*
X-4491000Y-762000D01*
X-1930400Y-1579880D02*
X-1930400Y-1371600D01*
X-1968500Y-1333500D01*
X-1968500Y-561777D01*
X-1858066Y-451343D01*
X-1563863Y-451343D01*
X-1549400Y-436880D01*
X-2103400Y-754380D02*
X-2103400Y-1087400D01*
X-2159000Y-1143000D01*
X-2103400Y-754380D02*
X-2103400Y-228880D01*
X-2057400Y-182880D01*
X-1803400Y-754380D02*
X-1803400Y-1117600D01*
X-1778000Y-1143000D01*
X-1803400Y-1579880D02*
X-1803400Y-1168400D01*
X-1778000Y-1143000D01*
X-2057400Y-1579880D02*
X-2057400Y-1418136D01*
X-2102105Y-1373431D01*
X-2159000Y-1316536D01*
X-2159000Y-1143000D01*
X+482600Y-1579880D02*
X+482600Y-1376422D01*
X+447272Y-1341094D01*
X+447272Y-555498D01*
X+555253Y-447517D01*
X+838237Y-447517D01*
X+863600Y-472880D01*
X+609600Y-754380D02*
X+609600Y-1117600D01*
X+635000Y-1143000D01*
X+609600Y-1579880D02*
X+609600Y-1168400D01*
X+635000Y-1143000D01*
X+309600Y-754380D02*
X+309600Y-1087400D01*
X+254000Y-1143000D01*
X+355600Y-1579880D02*
X+355600Y-1423340D01*
X+301942Y-1369682D01*
X+301942Y-1190942D01*
X+254000Y-1143000D01*
X+2768600Y-754380D02*
X+2768600Y-768703D01*
X+2768600Y-1104900D01*
X+2730500Y-1143000D01*
X+2768600Y-754380D02*
X+2768600Y-182880D01*
X+2895600Y-1579880D02*
X+2895600Y-1365985D01*
X+2931265Y-1330320D01*
X+2931265Y-954227D01*
X+2898561Y-921523D01*
X+2898561Y-565414D01*
X+2913096Y-550879D01*
X+2991095Y-472880D01*
X+3276600Y-472880D01*
X+3022600Y-754380D02*
X+3111500Y-843280D01*
X+3111500Y-1143000D01*
X+3022600Y-1579880D02*
X+3022600Y-1231900D01*
X+3111500Y-1143000D01*
X+2768600Y-1579880D02*
X+2768600Y-1181100D01*
X+2730500Y-1143000D01*
X+7848600Y-1579880D02*
X+7848600Y-1168400D01*
X+7874000Y-1143000D01*
X+7721600Y-1579880D02*
X+7721600Y-1371600D01*
X+7683500Y-1333500D01*
X+7683500Y-547780D01*
X+7813785Y-417495D01*
X+8094485Y-417495D01*
X+8102600Y-409380D01*
X+7848600Y-754380D02*
X+7848600Y-1117600D01*
X+7874000Y-1143000D01*
X+7548600Y-754380D02*
X+7548600Y-1087400D01*
X+7493000Y-1143000D01*
X+7594600Y-1579880D02*
X+7594600Y-1244600D01*
X+7493000Y-1143000D01*
X+7259600Y-1460500D02*
X+7259600Y-1406880D01*
X+7259600Y-1262380D01*
X+7259600Y-831180D01*
X+7246300Y-817880D01*
X+6908800Y-1262380D02*
X+7259600Y-1262380D01*
X+7259600Y-1643380D02*
X+7259600Y-1460500D01*
X+7023100Y-817880D02*
X+7246300Y-817880D01*
X+7254717Y-817880D01*
X+7340600Y-731997D01*
X+7340600Y-500380D01*
X+7150100Y-309880D01*
X+7548600Y-754380D02*
X+7548600Y-165380D01*
X+7594600Y-119380D01*
X+5435600Y-1579880D02*
X+5461000Y-1579880D01*
X+5461000Y-1143000D01*
X+5461000Y-754380D01*
X+5435600Y-754380D01*
X+5308600Y-1579880D02*
X+5308600Y-1371600D01*
X+5270500Y-1333500D01*
X+5270500Y-503393D01*
X+5362479Y-411414D01*
X+5687566Y-411414D01*
X+5689600Y-409380D01*
X+5080000Y-1143000D02*
X+5080000Y-809980D01*
X+5135600Y-754380D01*
X+5181600Y-1579880D02*
X+5181600Y-1380723D01*
X+5115483Y-1314606D01*
X+5115483Y-1178483D01*
X+5080000Y-1143000D01*
D11*
X-2882900Y+1404620D02*
X-2565400Y+1404620D01*
X-5905500Y+1415000D02*
X-5860000Y+1460500D01*
X-5818751Y+1460500D01*
X-5418666Y+1460500D02*
X-5818751Y+1460500D01*
X-5860000Y+1460500D02*
X-5905500Y+1460500D01*
X-4254500Y+2609179D02*
X-4209015Y+2609179D01*
X-4191000Y+2627194D01*
D15*
X-1407200Y+2627194D02*
X-4191000Y+2627194D01*
X-4237376Y+2627194D01*
D40*
X-4254500Y+2609179D02*
X-4254500Y+2610070D01*
X-4237376Y+2627194D01*
D11*
X-3327400Y+1359120D02*
X-3302000Y+1384520D01*
X-3302000Y+1404620D01*
X-3327400Y+1404620D02*
X-3302000Y+1404620D01*
X-2984500Y+1404620D01*
X-762000Y+1404620D02*
X-868900Y+1404620D01*
X-914400Y+1359120D01*
X-914400Y+1404620D02*
X-868900Y+1404620D01*
X+1651000Y+1404620D02*
X+1544100Y+1404620D01*
X+1498600Y+1359120D01*
X+1498600Y+1404620D02*
X+1544100Y+1404620D01*
X+1651000Y+1404620D02*
X+1714500Y+1404620D01*
X+4064000Y+1404620D02*
X+3957100Y+1404620D01*
X+3911600Y+1359120D01*
X+4191000Y+1404620D02*
X+4064000Y+1404620D01*
X+3957100Y+1404620D02*
X+3911600Y+1404620D01*
X+6413500Y+1404620D02*
X+6374962Y+1404620D01*
X+6370100Y+1404620D01*
X+6360208Y+1394728D01*
X+6324600Y+1359120D01*
X+6477000Y+1404620D02*
X+6413500Y+1404620D01*
X+6374962Y+1404620D02*
X+6364013Y+1393671D01*
X+6360208Y+1394728D01*
X+6324600Y+1404620D01*
X+6794500Y+1404620D02*
X+7086600Y+1404620D01*
X+7091474Y+1404620D01*
X+7115614Y+1380480D01*
X+6747149Y+1404620D02*
X+6794500Y+1404620D01*
D16*
X-4263961Y+1955083D02*
X-4254500Y+1964544D01*
D15*
X-4254500Y+1968500D01*
X-4254500Y+2141093D01*
D11*
X-4254500Y+817880D02*
X-4254500Y+1964544D01*
D15*
X-4254500Y+2141093D02*
X-4254500Y+2609179D01*
D11*
X-5418666Y+1460500D02*
X-5394560Y+1436394D01*
X-5394560Y+718686D01*
X-5112338Y+436464D01*
X-5112338Y-31162D01*
X-4889500Y-254000D01*
X-4889500Y-317500D01*
D15*
X-5969000Y+1905000D02*
X-5778500Y+1905000D01*
X-5905500Y+25000D02*
X-6449418Y+568918D01*
X-6449418Y+1539713D01*
X-6084131Y+1905000D01*
X-5969000Y+1905000D01*
X-5080000Y+1460500D02*
X-4679289Y+1460500D01*
X-4621653Y+1518136D01*
X-4621653Y+1891153D01*
X-4635500Y+1905000D01*
D14*
X-3937000Y-2540000D02*
X-3937000Y-2857500D01*
X-3937000Y-2894604D01*
X-4092166Y-3049770D01*
X-4316230Y-3049770D01*
X-4318000Y-3048000D01*
D10*
X-4481000Y-2667000D02*
X-4635657Y-2821657D01*
X-4635657Y-3197087D01*
X-4538246Y-3294498D01*
X-4325502Y-3294498D01*
X-4318000Y-3302000D01*
X-4790000Y-3429000D02*
X-4664596Y-3554404D01*
X-4610817Y-3554404D01*
X-4319596Y-3554404D01*
X-4318000Y-3556000D01*
X-4790000Y-2825941D02*
X-4790000Y-3429000D01*
X-1549400Y-2857500D02*
X-1739900Y-3048000D01*
X-1778000Y-3048000D01*
X-1549400Y-2568380D02*
X-1549400Y-2857500D01*
X-2093400Y-3175000D02*
X-1966400Y-3302000D01*
X-1778000Y-3302000D01*
X-2093400Y-3175000D02*
X-2093400Y-2659380D01*
X-2159000Y-3554606D02*
X-2033394Y-3554606D01*
X-1779394Y-3554606D01*
X-1778000Y-3556000D01*
X-2467963Y-2413000D02*
X-2467963Y-2861681D01*
X-2467963Y-3365879D01*
X-2279236Y-3554606D01*
X-2159000Y-3554606D01*
X+571500Y-3048000D02*
X+727172Y-3048000D01*
X+863600Y-2911572D01*
X+863600Y-2532380D02*
X+863600Y-2911572D01*
X+319600Y-3175000D02*
X+446600Y-3302000D01*
X+571500Y-3302000D01*
X+319600Y-2659380D02*
X+319600Y-3175000D01*
X+127000Y-3429000D02*
X+254000Y-3556000D01*
X+571500Y-3556000D01*
X+127000Y-3429000D02*
X-53322Y-3248678D01*
X-53322Y-2413099D01*
X+2984500Y-3048000D02*
X+3102467Y-3048000D01*
X+3276600Y-2873867D01*
X+3276600Y-2568380D02*
X+3276600Y-2873867D01*
X+2730500Y-3238500D02*
X+2791291Y-3299291D01*
X+2941930Y-3299291D01*
X+2981791Y-3299291D01*
X+2984500Y-3302000D01*
X+2730500Y-3238500D02*
X+2730500Y-2661480D01*
X+2732600Y-2659380D01*
X+2603500Y-3547288D02*
X+2721788Y-3547288D01*
X+2975788Y-3547288D01*
X+2984500Y-3556000D01*
X+2360100Y-2413000D02*
X+2360100Y-3380847D01*
X+2526541Y-3547288D01*
X+2603500Y-3547288D01*
X+5715000Y-2857500D02*
X+5524500Y-3048000D01*
X+5461000Y-3048000D01*
X+5689600Y-2532380D02*
X+5715000Y-2557780D01*
X+5715000Y-2857500D01*
X+5145600Y-3111500D02*
X+5336100Y-3302000D01*
X+5461000Y-3302000D01*
X+5145600Y-2659380D02*
X+5145600Y-3111500D01*
X+6867996Y-3429000D02*
X+6994996Y-3556000D01*
X+7048500Y-3556000D01*
X+7112000Y-3556000D01*
X+6923852Y-2859852D02*
X+6867996Y-2915708D01*
X+6867996Y-3429000D01*
X+7558600Y-2659380D02*
X+7558600Y-2982400D01*
X+7239000Y-3302000D01*
X+7112000Y-3302000D01*
X-4780000Y-1270000D02*
X-4780000Y-1166518D01*
X-4780000Y-1146484D01*
X-4780000Y-1143000D01*
X-4780000Y-1651000D02*
X-4780000Y-1270000D01*
X-4780000Y-1143000D02*
X-4780000Y-952500D01*
D18*
X-5662400Y-1373100D02*
X-5662400Y-1395200D01*
X-5664200Y-1397000D01*
X-5662400Y-1308100D02*
X-5662400Y-1243100D01*
X-5492705Y-1243100D01*
X-5491205Y-1244600D01*
D10*
X-5334000Y-825500D02*
X-5491205Y-982705D01*
X-5491205Y-1244600D01*
D18*
X-5662400Y-1308100D02*
X-5491205Y-1308100D01*
D10*
X-5491205Y-1244600D02*
X-5491205Y-1308100D01*
X-5491205Y-3208295D01*
X-5397500Y-3302000D01*
X-5207000Y-3302000D01*
D18*
X-5662400Y-1178100D02*
X-5662400Y-622000D01*
X-5664200Y-620200D01*
X-5651500Y-607500D01*
X-5232400Y-1178100D02*
X-5169686Y-1178100D01*
X-5166889Y-1175303D01*
X-5143500Y-1151914D01*
X-5143500Y-1016000D01*
X-5143500Y-977900D01*
D10*
X-5143500Y-607500D01*
D18*
X-5232400Y-1270000D02*
X-5232400Y-1243100D01*
D10*
X-5361500Y-1661000D02*
X-5361500Y-1513021D01*
X-5397784Y-1476737D01*
X-5397784Y-1284529D01*
X-5389242Y-1275987D01*
X-5232400Y-1275987D01*
X-5218682Y-1275987D01*
X-5212695Y-1270000D01*
X-5361500Y-1905000D02*
X-5361500Y-1661000D01*
X-5351500Y-1651000D01*
D18*
X-5232400Y-1308100D02*
X-5232400Y-1275987D01*
X-5232400Y-1270000D01*
D10*
X-5212695Y-1270000D01*
X-4780000Y-1270000D01*
D18*
X-3300200Y-1230400D02*
X-3529493Y-1230400D01*
X-3530993Y-1231900D01*
D14*
X-3530993Y-1104507D02*
X-3530993Y-1231900D01*
D18*
X-3300200Y-1295400D02*
X-3525889Y-1295400D01*
X-3530993Y-1300504D01*
D14*
X-3530993Y-1231900D02*
X-3530993Y-1300504D01*
X-3530993Y-2234971D01*
X-3172535Y-2593429D01*
D18*
X-3300200Y-1230400D02*
X-3165877Y-1230400D01*
X-3132080Y-1196603D01*
X-3132080Y-872599D01*
X-3076118Y-816637D01*
X-2993643Y-816637D01*
X-2992400Y-817880D01*
X-2870200Y-1230400D02*
X-2870200Y-1262380D01*
X-2870200Y-1295400D01*
D10*
X-3027400Y-1643380D02*
X-3027400Y-1279880D01*
X-3009900Y-1262380D01*
X-2870200Y-1262380D01*
X-2806700Y-1262380D01*
D18*
X-3300200Y-1360400D02*
X-3327400Y-1387600D01*
X-3327400Y-1643380D01*
X-899900Y-1165400D02*
X-899900Y-614380D01*
X-914400Y-599880D01*
X-899900Y-1230400D02*
X-725400Y-1230400D01*
X-723900Y-1231900D01*
X-899900Y-1295400D02*
X-723900Y-1295400D01*
D10*
X-1079500Y-2857500D02*
X-762000Y-2540000D01*
X-762000Y-1555037D01*
X-723900Y-1516937D01*
X-723900Y-1295400D01*
X-723900Y-1231900D01*
D18*
X-899900Y-1360400D02*
X-899900Y-1632496D01*
X-914400Y-1646996D01*
X-914400Y-1643380D01*
D10*
X-914400Y-1897380D02*
X-914400Y-1646996D01*
D18*
X-469900Y-1230400D02*
X-469900Y-1262380D01*
X-469900Y-1295400D01*
D10*
X-624400Y-1643380D02*
X-624400Y-1289880D01*
X-596900Y-1262380D01*
X-469900Y-1262380D01*
X-393700Y-1262380D01*
D18*
X-469900Y-1165400D02*
X-395080Y-1165400D01*
X-391526Y-1161846D01*
X-391526Y-599074D01*
X-406400Y-584200D01*
X-406400Y-599880D01*
D10*
X-660400Y-309880D02*
X-406400Y-563880D01*
X-406400Y-584200D01*
X-723900Y-1155700D02*
X-723900Y-1135380D01*
X-723900Y-931143D01*
X-660400Y-867643D01*
X-605871Y-813114D01*
X-538166Y-813114D01*
X-533400Y-817880D01*
X-723900Y-1231900D02*
X-723900Y-1155700D01*
D18*
X-3300200Y-1165400D02*
X-3300200Y-584166D01*
X-3320486Y-563880D01*
X-3327400Y-563880D01*
D10*
X-3320486Y-563880D02*
X-3073400Y-563880D01*
D18*
X-2870200Y-1165400D02*
X-2867200Y-1165400D01*
X-2819400Y-1117600D01*
X-2819400Y-621030D01*
X-2819400Y-563880D01*
X+1498600Y-1228900D02*
X+1686100Y-1228900D01*
X+1689100Y-1231900D01*
D10*
X+1689100Y-1135380D02*
X+1689100Y-1231900D01*
D18*
X+1498600Y-1293900D02*
X+1687600Y-1293900D01*
X+1689100Y-1295400D01*
D10*
X+1689100Y-1231900D02*
X+1689100Y-1295400D01*
X+1689100Y-1422400D01*
X+1651000Y-1460500D01*
X+1651000Y-2373738D01*
D18*
X+1928600Y-1293900D02*
X+1928600Y-1262380D01*
X+1928600Y-1232087D01*
X+1933271Y-1227416D01*
X+1928600Y-1228900D01*
D10*
X+1788600Y-1643380D02*
X+1788600Y-1289880D01*
X+1816100Y-1262380D01*
X+1928600Y-1262380D01*
X+2019300Y-1262380D01*
D18*
X+1928600Y-1163900D02*
X+1928600Y-1016212D01*
X+1988626Y-956186D01*
X+2006600Y-938212D01*
X+2006600Y-621030D01*
X+2006600Y-563880D01*
X+1498600Y-1163900D02*
X+1498600Y-878180D01*
X+1616544Y-760236D01*
X+1616544Y-580792D01*
X+1633456Y-563880D01*
D10*
X+1752600Y-563880D02*
X+1633456Y-563880D01*
X+1498600Y-563880D01*
D18*
X+1498600Y-1358900D02*
X+1498600Y-1389380D01*
X+1498600Y-1397000D01*
D10*
X+1498600Y-1643380D02*
X+1498600Y-1397000D01*
D18*
X+3911600Y-1176600D02*
X+3911600Y-950099D01*
X+4034054Y-827645D01*
X+4034054Y-599880D01*
D10*
X+3911600Y-599880D02*
X+4034054Y-599880D01*
X+4155600Y-599880D01*
X+4165600Y-609880D01*
D18*
X+3911600Y-1371600D02*
X+3911600Y-1643380D01*
X+4341600Y-1306600D02*
X+4341600Y-1266824D01*
X+4341600Y-1244692D01*
X+4346215Y-1240077D01*
X+4341600Y-1241600D01*
D10*
X+4211600Y-1643380D02*
X+4178300Y-1610080D01*
X+4178300Y-1320801D01*
X+4232277Y-1266824D01*
X+4341600Y-1266824D01*
X+4427856Y-1266824D01*
X+4432300Y-1262380D01*
X+4864100Y-1262380D01*
D18*
X+4341600Y-1176600D02*
X+4341600Y-1017546D01*
X+4390313Y-968833D01*
X+4419600Y-939546D01*
X+4419600Y-599880D01*
D10*
X+4089400Y-1241600D02*
X+4089400Y-1306600D01*
D18*
X+3911600Y-1241600D02*
X+4089400Y-1241600D01*
X+3911600Y-1306600D02*
X+4089400Y-1306600D01*
D10*
X+4246600Y-817880D02*
X+4089400Y-975080D01*
X+4089400Y-1241547D01*
X+4635500Y-3048000D02*
X+4631382Y-3048000D01*
X+4093691Y-2510309D01*
X+4093691Y-1785940D01*
X+4089400Y-1781649D01*
X+4089400Y-1306600D01*
D18*
X+4089400Y-1241600D02*
X+4089400Y-1241547D01*
X+6845300Y-1168400D02*
X+6896100Y-1117600D01*
X+6896100Y-599880D01*
X+6845300Y-1233400D02*
X+6845300Y-1260811D01*
X+6845300Y-1298400D01*
D10*
X+6678100Y-1643380D02*
X+6678100Y-1277727D01*
X+6695016Y-1260811D01*
X+6845300Y-1260811D01*
X+6868436Y-1260811D01*
X+6869931Y-1262306D01*
X+6908800Y-1262380D01*
D18*
X+6415300Y-1233400D02*
X+6580610Y-1233400D01*
X+6582744Y-1235534D01*
D10*
X+6582744Y-1135380D02*
X+6582744Y-1235534D01*
D18*
X+6415300Y-1298400D02*
X+6581088Y-1298400D01*
X+6582744Y-1300056D01*
D10*
X+6582744Y-1235534D02*
X+6582744Y-1300056D01*
X+6582744Y-1493632D01*
X+6570171Y-1506205D01*
X+6570171Y-2623025D01*
X+6512650Y-2680546D01*
X+6200411Y-2680546D01*
X+6189579Y-2691378D01*
D18*
X+6415300Y-1363400D02*
X+6415300Y-1616180D01*
X+6388100Y-1643380D01*
X+6415300Y-1168400D02*
X+6415300Y-899235D01*
X+6519129Y-795406D01*
X+6519129Y-603909D01*
X+6515100Y-599880D01*
X+6478270Y-599880D01*
X+6388100Y-599880D01*
D10*
X+6478270Y-599880D01*
X+6515100Y-599880D01*
X+6632100Y-599880D01*
X+6642100Y-609880D01*
D15*
X-5778500Y+1905000D02*
X-5080000Y+1905000D01*
D11*
X-2273300Y+1841500D02*
X-2273300Y+1998665D01*
X-2418092Y+2143457D01*
X-3476241Y+2143457D01*
X-3648029Y+1971669D01*
X-3648029Y+353249D01*
X-3327400Y+32620D01*
X-914400Y+32620D02*
X-1108438Y+32620D01*
X-1187480Y+111662D01*
X-1187480Y+1907761D01*
X-1025141Y+2070100D01*
X-203200Y+2070100D01*
X-37978Y+1904878D01*
X-37978Y+1854078D01*
X-25400Y+1841500D01*
X+1498600Y+32620D02*
X+1157112Y+374108D01*
X+1157112Y+1965739D01*
X+1362643Y+2171270D01*
X+2098260Y+2171270D01*
X+2222500Y+2047030D01*
X+2222500Y+1841500D01*
X+3911600Y+32620D02*
X+3542107Y+402113D01*
X+3542107Y+1954607D01*
X+3746500Y+2159000D01*
X+4330953Y+2159000D01*
X+4495800Y+1994153D01*
X+4495800Y+1841500D01*
X+6324600Y+32620D02*
X+5978026Y+379194D01*
X+5978026Y+2007926D01*
X+6132626Y+2162526D01*
X+6583932Y+2162526D01*
X+6718300Y+2028158D01*
X+6718300Y+1841500D01*
X+7874000Y+825500D02*
X+7874000Y+1625600D01*
X+7175500Y+2324100D01*
X+6946900Y+2324100D01*
X+6643806Y+2627194D01*
X+5473321Y+2627194D01*
D10*
X+1534965Y-2682923D02*
X+1632694Y-2585194D01*
X+1639044Y-2578844D01*
X+1534965Y-2682923D02*
X+1534966Y-2682923D01*
X+1206500Y-2870200D02*
X+1346676Y-2871212D01*
X+1534965Y-2682923D01*
X+5778500Y-4064000D02*
X+5778500Y-3035300D01*
X+5905500Y-2908300D01*
X+5905500Y-2399634D01*
D14*
X+8299879Y-2689015D02*
X+8299879Y-2794000D01*
X+8172879Y-2921000D01*
X+7937500Y-2921000D01*
X+7402002Y-3456498D01*
X+7402002Y-3773998D01*
X+7112092Y-4063908D01*
X+5906029Y-4063471D01*
X+5905500Y-4064000D01*
X+5778500Y-4064000D01*
D10*
X+4784191Y-2413000D02*
X+4826000Y-2454809D01*
X+4826000Y-3429000D01*
X+4953000Y-3556000D01*
X+5461000Y-3556000D01*
D19*
X-1270000Y-2413000D03*
X+6032500Y-2095500D03*
X+1079500Y-2413000D03*
D70*
X-3424759Y-2876572D03*
X+3429000Y-3302000D03*
D19*
X+5995294Y-3705851D03*
X+8128000Y-2730500D03*
D71*
X-2984500Y+1587500D03*
X-571500Y+1651000D03*
X+1714500Y+1651000D03*
X+4134346Y+1645009D03*
X+5778500Y+1968500D03*
X+6437156Y+1707029D03*
X+3365500Y+2095500D03*
X+952500Y+2095500D03*
X-1333500Y+2095500D03*
D19*
X-4635500Y-2476500D03*
X-3429000Y-2876572D03*
X-3175000Y-3873500D03*
X-3749845Y-768079D03*
X-3746500Y+190500D03*
D71*
X-4263961Y+1955083D03*
D19*
X-5394560Y+718686D03*
X-1079500Y-2857500D03*
X+4635500Y-3048000D03*
X+1206500Y-2870200D03*
D13*
X+8448040Y-4193540D02*
X-6712345Y-4193540D01*
X-6502401Y-3983596D01*
X-6502401Y-3636404D01*
X-6747904Y-3390901D01*
X-7095096Y-3390901D01*
X-7340599Y-3636404D01*
X-7340599Y-3983596D01*
X-7130655Y-4193540D01*
X-7368540Y-4193540D01*
X-7368540Y+2860040D01*
X+8448040Y+2860040D01*
X+8448040Y-4193540D01*
X-6819901Y-2381811D02*
X-6819901Y-2571189D01*
X-6947462Y-2698750D01*
X-6819901Y-2826311D01*
X-6819901Y-3015689D01*
X-6953811Y-3149599D01*
X-7143189Y-3149599D01*
X-7277099Y-3015689D01*
X-7277099Y-2826311D01*
X-7149538Y-2698750D01*
X-7277099Y-2571189D01*
X-7277099Y-2381811D01*
X-7143189Y-2247901D01*
X-6953811Y-2247901D01*
X-6819901Y-2381811D01*
X-1993899Y+1773114D02*
X-1993899Y+1909886D01*
X-1897186Y+2006599D01*
X-1760414Y+2006599D01*
X-1663701Y+1909886D01*
X-1663701Y+1773114D01*
X-1760414Y+1676401D01*
X-1897186Y+1676401D01*
X-1993899Y+1773114D01*
X-2768601Y-3200399D02*
X-2768601Y-3708399D01*
X-3073399Y-3708399D01*
X-3073399Y-2895601D01*
X-2768601Y-2895601D01*
X-2768601Y-3200399D01*
X+266701Y+1773114D02*
X+266701Y+1909886D01*
X+363414Y+2006599D01*
X+500186Y+2006599D01*
X+596899Y+1909886D01*
X+596899Y+1773114D01*
X+500186Y+1676401D01*
X+363414Y+1676401D01*
X+266701Y+1773114D01*
X-609601Y-3200399D02*
X-609601Y-3708399D01*
X-914399Y-3708399D01*
X-914399Y-2895601D01*
X-609601Y-2895601D01*
X-609601Y-3200399D01*
X+1739899Y-3200399D02*
X+1739899Y-3708399D01*
X+1435101Y-3708399D01*
X+1435101Y-2895601D01*
X+1739899Y-2895601D01*
X+1739899Y-3200399D01*
X+2514601Y+1773114D02*
X+2514601Y+1909886D01*
X+2611314Y+2006599D01*
X+2748086Y+2006599D01*
X+2844799Y+1909886D01*
X+2844799Y+1773114D01*
X+2748086Y+1676401D01*
X+2611314Y+1676401D01*
X+2514601Y+1773114D01*
X+4089399Y-3200399D02*
X+4089399Y-3708399D01*
X+3784601Y-3708399D01*
X+3784601Y-2895601D01*
X+4089399Y-2895601D01*
X+4089399Y-3200399D01*
X+5581986Y+2716093D02*
X+6680629Y+2716093D01*
X+6983723Y+2412999D01*
X+7212323Y+2412999D01*
X+7962899Y+1662423D01*
X+7962899Y+1212849D01*
X+8261349Y+1212849D01*
X+8261349Y+438151D01*
X+7486651Y+438151D01*
X+7486651Y+1212849D01*
X+7785101Y+1212849D01*
X+7785101Y+1588777D01*
X+7138677Y+2235201D01*
X+6910077Y+2235201D01*
X+6606983Y+2538295D01*
X+5581986Y+2538295D01*
X+5562599Y+2518908D01*
X+5562599Y+2070099D01*
X+5682535Y+2070099D01*
X+5720635Y+2108199D01*
X+5836365Y+2108199D01*
X+5894471Y+2050093D01*
X+6095803Y+2251425D01*
X+6620755Y+2251425D01*
X+6807199Y+2064981D01*
X+6807199Y+1986086D01*
X+6883399Y+1909886D01*
X+6883399Y+1773114D01*
X+6786686Y+1676401D01*
X+6649914Y+1676401D01*
X+6553201Y+1773114D01*
X+6553201Y+1909886D01*
X+6629401Y+1986086D01*
X+6629401Y+1991335D01*
X+6547109Y+2073627D01*
X+6169449Y+2073627D01*
X+6066925Y+1971103D01*
X+6066925Y+416017D01*
X+6349993Y+132949D01*
X+6532879Y+132949D01*
X+6532879Y-67709D01*
X+6451599Y-67709D01*
X+6451599Y-214631D01*
X+6832601Y-214631D01*
X+6832601Y+83456D01*
X+6803389Y+112668D01*
X+6803389Y-105409D01*
X+6607811Y-105409D01*
X+6607811Y+487687D01*
X+6541777Y+553721D01*
X+6532879Y+553721D01*
X+6532879Y+542291D01*
X+6116321Y+542291D01*
X+6116321Y+742949D01*
X+6203951Y+742949D01*
X+6203951Y+1105119D01*
X+6445249Y+1105119D01*
X+6445249Y+742949D01*
X+6532879Y+742949D01*
X+6532879Y+731519D01*
X+6615423Y+731519D01*
X+6794499Y+552443D01*
X+6794499Y+501649D01*
X+6803389Y+501649D01*
X+6803389Y+262850D01*
X+6832807Y+262850D01*
X+6959599Y+136058D01*
X+6959599Y-214631D01*
X+7278369Y-214631D01*
X+7278369Y-405129D01*
X+7081149Y-405129D01*
X+7190651Y-514631D01*
X+7278369Y-514631D01*
X+7278369Y-705129D01*
X+7118349Y-705129D01*
X+7118349Y-946149D01*
X+6953249Y-946149D01*
X+6953249Y-1111251D01*
X+6972299Y-1111251D01*
X+6972299Y-1420549D01*
X+6718301Y-1420549D01*
X+6718301Y-1111251D01*
X+6821629Y-1111251D01*
X+6838951Y-1093929D01*
X+6838951Y-695129D01*
X+6818349Y-695129D01*
X+6818349Y-946149D01*
X+6708735Y-946149D01*
X+6708735Y-1099189D01*
X+6646243Y-1161681D01*
X+6646243Y-1515111D01*
X+6773349Y-1515111D01*
X+6773349Y-1769111D01*
X+6800849Y-1769111D01*
X+6800849Y-2087881D01*
X+6864351Y-2087881D01*
X+6864351Y-1515111D01*
X+7054849Y-1515111D01*
X+7054849Y-1579881D01*
X+7101841Y-1579881D01*
X+7164351Y-1642391D01*
X+7164351Y-1515111D01*
X+7354849Y-1515111D01*
X+7354849Y-2025649D01*
X+7344849Y-2025649D01*
X+7344849Y-2279649D01*
X+7310505Y-2279649D01*
X+7310505Y-2284731D01*
X+7453351Y-2284731D01*
X+7453351Y-2277111D01*
X+7643849Y-2277111D01*
X+7643849Y-2531111D01*
X+7653849Y-2531111D01*
X+7653849Y-2787649D01*
X+7622099Y-2787649D01*
X+7622099Y-3008701D01*
X+7265301Y-3365499D01*
X+7264399Y-3365499D01*
X+7264399Y-3708399D01*
X+6959601Y-3708399D01*
X+6959601Y-3610405D01*
X+6804497Y-3455302D01*
X+6804497Y-2889407D01*
X+7152635Y-2541269D01*
X+6980751Y-2541269D01*
X+6980751Y-2284731D01*
X+7171249Y-2284731D01*
X+7171249Y-2349501D01*
X+7183507Y-2349501D01*
X+7183507Y-2279649D01*
X+7154351Y-2279649D01*
X+7154351Y-2214879D01*
X+7110970Y-2214879D01*
X+7108375Y-2212285D01*
X+7054849Y-2158759D01*
X+7054849Y-2279649D01*
X+6864351Y-2279649D01*
X+6864351Y-2214879D01*
X+6800849Y-2214879D01*
X+6800849Y-2279649D01*
X+6633670Y-2279649D01*
X+6633670Y-2649326D01*
X+6538951Y-2744045D01*
X+6226712Y-2744045D01*
X+6075155Y-2895601D01*
X+6375399Y-2895601D01*
X+6375399Y-3708399D01*
X+6096893Y-3708399D01*
X+6096893Y-3747935D01*
X+6037378Y-3807450D01*
X+5953210Y-3807450D01*
X+5893695Y-3747935D01*
X+5893695Y-3663767D01*
X+5931795Y-3625667D01*
X+5931795Y-3212198D01*
X+5931796Y-3100908D01*
X+5931795Y-2971805D01*
X+5841999Y-3061601D01*
X+5841999Y-3987801D01*
X+5873939Y-3987801D01*
X+5874478Y-3987262D01*
X+7080541Y-3987699D01*
X+7325803Y-3742437D01*
X+7325803Y-3424937D01*
X+7905939Y-2844801D01*
X+8141318Y-2844801D01*
X+8154020Y-2832099D01*
X+8085916Y-2832099D01*
X+8026401Y-2772584D01*
X+8026401Y-2688416D01*
X+8064501Y-2650316D01*
X+8064501Y-2635249D01*
X+7999731Y-2635249D01*
X+7999731Y-2468879D01*
X+7943849Y-2468879D01*
X+7943849Y-2787649D01*
X+7753351Y-2787649D01*
X+7753351Y-2714592D01*
X+7718398Y-2714592D01*
X+7658101Y-2654295D01*
X+7658101Y-2240279D01*
X+7397751Y-2240279D01*
X+7397751Y-1960881D01*
X+7795271Y-1960881D01*
X+7858771Y-1897381D01*
X+7956551Y-1897381D01*
X+7956551Y-1891031D01*
X+8121649Y-1891031D01*
X+8121649Y-2030729D01*
X+7956551Y-2030729D01*
X+7956551Y-2024379D01*
X+7918449Y-2024379D01*
X+7918449Y-2240279D01*
X+7912099Y-2240279D01*
X+7912099Y-2277111D01*
X+7943849Y-2277111D01*
X+7943849Y-2341881D01*
X+7999731Y-2341881D01*
X+7999731Y-2154751D01*
X+8133449Y-2154751D01*
X+8227061Y-2061139D01*
X+8227061Y-1668779D01*
X+8208011Y-1668779D01*
X+8208011Y-1490981D01*
X+8373109Y-1490981D01*
X+8373109Y-1668779D01*
X+8354059Y-1668779D01*
X+8354059Y-2113741D01*
X+8256269Y-2211531D01*
X+8256269Y-2341881D01*
X+8307791Y-2341881D01*
X+8363378Y-2397468D01*
X+8363378Y-2644752D01*
X+8376078Y-2657452D01*
X+8376078Y-2825561D01*
X+8204440Y-2997199D01*
X+7969061Y-2997199D01*
X+7478201Y-3488059D01*
X+7478201Y-3805559D01*
X+7143643Y-4140117D01*
X+7112065Y-4140106D01*
X+5937580Y-4139680D01*
X+5937061Y-4140199D01*
X-3079563Y-4140199D01*
X-3081856Y-4137906D01*
X-3359108Y-4137906D01*
X-3500958Y-3996056D01*
X-3500958Y-2948297D01*
X-3530599Y-2918656D01*
X-3530599Y-2834488D01*
X-3488258Y-2792147D01*
X-3488258Y-2737000D01*
X-3748759Y-2476499D01*
X-3808731Y-2476499D01*
X-3808731Y-2635249D01*
X-3860801Y-2635249D01*
X-3860801Y-2926167D01*
X-3905437Y-2970803D01*
X-3905439Y-2970803D01*
X-4060605Y-3125969D01*
X-4165601Y-3125969D01*
X-4165601Y-3708399D01*
X-4470399Y-3708399D01*
X-4470399Y-3617903D01*
X-4690897Y-3617903D01*
X-4853499Y-3455302D01*
X-4853499Y-2792801D01*
X-5016499Y-2629802D01*
X-5016499Y-2604769D01*
X-5175249Y-2604769D01*
X-5175249Y-2348231D01*
X-5016499Y-2348231D01*
X-5016499Y-2287269D01*
X-5175249Y-2287269D01*
X-5175249Y-2222499D01*
X-5266251Y-2222499D01*
X-5266251Y-2287269D01*
X-5427706Y-2287269D01*
X-5427706Y-3181994D01*
X-5371199Y-3238501D01*
X-5359399Y-3238501D01*
X-5359399Y-2895601D01*
X-5054601Y-2895601D01*
X-5054601Y-3962399D01*
X-5359399Y-3962399D01*
X-5359399Y-3365499D01*
X-5423801Y-3365499D01*
X-5554704Y-3234596D01*
X-5554704Y-1430249D01*
X-5600701Y-1430249D01*
X-5600701Y-1522731D01*
X-5556251Y-1522731D01*
X-5556251Y-2287269D01*
X-5746749Y-2287269D01*
X-5746749Y-1522731D01*
X-5727699Y-1522731D01*
X-5727699Y-1430249D01*
X-5789399Y-1430249D01*
X-5789399Y-1120951D01*
X-5719549Y-1120951D01*
X-5719549Y-702749D01*
X-5779769Y-702749D01*
X-5779769Y-512251D01*
X-5523231Y-512251D01*
X-5523231Y-522251D01*
X-5318549Y-522251D01*
X-5428051Y-412749D01*
X-5779769Y-412749D01*
X-5779769Y-406399D01*
X-5942323Y-406399D01*
X-5994399Y-354323D01*
X-5994399Y-83665D01*
X-6002735Y-75329D01*
X-6113779Y-75329D01*
X-6113779Y+35715D01*
X-6589117Y+511053D01*
X-6589117Y+1597578D01*
X-6141996Y+2044699D01*
X-5173786Y+2044699D01*
X-5148386Y+2070099D01*
X-5011614Y+2070099D01*
X-4914901Y+1973386D01*
X-4914901Y+1836614D01*
X-5011614Y+1739901D01*
X-5148386Y+1739901D01*
X-5173786Y+1765301D01*
X-6026266Y+1765301D01*
X-6309719Y+1481848D01*
X-6309719Y+626783D01*
X-5808265Y+125329D01*
X-5697221Y+125329D01*
X-5697221Y-75329D01*
X-5808265Y-75329D01*
X-5816601Y-83665D01*
X-5816601Y-228601D01*
X-5779769Y-228601D01*
X-5779769Y-222251D01*
X-5328549Y-222251D01*
X-5437771Y-113029D01*
X-5587289Y-113029D01*
X-5587289Y+478467D01*
X-5654923Y+546101D01*
X-5697221Y+546101D01*
X-5697221Y+534671D01*
X-6113779Y+534671D01*
X-6113779Y+735329D01*
X-5994399Y+735329D01*
X-5994399Y+780001D01*
X-6026149Y+780001D01*
X-6026149Y+1160999D01*
X-5784851Y+1160999D01*
X-5784851Y+780001D01*
X-5816601Y+780001D01*
X-5816601Y+735329D01*
X-5697221Y+735329D01*
X-5697221Y+723899D01*
X-5677415Y+723899D01*
X-5666169Y+735145D01*
X-5592523Y+735145D01*
X-5400601Y+543223D01*
X-5400601Y+494029D01*
X-5391711Y+494029D01*
X-5391711Y+20511D01*
X-5148949Y-222251D01*
X-4761231Y-222251D01*
X-4761231Y-412749D01*
X-4923583Y-412749D01*
X-4826001Y-510331D01*
X-4826001Y-522251D01*
X-4761231Y-522251D01*
X-4761231Y-712749D01*
X-4938751Y-712749D01*
X-4938751Y-953769D01*
X-5080001Y-953769D01*
X-5080001Y-1004202D01*
X-5086351Y-1010552D01*
X-5086351Y-1175585D01*
X-5105401Y-1194635D01*
X-5105401Y-1430249D01*
X-5359399Y-1430249D01*
X-5359399Y-1120951D01*
X-5200649Y-1120951D01*
X-5200649Y-1010552D01*
X-5206999Y-1004202D01*
X-5206998Y-792700D01*
X-5206999Y-702749D01*
X-5238751Y-702749D01*
X-5238751Y-953769D01*
X-5372469Y-953769D01*
X-5427706Y-1009006D01*
X-5427706Y-1522731D01*
X-5256251Y-1522731D01*
X-5256251Y-1779269D01*
X-5266251Y-1779269D01*
X-5266251Y-2095501D01*
X-5175249Y-2095501D01*
X-5175249Y-1522731D01*
X-4984751Y-1522731D01*
X-4984751Y-1587501D01*
X-4970601Y-1587501D01*
X-4889501Y-1668601D01*
X-4889501Y-2095501D01*
X-4885249Y-2095501D01*
X-4885249Y-2030731D01*
X-4875249Y-2030731D01*
X-4875249Y-1522731D01*
X-4684751Y-1522731D01*
X-4684751Y-2033269D01*
X-4694751Y-2033269D01*
X-4694751Y-2287269D01*
X-4885249Y-2287269D01*
X-4885249Y-2222499D01*
X-4889501Y-2222499D01*
X-4889501Y-2577199D01*
X-4885249Y-2581451D01*
X-4885249Y-2348231D01*
X-4694751Y-2348231D01*
X-4694751Y-2604769D01*
X-4861931Y-2604769D01*
X-4726501Y-2740198D01*
X-4726501Y-3402699D01*
X-4638295Y-3490905D01*
X-4470399Y-3490905D01*
X-4470399Y-3357997D01*
X-4564547Y-3357997D01*
X-4699156Y-3223389D01*
X-4699156Y-2795355D01*
X-4661958Y-2758158D01*
X-4576249Y-2672449D01*
X-4576249Y-2541269D01*
X-4586249Y-2541269D01*
X-4586249Y-2284731D01*
X-4395751Y-2284731D01*
X-4395751Y-2538731D01*
X-4385751Y-2538731D01*
X-4385751Y-2795269D01*
X-4519469Y-2795269D01*
X-4572158Y-2847958D01*
X-4572158Y-3170786D01*
X-4511945Y-3230999D01*
X-4470399Y-3230999D01*
X-4470399Y-2895601D01*
X-4165601Y-2895601D01*
X-4165601Y-2973571D01*
X-4123727Y-2973571D01*
X-4013199Y-2863043D01*
X-4013199Y-2635249D01*
X-4065269Y-2635249D01*
X-4065269Y-2476499D01*
X-4095751Y-2476499D01*
X-4095751Y-2795269D01*
X-4286249Y-2795269D01*
X-4286249Y-2730499D01*
X-4317790Y-2730499D01*
X-4380882Y-2667407D01*
X-4380882Y-2247899D01*
X-4641849Y-2247899D01*
X-4641849Y-1968501D01*
X-4255096Y-1968501D01*
X-4255096Y-1952033D01*
X-4189014Y-1885951D01*
X-4083049Y-1885951D01*
X-4083049Y-1879601D01*
X-3917951Y-1879601D01*
X-3917951Y-2019299D01*
X-4083049Y-2019299D01*
X-4083049Y-2012949D01*
X-4121151Y-2012949D01*
X-4121151Y-2247899D01*
X-4127501Y-2247899D01*
X-4127501Y-2284731D01*
X-4095751Y-2284731D01*
X-4095751Y-2349501D01*
X-3696157Y-2349501D01*
X-3361260Y-2684398D01*
X-3361260Y-2800629D01*
X-3327401Y-2834488D01*
X-3327401Y-2918656D01*
X-3348560Y-2939815D01*
X-3348560Y-3932934D01*
X-3295986Y-3985508D01*
X-3018732Y-3985508D01*
X-3016439Y-3987801D01*
X-1333499Y-3987801D01*
X-1333499Y-2493184D01*
X-1357804Y-2468879D01*
X-1708151Y-2468879D01*
X-1708151Y-2787649D01*
X-1898649Y-2787649D01*
X-1898649Y-2722551D01*
X-1924893Y-2722551D01*
X-1993898Y-2653546D01*
X-1993898Y-2627244D01*
X-1993899Y-2240279D01*
X-2254249Y-2240279D01*
X-2254249Y-1960881D01*
X-1829701Y-1960881D01*
X-1766201Y-1897381D01*
X-1695449Y-1897381D01*
X-1695449Y-1891031D01*
X-1530351Y-1891031D01*
X-1530351Y-2030729D01*
X-1695449Y-2030729D01*
X-1695449Y-2024379D01*
X-1713599Y-2024379D01*
X-1733551Y-2044331D01*
X-1733551Y-2240279D01*
X-1739901Y-2240279D01*
X-1739901Y-2277111D01*
X-1708151Y-2277111D01*
X-1708151Y-2341881D01*
X-1677669Y-2341881D01*
X-1677669Y-2183131D01*
X-1543951Y-2183131D01*
X-1424939Y-2064119D01*
X-1424939Y-1668779D01*
X-1443989Y-1668779D01*
X-1443989Y-1490981D01*
X-1278891Y-1490981D01*
X-1278891Y-1668779D01*
X-1297941Y-1668779D01*
X-1297941Y-2116721D01*
X-1421131Y-2239911D01*
X-1421131Y-2341881D01*
X-1342564Y-2341881D01*
X-1312084Y-2311401D01*
X-1227916Y-2311401D01*
X-1168401Y-2370916D01*
X-1168401Y-2455084D01*
X-1206501Y-2493184D01*
X-1206501Y-3987801D01*
X+952501Y-3987801D01*
X+952501Y-2627629D01*
X+927099Y-2627629D01*
X+927098Y-2721976D01*
X+927099Y-2937874D01*
X+889901Y-2975071D01*
X+753473Y-3111499D01*
X+723899Y-3111499D01*
X+723899Y-3708399D01*
X+419101Y-3708399D01*
X+419101Y-3619498D01*
X+412750Y-3619498D01*
X+227698Y-3619499D01*
X+190501Y-3582301D01*
X-116820Y-3274980D01*
X-116820Y-3248678D01*
X-116821Y-2541269D01*
X-258249Y-2541269D01*
X-258249Y-2284731D01*
X-116821Y-2284731D01*
X-116821Y-2197147D01*
X-184151Y-2129817D01*
X-184151Y-2279649D01*
X-374649Y-2279649D01*
X-374649Y-2214879D01*
X-529151Y-2214879D01*
X-529151Y-2279649D01*
X-698501Y-2279649D01*
X-698501Y-2566301D01*
X-977901Y-2845701D01*
X-977901Y-2899584D01*
X-1037416Y-2959099D01*
X-1121584Y-2959099D01*
X-1181099Y-2899584D01*
X-1181099Y-2815416D01*
X-1121584Y-2755901D01*
X-1067701Y-2755901D01*
X-825499Y-2513699D01*
X-825499Y-2279649D01*
X-1009649Y-2279649D01*
X-1009649Y-1515111D01*
X-957049Y-1515111D01*
X-957049Y-1417549D01*
X-1026899Y-1417549D01*
X-1026899Y-1108251D01*
X-957049Y-1108251D01*
X-957049Y-695129D01*
X-1042669Y-695129D01*
X-1042669Y-504631D01*
X-786131Y-504631D01*
X-786131Y-514631D01*
X-545449Y-514631D01*
X-654951Y-405129D01*
X-1042669Y-405129D01*
X-1042669Y-214631D01*
X-977899Y-214631D01*
X-977899Y-67709D01*
X-1122679Y-67709D01*
X-1122679Y-56279D01*
X-1145261Y-56279D01*
X-1276379Y+74839D01*
X-1276379Y+1944584D01*
X-1061964Y+2158999D01*
X-166377Y+2158999D01*
X-13977Y+2006599D01*
X+42986Y+2006599D01*
X+139699Y+1909886D01*
X+139699Y+1773114D01*
X+42986Y+1676401D01*
X-93786Y+1676401D01*
X-190499Y+1773114D01*
X-190499Y+1909886D01*
X-179604Y+1920782D01*
X-240023Y+1981201D01*
X-988318Y+1981201D01*
X-1098581Y+1870938D01*
X-1098581Y+742949D01*
X-1035049Y+742949D01*
X-1035049Y+1105119D01*
X-793751Y+1105119D01*
X-793751Y+742949D01*
X-706121Y+742949D01*
X-706121Y+731519D01*
X-623577Y+731519D01*
X-508001Y+615943D01*
X-508001Y+501649D01*
X-499111Y+501649D01*
X-499111Y+190131D01*
X-342902Y+33922D01*
X-342902Y+7620D01*
X-342901Y-214631D01*
X-24131Y-214631D01*
X-24131Y-405129D01*
X-221351Y-405129D01*
X-111849Y-514631D01*
X-24131Y-514631D01*
X-24131Y-705129D01*
X-138151Y-705129D01*
X-138151Y-946149D01*
X-328649Y-946149D01*
X-328649Y-695129D01*
X-334378Y-695129D01*
X-334378Y-1185518D01*
X-342901Y-1194041D01*
X-342901Y-1417549D01*
X-596899Y-1417549D01*
X-596899Y-1108251D01*
X-448674Y-1108251D01*
X-448674Y-946149D01*
X-628649Y-946149D01*
X-628649Y-925692D01*
X-660401Y-957444D01*
X-660401Y-1515111D01*
X-529151Y-1515111D01*
X-529151Y-1769111D01*
X-519151Y-1769111D01*
X-519151Y-2025649D01*
X-529151Y-2025649D01*
X-529151Y-2087881D01*
X-374649Y-2087881D01*
X-374649Y-1515111D01*
X-184151Y-1515111D01*
X-184151Y-1579881D01*
X-155724Y-1579881D01*
X-74649Y-1660956D01*
X-74649Y-1515111D01*
X+115849Y-1515111D01*
X+115849Y-2025649D01*
X+105849Y-2025649D01*
X+105849Y-2279649D01*
X+10177Y-2279649D01*
X+10177Y-2439401D01*
X+10176Y-3222376D01*
X+280301Y-3492501D01*
X+419101Y-3492502D01*
X+419101Y-3364301D01*
X+256101Y-3201302D01*
X+256101Y-2787649D01*
X+224351Y-2787649D01*
X+224351Y-2533649D01*
X+222249Y-2533649D01*
X+222249Y-2541269D01*
X+31751Y-2541269D01*
X+31751Y-2284731D01*
X+214351Y-2284731D01*
X+214351Y-2277111D01*
X+404849Y-2277111D01*
X+404849Y-2531111D01*
X+414849Y-2531111D01*
X+414849Y-2787649D01*
X+383099Y-2787649D01*
X+383099Y-3148699D01*
X+419101Y-3184701D01*
X+419101Y-2895601D01*
X+723899Y-2895601D01*
X+723899Y-2961473D01*
X+800101Y-2885271D01*
X+800102Y-2721976D01*
X+800101Y-2627629D01*
X+735331Y-2627629D01*
X+735331Y-2468879D01*
X+704849Y-2468879D01*
X+704849Y-2787649D01*
X+514351Y-2787649D01*
X+514351Y-2721467D01*
X+479817Y-2721467D01*
X+419101Y-2660751D01*
X+419101Y-2240279D01*
X+158751Y-2240279D01*
X+158751Y-1960881D01*
X+546381Y-1960881D01*
X+546381Y-1951252D01*
X+600252Y-1897381D01*
X+717551Y-1897381D01*
X+717551Y-1891031D01*
X+882649Y-1891031D01*
X+882649Y-2030729D01*
X+717551Y-2030729D01*
X+717551Y-2024379D01*
X+679449Y-2024379D01*
X+679449Y-2240279D01*
X+673099Y-2240279D01*
X+673099Y-2277111D01*
X+704849Y-2277111D01*
X+704849Y-2341881D01*
X+1006936Y-2341881D01*
X+1037416Y-2311401D01*
X+1121584Y-2311401D01*
X+1181099Y-2370916D01*
X+1181099Y-2455084D01*
X+1121584Y-2514599D01*
X+1079499Y-2514599D01*
X+1079499Y-3987801D01*
X+3365501Y-3987801D01*
X+3365501Y-3346263D01*
X+3352801Y-3333563D01*
X+3352801Y-3270437D01*
X+3365501Y-3257737D01*
X+3365501Y-2978376D01*
X+3363769Y-2976644D01*
X+3363769Y-2663629D01*
X+3340099Y-2663629D01*
X+3340099Y-2900169D01*
X+3302901Y-2937366D01*
X+3136899Y-3103368D01*
X+3136899Y-3708399D01*
X+2832101Y-3708399D01*
X+2832101Y-3610787D01*
X+2500240Y-3610787D01*
X+2296601Y-3407148D01*
X+2296601Y-2541269D01*
X+2154751Y-2541269D01*
X+2154751Y-2284731D01*
X+2296602Y-2284731D01*
X+2296602Y-2279649D01*
X+2264851Y-2279649D01*
X+2264851Y-2210594D01*
X+2245511Y-2210594D01*
X+2165349Y-2130432D01*
X+2165349Y-2279649D01*
X+1974851Y-2279649D01*
X+1974851Y-2214879D01*
X+1883849Y-2214879D01*
X+1883849Y-2279649D01*
X+1714499Y-2279649D01*
X+1714499Y-2593190D01*
X+1561268Y-2746422D01*
X+1561266Y-2746422D01*
X+1372788Y-2934900D01*
X+1286024Y-2934359D01*
X+1248584Y-2971799D01*
X+1164416Y-2971799D01*
X+1104901Y-2912284D01*
X+1104901Y-2828116D01*
X+1164416Y-2768601D01*
X+1248584Y-2768601D01*
X+1287166Y-2807183D01*
X+1320608Y-2807480D01*
X+1587501Y-2540585D01*
X+1587501Y-2279649D01*
X+1403351Y-2279649D01*
X+1403351Y-1515111D01*
X+1435101Y-1515111D01*
X+1435101Y-1416049D01*
X+1371601Y-1416049D01*
X+1371601Y-1106751D01*
X+1441451Y-1106751D01*
X+1441452Y-854508D01*
X+1559395Y-736565D01*
X+1559395Y-659129D01*
X+1370331Y-659129D01*
X+1370331Y-468631D01*
X+1867551Y-468631D01*
X+1758049Y-359129D01*
X+1626869Y-359129D01*
X+1626869Y-369129D01*
X+1370331Y-369129D01*
X+1370331Y-178631D01*
X+1435101Y-178631D01*
X+1435101Y-67709D01*
X+1290321Y-67709D01*
X+1290321Y+115177D01*
X+1068213Y+337285D01*
X+1068213Y+2002562D01*
X+1325820Y+2260169D01*
X+2135083Y+2260169D01*
X+2311399Y+2083853D01*
X+2311399Y+1986086D01*
X+2387599Y+1909886D01*
X+2387599Y+1773114D01*
X+2290886Y+1676401D01*
X+2154114Y+1676401D01*
X+2057401Y+1773114D01*
X+2057401Y+1909886D01*
X+2133601Y+1986086D01*
X+2133601Y+2010207D01*
X+2061437Y+2082371D01*
X+1399466Y+2082371D01*
X+1246011Y+1928916D01*
X+1246011Y+410931D01*
X+1523993Y+132949D01*
X+1706879Y+132949D01*
X+1706879Y-67709D01*
X+1562099Y-67709D01*
X+1562099Y-178631D01*
X+1624331Y-178631D01*
X+1624331Y-168631D01*
X+1880869Y-168631D01*
X+1880869Y-178631D01*
X+1943101Y-178631D01*
X+1943101Y-18681D01*
X+1913889Y+10531D01*
X+1913889Y-105409D01*
X+1718311Y-105409D01*
X+1718311Y+501649D01*
X+1727201Y+501649D01*
X+1727201Y+542297D01*
X+1715777Y+553721D01*
X+1706879Y+553721D01*
X+1706879Y+542291D01*
X+1290321Y+542291D01*
X+1290321Y+742949D01*
X+1377951Y+742949D01*
X+1377951Y+1105119D01*
X+1619249Y+1105119D01*
X+1619249Y+742949D01*
X+1706879Y+742949D01*
X+1706879Y+731519D01*
X+1789423Y+731519D01*
X+1904999Y+615943D01*
X+1904999Y+501649D01*
X+1913889Y+501649D01*
X+1913889Y+190131D01*
X+2070099Y+33921D01*
X+2070099Y-178631D01*
X+2132331Y-178631D01*
X+2132331Y-168631D01*
X+2388869Y-168631D01*
X+2388869Y-359129D01*
X+2181649Y-359129D01*
X+2291151Y-468631D01*
X+2388869Y-468631D01*
X+2388869Y-659129D01*
X+2063749Y-659129D01*
X+2063749Y-961883D01*
X+1985749Y-1039883D01*
X+1985749Y-1106751D01*
X+2055599Y-1106751D01*
X+2055599Y-1416049D01*
X+1801601Y-1416049D01*
X+1801601Y-1112679D01*
X+1752599Y-1161681D01*
X+1752599Y-1448701D01*
X+1714499Y-1486801D01*
X+1714499Y-1515111D01*
X+1883849Y-1515111D01*
X+1883849Y-1769111D01*
X+1893849Y-1769111D01*
X+1893849Y-2025649D01*
X+1883849Y-2025649D01*
X+1883849Y-2087881D01*
X+1974851Y-2087881D01*
X+1974851Y-1515111D01*
X+2165349Y-1515111D01*
X+2165349Y-1579881D01*
X+2186159Y-1579881D01*
X+2274851Y-1668573D01*
X+2274851Y-1515111D01*
X+2465349Y-1515111D01*
X+2465349Y-2025649D01*
X+2455349Y-2025649D01*
X+2455349Y-2279649D01*
X+2423598Y-2279649D01*
X+2423598Y-2282190D01*
X+2423599Y-2413000D01*
X+2423599Y-3354546D01*
X+2552842Y-3483789D01*
X+2832101Y-3483789D01*
X+2832101Y-3362790D01*
X+2764990Y-3362790D01*
X+2667001Y-3264802D01*
X+2667001Y-2787649D01*
X+2637351Y-2787649D01*
X+2637351Y-2533649D01*
X+2635249Y-2533649D01*
X+2635249Y-2541269D01*
X+2444751Y-2541269D01*
X+2444751Y-2284731D01*
X+2627351Y-2284731D01*
X+2627351Y-2277111D01*
X+2817849Y-2277111D01*
X+2817849Y-2531111D01*
X+2827849Y-2531111D01*
X+2827849Y-2787649D01*
X+2793999Y-2787649D01*
X+2793999Y-3212199D01*
X+2817592Y-3235792D01*
X+2832101Y-3235792D01*
X+2832101Y-2895601D01*
X+3136899Y-2895601D01*
X+3136899Y-2923768D01*
X+3213101Y-2847566D01*
X+3213101Y-2663629D01*
X+3148331Y-2663629D01*
X+3148331Y-2473131D01*
X+3357225Y-2473131D01*
X+3352973Y-2468879D01*
X+3117849Y-2468879D01*
X+3117849Y-2787649D01*
X+2927351Y-2787649D01*
X+2927351Y-2722879D01*
X+2899126Y-2722879D01*
X+2832101Y-2655854D01*
X+2832101Y-2240279D01*
X+2571751Y-2240279D01*
X+2571751Y-1960881D01*
X+2970948Y-1960881D01*
X+3034448Y-1897381D01*
X+3130551Y-1897381D01*
X+3130551Y-1891031D01*
X+3295649Y-1891031D01*
X+3295649Y-2030729D01*
X+3130551Y-2030729D01*
X+3130551Y-2024379D01*
X+3092449Y-2024379D01*
X+3092449Y-2240279D01*
X+3086099Y-2240279D01*
X+3086099Y-2277111D01*
X+3117849Y-2277111D01*
X+3117849Y-2341881D01*
X+3148331Y-2341881D01*
X+3148331Y-2183131D01*
X+3282049Y-2183131D01*
X+3401061Y-2064119D01*
X+3401061Y-1668779D01*
X+3382011Y-1668779D01*
X+3382011Y-1490981D01*
X+3547109Y-1490981D01*
X+3547109Y-1668779D01*
X+3528059Y-1668779D01*
X+3528059Y-2116721D01*
X+3404869Y-2239911D01*
X+3404869Y-2341881D01*
X+3405576Y-2341881D01*
X+3490767Y-2427072D01*
X+3490766Y-2623687D01*
X+3490767Y-2767698D01*
X+3490767Y-2924042D01*
X+3492499Y-2925774D01*
X+3492499Y-3257737D01*
X+3505199Y-3270437D01*
X+3505199Y-3333563D01*
X+3492499Y-3346263D01*
X+3492499Y-3987801D01*
X+5715001Y-3987801D01*
X+5715001Y-3008999D01*
X+5842001Y-2881999D01*
X+5842001Y-2468879D01*
X+5817869Y-2468879D01*
X+5817869Y-2627629D01*
X+5778498Y-2627629D01*
X+5778499Y-2883802D01*
X+5741301Y-2920999D01*
X+5613399Y-3048901D01*
X+5613399Y-3708399D01*
X+5308601Y-3708399D01*
X+5308601Y-3619499D01*
X+4926699Y-3619499D01*
X+4762501Y-3455301D01*
X+4762501Y-2481110D01*
X+4758249Y-2476858D01*
X+4758249Y-2541269D01*
X+4567751Y-2541269D01*
X+4567751Y-2284731D01*
X+4720692Y-2284731D01*
X+4720692Y-2203773D01*
X+4669349Y-2152430D01*
X+4669349Y-2279649D01*
X+4478851Y-2279649D01*
X+4478851Y-2214879D01*
X+4296849Y-2214879D01*
X+4296849Y-2279649D01*
X+4157190Y-2279649D01*
X+4157190Y-2484008D01*
X+4619583Y-2946401D01*
X+4677584Y-2946401D01*
X+4737099Y-3005916D01*
X+4737099Y-3090084D01*
X+4677584Y-3149599D01*
X+4593416Y-3149599D01*
X+4533901Y-3090084D01*
X+4533901Y-3040319D01*
X+4030192Y-2536610D01*
X+4030192Y-1812241D01*
X+4025901Y-1807950D01*
X+4025901Y-1428749D01*
X+3968749Y-1428749D01*
X+3968748Y-1515111D01*
X+4006849Y-1515111D01*
X+4006849Y-2279649D01*
X+3816351Y-2279649D01*
X+3816351Y-1515111D01*
X+3854452Y-1515111D01*
X+3854452Y-1507490D01*
X+3854451Y-1428749D01*
X+3784601Y-1428749D01*
X+3784601Y-1119451D01*
X+3854451Y-1119451D01*
X+3854451Y-926428D01*
X+3976905Y-803974D01*
X+3976905Y-695129D01*
X+3783331Y-695129D01*
X+3783331Y-504631D01*
X+4039869Y-504631D01*
X+4039869Y-514631D01*
X+4280551Y-514631D01*
X+4171049Y-405129D01*
X+3783331Y-405129D01*
X+3783331Y-214631D01*
X+3848101Y-214631D01*
X+3848101Y-67709D01*
X+3703321Y-67709D01*
X+3703321Y+115177D01*
X+3453208Y+365290D01*
X+3453208Y+1985644D01*
X+3423365Y+1955801D01*
X+3327399Y+1955801D01*
X+3327399Y+1598825D01*
X+3136899Y+1408325D01*
X+3136899Y+1212849D01*
X+3435349Y+1212849D01*
X+3435349Y+438151D01*
X+2660651Y+438151D01*
X+2660651Y+1212849D01*
X+2959101Y+1212849D01*
X+2959101Y+1481971D01*
X+3149601Y+1672471D01*
X+3149601Y+2022756D01*
X+3124201Y+2048156D01*
X+3124201Y+2487495D01*
X+983811Y+2487495D01*
X+983811Y+2235199D01*
X+1010365Y+2235199D01*
X+1092199Y+2153365D01*
X+1092199Y+2037635D01*
X+1010365Y+1955801D01*
X+958411Y+1955801D01*
X+958411Y+1573636D01*
X+723899Y+1339124D01*
X+723899Y+1212849D01*
X+1022349Y+1212849D01*
X+1022349Y+438151D01*
X+247651Y+438151D01*
X+247651Y+1212849D01*
X+546101Y+1212849D01*
X+546101Y+1412770D01*
X+780613Y+1647282D01*
X+780613Y+2022756D01*
X+755213Y+2048156D01*
X+755213Y+2487495D01*
X-1282701Y+2487495D01*
X-1282701Y+2235199D01*
X-1275635Y+2235199D01*
X-1193801Y+2153365D01*
X-1193801Y+2037635D01*
X-1275635Y+1955801D01*
X-1308101Y+1955801D01*
X-1308101Y+1614177D01*
X-1689101Y+1233177D01*
X-1689101Y+1212849D01*
X-1390651Y+1212849D01*
X-1390651Y+438151D01*
X-2165349Y+438151D01*
X-2165349Y+1212849D01*
X-1866899Y+1212849D01*
X-1866899Y+1306823D01*
X-1485899Y+1687823D01*
X-1485899Y+2022756D01*
X-1511299Y+2048156D01*
X-1511299Y+2487495D01*
X-4114801Y+2487495D01*
X-4114801Y+2058329D01*
X-4089402Y+2032930D01*
X-4089402Y+1896158D01*
X-4165601Y+1819959D01*
X-4165601Y+1205229D01*
X-3867151Y+1205229D01*
X-3867151Y+482411D01*
X-3736928Y+352188D01*
X-3736928Y+2008492D01*
X-3513064Y+2232356D01*
X-2381269Y+2232356D01*
X-2184401Y+2035488D01*
X-2184401Y+1986086D01*
X-2108201Y+1909886D01*
X-2108201Y+1773114D01*
X-2204914Y+1676401D01*
X-2341686Y+1676401D01*
X-2438399Y+1773114D01*
X-2438399Y+1909886D01*
X-2374321Y+1973964D01*
X-2454915Y+2054558D01*
X-3439418Y+2054558D01*
X-3559130Y+1934846D01*
X-3559130Y+390072D01*
X-3302007Y+132949D01*
X-3119121Y+132949D01*
X-3119121Y-67709D01*
X-3263901Y-67709D01*
X-3263901Y-178631D01*
X-3201669Y-178631D01*
X-3201669Y-168631D01*
X-2945131Y-168631D01*
X-2945131Y-178631D01*
X-2882899Y-178631D01*
X-2882899Y-18681D01*
X-2912111Y+10531D01*
X-2912111Y-105409D01*
X-3107689Y-105409D01*
X-3107689Y+501649D01*
X-3098799Y+501649D01*
X-3098799Y+542297D01*
X-3110223Y+553721D01*
X-3119121Y+553721D01*
X-3119121Y+542291D01*
X-3535679Y+542291D01*
X-3535679Y+742949D01*
X-3448049Y+742949D01*
X-3448049Y+1105119D01*
X-3206751Y+1105119D01*
X-3206751Y+742949D01*
X-3119121Y+742949D01*
X-3119121Y+731519D01*
X-3036577Y+731519D01*
X-2921001Y+615943D01*
X-2921001Y+501649D01*
X-2912111Y+501649D01*
X-2912111Y+190131D01*
X-2755901Y+33921D01*
X-2755901Y-178631D01*
X-2693669Y-178631D01*
X-2693669Y-168631D01*
X-2437131Y-168631D01*
X-2437131Y-359129D01*
X-2644351Y-359129D01*
X-2534849Y-468631D01*
X-2437131Y-468631D01*
X-2437131Y-659129D01*
X-2762252Y-659129D01*
X-2762252Y-689611D01*
X-2597151Y-689611D01*
X-2597151Y-946149D01*
X-2762252Y-946149D01*
X-2762252Y-1108251D01*
X-2743201Y-1108251D01*
X-2743201Y-1417549D01*
X-2997199Y-1417549D01*
X-2997199Y-1108251D01*
X-2890871Y-1108251D01*
X-2876548Y-1093928D01*
X-2876548Y-659129D01*
X-3243051Y-659129D01*
X-3243051Y-1108251D01*
X-3189229Y-1108251D01*
X-3189229Y-848928D01*
X-3099789Y-759488D01*
X-3087649Y-759488D01*
X-3087649Y-689611D01*
X-2897151Y-689611D01*
X-2897151Y-946149D01*
X-3074931Y-946149D01*
X-3074931Y-1220274D01*
X-3142206Y-1287549D01*
X-3173201Y-1287549D01*
X-3173201Y-1417549D01*
X-3270251Y-1417549D01*
X-3270251Y-1515111D01*
X-3232151Y-1515111D01*
X-3232151Y-2279649D01*
X-3378555Y-2279649D01*
X-3140974Y-2517230D01*
X-3140972Y-2517230D01*
X-3096336Y-2561866D01*
X-3096336Y-3808481D01*
X-3073401Y-3831416D01*
X-3073401Y-3915584D01*
X-3132916Y-3975099D01*
X-3217084Y-3975099D01*
X-3276599Y-3915584D01*
X-3276599Y-3831416D01*
X-3248734Y-3803551D01*
X-3248734Y-2624990D01*
X-3607192Y-2266532D01*
X-3607192Y-857061D01*
X-3619975Y-844278D01*
X-3682361Y-844278D01*
X-3707761Y-869678D01*
X-3791929Y-869678D01*
X-3851444Y-810163D01*
X-3851444Y-725995D01*
X-3791929Y-666480D01*
X-3707761Y-666480D01*
X-3682361Y-691880D01*
X-3556853Y-691880D01*
X-3499432Y-749301D01*
X-3499430Y-749301D01*
X-3454794Y-793937D01*
X-3454794Y-1173252D01*
X-3427199Y-1173252D01*
X-3427199Y-1108251D01*
X-3357349Y-1108251D01*
X-3357349Y-659129D01*
X-3455669Y-659129D01*
X-3455669Y-468631D01*
X-2958449Y-468631D01*
X-3067951Y-359129D01*
X-3199131Y-359129D01*
X-3199131Y-369129D01*
X-3455669Y-369129D01*
X-3455669Y-178631D01*
X-3390899Y-178631D01*
X-3390899Y-67709D01*
X-3535679Y-67709D01*
X-3535679Y+115177D01*
X-3644901Y+224399D01*
X-3644901Y+148416D01*
X-3704416Y+88901D01*
X-3788584Y+88901D01*
X-3848099Y+148416D01*
X-3848099Y+232584D01*
X-3840472Y+240212D01*
X-4030791Y+430531D01*
X-4641849Y+430531D01*
X-4641849Y+1205229D01*
X-4343399Y+1205229D01*
X-4343399Y+1801037D01*
X-4429059Y+1886697D01*
X-4429059Y+2023469D01*
X-4394199Y+2058329D01*
X-4394199Y+2667044D01*
X-4377075Y+2684168D01*
X-4377075Y+2685059D01*
X-4295241Y+2766893D01*
X+5531186Y+2766893D01*
X+5581986Y+2716093D01*
X+6997701Y+1773114D02*
X+6997701Y+1909886D01*
X+7094414Y+2006599D01*
X+7231186Y+2006599D01*
X+7327899Y+1909886D01*
X+7327899Y+1773114D01*
X+7231186Y+1676401D01*
X+7094414Y+1676401D01*
X+6997701Y+1773114D01*
X+7230109Y+936833D02*
X+7394499Y+772443D01*
X+7394499Y+501649D01*
X+7403389Y+501649D01*
X+7403389Y+226053D01*
X+7405923Y+223519D01*
X+7531101Y+223519D01*
X+7531101Y+299719D01*
X+7759699Y+299719D01*
X+7759699Y-30479D01*
X+7689849Y-30479D01*
X+7689849Y-247649D01*
X+7612099Y-247649D01*
X+7612099Y-626111D01*
X+7620001Y-626111D01*
X+7620001Y-521479D01*
X+7787483Y-353997D01*
X+7974331Y-353997D01*
X+7974331Y-314131D01*
X+8230869Y-314131D01*
X+8230869Y-447849D01*
X+8260079Y-477059D01*
X+8260079Y-1300481D01*
X+8279129Y-1300481D01*
X+8279129Y-1478279D01*
X+8114031Y-1478279D01*
X+8114031Y-1300481D01*
X+8133081Y-1300481D01*
X+8133081Y-529661D01*
X+8108049Y-504629D01*
X+7974331Y-504629D01*
X+7974331Y-480993D01*
X+7840087Y-480993D01*
X+7746999Y-574081D01*
X+7746999Y-1028701D01*
X+7785101Y-1028701D01*
X+7785101Y-882649D01*
X+7753351Y-882649D01*
X+7753351Y-626111D01*
X+7943849Y-626111D01*
X+7943849Y-882649D01*
X+7912099Y-882649D01*
X+7912099Y-1028701D01*
X+8039099Y-1028701D01*
X+8039099Y-1257299D01*
X+7912099Y-1257299D01*
X+7912099Y-1440181D01*
X+7918449Y-1440181D01*
X+7918449Y-1662431D01*
X+7956551Y-1662431D01*
X+7956551Y-1656081D01*
X+8020051Y-1656081D01*
X+8020051Y-1490981D01*
X+8185149Y-1490981D01*
X+8185149Y-1668779D01*
X+8121649Y-1668779D01*
X+8121649Y-1795779D01*
X+7956551Y-1795779D01*
X+7956551Y-1789429D01*
X+7848106Y-1789429D01*
X+7784392Y-1725715D01*
X+7784392Y-1719579D01*
X+7397751Y-1719579D01*
X+7397751Y-1440181D01*
X+7531101Y-1440181D01*
X+7531102Y-1270902D01*
X+7517499Y-1257299D01*
X+7327901Y-1257299D01*
X+7327901Y-1028701D01*
X+7485101Y-1028701D01*
X+7485101Y-882649D01*
X+7453351Y-882649D01*
X+7453351Y-626111D01*
X+7485101Y-626111D01*
X+7485101Y-139079D01*
X+7499351Y-124829D01*
X+7499351Y+8889D01*
X+7531101Y+8889D01*
X+7531101Y+45721D01*
X+7403389Y+45721D01*
X+7403389Y-105409D01*
X+7207811Y-105409D01*
X+7207811Y+501649D01*
X+7216701Y+501649D01*
X+7216701Y+698797D01*
X+7104387Y+811111D01*
X+6943091Y+811111D01*
X+6943091Y+1098129D01*
X+7230109Y+1098129D01*
X+7230109Y+936833D01*
X+8216899Y-24131D02*
X+8230869Y-24131D01*
X+8230869Y-214629D01*
X+7979849Y-214629D01*
X+7979849Y-247649D01*
X+7789351Y-247649D01*
X+7789351Y+8889D01*
X+7979849Y+8889D01*
X+7979849Y-24131D01*
X+7988301Y-24131D01*
X+7988301Y+299719D01*
X+8216899Y+299719D01*
X+8216899Y-24131D01*
X+2404109Y+936833D02*
X+2504999Y+835943D01*
X+2504999Y+501649D01*
X+2513889Y+501649D01*
X+2513889Y+226053D01*
X+2516423Y+223519D01*
X+2705101Y+223519D01*
X+2705101Y+299719D01*
X+2933699Y+299719D01*
X+2933699Y-30479D01*
X+2832099Y-30479D01*
X+2832099Y-54611D01*
X+2863849Y-54611D01*
X+2863849Y-311149D01*
X+2832099Y-311149D01*
X+2832099Y-1028701D01*
X+2867767Y-1028701D01*
X+2867767Y-980529D01*
X+2835062Y-947824D01*
X+2835062Y-539113D01*
X+2964793Y-409382D01*
X+2991095Y-409382D01*
X+3148331Y-409381D01*
X+3148331Y-377631D01*
X+3404869Y-377631D01*
X+3404869Y-511349D01*
X+3434079Y-540559D01*
X+3434079Y-1300481D01*
X+3453129Y-1300481D01*
X+3453129Y-1478279D01*
X+3288031Y-1478279D01*
X+3288031Y-1300481D01*
X+3307081Y-1300481D01*
X+3307081Y-593161D01*
X+3282049Y-568129D01*
X+3148331Y-568129D01*
X+3148331Y-536379D01*
X+3017397Y-536378D01*
X+2962060Y-591715D01*
X+2962060Y-626111D01*
X+3117849Y-626111D01*
X+3117849Y-759829D01*
X+3174998Y-816978D01*
X+3174998Y-843280D01*
X+3174999Y-1028701D01*
X+3276599Y-1028701D01*
X+3276599Y-1257299D01*
X+3087001Y-1257299D01*
X+3086099Y-1258201D01*
X+3086099Y-1440181D01*
X+3092449Y-1440181D01*
X+3092449Y-1662431D01*
X+3130551Y-1662431D01*
X+3130551Y-1656081D01*
X+3194051Y-1656081D01*
X+3194051Y-1490981D01*
X+3359149Y-1490981D01*
X+3359149Y-1668779D01*
X+3295649Y-1668779D01*
X+3295649Y-1795779D01*
X+3130551Y-1795779D01*
X+3130551Y-1789429D01*
X+3015349Y-1789429D01*
X+2959101Y-1733181D01*
X+2959101Y-1719579D01*
X+2571751Y-1719579D01*
X+2571751Y-1440181D01*
X+2705101Y-1440181D01*
X+2705101Y-1257299D01*
X+2565401Y-1257299D01*
X+2565401Y-1028701D01*
X+2705101Y-1028701D01*
X+2705101Y-882649D01*
X+2627351Y-882649D01*
X+2627351Y-626111D01*
X+2705101Y-626111D01*
X+2705101Y-311149D01*
X+2673351Y-311149D01*
X+2673351Y-54611D01*
X+2705101Y-54611D01*
X+2705101Y+45721D01*
X+2513889Y+45721D01*
X+2513889Y-105409D01*
X+2318311Y-105409D01*
X+2318311Y+501649D01*
X+2327201Y+501649D01*
X+2327201Y+762297D01*
X+2278387Y+811111D01*
X+2117091Y+811111D01*
X+2117091Y+1098129D01*
X+2404109Y+1098129D01*
X+2404109Y+936833D01*
X+3390899Y-30479D02*
X+3340098Y-30479D01*
X+3340099Y-87631D01*
X+3404869Y-87631D01*
X+3404869Y-278129D01*
X+3153849Y-278129D01*
X+3153849Y-311149D01*
X+2963351Y-311149D01*
X+2963351Y-54611D01*
X+3153849Y-54611D01*
X+3153849Y-87631D01*
X+3213101Y-87631D01*
X+3213102Y-30479D01*
X+3162301Y-30479D01*
X+3162301Y+299719D01*
X+3390899Y+299719D01*
X+3390899Y-30479D01*
X-8891Y+936833D02*
X+91999Y+835943D01*
X+91999Y+501649D01*
X+100889Y+501649D01*
X+100889Y+226053D01*
X+103423Y+223519D01*
X+292101Y+223519D01*
X+292101Y+299719D01*
X+520699Y+299719D01*
X+520699Y-30479D01*
X+419099Y-30479D01*
X+419099Y-54611D01*
X+450849Y-54611D01*
X+450849Y-311149D01*
X+419099Y-311149D01*
X+419099Y-493871D01*
X+528952Y-384018D01*
X+735331Y-384018D01*
X+735331Y-377631D01*
X+991869Y-377631D01*
X+991869Y-568129D01*
X+927099Y-568129D01*
X+927099Y-1269099D01*
X+958481Y-1300481D01*
X+1040129Y-1300481D01*
X+1040129Y-1478279D01*
X+875031Y-1478279D01*
X+875031Y-1396631D01*
X+800101Y-1321701D01*
X+800101Y-568129D01*
X+735331Y-568129D01*
X+735331Y-511016D01*
X+581554Y-511016D01*
X+510771Y-581799D01*
X+510771Y-1028701D01*
X+546101Y-1028701D01*
X+546101Y-882649D01*
X+514351Y-882649D01*
X+514351Y-626111D01*
X+704849Y-626111D01*
X+704849Y-882649D01*
X+673099Y-882649D01*
X+673099Y-1028701D01*
X+800099Y-1028701D01*
X+800099Y-1257299D01*
X+673099Y-1257299D01*
X+673099Y-1440181D01*
X+679449Y-1440181D01*
X+679449Y-1662431D01*
X+717551Y-1662431D01*
X+717551Y-1656081D01*
X+781051Y-1656081D01*
X+781051Y-1490981D01*
X+946149Y-1490981D01*
X+946149Y-1668779D01*
X+882649Y-1668779D01*
X+882649Y-1795779D01*
X+717551Y-1795779D01*
X+717551Y-1789429D01*
X+602349Y-1789429D01*
X+546101Y-1733181D01*
X+546101Y-1719579D01*
X+158751Y-1719579D01*
X+158751Y-1440181D01*
X+282641Y-1440181D01*
X+238443Y-1395983D01*
X+238443Y-1257299D01*
X+88901Y-1257299D01*
X+88901Y-1028701D01*
X+246101Y-1028701D01*
X+246101Y-882649D01*
X+214351Y-882649D01*
X+214351Y-626111D01*
X+292101Y-626111D01*
X+292101Y-311149D01*
X+260351Y-311149D01*
X+260351Y-54611D01*
X+292101Y-54611D01*
X+292101Y+45721D01*
X+100889Y+45721D01*
X+100889Y-105409D01*
X-94689Y-105409D01*
X-94689Y+501649D01*
X-85799Y+501649D01*
X-85799Y+762297D01*
X-134613Y+811111D01*
X-295909Y+811111D01*
X-295909Y+1098129D01*
X-8891Y+1098129D01*
X-8891Y+936833D01*
X+1134109Y-1668779D02*
X+1115059Y-1668779D01*
X+1115059Y-2080721D01*
X+991869Y-2203911D01*
X+991869Y-2337629D01*
X+735331Y-2337629D01*
X+735331Y-2147131D01*
X+869049Y-2147131D01*
X+988061Y-2028119D01*
X+988061Y-1668779D01*
X+969011Y-1668779D01*
X+969011Y-1490981D01*
X+1134109Y-1490981D01*
X+1134109Y-1668779D01*
X+977899Y-30479D02*
X+927098Y-30479D01*
X+927099Y-87631D01*
X+991869Y-87631D01*
X+991869Y-278129D01*
X+740849Y-278129D01*
X+740849Y-311149D01*
X+550351Y-311149D01*
X+550351Y-54611D01*
X+740849Y-54611D01*
X+740849Y-87631D01*
X+800101Y-87631D01*
X+800102Y-30479D01*
X+749301Y-30479D01*
X+749301Y+299719D01*
X+977899Y+299719D01*
X+977899Y-30479D01*
X-2421891Y+937137D02*
X-2397129Y+912446D01*
X-2321001Y+836318D01*
X-2321001Y+501649D01*
X-2312111Y+501649D01*
X-2312111Y+223519D01*
X-2120899Y+223519D01*
X-2120899Y+299719D01*
X-1892301Y+299719D01*
X-1892301Y-30479D01*
X-1993901Y-30479D01*
X-1993901Y-54611D01*
X-1962151Y-54611D01*
X-1962151Y-311149D01*
X-2039901Y-311149D01*
X-2039901Y-626111D01*
X-2031999Y-626111D01*
X-2031999Y-535476D01*
X-1884367Y-387844D01*
X-1677669Y-387844D01*
X-1677669Y-341631D01*
X-1421131Y-341631D01*
X-1421131Y-532129D01*
X-1485901Y-532129D01*
X-1485901Y-1269099D01*
X-1454519Y-1300481D01*
X-1372871Y-1300481D01*
X-1372871Y-1478279D01*
X-1537969Y-1478279D01*
X-1537969Y-1396631D01*
X-1612899Y-1321701D01*
X-1612899Y-532129D01*
X-1677669Y-532129D01*
X-1677669Y-514842D01*
X-1831765Y-514842D01*
X-1905001Y-588078D01*
X-1905001Y-1028701D01*
X-1866899Y-1028701D01*
X-1866899Y-882649D01*
X-1898649Y-882649D01*
X-1898649Y-626111D01*
X-1708151Y-626111D01*
X-1708151Y-882649D01*
X-1739901Y-882649D01*
X-1739901Y-1028701D01*
X-1612901Y-1028701D01*
X-1612901Y-1257299D01*
X-1739901Y-1257299D01*
X-1739901Y-1440181D01*
X-1733551Y-1440181D01*
X-1733551Y-1662431D01*
X-1695449Y-1662431D01*
X-1695449Y-1656081D01*
X-1631949Y-1656081D01*
X-1631949Y-1490981D01*
X-1466851Y-1490981D01*
X-1466851Y-1668779D01*
X-1530351Y-1668779D01*
X-1530351Y-1795779D01*
X-1695449Y-1795779D01*
X-1695449Y-1789429D01*
X-1810651Y-1789429D01*
X-1866899Y-1733181D01*
X-1866899Y-1719579D01*
X-2254249Y-1719579D01*
X-2254249Y-1440181D01*
X-2125155Y-1440181D01*
X-2222498Y-1342838D01*
X-2222498Y-1257299D01*
X-2324099Y-1257299D01*
X-2324099Y-1028701D01*
X-2166899Y-1028701D01*
X-2166899Y-882649D01*
X-2198649Y-882649D01*
X-2198649Y-626111D01*
X-2166899Y-626111D01*
X-2166899Y-202579D01*
X-2152649Y-188329D01*
X-2152649Y-54611D01*
X-2120899Y-54611D01*
X-2120899Y+45721D01*
X-2312111Y+45721D01*
X-2312111Y-105409D01*
X-2507689Y-105409D01*
X-2507689Y+501649D01*
X-2498799Y+501649D01*
X-2498799Y+762672D01*
X-2522851Y+786724D01*
X-2547353Y+811111D01*
X-2708909Y+811111D01*
X-2708909Y+1098129D01*
X-2421891Y+1098129D01*
X-2421891Y+937137D01*
X-1435101Y-30479D02*
X-1485901Y-30479D01*
X-1485901Y-51631D01*
X-1421131Y-51631D01*
X-1421131Y-242129D01*
X-1554849Y-242129D01*
X-1559099Y-246379D01*
X-1672151Y-246379D01*
X-1672151Y-311149D01*
X-1862649Y-311149D01*
X-1862649Y-54611D01*
X-1677669Y-54611D01*
X-1677669Y-51631D01*
X-1612899Y-51631D01*
X-1612899Y-30479D01*
X-1663699Y-30479D01*
X-1663699Y+299719D01*
X-1435101Y+299719D01*
X-1435101Y-30479D01*
X+7230109Y+1261111D02*
X+6943091Y+1261111D01*
X+6943091Y+1548129D01*
X+7230109Y+1548129D01*
X+7230109Y+1261111D01*
X+2404109Y+1261111D02*
X+2117091Y+1261111D01*
X+2117091Y+1548129D01*
X+2404109Y+1548129D01*
X+2404109Y+1261111D01*
X-8891Y+1261111D02*
X-295909Y+1261111D01*
X-295909Y+1548129D01*
X-8891Y+1548129D01*
X-8891Y+1261111D01*
X-2421891Y+1261111D02*
X-2708909Y+1261111D01*
X-2708909Y+1548129D01*
X-2421891Y+1548129D01*
X-2421891Y+1261111D01*
X-2297151Y-1771649D02*
X-2297151Y-2025649D01*
X-2307151Y-2025649D01*
X-2307151Y-2279649D01*
X-2404464Y-2279649D01*
X-2404464Y-3339578D01*
X-2252935Y-3491107D01*
X-1930399Y-3491107D01*
X-1930399Y-3365499D01*
X-1992701Y-3365499D01*
X-2156899Y-3201302D01*
X-2156899Y-2787649D01*
X-2188649Y-2787649D01*
X-2188649Y-2533649D01*
X-2190751Y-2533649D01*
X-2190751Y-2541269D01*
X-2381249Y-2541269D01*
X-2381249Y-2284731D01*
X-2198649Y-2284731D01*
X-2198649Y-2277111D01*
X-2008151Y-2277111D01*
X-2008151Y-2531111D01*
X-1998151Y-2531111D01*
X-1998151Y-2787649D01*
X-2029901Y-2787649D01*
X-2029901Y-3148699D01*
X-1940099Y-3238501D01*
X-1930399Y-3238501D01*
X-1930399Y-2895601D01*
X-1677301Y-2895601D01*
X-1612899Y-2831199D01*
X-1612899Y-2663629D01*
X-1677669Y-2663629D01*
X-1677669Y-2473131D01*
X-1421131Y-2473131D01*
X-1421131Y-2663629D01*
X-1485901Y-2663629D01*
X-1485901Y-2883802D01*
X-1523099Y-2920999D01*
X-1625601Y-3023501D01*
X-1625601Y-3708399D01*
X-1930399Y-3708399D01*
X-1930399Y-3618105D01*
X-2305537Y-3618105D01*
X-2531462Y-3392180D01*
X-2531462Y-2541269D01*
X-2671249Y-2541269D01*
X-2671249Y-2284731D01*
X-2531462Y-2284731D01*
X-2531462Y-2154642D01*
X-2528200Y-2151380D01*
X-2589207Y-2090373D01*
X-2589207Y-1756150D01*
X-2597151Y-1748206D01*
X-2597151Y-2279649D01*
X-2787649Y-2279649D01*
X-2787649Y-2214879D01*
X-2942151Y-2214879D01*
X-2942151Y-2279649D01*
X-3132649Y-2279649D01*
X-3132649Y-1769111D01*
X-3122649Y-1769111D01*
X-3122649Y-1515111D01*
X-2932151Y-1515111D01*
X-2932151Y-1771649D01*
X-2942151Y-1771649D01*
X-2942151Y-2087881D01*
X-2787649Y-2087881D01*
X-2787649Y-1515111D01*
X-2597151Y-1515111D01*
X-2597151Y-1572693D01*
X-2590834Y-1579010D01*
X-2590834Y-1579881D01*
X-2585876Y-1579881D01*
X-2487649Y-1678108D01*
X-2487649Y-1515111D01*
X-2297151Y-1515111D01*
X-2297151Y-1771649D01*
X+6445249Y+1168621D02*
X+6203951Y+1168621D01*
X+6203951Y+1549619D01*
X+6445249Y+1549619D01*
X+6445249Y+1168621D01*
X+1619249Y+1168621D02*
X+1377951Y+1168621D01*
X+1377951Y+1549619D01*
X+1619249Y+1549619D01*
X+1619249Y+1168621D01*
X-793751Y+1168621D02*
X-1035049Y+1168621D01*
X-1035049Y+1549619D01*
X-793751Y+1549619D01*
X-793751Y+1168621D01*
X-3206751Y+1168621D02*
X-3448049Y+1168621D01*
X-3448049Y+1549619D01*
X-3206751Y+1549619D01*
X-3206751Y+1168621D01*
X+2084351Y-689611D02*
X+2274849Y-689611D01*
X+2274849Y-946149D01*
X+2084351Y-946149D01*
X+2084351Y-689611D01*
X-3911601Y-38099D02*
X-3937001Y-38099D01*
X-3937001Y-95251D01*
X-3872231Y-95251D01*
X-3872231Y-285749D01*
X-4123251Y-285749D01*
X-4123251Y-318769D01*
X-4313749Y-318769D01*
X-4313749Y-62231D01*
X-4123251Y-62231D01*
X-4123251Y-95251D01*
X-4063999Y-95251D01*
X-4063999Y-38099D01*
X-4140199Y-38099D01*
X-4140199Y+292099D01*
X-3911601Y+292099D01*
X-3911601Y-38099D01*
X-4936491Y+970863D02*
X-4930880Y+963007D01*
X-4800601Y+832728D01*
X-4800601Y+494029D01*
X-4791711Y+494029D01*
X-4791711Y+218433D01*
X-4789177Y+215899D01*
X-4597399Y+215899D01*
X-4597399Y+292099D01*
X-4368801Y+292099D01*
X-4368801Y-38099D01*
X-4419601Y-38099D01*
X-4419601Y-62231D01*
X-4413251Y-62231D01*
X-4413251Y-318769D01*
X-4427501Y-318769D01*
X-4427501Y-633731D01*
X-4395751Y-633731D01*
X-4395751Y-890269D01*
X-4417502Y-890269D01*
X-4417502Y-1042811D01*
X-4395609Y-1042811D01*
X-4395609Y-540103D01*
X-4272507Y-417001D01*
X-4128769Y-417001D01*
X-4128769Y-385251D01*
X-3872231Y-385251D01*
X-3872231Y-575749D01*
X-3873501Y-575749D01*
X-3873501Y-1213219D01*
X-3842119Y-1244601D01*
X-3760471Y-1244601D01*
X-3760471Y-1422399D01*
X-3925569Y-1422399D01*
X-3925569Y-1340751D01*
X-3994911Y-1271409D01*
X-4078111Y-1271409D01*
X-4078111Y-1613801D01*
X-4115309Y-1650999D01*
X-4121151Y-1650999D01*
X-4121151Y-1651001D01*
X-4083049Y-1651001D01*
X-4083049Y-1644651D01*
X-3917951Y-1644651D01*
X-3917951Y-1784349D01*
X-4083049Y-1784349D01*
X-4083049Y-1777999D01*
X-4222551Y-1777999D01*
X-4260413Y-1740137D01*
X-4260413Y-1727199D01*
X-4641849Y-1727199D01*
X-4641849Y-1447801D01*
X-4508499Y-1447801D01*
X-4508499Y-1271409D01*
X-4687709Y-1271409D01*
X-4687709Y-1042811D01*
X-4544498Y-1042811D01*
X-4544498Y-890269D01*
X-4586249Y-890269D01*
X-4586249Y-633731D01*
X-4554499Y-633731D01*
X-4554499Y-318769D01*
X-4603749Y-318769D01*
X-4603749Y-62231D01*
X-4546599Y-62231D01*
X-4546599Y-38099D01*
X-4597399Y-38099D01*
X-4597399Y+38101D01*
X-4791711Y+38101D01*
X-4791711Y-113029D01*
X-4987289Y-113029D01*
X-4987289Y+494029D01*
X-4978399Y+494029D01*
X-4978399Y+759082D01*
X-5065586Y+846269D01*
X-5082389Y+866991D01*
X-5223509Y+866991D01*
X-5223509Y+1154009D01*
X-4936491Y+1154009D01*
X-4936491Y+970863D01*
X-4936491Y+1316991D02*
X-5223509Y+1316991D01*
X-5223509Y+1604009D01*
X-4936491Y+1604009D01*
X-4936491Y+1316991D01*
X-3666491Y-1612899D02*
X-3685541Y-1612899D01*
X-3685541Y-2034766D01*
X-3722739Y-2071963D01*
X-3808731Y-2157955D01*
X-3808731Y-2345249D01*
X-4065269Y-2345249D01*
X-4065269Y-2154751D01*
X-3985128Y-2154751D01*
X-3963301Y-2132925D01*
X-3812539Y-1982163D01*
X-3812539Y-1612899D01*
X-3831589Y-1612899D01*
X-3831589Y-1435101D01*
X-3666491Y-1435101D01*
X-3666491Y-1612899D01*
X-3854451Y-1612899D02*
X-4019549Y-1612899D01*
X-4019549Y-1435101D01*
X-3854451Y-1435101D01*
X-3854451Y-1612899D01*
X-5784851Y+1224501D02*
X-6026149Y+1224501D01*
X-6026149Y+1605499D01*
X-5784851Y+1605499D01*
X-5784851Y+1224501D01*
X-7340599Y+2239404D02*
X-7340599Y+2586596D01*
X-7095096Y+2832099D01*
X-6747904Y+2832099D01*
X-6502401Y+2586596D01*
X-6502401Y+2239404D01*
X-6747904Y+1993901D01*
X-7095096Y+1993901D01*
X-7340599Y+2239404D01*
X+7581901Y+2239404D02*
X+7581901Y+2586596D01*
X+7827404Y+2832099D01*
X+8174596Y+2832099D01*
X+8420099Y+2586596D01*
X+8420099Y+2239404D01*
X+8174596Y+1993901D01*
X+7827404Y+1993901D01*
X+7581901Y+2239404D01*
X+7581901Y-3920096D02*
X+7581901Y-3572904D01*
X+7827404Y-3327401D01*
X+8174596Y-3327401D01*
X+8420099Y-3572904D01*
X+8420099Y-3920096D01*
X+8174596Y-4165599D01*
X+7827404Y-4165599D01*
X+7581901Y-3920096D01*
X-4800599Y+1836614D02*
X-4800599Y+1973386D01*
X-4703886Y+2070099D01*
X-4567114Y+2070099D01*
X-4470401Y+1973386D01*
X-4470401Y+1836614D01*
X-4567114Y+1739901D01*
X-4703886Y+1739901D01*
X-4800599Y+1836614D01*
X-3022600Y+1571718D02*
X-3022600Y+1603282D01*
X-3000282Y+1625600D01*
X-2968718Y+1625600D01*
X-2946400Y+1603282D01*
X-2946400Y+1571718D01*
X-2968718Y+1549400D01*
X-3000282Y+1549400D01*
X-3022600Y+1571718D01*
X-609600Y+1635218D02*
X-609600Y+1666782D01*
X-587282Y+1689100D01*
X-555718Y+1689100D01*
X-533400Y+1666782D01*
X-533400Y+1635218D01*
X-555718Y+1612900D01*
X-587282Y+1612900D01*
X-609600Y+1635218D01*
X+1676400Y+1635218D02*
X+1676400Y+1666782D01*
X+1698718Y+1689100D01*
X+1730282Y+1689100D01*
X+1752600Y+1666782D01*
X+1752600Y+1635218D01*
X+1730282Y+1612900D01*
X+1698718Y+1612900D01*
X+1676400Y+1635218D01*
X+6399056Y+1691247D02*
X+6399056Y+1722811D01*
X+6421374Y+1745129D01*
X+6452938Y+1745129D01*
X+6475256Y+1722811D01*
X+6475256Y+1691247D01*
X+6452938Y+1668929D01*
X+6421374Y+1668929D01*
X+6399056Y+1691247D01*
X-4673600Y-2492282D02*
X-4673600Y-2460718D01*
X-4651282Y-2438400D01*
X-4619718Y-2438400D01*
X-4597400Y-2460718D01*
X-4597400Y-2492282D01*
X-4619718Y-2514600D01*
X-4651282Y-2514600D01*
X-4673600Y-2492282D01*
X-5432660Y+702904D02*
X-5432660Y+734468D01*
X-5410342Y+756786D01*
X-5378778Y+756786D01*
X-5356460Y+734468D01*
X-5356460Y+702904D01*
X-5378778Y+680586D01*
X-5410342Y+680586D01*
X-5432660Y+702904D01*
X+5359401Y+2391584D02*
X+5359401Y+1926416D01*
X+5372101Y+1913716D01*
X+5372101Y+1212849D01*
X+5073651Y+1212849D01*
X+5073651Y+438151D01*
X+5848349Y+438151D01*
X+5848349Y+1212849D01*
X+5549899Y+1212849D01*
X+5549899Y+1866901D01*
X+5682535Y+1866901D01*
X+5720635Y+1828801D01*
X+5836365Y+1828801D01*
X+5889127Y+1881563D01*
X+5889127Y+342371D01*
X+6116321Y+115177D01*
X+6116321Y-67709D01*
X+6324601Y-67709D01*
X+6324601Y-214631D01*
X+6259831Y-214631D01*
X+6259831Y-405129D01*
X+6611549Y-405129D01*
X+6721051Y-514631D01*
X+6516369Y-514631D01*
X+6516369Y-504631D01*
X+6259831Y-504631D01*
X+6259831Y-695129D01*
X+6461980Y-695129D01*
X+6461980Y-771735D01*
X+6358151Y-875564D01*
X+6358151Y-1111251D01*
X+6288301Y-1111251D01*
X+6288301Y-1420549D01*
X+6358151Y-1420549D01*
X+6358152Y-1515111D01*
X+6292851Y-1515111D01*
X+6292851Y-1771649D01*
X+6310351Y-1771649D01*
X+6310351Y-2025649D01*
X+6320351Y-2025649D01*
X+6320351Y-2279649D01*
X+6506672Y-2279649D01*
X+6506672Y-2596724D01*
X+6486349Y-2617047D01*
X+6174110Y-2617047D01*
X+5968999Y-2822157D01*
X+5968999Y-2248801D01*
X+6020701Y-2197099D01*
X+6074584Y-2197099D01*
X+6134099Y-2137584D01*
X+6134099Y-2053416D01*
X+6074584Y-1993901D01*
X+5990416Y-1993901D01*
X+5941059Y-2043258D01*
X+5941059Y-1668779D01*
X+5960109Y-1668779D01*
X+5960109Y-1490981D01*
X+5795011Y-1490981D01*
X+5795011Y-1668779D01*
X+5814061Y-1668779D01*
X+5814061Y-2028119D01*
X+5695049Y-2147131D01*
X+5561331Y-2147131D01*
X+5561331Y-2337629D01*
X+5817869Y-2337629D01*
X+5817869Y-2203911D01*
X+5930901Y-2090879D01*
X+5930901Y-2107299D01*
X+5842001Y-2196198D01*
X+5842001Y-2341881D01*
X+5530849Y-2341881D01*
X+5530849Y-2277111D01*
X+5499099Y-2277111D01*
X+5499099Y-2240279D01*
X+5505449Y-2240279D01*
X+5505449Y-2024379D01*
X+5543551Y-2024379D01*
X+5543551Y-2030729D01*
X+5708649Y-2030729D01*
X+5708649Y-1891031D01*
X+5543551Y-1891031D01*
X+5543551Y-1897381D01*
X+5442632Y-1897381D01*
X+5379132Y-1960881D01*
X+4984751Y-1960881D01*
X+4984751Y-2240279D01*
X+5245101Y-2240279D01*
X+5245101Y-2667901D01*
X+5307699Y-2730499D01*
X+5340351Y-2730499D01*
X+5340351Y-2787649D01*
X+5530849Y-2787649D01*
X+5530849Y-2468879D01*
X+5561331Y-2468879D01*
X+5561331Y-2627629D01*
X+5651502Y-2627629D01*
X+5651501Y-2831199D01*
X+5587099Y-2895601D01*
X+5308601Y-2895601D01*
X+5308601Y-3184701D01*
X+5209099Y-3085199D01*
X+5209099Y-2787649D01*
X+5240849Y-2787649D01*
X+5240849Y-2531111D01*
X+5230849Y-2531111D01*
X+5230849Y-2277111D01*
X+5040351Y-2277111D01*
X+5040351Y-2284731D01*
X+4857751Y-2284731D01*
X+4857751Y-2396760D01*
X+4847690Y-2386699D01*
X+4847690Y-2279649D01*
X+4959349Y-2279649D01*
X+4959349Y-1515111D01*
X+4768851Y-1515111D01*
X+4768851Y-1654554D01*
X+4694178Y-1579881D01*
X+4659349Y-1579881D01*
X+4659349Y-1515111D01*
X+4468851Y-1515111D01*
X+4468851Y-2025649D01*
X+4478851Y-2025649D01*
X+4478851Y-2087881D01*
X+4296849Y-2087881D01*
X+4296849Y-1771649D01*
X+4306849Y-1771649D01*
X+4306849Y-1515111D01*
X+4152899Y-1515111D01*
X+4152899Y-1001381D01*
X+4208131Y-946149D01*
X+4332177Y-946149D01*
X+4284451Y-993875D01*
X+4284451Y-1119451D01*
X+4214601Y-1119451D01*
X+4214601Y-1428749D01*
X+4468599Y-1428749D01*
X+4468599Y-1119451D01*
X+4398749Y-1119451D01*
X+4398749Y-1041217D01*
X+4476749Y-963217D01*
X+4476749Y-946149D01*
X+4641849Y-946149D01*
X+4641849Y-705129D01*
X+4801869Y-705129D01*
X+4801869Y-514631D01*
X+4714151Y-514631D01*
X+4604649Y-405129D01*
X+4801869Y-405129D01*
X+4801869Y-214631D01*
X+4483099Y-214631D01*
X+4483099Y+134184D01*
X+4355664Y+261619D01*
X+4326889Y+261619D01*
X+4326889Y+501649D01*
X+4317999Y+501649D01*
X+4317999Y+615943D01*
X+4202423Y+731519D01*
X+4119879Y+731519D01*
X+4119879Y+742949D01*
X+4032249Y+742949D01*
X+4032249Y+1105119D01*
X+3790951Y+1105119D01*
X+3790951Y+742949D01*
X+3703321Y+742949D01*
X+3703321Y+542291D01*
X+4119879Y+542291D01*
X+4119879Y+553721D01*
X+4128777Y+553721D01*
X+4140201Y+542297D01*
X+4140201Y+501649D01*
X+4131311Y+501649D01*
X+4131311Y-105409D01*
X+4326889Y-105409D01*
X+4326889Y+110794D01*
X+4356101Y+81582D01*
X+4356101Y-214631D01*
X+3975099Y-214631D01*
X+3975099Y-67709D01*
X+4119879Y-67709D01*
X+4119879Y+132949D01*
X+3936993Y+132949D01*
X+3631006Y+438936D01*
X+3631006Y+1917784D01*
X+3783323Y+2070101D01*
X+4294130Y+2070101D01*
X+4392523Y+1971708D01*
X+4330701Y+1909886D01*
X+4330701Y+1773114D01*
X+4427414Y+1676401D01*
X+4564186Y+1676401D01*
X+4660899Y+1773114D01*
X+4660899Y+1909886D01*
X+4584699Y+1986086D01*
X+4584699Y+2030976D01*
X+4367776Y+2247899D01*
X+3709677Y+2247899D01*
X+3505199Y+2043421D01*
X+3505199Y+2153365D01*
X+3423365Y+2235199D01*
X+3352799Y+2235199D01*
X+3352799Y+2487495D01*
X+5359401Y+2487495D01*
X+5359401Y+2391584D01*
X+4787901Y+1773114D02*
X+4787901Y+1909886D01*
X+4884614Y+2006599D01*
X+5021386Y+2006599D01*
X+5118099Y+1909886D01*
X+5118099Y+1773114D01*
X+5021386Y+1676401D01*
X+4884614Y+1676401D01*
X+4787901Y+1773114D01*
X+4817109Y+936833D02*
X+4917999Y+835943D01*
X+4917999Y+501649D01*
X+4926889Y+501649D01*
X+4926889Y+226053D01*
X+4929423Y+223519D01*
X+5118101Y+223519D01*
X+5118101Y+299719D01*
X+5346699Y+299719D01*
X+5346699Y+8889D01*
X+5530849Y+8889D01*
X+5530849Y-55881D01*
X+5561331Y-55881D01*
X+5561331Y-24131D01*
X+5575301Y-24131D01*
X+5575301Y+299719D01*
X+5803899Y+299719D01*
X+5803899Y-24131D01*
X+5817869Y-24131D01*
X+5817869Y-214629D01*
X+5561331Y-214629D01*
X+5561331Y-182879D01*
X+5530849Y-182879D01*
X+5530849Y-247649D01*
X+5340351Y-247649D01*
X+5340351Y-30479D01*
X+5245099Y-30479D01*
X+5245099Y-438994D01*
X+5336178Y-347915D01*
X+5561331Y-347915D01*
X+5561331Y-314131D01*
X+5817869Y-314131D01*
X+5817869Y-447849D01*
X+5847079Y-477059D01*
X+5847079Y-1300481D01*
X+5866129Y-1300481D01*
X+5866129Y-1478279D01*
X+5701031Y-1478279D01*
X+5701031Y-1300481D01*
X+5720081Y-1300481D01*
X+5720081Y-529661D01*
X+5695049Y-504629D01*
X+5561331Y-504629D01*
X+5561331Y-474913D01*
X+5388780Y-474913D01*
X+5333999Y-529694D01*
X+5333999Y-1028701D01*
X+5397501Y-1028701D01*
X+5397501Y-882649D01*
X+5340351Y-882649D01*
X+5340351Y-626111D01*
X+5530849Y-626111D01*
X+5530849Y-882649D01*
X+5524499Y-882649D01*
X+5524499Y-1028701D01*
X+5626099Y-1028701D01*
X+5626099Y-1257299D01*
X+5524499Y-1257299D01*
X+5524499Y-1606181D01*
X+5505765Y-1624915D01*
X+5505765Y-1662432D01*
X+5543551Y-1662432D01*
X+5543551Y-1656081D01*
X+5607051Y-1656081D01*
X+5607051Y-1490981D01*
X+5772149Y-1490981D01*
X+5772149Y-1668779D01*
X+5708649Y-1668779D01*
X+5708649Y-1795779D01*
X+5543551Y-1795779D01*
X+5543551Y-1789428D01*
X+5447680Y-1789428D01*
X+5378767Y-1720515D01*
X+5378767Y-1719579D01*
X+4984751Y-1719579D01*
X+4984751Y-1440181D01*
X+5118101Y-1440181D01*
X+5118101Y-1407024D01*
X+5051984Y-1340907D01*
X+5051984Y-1257299D01*
X+4914901Y-1257299D01*
X+4914901Y-1028701D01*
X+5016501Y-1028701D01*
X+5016501Y-783679D01*
X+5040351Y-759829D01*
X+5040351Y-626111D01*
X+5118101Y-626111D01*
X+5118101Y-247649D01*
X+5050351Y-247649D01*
X+5050351Y+8889D01*
X+5118101Y+8889D01*
X+5118101Y+45721D01*
X+4926889Y+45721D01*
X+4926889Y-105409D01*
X+4731311Y-105409D01*
X+4731311Y+501649D01*
X+4740201Y+501649D01*
X+4740201Y+762297D01*
X+4691387Y+811111D01*
X+4530091Y+811111D01*
X+4530091Y+1098129D01*
X+4817109Y+1098129D01*
X+4817109Y+936833D01*
X+4817109Y+1261111D02*
X+4530091Y+1261111D01*
X+4530091Y+1548129D01*
X+4817109Y+1548129D01*
X+4817109Y+1261111D01*
X+4032249Y+1168621D02*
X+3790951Y+1168621D01*
X+3790951Y+1549619D01*
X+4032249Y+1549619D01*
X+4032249Y+1168621D01*
X+4096246Y+1629227D02*
X+4096246Y+1660791D01*
X+4118564Y+1683109D01*
X+4150128Y+1683109D01*
X+4172446Y+1660791D01*
X+4172446Y+1629227D01*
X+4150128Y+1606909D01*
X+4118564Y+1606909D01*
X+4096246Y+1629227D01*
X+7463351Y-2787649D02*
X+7495101Y-2787649D01*
X+7495101Y-2956099D01*
X+7264399Y-3186801D01*
X+7264399Y-2895601D01*
X+6977903Y-2895601D01*
X+7310505Y-2562999D01*
X+7310505Y-2541269D01*
X+7461249Y-2541269D01*
X+7461249Y-2533649D01*
X+7463351Y-2533649D01*
X+7463351Y-2787649D01*
X+5050351Y-2787649D02*
X+5082101Y-2787649D01*
X+5082101Y-3137802D01*
X+5119299Y-3174999D01*
X+5308601Y-3364301D01*
X+5308601Y-3492501D01*
X+4979301Y-3492501D01*
X+4889499Y-3402699D01*
X+4889499Y-2541269D01*
X+5048249Y-2541269D01*
X+5048249Y-2533649D01*
X+5050351Y-2533649D01*
X+5050351Y-2787649D01*
X-7277099Y-2921000D02*
X-7048500Y-2921000D01*
X-6819901Y-2921000D02*
X-7048500Y-2921000D01*
X-7048500Y-3149599D02*
X-7048500Y-2921000D01*
X+8185149Y-1579880D02*
X+8102600Y-1579880D01*
X+8020051Y-1579880D02*
X+8102600Y-1579880D01*
X+8102600Y-1490981D02*
X+8102600Y-1579880D01*
X+5772149Y-1579880D02*
X+5689600Y-1579880D01*
X+5607051Y-1579880D02*
X+5689600Y-1579880D01*
X+5689600Y-1490981D02*
X+5689600Y-1579880D01*
X+3359149Y-1579880D02*
X+3276600Y-1579880D01*
X+3194051Y-1579880D02*
X+3276600Y-1579880D01*
X+3276600Y-1490981D02*
X+3276600Y-1579880D01*
X+946149Y-1579880D02*
X+863600Y-1579880D01*
X+781051Y-1579880D02*
X+863600Y-1579880D01*
X+863600Y-1490981D02*
X+863600Y-1579880D01*
X-1466851Y-1579880D02*
X-1549400Y-1579880D01*
X-1631949Y-1579880D02*
X-1549400Y-1579880D01*
X-1549400Y-1490981D02*
X-1549400Y-1579880D01*
X+7230109Y+1404620D02*
X+7086600Y+1404620D01*
X+6943091Y+1404620D02*
X+7086600Y+1404620D01*
X+7086600Y+1548129D02*
X+7086600Y+1404620D01*
X+7086600Y+1261111D02*
X+7086600Y+1404620D01*
X+4817109Y+1404620D02*
X+4673600Y+1404620D01*
X+4530091Y+1404620D02*
X+4673600Y+1404620D01*
X+4673600Y+1548129D02*
X+4673600Y+1404620D01*
X+4673600Y+1261111D02*
X+4673600Y+1404620D01*
X+2404109Y+1404620D02*
X+2260600Y+1404620D01*
X+2117091Y+1404620D02*
X+2260600Y+1404620D01*
X+2260600Y+1548129D02*
X+2260600Y+1404620D01*
X+2260600Y+1261111D02*
X+2260600Y+1404620D01*
X-8891Y+1404620D02*
X-152400Y+1404620D01*
X-295909Y+1404620D02*
X-152400Y+1404620D01*
X-152400Y+1548129D02*
X-152400Y+1404620D01*
X-152400Y+1261111D02*
X-152400Y+1404620D01*
X-2421891Y+1404620D02*
X-2565400Y+1404620D01*
X-2708909Y+1404620D02*
X-2565400Y+1404620D01*
X-2565400Y+1548129D02*
X-2565400Y+1404620D01*
X-2565400Y+1261111D02*
X-2565400Y+1404620D01*
X+6445249Y+1359120D02*
X+6324600Y+1359120D01*
X+6203951Y+1359120D02*
X+6324600Y+1359120D01*
X+6324600Y+1549619D02*
X+6324600Y+1359120D01*
X+6324600Y+1168621D02*
X+6324600Y+1359120D01*
X+4032249Y+1359120D02*
X+3911600Y+1359120D01*
X+3790951Y+1359120D02*
X+3911600Y+1359120D01*
X+3911600Y+1549619D02*
X+3911600Y+1359120D01*
X+3911600Y+1168621D02*
X+3911600Y+1359120D01*
X+1619249Y+1359120D02*
X+1498600Y+1359120D01*
X+1377951Y+1359120D02*
X+1498600Y+1359120D01*
X+1498600Y+1549619D02*
X+1498600Y+1359120D01*
X+1498600Y+1168621D02*
X+1498600Y+1359120D01*
X-793751Y+1359120D02*
X-914400Y+1359120D01*
X-1035049Y+1359120D02*
X-914400Y+1359120D01*
X-914400Y+1549619D02*
X-914400Y+1359120D01*
X-914400Y+1168621D02*
X-914400Y+1359120D01*
X-3206751Y+1359120D02*
X-3327400Y+1359120D01*
X-3448049Y+1359120D02*
X-3327400Y+1359120D01*
X-3327400Y+1549619D02*
X-3327400Y+1359120D01*
X-3327400Y+1168621D02*
X-3327400Y+1359120D01*
X+7397751Y-2100580D02*
X+7467600Y-2100580D01*
X+7467600Y-1960881D02*
X+7467600Y-2100580D01*
X+7467600Y-2240279D02*
X+7467600Y-2100580D01*
X+4984751Y-2100580D02*
X+5054600Y-2100580D01*
X+5054600Y-1960881D02*
X+5054600Y-2100580D01*
X+5054600Y-2240279D02*
X+5054600Y-2100580D01*
X+2571751Y-2100580D02*
X+2641600Y-2100580D01*
X+2641600Y-1960881D02*
X+2641600Y-2100580D01*
X+2641600Y-2240279D02*
X+2641600Y-2100580D01*
X+158751Y-2100580D02*
X+228600Y-2100580D01*
X+228600Y-1960881D02*
X+228600Y-2100580D01*
X+228600Y-2240279D02*
X+228600Y-2100580D01*
X-2254249Y-2100580D02*
X-2184400Y-2100580D01*
X-2184400Y-1960881D02*
X-2184400Y-2100580D01*
X-2184400Y-2240279D02*
X-2184400Y-2100580D01*
X+6773349Y-1643380D02*
X+6678100Y-1643380D01*
X+6678100Y-1515111D02*
X+6678100Y-1643380D01*
X+7643849Y-2405380D02*
X+7548600Y-2405380D01*
X+7548600Y-2277111D02*
X+7548600Y-2405380D01*
X+7150100Y-405129D02*
X+7150100Y-309880D01*
X+7150100Y-214631D02*
X+7150100Y-309880D01*
X+7278369Y-309880D02*
X+7150100Y-309880D01*
X+7118349Y-817880D02*
X+7023100Y-817880D01*
X+7023100Y-946149D02*
X+7023100Y-817880D01*
X+7354849Y-1643380D02*
X+7259600Y-1643380D01*
X+7259600Y-1515111D02*
X+7259600Y-1643380D01*
X+7354849Y-1897380D02*
X+7259600Y-1897380D01*
X+6800849Y-1897380D02*
X+6705600Y-1897380D01*
X+4959349Y-1897380D02*
X+4864100Y-1897380D01*
X+4641849Y-817880D02*
X+4546600Y-817880D01*
X+4546600Y-946149D02*
X+4546600Y-817880D01*
X+4306849Y-1643380D02*
X+4211600Y-1643380D01*
X+4211600Y-1515111D02*
X+4211600Y-1643380D01*
X+4768851Y-1643380D02*
X+4864100Y-1643380D01*
X+4959349Y-1643380D02*
X+4864100Y-1643380D01*
X+4864100Y-1515111D02*
X+4864100Y-1643380D01*
X+5230849Y-2405380D02*
X+5135600Y-2405380D01*
X+5135600Y-2277111D02*
X+5135600Y-2405380D01*
X+4673600Y-405129D02*
X+4673600Y-309880D01*
X+4673600Y-214631D02*
X+4673600Y-309880D01*
X+4801869Y-309880D02*
X+4673600Y-309880D01*
X+4296849Y-1897380D02*
X+4201600Y-1897380D01*
X+2817849Y-2405380D02*
X+2722600Y-2405380D01*
X+2722600Y-2277111D02*
X+2722600Y-2405380D01*
X+2084351Y-817880D02*
X+2179600Y-817880D01*
X+2274849Y-817880D02*
X+2179600Y-817880D01*
X+2179600Y-946149D02*
X+2179600Y-817880D01*
X+2179600Y-689611D02*
X+2179600Y-817880D01*
X-328649Y-817880D02*
X-233400Y-817880D01*
X-138151Y-817880D02*
X-233400Y-817880D01*
X-233400Y-946149D02*
X-233400Y-817880D01*
X+2260600Y-359129D02*
X+2260600Y-263880D01*
X+2260600Y-168631D02*
X+2260600Y-263880D01*
X+2388869Y-263880D02*
X+2260600Y-263880D01*
X-152400Y-405129D02*
X-152400Y-309880D01*
X-152400Y-214631D02*
X-152400Y-309880D01*
X-24131Y-309880D02*
X-152400Y-309880D01*
X-2565400Y-359129D02*
X-2565400Y-263880D01*
X-2565400Y-168631D02*
X-2565400Y-263880D01*
X-2437131Y-263880D02*
X-2565400Y-263880D01*
X-2597151Y-817880D02*
X-2692400Y-817880D01*
X-2692400Y-946149D02*
X-2692400Y-817880D01*
X-2692400Y-689611D02*
X-2692400Y-817880D01*
X+1883849Y-1643380D02*
X+1788600Y-1643380D01*
X+1788600Y-1515111D02*
X+1788600Y-1643380D01*
X+2465349Y-1897380D02*
X+2370100Y-1897380D01*
X+1893849Y-1897380D02*
X+1798600Y-1897380D01*
X+2274851Y-1643380D02*
X+2370100Y-1643380D01*
X+2465349Y-1643380D02*
X+2370100Y-1643380D01*
X+2370100Y-1515111D02*
X+2370100Y-1643380D01*
X+404849Y-2405380D02*
X+309600Y-2405380D01*
X+309600Y-2277111D02*
X+309600Y-2405380D01*
X-529151Y-1643380D02*
X-624400Y-1643380D01*
X-624400Y-1515111D02*
X-624400Y-1643380D01*
X+115849Y-1897380D02*
X+20600Y-1897380D01*
X-519151Y-1897380D02*
X-614400Y-1897380D01*
X-74649Y-1643380D02*
X+20600Y-1643380D01*
X+115849Y-1643380D02*
X+20600Y-1643380D01*
X+20600Y-1515111D02*
X+20600Y-1643380D01*
X-2297151Y-1897380D02*
X-2392400Y-1897380D01*
X-3122649Y-1643380D02*
X-3027400Y-1643380D01*
X-2932151Y-1643380D02*
X-3027400Y-1643380D01*
X-3027400Y-1515111D02*
X-3027400Y-1643380D01*
X-2487649Y-1643380D02*
X-2392400Y-1643380D01*
X-2297151Y-1643380D02*
X-2392400Y-1643380D01*
X-2392400Y-1515111D02*
X-2392400Y-1643380D01*
X-2008151Y-2405380D02*
X-2103400Y-2405380D01*
X-2103400Y-2277111D02*
X-2103400Y-2405380D01*
X-3132649Y-1897380D02*
X-3037400Y-1897380D01*
X-2942151Y-1897380D02*
X-3037400Y-1897380D01*
X-4641849Y-2108200D02*
X-4572000Y-2108200D01*
X-4572000Y-1968501D02*
X-4572000Y-2108200D01*
X-4572000Y-2247899D02*
X-4572000Y-2108200D01*
X-4936491Y+1460500D02*
X-5080000Y+1460500D01*
X-5223509Y+1460500D02*
X-5080000Y+1460500D01*
X-5080000Y+1604009D02*
X-5080000Y+1460500D01*
X-5080000Y+1316991D02*
X-5080000Y+1460500D01*
X-3854451Y-1524000D02*
X-3937000Y-1524000D01*
X-4019549Y-1524000D02*
X-3937000Y-1524000D01*
X-3937000Y-1435101D02*
X-3937000Y-1524000D01*
X-3937000Y-1612899D02*
X-3937000Y-1524000D01*
X-5784851Y+1415000D02*
X-5905500Y+1415000D01*
X-6026149Y+1415000D02*
X-5905500Y+1415000D01*
X-5905500Y+1605499D02*
X-5905500Y+1415000D01*
X-5905500Y+1224501D02*
X-5905500Y+1415000D01*
X-4875249Y-1905000D02*
X-4780000Y-1905000D01*
X-4684751Y-1905000D02*
X-4780000Y-1905000D01*
X-4938751Y-825500D02*
X-5034000Y-825500D01*
X-5034000Y-953769D02*
X-5034000Y-825500D01*
X-5256251Y-1651000D02*
X-5351500Y-1651000D01*
X-5351500Y-1522731D02*
X-5351500Y-1651000D01*
X-4875249Y-1651000D02*
X-4780000Y-1651000D01*
X-4684751Y-1651000D02*
X-4780000Y-1651000D01*
X-4780000Y-1522731D02*
X-4780000Y-1651000D01*
X-4586249Y-2413000D02*
X-4491000Y-2413000D01*
X-4395751Y-2413000D02*
X-4491000Y-2413000D01*
X-4491000Y-2284731D02*
X-4491000Y-2413000D01*
X-4889500Y-412749D02*
X-4889500Y-317500D01*
X-4889500Y-222251D02*
X-4889500Y-317500D01*
X-4761231Y-317500D02*
X-4889500Y-317500D01*
X-5266251Y-1905000D02*
X-5361500Y-1905000D01*
X-5359399Y-3556000D02*
X-5207000Y-3556000D01*
X-5054601Y-3556000D02*
X-5207000Y-3556000D01*
X-4800599Y+1905000D02*
X-4635500Y+1905000D01*
X-4470401Y+1905000D02*
X-4635500Y+1905000D01*
X-4635500Y+1739901D02*
X-4635500Y+1905000D01*
X-4635500Y+2070099D02*
X-4635500Y+1905000D01*
X+7366000Y-2541269D02*
X+7366000Y-2413000D01*
X+7366000Y-2284731D02*
X+7366000Y-2413000D01*
X+4953000Y-2541269D02*
X+4953000Y-2413000D01*
X+4953000Y-2284731D02*
X+4953000Y-2413000D01*
X+2444751Y-2413000D02*
X+2540000Y-2413000D01*
X+2540000Y-2541269D02*
X+2540000Y-2413000D01*
X+2540000Y-2284731D02*
X+2540000Y-2413000D01*
X+31751Y-2413000D02*
X+127000Y-2413000D01*
X+127000Y-2541269D02*
X+127000Y-2413000D01*
X+127000Y-2284731D02*
X+127000Y-2413000D01*
X-2381249Y-2413000D02*
X-2286000Y-2413000D01*
X-2286000Y-2541269D02*
X-2286000Y-2413000D01*
X-2286000Y-2284731D02*
X-2286000Y-2413000D01*
X-4885249Y-2476500D02*
X-4790000Y-2476500D01*
X-4694751Y-2476500D02*
X-4790000Y-2476500D01*
X-4790000Y-2604769D02*
X-4790000Y-2476500D01*
X-4790000Y-2348231D02*
X-4790000Y-2476500D01*
D21*
X-7048500Y-2476500D03*
X-7048500Y-2921000D03*
D22*
X-1828800Y+1841500D03*
D23*
X-2921000Y-3556000D03*
X-2921000Y-3048000D03*
X-2921000Y-3302000D03*
D22*
X+431800Y+1841500D03*
D23*
X-762000Y-3556000D03*
X-762000Y-3302000D03*
X-762000Y-3048000D03*
X+1587500Y-3302000D03*
X+1587500Y-3556000D03*
X+1587500Y-3048000D03*
D22*
X+2679700Y+1841500D03*
D23*
X+3937000Y-3556000D03*
X+6223000Y-3556000D03*
X+3937000Y-3048000D03*
X+6223000Y-3048000D03*
X+3937000Y-3302000D03*
X+6223000Y-3302000D03*
D22*
X+4953000Y+1841500D03*
X+7162800Y+1841500D03*
D32*
X+8196580Y-1389380D03*
X+8290560Y-1579880D03*
X+8102600Y-1579880D03*
D29*
X+7874000Y+825500D03*
D72*
X+8102600Y+134620D03*
X+7645400Y+134620D03*
D32*
X+5783580Y-1389380D03*
X+5877560Y-1579880D03*
X+5689600Y-1579880D03*
D29*
X+5461000Y+825500D03*
D72*
X+5689600Y+134620D03*
X+5232400Y+134620D03*
D32*
X+3370580Y-1389380D03*
X+3464560Y-1579880D03*
X+3276600Y-1579880D03*
D29*
X+3048000Y+825500D03*
D72*
X+3276600Y+134620D03*
X+2819400Y+134620D03*
D32*
X+957580Y-1389380D03*
X+1051560Y-1579880D03*
X+863600Y-1579880D03*
D29*
X+635000Y+825500D03*
D72*
X+863600Y+134620D03*
X+406400Y+134620D03*
D32*
X-1455420Y-1389380D03*
X-1361440Y-1579880D03*
X-1549400Y-1579880D03*
D29*
X-1778000Y+825500D03*
D72*
X-1549400Y+134620D03*
X-2006600Y+134620D03*
D26*
X+7086600Y+1404620D03*
X+7086600Y+954620D03*
D31*
X+8039100Y-1960880D03*
X+8039100Y-1725930D03*
D26*
X+4673600Y+1404620D03*
X+4673600Y+954620D03*
D31*
X+5626100Y-1960880D03*
X+5626100Y-1725930D03*
D26*
X+2260600Y+1404620D03*
X+2260600Y+954620D03*
D31*
X+3213100Y-1960880D03*
X+3213100Y-1725930D03*
D26*
X-152400Y+1404620D03*
X-152400Y+954620D03*
D31*
X+800100Y-1960880D03*
X+800100Y-1725930D03*
D26*
X-2565400Y+1404620D03*
X-2565400Y+954620D03*
D31*
X-1612900Y-1960880D03*
X-1612900Y-1725930D03*
D20*
X+6705600Y+198120D03*
X+7305600Y+198120D03*
X+4229100Y+198120D03*
X+4829100Y+198120D03*
X+1816100Y+198120D03*
X+2416100Y+198120D03*
X-596900Y+198120D03*
X+3100Y+198120D03*
X-3009900Y+198120D03*
X-2409900Y+198120D03*
D23*
X+7112000Y-3302000D03*
X+5461000Y-3302000D03*
X+2984500Y-3302000D03*
X+571500Y-3302000D03*
X-1778000Y-3302000D03*
X+7112000Y-3556000D03*
X+5461000Y-3556000D03*
X+2984500Y-3556000D03*
X+571500Y-3556000D03*
X-1778000Y-3556000D03*
X+7112000Y-3048000D03*
X+5461000Y-3048000D03*
X+2984500Y-3048000D03*
X+571500Y-3048000D03*
X-1778000Y-3048000D03*
D22*
X+6718300Y+1841500D03*
X+4495800Y+1841500D03*
X+2222500Y+1841500D03*
X-25400Y+1841500D03*
X-2273300Y+1841500D03*
D27*
X+6324600Y+914620D03*
X+6324600Y+1359120D03*
X+3911600Y+914620D03*
X+3911600Y+1359120D03*
X+1498600Y+914620D03*
X+1498600Y+1359120D03*
X-914400Y+914620D03*
X-914400Y+1359120D03*
X-3327400Y+914620D03*
X-3327400Y+1359120D03*
D33*
X+6845300Y-1168400D03*
X+6845300Y-1233400D03*
X+6845300Y-1298400D03*
X+6845300Y-1363400D03*
X+6415300Y-1363400D03*
X+6415300Y-1298400D03*
X+6415300Y-1233400D03*
X+6415300Y-1168400D03*
D73*
X+7848600Y-2100580D03*
X+7721600Y-2100580D03*
X+7594600Y-2100580D03*
X+7467600Y-2100580D03*
X+7467600Y-1579880D03*
X+7594600Y-1579880D03*
X+7721600Y-1579880D03*
X+7848600Y-1579880D03*
D33*
X+4341600Y-1176600D03*
X+4341600Y-1241600D03*
X+4341600Y-1306600D03*
X+4341600Y-1371600D03*
X+3911600Y-1371600D03*
X+3911600Y-1306600D03*
X+3911600Y-1241600D03*
X+3911600Y-1176600D03*
D73*
X+5435600Y-2100580D03*
X+5308600Y-2100580D03*
X+5181600Y-2100580D03*
X+5054600Y-2100580D03*
X+5054600Y-1579880D03*
X+5181600Y-1579880D03*
X+5308600Y-1579880D03*
X+5435600Y-1579880D03*
D33*
X+1928600Y-1163900D03*
X+1928600Y-1228900D03*
X+1928600Y-1293900D03*
X+1928600Y-1358900D03*
X+1498600Y-1358900D03*
X+1498600Y-1293900D03*
X+1498600Y-1228900D03*
X+1498600Y-1163900D03*
D73*
X+3022600Y-2100580D03*
X+2895600Y-2100580D03*
X+2768600Y-2100580D03*
X+2641600Y-2100580D03*
X+2641600Y-1579880D03*
X+2768600Y-1579880D03*
X+2895600Y-1579880D03*
X+3022600Y-1579880D03*
D33*
X-469900Y-1165400D03*
X-469900Y-1230400D03*
X-469900Y-1295400D03*
X-469900Y-1360400D03*
X-899900Y-1360400D03*
X-899900Y-1295400D03*
X-899900Y-1230400D03*
X-899900Y-1165400D03*
D73*
X+609600Y-2100580D03*
X+482600Y-2100580D03*
X+355600Y-2100580D03*
X+228600Y-2100580D03*
X+228600Y-1579880D03*
X+355600Y-1579880D03*
X+482600Y-1579880D03*
X+609600Y-1579880D03*
D33*
X-2870200Y-1165400D03*
X-2870200Y-1230400D03*
X-2870200Y-1295400D03*
X-2870200Y-1360400D03*
X-3300200Y-1360400D03*
X-3300200Y-1295400D03*
X-3300200Y-1230400D03*
X-3300200Y-1165400D03*
D73*
X-1803400Y-2100580D03*
X-1930400Y-2100580D03*
X-2057400Y-2100580D03*
X-2184400Y-2100580D03*
X-2184400Y-1579880D03*
X-2057400Y-1579880D03*
X-1930400Y-1579880D03*
X-1803400Y-1579880D03*
D28*
X-3327400Y+642620D03*
X-3327400Y+32620D03*
X+6324600Y+642620D03*
X+6324600Y+32620D03*
X+1498600Y+642620D03*
X+1498600Y+32620D03*
X+3911600Y+642620D03*
X+3911600Y+32620D03*
X-914400Y+642620D03*
X-914400Y+32620D03*
D30*
X+7874000Y-1143000D03*
X+7493000Y-1143000D03*
D24*
X+7848600Y-754380D03*
X+7548600Y-754380D03*
D30*
X+5461000Y-1143000D03*
X+5080000Y-1143000D03*
D24*
X+5435600Y-754380D03*
X+5135600Y-754380D03*
D30*
X+3111500Y-1143000D03*
X+2730500Y-1143000D03*
D24*
X+3022600Y-754380D03*
X+2722600Y-754380D03*
D30*
X+635000Y-1143000D03*
X+254000Y-1143000D03*
D24*
X+609600Y-754380D03*
X+309600Y-754380D03*
D30*
X-1778000Y-1143000D03*
X-2159000Y-1143000D03*
D24*
X-1803400Y-754380D03*
X-2103400Y-754380D03*
X+6705600Y-2151380D03*
X+6415600Y-2151380D03*
X+6678100Y-1643380D03*
X+6388100Y-1643380D03*
D25*
X+6388100Y-599880D03*
X+6388100Y-309880D03*
X+6896100Y-599880D03*
X+6896100Y-309880D03*
D24*
X+7249600Y-2151380D03*
X+6959600Y-2151380D03*
D25*
X+8128000Y-2250000D03*
X+8128000Y-2540000D03*
D24*
X+7848600Y-2405380D03*
X+7548600Y-2405380D03*
D25*
X+7150100Y-309880D03*
X+7150100Y-609880D03*
X+8102600Y-119380D03*
X+8102600Y-409380D03*
D24*
X+7594600Y-119380D03*
X+7884600Y-119380D03*
X+7848600Y-2659380D03*
X+7558600Y-2659380D03*
D25*
X+6642100Y-309880D03*
X+6642100Y-609880D03*
D24*
X+7023100Y-817880D03*
X+6723100Y-817880D03*
X+7259600Y-1643380D03*
X+6959600Y-1643380D03*
X+7259600Y-1897380D03*
X+6959600Y-1897380D03*
X+6705600Y-1897380D03*
X+6405600Y-1897380D03*
X+4864100Y-1897380D03*
X+4564100Y-1897380D03*
X+4546600Y-817880D03*
X+4246600Y-817880D03*
X+4211600Y-1643380D03*
X+3911600Y-1643380D03*
D25*
X+4165600Y-309880D03*
X+4165600Y-609880D03*
D24*
X+4864100Y-1643380D03*
X+4564100Y-1643380D03*
X+5435600Y-2405380D03*
X+5135600Y-2405380D03*
X+5435600Y-2659380D03*
X+5145600Y-2659380D03*
D25*
X+5689600Y-2242380D03*
X+5689600Y-2532380D03*
X+5689600Y-119380D03*
X+5689600Y-409380D03*
D24*
X+5145600Y-119380D03*
X+5435600Y-119380D03*
X+3022600Y-2659380D03*
X+2732600Y-2659380D03*
D25*
X+3276600Y-2278380D03*
X+3276600Y-2568380D03*
X+3276600Y-182880D03*
X+3276600Y-472880D03*
D24*
X+2768600Y-182880D03*
X+3058600Y-182880D03*
D25*
X+3911600Y-599880D03*
X+3911600Y-309880D03*
X+4419600Y-599880D03*
X+4419600Y-309880D03*
X+4673600Y-309880D03*
X+4673600Y-609880D03*
D24*
X+4201600Y-2151380D03*
X+3911600Y-2151380D03*
X+4201600Y-1897380D03*
X+3911600Y-1897380D03*
X+4864100Y-2151380D03*
X+4574100Y-2151380D03*
X+3022600Y-2405380D03*
X+2722600Y-2405380D03*
D25*
X+2006600Y-563880D03*
X+2006600Y-273880D03*
X+1498600Y-563880D03*
X+1498600Y-273880D03*
X-914400Y-599880D03*
X-914400Y-309880D03*
X-406400Y-599880D03*
X-406400Y-309880D03*
X+1752600Y-263880D03*
X+1752600Y-563880D03*
X-660400Y-309880D03*
X-660400Y-609880D03*
D24*
X+2179600Y-817880D03*
X+1879600Y-817880D03*
X-233400Y-817880D03*
X-533400Y-817880D03*
D25*
X+2260600Y-263880D03*
X+2260600Y-563880D03*
X-152400Y-309880D03*
X-152400Y-609880D03*
X-3327400Y-563880D03*
X-3327400Y-273880D03*
X-2819400Y-563880D03*
X-2819400Y-273880D03*
X-2565400Y-263880D03*
X-2565400Y-563880D03*
X-3073400Y-263880D03*
X-3073400Y-563880D03*
D24*
X-2692400Y-817880D03*
X-2992400Y-817880D03*
X+1788600Y-2151380D03*
X+1498600Y-2151380D03*
X+1788600Y-1643380D03*
X+1498600Y-1643380D03*
X+2360100Y-2151380D03*
X+2070100Y-2151380D03*
X+2370100Y-1897380D03*
X+2070100Y-1897380D03*
X+1798600Y-1897380D03*
X+1498600Y-1897380D03*
X+2370100Y-1643380D03*
X+2070100Y-1643380D03*
X+609600Y-2405380D03*
X+309600Y-2405380D03*
D25*
X+863600Y-2242380D03*
X+863600Y-2532380D03*
D24*
X+609600Y-2659380D03*
X+319600Y-2659380D03*
D25*
X+863600Y-182880D03*
X+863600Y-472880D03*
D24*
X+355600Y-182880D03*
X+645600Y-182880D03*
X+10600Y-2151380D03*
X-279400Y-2151380D03*
X-624400Y-2151380D03*
X-914400Y-2151380D03*
X-624400Y-1643380D03*
X-914400Y-1643380D03*
X+20600Y-1897380D03*
X-279400Y-1897380D03*
X-614400Y-1897380D03*
X-914400Y-1897380D03*
X+20600Y-1643380D03*
X-279400Y-1643380D03*
X-2392400Y-1897380D03*
X-2692400Y-1897380D03*
X-3027400Y-1643380D03*
X-3327400Y-1643380D03*
X-2392400Y-1643380D03*
X-2692400Y-1643380D03*
X-1803400Y-2405380D03*
X-2103400Y-2405380D03*
X-3037400Y-2151380D03*
X-3327400Y-2151380D03*
X-3037400Y-1897380D03*
X-3327400Y-1897380D03*
X-2402400Y-2151380D03*
X-2692400Y-2151380D03*
D25*
X-1549400Y-2278380D03*
X-1549400Y-2568380D03*
X-1549400Y-146880D03*
X-1549400Y-436880D03*
D24*
X-2057400Y-182880D03*
X-1767400Y-182880D03*
X-1803400Y-2659380D03*
X-2093400Y-2659380D03*
D29*
X-4254500Y+817880D03*
D72*
X-4025900Y+127000D03*
X-4483100Y+127000D03*
D28*
X-5905500Y+635000D03*
X-5905500Y+25000D03*
D33*
X-5232400Y-1178100D03*
X-5232400Y-1243100D03*
X-5232400Y-1308100D03*
X-5232400Y-1373100D03*
X-5662400Y-1373100D03*
X-5662400Y-1308100D03*
X-5662400Y-1243100D03*
X-5662400Y-1178100D03*
D73*
X-4191000Y-2108200D03*
X-4318000Y-2108200D03*
X-4445000Y-2108200D03*
X-4572000Y-2108200D03*
X-4572000Y-1587500D03*
X-4445000Y-1587500D03*
X-4318000Y-1587500D03*
X-4191000Y-1587500D03*
D26*
X-5080000Y+1460500D03*
X-5080000Y+1010500D03*
D31*
X-4000500Y-1949450D03*
X-4000500Y-1714500D03*
D32*
X-3843020Y-1333500D03*
X-3749040Y-1524000D03*
X-3937000Y-1524000D03*
D27*
X-5905500Y+970500D03*
X-5905500Y+1415000D03*
D20*
X-5489500Y+190500D03*
X-4889500Y+190500D03*
D22*
X-5080000Y+1905000D03*
D23*
X-4318000Y-3556000D03*
X-4318000Y-3048000D03*
X-4318000Y-3302000D03*
D24*
X-4780000Y-1905000D03*
X-5080000Y-1905000D03*
X-5034000Y-825500D03*
X-5334000Y-825500D03*
X-5351500Y-1651000D03*
X-5651500Y-1651000D03*
D25*
X-5397500Y-317500D03*
X-5397500Y-617500D03*
D24*
X-4780000Y-1651000D03*
X-5080000Y-1651000D03*
X-4191000Y-2413000D03*
X-4491000Y-2413000D03*
X-4191000Y-762000D03*
X-4491000Y-762000D03*
D25*
X-4889500Y-317500D03*
X-4889500Y-617500D03*
D30*
X-4141610Y-1157110D03*
X-4522610Y-1157110D03*
D24*
X-5361500Y-2159000D03*
X-5651500Y-2159000D03*
X-5361500Y-1905000D03*
X-5651500Y-1905000D03*
D25*
X-5651500Y-607500D03*
X-5651500Y-317500D03*
X-5143500Y-607500D03*
X-5143500Y-317500D03*
D24*
X-4790000Y-2159000D03*
X-5080000Y-2159000D03*
D25*
X-3937000Y-2250000D03*
X-3937000Y-2540000D03*
X-4000500Y-190500D03*
X-4000500Y-480500D03*
D24*
X-4508500Y-190500D03*
X-4218500Y-190500D03*
X-4191000Y-2667000D03*
X-4481000Y-2667000D03*
D34*
X-6921500Y-3810000D03*
X-6921500Y+2413000D03*
X+8001000Y+2413000D03*
X+8001000Y-3746500D03*
D23*
X-5207000Y-3048000D03*
X-5207000Y-3302000D03*
X-5207000Y-3556000D03*
X-5207000Y-3810000D03*
D22*
X-4635500Y+1905000D03*
D24*
X+7366000Y-2413000D03*
X+7076000Y-2413000D03*
X+4953000Y-2413000D03*
X+4663000Y-2413000D03*
X+2540000Y-2413000D03*
X+2250000Y-2413000D03*
X+127000Y-2413000D03*
X-163000Y-2413000D03*
X-2286000Y-2413000D03*
X-2576000Y-2413000D03*
X-4790000Y-2476500D03*
X-5080000Y-2476500D03*
D39*
X-7429500Y-4254500D02*
X+8509000Y-4254500D01*
X+8509000Y+2921000D01*
X-7429500Y+2921000D01*
X-7429500Y-4254500D01*
M02*
