G04 PROTEUS RS274X GERBER FILE*
%FSLAX45Y45*%
%MOMM*%
G01*
%ADD45C,1.524000*%
%ADD46C,1.016000*%
%ADD47C,2.286000*%
%ADD49C,4.064000*%
%ADD50C,2.794000*%
%AMPPAD045*
4,1,36,
-1.143000,1.270000,
1.143000,1.270000,
1.168970,1.267470,
1.192980,1.260200,
1.214580,1.248650,
1.233290,1.233290,
1.248650,1.214570,
1.260200,1.192980,
1.267470,1.168970,
1.270000,1.143000,
1.270000,-1.143000,
1.267470,-1.168970,
1.260200,-1.192980,
1.248650,-1.214570,
1.233290,-1.233290,
1.214580,-1.248650,
1.192980,-1.260200,
1.168970,-1.267470,
1.143000,-1.270000,
-1.143000,-1.270000,
-1.168970,-1.267470,
-1.192980,-1.260200,
-1.214580,-1.248650,
-1.233290,-1.233290,
-1.248650,-1.214570,
-1.260200,-1.192980,
-1.267470,-1.168970,
-1.270000,-1.143000,
-1.270000,1.143000,
-1.267470,1.168970,
-1.260200,1.192980,
-1.248650,1.214570,
-1.233290,1.233290,
-1.214580,1.248650,
-1.192980,1.260200,
-1.168970,1.267470,
-1.143000,1.270000,
0*%
%ADD51PPAD045*%
%AMPPAD064*
4,1,36,
-0.444500,-0.635000,
0.444500,-0.635000,
0.470470,-0.632470,
0.494480,-0.625200,
0.516080,-0.613650,
0.534790,-0.598290,
0.550150,-0.579570,
0.561700,-0.557980,
0.568970,-0.533970,
0.571500,-0.508000,
0.571500,0.508000,
0.568970,0.533970,
0.561700,0.557980,
0.550150,0.579570,
0.534790,0.598290,
0.516080,0.613650,
0.494480,0.625200,
0.470470,0.632470,
0.444500,0.635000,
-0.444500,0.635000,
-0.470470,0.632470,
-0.494480,0.625200,
-0.516080,0.613650,
-0.534790,0.598290,
-0.550150,0.579570,
-0.561700,0.557980,
-0.568970,0.533970,
-0.571500,0.508000,
-0.571500,-0.508000,
-0.568970,-0.533970,
-0.561700,-0.557980,
-0.550150,-0.579570,
-0.534790,-0.598290,
-0.516080,-0.613650,
-0.494480,-0.625200,
-0.470470,-0.632470,
-0.444500,-0.635000,
0*%
%ADD74PPAD064*%
%AMPPAD065*
4,1,36,
3.492500,3.619500,
-3.492500,3.619500,
-3.518470,3.616970,
-3.542480,3.609700,
-3.564080,3.598150,
-3.582790,3.582790,
-3.598150,3.564070,
-3.609700,3.542480,
-3.616970,3.518470,
-3.619500,3.492500,
-3.619500,-3.492500,
-3.616970,-3.518470,
-3.609700,-3.542480,
-3.598150,-3.564070,
-3.582790,-3.582790,
-3.564080,-3.598150,
-3.542480,-3.609700,
-3.518470,-3.616970,
-3.492500,-3.619500,
3.492500,-3.619500,
3.518470,-3.616970,
3.542480,-3.609700,
3.564080,-3.598150,
3.582790,-3.582790,
3.598150,-3.564070,
3.609700,-3.542480,
3.616970,-3.518470,
3.619500,-3.492500,
3.619500,3.492500,
3.616970,3.518470,
3.609700,3.542480,
3.598150,3.564070,
3.582790,3.582790,
3.564080,3.598150,
3.542480,3.609700,
3.518470,3.616970,
3.492500,3.619500,
0*%
%ADD75PPAD065*%
%AMPPAD066*
4,1,36,
0.762000,1.397000,
-0.762000,1.397000,
-0.787970,1.394470,
-0.811980,1.387200,
-0.833580,1.375650,
-0.852290,1.360290,
-0.867650,1.341570,
-0.879200,1.319980,
-0.886470,1.295970,
-0.889000,1.270000,
-0.889000,-1.270000,
-0.886470,-1.295970,
-0.879200,-1.319980,
-0.867650,-1.341570,
-0.852290,-1.360290,
-0.833580,-1.375650,
-0.811980,-1.387200,
-0.787970,-1.394470,
-0.762000,-1.397000,
0.762000,-1.397000,
0.787970,-1.394470,
0.811980,-1.387200,
0.833580,-1.375650,
0.852290,-1.360290,
0.867650,-1.341570,
0.879200,-1.319980,
0.886470,-1.295970,
0.889000,-1.270000,
0.889000,1.270000,
0.886470,1.295970,
0.879200,1.319980,
0.867650,1.341570,
0.852290,1.360290,
0.833580,1.375650,
0.811980,1.387200,
0.787970,1.394470,
0.762000,1.397000,
0*%
%ADD76PPAD066*%
%AMPPAD067*
4,1,4,
-1.054100,-1.054100,
1.054100,-1.054100,
1.054100,1.054100,
-1.054100,1.054100,
-1.054100,-1.054100,
0*%
%ADD77PPAD067*%
%AMPPAD068*
4,1,36,
-0.571500,0.317500,
-0.571500,-0.317500,
-0.568970,-0.343470,
-0.561700,-0.367480,
-0.550150,-0.389080,
-0.534790,-0.407790,
-0.516070,-0.423150,
-0.494480,-0.434700,
-0.470470,-0.441970,
-0.444500,-0.444500,
0.444500,-0.444500,
0.470470,-0.441970,
0.494480,-0.434700,
0.516070,-0.423150,
0.534790,-0.407790,
0.550150,-0.389080,
0.561700,-0.367480,
0.568970,-0.343470,
0.571500,-0.317500,
0.571500,0.317500,
0.568970,0.343470,
0.561700,0.367480,
0.550150,0.389080,
0.534790,0.407790,
0.516070,0.423150,
0.494480,0.434700,
0.470470,0.441970,
0.444500,0.444500,
-0.444500,0.444500,
-0.470470,0.441970,
-0.494480,0.434700,
-0.516070,0.423150,
-0.534790,0.407790,
-0.550150,0.389080,
-0.561700,0.367480,
-0.568970,0.343470,
-0.571500,0.317500,
0*%
%ADD78PPAD068*%
%AMPPAD069*
4,1,4,
-0.596900,-2.654300,
0.596900,-2.654300,
0.596900,2.654300,
-0.596900,2.654300,
-0.596900,-2.654300,
0*%
%ADD79PPAD069*%
%AMPPAD070*
4,1,36,
-0.825500,-1.651000,
0.825500,-1.651000,
0.851470,-1.648470,
0.875480,-1.641200,
0.897080,-1.629650,
0.915790,-1.614290,
0.931150,-1.595570,
0.942700,-1.573980,
0.949970,-1.549970,
0.952500,-1.524000,
0.952500,1.524000,
0.949970,1.549970,
0.942700,1.573980,
0.931150,1.595570,
0.915790,1.614290,
0.897080,1.629650,
0.875480,1.641200,
0.851470,1.648470,
0.825500,1.651000,
-0.825500,1.651000,
-0.851470,1.648470,
-0.875480,1.641200,
-0.897080,1.629650,
-0.915790,1.614290,
-0.931150,1.595570,
-0.942700,1.573980,
-0.949970,1.549970,
-0.952500,1.524000,
-0.952500,-1.524000,
-0.949970,-1.549970,
-0.942700,-1.573980,
-0.931150,-1.595570,
-0.915790,-1.614290,
-0.897080,-1.629650,
-0.875480,-1.641200,
-0.851470,-1.648470,
-0.825500,-1.651000,
0*%
%ADD80PPAD070*%
%AMPPAD057*
4,1,36,
-1.016000,-0.190500,
-1.016000,0.190500,
-1.013470,0.216470,
-1.006200,0.240480,
-0.994650,0.262080,
-0.979290,0.280790,
-0.960570,0.296150,
-0.938980,0.307700,
-0.914970,0.314970,
-0.889000,0.317500,
0.889000,0.317500,
0.914970,0.314970,
0.938980,0.307700,
0.960570,0.296150,
0.979290,0.280790,
0.994650,0.262080,
1.006200,0.240480,
1.013470,0.216470,
1.016000,0.190500,
1.016000,-0.190500,
1.013470,-0.216470,
1.006200,-0.240480,
0.994650,-0.262080,
0.979290,-0.280790,
0.960570,-0.296150,
0.938980,-0.307700,
0.914970,-0.314970,
0.889000,-0.317500,
-0.889000,-0.317500,
-0.914970,-0.314970,
-0.938980,-0.307700,
-0.960570,-0.296150,
-0.979290,-0.280790,
-0.994650,-0.262080,
-1.006200,-0.240480,
-1.013470,-0.216470,
-1.016000,-0.190500,
0*%
%ADD63PPAD057*%
%AMPPAD071*
4,1,36,
-0.317500,-1.143000,
0.317500,-1.143000,
0.343470,-1.140470,
0.367480,-1.133200,
0.389080,-1.121650,
0.407790,-1.106290,
0.423150,-1.087570,
0.434700,-1.065980,
0.441970,-1.041970,
0.444500,-1.016000,
0.444500,1.016000,
0.441970,1.041970,
0.434700,1.065980,
0.423150,1.087570,
0.407790,1.106290,
0.389080,1.121650,
0.367480,1.133200,
0.343470,1.140470,
0.317500,1.143000,
-0.317500,1.143000,
-0.343470,1.140470,
-0.367480,1.133200,
-0.389080,1.121650,
-0.407790,1.106290,
-0.423150,1.087570,
-0.434700,1.065980,
-0.441970,1.041970,
-0.444500,1.016000,
-0.444500,-1.016000,
-0.441970,-1.041970,
-0.434700,-1.065980,
-0.423150,-1.087570,
-0.407790,-1.106290,
-0.389080,-1.121650,
-0.367480,-1.133200,
-0.343470,-1.140470,
-0.317500,-1.143000,
0*%
%ADD81PPAD071*%
%AMPPAD072*
4,1,4,
-1.701800,0.622300,
-1.701800,-0.622300,
1.701800,-0.622300,
1.701800,0.622300,
-1.701800,0.622300,
0*%
%ADD82PPAD072*%
%AMPPAD054*
4,1,36,
-1.397000,-0.762000,
-1.397000,0.762000,
-1.394470,0.787970,
-1.387200,0.811980,
-1.375650,0.833580,
-1.360290,0.852290,
-1.341570,0.867650,
-1.319980,0.879200,
-1.295970,0.886470,
-1.270000,0.889000,
1.270000,0.889000,
1.295970,0.886470,
1.319980,0.879200,
1.341570,0.867650,
1.360290,0.852290,
1.375650,0.833580,
1.387200,0.811980,
1.394470,0.787970,
1.397000,0.762000,
1.397000,-0.762000,
1.394470,-0.787970,
1.387200,-0.811980,
1.375650,-0.833580,
1.360290,-0.852290,
1.341570,-0.867650,
1.319980,-0.879200,
1.295970,-0.886470,
1.270000,-0.889000,
-1.270000,-0.889000,
-1.295970,-0.886470,
-1.319980,-0.879200,
-1.341570,-0.867650,
-1.360290,-0.852290,
-1.375650,-0.833580,
-1.387200,-0.811980,
-1.394470,-0.787970,
-1.397000,-0.762000,
0*%
%ADD60PPAD054*%
%AMPPAD073*
4,1,4,
0.571500,0.901700,
-0.571500,0.901700,
-0.571500,-0.901700,
0.571500,-0.901700,
0.571500,0.901700,
0*%
%ADD83PPAD073*%
%AMPPAD074*
4,1,4,
0.901700,-0.571500,
0.901700,0.571500,
-0.901700,0.571500,
-0.901700,-0.571500,
0.901700,-0.571500,
0*%
%ADD84PPAD074*%
%ADD64C,7.874000*%
%ADD39C,0.203200*%
D45*
X-1270000Y-2413000D03*
X+6032500Y-2095500D03*
X+1079500Y-2413000D03*
D46*
X-3424759Y-2876572D03*
X+3429000Y-3302000D03*
D45*
X+5995294Y-3705851D03*
X+8128000Y-2730500D03*
D47*
X-2984500Y+1587500D03*
X-571500Y+1651000D03*
X+1714500Y+1651000D03*
X+4134346Y+1645009D03*
X+5778500Y+1968500D03*
X+6437156Y+1707029D03*
X+3365500Y+2095500D03*
X+952500Y+2095500D03*
X-1333500Y+2095500D03*
D45*
X-4635500Y-2476500D03*
X-3429000Y-2876572D03*
X-3175000Y-3873500D03*
X-3749845Y-768079D03*
X-3746500Y+190500D03*
D47*
X-4263961Y+1955083D03*
D45*
X-5394560Y+718686D03*
X-1079500Y-2857500D03*
X+4635500Y-3048000D03*
X+1206500Y-2870200D03*
D49*
X-7048500Y-2476500D03*
X-7048500Y-2921000D03*
D50*
X-1828800Y+1841500D03*
D51*
X-2921000Y-3556000D03*
X-2921000Y-3048000D03*
X-2921000Y-3302000D03*
D50*
X+431800Y+1841500D03*
D51*
X-762000Y-3556000D03*
X-762000Y-3302000D03*
X-762000Y-3048000D03*
X+1587500Y-3302000D03*
X+1587500Y-3556000D03*
X+1587500Y-3048000D03*
D50*
X+2679700Y+1841500D03*
D51*
X+3937000Y-3556000D03*
X+6223000Y-3556000D03*
X+3937000Y-3048000D03*
X+6223000Y-3048000D03*
X+3937000Y-3302000D03*
X+6223000Y-3302000D03*
D50*
X+4953000Y+1841500D03*
X+7162800Y+1841500D03*
D74*
X+8196580Y-1389380D03*
X+8290560Y-1579880D03*
X+8102600Y-1579880D03*
D75*
X+7874000Y+825500D03*
D76*
X+8102600Y+134620D03*
X+7645400Y+134620D03*
D74*
X+5783580Y-1389380D03*
X+5877560Y-1579880D03*
X+5689600Y-1579880D03*
D75*
X+5461000Y+825500D03*
D76*
X+5689600Y+134620D03*
X+5232400Y+134620D03*
D74*
X+3370580Y-1389380D03*
X+3464560Y-1579880D03*
X+3276600Y-1579880D03*
D75*
X+3048000Y+825500D03*
D76*
X+3276600Y+134620D03*
X+2819400Y+134620D03*
D74*
X+957580Y-1389380D03*
X+1051560Y-1579880D03*
X+863600Y-1579880D03*
D75*
X+635000Y+825500D03*
D76*
X+863600Y+134620D03*
X+406400Y+134620D03*
D74*
X-1455420Y-1389380D03*
X-1361440Y-1579880D03*
X-1549400Y-1579880D03*
D75*
X-1778000Y+825500D03*
D76*
X-1549400Y+134620D03*
X-2006600Y+134620D03*
D77*
X+7086600Y+1404620D03*
X+7086600Y+954620D03*
D78*
X+8039100Y-1960880D03*
X+8039100Y-1725930D03*
D77*
X+4673600Y+1404620D03*
X+4673600Y+954620D03*
D78*
X+5626100Y-1960880D03*
X+5626100Y-1725930D03*
D77*
X+2260600Y+1404620D03*
X+2260600Y+954620D03*
D78*
X+3213100Y-1960880D03*
X+3213100Y-1725930D03*
D77*
X-152400Y+1404620D03*
X-152400Y+954620D03*
D78*
X+800100Y-1960880D03*
X+800100Y-1725930D03*
D77*
X-2565400Y+1404620D03*
X-2565400Y+954620D03*
D78*
X-1612900Y-1960880D03*
X-1612900Y-1725930D03*
D79*
X+6705600Y+198120D03*
X+7305600Y+198120D03*
X+4229100Y+198120D03*
X+4829100Y+198120D03*
X+1816100Y+198120D03*
X+2416100Y+198120D03*
X-596900Y+198120D03*
X+3100Y+198120D03*
X-3009900Y+198120D03*
X-2409900Y+198120D03*
D51*
X+7112000Y-3302000D03*
X+5461000Y-3302000D03*
X+2984500Y-3302000D03*
X+571500Y-3302000D03*
X-1778000Y-3302000D03*
X+7112000Y-3556000D03*
X+5461000Y-3556000D03*
X+2984500Y-3556000D03*
X+571500Y-3556000D03*
X-1778000Y-3556000D03*
X+7112000Y-3048000D03*
X+5461000Y-3048000D03*
X+2984500Y-3048000D03*
X+571500Y-3048000D03*
X-1778000Y-3048000D03*
D50*
X+6718300Y+1841500D03*
X+4495800Y+1841500D03*
X+2222500Y+1841500D03*
X-25400Y+1841500D03*
X-2273300Y+1841500D03*
D80*
X+6324600Y+914620D03*
X+6324600Y+1359120D03*
X+3911600Y+914620D03*
X+3911600Y+1359120D03*
X+1498600Y+914620D03*
X+1498600Y+1359120D03*
X-914400Y+914620D03*
X-914400Y+1359120D03*
X-3327400Y+914620D03*
X-3327400Y+1359120D03*
D63*
X+6845300Y-1168400D03*
X+6845300Y-1233400D03*
X+6845300Y-1298400D03*
X+6845300Y-1363400D03*
X+6415300Y-1363400D03*
X+6415300Y-1298400D03*
X+6415300Y-1233400D03*
X+6415300Y-1168400D03*
D81*
X+7848600Y-2100580D03*
X+7721600Y-2100580D03*
X+7594600Y-2100580D03*
X+7467600Y-2100580D03*
X+7467600Y-1579880D03*
X+7594600Y-1579880D03*
X+7721600Y-1579880D03*
X+7848600Y-1579880D03*
D63*
X+4341600Y-1176600D03*
X+4341600Y-1241600D03*
X+4341600Y-1306600D03*
X+4341600Y-1371600D03*
X+3911600Y-1371600D03*
X+3911600Y-1306600D03*
X+3911600Y-1241600D03*
X+3911600Y-1176600D03*
D81*
X+5435600Y-2100580D03*
X+5308600Y-2100580D03*
X+5181600Y-2100580D03*
X+5054600Y-2100580D03*
X+5054600Y-1579880D03*
X+5181600Y-1579880D03*
X+5308600Y-1579880D03*
X+5435600Y-1579880D03*
D63*
X+1928600Y-1163900D03*
X+1928600Y-1228900D03*
X+1928600Y-1293900D03*
X+1928600Y-1358900D03*
X+1498600Y-1358900D03*
X+1498600Y-1293900D03*
X+1498600Y-1228900D03*
X+1498600Y-1163900D03*
D81*
X+3022600Y-2100580D03*
X+2895600Y-2100580D03*
X+2768600Y-2100580D03*
X+2641600Y-2100580D03*
X+2641600Y-1579880D03*
X+2768600Y-1579880D03*
X+2895600Y-1579880D03*
X+3022600Y-1579880D03*
D63*
X-469900Y-1165400D03*
X-469900Y-1230400D03*
X-469900Y-1295400D03*
X-469900Y-1360400D03*
X-899900Y-1360400D03*
X-899900Y-1295400D03*
X-899900Y-1230400D03*
X-899900Y-1165400D03*
D81*
X+609600Y-2100580D03*
X+482600Y-2100580D03*
X+355600Y-2100580D03*
X+228600Y-2100580D03*
X+228600Y-1579880D03*
X+355600Y-1579880D03*
X+482600Y-1579880D03*
X+609600Y-1579880D03*
D63*
X-2870200Y-1165400D03*
X-2870200Y-1230400D03*
X-2870200Y-1295400D03*
X-2870200Y-1360400D03*
X-3300200Y-1360400D03*
X-3300200Y-1295400D03*
X-3300200Y-1230400D03*
X-3300200Y-1165400D03*
D81*
X-1803400Y-2100580D03*
X-1930400Y-2100580D03*
X-2057400Y-2100580D03*
X-2184400Y-2100580D03*
X-2184400Y-1579880D03*
X-2057400Y-1579880D03*
X-1930400Y-1579880D03*
X-1803400Y-1579880D03*
D82*
X-3327400Y+642620D03*
X-3327400Y+32620D03*
X+6324600Y+642620D03*
X+6324600Y+32620D03*
X+1498600Y+642620D03*
X+1498600Y+32620D03*
X+3911600Y+642620D03*
X+3911600Y+32620D03*
X-914400Y+642620D03*
X-914400Y+32620D03*
D60*
X+7874000Y-1143000D03*
X+7493000Y-1143000D03*
D83*
X+7848600Y-754380D03*
X+7548600Y-754380D03*
D60*
X+5461000Y-1143000D03*
X+5080000Y-1143000D03*
D83*
X+5435600Y-754380D03*
X+5135600Y-754380D03*
D60*
X+3111500Y-1143000D03*
X+2730500Y-1143000D03*
D83*
X+3022600Y-754380D03*
X+2722600Y-754380D03*
D60*
X+635000Y-1143000D03*
X+254000Y-1143000D03*
D83*
X+609600Y-754380D03*
X+309600Y-754380D03*
D60*
X-1778000Y-1143000D03*
X-2159000Y-1143000D03*
D83*
X-1803400Y-754380D03*
X-2103400Y-754380D03*
X+6705600Y-2151380D03*
X+6415600Y-2151380D03*
X+6678100Y-1643380D03*
X+6388100Y-1643380D03*
D84*
X+6388100Y-599880D03*
X+6388100Y-309880D03*
X+6896100Y-599880D03*
X+6896100Y-309880D03*
D83*
X+7249600Y-2151380D03*
X+6959600Y-2151380D03*
D84*
X+8128000Y-2250000D03*
X+8128000Y-2540000D03*
D83*
X+7848600Y-2405380D03*
X+7548600Y-2405380D03*
D84*
X+7150100Y-309880D03*
X+7150100Y-609880D03*
X+8102600Y-119380D03*
X+8102600Y-409380D03*
D83*
X+7594600Y-119380D03*
X+7884600Y-119380D03*
X+7848600Y-2659380D03*
X+7558600Y-2659380D03*
D84*
X+6642100Y-309880D03*
X+6642100Y-609880D03*
D83*
X+7023100Y-817880D03*
X+6723100Y-817880D03*
X+7259600Y-1643380D03*
X+6959600Y-1643380D03*
X+7259600Y-1897380D03*
X+6959600Y-1897380D03*
X+6705600Y-1897380D03*
X+6405600Y-1897380D03*
X+4864100Y-1897380D03*
X+4564100Y-1897380D03*
X+4546600Y-817880D03*
X+4246600Y-817880D03*
X+4211600Y-1643380D03*
X+3911600Y-1643380D03*
D84*
X+4165600Y-309880D03*
X+4165600Y-609880D03*
D83*
X+4864100Y-1643380D03*
X+4564100Y-1643380D03*
X+5435600Y-2405380D03*
X+5135600Y-2405380D03*
X+5435600Y-2659380D03*
X+5145600Y-2659380D03*
D84*
X+5689600Y-2242380D03*
X+5689600Y-2532380D03*
X+5689600Y-119380D03*
X+5689600Y-409380D03*
D83*
X+5145600Y-119380D03*
X+5435600Y-119380D03*
X+3022600Y-2659380D03*
X+2732600Y-2659380D03*
D84*
X+3276600Y-2278380D03*
X+3276600Y-2568380D03*
X+3276600Y-182880D03*
X+3276600Y-472880D03*
D83*
X+2768600Y-182880D03*
X+3058600Y-182880D03*
D84*
X+3911600Y-599880D03*
X+3911600Y-309880D03*
X+4419600Y-599880D03*
X+4419600Y-309880D03*
X+4673600Y-309880D03*
X+4673600Y-609880D03*
D83*
X+4201600Y-2151380D03*
X+3911600Y-2151380D03*
X+4201600Y-1897380D03*
X+3911600Y-1897380D03*
X+4864100Y-2151380D03*
X+4574100Y-2151380D03*
X+3022600Y-2405380D03*
X+2722600Y-2405380D03*
D84*
X+2006600Y-563880D03*
X+2006600Y-273880D03*
X+1498600Y-563880D03*
X+1498600Y-273880D03*
X-914400Y-599880D03*
X-914400Y-309880D03*
X-406400Y-599880D03*
X-406400Y-309880D03*
X+1752600Y-263880D03*
X+1752600Y-563880D03*
X-660400Y-309880D03*
X-660400Y-609880D03*
D83*
X+2179600Y-817880D03*
X+1879600Y-817880D03*
X-233400Y-817880D03*
X-533400Y-817880D03*
D84*
X+2260600Y-263880D03*
X+2260600Y-563880D03*
X-152400Y-309880D03*
X-152400Y-609880D03*
X-3327400Y-563880D03*
X-3327400Y-273880D03*
X-2819400Y-563880D03*
X-2819400Y-273880D03*
X-2565400Y-263880D03*
X-2565400Y-563880D03*
X-3073400Y-263880D03*
X-3073400Y-563880D03*
D83*
X-2692400Y-817880D03*
X-2992400Y-817880D03*
X+1788600Y-2151380D03*
X+1498600Y-2151380D03*
X+1788600Y-1643380D03*
X+1498600Y-1643380D03*
X+2360100Y-2151380D03*
X+2070100Y-2151380D03*
X+2370100Y-1897380D03*
X+2070100Y-1897380D03*
X+1798600Y-1897380D03*
X+1498600Y-1897380D03*
X+2370100Y-1643380D03*
X+2070100Y-1643380D03*
X+609600Y-2405380D03*
X+309600Y-2405380D03*
D84*
X+863600Y-2242380D03*
X+863600Y-2532380D03*
D83*
X+609600Y-2659380D03*
X+319600Y-2659380D03*
D84*
X+863600Y-182880D03*
X+863600Y-472880D03*
D83*
X+355600Y-182880D03*
X+645600Y-182880D03*
X+10600Y-2151380D03*
X-279400Y-2151380D03*
X-624400Y-2151380D03*
X-914400Y-2151380D03*
X-624400Y-1643380D03*
X-914400Y-1643380D03*
X+20600Y-1897380D03*
X-279400Y-1897380D03*
X-614400Y-1897380D03*
X-914400Y-1897380D03*
X+20600Y-1643380D03*
X-279400Y-1643380D03*
X-2392400Y-1897380D03*
X-2692400Y-1897380D03*
X-3027400Y-1643380D03*
X-3327400Y-1643380D03*
X-2392400Y-1643380D03*
X-2692400Y-1643380D03*
X-1803400Y-2405380D03*
X-2103400Y-2405380D03*
X-3037400Y-2151380D03*
X-3327400Y-2151380D03*
X-3037400Y-1897380D03*
X-3327400Y-1897380D03*
X-2402400Y-2151380D03*
X-2692400Y-2151380D03*
D84*
X-1549400Y-2278380D03*
X-1549400Y-2568380D03*
X-1549400Y-146880D03*
X-1549400Y-436880D03*
D83*
X-2057400Y-182880D03*
X-1767400Y-182880D03*
X-1803400Y-2659380D03*
X-2093400Y-2659380D03*
D75*
X-4254500Y+817880D03*
D76*
X-4025900Y+127000D03*
X-4483100Y+127000D03*
D82*
X-5905500Y+635000D03*
X-5905500Y+25000D03*
D63*
X-5232400Y-1178100D03*
X-5232400Y-1243100D03*
X-5232400Y-1308100D03*
X-5232400Y-1373100D03*
X-5662400Y-1373100D03*
X-5662400Y-1308100D03*
X-5662400Y-1243100D03*
X-5662400Y-1178100D03*
D81*
X-4191000Y-2108200D03*
X-4318000Y-2108200D03*
X-4445000Y-2108200D03*
X-4572000Y-2108200D03*
X-4572000Y-1587500D03*
X-4445000Y-1587500D03*
X-4318000Y-1587500D03*
X-4191000Y-1587500D03*
D77*
X-5080000Y+1460500D03*
X-5080000Y+1010500D03*
D78*
X-4000500Y-1949450D03*
X-4000500Y-1714500D03*
D74*
X-3843020Y-1333500D03*
X-3749040Y-1524000D03*
X-3937000Y-1524000D03*
D80*
X-5905500Y+970500D03*
X-5905500Y+1415000D03*
D79*
X-5489500Y+190500D03*
X-4889500Y+190500D03*
D50*
X-5080000Y+1905000D03*
D51*
X-4318000Y-3556000D03*
X-4318000Y-3048000D03*
X-4318000Y-3302000D03*
D83*
X-4780000Y-1905000D03*
X-5080000Y-1905000D03*
X-5034000Y-825500D03*
X-5334000Y-825500D03*
X-5351500Y-1651000D03*
X-5651500Y-1651000D03*
D84*
X-5397500Y-317500D03*
X-5397500Y-617500D03*
D83*
X-4780000Y-1651000D03*
X-5080000Y-1651000D03*
X-4191000Y-2413000D03*
X-4491000Y-2413000D03*
X-4191000Y-762000D03*
X-4491000Y-762000D03*
D84*
X-4889500Y-317500D03*
X-4889500Y-617500D03*
D60*
X-4141610Y-1157110D03*
X-4522610Y-1157110D03*
D83*
X-5361500Y-2159000D03*
X-5651500Y-2159000D03*
X-5361500Y-1905000D03*
X-5651500Y-1905000D03*
D84*
X-5651500Y-607500D03*
X-5651500Y-317500D03*
X-5143500Y-607500D03*
X-5143500Y-317500D03*
D83*
X-4790000Y-2159000D03*
X-5080000Y-2159000D03*
D84*
X-3937000Y-2250000D03*
X-3937000Y-2540000D03*
X-4000500Y-190500D03*
X-4000500Y-480500D03*
D83*
X-4508500Y-190500D03*
X-4218500Y-190500D03*
X-4191000Y-2667000D03*
X-4481000Y-2667000D03*
D64*
X-6921500Y-3810000D03*
X-6921500Y+2413000D03*
X+8001000Y+2413000D03*
X+8001000Y-3746500D03*
D51*
X-5207000Y-3048000D03*
X-5207000Y-3302000D03*
X-5207000Y-3556000D03*
X-5207000Y-3810000D03*
D50*
X-4635500Y+1905000D03*
D83*
X+7366000Y-2413000D03*
X+7076000Y-2413000D03*
X+4953000Y-2413000D03*
X+4663000Y-2413000D03*
X+2540000Y-2413000D03*
X+2250000Y-2413000D03*
X+127000Y-2413000D03*
X-163000Y-2413000D03*
X-2286000Y-2413000D03*
X-2576000Y-2413000D03*
X-4790000Y-2476500D03*
X-5080000Y-2476500D03*
D39*
X-7429500Y-4254500D02*
X+8509000Y-4254500D01*
X+8509000Y+2921000D01*
X-7429500Y+2921000D01*
X-7429500Y-4254500D01*
M02*
