G04 PROTEUS RS274X GERBER FILE*
%FSLAX45Y45*%
%MOMM*%
G01*
%ADD71C,1.270000*%
%ADD46C,2.286000*%
%ADD21C,1.524000*%
%ADD19C,1.016000*%
%ADD47C,1.778000*%
%ADD49C,4.064000*%
%ADD50C,2.794000*%
%AMPPAD045*
4,1,36,
-1.016000,1.143000,
1.016000,1.143000,
1.041970,1.140470,
1.065980,1.133200,
1.087580,1.121650,
1.106290,1.106290,
1.121650,1.087570,
1.133200,1.065980,
1.140470,1.041970,
1.143000,1.016000,
1.143000,-1.016000,
1.140470,-1.041970,
1.133200,-1.065980,
1.121650,-1.087570,
1.106290,-1.106290,
1.087580,-1.121650,
1.065980,-1.133200,
1.041970,-1.140470,
1.016000,-1.143000,
-1.016000,-1.143000,
-1.041970,-1.140470,
-1.065980,-1.133200,
-1.087580,-1.121650,
-1.106290,-1.106290,
-1.121650,-1.087570,
-1.133200,-1.065980,
-1.140470,-1.041970,
-1.143000,-1.016000,
-1.143000,1.016000,
-1.140470,1.041970,
-1.133200,1.065980,
-1.121650,1.087570,
-1.106290,1.106290,
-1.087580,1.121650,
-1.065980,1.133200,
-1.041970,1.140470,
-1.016000,1.143000,
0*%
%ADD51PPAD045*%
%AMPPAD064*
4,1,36,
-0.444500,-0.635000,
0.444500,-0.635000,
0.470470,-0.632470,
0.494480,-0.625200,
0.516080,-0.613650,
0.534790,-0.598290,
0.550150,-0.579570,
0.561700,-0.557980,
0.568970,-0.533970,
0.571500,-0.508000,
0.571500,0.508000,
0.568970,0.533970,
0.561700,0.557980,
0.550150,0.579570,
0.534790,0.598290,
0.516080,0.613650,
0.494480,0.625200,
0.470470,0.632470,
0.444500,0.635000,
-0.444500,0.635000,
-0.470470,0.632470,
-0.494480,0.625200,
-0.516080,0.613650,
-0.534790,0.598290,
-0.550150,0.579570,
-0.561700,0.557980,
-0.568970,0.533970,
-0.571500,0.508000,
-0.571500,-0.508000,
-0.568970,-0.533970,
-0.561700,-0.557980,
-0.550150,-0.579570,
-0.534790,-0.598290,
-0.516080,-0.613650,
-0.494480,-0.625200,
-0.470470,-0.632470,
-0.444500,-0.635000,
0*%
%ADD74PPAD064*%
%AMPPAD065*
4,1,36,
3.492500,3.619500,
-3.492500,3.619500,
-3.518470,3.616970,
-3.542480,3.609700,
-3.564080,3.598150,
-3.582790,3.582790,
-3.598150,3.564070,
-3.609700,3.542480,
-3.616970,3.518470,
-3.619500,3.492500,
-3.619500,-3.492500,
-3.616970,-3.518470,
-3.609700,-3.542480,
-3.598150,-3.564070,
-3.582790,-3.582790,
-3.564080,-3.598150,
-3.542480,-3.609700,
-3.518470,-3.616970,
-3.492500,-3.619500,
3.492500,-3.619500,
3.518470,-3.616970,
3.542480,-3.609700,
3.564080,-3.598150,
3.582790,-3.582790,
3.598150,-3.564070,
3.609700,-3.542480,
3.616970,-3.518470,
3.619500,-3.492500,
3.619500,3.492500,
3.616970,3.518470,
3.609700,3.542480,
3.598150,3.564070,
3.582790,3.582790,
3.564080,3.598150,
3.542480,3.609700,
3.518470,3.616970,
3.492500,3.619500,
0*%
%ADD75PPAD065*%
%AMPPAD066*
4,1,36,
0.762000,1.397000,
-0.762000,1.397000,
-0.787970,1.394470,
-0.811980,1.387200,
-0.833580,1.375650,
-0.852290,1.360290,
-0.867650,1.341570,
-0.879200,1.319980,
-0.886470,1.295970,
-0.889000,1.270000,
-0.889000,-1.270000,
-0.886470,-1.295970,
-0.879200,-1.319980,
-0.867650,-1.341570,
-0.852290,-1.360290,
-0.833580,-1.375650,
-0.811980,-1.387200,
-0.787970,-1.394470,
-0.762000,-1.397000,
0.762000,-1.397000,
0.787970,-1.394470,
0.811980,-1.387200,
0.833580,-1.375650,
0.852290,-1.360290,
0.867650,-1.341570,
0.879200,-1.319980,
0.886470,-1.295970,
0.889000,-1.270000,
0.889000,1.270000,
0.886470,1.295970,
0.879200,1.319980,
0.867650,1.341570,
0.852290,1.360290,
0.833580,1.375650,
0.811980,1.387200,
0.787970,1.394470,
0.762000,1.397000,
0*%
%ADD76PPAD066*%
%AMPPAD067*
4,1,4,
-1.054100,-1.054100,
1.054100,-1.054100,
1.054100,1.054100,
-1.054100,1.054100,
-1.054100,-1.054100,
0*%
%ADD77PPAD067*%
%AMPPAD068*
4,1,36,
-0.571500,0.317500,
-0.571500,-0.317500,
-0.568970,-0.343470,
-0.561700,-0.367480,
-0.550150,-0.389080,
-0.534790,-0.407790,
-0.516070,-0.423150,
-0.494480,-0.434700,
-0.470470,-0.441970,
-0.444500,-0.444500,
0.444500,-0.444500,
0.470470,-0.441970,
0.494480,-0.434700,
0.516070,-0.423150,
0.534790,-0.407790,
0.550150,-0.389080,
0.561700,-0.367480,
0.568970,-0.343470,
0.571500,-0.317500,
0.571500,0.317500,
0.568970,0.343470,
0.561700,0.367480,
0.550150,0.389080,
0.534790,0.407790,
0.516070,0.423150,
0.494480,0.434700,
0.470470,0.441970,
0.444500,0.444500,
-0.444500,0.444500,
-0.470470,0.441970,
-0.494480,0.434700,
-0.516070,0.423150,
-0.534790,0.407790,
-0.550150,0.389080,
-0.561700,0.367480,
-0.568970,0.343470,
-0.571500,0.317500,
0*%
%ADD78PPAD068*%
%AMPPAD042*
4,1,36,
-1.016000,2.921000,
1.016000,2.921000,
1.041970,2.918470,
1.065980,2.911200,
1.087580,2.899650,
1.106290,2.884290,
1.121650,2.865570,
1.133200,2.843980,
1.140470,2.819970,
1.143000,2.794000,
1.143000,-2.794000,
1.140470,-2.819970,
1.133200,-2.843980,
1.121650,-2.865570,
1.106290,-2.884290,
1.087580,-2.899650,
1.065980,-2.911200,
1.041970,-2.918470,
1.016000,-2.921000,
-1.016000,-2.921000,
-1.041970,-2.918470,
-1.065980,-2.911200,
-1.087580,-2.899650,
-1.106290,-2.884290,
-1.121650,-2.865570,
-1.133200,-2.843980,
-1.140470,-2.819970,
-1.143000,-2.794000,
-1.143000,2.794000,
-1.140470,2.819970,
-1.133200,2.843980,
-1.121650,2.865570,
-1.106290,2.884290,
-1.087580,2.899650,
-1.065980,2.911200,
-1.041970,2.918470,
-1.016000,2.921000,
0*%
%ADD48PPAD042*%
%AMPPAD069*
4,1,36,
-0.825500,-1.651000,
0.825500,-1.651000,
0.851470,-1.648470,
0.875480,-1.641200,
0.897080,-1.629650,
0.915790,-1.614290,
0.931150,-1.595570,
0.942700,-1.573980,
0.949970,-1.549970,
0.952500,-1.524000,
0.952500,1.524000,
0.949970,1.549970,
0.942700,1.573980,
0.931150,1.595570,
0.915790,1.614290,
0.897080,1.629650,
0.875480,1.641200,
0.851470,1.648470,
0.825500,1.651000,
-0.825500,1.651000,
-0.851470,1.648470,
-0.875480,1.641200,
-0.897080,1.629650,
-0.915790,1.614290,
-0.931150,1.595570,
-0.942700,1.573980,
-0.949970,1.549970,
-0.952500,1.524000,
-0.952500,-1.524000,
-0.949970,-1.549970,
-0.942700,-1.573980,
-0.931150,-1.595570,
-0.915790,-1.614290,
-0.897080,-1.629650,
-0.875480,-1.641200,
-0.851470,-1.648470,
-0.825500,-1.651000,
0*%
%ADD79PPAD069*%
%AMPPAD057*
4,1,36,
-1.016000,-0.190500,
-1.016000,0.190500,
-1.013470,0.216470,
-1.006200,0.240480,
-0.994650,0.262080,
-0.979290,0.280790,
-0.960570,0.296150,
-0.938980,0.307700,
-0.914970,0.314970,
-0.889000,0.317500,
0.889000,0.317500,
0.914970,0.314970,
0.938980,0.307700,
0.960570,0.296150,
0.979290,0.280790,
0.994650,0.262080,
1.006200,0.240480,
1.013470,0.216470,
1.016000,0.190500,
1.016000,-0.190500,
1.013470,-0.216470,
1.006200,-0.240480,
0.994650,-0.262080,
0.979290,-0.280790,
0.960570,-0.296150,
0.938980,-0.307700,
0.914970,-0.314970,
0.889000,-0.317500,
-0.889000,-0.317500,
-0.914970,-0.314970,
-0.938980,-0.307700,
-0.960570,-0.296150,
-0.979290,-0.280790,
-0.994650,-0.262080,
-1.006200,-0.240480,
-1.013470,-0.216470,
-1.016000,-0.190500,
0*%
%ADD63PPAD057*%
%AMPPAD070*
4,1,36,
-0.317500,-1.143000,
0.317500,-1.143000,
0.343470,-1.140470,
0.367480,-1.133200,
0.389080,-1.121650,
0.407790,-1.106290,
0.423150,-1.087570,
0.434700,-1.065980,
0.441970,-1.041970,
0.444500,-1.016000,
0.444500,1.016000,
0.441970,1.041970,
0.434700,1.065980,
0.423150,1.087570,
0.407790,1.106290,
0.389080,1.121650,
0.367480,1.133200,
0.343470,1.140470,
0.317500,1.143000,
-0.317500,1.143000,
-0.343470,1.140470,
-0.367480,1.133200,
-0.389080,1.121650,
-0.407790,1.106290,
-0.423150,1.087570,
-0.434700,1.065980,
-0.441970,1.041970,
-0.444500,1.016000,
-0.444500,-1.016000,
-0.441970,-1.041970,
-0.434700,-1.065980,
-0.423150,-1.087570,
-0.407790,-1.106290,
-0.389080,-1.121650,
-0.367480,-1.133200,
-0.343470,-1.140470,
-0.317500,-1.143000,
0*%
%ADD80PPAD070*%
%AMPPAD071*
4,1,4,
-1.701800,0.622300,
-1.701800,-0.622300,
1.701800,-0.622300,
1.701800,0.622300,
-1.701800,0.622300,
0*%
%ADD81PPAD071*%
%AMPPAD054*
4,1,36,
-1.397000,-0.762000,
-1.397000,0.762000,
-1.394470,0.787970,
-1.387200,0.811980,
-1.375650,0.833580,
-1.360290,0.852290,
-1.341570,0.867650,
-1.319980,0.879200,
-1.295970,0.886470,
-1.270000,0.889000,
1.270000,0.889000,
1.295970,0.886470,
1.319980,0.879200,
1.341570,0.867650,
1.360290,0.852290,
1.375650,0.833580,
1.387200,0.811980,
1.394470,0.787970,
1.397000,0.762000,
1.397000,-0.762000,
1.394470,-0.787970,
1.387200,-0.811980,
1.375650,-0.833580,
1.360290,-0.852290,
1.341570,-0.867650,
1.319980,-0.879200,
1.295970,-0.886470,
1.270000,-0.889000,
-1.270000,-0.889000,
-1.295970,-0.886470,
-1.319980,-0.879200,
-1.341570,-0.867650,
-1.360290,-0.852290,
-1.375650,-0.833580,
-1.387200,-0.811980,
-1.394470,-0.787970,
-1.397000,-0.762000,
0*%
%ADD60PPAD054*%
%AMPPAD072*
4,1,4,
0.571500,0.901700,
-0.571500,0.901700,
-0.571500,-0.901700,
0.571500,-0.901700,
0.571500,0.901700,
0*%
%ADD82PPAD072*%
%AMPPAD073*
4,1,4,
0.901700,-0.571500,
0.901700,0.571500,
-0.901700,0.571500,
-0.901700,-0.571500,
0.901700,-0.571500,
0*%
%ADD83PPAD073*%
%ADD64C,7.874000*%
%ADD41C,0.203200*%
D71*
X-3379970Y-639428D03*
X-3374955Y-1215192D03*
X-3238500Y-1905000D03*
D46*
X-635000Y+1841500D03*
X+1651000Y+1841500D03*
X+3383781Y+2028052D03*
D21*
X-4989352Y+736133D03*
X-3302000Y-63500D03*
X+8255000Y-2603500D03*
X+6032500Y-2095500D03*
X+3746500Y-2095500D03*
X+1460500Y-2095500D03*
X-889000Y-2095500D03*
X-3111500Y-2095500D03*
X-3492500Y-1905000D03*
X-3873500Y-1031366D03*
D19*
X-5080000Y-63500D03*
D21*
X+5143500Y-2413000D03*
X+7003489Y-2602297D03*
D19*
X+4749800Y+647700D03*
D46*
X+5765800Y+2654300D03*
D47*
X+6578600Y+1587500D03*
D46*
X+4779148Y+2286000D03*
D49*
X-7048500Y-2476500D03*
X-7048500Y-2921000D03*
D50*
X-2095500Y+1841500D03*
X-1651000Y+1841500D03*
D51*
X-2921000Y-3556000D03*
X-2921000Y-3048000D03*
X-2921000Y-3302000D03*
D50*
X+901700Y+1841500D03*
D51*
X-762000Y-3556000D03*
X-762000Y-3302000D03*
X-762000Y-3048000D03*
X+1587500Y-3302000D03*
X+1587500Y-3556000D03*
X+1587500Y-3048000D03*
D50*
X+2857500Y+1841500D03*
D51*
X+3937000Y-3556000D03*
X+5753100Y-3556000D03*
X+3937000Y-3048000D03*
X+5753100Y-3048000D03*
X+3937000Y-3302000D03*
X+5753100Y-3302000D03*
D50*
X+5207000Y+1841500D03*
X+6756400Y+1841500D03*
D74*
X+8196580Y-1389380D03*
X+8290560Y-1579880D03*
X+8102600Y-1579880D03*
D75*
X+7874000Y+825500D03*
D76*
X+8102600Y+134620D03*
X+7645400Y+134620D03*
D77*
X+7086600Y+1404620D03*
X+7086600Y+954620D03*
D78*
X+8039100Y-1960880D03*
X+8039100Y-1725930D03*
D48*
X+6705600Y+198120D03*
X+7305600Y+198120D03*
D51*
X+7112000Y-3302000D03*
X+7112000Y-3556000D03*
X+7112000Y-3048000D03*
D50*
X+6311900Y+1841500D03*
D51*
X-4254500Y-3556000D03*
D79*
X+6324600Y+914620D03*
X+6324600Y+1359120D03*
D63*
X+6832600Y-1163900D03*
X+6832600Y-1228900D03*
X+6832600Y-1293900D03*
X+6832600Y-1358900D03*
X+6402600Y-1358900D03*
X+6402600Y-1293900D03*
X+6402600Y-1228900D03*
X+6402600Y-1163900D03*
D80*
X+7848600Y-2100580D03*
X+7721600Y-2100580D03*
X+7594600Y-2100580D03*
X+7467600Y-2100580D03*
X+7467600Y-1579880D03*
X+7594600Y-1579880D03*
X+7721600Y-1579880D03*
X+7848600Y-1579880D03*
D81*
X+6324600Y+642620D03*
X+6324600Y+32620D03*
D60*
X+7874000Y-1143000D03*
X+7493000Y-1143000D03*
D82*
X+7848600Y-754380D03*
X+7548600Y-754380D03*
X+6705600Y-2151380D03*
X+6415600Y-2151380D03*
X+6678100Y-1643380D03*
X+6388100Y-1643380D03*
D83*
X+6388100Y-599880D03*
X+6388100Y-309880D03*
X+6896100Y-599880D03*
X+6896100Y-309880D03*
D82*
X+7249600Y-2151380D03*
X+6959600Y-2151380D03*
D83*
X+8255000Y-2095500D03*
X+8255000Y-2385500D03*
D82*
X+7848600Y-2405380D03*
X+7548600Y-2405380D03*
D83*
X+7150100Y-309880D03*
X+7150100Y-609880D03*
X+8102600Y-119380D03*
X+8102600Y-409380D03*
D82*
X+7594600Y-119380D03*
X+7884600Y-119380D03*
X+7848600Y-2659380D03*
X+7558600Y-2659380D03*
D83*
X+6642100Y-309880D03*
X+6642100Y-609880D03*
D82*
X+7023100Y-817880D03*
X+6723100Y-817880D03*
X+7259600Y-1643380D03*
X+6959600Y-1643380D03*
X+7259600Y-1897380D03*
X+6959600Y-1897380D03*
X+6705600Y-1897380D03*
X+6405600Y-1897380D03*
D64*
X-6921500Y-3746500D03*
X-6921500Y+2413000D03*
X+8001000Y+2413000D03*
X+8001000Y-3746500D03*
D50*
X-4191000Y+1841500D03*
X-4635500Y+1841500D03*
D75*
X-4546600Y+817880D03*
D76*
X-4318000Y+127000D03*
X-4775200Y+127000D03*
D75*
X-3200400Y+817880D03*
D76*
X-2971800Y+127000D03*
X-3429000Y+127000D03*
D74*
X-5173980Y-254000D03*
X-5080000Y-444500D03*
X-5267960Y-444500D03*
X-3840480Y-254000D03*
X-3746500Y-444500D03*
X-3934460Y-444500D03*
X-4508500Y-444500D03*
X-4602480Y-254000D03*
X-4414520Y-254000D03*
X-3175000Y-444500D03*
X-3268980Y-254000D03*
X-3081020Y-254000D03*
D83*
X-4826000Y-154500D03*
X-4826000Y-444500D03*
X-4191000Y-154500D03*
X-4191000Y-444500D03*
X-3492500Y-154500D03*
X-3492500Y-444500D03*
X-2857500Y-154500D03*
X-2857500Y-444500D03*
D50*
X-2921000Y+1841500D03*
X-3365500Y+1841500D03*
D51*
X-4254500Y-3048000D03*
X-4254500Y-3302000D03*
D83*
X+3439000Y-1242500D03*
X+3439000Y-1542500D03*
X+3756500Y-698500D03*
X+3756500Y-998500D03*
X+4264500Y-190500D03*
X+4264500Y-490500D03*
X+2931000Y-1542500D03*
X+2931000Y-1252500D03*
X+3439000Y-998500D03*
X+3439000Y-708500D03*
X+4010500Y-998500D03*
X+4010500Y-708500D03*
X+3185000Y-1542500D03*
X+3185000Y-1252500D03*
X+4010500Y-490500D03*
X+4010500Y-200500D03*
X+4518500Y-490500D03*
X+4518500Y-200500D03*
D51*
X+3746500Y+2095500D03*
X+2603500Y-3175000D03*
X+3746500Y+1841500D03*
X+4000500Y+2095500D03*
X+2603500Y-3429000D03*
X+4000500Y+1841500D03*
X+4254500Y+2095500D03*
X+2603500Y-3683000D03*
X+4254500Y+1841500D03*
X-5143500Y-3048000D03*
X-5143500Y-3302000D03*
D82*
X+7311000Y-2413000D03*
X+7021000Y-2413000D03*
D51*
X-5143500Y-3556000D03*
D50*
X+469900Y+1841500D03*
X+2413000Y+1841500D03*
X+4762500Y+1841500D03*
D41*
X-7429500Y-4254500D02*
X+8509000Y-4254500D01*
X+8509000Y+2921000D01*
X-7429500Y+2921000D01*
X-7429500Y-4254500D01*
M02*
