G04 PROTEUS RS274X GERBER FILE*
%FSLAX45Y45*%
%MOMM*%
G01*
%ADD41C,0.203200*%
%ADD114C,0.061970*%
%ADD104C,0.233420*%
%ADD84C,0.050000*%
%ADD115C,0.143000*%
%ADD106C,0.059690*%
%ADD85C,0.193750*%
%ADD101C,0.149860*%
%ADD116C,0.125000*%
%ADD105C,0.144780*%
%ADD102C,0.159000*%
%ADD103C,0.137160*%
%ADD100C,0.095000*%
%ADD99C,0.093000*%
%ADD117C,0.103290*%
D41*
X-7429500Y-4254500D02*
X+8509000Y-4254500D01*
X+8509000Y+2921000D01*
X-7429500Y+2921000D01*
X-7429500Y-4254500D01*
X+8041640Y-1630680D02*
X+8351520Y-1630680D01*
X+8351520Y-1338580D01*
X+8041640Y-1338580D01*
X+8041640Y-1630680D01*
D114*
X+8295740Y-1478433D02*
X+8283345Y-1466038D01*
X+8270950Y-1466038D01*
X+8258555Y-1478433D01*
X+8258555Y-1490828D01*
X+8270950Y-1503223D01*
X+8283345Y-1503223D01*
X+8295740Y-1490828D01*
X+8295740Y-1478433D01*
X+8270950Y-1490828D02*
X+8258555Y-1503223D01*
X+8246160Y-1466038D02*
X+8246160Y-1484630D01*
X+8227568Y-1503223D01*
X+8208975Y-1484630D01*
X+8208975Y-1466038D01*
X+8184185Y-1478433D02*
X+8171790Y-1466038D01*
X+8171790Y-1503223D01*
X+8134605Y-1478433D02*
X+8122210Y-1466038D01*
X+8122210Y-1503223D01*
D41*
X+7524750Y+7620D02*
X+8223250Y+7620D01*
X+8223250Y+1174750D01*
X+7524750Y+1174750D01*
X+7524750Y+7620D01*
D104*
X+7850658Y+964665D02*
X+7803973Y+917980D01*
X+7803973Y+871295D01*
X+7850658Y+824610D01*
X+7897343Y+824610D01*
X+7944028Y+871295D01*
X+7944028Y+917980D01*
X+7897343Y+964665D01*
X+7850658Y+964665D01*
X+7897343Y+871295D02*
X+7944028Y+824610D01*
X+7803973Y+777925D02*
X+7874000Y+777925D01*
X+7944028Y+707898D01*
X+7874000Y+637870D01*
X+7803973Y+637870D01*
X+7850658Y+544500D02*
X+7803973Y+497815D01*
X+7944028Y+497815D01*
X+7827315Y+381103D02*
X+7803973Y+357760D01*
X+7803973Y+287733D01*
X+7827315Y+264390D01*
X+7850658Y+264390D01*
X+7874000Y+287733D01*
X+7874000Y+357760D01*
X+7897343Y+381103D01*
X+7944028Y+381103D01*
X+7944028Y+264390D01*
D84*
X+6871600Y+824620D02*
X+6871600Y+1534620D01*
X+7301600Y+1534620D01*
X+7301600Y+824620D01*
X+6871600Y+824620D01*
X+7136600Y+1179620D02*
X+7036600Y+1179620D01*
X+7086600Y+1229620D02*
X+7086600Y+1129620D01*
D115*
X+7129500Y+1408420D02*
X+7043700Y+1408420D01*
X+7043700Y+1351220D01*
X+7072300Y+1322620D01*
X+7100900Y+1322620D01*
X+7129500Y+1351220D01*
X+7129500Y+1408420D01*
X+7043700Y+1294020D02*
X+7086600Y+1294020D01*
X+7129500Y+1251120D01*
X+7086600Y+1208220D01*
X+7043700Y+1208220D01*
X+7072300Y+1151020D02*
X+7043700Y+1122420D01*
X+7129500Y+1122420D01*
X+7072300Y+1036620D02*
X+7043700Y+1008020D01*
X+7129500Y+1008020D01*
D41*
X+7964020Y-1992630D02*
X+8114180Y-1992630D01*
X+8114180Y-1694180D01*
X+7964020Y-1694180D01*
X+7964020Y-1992630D01*
D106*
X+8057007Y-1747901D02*
X+8021193Y-1747901D01*
X+8021193Y-1771777D01*
X+8033131Y-1783715D01*
X+8045069Y-1783715D01*
X+8057007Y-1771777D01*
X+8057007Y-1747901D01*
X+8021193Y-1795653D02*
X+8039100Y-1795653D01*
X+8057007Y-1813560D01*
X+8039100Y-1831467D01*
X+8021193Y-1831467D01*
X+8033131Y-1855343D02*
X+8021193Y-1867281D01*
X+8057007Y-1867281D01*
X+8027162Y-1897126D02*
X+8021193Y-1903095D01*
X+8021193Y-1921002D01*
X+8027162Y-1926971D01*
X+8033131Y-1926971D01*
X+8039100Y-1921002D01*
X+8039100Y-1903095D01*
X+8045069Y-1897126D01*
X+8057007Y-1897126D01*
X+8057007Y-1926971D01*
D84*
X+6620600Y+488120D02*
X+7390600Y+488120D01*
X+7390600Y-91880D01*
X+6620600Y-91880D01*
X+6620600Y+488120D01*
X+7005600Y+148120D02*
X+7005600Y+248120D01*
X+7055600Y+198120D02*
X+6955600Y+198120D01*
D85*
X+7238100Y+256245D02*
X+7238100Y+139995D01*
X+7121850Y+139995D01*
X+7083100Y+256245D02*
X+7083100Y+198120D01*
X+7024975Y+139995D01*
X+6966850Y+198120D01*
X+6966850Y+256245D01*
X+6811850Y+236870D02*
X+6831225Y+256245D01*
X+6889350Y+256245D01*
X+6908725Y+236870D01*
X+6908725Y+159370D01*
X+6889350Y+139995D01*
X+6831225Y+139995D01*
X+6811850Y+159370D01*
X+6811850Y+178745D01*
X+6831225Y+198120D01*
X+6908725Y+198120D01*
D41*
X+5996940Y+762220D02*
X+6652260Y+762220D01*
X+6652260Y+1511520D01*
X+5996940Y+1511520D01*
X+5996940Y+762220D01*
D101*
X+6354572Y+1286730D02*
X+6369558Y+1301716D01*
X+6369558Y+1346674D01*
X+6339586Y+1376646D01*
X+6309614Y+1376646D01*
X+6279642Y+1346674D01*
X+6279642Y+1301716D01*
X+6294628Y+1286730D01*
X+6279642Y+1256758D02*
X+6324600Y+1256758D01*
X+6369558Y+1211800D01*
X+6324600Y+1166842D01*
X+6279642Y+1166842D01*
X+6294628Y+1046954D02*
X+6279642Y+1061940D01*
X+6279642Y+1106898D01*
X+6294628Y+1121884D01*
X+6354572Y+1121884D01*
X+6369558Y+1106898D01*
X+6369558Y+1061940D01*
X+6354572Y+1046954D01*
X+6339586Y+1046954D01*
X+6324600Y+1061940D01*
X+6324600Y+1121884D01*
X+6279642Y+927066D02*
X+6279642Y+1001996D01*
X+6309614Y+1001996D01*
X+6309614Y+942052D01*
X+6324600Y+927066D01*
X+6354572Y+927066D01*
X+6369558Y+942052D01*
X+6369558Y+987010D01*
X+6354572Y+1001996D01*
D84*
X+6927600Y-1441400D02*
X+6307600Y-1441400D01*
X+6307600Y-1081400D01*
X+6927600Y-1081400D01*
X+6927600Y-1441400D01*
X+6617600Y-1211400D02*
X+6617600Y-1311400D01*
X+6567600Y-1261400D02*
X+6667600Y-1261400D01*
D116*
X+6817600Y-1223900D02*
X+6817600Y-1286400D01*
X+6805100Y-1298900D01*
X+6755100Y-1298900D01*
X+6742600Y-1286400D01*
X+6742600Y-1223900D01*
X+6717600Y-1223900D02*
X+6717600Y-1261400D01*
X+6680100Y-1298900D01*
X+6642600Y-1261400D01*
X+6642600Y-1223900D01*
X+6592600Y-1248900D02*
X+6567600Y-1223900D01*
X+6567600Y-1298900D01*
X+6492600Y-1248900D02*
X+6467600Y-1223900D01*
X+6467600Y-1298900D01*
D41*
X+7424420Y-2202180D02*
X+7891780Y-2202180D01*
X+7891780Y-1478280D01*
X+7424420Y-1478280D01*
X+7424420Y-2202180D01*
D105*
X+7614666Y-1608582D02*
X+7687056Y-1608582D01*
X+7701534Y-1623060D01*
X+7701534Y-1680972D01*
X+7687056Y-1695450D01*
X+7614666Y-1695450D01*
X+7614666Y-1724406D02*
X+7658100Y-1724406D01*
X+7701534Y-1767840D01*
X+7658100Y-1811274D01*
X+7614666Y-1811274D01*
X+7643622Y-1869186D02*
X+7614666Y-1898142D01*
X+7701534Y-1898142D01*
X+7629144Y-1970532D02*
X+7614666Y-1985010D01*
X+7614666Y-2028444D01*
X+7629144Y-2042922D01*
X+7643622Y-2042922D01*
X+7658100Y-2028444D01*
X+7658100Y-1985010D01*
X+7672578Y-1970532D01*
X+7701534Y-1970532D01*
X+7701534Y-2042922D01*
D84*
X+6519600Y+732620D02*
X+6519600Y-57380D01*
X+6129600Y-57380D01*
X+6129600Y+732620D01*
X+6519600Y+732620D01*
X+6274600Y+337620D02*
X+6374600Y+337620D01*
X+6324600Y+287620D02*
X+6324600Y+387620D01*
D102*
X+6372300Y+592020D02*
X+6276900Y+592020D01*
X+6276900Y+512520D01*
X+6292800Y+496620D01*
X+6308700Y+496620D01*
X+6324600Y+512520D01*
X+6324600Y+592020D01*
X+6324600Y+512520D02*
X+6340500Y+496620D01*
X+6372300Y+496620D01*
X+6276900Y+464820D02*
X+6324600Y+464820D01*
X+6372300Y+417120D01*
X+6324600Y+369420D01*
X+6276900Y+369420D01*
X+6276900Y+321720D02*
X+6276900Y+242220D01*
X+6292800Y+242220D01*
X+6372300Y+321720D01*
X+6292800Y+194520D02*
X+6276900Y+178620D01*
X+6276900Y+130920D01*
X+6292800Y+115020D01*
X+6308700Y+115020D01*
X+6324600Y+130920D01*
X+6324600Y+178620D01*
X+6340500Y+194520D01*
X+6372300Y+194520D01*
X+6372300Y+115020D01*
D41*
X+7340600Y-1407160D02*
X+8026400Y-1407160D01*
X+8026400Y-878840D01*
X+7340600Y-878840D01*
X+7340600Y-1407160D01*
D103*
X+7820660Y-1170432D02*
X+7834376Y-1184148D01*
X+7875524Y-1184148D01*
X+7902956Y-1156716D01*
X+7902956Y-1129284D01*
X+7875524Y-1101852D01*
X+7834376Y-1101852D01*
X+7820660Y-1115568D01*
X+7793228Y-1101852D02*
X+7793228Y-1143000D01*
X+7752080Y-1184148D01*
X+7710932Y-1143000D01*
X+7710932Y-1101852D01*
X+7601204Y-1115568D02*
X+7614920Y-1101852D01*
X+7656068Y-1101852D01*
X+7669784Y-1115568D01*
X+7669784Y-1170432D01*
X+7656068Y-1184148D01*
X+7614920Y-1184148D01*
X+7601204Y-1170432D01*
X+7601204Y-1156716D01*
X+7614920Y-1143000D01*
X+7669784Y-1143000D01*
X+7491476Y-1115568D02*
X+7505192Y-1101852D01*
X+7546340Y-1101852D01*
X+7560056Y-1115568D01*
X+7560056Y-1170432D01*
X+7546340Y-1184148D01*
X+7505192Y-1184148D01*
X+7491476Y-1170432D01*
X+7491476Y-1156716D01*
X+7505192Y-1143000D01*
X+7560056Y-1143000D01*
D84*
X+7933600Y-869380D02*
X+7463600Y-869380D01*
X+7463600Y-639380D01*
X+7933600Y-639380D01*
X+7933600Y-869380D01*
X+7698600Y-704380D02*
X+7698600Y-804380D01*
X+7648600Y-754380D02*
X+7748600Y-754380D01*
D100*
X+7793600Y-773380D02*
X+7803100Y-782880D01*
X+7831600Y-782880D01*
X+7850600Y-763880D01*
X+7850600Y-744880D01*
X+7831600Y-725880D01*
X+7803100Y-725880D01*
X+7793600Y-735380D01*
X+7774600Y-725880D02*
X+7774600Y-754380D01*
X+7746100Y-782880D01*
X+7717600Y-754380D01*
X+7717600Y-725880D01*
X+7641600Y-735380D02*
X+7651100Y-725880D01*
X+7679600Y-725880D01*
X+7689100Y-735380D01*
X+7689100Y-773380D01*
X+7679600Y-782880D01*
X+7651100Y-782880D01*
X+7641600Y-773380D01*
X+7641600Y-763880D01*
X+7651100Y-754380D01*
X+7689100Y-754380D01*
X+7613100Y-735380D02*
X+7603600Y-725880D01*
X+7575100Y-725880D01*
X+7565600Y-735380D01*
X+7565600Y-744880D01*
X+7575100Y-754380D01*
X+7565600Y-763880D01*
X+7565600Y-773380D01*
X+7575100Y-782880D01*
X+7603600Y-782880D01*
X+7613100Y-773380D01*
X+7594100Y-754380D02*
X+7575100Y-754380D01*
D84*
X+6790600Y-2266380D02*
X+6330600Y-2266380D01*
X+6330600Y-2036380D01*
X+6790600Y-2036380D01*
X+6790600Y-2266380D01*
X+6560600Y-2101380D02*
X+6560600Y-2201380D01*
X+6510600Y-2151380D02*
X+6610600Y-2151380D01*
D99*
X+6709400Y-2179280D02*
X+6709400Y-2123480D01*
X+6662900Y-2123480D01*
X+6653600Y-2132780D01*
X+6653600Y-2142080D01*
X+6662900Y-2151380D01*
X+6709400Y-2151380D01*
X+6662900Y-2151380D02*
X+6653600Y-2160680D01*
X+6653600Y-2179280D01*
X+6635000Y-2123480D02*
X+6635000Y-2151380D01*
X+6607100Y-2179280D01*
X+6579200Y-2151380D01*
X+6579200Y-2123480D01*
X+6504800Y-2132780D02*
X+6514100Y-2123480D01*
X+6542000Y-2123480D01*
X+6551300Y-2132780D01*
X+6551300Y-2169980D01*
X+6542000Y-2179280D01*
X+6514100Y-2179280D01*
X+6504800Y-2169980D01*
X+6504800Y-2160680D01*
X+6514100Y-2151380D01*
X+6551300Y-2151380D01*
X+6467600Y-2142080D02*
X+6449000Y-2123480D01*
X+6449000Y-2179280D01*
D84*
X+6763100Y-1758380D02*
X+6303100Y-1758380D01*
X+6303100Y-1528380D01*
X+6763100Y-1528380D01*
X+6763100Y-1758380D01*
X+6533100Y-1593380D02*
X+6533100Y-1693380D01*
X+6483100Y-1643380D02*
X+6583100Y-1643380D01*
D99*
X+6681900Y-1671280D02*
X+6681900Y-1615480D01*
X+6635400Y-1615480D01*
X+6626100Y-1624780D01*
X+6626100Y-1634080D01*
X+6635400Y-1643380D01*
X+6681900Y-1643380D01*
X+6635400Y-1643380D02*
X+6626100Y-1652680D01*
X+6626100Y-1671280D01*
X+6607500Y-1615480D02*
X+6607500Y-1643380D01*
X+6579600Y-1671280D01*
X+6551700Y-1643380D01*
X+6551700Y-1615480D01*
X+6477300Y-1624780D02*
X+6486600Y-1615480D01*
X+6514500Y-1615480D01*
X+6523800Y-1624780D01*
X+6523800Y-1661980D01*
X+6514500Y-1671280D01*
X+6486600Y-1671280D01*
X+6477300Y-1661980D01*
X+6477300Y-1652680D01*
X+6486600Y-1643380D01*
X+6523800Y-1643380D01*
X+6449400Y-1624780D02*
X+6440100Y-1615480D01*
X+6412200Y-1615480D01*
X+6402900Y-1624780D01*
X+6402900Y-1634080D01*
X+6412200Y-1643380D01*
X+6440100Y-1643380D01*
X+6449400Y-1652680D01*
X+6449400Y-1671280D01*
X+6402900Y-1671280D01*
D84*
X+6273100Y-684880D02*
X+6273100Y-224880D01*
X+6503100Y-224880D01*
X+6503100Y-684880D01*
X+6273100Y-684880D01*
X+6438100Y-454880D02*
X+6338100Y-454880D01*
X+6388100Y-404880D02*
X+6388100Y-504880D01*
D99*
X+6416000Y-306080D02*
X+6360200Y-306080D01*
X+6360200Y-352580D01*
X+6369500Y-361880D01*
X+6378800Y-361880D01*
X+6388100Y-352580D01*
X+6388100Y-306080D01*
X+6388100Y-352580D02*
X+6397400Y-361880D01*
X+6416000Y-361880D01*
X+6360200Y-380480D02*
X+6388100Y-380480D01*
X+6416000Y-408380D01*
X+6388100Y-436280D01*
X+6360200Y-436280D01*
X+6369500Y-510680D02*
X+6360200Y-501380D01*
X+6360200Y-473480D01*
X+6369500Y-464180D01*
X+6406700Y-464180D01*
X+6416000Y-473480D01*
X+6416000Y-501380D01*
X+6406700Y-510680D01*
X+6397400Y-510680D01*
X+6388100Y-501380D01*
X+6388100Y-464180D01*
X+6369500Y-538580D02*
X+6360200Y-547880D01*
X+6360200Y-575780D01*
X+6369500Y-585080D01*
X+6378800Y-585080D01*
X+6388100Y-575780D01*
X+6397400Y-585080D01*
X+6406700Y-585080D01*
X+6416000Y-575780D01*
X+6416000Y-547880D01*
X+6406700Y-538580D01*
X+6388100Y-557180D02*
X+6388100Y-575780D01*
D84*
X+6781100Y-684880D02*
X+6781100Y-224880D01*
X+7011100Y-224880D01*
X+7011100Y-684880D01*
X+6781100Y-684880D01*
X+6946100Y-454880D02*
X+6846100Y-454880D01*
X+6896100Y-404880D02*
X+6896100Y-504880D01*
D99*
X+6924000Y-306080D02*
X+6868200Y-306080D01*
X+6868200Y-352580D01*
X+6877500Y-361880D01*
X+6886800Y-361880D01*
X+6896100Y-352580D01*
X+6896100Y-306080D01*
X+6896100Y-352580D02*
X+6905400Y-361880D01*
X+6924000Y-361880D01*
X+6868200Y-380480D02*
X+6896100Y-380480D01*
X+6924000Y-408380D01*
X+6896100Y-436280D01*
X+6868200Y-436280D01*
X+6877500Y-510680D02*
X+6868200Y-501380D01*
X+6868200Y-473480D01*
X+6877500Y-464180D01*
X+6914700Y-464180D01*
X+6924000Y-473480D01*
X+6924000Y-501380D01*
X+6914700Y-510680D01*
X+6905400Y-510680D01*
X+6896100Y-501380D01*
X+6896100Y-464180D01*
X+6905400Y-585080D02*
X+6905400Y-529280D01*
X+6868200Y-566480D01*
X+6924000Y-566480D01*
D84*
X+7334600Y-2266380D02*
X+6874600Y-2266380D01*
X+6874600Y-2036380D01*
X+7334600Y-2036380D01*
X+7334600Y-2266380D01*
X+7104600Y-2101380D02*
X+7104600Y-2201380D01*
X+7054600Y-2151380D02*
X+7154600Y-2151380D01*
D99*
X+7253400Y-2179280D02*
X+7253400Y-2123480D01*
X+7206900Y-2123480D01*
X+7197600Y-2132780D01*
X+7197600Y-2142080D01*
X+7206900Y-2151380D01*
X+7253400Y-2151380D01*
X+7206900Y-2151380D02*
X+7197600Y-2160680D01*
X+7197600Y-2179280D01*
X+7179000Y-2123480D02*
X+7179000Y-2151380D01*
X+7151100Y-2179280D01*
X+7123200Y-2151380D01*
X+7123200Y-2123480D01*
X+7048800Y-2132780D02*
X+7058100Y-2123480D01*
X+7086000Y-2123480D01*
X+7095300Y-2132780D01*
X+7095300Y-2169980D01*
X+7086000Y-2179280D01*
X+7058100Y-2179280D01*
X+7048800Y-2169980D01*
X+7048800Y-2160680D01*
X+7058100Y-2151380D01*
X+7095300Y-2151380D01*
X+6974400Y-2123480D02*
X+7020900Y-2123480D01*
X+7020900Y-2142080D01*
X+6983700Y-2142080D01*
X+6974400Y-2151380D01*
X+6974400Y-2169980D01*
X+6983700Y-2179280D01*
X+7011600Y-2179280D01*
X+7020900Y-2169980D01*
D84*
X+8370000Y-2010500D02*
X+8370000Y-2470500D01*
X+8140000Y-2470500D01*
X+8140000Y-2010500D01*
X+8370000Y-2010500D01*
X+8205000Y-2240500D02*
X+8305000Y-2240500D01*
X+8255000Y-2290500D02*
X+8255000Y-2190500D01*
D99*
X+8282900Y-2091700D02*
X+8227100Y-2091700D01*
X+8227100Y-2138200D01*
X+8236400Y-2147500D01*
X+8245700Y-2147500D01*
X+8255000Y-2138200D01*
X+8255000Y-2091700D01*
X+8255000Y-2138200D02*
X+8264300Y-2147500D01*
X+8282900Y-2147500D01*
X+8227100Y-2166100D02*
X+8255000Y-2166100D01*
X+8282900Y-2194000D01*
X+8255000Y-2221900D01*
X+8227100Y-2221900D01*
X+8236400Y-2296300D02*
X+8227100Y-2287000D01*
X+8227100Y-2259100D01*
X+8236400Y-2249800D01*
X+8273600Y-2249800D01*
X+8282900Y-2259100D01*
X+8282900Y-2287000D01*
X+8273600Y-2296300D01*
X+8264300Y-2296300D01*
X+8255000Y-2287000D01*
X+8255000Y-2249800D01*
X+8255000Y-2333500D02*
X+8245700Y-2324200D01*
X+8236400Y-2324200D01*
X+8227100Y-2333500D01*
X+8227100Y-2361400D01*
X+8236400Y-2370700D01*
X+8245700Y-2370700D01*
X+8255000Y-2361400D01*
X+8255000Y-2333500D01*
X+8264300Y-2324200D01*
X+8273600Y-2324200D01*
X+8282900Y-2333500D01*
X+8282900Y-2361400D01*
X+8273600Y-2370700D01*
X+8264300Y-2370700D01*
X+8255000Y-2361400D01*
D84*
X+7933600Y-2520380D02*
X+7463600Y-2520380D01*
X+7463600Y-2290380D01*
X+7933600Y-2290380D01*
X+7933600Y-2520380D01*
X+7698600Y-2355380D02*
X+7698600Y-2455380D01*
X+7648600Y-2405380D02*
X+7748600Y-2405380D01*
D100*
X+7793600Y-2424380D02*
X+7803100Y-2433880D01*
X+7831600Y-2433880D01*
X+7850600Y-2414880D01*
X+7850600Y-2395880D01*
X+7831600Y-2376880D01*
X+7803100Y-2376880D01*
X+7793600Y-2386380D01*
X+7774600Y-2376880D02*
X+7774600Y-2405380D01*
X+7746100Y-2433880D01*
X+7717600Y-2405380D01*
X+7717600Y-2376880D01*
X+7641600Y-2386380D02*
X+7651100Y-2376880D01*
X+7679600Y-2376880D01*
X+7689100Y-2386380D01*
X+7689100Y-2424380D01*
X+7679600Y-2433880D01*
X+7651100Y-2433880D01*
X+7641600Y-2424380D01*
X+7641600Y-2414880D01*
X+7651100Y-2405380D01*
X+7689100Y-2405380D01*
X+7613100Y-2386380D02*
X+7603600Y-2376880D01*
X+7575100Y-2376880D01*
X+7565600Y-2386380D01*
X+7565600Y-2395880D01*
X+7575100Y-2405380D01*
X+7603600Y-2405380D01*
X+7613100Y-2414880D01*
X+7613100Y-2433880D01*
X+7565600Y-2433880D01*
D84*
X+7265100Y-224880D02*
X+7265100Y-694880D01*
X+7035100Y-694880D01*
X+7035100Y-224880D01*
X+7265100Y-224880D01*
X+7100100Y-459880D02*
X+7200100Y-459880D01*
X+7150100Y-509880D02*
X+7150100Y-409880D01*
D100*
X+7169100Y-364880D02*
X+7178600Y-355380D01*
X+7178600Y-326880D01*
X+7159600Y-307880D01*
X+7140600Y-307880D01*
X+7121600Y-326880D01*
X+7121600Y-355380D01*
X+7131100Y-364880D01*
X+7121600Y-383880D02*
X+7150100Y-383880D01*
X+7178600Y-412380D01*
X+7150100Y-440880D01*
X+7121600Y-440880D01*
X+7131100Y-516880D02*
X+7121600Y-507380D01*
X+7121600Y-478880D01*
X+7131100Y-469380D01*
X+7169100Y-469380D01*
X+7178600Y-478880D01*
X+7178600Y-507380D01*
X+7169100Y-516880D01*
X+7159600Y-516880D01*
X+7150100Y-507380D01*
X+7150100Y-469380D01*
X+7159600Y-592880D02*
X+7159600Y-535880D01*
X+7121600Y-573880D01*
X+7178600Y-573880D01*
D84*
X+8217600Y-34380D02*
X+8217600Y-494380D01*
X+7987600Y-494380D01*
X+7987600Y-34380D01*
X+8217600Y-34380D01*
X+8052600Y-264380D02*
X+8152600Y-264380D01*
X+8102600Y-314380D02*
X+8102600Y-214380D01*
D99*
X+8130500Y-115580D02*
X+8074700Y-115580D01*
X+8074700Y-162080D01*
X+8084000Y-171380D01*
X+8093300Y-171380D01*
X+8102600Y-162080D01*
X+8102600Y-115580D01*
X+8102600Y-162080D02*
X+8111900Y-171380D01*
X+8130500Y-171380D01*
X+8074700Y-189980D02*
X+8102600Y-189980D01*
X+8130500Y-217880D01*
X+8102600Y-245780D01*
X+8074700Y-245780D01*
X+8084000Y-320180D02*
X+8074700Y-310880D01*
X+8074700Y-282980D01*
X+8084000Y-273680D01*
X+8121200Y-273680D01*
X+8130500Y-282980D01*
X+8130500Y-310880D01*
X+8121200Y-320180D01*
X+8111900Y-320180D01*
X+8102600Y-310880D01*
X+8102600Y-273680D01*
X+8093300Y-394580D02*
X+8102600Y-385280D01*
X+8102600Y-357380D01*
X+8093300Y-348080D01*
X+8084000Y-348080D01*
X+8074700Y-357380D01*
X+8074700Y-385280D01*
X+8084000Y-394580D01*
X+8121200Y-394580D01*
X+8130500Y-385280D01*
X+8130500Y-357380D01*
D84*
X+7509600Y-4380D02*
X+7969600Y-4380D01*
X+7969600Y-234380D01*
X+7509600Y-234380D01*
X+7509600Y-4380D01*
X+7739600Y-169380D02*
X+7739600Y-69380D01*
X+7789600Y-119380D02*
X+7689600Y-119380D01*
D99*
X+7888400Y-147280D02*
X+7888400Y-91480D01*
X+7841900Y-91480D01*
X+7832600Y-100780D01*
X+7832600Y-110080D01*
X+7841900Y-119380D01*
X+7888400Y-119380D01*
X+7841900Y-119380D02*
X+7832600Y-128680D01*
X+7832600Y-147280D01*
X+7814000Y-91480D02*
X+7814000Y-119380D01*
X+7786100Y-147280D01*
X+7758200Y-119380D01*
X+7758200Y-91480D01*
X+7730300Y-91480D02*
X+7683800Y-91480D01*
X+7683800Y-100780D01*
X+7730300Y-147280D01*
X+7665200Y-137980D02*
X+7665200Y-100780D01*
X+7655900Y-91480D01*
X+7618700Y-91480D01*
X+7609400Y-100780D01*
X+7609400Y-137980D01*
X+7618700Y-147280D01*
X+7655900Y-147280D01*
X+7665200Y-137980D01*
X+7665200Y-147280D02*
X+7609400Y-91480D01*
D84*
X+7933600Y-2774380D02*
X+7473600Y-2774380D01*
X+7473600Y-2544380D01*
X+7933600Y-2544380D01*
X+7933600Y-2774380D01*
X+7703600Y-2609380D02*
X+7703600Y-2709380D01*
X+7653600Y-2659380D02*
X+7753600Y-2659380D01*
D99*
X+7852400Y-2687280D02*
X+7852400Y-2631480D01*
X+7805900Y-2631480D01*
X+7796600Y-2640780D01*
X+7796600Y-2650080D01*
X+7805900Y-2659380D01*
X+7852400Y-2659380D01*
X+7805900Y-2659380D02*
X+7796600Y-2668680D01*
X+7796600Y-2687280D01*
X+7778000Y-2631480D02*
X+7778000Y-2659380D01*
X+7750100Y-2687280D01*
X+7722200Y-2659380D01*
X+7722200Y-2631480D01*
X+7694300Y-2631480D02*
X+7647800Y-2631480D01*
X+7647800Y-2640780D01*
X+7694300Y-2687280D01*
X+7610600Y-2650080D02*
X+7592000Y-2631480D01*
X+7592000Y-2687280D01*
D84*
X+6757100Y-224880D02*
X+6757100Y-694880D01*
X+6527100Y-694880D01*
X+6527100Y-224880D01*
X+6757100Y-224880D01*
X+6592100Y-459880D02*
X+6692100Y-459880D01*
X+6642100Y-509880D02*
X+6642100Y-409880D01*
D100*
X+6661100Y-364880D02*
X+6670600Y-355380D01*
X+6670600Y-326880D01*
X+6651600Y-307880D01*
X+6632600Y-307880D01*
X+6613600Y-326880D01*
X+6613600Y-355380D01*
X+6623100Y-364880D01*
X+6613600Y-383880D02*
X+6642100Y-383880D01*
X+6670600Y-412380D01*
X+6642100Y-440880D01*
X+6613600Y-440880D01*
X+6613600Y-516880D02*
X+6613600Y-469380D01*
X+6632600Y-469380D01*
X+6632600Y-507380D01*
X+6642100Y-516880D01*
X+6661100Y-516880D01*
X+6670600Y-507380D01*
X+6670600Y-478880D01*
X+6661100Y-469380D01*
X+6632600Y-592880D02*
X+6642100Y-583380D01*
X+6642100Y-554880D01*
X+6632600Y-545380D01*
X+6623100Y-545380D01*
X+6613600Y-554880D01*
X+6613600Y-583380D01*
X+6623100Y-592880D01*
X+6661100Y-592880D01*
X+6670600Y-583380D01*
X+6670600Y-554880D01*
D84*
X+7108100Y-932880D02*
X+6638100Y-932880D01*
X+6638100Y-702880D01*
X+7108100Y-702880D01*
X+7108100Y-932880D01*
X+6873100Y-767880D02*
X+6873100Y-867880D01*
X+6823100Y-817880D02*
X+6923100Y-817880D01*
D100*
X+6968100Y-836880D02*
X+6977600Y-846380D01*
X+7006100Y-846380D01*
X+7025100Y-827380D01*
X+7025100Y-808380D01*
X+7006100Y-789380D01*
X+6977600Y-789380D01*
X+6968100Y-798880D01*
X+6949100Y-789380D02*
X+6949100Y-817880D01*
X+6920600Y-846380D01*
X+6892100Y-817880D01*
X+6892100Y-789380D01*
X+6816100Y-789380D02*
X+6863600Y-789380D01*
X+6863600Y-808380D01*
X+6825600Y-808380D01*
X+6816100Y-817880D01*
X+6816100Y-836880D01*
X+6825600Y-846380D01*
X+6854100Y-846380D01*
X+6863600Y-836880D01*
X+6787600Y-789380D02*
X+6740100Y-789380D01*
X+6740100Y-798880D01*
X+6787600Y-846380D01*
D84*
X+7344600Y-1758380D02*
X+6874600Y-1758380D01*
X+6874600Y-1528380D01*
X+7344600Y-1528380D01*
X+7344600Y-1758380D01*
X+7109600Y-1593380D02*
X+7109600Y-1693380D01*
X+7059600Y-1643380D02*
X+7159600Y-1643380D01*
D100*
X+7204600Y-1662380D02*
X+7214100Y-1671880D01*
X+7242600Y-1671880D01*
X+7261600Y-1652880D01*
X+7261600Y-1633880D01*
X+7242600Y-1614880D01*
X+7214100Y-1614880D01*
X+7204600Y-1624380D01*
X+7185600Y-1614880D02*
X+7185600Y-1643380D01*
X+7157100Y-1671880D01*
X+7128600Y-1643380D01*
X+7128600Y-1614880D01*
X+7052600Y-1624380D02*
X+7062100Y-1614880D01*
X+7090600Y-1614880D01*
X+7100100Y-1624380D01*
X+7100100Y-1662380D01*
X+7090600Y-1671880D01*
X+7062100Y-1671880D01*
X+7052600Y-1662380D01*
X+7052600Y-1652880D01*
X+7062100Y-1643380D01*
X+7100100Y-1643380D01*
X+7033600Y-1662380D02*
X+7033600Y-1624380D01*
X+7024100Y-1614880D01*
X+6986100Y-1614880D01*
X+6976600Y-1624380D01*
X+6976600Y-1662380D01*
X+6986100Y-1671880D01*
X+7024100Y-1671880D01*
X+7033600Y-1662380D01*
X+7033600Y-1671880D02*
X+6976600Y-1614880D01*
D84*
X+7344600Y-2012380D02*
X+6874600Y-2012380D01*
X+6874600Y-1782380D01*
X+7344600Y-1782380D01*
X+7344600Y-2012380D01*
X+7109600Y-1847380D02*
X+7109600Y-1947380D01*
X+7059600Y-1897380D02*
X+7159600Y-1897380D01*
D100*
X+7204600Y-1916380D02*
X+7214100Y-1925880D01*
X+7242600Y-1925880D01*
X+7261600Y-1906880D01*
X+7261600Y-1887880D01*
X+7242600Y-1868880D01*
X+7214100Y-1868880D01*
X+7204600Y-1878380D01*
X+7185600Y-1868880D02*
X+7185600Y-1897380D01*
X+7157100Y-1925880D01*
X+7128600Y-1897380D01*
X+7128600Y-1868880D01*
X+7052600Y-1868880D02*
X+7100100Y-1868880D01*
X+7100100Y-1887880D01*
X+7062100Y-1887880D01*
X+7052600Y-1897380D01*
X+7052600Y-1916380D01*
X+7062100Y-1925880D01*
X+7090600Y-1925880D01*
X+7100100Y-1916380D01*
X+6976600Y-1878380D02*
X+6986100Y-1868880D01*
X+7014600Y-1868880D01*
X+7024100Y-1878380D01*
X+7024100Y-1916380D01*
X+7014600Y-1925880D01*
X+6986100Y-1925880D01*
X+6976600Y-1916380D01*
X+6976600Y-1906880D01*
X+6986100Y-1897380D01*
X+7024100Y-1897380D01*
D84*
X+6790600Y-2012380D02*
X+6320600Y-2012380D01*
X+6320600Y-1782380D01*
X+6790600Y-1782380D01*
X+6790600Y-2012380D01*
X+6555600Y-1847380D02*
X+6555600Y-1947380D01*
X+6505600Y-1897380D02*
X+6605600Y-1897380D01*
D100*
X+6650600Y-1916380D02*
X+6660100Y-1925880D01*
X+6688600Y-1925880D01*
X+6707600Y-1906880D01*
X+6707600Y-1887880D01*
X+6688600Y-1868880D01*
X+6660100Y-1868880D01*
X+6650600Y-1878380D01*
X+6631600Y-1868880D02*
X+6631600Y-1897380D01*
X+6603100Y-1925880D01*
X+6574600Y-1897380D01*
X+6574600Y-1868880D01*
X+6498600Y-1868880D02*
X+6546100Y-1868880D01*
X+6546100Y-1887880D01*
X+6508100Y-1887880D01*
X+6498600Y-1897380D01*
X+6498600Y-1916380D01*
X+6508100Y-1925880D01*
X+6536600Y-1925880D01*
X+6546100Y-1916380D01*
X+6460600Y-1897380D02*
X+6470100Y-1887880D01*
X+6470100Y-1878380D01*
X+6460600Y-1868880D01*
X+6432100Y-1868880D01*
X+6422600Y-1878380D01*
X+6422600Y-1887880D01*
X+6432100Y-1897380D01*
X+6460600Y-1897380D01*
X+6470100Y-1906880D01*
X+6470100Y-1916380D01*
X+6460600Y-1925880D01*
X+6432100Y-1925880D01*
X+6422600Y-1916380D01*
X+6422600Y-1906880D01*
X+6432100Y-1897380D01*
D41*
X-4895850Y+0D02*
X-4197350Y+0D01*
X-4197350Y+1167130D01*
X-4895850Y+1167130D01*
X-4895850Y+0D01*
D104*
X-4569942Y+957045D02*
X-4616627Y+910360D01*
X-4616627Y+863675D01*
X-4569942Y+816990D01*
X-4523257Y+816990D01*
X-4476572Y+863675D01*
X-4476572Y+910360D01*
X-4523257Y+957045D01*
X-4569942Y+957045D01*
X-4523257Y+863675D02*
X-4476572Y+816990D01*
X-4616627Y+770305D02*
X-4546600Y+770305D01*
X-4476572Y+700278D01*
X-4546600Y+630250D01*
X-4616627Y+630250D01*
X-4569942Y+536880D02*
X-4616627Y+490195D01*
X-4476572Y+490195D01*
X-4593285Y+373483D02*
X-4616627Y+350140D01*
X-4616627Y+280113D01*
X-4593285Y+256770D01*
X-4569942Y+256770D01*
X-4546600Y+280113D01*
X-4523257Y+256770D01*
X-4499914Y+256770D01*
X-4476572Y+280113D01*
X-4476572Y+350140D01*
X-4499914Y+373483D01*
X-4546600Y+326798D02*
X-4546600Y+280113D01*
D41*
X-3549650Y+0D02*
X-2851150Y+0D01*
X-2851150Y+1167130D01*
X-3549650Y+1167130D01*
X-3549650Y+0D01*
D104*
X-3223742Y+957045D02*
X-3270427Y+910360D01*
X-3270427Y+863675D01*
X-3223742Y+816990D01*
X-3177057Y+816990D01*
X-3130372Y+863675D01*
X-3130372Y+910360D01*
X-3177057Y+957045D01*
X-3223742Y+957045D01*
X-3177057Y+863675D02*
X-3130372Y+816990D01*
X-3270427Y+770305D02*
X-3200400Y+770305D01*
X-3130372Y+700278D01*
X-3200400Y+630250D01*
X-3270427Y+630250D01*
X-3223742Y+536880D02*
X-3270427Y+490195D01*
X-3130372Y+490195D01*
X-3270427Y+256770D02*
X-3270427Y+373483D01*
X-3223742Y+373483D01*
X-3223742Y+280113D01*
X-3200400Y+256770D01*
X-3153714Y+256770D01*
X-3130372Y+280113D01*
X-3130372Y+350140D01*
X-3153714Y+373483D01*
D41*
X-5328920Y-495300D02*
X-5019040Y-495300D01*
X-5019040Y-203200D01*
X-5328920Y-203200D01*
X-5328920Y-495300D01*
D117*
X-5091346Y-338921D02*
X-5112004Y-318262D01*
X-5132663Y-318262D01*
X-5153321Y-338921D01*
X-5153321Y-359579D01*
X-5132663Y-380238D01*
X-5112004Y-380238D01*
X-5091346Y-359579D01*
X-5091346Y-338921D01*
X-5132663Y-359579D02*
X-5153321Y-380238D01*
X-5194638Y-338921D02*
X-5215297Y-318262D01*
X-5215297Y-380238D01*
D41*
X-3995420Y-495300D02*
X-3685540Y-495300D01*
X-3685540Y-203200D01*
X-3995420Y-203200D01*
X-3995420Y-495300D01*
D117*
X-3757846Y-338921D02*
X-3778504Y-318262D01*
X-3799163Y-318262D01*
X-3819821Y-338921D01*
X-3819821Y-359579D01*
X-3799163Y-380238D01*
X-3778504Y-380238D01*
X-3757846Y-359579D01*
X-3757846Y-338921D01*
X-3799163Y-359579D02*
X-3819821Y-380238D01*
X-3850809Y-328591D02*
X-3861138Y-318262D01*
X-3892126Y-318262D01*
X-3902455Y-328591D01*
X-3902455Y-338921D01*
X-3892126Y-349250D01*
X-3902455Y-359579D01*
X-3902455Y-369909D01*
X-3892126Y-380238D01*
X-3861138Y-380238D01*
X-3850809Y-369909D01*
X-3871467Y-349250D02*
X-3892126Y-349250D01*
D41*
X-4663440Y-495300D02*
X-4353560Y-495300D01*
X-4353560Y-203200D01*
X-4663440Y-203200D01*
X-4663440Y-495300D01*
D114*
X-4409340Y-343053D02*
X-4421735Y-330658D01*
X-4434130Y-330658D01*
X-4446525Y-343053D01*
X-4446525Y-355448D01*
X-4434130Y-367843D01*
X-4421735Y-367843D01*
X-4409340Y-355448D01*
X-4409340Y-343053D01*
X-4434130Y-355448D02*
X-4446525Y-367843D01*
X-4458920Y-330658D02*
X-4458920Y-349250D01*
X-4477512Y-367843D01*
X-4496105Y-349250D01*
X-4496105Y-330658D01*
X-4520895Y-343053D02*
X-4533290Y-330658D01*
X-4533290Y-367843D01*
X-4595265Y-355448D02*
X-4558080Y-355448D01*
X-4582870Y-330658D01*
X-4582870Y-367843D01*
D41*
X-3329940Y-495300D02*
X-3020060Y-495300D01*
X-3020060Y-203200D01*
X-3329940Y-203200D01*
X-3329940Y-495300D01*
D114*
X-3075840Y-343053D02*
X-3088235Y-330658D01*
X-3100630Y-330658D01*
X-3113025Y-343053D01*
X-3113025Y-355448D01*
X-3100630Y-367843D01*
X-3088235Y-367843D01*
X-3075840Y-355448D01*
X-3075840Y-343053D01*
X-3100630Y-355448D02*
X-3113025Y-367843D01*
X-3125420Y-330658D02*
X-3125420Y-349250D01*
X-3144012Y-367843D01*
X-3162605Y-349250D01*
X-3162605Y-330658D01*
X-3187395Y-343053D02*
X-3199790Y-330658D01*
X-3199790Y-367843D01*
X-3261765Y-336855D02*
X-3255567Y-330658D01*
X-3236975Y-330658D01*
X-3230777Y-336855D01*
X-3230777Y-361646D01*
X-3236975Y-367843D01*
X-3255567Y-367843D01*
X-3261765Y-361646D01*
X-3261765Y-355448D01*
X-3255567Y-349250D01*
X-3230777Y-349250D01*
D84*
X-4711000Y-69500D02*
X-4711000Y-529500D01*
X-4941000Y-529500D01*
X-4941000Y-69500D01*
X-4711000Y-69500D01*
X-4876000Y-299500D02*
X-4776000Y-299500D01*
X-4826000Y-349500D02*
X-4826000Y-249500D01*
D99*
X-4798100Y-150700D02*
X-4853900Y-150700D01*
X-4853900Y-197200D01*
X-4844600Y-206500D01*
X-4835300Y-206500D01*
X-4826000Y-197200D01*
X-4826000Y-150700D01*
X-4826000Y-197200D02*
X-4816700Y-206500D01*
X-4798100Y-206500D01*
X-4853900Y-225100D02*
X-4826000Y-225100D01*
X-4798100Y-253000D01*
X-4826000Y-280900D01*
X-4853900Y-280900D01*
X-4853900Y-308800D02*
X-4853900Y-355300D01*
X-4844600Y-355300D01*
X-4798100Y-308800D01*
X-4844600Y-429700D02*
X-4853900Y-420400D01*
X-4853900Y-392500D01*
X-4844600Y-383200D01*
X-4807400Y-383200D01*
X-4798100Y-392500D01*
X-4798100Y-420400D01*
X-4807400Y-429700D01*
X-4816700Y-429700D01*
X-4826000Y-420400D01*
X-4826000Y-383200D01*
D84*
X-4076000Y-69500D02*
X-4076000Y-529500D01*
X-4306000Y-529500D01*
X-4306000Y-69500D01*
X-4076000Y-69500D01*
X-4241000Y-299500D02*
X-4141000Y-299500D01*
X-4191000Y-349500D02*
X-4191000Y-249500D01*
D99*
X-4163100Y-150700D02*
X-4218900Y-150700D01*
X-4218900Y-197200D01*
X-4209600Y-206500D01*
X-4200300Y-206500D01*
X-4191000Y-197200D01*
X-4191000Y-150700D01*
X-4191000Y-197200D02*
X-4181700Y-206500D01*
X-4163100Y-206500D01*
X-4218900Y-225100D02*
X-4191000Y-225100D01*
X-4163100Y-253000D01*
X-4191000Y-280900D01*
X-4218900Y-280900D01*
X-4218900Y-308800D02*
X-4218900Y-355300D01*
X-4209600Y-355300D01*
X-4163100Y-308800D01*
X-4218900Y-383200D02*
X-4218900Y-429700D01*
X-4209600Y-429700D01*
X-4163100Y-383200D01*
D84*
X-3377500Y-69500D02*
X-3377500Y-529500D01*
X-3607500Y-529500D01*
X-3607500Y-69500D01*
X-3377500Y-69500D01*
X-3542500Y-299500D02*
X-3442500Y-299500D01*
X-3492500Y-349500D02*
X-3492500Y-249500D01*
D99*
X-3464600Y-150700D02*
X-3520400Y-150700D01*
X-3520400Y-197200D01*
X-3511100Y-206500D01*
X-3501800Y-206500D01*
X-3492500Y-197200D01*
X-3492500Y-150700D01*
X-3492500Y-197200D02*
X-3483200Y-206500D01*
X-3464600Y-206500D01*
X-3520400Y-225100D02*
X-3492500Y-225100D01*
X-3464600Y-253000D01*
X-3492500Y-280900D01*
X-3520400Y-280900D01*
X-3492500Y-318100D02*
X-3501800Y-308800D01*
X-3511100Y-308800D01*
X-3520400Y-318100D01*
X-3520400Y-346000D01*
X-3511100Y-355300D01*
X-3501800Y-355300D01*
X-3492500Y-346000D01*
X-3492500Y-318100D01*
X-3483200Y-308800D01*
X-3473900Y-308800D01*
X-3464600Y-318100D01*
X-3464600Y-346000D01*
X-3473900Y-355300D01*
X-3483200Y-355300D01*
X-3492500Y-346000D01*
X-3473900Y-373900D02*
X-3511100Y-373900D01*
X-3520400Y-383200D01*
X-3520400Y-420400D01*
X-3511100Y-429700D01*
X-3473900Y-429700D01*
X-3464600Y-420400D01*
X-3464600Y-383200D01*
X-3473900Y-373900D01*
X-3464600Y-373900D02*
X-3520400Y-429700D01*
D84*
X-2742500Y-69500D02*
X-2742500Y-529500D01*
X-2972500Y-529500D01*
X-2972500Y-69500D01*
X-2742500Y-69500D01*
X-2907500Y-299500D02*
X-2807500Y-299500D01*
X-2857500Y-349500D02*
X-2857500Y-249500D01*
D99*
X-2829600Y-150700D02*
X-2885400Y-150700D01*
X-2885400Y-197200D01*
X-2876100Y-206500D01*
X-2866800Y-206500D01*
X-2857500Y-197200D01*
X-2857500Y-150700D01*
X-2857500Y-197200D02*
X-2848200Y-206500D01*
X-2829600Y-206500D01*
X-2885400Y-225100D02*
X-2857500Y-225100D01*
X-2829600Y-253000D01*
X-2857500Y-280900D01*
X-2885400Y-280900D01*
X-2857500Y-318100D02*
X-2866800Y-308800D01*
X-2876100Y-308800D01*
X-2885400Y-318100D01*
X-2885400Y-346000D01*
X-2876100Y-355300D01*
X-2866800Y-355300D01*
X-2857500Y-346000D01*
X-2857500Y-318100D01*
X-2848200Y-308800D01*
X-2838900Y-308800D01*
X-2829600Y-318100D01*
X-2829600Y-346000D01*
X-2838900Y-355300D01*
X-2848200Y-355300D01*
X-2857500Y-346000D01*
X-2866800Y-392500D02*
X-2885400Y-411100D01*
X-2829600Y-411100D01*
D84*
X+3554000Y-1157500D02*
X+3554000Y-1627500D01*
X+3324000Y-1627500D01*
X+3324000Y-1157500D01*
X+3554000Y-1157500D01*
X+3389000Y-1392500D02*
X+3489000Y-1392500D01*
X+3439000Y-1442500D02*
X+3439000Y-1342500D01*
D100*
X+3458000Y-1297500D02*
X+3467500Y-1288000D01*
X+3467500Y-1259500D01*
X+3448500Y-1240500D01*
X+3429500Y-1240500D01*
X+3410500Y-1259500D01*
X+3410500Y-1288000D01*
X+3420000Y-1297500D01*
X+3410500Y-1316500D02*
X+3439000Y-1316500D01*
X+3467500Y-1345000D01*
X+3439000Y-1373500D01*
X+3410500Y-1373500D01*
X+3420000Y-1449500D02*
X+3410500Y-1440000D01*
X+3410500Y-1411500D01*
X+3420000Y-1402000D01*
X+3458000Y-1402000D01*
X+3467500Y-1411500D01*
X+3467500Y-1440000D01*
X+3458000Y-1449500D01*
X+3448500Y-1449500D01*
X+3439000Y-1440000D01*
X+3439000Y-1402000D01*
X+3410500Y-1478000D02*
X+3410500Y-1525500D01*
X+3420000Y-1525500D01*
X+3467500Y-1478000D01*
D84*
X+3871500Y-613500D02*
X+3871500Y-1083500D01*
X+3641500Y-1083500D01*
X+3641500Y-613500D01*
X+3871500Y-613500D01*
X+3706500Y-848500D02*
X+3806500Y-848500D01*
X+3756500Y-898500D02*
X+3756500Y-798500D01*
D100*
X+3775500Y-753500D02*
X+3785000Y-744000D01*
X+3785000Y-715500D01*
X+3766000Y-696500D01*
X+3747000Y-696500D01*
X+3728000Y-715500D01*
X+3728000Y-744000D01*
X+3737500Y-753500D01*
X+3728000Y-772500D02*
X+3756500Y-772500D01*
X+3785000Y-801000D01*
X+3756500Y-829500D01*
X+3728000Y-829500D01*
X+3737500Y-905500D02*
X+3728000Y-896000D01*
X+3728000Y-867500D01*
X+3737500Y-858000D01*
X+3775500Y-858000D01*
X+3785000Y-867500D01*
X+3785000Y-896000D01*
X+3775500Y-905500D01*
X+3766000Y-905500D01*
X+3756500Y-896000D01*
X+3756500Y-858000D01*
X+3756500Y-943500D02*
X+3747000Y-934000D01*
X+3737500Y-934000D01*
X+3728000Y-943500D01*
X+3728000Y-972000D01*
X+3737500Y-981500D01*
X+3747000Y-981500D01*
X+3756500Y-972000D01*
X+3756500Y-943500D01*
X+3766000Y-934000D01*
X+3775500Y-934000D01*
X+3785000Y-943500D01*
X+3785000Y-972000D01*
X+3775500Y-981500D01*
X+3766000Y-981500D01*
X+3756500Y-972000D01*
D84*
X+4379500Y-105500D02*
X+4379500Y-575500D01*
X+4149500Y-575500D01*
X+4149500Y-105500D01*
X+4379500Y-105500D01*
X+4214500Y-340500D02*
X+4314500Y-340500D01*
X+4264500Y-390500D02*
X+4264500Y-290500D01*
D100*
X+4283500Y-245500D02*
X+4293000Y-236000D01*
X+4293000Y-207500D01*
X+4274000Y-188500D01*
X+4255000Y-188500D01*
X+4236000Y-207500D01*
X+4236000Y-236000D01*
X+4245500Y-245500D01*
X+4236000Y-264500D02*
X+4264500Y-264500D01*
X+4293000Y-293000D01*
X+4264500Y-321500D01*
X+4236000Y-321500D01*
X+4245500Y-397500D02*
X+4236000Y-388000D01*
X+4236000Y-359500D01*
X+4245500Y-350000D01*
X+4283500Y-350000D01*
X+4293000Y-359500D01*
X+4293000Y-388000D01*
X+4283500Y-397500D01*
X+4274000Y-397500D01*
X+4264500Y-388000D01*
X+4264500Y-350000D01*
X+4255000Y-473500D02*
X+4264500Y-464000D01*
X+4264500Y-435500D01*
X+4255000Y-426000D01*
X+4245500Y-426000D01*
X+4236000Y-435500D01*
X+4236000Y-464000D01*
X+4245500Y-473500D01*
X+4283500Y-473500D01*
X+4293000Y-464000D01*
X+4293000Y-435500D01*
D84*
X+2816000Y-1627500D02*
X+2816000Y-1167500D01*
X+3046000Y-1167500D01*
X+3046000Y-1627500D01*
X+2816000Y-1627500D01*
X+2981000Y-1397500D02*
X+2881000Y-1397500D01*
X+2931000Y-1347500D02*
X+2931000Y-1447500D01*
D99*
X+2958900Y-1248700D02*
X+2903100Y-1248700D01*
X+2903100Y-1295200D01*
X+2912400Y-1304500D01*
X+2921700Y-1304500D01*
X+2931000Y-1295200D01*
X+2931000Y-1248700D01*
X+2931000Y-1295200D02*
X+2940300Y-1304500D01*
X+2958900Y-1304500D01*
X+2903100Y-1323100D02*
X+2931000Y-1323100D01*
X+2958900Y-1351000D01*
X+2931000Y-1378900D01*
X+2903100Y-1378900D01*
X+2903100Y-1406800D02*
X+2903100Y-1453300D01*
X+2912400Y-1453300D01*
X+2958900Y-1406800D01*
X+2912400Y-1481200D02*
X+2903100Y-1490500D01*
X+2903100Y-1518400D01*
X+2912400Y-1527700D01*
X+2921700Y-1527700D01*
X+2931000Y-1518400D01*
X+2940300Y-1527700D01*
X+2949600Y-1527700D01*
X+2958900Y-1518400D01*
X+2958900Y-1490500D01*
X+2949600Y-1481200D01*
X+2931000Y-1499800D02*
X+2931000Y-1518400D01*
D84*
X+3324000Y-1083500D02*
X+3324000Y-623500D01*
X+3554000Y-623500D01*
X+3554000Y-1083500D01*
X+3324000Y-1083500D01*
X+3489000Y-853500D02*
X+3389000Y-853500D01*
X+3439000Y-803500D02*
X+3439000Y-903500D01*
D99*
X+3466900Y-704700D02*
X+3411100Y-704700D01*
X+3411100Y-751200D01*
X+3420400Y-760500D01*
X+3429700Y-760500D01*
X+3439000Y-751200D01*
X+3439000Y-704700D01*
X+3439000Y-751200D02*
X+3448300Y-760500D01*
X+3466900Y-760500D01*
X+3411100Y-779100D02*
X+3439000Y-779100D01*
X+3466900Y-807000D01*
X+3439000Y-834900D01*
X+3411100Y-834900D01*
X+3411100Y-862800D02*
X+3411100Y-909300D01*
X+3420400Y-909300D01*
X+3466900Y-862800D01*
X+3448300Y-983700D02*
X+3448300Y-927900D01*
X+3411100Y-965100D01*
X+3466900Y-965100D01*
D84*
X+3895500Y-1083500D02*
X+3895500Y-623500D01*
X+4125500Y-623500D01*
X+4125500Y-1083500D01*
X+3895500Y-1083500D01*
X+4060500Y-853500D02*
X+3960500Y-853500D01*
X+4010500Y-803500D02*
X+4010500Y-903500D01*
D99*
X+4038400Y-704700D02*
X+3982600Y-704700D01*
X+3982600Y-751200D01*
X+3991900Y-760500D01*
X+4001200Y-760500D01*
X+4010500Y-751200D01*
X+4010500Y-704700D01*
X+4010500Y-751200D02*
X+4019800Y-760500D01*
X+4038400Y-760500D01*
X+3982600Y-779100D02*
X+4010500Y-779100D01*
X+4038400Y-807000D01*
X+4010500Y-834900D01*
X+3982600Y-834900D01*
X+3982600Y-862800D02*
X+3982600Y-909300D01*
X+3991900Y-909300D01*
X+4038400Y-862800D01*
X+3982600Y-983700D02*
X+3982600Y-937200D01*
X+4001200Y-937200D01*
X+4001200Y-974400D01*
X+4010500Y-983700D01*
X+4029100Y-983700D01*
X+4038400Y-974400D01*
X+4038400Y-946500D01*
X+4029100Y-937200D01*
D84*
X+3070000Y-1627500D02*
X+3070000Y-1167500D01*
X+3300000Y-1167500D01*
X+3300000Y-1627500D01*
X+3070000Y-1627500D01*
X+3235000Y-1397500D02*
X+3135000Y-1397500D01*
X+3185000Y-1347500D02*
X+3185000Y-1447500D01*
D99*
X+3212900Y-1248700D02*
X+3157100Y-1248700D01*
X+3157100Y-1295200D01*
X+3166400Y-1304500D01*
X+3175700Y-1304500D01*
X+3185000Y-1295200D01*
X+3185000Y-1248700D01*
X+3185000Y-1295200D02*
X+3194300Y-1304500D01*
X+3212900Y-1304500D01*
X+3157100Y-1323100D02*
X+3185000Y-1323100D01*
X+3212900Y-1351000D01*
X+3185000Y-1378900D01*
X+3157100Y-1378900D01*
X+3157100Y-1406800D02*
X+3157100Y-1453300D01*
X+3166400Y-1453300D01*
X+3212900Y-1406800D01*
X+3185000Y-1490500D02*
X+3175700Y-1481200D01*
X+3166400Y-1481200D01*
X+3157100Y-1490500D01*
X+3157100Y-1518400D01*
X+3166400Y-1527700D01*
X+3175700Y-1527700D01*
X+3185000Y-1518400D01*
X+3185000Y-1490500D01*
X+3194300Y-1481200D01*
X+3203600Y-1481200D01*
X+3212900Y-1490500D01*
X+3212900Y-1518400D01*
X+3203600Y-1527700D01*
X+3194300Y-1527700D01*
X+3185000Y-1518400D01*
D84*
X+3895500Y-575500D02*
X+3895500Y-115500D01*
X+4125500Y-115500D01*
X+4125500Y-575500D01*
X+3895500Y-575500D01*
X+4060500Y-345500D02*
X+3960500Y-345500D01*
X+4010500Y-295500D02*
X+4010500Y-395500D01*
D99*
X+4038400Y-196700D02*
X+3982600Y-196700D01*
X+3982600Y-243200D01*
X+3991900Y-252500D01*
X+4001200Y-252500D01*
X+4010500Y-243200D01*
X+4010500Y-196700D01*
X+4010500Y-243200D02*
X+4019800Y-252500D01*
X+4038400Y-252500D01*
X+3982600Y-271100D02*
X+4010500Y-271100D01*
X+4038400Y-299000D01*
X+4010500Y-326900D01*
X+3982600Y-326900D01*
X+3982600Y-354800D02*
X+3982600Y-401300D01*
X+3991900Y-401300D01*
X+4038400Y-354800D01*
X+4001200Y-475700D02*
X+4010500Y-466400D01*
X+4010500Y-438500D01*
X+4001200Y-429200D01*
X+3991900Y-429200D01*
X+3982600Y-438500D01*
X+3982600Y-466400D01*
X+3991900Y-475700D01*
X+4029100Y-475700D01*
X+4038400Y-466400D01*
X+4038400Y-438500D01*
D84*
X+4403500Y-575500D02*
X+4403500Y-115500D01*
X+4633500Y-115500D01*
X+4633500Y-575500D01*
X+4403500Y-575500D01*
X+4568500Y-345500D02*
X+4468500Y-345500D01*
X+4518500Y-295500D02*
X+4518500Y-395500D01*
D99*
X+4546400Y-196700D02*
X+4490600Y-196700D01*
X+4490600Y-243200D01*
X+4499900Y-252500D01*
X+4509200Y-252500D01*
X+4518500Y-243200D01*
X+4518500Y-196700D01*
X+4518500Y-243200D02*
X+4527800Y-252500D01*
X+4546400Y-252500D01*
X+4490600Y-271100D02*
X+4518500Y-271100D01*
X+4546400Y-299000D01*
X+4518500Y-326900D01*
X+4490600Y-326900D01*
X+4518500Y-364100D02*
X+4509200Y-354800D01*
X+4499900Y-354800D01*
X+4490600Y-364100D01*
X+4490600Y-392000D01*
X+4499900Y-401300D01*
X+4509200Y-401300D01*
X+4518500Y-392000D01*
X+4518500Y-364100D01*
X+4527800Y-354800D01*
X+4537100Y-354800D01*
X+4546400Y-364100D01*
X+4546400Y-392000D01*
X+4537100Y-401300D01*
X+4527800Y-401300D01*
X+4518500Y-392000D01*
X+4499900Y-429200D02*
X+4490600Y-438500D01*
X+4490600Y-466400D01*
X+4499900Y-475700D01*
X+4509200Y-475700D01*
X+4518500Y-466400D01*
X+4518500Y-438500D01*
X+4527800Y-429200D01*
X+4546400Y-429200D01*
X+4546400Y-475700D01*
D84*
X+7396000Y-2528000D02*
X+6936000Y-2528000D01*
X+6936000Y-2298000D01*
X+7396000Y-2298000D01*
X+7396000Y-2528000D01*
X+7166000Y-2363000D02*
X+7166000Y-2463000D01*
X+7116000Y-2413000D02*
X+7216000Y-2413000D01*
D99*
X+7314800Y-2440900D02*
X+7314800Y-2385100D01*
X+7268300Y-2385100D01*
X+7259000Y-2394400D01*
X+7259000Y-2403700D01*
X+7268300Y-2413000D01*
X+7314800Y-2413000D01*
X+7268300Y-2413000D02*
X+7259000Y-2422300D01*
X+7259000Y-2440900D01*
X+7240400Y-2385100D02*
X+7240400Y-2413000D01*
X+7212500Y-2440900D01*
X+7184600Y-2413000D01*
X+7184600Y-2385100D01*
X+7156700Y-2394400D02*
X+7147400Y-2385100D01*
X+7119500Y-2385100D01*
X+7110200Y-2394400D01*
X+7110200Y-2403700D01*
X+7119500Y-2413000D01*
X+7110200Y-2422300D01*
X+7110200Y-2431600D01*
X+7119500Y-2440900D01*
X+7147400Y-2440900D01*
X+7156700Y-2431600D01*
X+7138100Y-2413000D02*
X+7119500Y-2413000D01*
X+7073000Y-2403700D02*
X+7054400Y-2385100D01*
X+7054400Y-2440900D01*
M02*
