M48
METRIC,TZ
T01C0.3810
T02C0.5080
T03C1.5240
T04C1.1430
T05C1.0160
T06C4.0640
%
T01
X-33800Y-6394
X-33750Y-12152
X-32385Y-19050
X-50800Y-635
X+47498Y+6477
T02
X-6350Y+18415
X+16510Y+18415
X+33838Y+20281
X-49894Y+7361
X-33020Y-635
X+82550Y-26035
X+60325Y-20955
X+37465Y-20955
X+14605Y-20955
X-8890Y-20955
X-31115Y-20955
X-34925Y-19050
X-38735Y-10314
X+51435Y-24130
X+70035Y-26023
X+57658Y+26543
X+65786Y+15875
X+47791Y+22860
T03
X-70485Y-24765
X-70485Y-29210
T04
X-20955Y+18415
X-16510Y+18415
X+9017Y+18415
X+28575Y+18415
X+52070Y+18415
X+67564Y+18415
X+63119Y+18415
X-41910Y+18415
X-46355Y+18415
X-29210Y+18415
X-33655Y+18415
X+4699Y+18415
X+24130Y+18415
X+47625Y+18415
T05
X-29210Y-35560
X-29210Y-30480
X-29210Y-33020
X-7620Y-35560
X-7620Y-33020
X-7620Y-30480
X+15875Y-33020
X+15875Y-35560
X+15875Y-30480
X+39370Y-35560
X+57531Y-35560
X+39370Y-30480
X+57531Y-30480
X+39370Y-33020
X+57531Y-33020
X+71120Y-33020
X+71120Y-35560
X+71120Y-30480
X-42545Y-35560
X-42545Y-30480
X-42545Y-33020
X+37465Y+20955
X+26035Y-31750
X+37465Y+18415
X+40005Y+20955
X+26035Y-34290
X+40005Y+18415
X+42545Y+20955
X+26035Y-36830
X+42545Y+18415
X-51435Y-30480
X-51435Y-33020
X-51435Y-35560
T06
X-69215Y-37465
X-69215Y+24130
X+80010Y+24130
X+80010Y-37465
M30
