G04 PROTEUS GERBER X2 FILE*
%TF.GenerationSoftware,Labcenter,Proteus,8.7-SP3-Build25561*%
%TF.CreationDate,2021-05-23T19:28:46+00:00*%
%TF.FileFunction,AssemblyDrawing,Top*%
%TF.FilePolarity,Positive*%
%TF.Part,Single*%
%TF.SameCoordinates,{ce74c1e3-353a-4a96-b4f4-cabdf69041bd}*%
%FSLAX45Y45*%
%MOMM*%
G01*
%TA.AperFunction,Profile*%
%ADD38C,0.203200*%
%TA.AperFunction,Material*%
%ADD101C,0.050000*%
%ADD102C,0.193750*%
%ADD41C,0.203200*%
%ADD103C,0.034290*%
%ADD104C,0.054860*%
%ADD105C,0.118750*%
%ADD106C,0.178750*%
%ADD107C,0.187320*%
%ADD108C,0.198750*%
%ADD109C,0.291780*%
%ADD110C,0.180970*%
%ADD111C,0.116250*%
%ADD112C,0.171450*%
%ADD113C,0.074610*%
%ADD114C,0.077470*%
%ADD115C,0.093000*%
%ADD116C,0.095000*%
%ADD117C,0.149860*%
%ADD118C,0.159000*%
%ADD119C,0.137160*%
%ADD120C,0.233420*%
%ADD121C,0.144780*%
%ADD122C,0.059690*%
%ADD123C,0.045720*%
%ADD124C,0.024930*%
%ADD125C,0.068580*%
%ADD126C,0.389040*%
%ADD127C,0.423330*%
%ADD128C,0.090090*%
%ADD129C,0.622300*%
%TD.AperFunction*%
D38*
X-7429500Y-4254500D02*
X+8509000Y-4254500D01*
X+8509000Y+2921000D01*
X-7429500Y+2921000D01*
X-7429500Y-4254500D01*
D101*
X-1693000Y+480500D02*
X-2463000Y+480500D01*
X-2463000Y-99500D01*
X-1693000Y-99500D01*
X-1693000Y+480500D01*
X-2078000Y+140500D02*
X-2078000Y+240500D01*
X-2128000Y+190500D02*
X-2028000Y+190500D01*
D102*
X-2310500Y+248625D02*
X-2310500Y+132375D01*
X-2194250Y+132375D01*
X-2155500Y+248625D02*
X-2155500Y+190500D01*
X-2097375Y+132375D01*
X-2039250Y+190500D01*
X-2039250Y+248625D01*
X-1961750Y+209875D02*
X-1923000Y+248625D01*
X-1923000Y+132375D01*
D41*
X-7185660Y-2613660D02*
X-6911340Y-2613660D01*
X-6911340Y-2339340D01*
X-7185660Y-2339340D01*
X-7185660Y-2613660D01*
D103*
X-7144512Y-2466213D02*
X-7144512Y-2476500D01*
X-7134225Y-2486787D01*
X-7123938Y-2476500D01*
X-7123938Y-2466213D01*
X-7113651Y-2466213D02*
X-7099935Y-2466213D01*
X-7106793Y-2466213D02*
X-7106793Y-2486787D01*
X-7113651Y-2486787D02*
X-7099935Y-2486787D01*
X-7089648Y-2486787D02*
X-7089648Y-2466213D01*
X-7069074Y-2486787D01*
X-7069074Y-2466213D01*
X-7062216Y-2490216D02*
X-7041642Y-2490216D01*
X-7031355Y-2469642D02*
X-7027926Y-2466213D01*
X-7017639Y-2466213D01*
X-7014210Y-2469642D01*
X-7014210Y-2473071D01*
X-7017639Y-2476500D01*
X-7027926Y-2476500D01*
X-7031355Y-2479929D01*
X-7031355Y-2486787D01*
X-7014210Y-2486787D01*
X-6986778Y-2479929D02*
X-7007352Y-2479929D01*
X-6993636Y-2466213D01*
X-6993636Y-2486787D01*
X-6979920Y-2466213D02*
X-6979920Y-2476500D01*
X-6969633Y-2486787D01*
X-6959346Y-2476500D01*
X-6959346Y-2466213D01*
D41*
X-7185660Y-3058160D02*
X-6911340Y-3058160D01*
X-6911340Y-2783840D01*
X-7185660Y-2783840D01*
X-7185660Y-3058160D01*
D103*
X-7144512Y-2910713D02*
X-7144512Y-2921000D01*
X-7134225Y-2931287D01*
X-7123938Y-2921000D01*
X-7123938Y-2910713D01*
X-7113651Y-2910713D02*
X-7099935Y-2910713D01*
X-7106793Y-2910713D02*
X-7106793Y-2931287D01*
X-7113651Y-2931287D02*
X-7099935Y-2931287D01*
X-7089648Y-2931287D02*
X-7089648Y-2910713D01*
X-7069074Y-2931287D01*
X-7069074Y-2910713D01*
X-7062216Y-2934716D02*
X-7041642Y-2934716D01*
X-7021068Y-2924429D02*
X-7014210Y-2924429D01*
X-7014210Y-2931287D01*
X-7027926Y-2931287D01*
X-7034784Y-2924429D01*
X-7034784Y-2917571D01*
X-7027926Y-2910713D01*
X-7017639Y-2910713D01*
X-7014210Y-2914142D01*
X-7007352Y-2931287D02*
X-7007352Y-2910713D01*
X-6986778Y-2931287D01*
X-6986778Y-2910713D01*
X-6979920Y-2931287D02*
X-6979920Y-2910713D01*
X-6966204Y-2910713D01*
X-6959346Y-2917571D01*
X-6959346Y-2924429D01*
X-6966204Y-2931287D01*
X-6979920Y-2931287D01*
D41*
X-1788160Y+1704340D02*
X-1513840Y+1704340D01*
X-1513840Y+1978660D01*
X-1788160Y+1978660D01*
X-1788160Y+1704340D01*
D104*
X-1667459Y+1753718D02*
X-1651000Y+1753718D01*
X-1634540Y+1770177D01*
X-1651000Y+1786636D01*
X-1667459Y+1786636D01*
X-1656486Y+1808581D02*
X-1667459Y+1819554D01*
X-1634540Y+1819554D01*
X-1634540Y+1841500D02*
X-1667459Y+1841500D01*
X-1667459Y+1874418D02*
X-1634540Y+1874418D01*
X-1651000Y+1841500D02*
X-1651000Y+1874418D01*
X-1640027Y+1885391D02*
X-1634540Y+1890877D01*
X-1634540Y+1912822D01*
X-1640027Y+1918309D01*
X-1645513Y+1918309D01*
X-1651000Y+1912822D01*
X-1651000Y+1890877D01*
X-1656486Y+1885391D01*
X-1661972Y+1885391D01*
X-1667459Y+1890877D01*
X-1667459Y+1912822D01*
X-1661972Y+1918309D01*
D41*
X-3058160Y-3693160D02*
X-2783840Y-3693160D01*
X-2783840Y-3418840D01*
X-3058160Y-3418840D01*
X-3058160Y-3693160D01*
D104*
X-3003296Y-3539541D02*
X-2981351Y-3539541D01*
X-2992323Y-3539541D02*
X-2992323Y-3572460D01*
X-3003296Y-3572460D02*
X-2981351Y-3572460D01*
X-2964891Y-3572460D02*
X-2964891Y-3539541D01*
X-2931973Y-3539541D01*
X-2964891Y-3556000D02*
X-2942946Y-3556000D01*
X-2921000Y-3572460D02*
X-2921000Y-3539541D01*
X-2893569Y-3539541D01*
X-2888082Y-3545028D01*
X-2888082Y-3550514D01*
X-2893569Y-3556000D01*
X-2888082Y-3561487D01*
X-2888082Y-3566973D01*
X-2893569Y-3572460D01*
X-2921000Y-3572460D01*
X-2921000Y-3556000D02*
X-2893569Y-3556000D01*
X-2866137Y-3550514D02*
X-2855164Y-3539541D01*
X-2855164Y-3572460D01*
D41*
X-3058160Y-3185160D02*
X-2783840Y-3185160D01*
X-2783840Y-2910840D01*
X-3058160Y-2910840D01*
X-3058160Y-3185160D01*
D104*
X-3003296Y-3031541D02*
X-2981351Y-3031541D01*
X-2992323Y-3031541D02*
X-2992323Y-3064460D01*
X-3003296Y-3064460D02*
X-2981351Y-3064460D01*
X-2964891Y-3064460D02*
X-2964891Y-3031541D01*
X-2931973Y-3064460D01*
X-2931973Y-3031541D01*
X-2921000Y-3064460D02*
X-2921000Y-3031541D01*
X-2888082Y-3031541D02*
X-2888082Y-3064460D01*
X-2921000Y-3048000D02*
X-2888082Y-3048000D01*
X-2866137Y-3042514D02*
X-2855164Y-3031541D01*
X-2855164Y-3064460D01*
D41*
X-3058160Y-3439160D02*
X-2783840Y-3439160D01*
X-2783840Y-3164840D01*
X-3058160Y-3164840D01*
X-3058160Y-3439160D01*
D104*
X-3008782Y-3318460D02*
X-3008782Y-3285541D01*
X-2981351Y-3285541D01*
X-2975864Y-3291028D01*
X-2975864Y-3296514D01*
X-2981351Y-3302000D01*
X-3008782Y-3302000D01*
X-2964891Y-3285541D02*
X-2964891Y-3318460D01*
X-2948432Y-3302000D01*
X-2931973Y-3318460D01*
X-2931973Y-3285541D01*
X-2921000Y-3318460D02*
X-2921000Y-3285541D01*
X-2904541Y-3302000D01*
X-2888082Y-3285541D01*
X-2888082Y-3318460D01*
X-2866137Y-3296514D02*
X-2855164Y-3285541D01*
X-2855164Y-3318460D01*
D101*
X-4202620Y-407100D02*
X-3732620Y-407100D01*
X-3732620Y-177100D01*
X-4202620Y-177100D01*
X-4202620Y-407100D01*
X-3967620Y-242100D02*
X-3967620Y-342100D01*
X-3917620Y-292100D02*
X-4017620Y-292100D01*
D105*
X-4038870Y-315850D02*
X-4050745Y-327725D01*
X-4086370Y-327725D01*
X-4110120Y-303975D01*
X-4110120Y-280225D01*
X-4086370Y-256475D01*
X-4050745Y-256475D01*
X-4038870Y-268350D01*
X-4015120Y-327725D02*
X-4015120Y-280225D01*
X-3991370Y-256475D01*
X-3967620Y-256475D01*
X-3943870Y-280225D01*
X-3943870Y-327725D01*
X-4015120Y-303975D02*
X-3943870Y-303975D01*
X-3896370Y-280225D02*
X-3872620Y-256475D01*
X-3872620Y-327725D01*
D101*
X-5075620Y-1413600D02*
X-5075620Y-1883600D01*
X-4845620Y-1883600D01*
X-4845620Y-1413600D01*
X-5075620Y-1413600D01*
X-4910620Y-1648600D02*
X-5010620Y-1648600D01*
X-4960620Y-1698600D02*
X-4960620Y-1598600D01*
D105*
X-4936870Y-1719850D02*
X-4924995Y-1731725D01*
X-4924995Y-1767350D01*
X-4948745Y-1791100D01*
X-4972495Y-1791100D01*
X-4996245Y-1767350D01*
X-4996245Y-1731725D01*
X-4984370Y-1719850D01*
X-4924995Y-1696100D02*
X-4972495Y-1696100D01*
X-4996245Y-1672350D01*
X-4996245Y-1648600D01*
X-4972495Y-1624850D01*
X-4924995Y-1624850D01*
X-4948745Y-1696100D02*
X-4948745Y-1624850D01*
X-4984370Y-1589225D02*
X-4996245Y-1577350D01*
X-4996245Y-1541725D01*
X-4984370Y-1529850D01*
X-4972495Y-1529850D01*
X-4960620Y-1541725D01*
X-4960620Y-1577350D01*
X-4948745Y-1589225D01*
X-4924995Y-1589225D01*
X-4924995Y-1529850D01*
D101*
X-1880500Y+759000D02*
X-1880500Y+1469000D01*
X-2310500Y+1469000D01*
X-2310500Y+759000D01*
X-1880500Y+759000D01*
X-2145500Y+1114000D02*
X-2045500Y+1114000D01*
X-2095500Y+1164000D02*
X-2095500Y+1064000D01*
D106*
X-2041875Y+899500D02*
X-2149125Y+899500D01*
X-2149125Y+971000D01*
X-2113375Y+1006750D01*
X-2077625Y+1006750D01*
X-2041875Y+971000D01*
X-2041875Y+899500D01*
X-2149125Y+1042500D02*
X-2095500Y+1042500D01*
X-2041875Y+1096125D01*
X-2095500Y+1149750D01*
X-2149125Y+1149750D01*
X-2131250Y+1203375D02*
X-2149125Y+1221250D01*
X-2149125Y+1274875D01*
X-2131250Y+1292750D01*
X-2113375Y+1292750D01*
X-2095500Y+1274875D01*
X-2095500Y+1221250D01*
X-2077625Y+1203375D01*
X-2041875Y+1203375D01*
X-2041875Y+1292750D01*
D41*
X-1788160Y+736600D02*
X-1132840Y+736600D01*
X-1132840Y+1485900D01*
X-1788160Y+1485900D01*
X-1788160Y+736600D01*
D107*
X-1423035Y+998855D02*
X-1404303Y+980122D01*
X-1404303Y+923925D01*
X-1441768Y+886460D01*
X-1479233Y+886460D01*
X-1516698Y+923925D01*
X-1516698Y+980122D01*
X-1497965Y+998855D01*
X-1516698Y+1036320D02*
X-1460500Y+1036320D01*
X-1404303Y+1092517D01*
X-1460500Y+1148715D01*
X-1516698Y+1148715D01*
X-1441768Y+1298575D02*
X-1441768Y+1186180D01*
X-1516698Y+1261110D01*
X-1404303Y+1261110D01*
D101*
X-1655500Y+700000D02*
X-1655500Y-90000D01*
X-1265500Y-90000D01*
X-1265500Y+700000D01*
X-1655500Y+700000D01*
X-1410500Y+305000D02*
X-1510500Y+305000D01*
X-1460500Y+255000D02*
X-1460500Y+355000D01*
D108*
X-1400875Y+66500D02*
X-1520125Y+66500D01*
X-1520125Y+165875D01*
X-1500250Y+185750D01*
X-1480375Y+185750D01*
X-1460500Y+165875D01*
X-1460500Y+66500D01*
X-1460500Y+165875D02*
X-1440625Y+185750D01*
X-1400875Y+185750D01*
X-1520125Y+225500D02*
X-1460500Y+225500D01*
X-1400875Y+285125D01*
X-1460500Y+344750D01*
X-1520125Y+344750D01*
X-1520125Y+503750D02*
X-1520125Y+404375D01*
X-1480375Y+404375D01*
X-1480375Y+483875D01*
X-1460500Y+503750D01*
X-1420750Y+503750D01*
X-1400875Y+483875D01*
X-1400875Y+424250D01*
X-1420750Y+404375D01*
D41*
X-3244850Y+0D02*
X-2546350Y+0D01*
X-2546350Y+1167130D01*
X-3244850Y+1167130D01*
X-3244850Y+0D01*
D109*
X-2924778Y+233428D02*
X-2983134Y+291784D01*
X-2983134Y+350140D01*
X-2924778Y+408496D01*
X-2866421Y+408496D01*
X-2808065Y+350140D01*
X-2808065Y+291784D01*
X-2866421Y+233428D01*
X-2924778Y+233428D01*
X-2866421Y+350140D02*
X-2808065Y+408496D01*
X-2983134Y+466853D02*
X-2895600Y+466853D01*
X-2808065Y+554387D01*
X-2895600Y+641921D01*
X-2983134Y+641921D01*
X-2924778Y+758634D02*
X-2983134Y+816990D01*
X-2808065Y+816990D01*
D41*
X-2964180Y-2209800D02*
X-2496820Y-2209800D01*
X-2496820Y-1485900D01*
X-2964180Y-1485900D01*
X-2964180Y-2209800D01*
D110*
X-2784793Y-2065020D02*
X-2694305Y-2065020D01*
X-2676208Y-2046923D01*
X-2676208Y-1974533D01*
X-2694305Y-1956435D01*
X-2784793Y-1956435D01*
X-2784793Y-1920240D02*
X-2730500Y-1920240D01*
X-2676208Y-1865948D01*
X-2730500Y-1811655D01*
X-2784793Y-1811655D01*
X-2748598Y-1739265D02*
X-2784793Y-1703070D01*
X-2676208Y-1703070D01*
D101*
X-2582000Y-139000D02*
X-3042000Y-139000D01*
X-3042000Y-369000D01*
X-2582000Y-369000D01*
X-2582000Y-139000D01*
X-2812000Y-304000D02*
X-2812000Y-204000D01*
X-2862000Y-254000D02*
X-2762000Y-254000D01*
D111*
X-2951500Y-288875D02*
X-2951500Y-219125D01*
X-2893375Y-219125D01*
X-2881750Y-230750D01*
X-2881750Y-242375D01*
X-2893375Y-254000D01*
X-2951500Y-254000D01*
X-2893375Y-254000D02*
X-2881750Y-265625D01*
X-2881750Y-288875D01*
X-2858500Y-219125D02*
X-2858500Y-254000D01*
X-2823625Y-288875D01*
X-2788750Y-254000D01*
X-2788750Y-219125D01*
X-2753875Y-230750D02*
X-2742250Y-219125D01*
X-2707375Y-219125D01*
X-2695750Y-230750D01*
X-2695750Y-242375D01*
X-2707375Y-254000D01*
X-2695750Y-265625D01*
X-2695750Y-277250D01*
X-2707375Y-288875D01*
X-2742250Y-288875D01*
X-2753875Y-277250D01*
X-2730625Y-254000D02*
X-2707375Y-254000D01*
D101*
X-3290000Y-169000D02*
X-3290000Y-629000D01*
X-3060000Y-629000D01*
X-3060000Y-169000D01*
X-3290000Y-169000D01*
X-3125000Y-399000D02*
X-3225000Y-399000D01*
X-3175000Y-449000D02*
X-3175000Y-349000D01*
D111*
X-3140125Y-538500D02*
X-3209875Y-538500D01*
X-3209875Y-480375D01*
X-3198250Y-468750D01*
X-3186625Y-468750D01*
X-3175000Y-480375D01*
X-3175000Y-538500D01*
X-3175000Y-480375D02*
X-3163375Y-468750D01*
X-3140125Y-468750D01*
X-3209875Y-445500D02*
X-3175000Y-445500D01*
X-3140125Y-410625D01*
X-3175000Y-375750D01*
X-3209875Y-375750D01*
X-3198250Y-340875D02*
X-3209875Y-329250D01*
X-3209875Y-294375D01*
X-3198250Y-282750D01*
X-3186625Y-282750D01*
X-3175000Y-294375D01*
X-3175000Y-329250D01*
X-3163375Y-340875D01*
X-3140125Y-340875D01*
X-3140125Y-282750D01*
D101*
X-3052000Y-883350D02*
X-2582000Y-883350D01*
X-2582000Y-653350D01*
X-3052000Y-653350D01*
X-3052000Y-883350D01*
X-2817000Y-718350D02*
X-2817000Y-818350D01*
X-2767000Y-768350D02*
X-2867000Y-768350D01*
D105*
X-2888250Y-792100D02*
X-2900125Y-803975D01*
X-2935750Y-803975D01*
X-2959500Y-780225D01*
X-2959500Y-756475D01*
X-2935750Y-732725D01*
X-2900125Y-732725D01*
X-2888250Y-744600D01*
X-2864500Y-732725D02*
X-2864500Y-768350D01*
X-2828875Y-803975D01*
X-2793250Y-768350D01*
X-2793250Y-732725D01*
X-2757625Y-744600D02*
X-2745750Y-732725D01*
X-2710125Y-732725D01*
X-2698250Y-744600D01*
X-2698250Y-756475D01*
X-2710125Y-768350D01*
X-2698250Y-780225D01*
X-2698250Y-792100D01*
X-2710125Y-803975D01*
X-2745750Y-803975D01*
X-2757625Y-792100D01*
X-2733875Y-768350D02*
X-2710125Y-768350D01*
D41*
X-3136900Y-1407160D02*
X-2451100Y-1407160D01*
X-2451100Y-878840D01*
X-3136900Y-878840D01*
X-3136900Y-1407160D01*
D112*
X-2896870Y-1177290D02*
X-2914015Y-1194435D01*
X-2965450Y-1194435D01*
X-2999740Y-1160145D01*
X-2999740Y-1125855D01*
X-2965450Y-1091565D01*
X-2914015Y-1091565D01*
X-2896870Y-1108710D01*
X-2862580Y-1091565D02*
X-2862580Y-1143000D01*
X-2811145Y-1194435D01*
X-2759710Y-1143000D01*
X-2759710Y-1091565D01*
X-2708275Y-1108710D02*
X-2691130Y-1091565D01*
X-2639695Y-1091565D01*
X-2622550Y-1108710D01*
X-2622550Y-1125855D01*
X-2639695Y-1143000D01*
X-2691130Y-1143000D01*
X-2708275Y-1160145D01*
X-2708275Y-1194435D01*
X-2622550Y-1194435D01*
D41*
X-3186580Y-2000250D02*
X-3036420Y-2000250D01*
X-3036420Y-1701800D01*
X-3186580Y-1701800D01*
X-3186580Y-2000250D01*
D113*
X-3089116Y-1940558D02*
X-3133883Y-1940558D01*
X-3133883Y-1910714D01*
X-3118961Y-1895792D01*
X-3104038Y-1895792D01*
X-3089116Y-1910714D01*
X-3089116Y-1940558D01*
X-3133883Y-1880869D02*
X-3111500Y-1880869D01*
X-3089116Y-1858486D01*
X-3111500Y-1836103D01*
X-3133883Y-1836103D01*
X-3118961Y-1806258D02*
X-3133883Y-1791336D01*
X-3089116Y-1791336D01*
D101*
X-3006000Y-2528000D02*
X-2536000Y-2528000D01*
X-2536000Y-2298000D01*
X-3006000Y-2298000D01*
X-3006000Y-2528000D01*
X-2771000Y-2363000D02*
X-2771000Y-2463000D01*
X-2721000Y-2413000D02*
X-2821000Y-2413000D01*
D105*
X-2842250Y-2436750D02*
X-2854125Y-2448625D01*
X-2889750Y-2448625D01*
X-2913500Y-2424875D01*
X-2913500Y-2401125D01*
X-2889750Y-2377375D01*
X-2854125Y-2377375D01*
X-2842250Y-2389250D01*
X-2818500Y-2377375D02*
X-2818500Y-2413000D01*
X-2782875Y-2448625D01*
X-2747250Y-2413000D01*
X-2747250Y-2377375D01*
X-2699750Y-2401125D02*
X-2676000Y-2377375D01*
X-2676000Y-2448625D01*
D101*
X-2978500Y-2782000D02*
X-2518500Y-2782000D01*
X-2518500Y-2552000D01*
X-2978500Y-2552000D01*
X-2978500Y-2782000D01*
X-2748500Y-2617000D02*
X-2748500Y-2717000D01*
X-2698500Y-2667000D02*
X-2798500Y-2667000D01*
D111*
X-2888000Y-2701875D02*
X-2888000Y-2632125D01*
X-2829875Y-2632125D01*
X-2818250Y-2643750D01*
X-2818250Y-2655375D01*
X-2829875Y-2667000D01*
X-2888000Y-2667000D01*
X-2829875Y-2667000D02*
X-2818250Y-2678625D01*
X-2818250Y-2701875D01*
X-2795000Y-2632125D02*
X-2795000Y-2667000D01*
X-2760125Y-2701875D01*
X-2725250Y-2667000D01*
X-2725250Y-2632125D01*
X-2678750Y-2655375D02*
X-2655500Y-2632125D01*
X-2655500Y-2701875D01*
D41*
X-3423920Y-1638300D02*
X-3114040Y-1638300D01*
X-3114040Y-1346200D01*
X-3423920Y-1346200D01*
X-3423920Y-1638300D01*
D114*
X-3361944Y-1484503D02*
X-3346450Y-1469009D01*
X-3330956Y-1469009D01*
X-3315462Y-1484503D01*
X-3315462Y-1499997D01*
X-3330956Y-1515491D01*
X-3346450Y-1515491D01*
X-3361944Y-1499997D01*
X-3361944Y-1484503D01*
X-3330956Y-1499997D02*
X-3315462Y-1515491D01*
X-3299968Y-1469009D02*
X-3299968Y-1492250D01*
X-3276727Y-1515491D01*
X-3253486Y-1492250D01*
X-3253486Y-1469009D01*
X-3230245Y-1476756D02*
X-3222498Y-1469009D01*
X-3199257Y-1469009D01*
X-3191510Y-1476756D01*
X-3191510Y-1484503D01*
X-3199257Y-1492250D01*
X-3222498Y-1492250D01*
X-3230245Y-1499997D01*
X-3230245Y-1515491D01*
X-3191510Y-1515491D01*
D101*
X-3226500Y-2201000D02*
X-3226500Y-2661000D01*
X-2996500Y-2661000D01*
X-2996500Y-2201000D01*
X-3226500Y-2201000D01*
X-3061500Y-2431000D02*
X-3161500Y-2431000D01*
X-3111500Y-2481000D02*
X-3111500Y-2381000D01*
D111*
X-3076625Y-2570500D02*
X-3146375Y-2570500D01*
X-3146375Y-2512375D01*
X-3134750Y-2500750D01*
X-3123125Y-2500750D01*
X-3111500Y-2512375D01*
X-3111500Y-2570500D01*
X-3111500Y-2512375D02*
X-3099875Y-2500750D01*
X-3076625Y-2500750D01*
X-3146375Y-2477500D02*
X-3111500Y-2477500D01*
X-3076625Y-2442625D01*
X-3111500Y-2407750D01*
X-3146375Y-2407750D01*
X-3099875Y-2314750D02*
X-3099875Y-2384500D01*
X-3146375Y-2338000D01*
X-3076625Y-2338000D01*
D101*
X-1472500Y-720000D02*
X-1472500Y-260000D01*
X-1702500Y-260000D01*
X-1702500Y-720000D01*
X-1472500Y-720000D01*
X-1637500Y-490000D02*
X-1537500Y-490000D01*
X-1587500Y-440000D02*
X-1587500Y-540000D01*
D111*
X-1552625Y-629500D02*
X-1622375Y-629500D01*
X-1622375Y-571375D01*
X-1610750Y-559750D01*
X-1599125Y-559750D01*
X-1587500Y-571375D01*
X-1587500Y-629500D01*
X-1587500Y-571375D02*
X-1575875Y-559750D01*
X-1552625Y-559750D01*
X-1622375Y-536500D02*
X-1587500Y-536500D01*
X-1552625Y-501625D01*
X-1587500Y-466750D01*
X-1622375Y-466750D01*
X-1622375Y-431875D02*
X-1622375Y-373750D01*
X-1610750Y-373750D01*
X-1552625Y-431875D01*
D101*
X-1980500Y-720000D02*
X-1980500Y-260000D01*
X-2210500Y-260000D01*
X-2210500Y-720000D01*
X-1980500Y-720000D01*
X-2145500Y-490000D02*
X-2045500Y-490000D01*
X-2095500Y-440000D02*
X-2095500Y-540000D01*
D111*
X-2060625Y-629500D02*
X-2130375Y-629500D01*
X-2130375Y-571375D01*
X-2118750Y-559750D01*
X-2107125Y-559750D01*
X-2095500Y-571375D01*
X-2095500Y-629500D01*
X-2095500Y-571375D02*
X-2083875Y-559750D01*
X-2060625Y-559750D01*
X-2130375Y-536500D02*
X-2095500Y-536500D01*
X-2060625Y-501625D01*
X-2095500Y-466750D01*
X-2130375Y-466750D01*
X-2118750Y-373750D02*
X-2130375Y-385375D01*
X-2130375Y-420250D01*
X-2118750Y-431875D01*
X-2072250Y-431875D01*
X-2060625Y-420250D01*
X-2060625Y-385375D01*
X-2072250Y-373750D01*
X-2083875Y-373750D01*
X-2095500Y-385375D01*
X-2095500Y-431875D01*
D101*
X-1956500Y-250000D02*
X-1956500Y-720000D01*
X-1726500Y-720000D01*
X-1726500Y-250000D01*
X-1956500Y-250000D01*
X-1791500Y-485000D02*
X-1891500Y-485000D01*
X-1841500Y-535000D02*
X-1841500Y-435000D01*
D105*
X-1817750Y-556250D02*
X-1805875Y-568125D01*
X-1805875Y-603750D01*
X-1829625Y-627500D01*
X-1853375Y-627500D01*
X-1877125Y-603750D01*
X-1877125Y-568125D01*
X-1865250Y-556250D01*
X-1877125Y-532500D02*
X-1841500Y-532500D01*
X-1805875Y-496875D01*
X-1841500Y-461250D01*
X-1877125Y-461250D01*
X-1865250Y-366250D02*
X-1877125Y-378125D01*
X-1877125Y-413750D01*
X-1865250Y-425625D01*
X-1817750Y-425625D01*
X-1805875Y-413750D01*
X-1805875Y-378125D01*
X-1817750Y-366250D01*
X-1829625Y-366250D01*
X-1841500Y-378125D01*
X-1841500Y-425625D01*
D41*
X-2146300Y-1440180D02*
X-1422400Y-1440180D01*
X-1422400Y-972820D01*
X-2146300Y-972820D01*
X-2146300Y-1440180D01*
D110*
X-2001520Y-1152207D02*
X-2001520Y-1242695D01*
X-1983423Y-1260792D01*
X-1911033Y-1260792D01*
X-1892935Y-1242695D01*
X-1892935Y-1152207D01*
X-1856740Y-1152207D02*
X-1856740Y-1206500D01*
X-1802448Y-1260792D01*
X-1748155Y-1206500D01*
X-1748155Y-1152207D01*
X-1693863Y-1170305D02*
X-1675765Y-1152207D01*
X-1621473Y-1152207D01*
X-1603375Y-1170305D01*
X-1603375Y-1188402D01*
X-1621473Y-1206500D01*
X-1675765Y-1206500D01*
X-1693863Y-1224597D01*
X-1693863Y-1260792D01*
X-1603375Y-1260792D01*
D101*
X-2307500Y-940500D02*
X-1837500Y-940500D01*
X-1837500Y-710500D01*
X-2307500Y-710500D01*
X-2307500Y-940500D01*
X-2072500Y-775500D02*
X-2072500Y-875500D01*
X-2022500Y-825500D02*
X-2122500Y-825500D01*
D105*
X-2143750Y-849250D02*
X-2155625Y-861125D01*
X-2191250Y-861125D01*
X-2215000Y-837375D01*
X-2215000Y-813625D01*
X-2191250Y-789875D01*
X-2155625Y-789875D01*
X-2143750Y-801750D01*
X-2120000Y-789875D02*
X-2120000Y-825500D01*
X-2084375Y-861125D01*
X-2048750Y-825500D01*
X-2048750Y-789875D01*
X-2013125Y-789875D02*
X-1953750Y-789875D01*
X-1953750Y-801750D01*
X-2013125Y-861125D01*
D101*
X-1926500Y-2274000D02*
X-1466500Y-2274000D01*
X-1466500Y-2044000D01*
X-1926500Y-2044000D01*
X-1926500Y-2274000D01*
X-1696500Y-2109000D02*
X-1696500Y-2209000D01*
X-1646500Y-2159000D02*
X-1746500Y-2159000D01*
D115*
X-1845300Y-2186900D02*
X-1845300Y-2131100D01*
X-1798800Y-2131100D01*
X-1789500Y-2140400D01*
X-1789500Y-2149700D01*
X-1798800Y-2159000D01*
X-1845300Y-2159000D01*
X-1798800Y-2159000D02*
X-1789500Y-2168300D01*
X-1789500Y-2186900D01*
X-1770900Y-2131100D02*
X-1770900Y-2159000D01*
X-1743000Y-2186900D01*
X-1715100Y-2159000D01*
X-1715100Y-2131100D01*
X-1677900Y-2149700D02*
X-1659300Y-2131100D01*
X-1659300Y-2186900D01*
X-1603500Y-2149700D02*
X-1584900Y-2131100D01*
X-1584900Y-2186900D01*
D101*
X-1926500Y-1766000D02*
X-1466500Y-1766000D01*
X-1466500Y-1536000D01*
X-1926500Y-1536000D01*
X-1926500Y-1766000D01*
X-1696500Y-1601000D02*
X-1696500Y-1701000D01*
X-1646500Y-1651000D02*
X-1746500Y-1651000D01*
D115*
X-1845300Y-1678900D02*
X-1845300Y-1623100D01*
X-1798800Y-1623100D01*
X-1789500Y-1632400D01*
X-1789500Y-1641700D01*
X-1798800Y-1651000D01*
X-1845300Y-1651000D01*
X-1798800Y-1651000D02*
X-1789500Y-1660300D01*
X-1789500Y-1678900D01*
X-1770900Y-1623100D02*
X-1770900Y-1651000D01*
X-1743000Y-1678900D01*
X-1715100Y-1651000D01*
X-1715100Y-1623100D01*
X-1677900Y-1641700D02*
X-1659300Y-1623100D01*
X-1659300Y-1678900D01*
X-1622100Y-1669600D02*
X-1622100Y-1632400D01*
X-1612800Y-1623100D01*
X-1575600Y-1623100D01*
X-1566300Y-1632400D01*
X-1566300Y-1669600D01*
X-1575600Y-1678900D01*
X-1612800Y-1678900D01*
X-1622100Y-1669600D01*
X-1622100Y-1678900D02*
X-1566300Y-1623100D01*
D101*
X-2434500Y-2274000D02*
X-1974500Y-2274000D01*
X-1974500Y-2044000D01*
X-2434500Y-2044000D01*
X-2434500Y-2274000D01*
X-2204500Y-2109000D02*
X-2204500Y-2209000D01*
X-2154500Y-2159000D02*
X-2254500Y-2159000D01*
D115*
X-2353300Y-2186900D02*
X-2353300Y-2131100D01*
X-2306800Y-2131100D01*
X-2297500Y-2140400D01*
X-2297500Y-2149700D01*
X-2306800Y-2159000D01*
X-2353300Y-2159000D01*
X-2306800Y-2159000D02*
X-2297500Y-2168300D01*
X-2297500Y-2186900D01*
X-2278900Y-2131100D02*
X-2278900Y-2159000D01*
X-2251000Y-2186900D01*
X-2223100Y-2159000D01*
X-2223100Y-2131100D01*
X-2185900Y-2149700D02*
X-2167300Y-2131100D01*
X-2167300Y-2186900D01*
X-2120800Y-2140400D02*
X-2111500Y-2131100D01*
X-2083600Y-2131100D01*
X-2074300Y-2140400D01*
X-2074300Y-2149700D01*
X-2083600Y-2159000D01*
X-2111500Y-2159000D01*
X-2120800Y-2168300D01*
X-2120800Y-2186900D01*
X-2074300Y-2186900D01*
D101*
X-2434500Y-1766000D02*
X-1964500Y-1766000D01*
X-1964500Y-1536000D01*
X-2434500Y-1536000D01*
X-2434500Y-1766000D01*
X-2199500Y-1601000D02*
X-2199500Y-1701000D01*
X-2149500Y-1651000D02*
X-2249500Y-1651000D01*
D116*
X-2294500Y-1670000D02*
X-2304000Y-1679500D01*
X-2332500Y-1679500D01*
X-2351500Y-1660500D01*
X-2351500Y-1641500D01*
X-2332500Y-1622500D01*
X-2304000Y-1622500D01*
X-2294500Y-1632000D01*
X-2275500Y-1622500D02*
X-2275500Y-1651000D01*
X-2247000Y-1679500D01*
X-2218500Y-1651000D01*
X-2218500Y-1622500D01*
X-2180500Y-1641500D02*
X-2161500Y-1622500D01*
X-2161500Y-1679500D01*
X-2123500Y-1670000D02*
X-2123500Y-1632000D01*
X-2114000Y-1622500D01*
X-2076000Y-1622500D01*
X-2066500Y-1632000D01*
X-2066500Y-1670000D01*
X-2076000Y-1679500D01*
X-2114000Y-1679500D01*
X-2123500Y-1670000D01*
X-2123500Y-1679500D02*
X-2066500Y-1622500D01*
D101*
X-2434500Y-2020000D02*
X-1964500Y-2020000D01*
X-1964500Y-1790000D01*
X-2434500Y-1790000D01*
X-2434500Y-2020000D01*
X-2199500Y-1855000D02*
X-2199500Y-1955000D01*
X-2149500Y-1905000D02*
X-2249500Y-1905000D01*
D105*
X-2270750Y-1928750D02*
X-2282625Y-1940625D01*
X-2318250Y-1940625D01*
X-2342000Y-1916875D01*
X-2342000Y-1893125D01*
X-2318250Y-1869375D01*
X-2282625Y-1869375D01*
X-2270750Y-1881250D01*
X-2247000Y-1869375D02*
X-2247000Y-1905000D01*
X-2211375Y-1940625D01*
X-2175750Y-1905000D01*
X-2175750Y-1869375D01*
X-2080750Y-1893125D02*
X-2092625Y-1905000D01*
X-2128250Y-1905000D01*
X-2140125Y-1893125D01*
X-2140125Y-1881250D01*
X-2128250Y-1869375D01*
X-2092625Y-1869375D01*
X-2080750Y-1881250D01*
X-2080750Y-1928750D01*
X-2092625Y-1940625D01*
X-2128250Y-1940625D01*
D101*
X-1926500Y-2020000D02*
X-1456500Y-2020000D01*
X-1456500Y-1790000D01*
X-1926500Y-1790000D01*
X-1926500Y-2020000D01*
X-1691500Y-1855000D02*
X-1691500Y-1955000D01*
X-1641500Y-1905000D02*
X-1741500Y-1905000D01*
D105*
X-1762750Y-1928750D02*
X-1774625Y-1940625D01*
X-1810250Y-1940625D01*
X-1834000Y-1916875D01*
X-1834000Y-1893125D01*
X-1810250Y-1869375D01*
X-1774625Y-1869375D01*
X-1762750Y-1881250D01*
X-1739000Y-1869375D02*
X-1739000Y-1905000D01*
X-1703375Y-1940625D01*
X-1667750Y-1905000D01*
X-1667750Y-1869375D01*
X-1620250Y-1905000D02*
X-1632125Y-1893125D01*
X-1632125Y-1881250D01*
X-1620250Y-1869375D01*
X-1584625Y-1869375D01*
X-1572750Y-1881250D01*
X-1572750Y-1893125D01*
X-1584625Y-1905000D01*
X-1620250Y-1905000D01*
X-1632125Y-1916875D01*
X-1632125Y-1928750D01*
X-1620250Y-1940625D01*
X-1584625Y-1940625D01*
X-1572750Y-1928750D01*
X-1572750Y-1916875D01*
X-1584625Y-1905000D01*
D101*
X-2464500Y-250000D02*
X-2464500Y-720000D01*
X-2234500Y-720000D01*
X-2234500Y-250000D01*
X-2464500Y-250000D01*
X-2299500Y-485000D02*
X-2399500Y-485000D01*
X-2349500Y-535000D02*
X-2349500Y-435000D01*
D105*
X-2325750Y-556250D02*
X-2313875Y-568125D01*
X-2313875Y-603750D01*
X-2337625Y-627500D01*
X-2361375Y-627500D01*
X-2385125Y-603750D01*
X-2385125Y-568125D01*
X-2373250Y-556250D01*
X-2385125Y-532500D02*
X-2349500Y-532500D01*
X-2313875Y-496875D01*
X-2349500Y-461250D01*
X-2385125Y-461250D01*
X-2385125Y-366250D02*
X-2385125Y-425625D01*
X-2361375Y-425625D01*
X-2361375Y-378125D01*
X-2349500Y-366250D01*
X-2325750Y-366250D01*
X-2313875Y-378125D01*
X-2313875Y-413750D01*
X-2325750Y-425625D01*
D41*
X-984250Y+0D02*
X-285750Y+0D01*
X-285750Y+1167130D01*
X-984250Y+1167130D01*
X-984250Y+0D01*
D109*
X-664178Y+233428D02*
X-722534Y+291784D01*
X-722534Y+350140D01*
X-664178Y+408496D01*
X-605821Y+408496D01*
X-547465Y+350140D01*
X-547465Y+291784D01*
X-605821Y+233428D01*
X-664178Y+233428D01*
X-605821Y+350140D02*
X-547465Y+408496D01*
X-722534Y+466853D02*
X-635000Y+466853D01*
X-547465Y+554387D01*
X-635000Y+641921D01*
X-722534Y+641921D01*
X-605821Y+875346D02*
X-605821Y+700278D01*
X-722534Y+816990D01*
X-547465Y+816990D01*
D101*
X+593000Y+480500D02*
X-177000Y+480500D01*
X-177000Y-99500D01*
X+593000Y-99500D01*
X+593000Y+480500D01*
X+208000Y+140500D02*
X+208000Y+240500D01*
X+158000Y+190500D02*
X+258000Y+190500D01*
D102*
X-24500Y+248625D02*
X-24500Y+132375D01*
X+91750Y+132375D01*
X+130500Y+248625D02*
X+130500Y+190500D01*
X+188625Y+132375D01*
X+246750Y+190500D01*
X+246750Y+248625D01*
X+304875Y+229250D02*
X+324250Y+248625D01*
X+382375Y+248625D01*
X+401750Y+229250D01*
X+401750Y+209875D01*
X+382375Y+190500D01*
X+324250Y+190500D01*
X+304875Y+171125D01*
X+304875Y+132375D01*
X+401750Y+132375D01*
D101*
X+342000Y+817000D02*
X+342000Y+1527000D01*
X-88000Y+1527000D01*
X-88000Y+817000D01*
X+342000Y+817000D01*
X+77000Y+1172000D02*
X+177000Y+1172000D01*
X+127000Y+1222000D02*
X+127000Y+1122000D01*
D106*
X+180625Y+957500D02*
X+73375Y+957500D01*
X+73375Y+1029000D01*
X+109125Y+1064750D01*
X+144875Y+1064750D01*
X+180625Y+1029000D01*
X+180625Y+957500D01*
X+73375Y+1100500D02*
X+127000Y+1100500D01*
X+180625Y+1154125D01*
X+127000Y+1207750D01*
X+73375Y+1207750D01*
X+91250Y+1261375D02*
X+73375Y+1279250D01*
X+73375Y+1332875D01*
X+91250Y+1350750D01*
X+109125Y+1350750D01*
X+127000Y+1332875D01*
X+144875Y+1350750D01*
X+162750Y+1350750D01*
X+180625Y+1332875D01*
X+180625Y+1279250D01*
X+162750Y+1261375D01*
X+127000Y+1297125D02*
X+127000Y+1332875D01*
D41*
X+497840Y+754600D02*
X+1153160Y+754600D01*
X+1153160Y+1503900D01*
X+497840Y+1503900D01*
X+497840Y+754600D01*
D117*
X+855472Y+979390D02*
X+870458Y+964404D01*
X+870458Y+919446D01*
X+840486Y+889474D01*
X+810514Y+889474D01*
X+780542Y+919446D01*
X+780542Y+964404D01*
X+795528Y+979390D01*
X+780542Y+1009362D02*
X+825500Y+1009362D01*
X+870458Y+1054320D01*
X+825500Y+1099278D01*
X+780542Y+1099278D01*
X+795528Y+1144236D02*
X+780542Y+1159222D01*
X+780542Y+1204180D01*
X+795528Y+1219166D01*
X+810514Y+1219166D01*
X+825500Y+1204180D01*
X+825500Y+1159222D01*
X+840486Y+1144236D01*
X+870458Y+1144236D01*
X+870458Y+1219166D01*
X+810514Y+1279110D02*
X+780542Y+1309082D01*
X+870458Y+1309082D01*
D101*
X+630500Y+700000D02*
X+630500Y-90000D01*
X+1020500Y-90000D01*
X+1020500Y+700000D01*
X+630500Y+700000D01*
X+875500Y+305000D02*
X+775500Y+305000D01*
X+825500Y+255000D02*
X+825500Y+355000D01*
D118*
X+873200Y+50600D02*
X+777800Y+50600D01*
X+777800Y+130100D01*
X+793700Y+146000D01*
X+809600Y+146000D01*
X+825500Y+130100D01*
X+825500Y+50600D01*
X+825500Y+130100D02*
X+841400Y+146000D01*
X+873200Y+146000D01*
X+777800Y+177800D02*
X+825500Y+177800D01*
X+873200Y+225500D01*
X+825500Y+273200D01*
X+777800Y+273200D01*
X+793700Y+320900D02*
X+777800Y+336800D01*
X+777800Y+384500D01*
X+793700Y+400400D01*
X+809600Y+400400D01*
X+825500Y+384500D01*
X+825500Y+336800D01*
X+841400Y+320900D01*
X+873200Y+320900D01*
X+873200Y+400400D01*
X+841400Y+527600D02*
X+841400Y+432200D01*
X+777800Y+495800D01*
X+873200Y+495800D01*
D41*
X+139700Y-1440180D02*
X+863600Y-1440180D01*
X+863600Y-972820D01*
X+139700Y-972820D01*
X+139700Y-1440180D01*
D110*
X+284480Y-1152207D02*
X+284480Y-1242695D01*
X+302577Y-1260792D01*
X+374967Y-1260792D01*
X+393065Y-1242695D01*
X+393065Y-1152207D01*
X+429260Y-1152207D02*
X+429260Y-1206500D01*
X+483552Y-1260792D01*
X+537845Y-1206500D01*
X+537845Y-1152207D01*
X+592137Y-1170305D02*
X+610235Y-1152207D01*
X+664527Y-1152207D01*
X+682625Y-1170305D01*
X+682625Y-1188402D01*
X+664527Y-1206500D01*
X+682625Y-1224597D01*
X+682625Y-1242695D01*
X+664527Y-1260792D01*
X+610235Y-1260792D01*
X+592137Y-1242695D01*
X+628332Y-1206500D02*
X+664527Y-1206500D01*
D101*
X-1004000Y-169000D02*
X-1004000Y-629000D01*
X-774000Y-629000D01*
X-774000Y-169000D01*
X-1004000Y-169000D01*
X-839000Y-399000D02*
X-939000Y-399000D01*
X-889000Y-449000D02*
X-889000Y-349000D01*
D115*
X-861100Y-547800D02*
X-916900Y-547800D01*
X-916900Y-501300D01*
X-907600Y-492000D01*
X-898300Y-492000D01*
X-889000Y-501300D01*
X-889000Y-547800D01*
X-889000Y-501300D02*
X-879700Y-492000D01*
X-861100Y-492000D01*
X-916900Y-473400D02*
X-889000Y-473400D01*
X-861100Y-445500D01*
X-889000Y-417600D01*
X-916900Y-417600D01*
X-907600Y-389700D02*
X-916900Y-380400D01*
X-916900Y-352500D01*
X-907600Y-343200D01*
X-898300Y-343200D01*
X-889000Y-352500D01*
X-889000Y-380400D01*
X-879700Y-389700D01*
X-861100Y-389700D01*
X-861100Y-343200D01*
X-898300Y-306000D02*
X-916900Y-287400D01*
X-861100Y-287400D01*
D101*
X-323500Y-139000D02*
X-783500Y-139000D01*
X-783500Y-369000D01*
X-323500Y-369000D01*
X-323500Y-139000D01*
X-553500Y-304000D02*
X-553500Y-204000D01*
X-603500Y-254000D02*
X-503500Y-254000D01*
D115*
X-702300Y-281900D02*
X-702300Y-226100D01*
X-655800Y-226100D01*
X-646500Y-235400D01*
X-646500Y-244700D01*
X-655800Y-254000D01*
X-702300Y-254000D01*
X-655800Y-254000D02*
X-646500Y-263300D01*
X-646500Y-281900D01*
X-627900Y-226100D02*
X-627900Y-254000D01*
X-600000Y-281900D01*
X-572100Y-254000D01*
X-572100Y-226100D01*
X-544200Y-235400D02*
X-534900Y-226100D01*
X-507000Y-226100D01*
X-497700Y-235400D01*
X-497700Y-244700D01*
X-507000Y-254000D01*
X-534900Y-254000D01*
X-544200Y-263300D01*
X-544200Y-281900D01*
X-497700Y-281900D01*
X-469800Y-235400D02*
X-460500Y-226100D01*
X-432600Y-226100D01*
X-423300Y-235400D01*
X-423300Y-244700D01*
X-432600Y-254000D01*
X-460500Y-254000D01*
X-469800Y-263300D01*
X-469800Y-281900D01*
X-423300Y-281900D01*
D101*
X-783500Y-877000D02*
X-313500Y-877000D01*
X-313500Y-647000D01*
X-783500Y-647000D01*
X-783500Y-877000D01*
X-548500Y-712000D02*
X-548500Y-812000D01*
X-498500Y-762000D02*
X-598500Y-762000D01*
D116*
X-643500Y-781000D02*
X-653000Y-790500D01*
X-681500Y-790500D01*
X-700500Y-771500D01*
X-700500Y-752500D01*
X-681500Y-733500D01*
X-653000Y-733500D01*
X-643500Y-743000D01*
X-624500Y-733500D02*
X-624500Y-762000D01*
X-596000Y-790500D01*
X-567500Y-762000D01*
X-567500Y-733500D01*
X-529500Y-752500D02*
X-510500Y-733500D01*
X-510500Y-790500D01*
X-415500Y-752500D02*
X-425000Y-762000D01*
X-453500Y-762000D01*
X-463000Y-752500D01*
X-463000Y-743000D01*
X-453500Y-733500D01*
X-425000Y-733500D01*
X-415500Y-743000D01*
X-415500Y-781000D01*
X-425000Y-790500D01*
X-453500Y-790500D01*
D41*
X-914400Y-1407160D02*
X-228600Y-1407160D01*
X-228600Y-878840D01*
X-914400Y-878840D01*
X-914400Y-1407160D01*
D119*
X-708660Y-1170432D02*
X-722376Y-1184148D01*
X-763524Y-1184148D01*
X-790956Y-1156716D01*
X-790956Y-1129284D01*
X-763524Y-1101852D01*
X-722376Y-1101852D01*
X-708660Y-1115568D01*
X-681228Y-1101852D02*
X-681228Y-1143000D01*
X-640080Y-1184148D01*
X-598932Y-1143000D01*
X-598932Y-1101852D01*
X-557784Y-1115568D02*
X-544068Y-1101852D01*
X-502920Y-1101852D01*
X-489204Y-1115568D01*
X-489204Y-1129284D01*
X-502920Y-1143000D01*
X-544068Y-1143000D01*
X-557784Y-1156716D01*
X-557784Y-1184148D01*
X-489204Y-1184148D01*
X-448056Y-1115568D02*
X-434340Y-1101852D01*
X-393192Y-1101852D01*
X-379476Y-1115568D01*
X-379476Y-1129284D01*
X-393192Y-1143000D01*
X-434340Y-1143000D01*
X-448056Y-1156716D01*
X-448056Y-1184148D01*
X-379476Y-1184148D01*
D41*
X-1201420Y-1638300D02*
X-891540Y-1638300D01*
X-891540Y-1346200D01*
X-1201420Y-1346200D01*
X-1201420Y-1638300D01*
D114*
X-1139444Y-1484503D02*
X-1123950Y-1469009D01*
X-1108456Y-1469009D01*
X-1092962Y-1484503D01*
X-1092962Y-1499997D01*
X-1108456Y-1515491D01*
X-1123950Y-1515491D01*
X-1139444Y-1499997D01*
X-1139444Y-1484503D01*
X-1108456Y-1499997D02*
X-1092962Y-1515491D01*
X-1077468Y-1469009D02*
X-1077468Y-1492250D01*
X-1054227Y-1515491D01*
X-1030986Y-1492250D01*
X-1030986Y-1469009D01*
X-1007745Y-1476756D02*
X-999998Y-1469009D01*
X-976757Y-1469009D01*
X-969010Y-1476756D01*
X-969010Y-1484503D01*
X-976757Y-1492250D01*
X-969010Y-1499997D01*
X-969010Y-1507744D01*
X-976757Y-1515491D01*
X-999998Y-1515491D01*
X-1007745Y-1507744D01*
X-992251Y-1492250D02*
X-976757Y-1492250D01*
D41*
X-964080Y-2000250D02*
X-813920Y-2000250D01*
X-813920Y-1701800D01*
X-964080Y-1701800D01*
X-964080Y-2000250D01*
D113*
X-866616Y-1940558D02*
X-911383Y-1940558D01*
X-911383Y-1910714D01*
X-896461Y-1895792D01*
X-881538Y-1895792D01*
X-866616Y-1910714D01*
X-866616Y-1940558D01*
X-911383Y-1880869D02*
X-889000Y-1880869D01*
X-866616Y-1858486D01*
X-889000Y-1836103D01*
X-911383Y-1836103D01*
X-881538Y-1776414D02*
X-881538Y-1821180D01*
X-911383Y-1791336D01*
X-866616Y-1791336D01*
D41*
X-741680Y-2209800D02*
X-274320Y-2209800D01*
X-274320Y-1485900D01*
X-741680Y-1485900D01*
X-741680Y-2209800D01*
D110*
X-562293Y-2065020D02*
X-471805Y-2065020D01*
X-453708Y-2046923D01*
X-453708Y-1974533D01*
X-471805Y-1956435D01*
X-562293Y-1956435D01*
X-562293Y-1920240D02*
X-508000Y-1920240D01*
X-453708Y-1865948D01*
X-508000Y-1811655D01*
X-562293Y-1811655D01*
X-489903Y-1666875D02*
X-489903Y-1775460D01*
X-562293Y-1703070D01*
X-453708Y-1703070D01*
D101*
X-1004000Y-2228500D02*
X-1004000Y-2688500D01*
X-774000Y-2688500D01*
X-774000Y-2228500D01*
X-1004000Y-2228500D01*
X-839000Y-2458500D02*
X-939000Y-2458500D01*
X-889000Y-2508500D02*
X-889000Y-2408500D01*
D115*
X-861100Y-2607300D02*
X-916900Y-2607300D01*
X-916900Y-2560800D01*
X-907600Y-2551500D01*
X-898300Y-2551500D01*
X-889000Y-2560800D01*
X-889000Y-2607300D01*
X-889000Y-2560800D02*
X-879700Y-2551500D01*
X-861100Y-2551500D01*
X-916900Y-2532900D02*
X-889000Y-2532900D01*
X-861100Y-2505000D01*
X-889000Y-2477100D01*
X-916900Y-2477100D01*
X-907600Y-2449200D02*
X-916900Y-2439900D01*
X-916900Y-2412000D01*
X-907600Y-2402700D01*
X-898300Y-2402700D01*
X-889000Y-2412000D01*
X-889000Y-2439900D01*
X-879700Y-2449200D01*
X-861100Y-2449200D01*
X-861100Y-2402700D01*
X-870400Y-2384100D02*
X-907600Y-2384100D01*
X-916900Y-2374800D01*
X-916900Y-2337600D01*
X-907600Y-2328300D01*
X-870400Y-2328300D01*
X-861100Y-2337600D01*
X-861100Y-2374800D01*
X-870400Y-2384100D01*
X-861100Y-2384100D02*
X-916900Y-2328300D01*
D101*
X-756000Y-2782000D02*
X-296000Y-2782000D01*
X-296000Y-2552000D01*
X-756000Y-2552000D01*
X-756000Y-2782000D01*
X-526000Y-2617000D02*
X-526000Y-2717000D01*
X-476000Y-2667000D02*
X-576000Y-2667000D01*
D115*
X-674800Y-2694900D02*
X-674800Y-2639100D01*
X-628300Y-2639100D01*
X-619000Y-2648400D01*
X-619000Y-2657700D01*
X-628300Y-2667000D01*
X-674800Y-2667000D01*
X-628300Y-2667000D02*
X-619000Y-2676300D01*
X-619000Y-2694900D01*
X-600400Y-2639100D02*
X-600400Y-2667000D01*
X-572500Y-2694900D01*
X-544600Y-2667000D01*
X-544600Y-2639100D01*
X-516700Y-2648400D02*
X-507400Y-2639100D01*
X-479500Y-2639100D01*
X-470200Y-2648400D01*
X-470200Y-2657700D01*
X-479500Y-2667000D01*
X-507400Y-2667000D01*
X-516700Y-2676300D01*
X-516700Y-2694900D01*
X-470200Y-2694900D01*
X-442300Y-2648400D02*
X-433000Y-2639100D01*
X-405100Y-2639100D01*
X-395800Y-2648400D01*
X-395800Y-2657700D01*
X-405100Y-2667000D01*
X-395800Y-2676300D01*
X-395800Y-2685600D01*
X-405100Y-2694900D01*
X-433000Y-2694900D01*
X-442300Y-2685600D01*
X-423700Y-2667000D02*
X-405100Y-2667000D01*
D101*
X-766000Y-2528000D02*
X-296000Y-2528000D01*
X-296000Y-2298000D01*
X-766000Y-2298000D01*
X-766000Y-2528000D01*
X-531000Y-2363000D02*
X-531000Y-2463000D01*
X-481000Y-2413000D02*
X-581000Y-2413000D01*
D116*
X-626000Y-2432000D02*
X-635500Y-2441500D01*
X-664000Y-2441500D01*
X-683000Y-2422500D01*
X-683000Y-2403500D01*
X-664000Y-2384500D01*
X-635500Y-2384500D01*
X-626000Y-2394000D01*
X-607000Y-2384500D02*
X-607000Y-2413000D01*
X-578500Y-2441500D01*
X-550000Y-2413000D01*
X-550000Y-2384500D01*
X-512000Y-2403500D02*
X-493000Y-2384500D01*
X-493000Y-2441500D01*
X-436000Y-2413000D02*
X-445500Y-2403500D01*
X-445500Y-2394000D01*
X-436000Y-2384500D01*
X-407500Y-2384500D01*
X-398000Y-2394000D01*
X-398000Y-2403500D01*
X-407500Y-2413000D01*
X-436000Y-2413000D01*
X-445500Y-2422500D01*
X-445500Y-2432000D01*
X-436000Y-2441500D01*
X-407500Y-2441500D01*
X-398000Y-2432000D01*
X-398000Y-2422500D01*
X-407500Y-2413000D01*
D101*
X-115000Y-260000D02*
X-115000Y-730000D01*
X+115000Y-730000D01*
X+115000Y-260000D01*
X-115000Y-260000D01*
X+50000Y-495000D02*
X-50000Y-495000D01*
X+0Y-545000D02*
X+0Y-445000D01*
D116*
X+19000Y-590000D02*
X+28500Y-599500D01*
X+28500Y-628000D01*
X+9500Y-647000D01*
X-9500Y-647000D01*
X-28500Y-628000D01*
X-28500Y-599500D01*
X-19000Y-590000D01*
X-28500Y-571000D02*
X+0Y-571000D01*
X+28500Y-542500D01*
X+0Y-514000D01*
X-28500Y-514000D01*
X-19000Y-485500D02*
X-28500Y-476000D01*
X-28500Y-447500D01*
X-19000Y-438000D01*
X-9500Y-438000D01*
X+0Y-447500D01*
X+0Y-476000D01*
X+9500Y-485500D01*
X+28500Y-485500D01*
X+28500Y-438000D01*
X+19000Y-419000D02*
X-19000Y-419000D01*
X-28500Y-409500D01*
X-28500Y-371500D01*
X-19000Y-362000D01*
X+19000Y-362000D01*
X+28500Y-371500D01*
X+28500Y-409500D01*
X+19000Y-419000D01*
X+28500Y-419000D02*
X-28500Y-362000D01*
D101*
X+393000Y-260000D02*
X+393000Y-730000D01*
X+623000Y-730000D01*
X+623000Y-260000D01*
X+393000Y-260000D01*
X+558000Y-495000D02*
X+458000Y-495000D01*
X+508000Y-545000D02*
X+508000Y-445000D01*
D116*
X+527000Y-590000D02*
X+536500Y-599500D01*
X+536500Y-628000D01*
X+517500Y-647000D01*
X+498500Y-647000D01*
X+479500Y-628000D01*
X+479500Y-599500D01*
X+489000Y-590000D01*
X+479500Y-571000D02*
X+508000Y-571000D01*
X+536500Y-542500D01*
X+508000Y-514000D01*
X+479500Y-514000D01*
X+498500Y-476000D02*
X+479500Y-457000D01*
X+536500Y-457000D01*
X+479500Y-362000D02*
X+479500Y-409500D01*
X+498500Y-409500D01*
X+498500Y-371500D01*
X+508000Y-362000D01*
X+527000Y-362000D01*
X+536500Y-371500D01*
X+536500Y-400000D01*
X+527000Y-409500D01*
D101*
X+877000Y-720000D02*
X+877000Y-260000D01*
X+647000Y-260000D01*
X+647000Y-720000D01*
X+877000Y-720000D01*
X+712000Y-490000D02*
X+812000Y-490000D01*
X+762000Y-440000D02*
X+762000Y-540000D01*
D115*
X+789900Y-638800D02*
X+734100Y-638800D01*
X+734100Y-592300D01*
X+743400Y-583000D01*
X+752700Y-583000D01*
X+762000Y-592300D01*
X+762000Y-638800D01*
X+762000Y-592300D02*
X+771300Y-583000D01*
X+789900Y-583000D01*
X+734100Y-564400D02*
X+762000Y-564400D01*
X+789900Y-536500D01*
X+762000Y-508600D01*
X+734100Y-508600D01*
X+752700Y-471400D02*
X+734100Y-452800D01*
X+789900Y-452800D01*
X+734100Y-359800D02*
X+734100Y-406300D01*
X+752700Y-406300D01*
X+752700Y-369100D01*
X+762000Y-359800D01*
X+780600Y-359800D01*
X+789900Y-369100D01*
X+789900Y-397000D01*
X+780600Y-406300D01*
D101*
X+369000Y-720000D02*
X+369000Y-260000D01*
X+139000Y-260000D01*
X+139000Y-720000D01*
X+369000Y-720000D01*
X+204000Y-490000D02*
X+304000Y-490000D01*
X+254000Y-440000D02*
X+254000Y-540000D01*
D115*
X+281900Y-638800D02*
X+226100Y-638800D01*
X+226100Y-592300D01*
X+235400Y-583000D01*
X+244700Y-583000D01*
X+254000Y-592300D01*
X+254000Y-638800D01*
X+254000Y-592300D02*
X+263300Y-583000D01*
X+281900Y-583000D01*
X+226100Y-564400D02*
X+254000Y-564400D01*
X+281900Y-536500D01*
X+254000Y-508600D01*
X+226100Y-508600D01*
X+244700Y-471400D02*
X+226100Y-452800D01*
X+281900Y-452800D01*
X+235400Y-359800D02*
X+226100Y-369100D01*
X+226100Y-397000D01*
X+235400Y-406300D01*
X+272600Y-406300D01*
X+281900Y-397000D01*
X+281900Y-369100D01*
X+272600Y-359800D01*
X+263300Y-359800D01*
X+254000Y-369100D01*
X+254000Y-406300D01*
D101*
X-4000Y-940500D02*
X+466000Y-940500D01*
X+466000Y-710500D01*
X-4000Y-710500D01*
X-4000Y-940500D01*
X+231000Y-775500D02*
X+231000Y-875500D01*
X+281000Y-825500D02*
X+181000Y-825500D01*
D116*
X+136000Y-844500D02*
X+126500Y-854000D01*
X+98000Y-854000D01*
X+79000Y-835000D01*
X+79000Y-816000D01*
X+98000Y-797000D01*
X+126500Y-797000D01*
X+136000Y-806500D01*
X+155000Y-797000D02*
X+155000Y-825500D01*
X+183500Y-854000D01*
X+212000Y-825500D01*
X+212000Y-797000D01*
X+250000Y-816000D02*
X+269000Y-797000D01*
X+269000Y-854000D01*
X+316500Y-806500D02*
X+326000Y-797000D01*
X+354500Y-797000D01*
X+364000Y-806500D01*
X+364000Y-816000D01*
X+354500Y-825500D01*
X+364000Y-835000D01*
X+364000Y-844500D01*
X+354500Y-854000D01*
X+326000Y-854000D01*
X+316500Y-844500D01*
X+335500Y-825500D02*
X+354500Y-825500D01*
D101*
X-148500Y-1766000D02*
X+321500Y-1766000D01*
X+321500Y-1536000D01*
X-148500Y-1536000D01*
X-148500Y-1766000D01*
X+86500Y-1601000D02*
X+86500Y-1701000D01*
X+136500Y-1651000D02*
X+36500Y-1651000D01*
D116*
X-8500Y-1670000D02*
X-18000Y-1679500D01*
X-46500Y-1679500D01*
X-65500Y-1660500D01*
X-65500Y-1641500D01*
X-46500Y-1622500D01*
X-18000Y-1622500D01*
X-8500Y-1632000D01*
X+10500Y-1622500D02*
X+10500Y-1651000D01*
X+39000Y-1679500D01*
X+67500Y-1651000D01*
X+67500Y-1622500D01*
X+105500Y-1641500D02*
X+124500Y-1622500D01*
X+124500Y-1679500D01*
X+219500Y-1632000D02*
X+210000Y-1622500D01*
X+181500Y-1622500D01*
X+172000Y-1632000D01*
X+172000Y-1670000D01*
X+181500Y-1679500D01*
X+210000Y-1679500D01*
X+219500Y-1670000D01*
X+219500Y-1660500D01*
X+210000Y-1651000D01*
X+172000Y-1651000D01*
D101*
X-148500Y-2020000D02*
X+321500Y-2020000D01*
X+321500Y-1790000D01*
X-148500Y-1790000D01*
X-148500Y-2020000D01*
X+86500Y-1855000D02*
X+86500Y-1955000D01*
X+136500Y-1905000D02*
X+36500Y-1905000D01*
D116*
X-8500Y-1924000D02*
X-18000Y-1933500D01*
X-46500Y-1933500D01*
X-65500Y-1914500D01*
X-65500Y-1895500D01*
X-46500Y-1876500D01*
X-18000Y-1876500D01*
X-8500Y-1886000D01*
X+10500Y-1876500D02*
X+10500Y-1905000D01*
X+39000Y-1933500D01*
X+67500Y-1905000D01*
X+67500Y-1876500D01*
X+105500Y-1895500D02*
X+124500Y-1876500D01*
X+124500Y-1933500D01*
X+172000Y-1886000D02*
X+181500Y-1876500D01*
X+210000Y-1876500D01*
X+219500Y-1886000D01*
X+219500Y-1895500D01*
X+210000Y-1905000D01*
X+181500Y-1905000D01*
X+172000Y-1914500D01*
X+172000Y-1933500D01*
X+219500Y-1933500D01*
D101*
X-148500Y-2274000D02*
X+311500Y-2274000D01*
X+311500Y-2044000D01*
X-148500Y-2044000D01*
X-148500Y-2274000D01*
X+81500Y-2109000D02*
X+81500Y-2209000D01*
X+131500Y-2159000D02*
X+31500Y-2159000D01*
D115*
X-67300Y-2186900D02*
X-67300Y-2131100D01*
X-20800Y-2131100D01*
X-11500Y-2140400D01*
X-11500Y-2149700D01*
X-20800Y-2159000D01*
X-67300Y-2159000D01*
X-20800Y-2159000D02*
X-11500Y-2168300D01*
X-11500Y-2186900D01*
X+7100Y-2131100D02*
X+7100Y-2159000D01*
X+35000Y-2186900D01*
X+62900Y-2159000D01*
X+62900Y-2131100D01*
X+100100Y-2149700D02*
X+118700Y-2131100D01*
X+118700Y-2186900D01*
X+165200Y-2131100D02*
X+211700Y-2131100D01*
X+211700Y-2140400D01*
X+165200Y-2186900D01*
D101*
X+359500Y-1766000D02*
X+819500Y-1766000D01*
X+819500Y-1536000D01*
X+359500Y-1536000D01*
X+359500Y-1766000D01*
X+589500Y-1601000D02*
X+589500Y-1701000D01*
X+639500Y-1651000D02*
X+539500Y-1651000D01*
D115*
X+440700Y-1678900D02*
X+440700Y-1623100D01*
X+487200Y-1623100D01*
X+496500Y-1632400D01*
X+496500Y-1641700D01*
X+487200Y-1651000D01*
X+440700Y-1651000D01*
X+487200Y-1651000D02*
X+496500Y-1660300D01*
X+496500Y-1678900D01*
X+515100Y-1623100D02*
X+515100Y-1651000D01*
X+543000Y-1678900D01*
X+570900Y-1651000D01*
X+570900Y-1623100D01*
X+608100Y-1641700D02*
X+626700Y-1623100D01*
X+626700Y-1678900D01*
X+719700Y-1660300D02*
X+663900Y-1660300D01*
X+701100Y-1623100D01*
X+701100Y-1678900D01*
D101*
X+359500Y-2274000D02*
X+819500Y-2274000D01*
X+819500Y-2044000D01*
X+359500Y-2044000D01*
X+359500Y-2274000D01*
X+589500Y-2109000D02*
X+589500Y-2209000D01*
X+639500Y-2159000D02*
X+539500Y-2159000D01*
D115*
X+440700Y-2186900D02*
X+440700Y-2131100D01*
X+487200Y-2131100D01*
X+496500Y-2140400D01*
X+496500Y-2149700D01*
X+487200Y-2159000D01*
X+440700Y-2159000D01*
X+487200Y-2159000D02*
X+496500Y-2168300D01*
X+496500Y-2186900D01*
X+515100Y-2131100D02*
X+515100Y-2159000D01*
X+543000Y-2186900D01*
X+570900Y-2159000D01*
X+570900Y-2131100D01*
X+608100Y-2149700D02*
X+626700Y-2131100D01*
X+626700Y-2186900D01*
X+673200Y-2140400D02*
X+682500Y-2131100D01*
X+710400Y-2131100D01*
X+719700Y-2140400D01*
X+719700Y-2149700D01*
X+710400Y-2159000D01*
X+719700Y-2168300D01*
X+719700Y-2177600D01*
X+710400Y-2186900D01*
X+682500Y-2186900D01*
X+673200Y-2177600D01*
X+691800Y-2159000D02*
X+710400Y-2159000D01*
D101*
X+359500Y-2020000D02*
X+829500Y-2020000D01*
X+829500Y-1790000D01*
X+359500Y-1790000D01*
X+359500Y-2020000D01*
X+594500Y-1855000D02*
X+594500Y-1955000D01*
X+644500Y-1905000D02*
X+544500Y-1905000D01*
D116*
X+499500Y-1924000D02*
X+490000Y-1933500D01*
X+461500Y-1933500D01*
X+442500Y-1914500D01*
X+442500Y-1895500D01*
X+461500Y-1876500D01*
X+490000Y-1876500D01*
X+499500Y-1886000D01*
X+518500Y-1876500D02*
X+518500Y-1905000D01*
X+547000Y-1933500D01*
X+575500Y-1905000D01*
X+575500Y-1876500D01*
X+613500Y-1895500D02*
X+632500Y-1876500D01*
X+632500Y-1933500D01*
X+727500Y-1914500D02*
X+670500Y-1914500D01*
X+708500Y-1876500D01*
X+708500Y-1933500D01*
D41*
X+434340Y+1704340D02*
X+708660Y+1704340D01*
X+708660Y+1978660D01*
X+434340Y+1978660D01*
X+434340Y+1704340D01*
D104*
X+555041Y+1753718D02*
X+571500Y+1753718D01*
X+587960Y+1770177D01*
X+571500Y+1786636D01*
X+555041Y+1786636D01*
X+560528Y+1803095D02*
X+555041Y+1808581D01*
X+555041Y+1825040D01*
X+560528Y+1830527D01*
X+566014Y+1830527D01*
X+571500Y+1825040D01*
X+571500Y+1808581D01*
X+576987Y+1803095D01*
X+587960Y+1803095D01*
X+587960Y+1830527D01*
X+587960Y+1841500D02*
X+555041Y+1841500D01*
X+555041Y+1874418D02*
X+587960Y+1874418D01*
X+571500Y+1841500D02*
X+571500Y+1874418D01*
X+582473Y+1885391D02*
X+587960Y+1890877D01*
X+587960Y+1912822D01*
X+582473Y+1918309D01*
X+576987Y+1918309D01*
X+571500Y+1912822D01*
X+571500Y+1890877D01*
X+566014Y+1885391D01*
X+560528Y+1885391D01*
X+555041Y+1890877D01*
X+555041Y+1912822D01*
X+560528Y+1918309D01*
D41*
X-899160Y-3693160D02*
X-624840Y-3693160D01*
X-624840Y-3418840D01*
X-899160Y-3418840D01*
X-899160Y-3693160D01*
D104*
X-844296Y-3539541D02*
X-822351Y-3539541D01*
X-833323Y-3539541D02*
X-833323Y-3572460D01*
X-844296Y-3572460D02*
X-822351Y-3572460D01*
X-805891Y-3572460D02*
X-805891Y-3539541D01*
X-772973Y-3539541D01*
X-805891Y-3556000D02*
X-783946Y-3556000D01*
X-762000Y-3572460D02*
X-762000Y-3539541D01*
X-734569Y-3539541D01*
X-729082Y-3545028D01*
X-729082Y-3550514D01*
X-734569Y-3556000D01*
X-729082Y-3561487D01*
X-729082Y-3566973D01*
X-734569Y-3572460D01*
X-762000Y-3572460D01*
X-762000Y-3556000D02*
X-734569Y-3556000D01*
X-712623Y-3545028D02*
X-707137Y-3539541D01*
X-690678Y-3539541D01*
X-685191Y-3545028D01*
X-685191Y-3550514D01*
X-690678Y-3556000D01*
X-707137Y-3556000D01*
X-712623Y-3561487D01*
X-712623Y-3572460D01*
X-685191Y-3572460D01*
D41*
X-899160Y-3439160D02*
X-624840Y-3439160D01*
X-624840Y-3164840D01*
X-899160Y-3164840D01*
X-899160Y-3439160D01*
D104*
X-849782Y-3318460D02*
X-849782Y-3285541D01*
X-822351Y-3285541D01*
X-816864Y-3291028D01*
X-816864Y-3296514D01*
X-822351Y-3302000D01*
X-849782Y-3302000D01*
X-805891Y-3285541D02*
X-805891Y-3318460D01*
X-789432Y-3302000D01*
X-772973Y-3318460D01*
X-772973Y-3285541D01*
X-762000Y-3318460D02*
X-762000Y-3285541D01*
X-745541Y-3302000D01*
X-729082Y-3285541D01*
X-729082Y-3318460D01*
X-712623Y-3291028D02*
X-707137Y-3285541D01*
X-690678Y-3285541D01*
X-685191Y-3291028D01*
X-685191Y-3296514D01*
X-690678Y-3302000D01*
X-707137Y-3302000D01*
X-712623Y-3307487D01*
X-712623Y-3318460D01*
X-685191Y-3318460D01*
D41*
X-899160Y-3185160D02*
X-624840Y-3185160D01*
X-624840Y-2910840D01*
X-899160Y-2910840D01*
X-899160Y-3185160D01*
D104*
X-844296Y-3031541D02*
X-822351Y-3031541D01*
X-833323Y-3031541D02*
X-833323Y-3064460D01*
X-844296Y-3064460D02*
X-822351Y-3064460D01*
X-805891Y-3064460D02*
X-805891Y-3031541D01*
X-772973Y-3064460D01*
X-772973Y-3031541D01*
X-762000Y-3064460D02*
X-762000Y-3031541D01*
X-729082Y-3031541D02*
X-729082Y-3064460D01*
X-762000Y-3048000D02*
X-729082Y-3048000D01*
X-712623Y-3037028D02*
X-707137Y-3031541D01*
X-690678Y-3031541D01*
X-685191Y-3037028D01*
X-685191Y-3042514D01*
X-690678Y-3048000D01*
X-707137Y-3048000D01*
X-712623Y-3053487D01*
X-712623Y-3064460D01*
X-685191Y-3064460D01*
D41*
X+2783840Y+736600D02*
X+3439160Y+736600D01*
X+3439160Y+1485900D01*
X+2783840Y+1485900D01*
X+2783840Y+736600D01*
D117*
X+3141472Y+961390D02*
X+3156458Y+946404D01*
X+3156458Y+901446D01*
X+3126486Y+871474D01*
X+3096514Y+871474D01*
X+3066542Y+901446D01*
X+3066542Y+946404D01*
X+3081528Y+961390D01*
X+3066542Y+991362D02*
X+3111500Y+991362D01*
X+3156458Y+1036320D01*
X+3111500Y+1081278D01*
X+3066542Y+1081278D01*
X+3081528Y+1126236D02*
X+3066542Y+1141222D01*
X+3066542Y+1186180D01*
X+3081528Y+1201166D01*
X+3096514Y+1201166D01*
X+3111500Y+1186180D01*
X+3126486Y+1201166D01*
X+3141472Y+1201166D01*
X+3156458Y+1186180D01*
X+3156458Y+1141222D01*
X+3141472Y+1126236D01*
X+3111500Y+1156208D02*
X+3111500Y+1186180D01*
X+3081528Y+1246124D02*
X+3066542Y+1261110D01*
X+3066542Y+1306068D01*
X+3081528Y+1321054D01*
X+3096514Y+1321054D01*
X+3111500Y+1306068D01*
X+3111500Y+1261110D01*
X+3126486Y+1246124D01*
X+3156458Y+1246124D01*
X+3156458Y+1321054D01*
D101*
X+2628000Y+817000D02*
X+2628000Y+1527000D01*
X+2198000Y+1527000D01*
X+2198000Y+817000D01*
X+2628000Y+817000D01*
X+2363000Y+1172000D02*
X+2463000Y+1172000D01*
X+2413000Y+1222000D02*
X+2413000Y+1122000D01*
D106*
X+2466625Y+957500D02*
X+2359375Y+957500D01*
X+2359375Y+1029000D01*
X+2395125Y+1064750D01*
X+2430875Y+1064750D01*
X+2466625Y+1029000D01*
X+2466625Y+957500D01*
X+2359375Y+1100500D02*
X+2413000Y+1100500D01*
X+2466625Y+1154125D01*
X+2413000Y+1207750D01*
X+2359375Y+1207750D01*
X+2359375Y+1350750D02*
X+2359375Y+1261375D01*
X+2395125Y+1261375D01*
X+2395125Y+1332875D01*
X+2413000Y+1350750D01*
X+2448750Y+1350750D01*
X+2466625Y+1332875D01*
X+2466625Y+1279250D01*
X+2448750Y+1261375D01*
D41*
X+1321920Y-2000250D02*
X+1472080Y-2000250D01*
X+1472080Y-1701800D01*
X+1321920Y-1701800D01*
X+1321920Y-2000250D01*
D113*
X+1419384Y-1940558D02*
X+1374617Y-1940558D01*
X+1374617Y-1910714D01*
X+1389539Y-1895792D01*
X+1404462Y-1895792D01*
X+1419384Y-1910714D01*
X+1419384Y-1940558D01*
X+1374617Y-1880869D02*
X+1397000Y-1880869D01*
X+1419384Y-1858486D01*
X+1397000Y-1836103D01*
X+1374617Y-1836103D01*
X+1382078Y-1776414D02*
X+1374617Y-1783875D01*
X+1374617Y-1806258D01*
X+1382078Y-1813719D01*
X+1411923Y-1813719D01*
X+1419384Y-1806258D01*
X+1419384Y-1783875D01*
X+1411923Y-1776414D01*
X+1404462Y-1776414D01*
X+1397000Y-1783875D01*
X+1397000Y-1813719D01*
D101*
X+2879000Y+480500D02*
X+2109000Y+480500D01*
X+2109000Y-99500D01*
X+2879000Y-99500D01*
X+2879000Y+480500D01*
X+2494000Y+140500D02*
X+2494000Y+240500D01*
X+2444000Y+190500D02*
X+2544000Y+190500D01*
D102*
X+2261500Y+248625D02*
X+2261500Y+132375D01*
X+2377750Y+132375D01*
X+2416500Y+248625D02*
X+2416500Y+190500D01*
X+2474625Y+132375D01*
X+2532750Y+190500D01*
X+2532750Y+248625D01*
X+2590875Y+229250D02*
X+2610250Y+248625D01*
X+2668375Y+248625D01*
X+2687750Y+229250D01*
X+2687750Y+209875D01*
X+2668375Y+190500D01*
X+2687750Y+171125D01*
X+2687750Y+151750D01*
X+2668375Y+132375D01*
X+2610250Y+132375D01*
X+2590875Y+151750D01*
X+2629625Y+190500D02*
X+2668375Y+190500D01*
D41*
X+1084580Y-1638300D02*
X+1394460Y-1638300D01*
X+1394460Y-1346200D01*
X+1084580Y-1346200D01*
X+1084580Y-1638300D01*
D114*
X+1146556Y-1484503D02*
X+1162050Y-1469009D01*
X+1177544Y-1469009D01*
X+1193038Y-1484503D01*
X+1193038Y-1499997D01*
X+1177544Y-1515491D01*
X+1162050Y-1515491D01*
X+1146556Y-1499997D01*
X+1146556Y-1484503D01*
X+1177544Y-1499997D02*
X+1193038Y-1515491D01*
X+1208532Y-1469009D02*
X+1208532Y-1492250D01*
X+1231773Y-1515491D01*
X+1255014Y-1492250D01*
X+1255014Y-1469009D01*
X+1316990Y-1469009D02*
X+1278255Y-1469009D01*
X+1278255Y-1484503D01*
X+1309243Y-1484503D01*
X+1316990Y-1492250D01*
X+1316990Y-1507744D01*
X+1309243Y-1515491D01*
X+1286002Y-1515491D01*
X+1278255Y-1507744D01*
D41*
X+1301750Y+0D02*
X+2000250Y+0D01*
X+2000250Y+1167130D01*
X+1301750Y+1167130D01*
X+1301750Y+0D01*
D109*
X+1621822Y+233428D02*
X+1563466Y+291784D01*
X+1563466Y+350140D01*
X+1621822Y+408496D01*
X+1680179Y+408496D01*
X+1738535Y+350140D01*
X+1738535Y+291784D01*
X+1680179Y+233428D01*
X+1621822Y+233428D01*
X+1680179Y+350140D02*
X+1738535Y+408496D01*
X+1563466Y+466853D02*
X+1651000Y+466853D01*
X+1738535Y+554387D01*
X+1651000Y+641921D01*
X+1563466Y+641921D01*
X+1592644Y+875346D02*
X+1563466Y+846168D01*
X+1563466Y+758634D01*
X+1592644Y+729456D01*
X+1709357Y+729456D01*
X+1738535Y+758634D01*
X+1738535Y+846168D01*
X+1709357Y+875346D01*
X+1680179Y+875346D01*
X+1651000Y+846168D01*
X+1651000Y+729456D01*
D41*
X+1450340Y-3439160D02*
X+1724660Y-3439160D01*
X+1724660Y-3164840D01*
X+1450340Y-3164840D01*
X+1450340Y-3439160D01*
D104*
X+1499718Y-3318460D02*
X+1499718Y-3285541D01*
X+1527149Y-3285541D01*
X+1532636Y-3291028D01*
X+1532636Y-3296514D01*
X+1527149Y-3302000D01*
X+1499718Y-3302000D01*
X+1543609Y-3285541D02*
X+1543609Y-3318460D01*
X+1560068Y-3302000D01*
X+1576527Y-3318460D01*
X+1576527Y-3285541D01*
X+1587500Y-3318460D02*
X+1587500Y-3285541D01*
X+1603959Y-3302000D01*
X+1620418Y-3285541D01*
X+1620418Y-3318460D01*
X+1636877Y-3291028D02*
X+1642363Y-3285541D01*
X+1658822Y-3285541D01*
X+1664309Y-3291028D01*
X+1664309Y-3296514D01*
X+1658822Y-3302000D01*
X+1664309Y-3307487D01*
X+1664309Y-3312973D01*
X+1658822Y-3318460D01*
X+1642363Y-3318460D01*
X+1636877Y-3312973D01*
X+1647850Y-3302000D02*
X+1658822Y-3302000D01*
D41*
X+1450340Y-3693160D02*
X+1724660Y-3693160D01*
X+1724660Y-3418840D01*
X+1450340Y-3418840D01*
X+1450340Y-3693160D01*
D104*
X+1505204Y-3539541D02*
X+1527149Y-3539541D01*
X+1516177Y-3539541D02*
X+1516177Y-3572460D01*
X+1505204Y-3572460D02*
X+1527149Y-3572460D01*
X+1543609Y-3572460D02*
X+1543609Y-3539541D01*
X+1576527Y-3539541D01*
X+1543609Y-3556000D02*
X+1565554Y-3556000D01*
X+1587500Y-3572460D02*
X+1587500Y-3539541D01*
X+1614931Y-3539541D01*
X+1620418Y-3545028D01*
X+1620418Y-3550514D01*
X+1614931Y-3556000D01*
X+1620418Y-3561487D01*
X+1620418Y-3566973D01*
X+1614931Y-3572460D01*
X+1587500Y-3572460D01*
X+1587500Y-3556000D02*
X+1614931Y-3556000D01*
X+1636877Y-3545028D02*
X+1642363Y-3539541D01*
X+1658822Y-3539541D01*
X+1664309Y-3545028D01*
X+1664309Y-3550514D01*
X+1658822Y-3556000D01*
X+1664309Y-3561487D01*
X+1664309Y-3566973D01*
X+1658822Y-3572460D01*
X+1642363Y-3572460D01*
X+1636877Y-3566973D01*
X+1647850Y-3556000D02*
X+1658822Y-3556000D01*
D41*
X+1450340Y-3185160D02*
X+1724660Y-3185160D01*
X+1724660Y-2910840D01*
X+1450340Y-2910840D01*
X+1450340Y-3185160D01*
D104*
X+1505204Y-3031541D02*
X+1527149Y-3031541D01*
X+1516177Y-3031541D02*
X+1516177Y-3064460D01*
X+1505204Y-3064460D02*
X+1527149Y-3064460D01*
X+1543609Y-3064460D02*
X+1543609Y-3031541D01*
X+1576527Y-3064460D01*
X+1576527Y-3031541D01*
X+1587500Y-3064460D02*
X+1587500Y-3031541D01*
X+1620418Y-3031541D02*
X+1620418Y-3064460D01*
X+1587500Y-3048000D02*
X+1620418Y-3048000D01*
X+1636877Y-3037028D02*
X+1642363Y-3031541D01*
X+1658822Y-3031541D01*
X+1664309Y-3037028D01*
X+1664309Y-3042514D01*
X+1658822Y-3048000D01*
X+1664309Y-3053487D01*
X+1664309Y-3058973D01*
X+1658822Y-3064460D01*
X+1642363Y-3064460D01*
X+1636877Y-3058973D01*
X+1647850Y-3048000D02*
X+1658822Y-3048000D01*
D41*
X+2425700Y-1440180D02*
X+3149600Y-1440180D01*
X+3149600Y-972820D01*
X+2425700Y-972820D01*
X+2425700Y-1440180D01*
D110*
X+2570480Y-1152207D02*
X+2570480Y-1242695D01*
X+2588577Y-1260792D01*
X+2660967Y-1260792D01*
X+2679065Y-1242695D01*
X+2679065Y-1152207D01*
X+2715260Y-1152207D02*
X+2715260Y-1206500D01*
X+2769552Y-1260792D01*
X+2823845Y-1206500D01*
X+2823845Y-1152207D01*
X+2968625Y-1152207D02*
X+2878137Y-1152207D01*
X+2878137Y-1188402D01*
X+2950527Y-1188402D01*
X+2968625Y-1206500D01*
X+2968625Y-1242695D01*
X+2950527Y-1260792D01*
X+2896235Y-1260792D01*
X+2878137Y-1242695D01*
D41*
X+1544320Y-2209800D02*
X+2011680Y-2209800D01*
X+2011680Y-1485900D01*
X+1544320Y-1485900D01*
X+1544320Y-2209800D01*
D110*
X+1723707Y-2065020D02*
X+1814195Y-2065020D01*
X+1832292Y-2046923D01*
X+1832292Y-1974533D01*
X+1814195Y-1956435D01*
X+1723707Y-1956435D01*
X+1723707Y-1920240D02*
X+1778000Y-1920240D01*
X+1832292Y-1865948D01*
X+1778000Y-1811655D01*
X+1723707Y-1811655D01*
X+1741805Y-1666875D02*
X+1723707Y-1684973D01*
X+1723707Y-1739265D01*
X+1741805Y-1757363D01*
X+1814195Y-1757363D01*
X+1832292Y-1739265D01*
X+1832292Y-1684973D01*
X+1814195Y-1666875D01*
X+1796097Y-1666875D01*
X+1778000Y-1684973D01*
X+1778000Y-1757363D01*
D101*
X+2916500Y+700000D02*
X+2916500Y-90000D01*
X+3306500Y-90000D01*
X+3306500Y+700000D01*
X+2916500Y+700000D01*
X+3161500Y+305000D02*
X+3061500Y+305000D01*
X+3111500Y+255000D02*
X+3111500Y+355000D01*
D118*
X+3159200Y+50600D02*
X+3063800Y+50600D01*
X+3063800Y+130100D01*
X+3079700Y+146000D01*
X+3095600Y+146000D01*
X+3111500Y+130100D01*
X+3111500Y+50600D01*
X+3111500Y+130100D02*
X+3127400Y+146000D01*
X+3159200Y+146000D01*
X+3063800Y+177800D02*
X+3111500Y+177800D01*
X+3159200Y+225500D01*
X+3111500Y+273200D01*
X+3063800Y+273200D01*
X+3079700Y+320900D02*
X+3063800Y+336800D01*
X+3063800Y+384500D01*
X+3079700Y+400400D01*
X+3095600Y+400400D01*
X+3111500Y+384500D01*
X+3127400Y+400400D01*
X+3143300Y+400400D01*
X+3159200Y+384500D01*
X+3159200Y+336800D01*
X+3143300Y+320900D01*
X+3111500Y+352700D02*
X+3111500Y+384500D01*
X+3079700Y+527600D02*
X+3063800Y+511700D01*
X+3063800Y+464000D01*
X+3079700Y+448100D01*
X+3143300Y+448100D01*
X+3159200Y+464000D01*
X+3159200Y+511700D01*
X+3143300Y+527600D01*
X+3127400Y+527600D01*
X+3111500Y+511700D01*
X+3111500Y+448100D01*
D41*
X+2720340Y+1704340D02*
X+2994660Y+1704340D01*
X+2994660Y+1978660D01*
X+2720340Y+1978660D01*
X+2720340Y+1704340D01*
D104*
X+2841041Y+1753718D02*
X+2857500Y+1753718D01*
X+2873960Y+1770177D01*
X+2857500Y+1786636D01*
X+2841041Y+1786636D01*
X+2846528Y+1803095D02*
X+2841041Y+1808581D01*
X+2841041Y+1825040D01*
X+2846528Y+1830527D01*
X+2852014Y+1830527D01*
X+2857500Y+1825040D01*
X+2862987Y+1830527D01*
X+2868473Y+1830527D01*
X+2873960Y+1825040D01*
X+2873960Y+1808581D01*
X+2868473Y+1803095D01*
X+2857500Y+1814068D02*
X+2857500Y+1825040D01*
X+2873960Y+1841500D02*
X+2841041Y+1841500D01*
X+2841041Y+1874418D02*
X+2873960Y+1874418D01*
X+2857500Y+1841500D02*
X+2857500Y+1874418D01*
X+2868473Y+1885391D02*
X+2873960Y+1890877D01*
X+2873960Y+1912822D01*
X+2868473Y+1918309D01*
X+2862987Y+1918309D01*
X+2857500Y+1912822D01*
X+2857500Y+1890877D01*
X+2852014Y+1885391D01*
X+2846528Y+1885391D01*
X+2841041Y+1890877D01*
X+2841041Y+1912822D01*
X+2846528Y+1918309D01*
D101*
X+1502500Y-877000D02*
X+1972500Y-877000D01*
X+1972500Y-647000D01*
X+1502500Y-647000D01*
X+1502500Y-877000D01*
X+1737500Y-712000D02*
X+1737500Y-812000D01*
X+1787500Y-762000D02*
X+1687500Y-762000D01*
D116*
X+1642500Y-781000D02*
X+1633000Y-790500D01*
X+1604500Y-790500D01*
X+1585500Y-771500D01*
X+1585500Y-752500D01*
X+1604500Y-733500D01*
X+1633000Y-733500D01*
X+1642500Y-743000D01*
X+1661500Y-733500D02*
X+1661500Y-762000D01*
X+1690000Y-790500D01*
X+1718500Y-762000D01*
X+1718500Y-733500D01*
X+1747000Y-743000D02*
X+1756500Y-733500D01*
X+1785000Y-733500D01*
X+1794500Y-743000D01*
X+1794500Y-752500D01*
X+1785000Y-762000D01*
X+1794500Y-771500D01*
X+1794500Y-781000D01*
X+1785000Y-790500D01*
X+1756500Y-790500D01*
X+1747000Y-781000D01*
X+1766000Y-762000D02*
X+1785000Y-762000D01*
X+1813500Y-781000D02*
X+1813500Y-743000D01*
X+1823000Y-733500D01*
X+1861000Y-733500D01*
X+1870500Y-743000D01*
X+1870500Y-781000D01*
X+1861000Y-790500D01*
X+1823000Y-790500D01*
X+1813500Y-781000D01*
X+1813500Y-790500D02*
X+1870500Y-733500D01*
D41*
X+1371600Y-1407160D02*
X+2057400Y-1407160D01*
X+2057400Y-878840D01*
X+1371600Y-878840D01*
X+1371600Y-1407160D01*
D119*
X+1577340Y-1170432D02*
X+1563624Y-1184148D01*
X+1522476Y-1184148D01*
X+1495044Y-1156716D01*
X+1495044Y-1129284D01*
X+1522476Y-1101852D01*
X+1563624Y-1101852D01*
X+1577340Y-1115568D01*
X+1604772Y-1101852D02*
X+1604772Y-1143000D01*
X+1645920Y-1184148D01*
X+1687068Y-1143000D01*
X+1687068Y-1101852D01*
X+1728216Y-1115568D02*
X+1741932Y-1101852D01*
X+1783080Y-1101852D01*
X+1796796Y-1115568D01*
X+1796796Y-1129284D01*
X+1783080Y-1143000D01*
X+1796796Y-1156716D01*
X+1796796Y-1170432D01*
X+1783080Y-1184148D01*
X+1741932Y-1184148D01*
X+1728216Y-1170432D01*
X+1755648Y-1143000D02*
X+1783080Y-1143000D01*
X+1837944Y-1115568D02*
X+1851660Y-1101852D01*
X+1892808Y-1101852D01*
X+1906524Y-1115568D01*
X+1906524Y-1129284D01*
X+1892808Y-1143000D01*
X+1906524Y-1156716D01*
X+1906524Y-1170432D01*
X+1892808Y-1184148D01*
X+1851660Y-1184148D01*
X+1837944Y-1170432D01*
X+1865376Y-1143000D02*
X+1892808Y-1143000D01*
D101*
X+1282000Y-169000D02*
X+1282000Y-629000D01*
X+1512000Y-629000D01*
X+1512000Y-169000D01*
X+1282000Y-169000D01*
X+1447000Y-399000D02*
X+1347000Y-399000D01*
X+1397000Y-449000D02*
X+1397000Y-349000D01*
D115*
X+1424900Y-547800D02*
X+1369100Y-547800D01*
X+1369100Y-501300D01*
X+1378400Y-492000D01*
X+1387700Y-492000D01*
X+1397000Y-501300D01*
X+1397000Y-547800D01*
X+1397000Y-501300D02*
X+1406300Y-492000D01*
X+1424900Y-492000D01*
X+1369100Y-473400D02*
X+1397000Y-473400D01*
X+1424900Y-445500D01*
X+1397000Y-417600D01*
X+1369100Y-417600D01*
X+1378400Y-389700D02*
X+1369100Y-380400D01*
X+1369100Y-352500D01*
X+1378400Y-343200D01*
X+1387700Y-343200D01*
X+1397000Y-352500D01*
X+1406300Y-343200D01*
X+1415600Y-343200D01*
X+1424900Y-352500D01*
X+1424900Y-380400D01*
X+1415600Y-389700D01*
X+1397000Y-371100D02*
X+1397000Y-352500D01*
X+1378400Y-315300D02*
X+1369100Y-306000D01*
X+1369100Y-278100D01*
X+1378400Y-268800D01*
X+1387700Y-268800D01*
X+1397000Y-278100D01*
X+1406300Y-268800D01*
X+1415600Y-268800D01*
X+1424900Y-278100D01*
X+1424900Y-306000D01*
X+1415600Y-315300D01*
X+1397000Y-296700D02*
X+1397000Y-278100D01*
D101*
X+1962500Y-139000D02*
X+1502500Y-139000D01*
X+1502500Y-369000D01*
X+1962500Y-369000D01*
X+1962500Y-139000D01*
X+1732500Y-304000D02*
X+1732500Y-204000D01*
X+1682500Y-254000D02*
X+1782500Y-254000D01*
D115*
X+1583700Y-281900D02*
X+1583700Y-226100D01*
X+1630200Y-226100D01*
X+1639500Y-235400D01*
X+1639500Y-244700D01*
X+1630200Y-254000D01*
X+1583700Y-254000D01*
X+1630200Y-254000D02*
X+1639500Y-263300D01*
X+1639500Y-281900D01*
X+1658100Y-226100D02*
X+1658100Y-254000D01*
X+1686000Y-281900D01*
X+1713900Y-254000D01*
X+1713900Y-226100D01*
X+1741800Y-235400D02*
X+1751100Y-226100D01*
X+1779000Y-226100D01*
X+1788300Y-235400D01*
X+1788300Y-244700D01*
X+1779000Y-254000D01*
X+1788300Y-263300D01*
X+1788300Y-272600D01*
X+1779000Y-281900D01*
X+1751100Y-281900D01*
X+1741800Y-272600D01*
X+1760400Y-254000D02*
X+1779000Y-254000D01*
X+1862700Y-263300D02*
X+1806900Y-263300D01*
X+1844100Y-226100D01*
X+1844100Y-281900D01*
D101*
X+1502500Y-2782000D02*
X+1962500Y-2782000D01*
X+1962500Y-2552000D01*
X+1502500Y-2552000D01*
X+1502500Y-2782000D01*
X+1732500Y-2617000D02*
X+1732500Y-2717000D01*
X+1782500Y-2667000D02*
X+1682500Y-2667000D01*
D115*
X+1583700Y-2694900D02*
X+1583700Y-2639100D01*
X+1630200Y-2639100D01*
X+1639500Y-2648400D01*
X+1639500Y-2657700D01*
X+1630200Y-2667000D01*
X+1583700Y-2667000D01*
X+1630200Y-2667000D02*
X+1639500Y-2676300D01*
X+1639500Y-2694900D01*
X+1658100Y-2639100D02*
X+1658100Y-2667000D01*
X+1686000Y-2694900D01*
X+1713900Y-2667000D01*
X+1713900Y-2639100D01*
X+1741800Y-2648400D02*
X+1751100Y-2639100D01*
X+1779000Y-2639100D01*
X+1788300Y-2648400D01*
X+1788300Y-2657700D01*
X+1779000Y-2667000D01*
X+1788300Y-2676300D01*
X+1788300Y-2685600D01*
X+1779000Y-2694900D01*
X+1751100Y-2694900D01*
X+1741800Y-2685600D01*
X+1760400Y-2667000D02*
X+1779000Y-2667000D01*
X+1862700Y-2639100D02*
X+1816200Y-2639100D01*
X+1816200Y-2657700D01*
X+1853400Y-2657700D01*
X+1862700Y-2667000D01*
X+1862700Y-2685600D01*
X+1853400Y-2694900D01*
X+1825500Y-2694900D01*
X+1816200Y-2685600D01*
D101*
X+1218500Y-2201000D02*
X+1218500Y-2661000D01*
X+1448500Y-2661000D01*
X+1448500Y-2201000D01*
X+1218500Y-2201000D01*
X+1383500Y-2431000D02*
X+1283500Y-2431000D01*
X+1333500Y-2481000D02*
X+1333500Y-2381000D01*
D115*
X+1361400Y-2579800D02*
X+1305600Y-2579800D01*
X+1305600Y-2533300D01*
X+1314900Y-2524000D01*
X+1324200Y-2524000D01*
X+1333500Y-2533300D01*
X+1333500Y-2579800D01*
X+1333500Y-2533300D02*
X+1342800Y-2524000D01*
X+1361400Y-2524000D01*
X+1305600Y-2505400D02*
X+1333500Y-2505400D01*
X+1361400Y-2477500D01*
X+1333500Y-2449600D01*
X+1305600Y-2449600D01*
X+1314900Y-2421700D02*
X+1305600Y-2412400D01*
X+1305600Y-2384500D01*
X+1314900Y-2375200D01*
X+1324200Y-2375200D01*
X+1333500Y-2384500D01*
X+1342800Y-2375200D01*
X+1352100Y-2375200D01*
X+1361400Y-2384500D01*
X+1361400Y-2412400D01*
X+1352100Y-2421700D01*
X+1333500Y-2403100D02*
X+1333500Y-2384500D01*
X+1314900Y-2347300D02*
X+1305600Y-2338000D01*
X+1305600Y-2310100D01*
X+1314900Y-2300800D01*
X+1324200Y-2300800D01*
X+1333500Y-2310100D01*
X+1333500Y-2338000D01*
X+1342800Y-2347300D01*
X+1361400Y-2347300D01*
X+1361400Y-2300800D01*
D101*
X+1502500Y-2528000D02*
X+1972500Y-2528000D01*
X+1972500Y-2298000D01*
X+1502500Y-2298000D01*
X+1502500Y-2528000D01*
X+1737500Y-2363000D02*
X+1737500Y-2463000D01*
X+1787500Y-2413000D02*
X+1687500Y-2413000D01*
D116*
X+1642500Y-2432000D02*
X+1633000Y-2441500D01*
X+1604500Y-2441500D01*
X+1585500Y-2422500D01*
X+1585500Y-2403500D01*
X+1604500Y-2384500D01*
X+1633000Y-2384500D01*
X+1642500Y-2394000D01*
X+1661500Y-2384500D02*
X+1661500Y-2413000D01*
X+1690000Y-2441500D01*
X+1718500Y-2413000D01*
X+1718500Y-2384500D01*
X+1747000Y-2394000D02*
X+1756500Y-2384500D01*
X+1785000Y-2384500D01*
X+1794500Y-2394000D01*
X+1794500Y-2403500D01*
X+1785000Y-2413000D01*
X+1756500Y-2413000D01*
X+1747000Y-2422500D01*
X+1747000Y-2441500D01*
X+1794500Y-2441500D01*
X+1870500Y-2403500D02*
X+1861000Y-2413000D01*
X+1832500Y-2413000D01*
X+1823000Y-2403500D01*
X+1823000Y-2394000D01*
X+1832500Y-2384500D01*
X+1861000Y-2384500D01*
X+1870500Y-2394000D01*
X+1870500Y-2432000D01*
X+1861000Y-2441500D01*
X+1832500Y-2441500D01*
D101*
X+2107500Y-232500D02*
X+2107500Y-702500D01*
X+2337500Y-702500D01*
X+2337500Y-232500D01*
X+2107500Y-232500D01*
X+2272500Y-467500D02*
X+2172500Y-467500D01*
X+2222500Y-517500D02*
X+2222500Y-417500D01*
D116*
X+2241500Y-562500D02*
X+2251000Y-572000D01*
X+2251000Y-600500D01*
X+2232000Y-619500D01*
X+2213000Y-619500D01*
X+2194000Y-600500D01*
X+2194000Y-572000D01*
X+2203500Y-562500D01*
X+2194000Y-543500D02*
X+2222500Y-543500D01*
X+2251000Y-515000D01*
X+2222500Y-486500D01*
X+2194000Y-486500D01*
X+2203500Y-458000D02*
X+2194000Y-448500D01*
X+2194000Y-420000D01*
X+2203500Y-410500D01*
X+2213000Y-410500D01*
X+2222500Y-420000D01*
X+2232000Y-410500D01*
X+2241500Y-410500D01*
X+2251000Y-420000D01*
X+2251000Y-448500D01*
X+2241500Y-458000D01*
X+2222500Y-439000D02*
X+2222500Y-420000D01*
X+2213000Y-372500D02*
X+2194000Y-353500D01*
X+2251000Y-353500D01*
D101*
X+2591500Y-692500D02*
X+2591500Y-232500D01*
X+2361500Y-232500D01*
X+2361500Y-692500D01*
X+2591500Y-692500D01*
X+2426500Y-462500D02*
X+2526500Y-462500D01*
X+2476500Y-412500D02*
X+2476500Y-512500D01*
D115*
X+2504400Y-611300D02*
X+2448600Y-611300D01*
X+2448600Y-564800D01*
X+2457900Y-555500D01*
X+2467200Y-555500D01*
X+2476500Y-564800D01*
X+2476500Y-611300D01*
X+2476500Y-564800D02*
X+2485800Y-555500D01*
X+2504400Y-555500D01*
X+2448600Y-536900D02*
X+2476500Y-536900D01*
X+2504400Y-509000D01*
X+2476500Y-481100D01*
X+2448600Y-481100D01*
X+2457900Y-453200D02*
X+2448600Y-443900D01*
X+2448600Y-416000D01*
X+2457900Y-406700D01*
X+2467200Y-406700D01*
X+2476500Y-416000D01*
X+2476500Y-443900D01*
X+2485800Y-453200D01*
X+2504400Y-453200D01*
X+2504400Y-406700D01*
X+2476500Y-369500D02*
X+2467200Y-378800D01*
X+2457900Y-378800D01*
X+2448600Y-369500D01*
X+2448600Y-341600D01*
X+2457900Y-332300D01*
X+2467200Y-332300D01*
X+2476500Y-341600D01*
X+2476500Y-369500D01*
X+2485800Y-378800D01*
X+2495100Y-378800D01*
X+2504400Y-369500D01*
X+2504400Y-341600D01*
X+2495100Y-332300D01*
X+2485800Y-332300D01*
X+2476500Y-341600D01*
D101*
X+3163000Y-692500D02*
X+3163000Y-232500D01*
X+2933000Y-232500D01*
X+2933000Y-692500D01*
X+3163000Y-692500D01*
X+2998000Y-462500D02*
X+3098000Y-462500D01*
X+3048000Y-412500D02*
X+3048000Y-512500D01*
D115*
X+3075900Y-611300D02*
X+3020100Y-611300D01*
X+3020100Y-564800D01*
X+3029400Y-555500D01*
X+3038700Y-555500D01*
X+3048000Y-564800D01*
X+3048000Y-611300D01*
X+3048000Y-564800D02*
X+3057300Y-555500D01*
X+3075900Y-555500D01*
X+3020100Y-536900D02*
X+3048000Y-536900D01*
X+3075900Y-509000D01*
X+3048000Y-481100D01*
X+3020100Y-481100D01*
X+3029400Y-453200D02*
X+3020100Y-443900D01*
X+3020100Y-416000D01*
X+3029400Y-406700D01*
X+3038700Y-406700D01*
X+3048000Y-416000D01*
X+3048000Y-443900D01*
X+3057300Y-453200D01*
X+3075900Y-453200D01*
X+3075900Y-406700D01*
X+3020100Y-378800D02*
X+3020100Y-332300D01*
X+3029400Y-332300D01*
X+3075900Y-378800D01*
D101*
X+2909000Y-702500D02*
X+2909000Y-232500D01*
X+2679000Y-232500D01*
X+2679000Y-702500D01*
X+2909000Y-702500D01*
X+2744000Y-467500D02*
X+2844000Y-467500D01*
X+2794000Y-417500D02*
X+2794000Y-517500D01*
D116*
X+2813000Y-562500D02*
X+2822500Y-572000D01*
X+2822500Y-600500D01*
X+2803500Y-619500D01*
X+2784500Y-619500D01*
X+2765500Y-600500D01*
X+2765500Y-572000D01*
X+2775000Y-562500D01*
X+2765500Y-543500D02*
X+2794000Y-543500D01*
X+2822500Y-515000D01*
X+2794000Y-486500D01*
X+2765500Y-486500D01*
X+2775000Y-458000D02*
X+2765500Y-448500D01*
X+2765500Y-420000D01*
X+2775000Y-410500D01*
X+2784500Y-410500D01*
X+2794000Y-420000D01*
X+2794000Y-448500D01*
X+2803500Y-458000D01*
X+2822500Y-458000D01*
X+2822500Y-410500D01*
X+2775000Y-334500D02*
X+2765500Y-344000D01*
X+2765500Y-372500D01*
X+2775000Y-382000D01*
X+2813000Y-382000D01*
X+2822500Y-372500D01*
X+2822500Y-344000D01*
X+2813000Y-334500D01*
X+2803500Y-334500D01*
X+2794000Y-344000D01*
X+2794000Y-382000D01*
D101*
X+2282000Y-940500D02*
X+2752000Y-940500D01*
X+2752000Y-710500D01*
X+2282000Y-710500D01*
X+2282000Y-940500D01*
X+2517000Y-775500D02*
X+2517000Y-875500D01*
X+2567000Y-825500D02*
X+2467000Y-825500D01*
D116*
X+2422000Y-844500D02*
X+2412500Y-854000D01*
X+2384000Y-854000D01*
X+2365000Y-835000D01*
X+2365000Y-816000D01*
X+2384000Y-797000D01*
X+2412500Y-797000D01*
X+2422000Y-806500D01*
X+2441000Y-797000D02*
X+2441000Y-825500D01*
X+2469500Y-854000D01*
X+2498000Y-825500D01*
X+2498000Y-797000D01*
X+2526500Y-806500D02*
X+2536000Y-797000D01*
X+2564500Y-797000D01*
X+2574000Y-806500D01*
X+2574000Y-816000D01*
X+2564500Y-825500D01*
X+2536000Y-825500D01*
X+2526500Y-835000D01*
X+2526500Y-854000D01*
X+2574000Y-854000D01*
X+2650000Y-835000D02*
X+2593000Y-835000D01*
X+2631000Y-797000D01*
X+2631000Y-854000D01*
D101*
X+2645500Y-2274000D02*
X+3105500Y-2274000D01*
X+3105500Y-2044000D01*
X+2645500Y-2044000D01*
X+2645500Y-2274000D01*
X+2875500Y-2109000D02*
X+2875500Y-2209000D01*
X+2925500Y-2159000D02*
X+2825500Y-2159000D01*
D115*
X+2726700Y-2186900D02*
X+2726700Y-2131100D01*
X+2773200Y-2131100D01*
X+2782500Y-2140400D01*
X+2782500Y-2149700D01*
X+2773200Y-2159000D01*
X+2726700Y-2159000D01*
X+2773200Y-2159000D02*
X+2782500Y-2168300D01*
X+2782500Y-2186900D01*
X+2801100Y-2131100D02*
X+2801100Y-2159000D01*
X+2829000Y-2186900D01*
X+2856900Y-2159000D01*
X+2856900Y-2131100D01*
X+2884800Y-2140400D02*
X+2894100Y-2131100D01*
X+2922000Y-2131100D01*
X+2931300Y-2140400D01*
X+2931300Y-2149700D01*
X+2922000Y-2159000D01*
X+2894100Y-2159000D01*
X+2884800Y-2168300D01*
X+2884800Y-2186900D01*
X+2931300Y-2186900D01*
X+3005700Y-2131100D02*
X+2959200Y-2131100D01*
X+2959200Y-2149700D01*
X+2996400Y-2149700D01*
X+3005700Y-2159000D01*
X+3005700Y-2177600D01*
X+2996400Y-2186900D01*
X+2968500Y-2186900D01*
X+2959200Y-2177600D01*
D101*
X+2645500Y-1766000D02*
X+3105500Y-1766000D01*
X+3105500Y-1536000D01*
X+2645500Y-1536000D01*
X+2645500Y-1766000D01*
X+2875500Y-1601000D02*
X+2875500Y-1701000D01*
X+2925500Y-1651000D02*
X+2825500Y-1651000D01*
D115*
X+2726700Y-1678900D02*
X+2726700Y-1623100D01*
X+2773200Y-1623100D01*
X+2782500Y-1632400D01*
X+2782500Y-1641700D01*
X+2773200Y-1651000D01*
X+2726700Y-1651000D01*
X+2773200Y-1651000D02*
X+2782500Y-1660300D01*
X+2782500Y-1678900D01*
X+2801100Y-1623100D02*
X+2801100Y-1651000D01*
X+2829000Y-1678900D01*
X+2856900Y-1651000D01*
X+2856900Y-1623100D01*
X+2884800Y-1632400D02*
X+2894100Y-1623100D01*
X+2922000Y-1623100D01*
X+2931300Y-1632400D01*
X+2931300Y-1641700D01*
X+2922000Y-1651000D01*
X+2894100Y-1651000D01*
X+2884800Y-1660300D01*
X+2884800Y-1678900D01*
X+2931300Y-1678900D01*
X+3005700Y-1632400D02*
X+2996400Y-1623100D01*
X+2968500Y-1623100D01*
X+2959200Y-1632400D01*
X+2959200Y-1669600D01*
X+2968500Y-1678900D01*
X+2996400Y-1678900D01*
X+3005700Y-1669600D01*
X+3005700Y-1660300D01*
X+2996400Y-1651000D01*
X+2959200Y-1651000D01*
D101*
X+2165000Y-2274000D02*
X+2625000Y-2274000D01*
X+2625000Y-2044000D01*
X+2165000Y-2044000D01*
X+2165000Y-2274000D01*
X+2395000Y-2109000D02*
X+2395000Y-2209000D01*
X+2445000Y-2159000D02*
X+2345000Y-2159000D01*
D115*
X+2246200Y-2186900D02*
X+2246200Y-2131100D01*
X+2292700Y-2131100D01*
X+2302000Y-2140400D01*
X+2302000Y-2149700D01*
X+2292700Y-2159000D01*
X+2246200Y-2159000D01*
X+2292700Y-2159000D02*
X+2302000Y-2168300D01*
X+2302000Y-2186900D01*
X+2320600Y-2131100D02*
X+2320600Y-2159000D01*
X+2348500Y-2186900D01*
X+2376400Y-2159000D01*
X+2376400Y-2131100D01*
X+2404300Y-2140400D02*
X+2413600Y-2131100D01*
X+2441500Y-2131100D01*
X+2450800Y-2140400D01*
X+2450800Y-2149700D01*
X+2441500Y-2159000D01*
X+2413600Y-2159000D01*
X+2404300Y-2168300D01*
X+2404300Y-2186900D01*
X+2450800Y-2186900D01*
X+2525200Y-2149700D02*
X+2515900Y-2159000D01*
X+2488000Y-2159000D01*
X+2478700Y-2149700D01*
X+2478700Y-2140400D01*
X+2488000Y-2131100D01*
X+2515900Y-2131100D01*
X+2525200Y-2140400D01*
X+2525200Y-2177600D01*
X+2515900Y-2186900D01*
X+2488000Y-2186900D01*
D101*
X+2155000Y-2020000D02*
X+2625000Y-2020000D01*
X+2625000Y-1790000D01*
X+2155000Y-1790000D01*
X+2155000Y-2020000D01*
X+2390000Y-1855000D02*
X+2390000Y-1955000D01*
X+2440000Y-1905000D02*
X+2340000Y-1905000D01*
D116*
X+2295000Y-1924000D02*
X+2285500Y-1933500D01*
X+2257000Y-1933500D01*
X+2238000Y-1914500D01*
X+2238000Y-1895500D01*
X+2257000Y-1876500D01*
X+2285500Y-1876500D01*
X+2295000Y-1886000D01*
X+2314000Y-1876500D02*
X+2314000Y-1905000D01*
X+2342500Y-1933500D01*
X+2371000Y-1905000D01*
X+2371000Y-1876500D01*
X+2399500Y-1886000D02*
X+2409000Y-1876500D01*
X+2437500Y-1876500D01*
X+2447000Y-1886000D01*
X+2447000Y-1895500D01*
X+2437500Y-1905000D01*
X+2409000Y-1905000D01*
X+2399500Y-1914500D01*
X+2399500Y-1933500D01*
X+2447000Y-1933500D01*
X+2475500Y-1886000D02*
X+2485000Y-1876500D01*
X+2513500Y-1876500D01*
X+2523000Y-1886000D01*
X+2523000Y-1895500D01*
X+2513500Y-1905000D01*
X+2523000Y-1914500D01*
X+2523000Y-1924000D01*
X+2513500Y-1933500D01*
X+2485000Y-1933500D01*
X+2475500Y-1924000D01*
X+2494500Y-1905000D02*
X+2513500Y-1905000D01*
D101*
X+2645500Y-2020000D02*
X+3115500Y-2020000D01*
X+3115500Y-1790000D01*
X+2645500Y-1790000D01*
X+2645500Y-2020000D01*
X+2880500Y-1855000D02*
X+2880500Y-1955000D01*
X+2930500Y-1905000D02*
X+2830500Y-1905000D01*
D116*
X+2785500Y-1924000D02*
X+2776000Y-1933500D01*
X+2747500Y-1933500D01*
X+2728500Y-1914500D01*
X+2728500Y-1895500D01*
X+2747500Y-1876500D01*
X+2776000Y-1876500D01*
X+2785500Y-1886000D01*
X+2804500Y-1876500D02*
X+2804500Y-1905000D01*
X+2833000Y-1933500D01*
X+2861500Y-1905000D01*
X+2861500Y-1876500D01*
X+2890000Y-1886000D02*
X+2899500Y-1876500D01*
X+2928000Y-1876500D01*
X+2937500Y-1886000D01*
X+2937500Y-1895500D01*
X+2928000Y-1905000D01*
X+2899500Y-1905000D01*
X+2890000Y-1914500D01*
X+2890000Y-1933500D01*
X+2937500Y-1933500D01*
X+3013500Y-1876500D02*
X+2966000Y-1876500D01*
X+2966000Y-1895500D01*
X+3004000Y-1895500D01*
X+3013500Y-1905000D01*
X+3013500Y-1924000D01*
X+3004000Y-1933500D01*
X+2975500Y-1933500D01*
X+2966000Y-1924000D01*
D101*
X+2155000Y-1766000D02*
X+2625000Y-1766000D01*
X+2625000Y-1536000D01*
X+2155000Y-1536000D01*
X+2155000Y-1766000D01*
X+2390000Y-1601000D02*
X+2390000Y-1701000D01*
X+2440000Y-1651000D02*
X+2340000Y-1651000D01*
D116*
X+2295000Y-1670000D02*
X+2285500Y-1679500D01*
X+2257000Y-1679500D01*
X+2238000Y-1660500D01*
X+2238000Y-1641500D01*
X+2257000Y-1622500D01*
X+2285500Y-1622500D01*
X+2295000Y-1632000D01*
X+2314000Y-1622500D02*
X+2314000Y-1651000D01*
X+2342500Y-1679500D01*
X+2371000Y-1651000D01*
X+2371000Y-1622500D01*
X+2399500Y-1632000D02*
X+2409000Y-1622500D01*
X+2437500Y-1622500D01*
X+2447000Y-1632000D01*
X+2447000Y-1641500D01*
X+2437500Y-1651000D01*
X+2409000Y-1651000D01*
X+2399500Y-1660500D01*
X+2399500Y-1679500D01*
X+2447000Y-1679500D01*
X+2475500Y-1622500D02*
X+2523000Y-1622500D01*
X+2523000Y-1632000D01*
X+2475500Y-1679500D01*
D41*
X+5133340Y+736600D02*
X+5788660Y+736600D01*
X+5788660Y+1485900D01*
X+5133340Y+1485900D01*
X+5133340Y+736600D01*
D117*
X+5490972Y+961390D02*
X+5505958Y+946404D01*
X+5505958Y+901446D01*
X+5475986Y+871474D01*
X+5446014Y+871474D01*
X+5416042Y+901446D01*
X+5416042Y+946404D01*
X+5431028Y+961390D01*
X+5416042Y+991362D02*
X+5461000Y+991362D01*
X+5505958Y+1036320D01*
X+5461000Y+1081278D01*
X+5416042Y+1081278D01*
X+5475986Y+1201166D02*
X+5475986Y+1111250D01*
X+5416042Y+1171194D01*
X+5505958Y+1171194D01*
X+5431028Y+1246124D02*
X+5416042Y+1261110D01*
X+5416042Y+1306068D01*
X+5431028Y+1321054D01*
X+5446014Y+1321054D01*
X+5461000Y+1306068D01*
X+5475986Y+1321054D01*
X+5490972Y+1321054D01*
X+5505958Y+1306068D01*
X+5505958Y+1261110D01*
X+5490972Y+1246124D01*
X+5461000Y+1276096D02*
X+5461000Y+1306068D01*
D101*
X+4977500Y+817000D02*
X+4977500Y+1527000D01*
X+4547500Y+1527000D01*
X+4547500Y+817000D01*
X+4977500Y+817000D01*
X+4712500Y+1172000D02*
X+4812500Y+1172000D01*
X+4762500Y+1222000D02*
X+4762500Y+1122000D01*
D106*
X+4816125Y+957500D02*
X+4708875Y+957500D01*
X+4708875Y+1029000D01*
X+4744625Y+1064750D01*
X+4780375Y+1064750D01*
X+4816125Y+1029000D01*
X+4816125Y+957500D01*
X+4708875Y+1100500D02*
X+4762500Y+1100500D01*
X+4816125Y+1154125D01*
X+4762500Y+1207750D01*
X+4708875Y+1207750D01*
X+4708875Y+1261375D02*
X+4708875Y+1350750D01*
X+4726750Y+1350750D01*
X+4816125Y+1261375D01*
D41*
X+3607920Y-2000250D02*
X+3758080Y-2000250D01*
X+3758080Y-1701800D01*
X+3607920Y-1701800D01*
X+3607920Y-2000250D01*
D113*
X+3705384Y-1940558D02*
X+3660617Y-1940558D01*
X+3660617Y-1910714D01*
X+3675539Y-1895792D01*
X+3690462Y-1895792D01*
X+3705384Y-1910714D01*
X+3705384Y-1940558D01*
X+3660617Y-1880869D02*
X+3683000Y-1880869D01*
X+3705384Y-1858486D01*
X+3683000Y-1836103D01*
X+3660617Y-1836103D01*
X+3683000Y-1806258D02*
X+3675539Y-1813719D01*
X+3668078Y-1813719D01*
X+3660617Y-1806258D01*
X+3660617Y-1783875D01*
X+3668078Y-1776414D01*
X+3675539Y-1776414D01*
X+3683000Y-1783875D01*
X+3683000Y-1806258D01*
X+3690462Y-1813719D01*
X+3697923Y-1813719D01*
X+3705384Y-1806258D01*
X+3705384Y-1783875D01*
X+3697923Y-1776414D01*
X+3690462Y-1776414D01*
X+3683000Y-1783875D01*
D41*
X+3799840Y-3693160D02*
X+4074160Y-3693160D01*
X+4074160Y-3418840D01*
X+3799840Y-3418840D01*
X+3799840Y-3693160D01*
D104*
X+3854704Y-3539541D02*
X+3876649Y-3539541D01*
X+3865677Y-3539541D02*
X+3865677Y-3572460D01*
X+3854704Y-3572460D02*
X+3876649Y-3572460D01*
X+3893109Y-3572460D02*
X+3893109Y-3539541D01*
X+3926027Y-3539541D01*
X+3893109Y-3556000D02*
X+3915054Y-3556000D01*
X+3937000Y-3572460D02*
X+3937000Y-3539541D01*
X+3964431Y-3539541D01*
X+3969918Y-3545028D01*
X+3969918Y-3550514D01*
X+3964431Y-3556000D01*
X+3969918Y-3561487D01*
X+3969918Y-3566973D01*
X+3964431Y-3572460D01*
X+3937000Y-3572460D01*
X+3937000Y-3556000D02*
X+3964431Y-3556000D01*
X+4013809Y-3561487D02*
X+3980891Y-3561487D01*
X+4002836Y-3539541D01*
X+4002836Y-3572460D01*
D41*
X+6085840Y-3693160D02*
X+6360160Y-3693160D01*
X+6360160Y-3418840D01*
X+6085840Y-3418840D01*
X+6085840Y-3693160D01*
D104*
X+6140704Y-3539541D02*
X+6162649Y-3539541D01*
X+6151677Y-3539541D02*
X+6151677Y-3572460D01*
X+6140704Y-3572460D02*
X+6162649Y-3572460D01*
X+6179109Y-3572460D02*
X+6179109Y-3539541D01*
X+6212027Y-3539541D01*
X+6179109Y-3556000D02*
X+6201054Y-3556000D01*
X+6223000Y-3572460D02*
X+6223000Y-3539541D01*
X+6250431Y-3539541D01*
X+6255918Y-3545028D01*
X+6255918Y-3550514D01*
X+6250431Y-3556000D01*
X+6255918Y-3561487D01*
X+6255918Y-3566973D01*
X+6250431Y-3572460D01*
X+6223000Y-3572460D01*
X+6223000Y-3556000D02*
X+6250431Y-3556000D01*
X+6299809Y-3539541D02*
X+6272377Y-3539541D01*
X+6272377Y-3550514D01*
X+6294322Y-3550514D01*
X+6299809Y-3556000D01*
X+6299809Y-3566973D01*
X+6294322Y-3572460D01*
X+6277863Y-3572460D01*
X+6272377Y-3566973D01*
D41*
X+3799840Y-3185160D02*
X+4074160Y-3185160D01*
X+4074160Y-2910840D01*
X+3799840Y-2910840D01*
X+3799840Y-3185160D01*
D104*
X+3854704Y-3031541D02*
X+3876649Y-3031541D01*
X+3865677Y-3031541D02*
X+3865677Y-3064460D01*
X+3854704Y-3064460D02*
X+3876649Y-3064460D01*
X+3893109Y-3064460D02*
X+3893109Y-3031541D01*
X+3926027Y-3064460D01*
X+3926027Y-3031541D01*
X+3937000Y-3064460D02*
X+3937000Y-3031541D01*
X+3969918Y-3031541D02*
X+3969918Y-3064460D01*
X+3937000Y-3048000D02*
X+3969918Y-3048000D01*
X+4013809Y-3053487D02*
X+3980891Y-3053487D01*
X+4002836Y-3031541D01*
X+4002836Y-3064460D01*
D41*
X+6085840Y-3185160D02*
X+6360160Y-3185160D01*
X+6360160Y-2910840D01*
X+6085840Y-2910840D01*
X+6085840Y-3185160D01*
D104*
X+6140704Y-3031541D02*
X+6162649Y-3031541D01*
X+6151677Y-3031541D02*
X+6151677Y-3064460D01*
X+6140704Y-3064460D02*
X+6162649Y-3064460D01*
X+6179109Y-3064460D02*
X+6179109Y-3031541D01*
X+6212027Y-3064460D01*
X+6212027Y-3031541D01*
X+6223000Y-3064460D02*
X+6223000Y-3031541D01*
X+6255918Y-3031541D02*
X+6255918Y-3064460D01*
X+6223000Y-3048000D02*
X+6255918Y-3048000D01*
X+6299809Y-3031541D02*
X+6272377Y-3031541D01*
X+6272377Y-3042514D01*
X+6294322Y-3042514D01*
X+6299809Y-3048000D01*
X+6299809Y-3058973D01*
X+6294322Y-3064460D01*
X+6277863Y-3064460D01*
X+6272377Y-3058973D01*
D101*
X+5165000Y+480500D02*
X+4395000Y+480500D01*
X+4395000Y-99500D01*
X+5165000Y-99500D01*
X+5165000Y+480500D01*
X+4780000Y+140500D02*
X+4780000Y+240500D01*
X+4730000Y+190500D02*
X+4830000Y+190500D01*
D102*
X+4547500Y+248625D02*
X+4547500Y+132375D01*
X+4663750Y+132375D01*
X+4702500Y+248625D02*
X+4702500Y+190500D01*
X+4760625Y+132375D01*
X+4818750Y+190500D01*
X+4818750Y+248625D01*
X+4973750Y+171125D02*
X+4857500Y+171125D01*
X+4935000Y+248625D01*
X+4935000Y+132375D01*
D41*
X+3799840Y-3439160D02*
X+4074160Y-3439160D01*
X+4074160Y-3164840D01*
X+3799840Y-3164840D01*
X+3799840Y-3439160D01*
D104*
X+3849218Y-3318460D02*
X+3849218Y-3285541D01*
X+3876649Y-3285541D01*
X+3882136Y-3291028D01*
X+3882136Y-3296514D01*
X+3876649Y-3302000D01*
X+3849218Y-3302000D01*
X+3893109Y-3285541D02*
X+3893109Y-3318460D01*
X+3909568Y-3302000D01*
X+3926027Y-3318460D01*
X+3926027Y-3285541D01*
X+3937000Y-3318460D02*
X+3937000Y-3285541D01*
X+3953459Y-3302000D01*
X+3969918Y-3285541D01*
X+3969918Y-3318460D01*
X+4013809Y-3307487D02*
X+3980891Y-3307487D01*
X+4002836Y-3285541D01*
X+4002836Y-3318460D01*
D41*
X+6085840Y-3439160D02*
X+6360160Y-3439160D01*
X+6360160Y-3164840D01*
X+6085840Y-3164840D01*
X+6085840Y-3439160D01*
D104*
X+6135218Y-3318460D02*
X+6135218Y-3285541D01*
X+6162649Y-3285541D01*
X+6168136Y-3291028D01*
X+6168136Y-3296514D01*
X+6162649Y-3302000D01*
X+6135218Y-3302000D01*
X+6179109Y-3285541D02*
X+6179109Y-3318460D01*
X+6195568Y-3302000D01*
X+6212027Y-3318460D01*
X+6212027Y-3285541D01*
X+6223000Y-3318460D02*
X+6223000Y-3285541D01*
X+6239459Y-3302000D01*
X+6255918Y-3285541D01*
X+6255918Y-3318460D01*
X+6299809Y-3285541D02*
X+6272377Y-3285541D01*
X+6272377Y-3296514D01*
X+6294322Y-3296514D01*
X+6299809Y-3302000D01*
X+6299809Y-3312973D01*
X+6294322Y-3318460D01*
X+6277863Y-3318460D01*
X+6272377Y-3312973D01*
D41*
X+3370580Y-1638300D02*
X+3680460Y-1638300D01*
X+3680460Y-1346200D01*
X+3370580Y-1346200D01*
X+3370580Y-1638300D01*
D114*
X+3432556Y-1484503D02*
X+3448050Y-1469009D01*
X+3463544Y-1469009D01*
X+3479038Y-1484503D01*
X+3479038Y-1499997D01*
X+3463544Y-1515491D01*
X+3448050Y-1515491D01*
X+3432556Y-1499997D01*
X+3432556Y-1484503D01*
X+3463544Y-1499997D02*
X+3479038Y-1515491D01*
X+3494532Y-1469009D02*
X+3494532Y-1492250D01*
X+3517773Y-1515491D01*
X+3541014Y-1492250D01*
X+3541014Y-1469009D01*
X+3564255Y-1469009D02*
X+3602990Y-1469009D01*
X+3602990Y-1476756D01*
X+3564255Y-1515491D01*
D41*
X+3587750Y+7620D02*
X+4286250Y+7620D01*
X+4286250Y+1174750D01*
X+3587750Y+1174750D01*
X+3587750Y+7620D01*
D109*
X+3907822Y+241048D02*
X+3849466Y+299404D01*
X+3849466Y+357760D01*
X+3907822Y+416116D01*
X+3966179Y+416116D01*
X+4024535Y+357760D01*
X+4024535Y+299404D01*
X+3966179Y+241048D01*
X+3907822Y+241048D01*
X+3966179Y+357760D02*
X+4024535Y+416116D01*
X+3849466Y+474473D02*
X+3937000Y+474473D01*
X+4024535Y+562007D01*
X+3937000Y+649541D01*
X+3849466Y+649541D01*
X+3937000Y+766254D02*
X+3907822Y+737076D01*
X+3878644Y+737076D01*
X+3849466Y+766254D01*
X+3849466Y+853788D01*
X+3878644Y+882966D01*
X+3907822Y+882966D01*
X+3937000Y+853788D01*
X+3937000Y+766254D01*
X+3966179Y+737076D01*
X+3995357Y+737076D01*
X+4024535Y+766254D01*
X+4024535Y+853788D01*
X+3995357Y+882966D01*
X+3966179Y+882966D01*
X+3937000Y+853788D01*
D41*
X+5720080Y-1638300D02*
X+6029960Y-1638300D01*
X+6029960Y-1346200D01*
X+5720080Y-1346200D01*
X+5720080Y-1638300D01*
D114*
X+5782056Y-1484503D02*
X+5797550Y-1469009D01*
X+5813044Y-1469009D01*
X+5828538Y-1484503D01*
X+5828538Y-1499997D01*
X+5813044Y-1515491D01*
X+5797550Y-1515491D01*
X+5782056Y-1499997D01*
X+5782056Y-1484503D01*
X+5813044Y-1499997D02*
X+5828538Y-1515491D01*
X+5844032Y-1469009D02*
X+5844032Y-1492250D01*
X+5867273Y-1515491D01*
X+5890514Y-1492250D01*
X+5890514Y-1469009D01*
X+5952490Y-1484503D02*
X+5944743Y-1492250D01*
X+5921502Y-1492250D01*
X+5913755Y-1484503D01*
X+5913755Y-1476756D01*
X+5921502Y-1469009D01*
X+5944743Y-1469009D01*
X+5952490Y-1476756D01*
X+5952490Y-1507744D01*
X+5944743Y-1515491D01*
X+5921502Y-1515491D01*
D41*
X+5911850Y+0D02*
X+6610350Y+0D01*
X+6610350Y+1167130D01*
X+5911850Y+1167130D01*
X+5911850Y+0D01*
D120*
X+6237758Y+210085D02*
X+6191073Y+256770D01*
X+6191073Y+303455D01*
X+6237758Y+350140D01*
X+6284443Y+350140D01*
X+6331128Y+303455D01*
X+6331128Y+256770D01*
X+6284443Y+210085D01*
X+6237758Y+210085D01*
X+6284443Y+303455D02*
X+6331128Y+350140D01*
X+6191073Y+396825D02*
X+6261100Y+396825D01*
X+6331128Y+466852D01*
X+6261100Y+536880D01*
X+6191073Y+536880D01*
X+6237758Y+630250D02*
X+6191073Y+676935D01*
X+6331128Y+676935D01*
X+6307786Y+770305D02*
X+6214415Y+770305D01*
X+6191073Y+793647D01*
X+6191073Y+887017D01*
X+6214415Y+910360D01*
X+6307786Y+910360D01*
X+6331128Y+887017D01*
X+6331128Y+793647D01*
X+6307786Y+770305D01*
X+6331128Y+770305D02*
X+6191073Y+910360D01*
D41*
X+5069840Y+1704340D02*
X+5344160Y+1704340D01*
X+5344160Y+1978660D01*
X+5069840Y+1978660D01*
X+5069840Y+1704340D01*
D104*
X+5190541Y+1753718D02*
X+5207000Y+1753718D01*
X+5223460Y+1770177D01*
X+5207000Y+1786636D01*
X+5190541Y+1786636D01*
X+5212487Y+1830527D02*
X+5212487Y+1797609D01*
X+5190541Y+1819554D01*
X+5223460Y+1819554D01*
X+5223460Y+1841500D02*
X+5190541Y+1841500D01*
X+5190541Y+1874418D02*
X+5223460Y+1874418D01*
X+5207000Y+1841500D02*
X+5207000Y+1874418D01*
X+5217973Y+1885391D02*
X+5223460Y+1890877D01*
X+5223460Y+1912822D01*
X+5217973Y+1918309D01*
X+5212487Y+1918309D01*
X+5207000Y+1912822D01*
X+5207000Y+1890877D01*
X+5201514Y+1885391D01*
X+5196028Y+1885391D01*
X+5190541Y+1890877D01*
X+5190541Y+1912822D01*
X+5196028Y+1918309D01*
D41*
X+7419340Y+1704340D02*
X+7693660Y+1704340D01*
X+7693660Y+1978660D01*
X+7419340Y+1978660D01*
X+7419340Y+1704340D01*
D104*
X+7540041Y+1753718D02*
X+7556500Y+1753718D01*
X+7572960Y+1770177D01*
X+7556500Y+1786636D01*
X+7540041Y+1786636D01*
X+7540041Y+1830527D02*
X+7540041Y+1803095D01*
X+7551014Y+1803095D01*
X+7551014Y+1825040D01*
X+7556500Y+1830527D01*
X+7567473Y+1830527D01*
X+7572960Y+1825040D01*
X+7572960Y+1808581D01*
X+7567473Y+1803095D01*
X+7572960Y+1841500D02*
X+7540041Y+1841500D01*
X+7540041Y+1874418D02*
X+7572960Y+1874418D01*
X+7556500Y+1841500D02*
X+7556500Y+1874418D01*
X+7567473Y+1885391D02*
X+7572960Y+1890877D01*
X+7572960Y+1912822D01*
X+7567473Y+1918309D01*
X+7561987Y+1918309D01*
X+7556500Y+1912822D01*
X+7556500Y+1890877D01*
X+7551014Y+1885391D01*
X+7545528Y+1885391D01*
X+7540041Y+1890877D01*
X+7540041Y+1912822D01*
X+7545528Y+1918309D01*
D101*
X+5202500Y+700000D02*
X+5202500Y-90000D01*
X+5592500Y-90000D01*
X+5592500Y+700000D01*
X+5202500Y+700000D01*
X+5447500Y+305000D02*
X+5347500Y+305000D01*
X+5397500Y+255000D02*
X+5397500Y+355000D01*
D118*
X+5445200Y+50600D02*
X+5349800Y+50600D01*
X+5349800Y+130100D01*
X+5365700Y+146000D01*
X+5381600Y+146000D01*
X+5397500Y+130100D01*
X+5397500Y+50600D01*
X+5397500Y+130100D02*
X+5413400Y+146000D01*
X+5445200Y+146000D01*
X+5349800Y+177800D02*
X+5397500Y+177800D01*
X+5445200Y+225500D01*
X+5397500Y+273200D01*
X+5349800Y+273200D01*
X+5413400Y+400400D02*
X+5413400Y+305000D01*
X+5349800Y+368600D01*
X+5445200Y+368600D01*
X+5397500Y+464000D02*
X+5381600Y+448100D01*
X+5365700Y+448100D01*
X+5349800Y+464000D01*
X+5349800Y+511700D01*
X+5365700Y+527600D01*
X+5381600Y+527600D01*
X+5397500Y+511700D01*
X+5397500Y+464000D01*
X+5413400Y+448100D01*
X+5429300Y+448100D01*
X+5445200Y+464000D01*
X+5445200Y+511700D01*
X+5429300Y+527600D01*
X+5413400Y+527600D01*
X+5397500Y+511700D01*
D101*
X+7615500Y+725000D02*
X+7615500Y-65000D01*
X+8005500Y-65000D01*
X+8005500Y+725000D01*
X+7615500Y+725000D01*
X+7860500Y+330000D02*
X+7760500Y+330000D01*
X+7810500Y+280000D02*
X+7810500Y+380000D01*
D118*
X+7858200Y+75600D02*
X+7762800Y+75600D01*
X+7762800Y+155100D01*
X+7778700Y+171000D01*
X+7794600Y+171000D01*
X+7810500Y+155100D01*
X+7810500Y+75600D01*
X+7810500Y+155100D02*
X+7826400Y+171000D01*
X+7858200Y+171000D01*
X+7762800Y+202800D02*
X+7810500Y+202800D01*
X+7858200Y+250500D01*
X+7810500Y+298200D01*
X+7762800Y+298200D01*
X+7778700Y+425400D02*
X+7762800Y+409500D01*
X+7762800Y+361800D01*
X+7778700Y+345900D01*
X+7842300Y+345900D01*
X+7858200Y+361800D01*
X+7858200Y+409500D01*
X+7842300Y+425400D01*
X+7826400Y+425400D01*
X+7810500Y+409500D01*
X+7810500Y+345900D01*
X+7842300Y+457200D02*
X+7778700Y+457200D01*
X+7762800Y+473100D01*
X+7762800Y+536700D01*
X+7778700Y+552600D01*
X+7842300Y+552600D01*
X+7858200Y+536700D01*
X+7858200Y+473100D01*
X+7842300Y+457200D01*
X+7858200Y+457200D02*
X+7762800Y+552600D01*
D41*
X+4711700Y-1440180D02*
X+5435600Y-1440180D01*
X+5435600Y-972820D01*
X+4711700Y-972820D01*
X+4711700Y-1440180D01*
D110*
X+4856480Y-1152207D02*
X+4856480Y-1242695D01*
X+4874577Y-1260792D01*
X+4946967Y-1260792D01*
X+4965065Y-1242695D01*
X+4965065Y-1152207D01*
X+5001260Y-1152207D02*
X+5001260Y-1206500D01*
X+5055552Y-1260792D01*
X+5109845Y-1206500D01*
X+5109845Y-1152207D01*
X+5164137Y-1152207D02*
X+5254625Y-1152207D01*
X+5254625Y-1170305D01*
X+5164137Y-1260792D01*
D41*
X+3830320Y-2209800D02*
X+4297680Y-2209800D01*
X+4297680Y-1485900D01*
X+3830320Y-1485900D01*
X+3830320Y-2209800D01*
D110*
X+4009707Y-2065020D02*
X+4100195Y-2065020D01*
X+4118292Y-2046923D01*
X+4118292Y-1974533D01*
X+4100195Y-1956435D01*
X+4009707Y-1956435D01*
X+4009707Y-1920240D02*
X+4064000Y-1920240D01*
X+4118292Y-1865948D01*
X+4064000Y-1811655D01*
X+4009707Y-1811655D01*
X+4064000Y-1739265D02*
X+4045902Y-1757363D01*
X+4027805Y-1757363D01*
X+4009707Y-1739265D01*
X+4009707Y-1684973D01*
X+4027805Y-1666875D01*
X+4045902Y-1666875D01*
X+4064000Y-1684973D01*
X+4064000Y-1739265D01*
X+4082097Y-1757363D01*
X+4100195Y-1757363D01*
X+4118292Y-1739265D01*
X+4118292Y-1684973D01*
X+4100195Y-1666875D01*
X+4082097Y-1666875D01*
X+4064000Y-1684973D01*
D41*
X+7124700Y-1440180D02*
X+7848600Y-1440180D01*
X+7848600Y-972820D01*
X+7124700Y-972820D01*
X+7124700Y-1440180D01*
D110*
X+7269480Y-1152207D02*
X+7269480Y-1242695D01*
X+7287577Y-1260792D01*
X+7359967Y-1260792D01*
X+7378065Y-1242695D01*
X+7378065Y-1152207D01*
X+7414260Y-1152207D02*
X+7414260Y-1206500D01*
X+7468552Y-1260792D01*
X+7522845Y-1206500D01*
X+7522845Y-1152207D01*
X+7667625Y-1188402D02*
X+7649527Y-1206500D01*
X+7595235Y-1206500D01*
X+7577137Y-1188402D01*
X+7577137Y-1170305D01*
X+7595235Y-1152207D01*
X+7649527Y-1152207D01*
X+7667625Y-1170305D01*
X+7667625Y-1242695D01*
X+7649527Y-1260792D01*
X+7595235Y-1260792D01*
D41*
X+6179820Y-2209800D02*
X+6647180Y-2209800D01*
X+6647180Y-1485900D01*
X+6179820Y-1485900D01*
X+6179820Y-2209800D01*
D121*
X+6370066Y-2079498D02*
X+6442456Y-2079498D01*
X+6456934Y-2065020D01*
X+6456934Y-2007108D01*
X+6442456Y-1992630D01*
X+6370066Y-1992630D01*
X+6370066Y-1963674D02*
X+6413500Y-1963674D01*
X+6456934Y-1920240D01*
X+6413500Y-1876806D01*
X+6370066Y-1876806D01*
X+6399022Y-1818894D02*
X+6370066Y-1789938D01*
X+6456934Y-1789938D01*
X+6442456Y-1732026D02*
X+6384544Y-1732026D01*
X+6370066Y-1717548D01*
X+6370066Y-1659636D01*
X+6384544Y-1645158D01*
X+6442456Y-1645158D01*
X+6456934Y-1659636D01*
X+6456934Y-1717548D01*
X+6442456Y-1732026D01*
X+6456934Y-1732026D02*
X+6370066Y-1645158D01*
D101*
X+3788500Y-2528000D02*
X+4258500Y-2528000D01*
X+4258500Y-2298000D01*
X+3788500Y-2298000D01*
X+3788500Y-2528000D01*
X+4023500Y-2363000D02*
X+4023500Y-2463000D01*
X+4073500Y-2413000D02*
X+3973500Y-2413000D01*
D116*
X+3928500Y-2432000D02*
X+3919000Y-2441500D01*
X+3890500Y-2441500D01*
X+3871500Y-2422500D01*
X+3871500Y-2403500D01*
X+3890500Y-2384500D01*
X+3919000Y-2384500D01*
X+3928500Y-2394000D01*
X+3947500Y-2384500D02*
X+3947500Y-2413000D01*
X+3976000Y-2441500D01*
X+4004500Y-2413000D01*
X+4004500Y-2384500D01*
X+4080500Y-2422500D02*
X+4023500Y-2422500D01*
X+4061500Y-2384500D01*
X+4061500Y-2441500D01*
X+4099500Y-2432000D02*
X+4099500Y-2394000D01*
X+4109000Y-2384500D01*
X+4147000Y-2384500D01*
X+4156500Y-2394000D01*
X+4156500Y-2432000D01*
X+4147000Y-2441500D01*
X+4109000Y-2441500D01*
X+4099500Y-2432000D01*
X+4099500Y-2441500D02*
X+4156500Y-2384500D01*
D101*
X+3788500Y-877000D02*
X+4258500Y-877000D01*
X+4258500Y-647000D01*
X+3788500Y-647000D01*
X+3788500Y-877000D01*
X+4023500Y-712000D02*
X+4023500Y-812000D01*
X+4073500Y-762000D02*
X+3973500Y-762000D01*
D116*
X+3928500Y-781000D02*
X+3919000Y-790500D01*
X+3890500Y-790500D01*
X+3871500Y-771500D01*
X+3871500Y-752500D01*
X+3890500Y-733500D01*
X+3919000Y-733500D01*
X+3928500Y-743000D01*
X+3947500Y-733500D02*
X+3947500Y-762000D01*
X+3976000Y-790500D01*
X+4004500Y-762000D01*
X+4004500Y-733500D01*
X+4080500Y-771500D02*
X+4023500Y-771500D01*
X+4061500Y-733500D01*
X+4061500Y-790500D01*
X+4118500Y-752500D02*
X+4137500Y-733500D01*
X+4137500Y-790500D01*
D41*
X+3657600Y-1407160D02*
X+4343400Y-1407160D01*
X+4343400Y-878840D01*
X+3657600Y-878840D01*
X+3657600Y-1407160D01*
D119*
X+3863340Y-1170432D02*
X+3849624Y-1184148D01*
X+3808476Y-1184148D01*
X+3781044Y-1156716D01*
X+3781044Y-1129284D01*
X+3808476Y-1101852D01*
X+3849624Y-1101852D01*
X+3863340Y-1115568D01*
X+3890772Y-1101852D02*
X+3890772Y-1143000D01*
X+3931920Y-1184148D01*
X+3973068Y-1143000D01*
X+3973068Y-1101852D01*
X+4082796Y-1156716D02*
X+4000500Y-1156716D01*
X+4055364Y-1101852D01*
X+4055364Y-1184148D01*
X+4192524Y-1156716D02*
X+4110228Y-1156716D01*
X+4165092Y-1101852D01*
X+4165092Y-1184148D01*
D101*
X+3504500Y-2201000D02*
X+3504500Y-2661000D01*
X+3734500Y-2661000D01*
X+3734500Y-2201000D01*
X+3504500Y-2201000D01*
X+3669500Y-2431000D02*
X+3569500Y-2431000D01*
X+3619500Y-2481000D02*
X+3619500Y-2381000D01*
D115*
X+3647400Y-2579800D02*
X+3591600Y-2579800D01*
X+3591600Y-2533300D01*
X+3600900Y-2524000D01*
X+3610200Y-2524000D01*
X+3619500Y-2533300D01*
X+3619500Y-2579800D01*
X+3619500Y-2533300D02*
X+3628800Y-2524000D01*
X+3647400Y-2524000D01*
X+3591600Y-2505400D02*
X+3619500Y-2505400D01*
X+3647400Y-2477500D01*
X+3619500Y-2449600D01*
X+3591600Y-2449600D01*
X+3628800Y-2375200D02*
X+3628800Y-2431000D01*
X+3591600Y-2393800D01*
X+3647400Y-2393800D01*
X+3628800Y-2300800D02*
X+3628800Y-2356600D01*
X+3591600Y-2319400D01*
X+3647400Y-2319400D01*
D101*
X+3568000Y-169000D02*
X+3568000Y-629000D01*
X+3798000Y-629000D01*
X+3798000Y-169000D01*
X+3568000Y-169000D01*
X+3733000Y-399000D02*
X+3633000Y-399000D01*
X+3683000Y-449000D02*
X+3683000Y-349000D01*
D115*
X+3710900Y-547800D02*
X+3655100Y-547800D01*
X+3655100Y-501300D01*
X+3664400Y-492000D01*
X+3673700Y-492000D01*
X+3683000Y-501300D01*
X+3683000Y-547800D01*
X+3683000Y-501300D02*
X+3692300Y-492000D01*
X+3710900Y-492000D01*
X+3655100Y-473400D02*
X+3683000Y-473400D01*
X+3710900Y-445500D01*
X+3683000Y-417600D01*
X+3655100Y-417600D01*
X+3692300Y-343200D02*
X+3692300Y-399000D01*
X+3655100Y-361800D01*
X+3710900Y-361800D01*
X+3655100Y-268800D02*
X+3655100Y-315300D01*
X+3673700Y-315300D01*
X+3673700Y-278100D01*
X+3683000Y-268800D01*
X+3701600Y-268800D01*
X+3710900Y-278100D01*
X+3710900Y-306000D01*
X+3701600Y-315300D01*
D101*
X+4248500Y-139000D02*
X+3788500Y-139000D01*
X+3788500Y-369000D01*
X+4248500Y-369000D01*
X+4248500Y-139000D01*
X+4018500Y-304000D02*
X+4018500Y-204000D01*
X+3968500Y-254000D02*
X+4068500Y-254000D01*
D115*
X+3869700Y-281900D02*
X+3869700Y-226100D01*
X+3916200Y-226100D01*
X+3925500Y-235400D01*
X+3925500Y-244700D01*
X+3916200Y-254000D01*
X+3869700Y-254000D01*
X+3916200Y-254000D02*
X+3925500Y-263300D01*
X+3925500Y-281900D01*
X+3944100Y-226100D02*
X+3944100Y-254000D01*
X+3972000Y-281900D01*
X+3999900Y-254000D01*
X+3999900Y-226100D01*
X+4074300Y-263300D02*
X+4018500Y-263300D01*
X+4055700Y-226100D01*
X+4055700Y-281900D01*
X+4148700Y-235400D02*
X+4139400Y-226100D01*
X+4111500Y-226100D01*
X+4102200Y-235400D01*
X+4102200Y-272600D01*
X+4111500Y-281900D01*
X+4139400Y-281900D01*
X+4148700Y-272600D01*
X+4148700Y-263300D01*
X+4139400Y-254000D01*
X+4102200Y-254000D01*
D101*
X+3788500Y-2782000D02*
X+4248500Y-2782000D01*
X+4248500Y-2552000D01*
X+3788500Y-2552000D01*
X+3788500Y-2782000D01*
X+4018500Y-2617000D02*
X+4018500Y-2717000D01*
X+4068500Y-2667000D02*
X+3968500Y-2667000D01*
D115*
X+3869700Y-2694900D02*
X+3869700Y-2639100D01*
X+3916200Y-2639100D01*
X+3925500Y-2648400D01*
X+3925500Y-2657700D01*
X+3916200Y-2667000D01*
X+3869700Y-2667000D01*
X+3916200Y-2667000D02*
X+3925500Y-2676300D01*
X+3925500Y-2694900D01*
X+3944100Y-2639100D02*
X+3944100Y-2667000D01*
X+3972000Y-2694900D01*
X+3999900Y-2667000D01*
X+3999900Y-2639100D01*
X+4074300Y-2676300D02*
X+4018500Y-2676300D01*
X+4055700Y-2639100D01*
X+4055700Y-2694900D01*
X+4102200Y-2639100D02*
X+4148700Y-2639100D01*
X+4148700Y-2648400D01*
X+4102200Y-2694900D01*
D101*
X+5385500Y-720000D02*
X+5385500Y-260000D01*
X+5155500Y-260000D01*
X+5155500Y-720000D01*
X+5385500Y-720000D01*
X+5220500Y-490000D02*
X+5320500Y-490000D01*
X+5270500Y-440000D02*
X+5270500Y-540000D01*
D115*
X+5298400Y-638800D02*
X+5242600Y-638800D01*
X+5242600Y-592300D01*
X+5251900Y-583000D01*
X+5261200Y-583000D01*
X+5270500Y-592300D01*
X+5270500Y-638800D01*
X+5270500Y-592300D02*
X+5279800Y-583000D01*
X+5298400Y-583000D01*
X+5242600Y-564400D02*
X+5270500Y-564400D01*
X+5298400Y-536500D01*
X+5270500Y-508600D01*
X+5242600Y-508600D01*
X+5251900Y-480700D02*
X+5242600Y-471400D01*
X+5242600Y-443500D01*
X+5251900Y-434200D01*
X+5261200Y-434200D01*
X+5270500Y-443500D01*
X+5279800Y-434200D01*
X+5289100Y-434200D01*
X+5298400Y-443500D01*
X+5298400Y-471400D01*
X+5289100Y-480700D01*
X+5270500Y-462100D02*
X+5270500Y-443500D01*
X+5261200Y-359800D02*
X+5270500Y-369100D01*
X+5270500Y-397000D01*
X+5261200Y-406300D01*
X+5251900Y-406300D01*
X+5242600Y-397000D01*
X+5242600Y-369100D01*
X+5251900Y-359800D01*
X+5289100Y-359800D01*
X+5298400Y-369100D01*
X+5298400Y-397000D01*
D101*
X+4877500Y-720000D02*
X+4877500Y-260000D01*
X+4647500Y-260000D01*
X+4647500Y-720000D01*
X+4877500Y-720000D01*
X+4712500Y-490000D02*
X+4812500Y-490000D01*
X+4762500Y-440000D02*
X+4762500Y-540000D01*
D115*
X+4790400Y-638800D02*
X+4734600Y-638800D01*
X+4734600Y-592300D01*
X+4743900Y-583000D01*
X+4753200Y-583000D01*
X+4762500Y-592300D01*
X+4762500Y-638800D01*
X+4762500Y-592300D02*
X+4771800Y-583000D01*
X+4790400Y-583000D01*
X+4734600Y-564400D02*
X+4762500Y-564400D01*
X+4790400Y-536500D01*
X+4762500Y-508600D01*
X+4734600Y-508600D01*
X+4771800Y-434200D02*
X+4771800Y-490000D01*
X+4734600Y-452800D01*
X+4790400Y-452800D01*
X+4781100Y-415600D02*
X+4743900Y-415600D01*
X+4734600Y-406300D01*
X+4734600Y-369100D01*
X+4743900Y-359800D01*
X+4781100Y-359800D01*
X+4790400Y-369100D01*
X+4790400Y-406300D01*
X+4781100Y-415600D01*
X+4790400Y-415600D02*
X+4734600Y-359800D01*
D101*
X+4423500Y-2274000D02*
X+4883500Y-2274000D01*
X+4883500Y-2044000D01*
X+4423500Y-2044000D01*
X+4423500Y-2274000D01*
X+4653500Y-2109000D02*
X+4653500Y-2209000D01*
X+4703500Y-2159000D02*
X+4603500Y-2159000D01*
D115*
X+4504700Y-2186900D02*
X+4504700Y-2131100D01*
X+4551200Y-2131100D01*
X+4560500Y-2140400D01*
X+4560500Y-2149700D01*
X+4551200Y-2159000D01*
X+4504700Y-2159000D01*
X+4551200Y-2159000D02*
X+4560500Y-2168300D01*
X+4560500Y-2186900D01*
X+4579100Y-2131100D02*
X+4579100Y-2159000D01*
X+4607000Y-2186900D01*
X+4634900Y-2159000D01*
X+4634900Y-2131100D01*
X+4709300Y-2168300D02*
X+4653500Y-2168300D01*
X+4690700Y-2131100D01*
X+4690700Y-2186900D01*
X+4746500Y-2149700D02*
X+4765100Y-2131100D01*
X+4765100Y-2186900D01*
D101*
X+4504500Y-940500D02*
X+4974500Y-940500D01*
X+4974500Y-710500D01*
X+4504500Y-710500D01*
X+4504500Y-940500D01*
X+4739500Y-775500D02*
X+4739500Y-875500D01*
X+4789500Y-825500D02*
X+4689500Y-825500D01*
D116*
X+4644500Y-844500D02*
X+4635000Y-854000D01*
X+4606500Y-854000D01*
X+4587500Y-835000D01*
X+4587500Y-816000D01*
X+4606500Y-797000D01*
X+4635000Y-797000D01*
X+4644500Y-806500D01*
X+4663500Y-797000D02*
X+4663500Y-825500D01*
X+4692000Y-854000D01*
X+4720500Y-825500D01*
X+4720500Y-797000D01*
X+4749000Y-806500D02*
X+4758500Y-797000D01*
X+4787000Y-797000D01*
X+4796500Y-806500D01*
X+4796500Y-816000D01*
X+4787000Y-825500D01*
X+4796500Y-835000D01*
X+4796500Y-844500D01*
X+4787000Y-854000D01*
X+4758500Y-854000D01*
X+4749000Y-844500D01*
X+4768000Y-825500D02*
X+4787000Y-825500D01*
X+4872500Y-797000D02*
X+4825000Y-797000D01*
X+4825000Y-816000D01*
X+4863000Y-816000D01*
X+4872500Y-825500D01*
X+4872500Y-844500D01*
X+4863000Y-854000D01*
X+4834500Y-854000D01*
X+4825000Y-844500D01*
D101*
X+4901500Y-250000D02*
X+4901500Y-720000D01*
X+5131500Y-720000D01*
X+5131500Y-250000D01*
X+4901500Y-250000D01*
X+5066500Y-485000D02*
X+4966500Y-485000D01*
X+5016500Y-535000D02*
X+5016500Y-435000D01*
D116*
X+5035500Y-580000D02*
X+5045000Y-589500D01*
X+5045000Y-618000D01*
X+5026000Y-637000D01*
X+5007000Y-637000D01*
X+4988000Y-618000D01*
X+4988000Y-589500D01*
X+4997500Y-580000D01*
X+4988000Y-561000D02*
X+5016500Y-561000D01*
X+5045000Y-532500D01*
X+5016500Y-504000D01*
X+4988000Y-504000D01*
X+4997500Y-475500D02*
X+4988000Y-466000D01*
X+4988000Y-437500D01*
X+4997500Y-428000D01*
X+5007000Y-428000D01*
X+5016500Y-437500D01*
X+5026000Y-428000D01*
X+5035500Y-428000D01*
X+5045000Y-437500D01*
X+5045000Y-466000D01*
X+5035500Y-475500D01*
X+5016500Y-456500D02*
X+5016500Y-437500D01*
X+4988000Y-399500D02*
X+4988000Y-352000D01*
X+4997500Y-352000D01*
X+5045000Y-399500D01*
D101*
X+4393500Y-250000D02*
X+4393500Y-720000D01*
X+4623500Y-720000D01*
X+4623500Y-250000D01*
X+4393500Y-250000D01*
X+4558500Y-485000D02*
X+4458500Y-485000D01*
X+4508500Y-535000D02*
X+4508500Y-435000D01*
D116*
X+4527500Y-580000D02*
X+4537000Y-589500D01*
X+4537000Y-618000D01*
X+4518000Y-637000D01*
X+4499000Y-637000D01*
X+4480000Y-618000D01*
X+4480000Y-589500D01*
X+4489500Y-580000D01*
X+4480000Y-561000D02*
X+4508500Y-561000D01*
X+4537000Y-532500D01*
X+4508500Y-504000D01*
X+4480000Y-504000D01*
X+4518000Y-428000D02*
X+4518000Y-485000D01*
X+4480000Y-447000D01*
X+4537000Y-447000D01*
X+4489500Y-399500D02*
X+4480000Y-390000D01*
X+4480000Y-361500D01*
X+4489500Y-352000D01*
X+4499000Y-352000D01*
X+4508500Y-361500D01*
X+4508500Y-390000D01*
X+4518000Y-399500D01*
X+4537000Y-399500D01*
X+4537000Y-352000D01*
D101*
X+4895500Y-2274000D02*
X+5355500Y-2274000D01*
X+5355500Y-2044000D01*
X+4895500Y-2044000D01*
X+4895500Y-2274000D01*
X+5125500Y-2109000D02*
X+5125500Y-2209000D01*
X+5175500Y-2159000D02*
X+5075500Y-2159000D01*
D115*
X+4976700Y-2186900D02*
X+4976700Y-2131100D01*
X+5023200Y-2131100D01*
X+5032500Y-2140400D01*
X+5032500Y-2149700D01*
X+5023200Y-2159000D01*
X+4976700Y-2159000D01*
X+5023200Y-2159000D02*
X+5032500Y-2168300D01*
X+5032500Y-2186900D01*
X+5051100Y-2131100D02*
X+5051100Y-2159000D01*
X+5079000Y-2186900D01*
X+5106900Y-2159000D01*
X+5106900Y-2131100D01*
X+5134800Y-2140400D02*
X+5144100Y-2131100D01*
X+5172000Y-2131100D01*
X+5181300Y-2140400D01*
X+5181300Y-2149700D01*
X+5172000Y-2159000D01*
X+5181300Y-2168300D01*
X+5181300Y-2177600D01*
X+5172000Y-2186900D01*
X+5144100Y-2186900D01*
X+5134800Y-2177600D01*
X+5153400Y-2159000D02*
X+5172000Y-2159000D01*
X+5209200Y-2131100D02*
X+5255700Y-2131100D01*
X+5255700Y-2140400D01*
X+5209200Y-2186900D01*
D101*
X+4895500Y-1766000D02*
X+5355500Y-1766000D01*
X+5355500Y-1536000D01*
X+4895500Y-1536000D01*
X+4895500Y-1766000D01*
X+5125500Y-1601000D02*
X+5125500Y-1701000D01*
X+5175500Y-1651000D02*
X+5075500Y-1651000D01*
D115*
X+4976700Y-1678900D02*
X+4976700Y-1623100D01*
X+5023200Y-1623100D01*
X+5032500Y-1632400D01*
X+5032500Y-1641700D01*
X+5023200Y-1651000D01*
X+4976700Y-1651000D01*
X+5023200Y-1651000D02*
X+5032500Y-1660300D01*
X+5032500Y-1678900D01*
X+5051100Y-1623100D02*
X+5051100Y-1651000D01*
X+5079000Y-1678900D01*
X+5106900Y-1651000D01*
X+5106900Y-1623100D01*
X+5134800Y-1632400D02*
X+5144100Y-1623100D01*
X+5172000Y-1623100D01*
X+5181300Y-1632400D01*
X+5181300Y-1641700D01*
X+5172000Y-1651000D01*
X+5181300Y-1660300D01*
X+5181300Y-1669600D01*
X+5172000Y-1678900D01*
X+5144100Y-1678900D01*
X+5134800Y-1669600D01*
X+5153400Y-1651000D02*
X+5172000Y-1651000D01*
X+5218500Y-1651000D02*
X+5209200Y-1641700D01*
X+5209200Y-1632400D01*
X+5218500Y-1623100D01*
X+5246400Y-1623100D01*
X+5255700Y-1632400D01*
X+5255700Y-1641700D01*
X+5246400Y-1651000D01*
X+5218500Y-1651000D01*
X+5209200Y-1660300D01*
X+5209200Y-1669600D01*
X+5218500Y-1678900D01*
X+5246400Y-1678900D01*
X+5255700Y-1669600D01*
X+5255700Y-1660300D01*
X+5246400Y-1651000D01*
D101*
X+7308500Y-2274000D02*
X+7768500Y-2274000D01*
X+7768500Y-2044000D01*
X+7308500Y-2044000D01*
X+7308500Y-2274000D01*
X+7538500Y-2109000D02*
X+7538500Y-2209000D01*
X+7588500Y-2159000D02*
X+7488500Y-2159000D01*
D115*
X+7389700Y-2186900D02*
X+7389700Y-2131100D01*
X+7436200Y-2131100D01*
X+7445500Y-2140400D01*
X+7445500Y-2149700D01*
X+7436200Y-2159000D01*
X+7389700Y-2159000D01*
X+7436200Y-2159000D02*
X+7445500Y-2168300D01*
X+7445500Y-2186900D01*
X+7464100Y-2131100D02*
X+7464100Y-2159000D01*
X+7492000Y-2186900D01*
X+7519900Y-2159000D01*
X+7519900Y-2131100D01*
X+7594300Y-2168300D02*
X+7538500Y-2168300D01*
X+7575700Y-2131100D01*
X+7575700Y-2186900D01*
X+7668700Y-2149700D02*
X+7659400Y-2159000D01*
X+7631500Y-2159000D01*
X+7622200Y-2149700D01*
X+7622200Y-2140400D01*
X+7631500Y-2131100D01*
X+7659400Y-2131100D01*
X+7668700Y-2140400D01*
X+7668700Y-2177600D01*
X+7659400Y-2186900D01*
X+7631500Y-2186900D01*
D101*
X+4423500Y-2020000D02*
X+4893500Y-2020000D01*
X+4893500Y-1790000D01*
X+4423500Y-1790000D01*
X+4423500Y-2020000D01*
X+4658500Y-1855000D02*
X+4658500Y-1955000D01*
X+4708500Y-1905000D02*
X+4608500Y-1905000D01*
D116*
X+4563500Y-1924000D02*
X+4554000Y-1933500D01*
X+4525500Y-1933500D01*
X+4506500Y-1914500D01*
X+4506500Y-1895500D01*
X+4525500Y-1876500D01*
X+4554000Y-1876500D01*
X+4563500Y-1886000D01*
X+4582500Y-1876500D02*
X+4582500Y-1905000D01*
X+4611000Y-1933500D01*
X+4639500Y-1905000D01*
X+4639500Y-1876500D01*
X+4668000Y-1886000D02*
X+4677500Y-1876500D01*
X+4706000Y-1876500D01*
X+4715500Y-1886000D01*
X+4715500Y-1895500D01*
X+4706000Y-1905000D01*
X+4715500Y-1914500D01*
X+4715500Y-1924000D01*
X+4706000Y-1933500D01*
X+4677500Y-1933500D01*
X+4668000Y-1924000D01*
X+4687000Y-1905000D02*
X+4706000Y-1905000D01*
X+4791500Y-1914500D02*
X+4734500Y-1914500D01*
X+4772500Y-1876500D01*
X+4772500Y-1933500D01*
D101*
X+4885500Y-2020000D02*
X+5355500Y-2020000D01*
X+5355500Y-1790000D01*
X+4885500Y-1790000D01*
X+4885500Y-2020000D01*
X+5120500Y-1855000D02*
X+5120500Y-1955000D01*
X+5170500Y-1905000D02*
X+5070500Y-1905000D01*
D116*
X+5025500Y-1924000D02*
X+5016000Y-1933500D01*
X+4987500Y-1933500D01*
X+4968500Y-1914500D01*
X+4968500Y-1895500D01*
X+4987500Y-1876500D01*
X+5016000Y-1876500D01*
X+5025500Y-1886000D01*
X+5044500Y-1876500D02*
X+5044500Y-1905000D01*
X+5073000Y-1933500D01*
X+5101500Y-1905000D01*
X+5101500Y-1876500D01*
X+5130000Y-1886000D02*
X+5139500Y-1876500D01*
X+5168000Y-1876500D01*
X+5177500Y-1886000D01*
X+5177500Y-1895500D01*
X+5168000Y-1905000D01*
X+5177500Y-1914500D01*
X+5177500Y-1924000D01*
X+5168000Y-1933500D01*
X+5139500Y-1933500D01*
X+5130000Y-1924000D01*
X+5149000Y-1905000D02*
X+5168000Y-1905000D01*
X+5253500Y-1886000D02*
X+5244000Y-1876500D01*
X+5215500Y-1876500D01*
X+5206000Y-1886000D01*
X+5206000Y-1924000D01*
X+5215500Y-1933500D01*
X+5244000Y-1933500D01*
X+5253500Y-1924000D01*
X+5253500Y-1914500D01*
X+5244000Y-1905000D01*
X+5206000Y-1905000D01*
D101*
X+4423500Y-1766000D02*
X+4893500Y-1766000D01*
X+4893500Y-1536000D01*
X+4423500Y-1536000D01*
X+4423500Y-1766000D01*
X+4658500Y-1601000D02*
X+4658500Y-1701000D01*
X+4708500Y-1651000D02*
X+4608500Y-1651000D01*
D116*
X+4563500Y-1670000D02*
X+4554000Y-1679500D01*
X+4525500Y-1679500D01*
X+4506500Y-1660500D01*
X+4506500Y-1641500D01*
X+4525500Y-1622500D01*
X+4554000Y-1622500D01*
X+4563500Y-1632000D01*
X+4582500Y-1622500D02*
X+4582500Y-1651000D01*
X+4611000Y-1679500D01*
X+4639500Y-1651000D01*
X+4639500Y-1622500D01*
X+4668000Y-1632000D02*
X+4677500Y-1622500D01*
X+4706000Y-1622500D01*
X+4715500Y-1632000D01*
X+4715500Y-1641500D01*
X+4706000Y-1651000D01*
X+4715500Y-1660500D01*
X+4715500Y-1670000D01*
X+4706000Y-1679500D01*
X+4677500Y-1679500D01*
X+4668000Y-1670000D01*
X+4687000Y-1651000D02*
X+4706000Y-1651000D01*
X+4753500Y-1651000D02*
X+4744000Y-1641500D01*
X+4744000Y-1632000D01*
X+4753500Y-1622500D01*
X+4782000Y-1622500D01*
X+4791500Y-1632000D01*
X+4791500Y-1641500D01*
X+4782000Y-1651000D01*
X+4753500Y-1651000D01*
X+4744000Y-1660500D01*
X+4744000Y-1670000D01*
X+4753500Y-1679500D01*
X+4782000Y-1679500D01*
X+4791500Y-1670000D01*
X+4791500Y-1660500D01*
X+4782000Y-1651000D01*
D41*
X+7482840Y+754600D02*
X+8138160Y+754600D01*
X+8138160Y+1503900D01*
X+7482840Y+1503900D01*
X+7482840Y+754600D01*
D117*
X+7840472Y+979390D02*
X+7855458Y+964404D01*
X+7855458Y+919446D01*
X+7825486Y+889474D01*
X+7795514Y+889474D01*
X+7765542Y+919446D01*
X+7765542Y+964404D01*
X+7780528Y+979390D01*
X+7765542Y+1009362D02*
X+7810500Y+1009362D01*
X+7855458Y+1054320D01*
X+7810500Y+1099278D01*
X+7765542Y+1099278D01*
X+7765542Y+1219166D02*
X+7765542Y+1144236D01*
X+7795514Y+1144236D01*
X+7795514Y+1204180D01*
X+7810500Y+1219166D01*
X+7840472Y+1219166D01*
X+7855458Y+1204180D01*
X+7855458Y+1159222D01*
X+7840472Y+1144236D01*
X+7825486Y+1339054D02*
X+7825486Y+1249138D01*
X+7765542Y+1309082D01*
X+7855458Y+1309082D01*
D101*
X+7263500Y+817000D02*
X+7263500Y+1527000D01*
X+6833500Y+1527000D01*
X+6833500Y+817000D01*
X+7263500Y+817000D01*
X+6998500Y+1172000D02*
X+7098500Y+1172000D01*
X+7048500Y+1222000D02*
X+7048500Y+1122000D01*
D106*
X+7102125Y+957500D02*
X+6994875Y+957500D01*
X+6994875Y+1029000D01*
X+7030625Y+1064750D01*
X+7066375Y+1064750D01*
X+7102125Y+1029000D01*
X+7102125Y+957500D01*
X+6994875Y+1100500D02*
X+7048500Y+1100500D01*
X+7102125Y+1154125D01*
X+7048500Y+1207750D01*
X+6994875Y+1207750D01*
X+7030625Y+1350750D02*
X+7048500Y+1332875D01*
X+7048500Y+1279250D01*
X+7030625Y+1261375D01*
X+7012750Y+1261375D01*
X+6994875Y+1279250D01*
X+6994875Y+1332875D01*
X+7012750Y+1350750D01*
X+7084250Y+1350750D01*
X+7102125Y+1332875D01*
X+7102125Y+1279250D01*
D41*
X+5957420Y-2000250D02*
X+6107580Y-2000250D01*
X+6107580Y-1701800D01*
X+5957420Y-1701800D01*
X+5957420Y-2000250D01*
D122*
X+6050407Y-1946529D02*
X+6014593Y-1946529D01*
X+6014593Y-1922653D01*
X+6026531Y-1910715D01*
X+6038469Y-1910715D01*
X+6050407Y-1922653D01*
X+6050407Y-1946529D01*
X+6014593Y-1898777D02*
X+6032500Y-1898777D01*
X+6050407Y-1880870D01*
X+6032500Y-1862963D01*
X+6014593Y-1862963D01*
X+6026531Y-1839087D02*
X+6014593Y-1827149D01*
X+6050407Y-1827149D01*
X+6044438Y-1803273D02*
X+6020562Y-1803273D01*
X+6014593Y-1797304D01*
X+6014593Y-1773428D01*
X+6020562Y-1767459D01*
X+6044438Y-1767459D01*
X+6050407Y-1773428D01*
X+6050407Y-1797304D01*
X+6044438Y-1803273D01*
X+6050407Y-1803273D02*
X+6014593Y-1767459D01*
D101*
X+7514500Y+480500D02*
X+6744500Y+480500D01*
X+6744500Y-99500D01*
X+7514500Y-99500D01*
X+7514500Y+480500D01*
X+7129500Y+140500D02*
X+7129500Y+240500D01*
X+7079500Y+190500D02*
X+7179500Y+190500D01*
D102*
X+6897000Y+248625D02*
X+6897000Y+132375D01*
X+7013250Y+132375D01*
X+7052000Y+248625D02*
X+7052000Y+190500D01*
X+7110125Y+132375D01*
X+7168250Y+190500D01*
X+7168250Y+248625D01*
X+7323250Y+248625D02*
X+7226375Y+248625D01*
X+7226375Y+209875D01*
X+7303875Y+209875D01*
X+7323250Y+190500D01*
X+7323250Y+151750D01*
X+7303875Y+132375D01*
X+7245750Y+132375D01*
X+7226375Y+151750D01*
D101*
X+6773000Y-2020000D02*
X+7243000Y-2020000D01*
X+7243000Y-1790000D01*
X+6773000Y-1790000D01*
X+6773000Y-2020000D01*
X+7008000Y-1855000D02*
X+7008000Y-1955000D01*
X+7058000Y-1905000D02*
X+6958000Y-1905000D01*
D116*
X+6913000Y-1924000D02*
X+6903500Y-1933500D01*
X+6875000Y-1933500D01*
X+6856000Y-1914500D01*
X+6856000Y-1895500D01*
X+6875000Y-1876500D01*
X+6903500Y-1876500D01*
X+6913000Y-1886000D01*
X+6932000Y-1876500D02*
X+6932000Y-1905000D01*
X+6960500Y-1933500D01*
X+6989000Y-1905000D01*
X+6989000Y-1876500D01*
X+7065000Y-1914500D02*
X+7008000Y-1914500D01*
X+7046000Y-1876500D01*
X+7046000Y-1933500D01*
X+7141000Y-1876500D02*
X+7093500Y-1876500D01*
X+7093500Y-1895500D01*
X+7131500Y-1895500D01*
X+7141000Y-1905000D01*
X+7141000Y-1924000D01*
X+7131500Y-1933500D01*
X+7103000Y-1933500D01*
X+7093500Y-1924000D01*
D101*
X+6138000Y-877000D02*
X+6608000Y-877000D01*
X+6608000Y-647000D01*
X+6138000Y-647000D01*
X+6138000Y-877000D01*
X+6373000Y-712000D02*
X+6373000Y-812000D01*
X+6423000Y-762000D02*
X+6323000Y-762000D01*
D116*
X+6278000Y-781000D02*
X+6268500Y-790500D01*
X+6240000Y-790500D01*
X+6221000Y-771500D01*
X+6221000Y-752500D01*
X+6240000Y-733500D01*
X+6268500Y-733500D01*
X+6278000Y-743000D01*
X+6297000Y-733500D02*
X+6297000Y-762000D01*
X+6325500Y-790500D01*
X+6354000Y-762000D01*
X+6354000Y-733500D01*
X+6430000Y-733500D02*
X+6382500Y-733500D01*
X+6382500Y-752500D01*
X+6420500Y-752500D01*
X+6430000Y-762000D01*
X+6430000Y-781000D01*
X+6420500Y-790500D01*
X+6392000Y-790500D01*
X+6382500Y-781000D01*
X+6458500Y-743000D02*
X+6468000Y-733500D01*
X+6496500Y-733500D01*
X+6506000Y-743000D01*
X+6506000Y-752500D01*
X+6496500Y-762000D01*
X+6468000Y-762000D01*
X+6458500Y-771500D01*
X+6458500Y-790500D01*
X+6506000Y-790500D01*
D41*
X+6007100Y-1399540D02*
X+6692900Y-1399540D01*
X+6692900Y-871220D01*
X+6007100Y-871220D01*
X+6007100Y-1399540D01*
D119*
X+6212840Y-1162812D02*
X+6199124Y-1176528D01*
X+6157976Y-1176528D01*
X+6130544Y-1149096D01*
X+6130544Y-1121664D01*
X+6157976Y-1094232D01*
X+6199124Y-1094232D01*
X+6212840Y-1107948D01*
X+6240272Y-1094232D02*
X+6240272Y-1135380D01*
X+6281420Y-1176528D01*
X+6322568Y-1135380D01*
X+6322568Y-1094232D01*
X+6432296Y-1094232D02*
X+6363716Y-1094232D01*
X+6363716Y-1121664D01*
X+6418580Y-1121664D01*
X+6432296Y-1135380D01*
X+6432296Y-1162812D01*
X+6418580Y-1176528D01*
X+6377432Y-1176528D01*
X+6363716Y-1162812D01*
X+6542024Y-1094232D02*
X+6473444Y-1094232D01*
X+6473444Y-1121664D01*
X+6528308Y-1121664D01*
X+6542024Y-1135380D01*
X+6542024Y-1162812D01*
X+6528308Y-1176528D01*
X+6487160Y-1176528D01*
X+6473444Y-1162812D01*
D101*
X+5854000Y-169000D02*
X+5854000Y-629000D01*
X+6084000Y-629000D01*
X+6084000Y-169000D01*
X+5854000Y-169000D01*
X+6019000Y-399000D02*
X+5919000Y-399000D01*
X+5969000Y-449000D02*
X+5969000Y-349000D01*
D115*
X+5996900Y-547800D02*
X+5941100Y-547800D01*
X+5941100Y-501300D01*
X+5950400Y-492000D01*
X+5959700Y-492000D01*
X+5969000Y-501300D01*
X+5969000Y-547800D01*
X+5969000Y-501300D02*
X+5978300Y-492000D01*
X+5996900Y-492000D01*
X+5941100Y-473400D02*
X+5969000Y-473400D01*
X+5996900Y-445500D01*
X+5969000Y-417600D01*
X+5941100Y-417600D01*
X+5941100Y-343200D02*
X+5941100Y-389700D01*
X+5959700Y-389700D01*
X+5959700Y-352500D01*
X+5969000Y-343200D01*
X+5987600Y-343200D01*
X+5996900Y-352500D01*
X+5996900Y-380400D01*
X+5987600Y-389700D01*
X+5941100Y-315300D02*
X+5941100Y-268800D01*
X+5950400Y-268800D01*
X+5996900Y-315300D01*
D101*
X+6562000Y-139000D02*
X+6102000Y-139000D01*
X+6102000Y-369000D01*
X+6562000Y-369000D01*
X+6562000Y-139000D01*
X+6332000Y-304000D02*
X+6332000Y-204000D01*
X+6282000Y-254000D02*
X+6382000Y-254000D01*
D115*
X+6183200Y-281900D02*
X+6183200Y-226100D01*
X+6229700Y-226100D01*
X+6239000Y-235400D01*
X+6239000Y-244700D01*
X+6229700Y-254000D01*
X+6183200Y-254000D01*
X+6229700Y-254000D02*
X+6239000Y-263300D01*
X+6239000Y-281900D01*
X+6257600Y-226100D02*
X+6257600Y-254000D01*
X+6285500Y-281900D01*
X+6313400Y-254000D01*
X+6313400Y-226100D01*
X+6387800Y-226100D02*
X+6341300Y-226100D01*
X+6341300Y-244700D01*
X+6378500Y-244700D01*
X+6387800Y-254000D01*
X+6387800Y-272600D01*
X+6378500Y-281900D01*
X+6350600Y-281900D01*
X+6341300Y-272600D01*
X+6425000Y-254000D02*
X+6415700Y-244700D01*
X+6415700Y-235400D01*
X+6425000Y-226100D01*
X+6452900Y-226100D01*
X+6462200Y-235400D01*
X+6462200Y-244700D01*
X+6452900Y-254000D01*
X+6425000Y-254000D01*
X+6415700Y-263300D01*
X+6415700Y-272600D01*
X+6425000Y-281900D01*
X+6452900Y-281900D01*
X+6462200Y-272600D01*
X+6462200Y-263300D01*
X+6452900Y-254000D01*
D101*
X+5663500Y-2201000D02*
X+5663500Y-2661000D01*
X+5893500Y-2661000D01*
X+5893500Y-2201000D01*
X+5663500Y-2201000D01*
X+5828500Y-2431000D02*
X+5728500Y-2431000D01*
X+5778500Y-2481000D02*
X+5778500Y-2381000D01*
D115*
X+5806400Y-2579800D02*
X+5750600Y-2579800D01*
X+5750600Y-2533300D01*
X+5759900Y-2524000D01*
X+5769200Y-2524000D01*
X+5778500Y-2533300D01*
X+5778500Y-2579800D01*
X+5778500Y-2533300D02*
X+5787800Y-2524000D01*
X+5806400Y-2524000D01*
X+5750600Y-2505400D02*
X+5778500Y-2505400D01*
X+5806400Y-2477500D01*
X+5778500Y-2449600D01*
X+5750600Y-2449600D01*
X+5750600Y-2375200D02*
X+5750600Y-2421700D01*
X+5769200Y-2421700D01*
X+5769200Y-2384500D01*
X+5778500Y-2375200D01*
X+5797100Y-2375200D01*
X+5806400Y-2384500D01*
X+5806400Y-2412400D01*
X+5797100Y-2421700D01*
X+5759900Y-2300800D02*
X+5750600Y-2310100D01*
X+5750600Y-2338000D01*
X+5759900Y-2347300D01*
X+5797100Y-2347300D01*
X+5806400Y-2338000D01*
X+5806400Y-2310100D01*
X+5797100Y-2300800D01*
X+5787800Y-2300800D01*
X+5778500Y-2310100D01*
X+5778500Y-2347300D01*
D101*
X+6138000Y-2782000D02*
X+6598000Y-2782000D01*
X+6598000Y-2552000D01*
X+6138000Y-2552000D01*
X+6138000Y-2782000D01*
X+6368000Y-2617000D02*
X+6368000Y-2717000D01*
X+6418000Y-2667000D02*
X+6318000Y-2667000D01*
D115*
X+6219200Y-2694900D02*
X+6219200Y-2639100D01*
X+6265700Y-2639100D01*
X+6275000Y-2648400D01*
X+6275000Y-2657700D01*
X+6265700Y-2667000D01*
X+6219200Y-2667000D01*
X+6265700Y-2667000D02*
X+6275000Y-2676300D01*
X+6275000Y-2694900D01*
X+6293600Y-2639100D02*
X+6293600Y-2667000D01*
X+6321500Y-2694900D01*
X+6349400Y-2667000D01*
X+6349400Y-2639100D01*
X+6423800Y-2639100D02*
X+6377300Y-2639100D01*
X+6377300Y-2657700D01*
X+6414500Y-2657700D01*
X+6423800Y-2667000D01*
X+6423800Y-2685600D01*
X+6414500Y-2694900D01*
X+6386600Y-2694900D01*
X+6377300Y-2685600D01*
X+6498200Y-2657700D02*
X+6488900Y-2667000D01*
X+6461000Y-2667000D01*
X+6451700Y-2657700D01*
X+6451700Y-2648400D01*
X+6461000Y-2639100D01*
X+6488900Y-2639100D01*
X+6498200Y-2648400D01*
X+6498200Y-2685600D01*
X+6488900Y-2694900D01*
X+6461000Y-2694900D01*
D101*
X+6138000Y-2528000D02*
X+6608000Y-2528000D01*
X+6608000Y-2298000D01*
X+6138000Y-2298000D01*
X+6138000Y-2528000D01*
X+6373000Y-2363000D02*
X+6373000Y-2463000D01*
X+6423000Y-2413000D02*
X+6323000Y-2413000D01*
D116*
X+6278000Y-2432000D02*
X+6268500Y-2441500D01*
X+6240000Y-2441500D01*
X+6221000Y-2422500D01*
X+6221000Y-2403500D01*
X+6240000Y-2384500D01*
X+6268500Y-2384500D01*
X+6278000Y-2394000D01*
X+6297000Y-2384500D02*
X+6297000Y-2413000D01*
X+6325500Y-2441500D01*
X+6354000Y-2413000D01*
X+6354000Y-2384500D01*
X+6430000Y-2384500D02*
X+6382500Y-2384500D01*
X+6382500Y-2403500D01*
X+6420500Y-2403500D01*
X+6430000Y-2413000D01*
X+6430000Y-2432000D01*
X+6420500Y-2441500D01*
X+6392000Y-2441500D01*
X+6382500Y-2432000D01*
X+6468000Y-2403500D02*
X+6487000Y-2384500D01*
X+6487000Y-2441500D01*
D101*
X+6963500Y-940500D02*
X+7433500Y-940500D01*
X+7433500Y-710500D01*
X+6963500Y-710500D01*
X+6963500Y-940500D01*
X+7198500Y-775500D02*
X+7198500Y-875500D01*
X+7248500Y-825500D02*
X+7148500Y-825500D01*
D116*
X+7103500Y-844500D02*
X+7094000Y-854000D01*
X+7065500Y-854000D01*
X+7046500Y-835000D01*
X+7046500Y-816000D01*
X+7065500Y-797000D01*
X+7094000Y-797000D01*
X+7103500Y-806500D01*
X+7122500Y-797000D02*
X+7122500Y-825500D01*
X+7151000Y-854000D01*
X+7179500Y-825500D01*
X+7179500Y-797000D01*
X+7255500Y-835000D02*
X+7198500Y-835000D01*
X+7236500Y-797000D01*
X+7236500Y-854000D01*
X+7331500Y-806500D02*
X+7322000Y-797000D01*
X+7293500Y-797000D01*
X+7284000Y-806500D01*
X+7284000Y-844500D01*
X+7293500Y-854000D01*
X+7322000Y-854000D01*
X+7331500Y-844500D01*
X+7331500Y-835000D01*
X+7322000Y-825500D01*
X+7284000Y-825500D01*
D101*
X+7298500Y-1766000D02*
X+7768500Y-1766000D01*
X+7768500Y-1536000D01*
X+7298500Y-1536000D01*
X+7298500Y-1766000D01*
X+7533500Y-1601000D02*
X+7533500Y-1701000D01*
X+7583500Y-1651000D02*
X+7483500Y-1651000D01*
D116*
X+7438500Y-1670000D02*
X+7429000Y-1679500D01*
X+7400500Y-1679500D01*
X+7381500Y-1660500D01*
X+7381500Y-1641500D01*
X+7400500Y-1622500D01*
X+7429000Y-1622500D01*
X+7438500Y-1632000D01*
X+7457500Y-1622500D02*
X+7457500Y-1651000D01*
X+7486000Y-1679500D01*
X+7514500Y-1651000D01*
X+7514500Y-1622500D01*
X+7590500Y-1660500D02*
X+7533500Y-1660500D01*
X+7571500Y-1622500D01*
X+7571500Y-1679500D01*
X+7619000Y-1622500D02*
X+7666500Y-1622500D01*
X+7666500Y-1632000D01*
X+7619000Y-1679500D01*
D101*
X+7314500Y-250000D02*
X+7314500Y-720000D01*
X+7544500Y-720000D01*
X+7544500Y-250000D01*
X+7314500Y-250000D01*
X+7479500Y-485000D02*
X+7379500Y-485000D01*
X+7429500Y-535000D02*
X+7429500Y-435000D01*
D116*
X+7448500Y-580000D02*
X+7458000Y-589500D01*
X+7458000Y-618000D01*
X+7439000Y-637000D01*
X+7420000Y-637000D01*
X+7401000Y-618000D01*
X+7401000Y-589500D01*
X+7410500Y-580000D01*
X+7401000Y-561000D02*
X+7429500Y-561000D01*
X+7458000Y-532500D01*
X+7429500Y-504000D01*
X+7401000Y-504000D01*
X+7439000Y-428000D02*
X+7439000Y-485000D01*
X+7401000Y-447000D01*
X+7458000Y-447000D01*
X+7429500Y-390000D02*
X+7420000Y-399500D01*
X+7410500Y-399500D01*
X+7401000Y-390000D01*
X+7401000Y-361500D01*
X+7410500Y-352000D01*
X+7420000Y-352000D01*
X+7429500Y-361500D01*
X+7429500Y-390000D01*
X+7439000Y-399500D01*
X+7448500Y-399500D01*
X+7458000Y-390000D01*
X+7458000Y-361500D01*
X+7448500Y-352000D01*
X+7439000Y-352000D01*
X+7429500Y-361500D01*
D101*
X+6790500Y-1766000D02*
X+7260500Y-1766000D01*
X+7260500Y-1536000D01*
X+6790500Y-1536000D01*
X+6790500Y-1766000D01*
X+7025500Y-1601000D02*
X+7025500Y-1701000D01*
X+7075500Y-1651000D02*
X+6975500Y-1651000D01*
D116*
X+6930500Y-1670000D02*
X+6921000Y-1679500D01*
X+6892500Y-1679500D01*
X+6873500Y-1660500D01*
X+6873500Y-1641500D01*
X+6892500Y-1622500D01*
X+6921000Y-1622500D01*
X+6930500Y-1632000D01*
X+6949500Y-1622500D02*
X+6949500Y-1651000D01*
X+6978000Y-1679500D01*
X+7006500Y-1651000D01*
X+7006500Y-1622500D01*
X+7082500Y-1660500D02*
X+7025500Y-1660500D01*
X+7063500Y-1622500D01*
X+7063500Y-1679500D01*
X+7158500Y-1641500D02*
X+7149000Y-1651000D01*
X+7120500Y-1651000D01*
X+7111000Y-1641500D01*
X+7111000Y-1632000D01*
X+7120500Y-1622500D01*
X+7149000Y-1622500D01*
X+7158500Y-1632000D01*
X+7158500Y-1670000D01*
X+7149000Y-1679500D01*
X+7120500Y-1679500D01*
D101*
X+6806500Y-250000D02*
X+6806500Y-720000D01*
X+7036500Y-720000D01*
X+7036500Y-250000D01*
X+6806500Y-250000D01*
X+6971500Y-485000D02*
X+6871500Y-485000D01*
X+6921500Y-535000D02*
X+6921500Y-435000D01*
D116*
X+6940500Y-580000D02*
X+6950000Y-589500D01*
X+6950000Y-618000D01*
X+6931000Y-637000D01*
X+6912000Y-637000D01*
X+6893000Y-618000D01*
X+6893000Y-589500D01*
X+6902500Y-580000D01*
X+6893000Y-561000D02*
X+6921500Y-561000D01*
X+6950000Y-532500D01*
X+6921500Y-504000D01*
X+6893000Y-504000D01*
X+6893000Y-428000D02*
X+6893000Y-475500D01*
X+6912000Y-475500D01*
X+6912000Y-437500D01*
X+6921500Y-428000D01*
X+6940500Y-428000D01*
X+6950000Y-437500D01*
X+6950000Y-466000D01*
X+6940500Y-475500D01*
X+6902500Y-399500D02*
X+6893000Y-390000D01*
X+6893000Y-361500D01*
X+6902500Y-352000D01*
X+6912000Y-352000D01*
X+6921500Y-361500D01*
X+6931000Y-352000D01*
X+6940500Y-352000D01*
X+6950000Y-361500D01*
X+6950000Y-390000D01*
X+6940500Y-399500D01*
X+6921500Y-380500D02*
X+6921500Y-361500D01*
D101*
X+7308500Y-2020000D02*
X+7768500Y-2020000D01*
X+7768500Y-1790000D01*
X+7308500Y-1790000D01*
X+7308500Y-2020000D01*
X+7538500Y-1855000D02*
X+7538500Y-1955000D01*
X+7588500Y-1905000D02*
X+7488500Y-1905000D01*
D115*
X+7389700Y-1932900D02*
X+7389700Y-1877100D01*
X+7436200Y-1877100D01*
X+7445500Y-1886400D01*
X+7445500Y-1895700D01*
X+7436200Y-1905000D01*
X+7389700Y-1905000D01*
X+7436200Y-1905000D02*
X+7445500Y-1914300D01*
X+7445500Y-1932900D01*
X+7464100Y-1877100D02*
X+7464100Y-1905000D01*
X+7492000Y-1932900D01*
X+7519900Y-1905000D01*
X+7519900Y-1877100D01*
X+7594300Y-1877100D02*
X+7547800Y-1877100D01*
X+7547800Y-1895700D01*
X+7585000Y-1895700D01*
X+7594300Y-1905000D01*
X+7594300Y-1923600D01*
X+7585000Y-1932900D01*
X+7557100Y-1932900D01*
X+7547800Y-1923600D01*
X+7612900Y-1923600D02*
X+7612900Y-1886400D01*
X+7622200Y-1877100D01*
X+7659400Y-1877100D01*
X+7668700Y-1886400D01*
X+7668700Y-1923600D01*
X+7659400Y-1932900D01*
X+7622200Y-1932900D01*
X+7612900Y-1923600D01*
X+7612900Y-1932900D02*
X+7668700Y-1877100D01*
D101*
X+7798500Y-720000D02*
X+7798500Y-260000D01*
X+7568500Y-260000D01*
X+7568500Y-720000D01*
X+7798500Y-720000D01*
X+7633500Y-490000D02*
X+7733500Y-490000D01*
X+7683500Y-440000D02*
X+7683500Y-540000D01*
D115*
X+7711400Y-638800D02*
X+7655600Y-638800D01*
X+7655600Y-592300D01*
X+7664900Y-583000D01*
X+7674200Y-583000D01*
X+7683500Y-592300D01*
X+7683500Y-638800D01*
X+7683500Y-592300D02*
X+7692800Y-583000D01*
X+7711400Y-583000D01*
X+7655600Y-564400D02*
X+7683500Y-564400D01*
X+7711400Y-536500D01*
X+7683500Y-508600D01*
X+7655600Y-508600D01*
X+7655600Y-434200D02*
X+7655600Y-480700D01*
X+7674200Y-480700D01*
X+7674200Y-443500D01*
X+7683500Y-434200D01*
X+7702100Y-434200D01*
X+7711400Y-443500D01*
X+7711400Y-471400D01*
X+7702100Y-480700D01*
X+7674200Y-397000D02*
X+7655600Y-378400D01*
X+7711400Y-378400D01*
D101*
X+7290500Y-720000D02*
X+7290500Y-260000D01*
X+7060500Y-260000D01*
X+7060500Y-720000D01*
X+7290500Y-720000D01*
X+7125500Y-490000D02*
X+7225500Y-490000D01*
X+7175500Y-440000D02*
X+7175500Y-540000D01*
D115*
X+7203400Y-638800D02*
X+7147600Y-638800D01*
X+7147600Y-592300D01*
X+7156900Y-583000D01*
X+7166200Y-583000D01*
X+7175500Y-592300D01*
X+7175500Y-638800D01*
X+7175500Y-592300D02*
X+7184800Y-583000D01*
X+7203400Y-583000D01*
X+7147600Y-564400D02*
X+7175500Y-564400D01*
X+7203400Y-536500D01*
X+7175500Y-508600D01*
X+7147600Y-508600D01*
X+7147600Y-434200D02*
X+7147600Y-480700D01*
X+7166200Y-480700D01*
X+7166200Y-443500D01*
X+7175500Y-434200D01*
X+7194100Y-434200D01*
X+7203400Y-443500D01*
X+7203400Y-471400D01*
X+7194100Y-480700D01*
X+7156900Y-406300D02*
X+7147600Y-397000D01*
X+7147600Y-369100D01*
X+7156900Y-359800D01*
X+7166200Y-359800D01*
X+7175500Y-369100D01*
X+7175500Y-397000D01*
X+7184800Y-406300D01*
X+7203400Y-406300D01*
X+7203400Y-359800D01*
D101*
X+6773000Y-2274000D02*
X+7233000Y-2274000D01*
X+7233000Y-2044000D01*
X+6773000Y-2044000D01*
X+6773000Y-2274000D01*
X+7003000Y-2109000D02*
X+7003000Y-2209000D01*
X+7053000Y-2159000D02*
X+6953000Y-2159000D01*
D115*
X+6854200Y-2186900D02*
X+6854200Y-2131100D01*
X+6900700Y-2131100D01*
X+6910000Y-2140400D01*
X+6910000Y-2149700D01*
X+6900700Y-2159000D01*
X+6854200Y-2159000D01*
X+6900700Y-2159000D02*
X+6910000Y-2168300D01*
X+6910000Y-2186900D01*
X+6928600Y-2131100D02*
X+6928600Y-2159000D01*
X+6956500Y-2186900D01*
X+6984400Y-2159000D01*
X+6984400Y-2131100D01*
X+7058800Y-2131100D02*
X+7012300Y-2131100D01*
X+7012300Y-2149700D01*
X+7049500Y-2149700D01*
X+7058800Y-2159000D01*
X+7058800Y-2177600D01*
X+7049500Y-2186900D01*
X+7021600Y-2186900D01*
X+7012300Y-2177600D01*
X+7086700Y-2140400D02*
X+7096000Y-2131100D01*
X+7123900Y-2131100D01*
X+7133200Y-2140400D01*
X+7133200Y-2149700D01*
X+7123900Y-2159000D01*
X+7133200Y-2168300D01*
X+7133200Y-2177600D01*
X+7123900Y-2186900D01*
X+7096000Y-2186900D01*
X+7086700Y-2177600D01*
X+7105300Y-2159000D02*
X+7123900Y-2159000D01*
D41*
X+6974840Y-3439160D02*
X+7249160Y-3439160D01*
X+7249160Y-3164840D01*
X+6974840Y-3164840D01*
X+6974840Y-3439160D01*
D104*
X+7024218Y-3318460D02*
X+7024218Y-3285541D01*
X+7051649Y-3285541D01*
X+7057136Y-3291028D01*
X+7057136Y-3296514D01*
X+7051649Y-3302000D01*
X+7024218Y-3302000D01*
X+7068109Y-3285541D02*
X+7068109Y-3318460D01*
X+7084568Y-3302000D01*
X+7101027Y-3318460D01*
X+7101027Y-3285541D01*
X+7112000Y-3318460D02*
X+7112000Y-3285541D01*
X+7128459Y-3302000D01*
X+7144918Y-3285541D01*
X+7144918Y-3318460D01*
X+7188809Y-3291028D02*
X+7183322Y-3285541D01*
X+7166863Y-3285541D01*
X+7161377Y-3291028D01*
X+7161377Y-3312973D01*
X+7166863Y-3318460D01*
X+7183322Y-3318460D01*
X+7188809Y-3312973D01*
X+7188809Y-3307487D01*
X+7183322Y-3302000D01*
X+7161377Y-3302000D01*
D41*
X+5323840Y-3439160D02*
X+5598160Y-3439160D01*
X+5598160Y-3164840D01*
X+5323840Y-3164840D01*
X+5323840Y-3439160D01*
D104*
X+5373218Y-3318460D02*
X+5373218Y-3285541D01*
X+5400649Y-3285541D01*
X+5406136Y-3291028D01*
X+5406136Y-3296514D01*
X+5400649Y-3302000D01*
X+5373218Y-3302000D01*
X+5417109Y-3285541D02*
X+5417109Y-3318460D01*
X+5433568Y-3302000D01*
X+5450027Y-3318460D01*
X+5450027Y-3285541D01*
X+5461000Y-3318460D02*
X+5461000Y-3285541D01*
X+5477459Y-3302000D01*
X+5493918Y-3285541D01*
X+5493918Y-3318460D01*
X+5510377Y-3285541D02*
X+5537809Y-3285541D01*
X+5537809Y-3291028D01*
X+5510377Y-3318460D01*
D41*
X+2847340Y-3439160D02*
X+3121660Y-3439160D01*
X+3121660Y-3164840D01*
X+2847340Y-3164840D01*
X+2847340Y-3439160D01*
D104*
X+2896718Y-3318460D02*
X+2896718Y-3285541D01*
X+2924149Y-3285541D01*
X+2929636Y-3291028D01*
X+2929636Y-3296514D01*
X+2924149Y-3302000D01*
X+2896718Y-3302000D01*
X+2940609Y-3285541D02*
X+2940609Y-3318460D01*
X+2957068Y-3302000D01*
X+2973527Y-3318460D01*
X+2973527Y-3285541D01*
X+2984500Y-3318460D02*
X+2984500Y-3285541D01*
X+3000959Y-3302000D01*
X+3017418Y-3285541D01*
X+3017418Y-3318460D01*
X+3039363Y-3302000D02*
X+3033877Y-3296514D01*
X+3033877Y-3291028D01*
X+3039363Y-3285541D01*
X+3055822Y-3285541D01*
X+3061309Y-3291028D01*
X+3061309Y-3296514D01*
X+3055822Y-3302000D01*
X+3039363Y-3302000D01*
X+3033877Y-3307487D01*
X+3033877Y-3312973D01*
X+3039363Y-3318460D01*
X+3055822Y-3318460D01*
X+3061309Y-3312973D01*
X+3061309Y-3307487D01*
X+3055822Y-3302000D01*
D41*
X+434340Y-3439160D02*
X+708660Y-3439160D01*
X+708660Y-3164840D01*
X+434340Y-3164840D01*
X+434340Y-3439160D01*
D104*
X+483718Y-3318460D02*
X+483718Y-3285541D01*
X+511149Y-3285541D01*
X+516636Y-3291028D01*
X+516636Y-3296514D01*
X+511149Y-3302000D01*
X+483718Y-3302000D01*
X+527609Y-3285541D02*
X+527609Y-3318460D01*
X+544068Y-3302000D01*
X+560527Y-3318460D01*
X+560527Y-3285541D01*
X+571500Y-3318460D02*
X+571500Y-3285541D01*
X+587959Y-3302000D01*
X+604418Y-3285541D01*
X+604418Y-3318460D01*
X+648309Y-3296514D02*
X+642822Y-3302000D01*
X+626363Y-3302000D01*
X+620877Y-3296514D01*
X+620877Y-3291028D01*
X+626363Y-3285541D01*
X+642822Y-3285541D01*
X+648309Y-3291028D01*
X+648309Y-3312973D01*
X+642822Y-3318460D01*
X+626363Y-3318460D01*
D41*
X-1915160Y-3439160D02*
X-1640840Y-3439160D01*
X-1640840Y-3164840D01*
X-1915160Y-3164840D01*
X-1915160Y-3439160D01*
D123*
X-1869440Y-3315716D02*
X-1869440Y-3288284D01*
X-1846580Y-3288284D01*
X-1842008Y-3292856D01*
X-1842008Y-3297428D01*
X-1846580Y-3302000D01*
X-1869440Y-3302000D01*
X-1832864Y-3288284D02*
X-1832864Y-3315716D01*
X-1819148Y-3302000D01*
X-1805432Y-3315716D01*
X-1805432Y-3288284D01*
X-1796288Y-3315716D02*
X-1796288Y-3288284D01*
X-1782572Y-3302000D01*
X-1768856Y-3288284D01*
X-1768856Y-3315716D01*
X-1750568Y-3297428D02*
X-1741424Y-3288284D01*
X-1741424Y-3315716D01*
X-1723136Y-3311144D02*
X-1723136Y-3292856D01*
X-1718564Y-3288284D01*
X-1700276Y-3288284D01*
X-1695704Y-3292856D01*
X-1695704Y-3311144D01*
X-1700276Y-3315716D01*
X-1718564Y-3315716D01*
X-1723136Y-3311144D01*
X-1723136Y-3315716D02*
X-1695704Y-3288284D01*
D41*
X+6974840Y-3693160D02*
X+7249160Y-3693160D01*
X+7249160Y-3418840D01*
X+6974840Y-3418840D01*
X+6974840Y-3693160D01*
D104*
X+7029704Y-3539541D02*
X+7051649Y-3539541D01*
X+7040677Y-3539541D02*
X+7040677Y-3572460D01*
X+7029704Y-3572460D02*
X+7051649Y-3572460D01*
X+7068109Y-3572460D02*
X+7068109Y-3539541D01*
X+7101027Y-3539541D01*
X+7068109Y-3556000D02*
X+7090054Y-3556000D01*
X+7112000Y-3572460D02*
X+7112000Y-3539541D01*
X+7139431Y-3539541D01*
X+7144918Y-3545028D01*
X+7144918Y-3550514D01*
X+7139431Y-3556000D01*
X+7144918Y-3561487D01*
X+7144918Y-3566973D01*
X+7139431Y-3572460D01*
X+7112000Y-3572460D01*
X+7112000Y-3556000D02*
X+7139431Y-3556000D01*
X+7188809Y-3545028D02*
X+7183322Y-3539541D01*
X+7166863Y-3539541D01*
X+7161377Y-3545028D01*
X+7161377Y-3566973D01*
X+7166863Y-3572460D01*
X+7183322Y-3572460D01*
X+7188809Y-3566973D01*
X+7188809Y-3561487D01*
X+7183322Y-3556000D01*
X+7161377Y-3556000D01*
D41*
X+5323840Y-3693160D02*
X+5598160Y-3693160D01*
X+5598160Y-3418840D01*
X+5323840Y-3418840D01*
X+5323840Y-3693160D01*
D104*
X+5378704Y-3539541D02*
X+5400649Y-3539541D01*
X+5389677Y-3539541D02*
X+5389677Y-3572460D01*
X+5378704Y-3572460D02*
X+5400649Y-3572460D01*
X+5417109Y-3572460D02*
X+5417109Y-3539541D01*
X+5450027Y-3539541D01*
X+5417109Y-3556000D02*
X+5439054Y-3556000D01*
X+5461000Y-3572460D02*
X+5461000Y-3539541D01*
X+5488431Y-3539541D01*
X+5493918Y-3545028D01*
X+5493918Y-3550514D01*
X+5488431Y-3556000D01*
X+5493918Y-3561487D01*
X+5493918Y-3566973D01*
X+5488431Y-3572460D01*
X+5461000Y-3572460D01*
X+5461000Y-3556000D02*
X+5488431Y-3556000D01*
X+5510377Y-3539541D02*
X+5537809Y-3539541D01*
X+5537809Y-3545028D01*
X+5510377Y-3572460D01*
D41*
X+2847340Y-3693160D02*
X+3121660Y-3693160D01*
X+3121660Y-3418840D01*
X+2847340Y-3418840D01*
X+2847340Y-3693160D01*
D104*
X+2902204Y-3539541D02*
X+2924149Y-3539541D01*
X+2913177Y-3539541D02*
X+2913177Y-3572460D01*
X+2902204Y-3572460D02*
X+2924149Y-3572460D01*
X+2940609Y-3572460D02*
X+2940609Y-3539541D01*
X+2973527Y-3539541D01*
X+2940609Y-3556000D02*
X+2962554Y-3556000D01*
X+2984500Y-3572460D02*
X+2984500Y-3539541D01*
X+3011931Y-3539541D01*
X+3017418Y-3545028D01*
X+3017418Y-3550514D01*
X+3011931Y-3556000D01*
X+3017418Y-3561487D01*
X+3017418Y-3566973D01*
X+3011931Y-3572460D01*
X+2984500Y-3572460D01*
X+2984500Y-3556000D02*
X+3011931Y-3556000D01*
X+3039363Y-3556000D02*
X+3033877Y-3550514D01*
X+3033877Y-3545028D01*
X+3039363Y-3539541D01*
X+3055822Y-3539541D01*
X+3061309Y-3545028D01*
X+3061309Y-3550514D01*
X+3055822Y-3556000D01*
X+3039363Y-3556000D01*
X+3033877Y-3561487D01*
X+3033877Y-3566973D01*
X+3039363Y-3572460D01*
X+3055822Y-3572460D01*
X+3061309Y-3566973D01*
X+3061309Y-3561487D01*
X+3055822Y-3556000D01*
D41*
X+434340Y-3693160D02*
X+708660Y-3693160D01*
X+708660Y-3418840D01*
X+434340Y-3418840D01*
X+434340Y-3693160D01*
D104*
X+489204Y-3539541D02*
X+511149Y-3539541D01*
X+500177Y-3539541D02*
X+500177Y-3572460D01*
X+489204Y-3572460D02*
X+511149Y-3572460D01*
X+527609Y-3572460D02*
X+527609Y-3539541D01*
X+560527Y-3539541D01*
X+527609Y-3556000D02*
X+549554Y-3556000D01*
X+571500Y-3572460D02*
X+571500Y-3539541D01*
X+598931Y-3539541D01*
X+604418Y-3545028D01*
X+604418Y-3550514D01*
X+598931Y-3556000D01*
X+604418Y-3561487D01*
X+604418Y-3566973D01*
X+598931Y-3572460D01*
X+571500Y-3572460D01*
X+571500Y-3556000D02*
X+598931Y-3556000D01*
X+648309Y-3550514D02*
X+642822Y-3556000D01*
X+626363Y-3556000D01*
X+620877Y-3550514D01*
X+620877Y-3545028D01*
X+626363Y-3539541D01*
X+642822Y-3539541D01*
X+648309Y-3545028D01*
X+648309Y-3566973D01*
X+642822Y-3572460D01*
X+626363Y-3572460D01*
D41*
X-1915160Y-3693160D02*
X-1640840Y-3693160D01*
X-1640840Y-3418840D01*
X-1915160Y-3418840D01*
X-1915160Y-3693160D01*
D123*
X-1864868Y-3542284D02*
X-1846580Y-3542284D01*
X-1855724Y-3542284D02*
X-1855724Y-3569716D01*
X-1864868Y-3569716D02*
X-1846580Y-3569716D01*
X-1832864Y-3569716D02*
X-1832864Y-3542284D01*
X-1805432Y-3542284D01*
X-1832864Y-3556000D02*
X-1814576Y-3556000D01*
X-1796288Y-3569716D02*
X-1796288Y-3542284D01*
X-1773428Y-3542284D01*
X-1768856Y-3546856D01*
X-1768856Y-3551428D01*
X-1773428Y-3556000D01*
X-1768856Y-3560572D01*
X-1768856Y-3565144D01*
X-1773428Y-3569716D01*
X-1796288Y-3569716D01*
X-1796288Y-3556000D02*
X-1773428Y-3556000D01*
X-1750568Y-3551428D02*
X-1741424Y-3542284D01*
X-1741424Y-3569716D01*
X-1723136Y-3565144D02*
X-1723136Y-3546856D01*
X-1718564Y-3542284D01*
X-1700276Y-3542284D01*
X-1695704Y-3546856D01*
X-1695704Y-3565144D01*
X-1700276Y-3569716D01*
X-1718564Y-3569716D01*
X-1723136Y-3565144D01*
X-1723136Y-3569716D02*
X-1695704Y-3542284D01*
D41*
X+6974840Y-3185160D02*
X+7249160Y-3185160D01*
X+7249160Y-2910840D01*
X+6974840Y-2910840D01*
X+6974840Y-3185160D01*
D104*
X+7029704Y-3031541D02*
X+7051649Y-3031541D01*
X+7040677Y-3031541D02*
X+7040677Y-3064460D01*
X+7029704Y-3064460D02*
X+7051649Y-3064460D01*
X+7068109Y-3064460D02*
X+7068109Y-3031541D01*
X+7101027Y-3064460D01*
X+7101027Y-3031541D01*
X+7112000Y-3064460D02*
X+7112000Y-3031541D01*
X+7144918Y-3031541D02*
X+7144918Y-3064460D01*
X+7112000Y-3048000D02*
X+7144918Y-3048000D01*
X+7188809Y-3037028D02*
X+7183322Y-3031541D01*
X+7166863Y-3031541D01*
X+7161377Y-3037028D01*
X+7161377Y-3058973D01*
X+7166863Y-3064460D01*
X+7183322Y-3064460D01*
X+7188809Y-3058973D01*
X+7188809Y-3053487D01*
X+7183322Y-3048000D01*
X+7161377Y-3048000D01*
D41*
X+5323840Y-3185160D02*
X+5598160Y-3185160D01*
X+5598160Y-2910840D01*
X+5323840Y-2910840D01*
X+5323840Y-3185160D01*
D104*
X+5378704Y-3031541D02*
X+5400649Y-3031541D01*
X+5389677Y-3031541D02*
X+5389677Y-3064460D01*
X+5378704Y-3064460D02*
X+5400649Y-3064460D01*
X+5417109Y-3064460D02*
X+5417109Y-3031541D01*
X+5450027Y-3064460D01*
X+5450027Y-3031541D01*
X+5461000Y-3064460D02*
X+5461000Y-3031541D01*
X+5493918Y-3031541D02*
X+5493918Y-3064460D01*
X+5461000Y-3048000D02*
X+5493918Y-3048000D01*
X+5510377Y-3031541D02*
X+5537809Y-3031541D01*
X+5537809Y-3037028D01*
X+5510377Y-3064460D01*
D41*
X+2847340Y-3185160D02*
X+3121660Y-3185160D01*
X+3121660Y-2910840D01*
X+2847340Y-2910840D01*
X+2847340Y-3185160D01*
D104*
X+2902204Y-3031541D02*
X+2924149Y-3031541D01*
X+2913177Y-3031541D02*
X+2913177Y-3064460D01*
X+2902204Y-3064460D02*
X+2924149Y-3064460D01*
X+2940609Y-3064460D02*
X+2940609Y-3031541D01*
X+2973527Y-3064460D01*
X+2973527Y-3031541D01*
X+2984500Y-3064460D02*
X+2984500Y-3031541D01*
X+3017418Y-3031541D02*
X+3017418Y-3064460D01*
X+2984500Y-3048000D02*
X+3017418Y-3048000D01*
X+3039363Y-3048000D02*
X+3033877Y-3042514D01*
X+3033877Y-3037028D01*
X+3039363Y-3031541D01*
X+3055822Y-3031541D01*
X+3061309Y-3037028D01*
X+3061309Y-3042514D01*
X+3055822Y-3048000D01*
X+3039363Y-3048000D01*
X+3033877Y-3053487D01*
X+3033877Y-3058973D01*
X+3039363Y-3064460D01*
X+3055822Y-3064460D01*
X+3061309Y-3058973D01*
X+3061309Y-3053487D01*
X+3055822Y-3048000D01*
D41*
X+434340Y-3185160D02*
X+708660Y-3185160D01*
X+708660Y-2910840D01*
X+434340Y-2910840D01*
X+434340Y-3185160D01*
D104*
X+489204Y-3031541D02*
X+511149Y-3031541D01*
X+500177Y-3031541D02*
X+500177Y-3064460D01*
X+489204Y-3064460D02*
X+511149Y-3064460D01*
X+527609Y-3064460D02*
X+527609Y-3031541D01*
X+560527Y-3064460D01*
X+560527Y-3031541D01*
X+571500Y-3064460D02*
X+571500Y-3031541D01*
X+604418Y-3031541D02*
X+604418Y-3064460D01*
X+571500Y-3048000D02*
X+604418Y-3048000D01*
X+648309Y-3042514D02*
X+642822Y-3048000D01*
X+626363Y-3048000D01*
X+620877Y-3042514D01*
X+620877Y-3037028D01*
X+626363Y-3031541D01*
X+642822Y-3031541D01*
X+648309Y-3037028D01*
X+648309Y-3058973D01*
X+642822Y-3064460D01*
X+626363Y-3064460D01*
D41*
X-1915160Y-3185160D02*
X-1640840Y-3185160D01*
X-1640840Y-2910840D01*
X-1915160Y-2910840D01*
X-1915160Y-3185160D01*
D123*
X-1864868Y-3034284D02*
X-1846580Y-3034284D01*
X-1855724Y-3034284D02*
X-1855724Y-3061716D01*
X-1864868Y-3061716D02*
X-1846580Y-3061716D01*
X-1832864Y-3061716D02*
X-1832864Y-3034284D01*
X-1805432Y-3061716D01*
X-1805432Y-3034284D01*
X-1796288Y-3061716D02*
X-1796288Y-3034284D01*
X-1768856Y-3034284D02*
X-1768856Y-3061716D01*
X-1796288Y-3048000D02*
X-1768856Y-3048000D01*
X-1750568Y-3043428D02*
X-1741424Y-3034284D01*
X-1741424Y-3061716D01*
X-1723136Y-3057144D02*
X-1723136Y-3038856D01*
X-1718564Y-3034284D01*
X-1700276Y-3034284D01*
X-1695704Y-3038856D01*
X-1695704Y-3057144D01*
X-1700276Y-3061716D01*
X-1718564Y-3061716D01*
X-1723136Y-3057144D01*
X-1723136Y-3061716D02*
X-1695704Y-3034284D01*
D41*
X+6530340Y+1704340D02*
X+6804660Y+1704340D01*
X+6804660Y+1978660D01*
X+6530340Y+1978660D01*
X+6530340Y+1704340D01*
D104*
X+6651041Y+1753718D02*
X+6667500Y+1753718D01*
X+6683960Y+1770177D01*
X+6667500Y+1786636D01*
X+6651041Y+1786636D01*
X+6656528Y+1830527D02*
X+6651041Y+1825040D01*
X+6651041Y+1808581D01*
X+6656528Y+1803095D01*
X+6678473Y+1803095D01*
X+6683960Y+1808581D01*
X+6683960Y+1825040D01*
X+6678473Y+1830527D01*
X+6672987Y+1830527D01*
X+6667500Y+1825040D01*
X+6667500Y+1803095D01*
X+6683960Y+1841500D02*
X+6651041Y+1841500D01*
X+6651041Y+1874418D02*
X+6683960Y+1874418D01*
X+6667500Y+1841500D02*
X+6667500Y+1874418D01*
X+6678473Y+1885391D02*
X+6683960Y+1890877D01*
X+6683960Y+1912822D01*
X+6678473Y+1918309D01*
X+6672987Y+1918309D01*
X+6667500Y+1912822D01*
X+6667500Y+1890877D01*
X+6662014Y+1885391D01*
X+6656528Y+1885391D01*
X+6651041Y+1890877D01*
X+6651041Y+1912822D01*
X+6656528Y+1918309D01*
D41*
X+4180840Y+1704340D02*
X+4455160Y+1704340D01*
X+4455160Y+1978660D01*
X+4180840Y+1978660D01*
X+4180840Y+1704340D01*
D104*
X+4301541Y+1753718D02*
X+4318000Y+1753718D01*
X+4334460Y+1770177D01*
X+4318000Y+1786636D01*
X+4301541Y+1786636D01*
X+4301541Y+1803095D02*
X+4301541Y+1830527D01*
X+4307028Y+1830527D01*
X+4334460Y+1803095D01*
X+4334460Y+1841500D02*
X+4301541Y+1841500D01*
X+4301541Y+1874418D02*
X+4334460Y+1874418D01*
X+4318000Y+1841500D02*
X+4318000Y+1874418D01*
X+4328973Y+1885391D02*
X+4334460Y+1890877D01*
X+4334460Y+1912822D01*
X+4328973Y+1918309D01*
X+4323487Y+1918309D01*
X+4318000Y+1912822D01*
X+4318000Y+1890877D01*
X+4312514Y+1885391D01*
X+4307028Y+1885391D01*
X+4301541Y+1890877D01*
X+4301541Y+1912822D01*
X+4307028Y+1918309D01*
D41*
X+1831340Y+1704340D02*
X+2105660Y+1704340D01*
X+2105660Y+1978660D01*
X+1831340Y+1978660D01*
X+1831340Y+1704340D01*
D104*
X+1952041Y+1753718D02*
X+1968500Y+1753718D01*
X+1984960Y+1770177D01*
X+1968500Y+1786636D01*
X+1952041Y+1786636D01*
X+1968500Y+1808581D02*
X+1963014Y+1803095D01*
X+1957528Y+1803095D01*
X+1952041Y+1808581D01*
X+1952041Y+1825040D01*
X+1957528Y+1830527D01*
X+1963014Y+1830527D01*
X+1968500Y+1825040D01*
X+1968500Y+1808581D01*
X+1973987Y+1803095D01*
X+1979473Y+1803095D01*
X+1984960Y+1808581D01*
X+1984960Y+1825040D01*
X+1979473Y+1830527D01*
X+1973987Y+1830527D01*
X+1968500Y+1825040D01*
X+1984960Y+1841500D02*
X+1952041Y+1841500D01*
X+1952041Y+1874418D02*
X+1984960Y+1874418D01*
X+1968500Y+1841500D02*
X+1968500Y+1874418D01*
X+1979473Y+1885391D02*
X+1984960Y+1890877D01*
X+1984960Y+1912822D01*
X+1979473Y+1918309D01*
X+1973987Y+1918309D01*
X+1968500Y+1912822D01*
X+1968500Y+1890877D01*
X+1963014Y+1885391D01*
X+1957528Y+1885391D01*
X+1952041Y+1890877D01*
X+1952041Y+1912822D01*
X+1957528Y+1918309D01*
D41*
X-454660Y+1704340D02*
X-180340Y+1704340D01*
X-180340Y+1978660D01*
X-454660Y+1978660D01*
X-454660Y+1704340D01*
D104*
X-333959Y+1753718D02*
X-317500Y+1753718D01*
X-301040Y+1770177D01*
X-317500Y+1786636D01*
X-333959Y+1786636D01*
X-322986Y+1830527D02*
X-317500Y+1825040D01*
X-317500Y+1808581D01*
X-322986Y+1803095D01*
X-328472Y+1803095D01*
X-333959Y+1808581D01*
X-333959Y+1825040D01*
X-328472Y+1830527D01*
X-306527Y+1830527D01*
X-301040Y+1825040D01*
X-301040Y+1808581D01*
X-301040Y+1841500D02*
X-333959Y+1841500D01*
X-333959Y+1874418D02*
X-301040Y+1874418D01*
X-317500Y+1841500D02*
X-317500Y+1874418D01*
X-306527Y+1885391D02*
X-301040Y+1890877D01*
X-301040Y+1912822D01*
X-306527Y+1918309D01*
X-312013Y+1918309D01*
X-317500Y+1912822D01*
X-317500Y+1890877D01*
X-322986Y+1885391D01*
X-328472Y+1885391D01*
X-333959Y+1890877D01*
X-333959Y+1912822D01*
X-328472Y+1918309D01*
D41*
X-2677160Y+1704340D02*
X-2402840Y+1704340D01*
X-2402840Y+1978660D01*
X-2677160Y+1978660D01*
X-2677160Y+1704340D01*
D123*
X-2553716Y+1750060D02*
X-2540000Y+1750060D01*
X-2526284Y+1763776D01*
X-2540000Y+1777492D01*
X-2553716Y+1777492D01*
X-2544572Y+1795780D02*
X-2553716Y+1804924D01*
X-2526284Y+1804924D01*
X-2530856Y+1823212D02*
X-2549144Y+1823212D01*
X-2553716Y+1827784D01*
X-2553716Y+1846072D01*
X-2549144Y+1850644D01*
X-2530856Y+1850644D01*
X-2526284Y+1846072D01*
X-2526284Y+1827784D01*
X-2530856Y+1823212D01*
X-2526284Y+1823212D02*
X-2553716Y+1850644D01*
X-2526284Y+1859788D02*
X-2553716Y+1859788D01*
X-2553716Y+1887220D02*
X-2526284Y+1887220D01*
X-2540000Y+1859788D02*
X-2540000Y+1887220D01*
X-2530856Y+1896364D02*
X-2526284Y+1900936D01*
X-2526284Y+1919224D01*
X-2530856Y+1923796D01*
X-2535428Y+1923796D01*
X-2540000Y+1919224D01*
X-2540000Y+1900936D01*
X-2544572Y+1896364D01*
X-2549144Y+1896364D01*
X-2553716Y+1900936D01*
X-2553716Y+1919224D01*
X-2549144Y+1923796D01*
D41*
X-5153660Y+1767840D02*
X-4879340Y+1767840D01*
X-4879340Y+2042160D01*
X-5153660Y+2042160D01*
X-5153660Y+1767840D01*
D123*
X-5030216Y+1813560D02*
X-5016500Y+1813560D01*
X-5002784Y+1827276D01*
X-5016500Y+1840992D01*
X-5030216Y+1840992D01*
X-5021072Y+1859280D02*
X-5030216Y+1868424D01*
X-5002784Y+1868424D01*
X-5021072Y+1895856D02*
X-5030216Y+1905000D01*
X-5002784Y+1905000D01*
X-5002784Y+1923288D02*
X-5030216Y+1923288D01*
X-5030216Y+1950720D02*
X-5002784Y+1950720D01*
X-5016500Y+1923288D02*
X-5016500Y+1950720D01*
X-5007356Y+1959864D02*
X-5002784Y+1964436D01*
X-5002784Y+1982724D01*
X-5007356Y+1987296D01*
X-5011928Y+1987296D01*
X-5016500Y+1982724D01*
X-5016500Y+1964436D01*
X-5021072Y+1959864D01*
X-5025644Y+1959864D01*
X-5030216Y+1964436D01*
X-5030216Y+1982724D01*
X-5025644Y+1987296D01*
D41*
X-4455160Y-3693160D02*
X-4180840Y-3693160D01*
X-4180840Y-3418840D01*
X-4455160Y-3418840D01*
X-4455160Y-3693160D01*
D123*
X-4404868Y-3542284D02*
X-4386580Y-3542284D01*
X-4395724Y-3542284D02*
X-4395724Y-3569716D01*
X-4404868Y-3569716D02*
X-4386580Y-3569716D01*
X-4372864Y-3569716D02*
X-4372864Y-3542284D01*
X-4345432Y-3542284D01*
X-4372864Y-3556000D02*
X-4354576Y-3556000D01*
X-4336288Y-3569716D02*
X-4336288Y-3542284D01*
X-4313428Y-3542284D01*
X-4308856Y-3546856D01*
X-4308856Y-3551428D01*
X-4313428Y-3556000D01*
X-4308856Y-3560572D01*
X-4308856Y-3565144D01*
X-4313428Y-3569716D01*
X-4336288Y-3569716D01*
X-4336288Y-3556000D02*
X-4313428Y-3556000D01*
X-4290568Y-3551428D02*
X-4281424Y-3542284D01*
X-4281424Y-3569716D01*
X-4253992Y-3551428D02*
X-4244848Y-3542284D01*
X-4244848Y-3569716D01*
D41*
X-4455160Y-3185160D02*
X-4180840Y-3185160D01*
X-4180840Y-2910840D01*
X-4455160Y-2910840D01*
X-4455160Y-3185160D01*
D123*
X-4404868Y-3034284D02*
X-4386580Y-3034284D01*
X-4395724Y-3034284D02*
X-4395724Y-3061716D01*
X-4404868Y-3061716D02*
X-4386580Y-3061716D01*
X-4372864Y-3061716D02*
X-4372864Y-3034284D01*
X-4345432Y-3061716D01*
X-4345432Y-3034284D01*
X-4336288Y-3061716D02*
X-4336288Y-3034284D01*
X-4308856Y-3034284D02*
X-4308856Y-3061716D01*
X-4336288Y-3048000D02*
X-4308856Y-3048000D01*
X-4290568Y-3043428D02*
X-4281424Y-3034284D01*
X-4281424Y-3061716D01*
X-4253992Y-3043428D02*
X-4244848Y-3034284D01*
X-4244848Y-3061716D01*
D41*
X-4455160Y-3439160D02*
X-4180840Y-3439160D01*
X-4180840Y-3164840D01*
X-4455160Y-3164840D01*
X-4455160Y-3439160D01*
D123*
X-4409440Y-3315716D02*
X-4409440Y-3288284D01*
X-4386580Y-3288284D01*
X-4382008Y-3292856D01*
X-4382008Y-3297428D01*
X-4386580Y-3302000D01*
X-4409440Y-3302000D01*
X-4372864Y-3288284D02*
X-4372864Y-3315716D01*
X-4359148Y-3302000D01*
X-4345432Y-3315716D01*
X-4345432Y-3288284D01*
X-4336288Y-3315716D02*
X-4336288Y-3288284D01*
X-4322572Y-3302000D01*
X-4308856Y-3288284D01*
X-4308856Y-3315716D01*
X-4290568Y-3297428D02*
X-4281424Y-3288284D01*
X-4281424Y-3315716D01*
X-4253992Y-3297428D02*
X-4244848Y-3288284D01*
X-4244848Y-3315716D01*
D101*
X-4139120Y-1359600D02*
X-3669120Y-1359600D01*
X-3669120Y-1129600D01*
X-4139120Y-1129600D01*
X-4139120Y-1359600D01*
X-3904120Y-1194600D02*
X-3904120Y-1294600D01*
X-3854120Y-1244600D02*
X-3954120Y-1244600D01*
D105*
X-3975370Y-1268350D02*
X-3987245Y-1280225D01*
X-4022870Y-1280225D01*
X-4046620Y-1256475D01*
X-4046620Y-1232725D01*
X-4022870Y-1208975D01*
X-3987245Y-1208975D01*
X-3975370Y-1220850D01*
X-3951620Y-1280225D02*
X-3951620Y-1232725D01*
X-3927870Y-1208975D01*
X-3904120Y-1208975D01*
X-3880370Y-1232725D01*
X-3880370Y-1280225D01*
X-3951620Y-1256475D02*
X-3880370Y-1256475D01*
X-3785370Y-1256475D02*
X-3856620Y-1256475D01*
X-3809120Y-1208975D01*
X-3809120Y-1280225D01*
D101*
X-4131500Y+647000D02*
X-3661500Y+647000D01*
X-3661500Y+877000D01*
X-4131500Y+877000D01*
X-4131500Y+647000D01*
X-3896500Y+812000D02*
X-3896500Y+712000D01*
X-3846500Y+762000D02*
X-3946500Y+762000D01*
D105*
X-3967750Y+738250D02*
X-3979625Y+726375D01*
X-4015250Y+726375D01*
X-4039000Y+750125D01*
X-4039000Y+773875D01*
X-4015250Y+797625D01*
X-3979625Y+797625D01*
X-3967750Y+785750D01*
X-3944000Y+726375D02*
X-3944000Y+773875D01*
X-3920250Y+797625D01*
X-3896500Y+797625D01*
X-3872750Y+773875D01*
X-3872750Y+726375D01*
X-3944000Y+750125D02*
X-3872750Y+750125D01*
X-3777750Y+797625D02*
X-3837125Y+797625D01*
X-3837125Y+773875D01*
X-3789625Y+773875D01*
X-3777750Y+762000D01*
X-3777750Y+738250D01*
X-3789625Y+726375D01*
X-3825250Y+726375D01*
X-3837125Y+738250D01*
D101*
X-4741000Y-2361500D02*
X-5211000Y-2361500D01*
X-5211000Y-2591500D01*
X-4741000Y-2591500D01*
X-4741000Y-2361500D01*
X-4976000Y-2526500D02*
X-4976000Y-2426500D01*
X-5026000Y-2476500D02*
X-4926000Y-2476500D01*
D116*
X-5071000Y-2495500D02*
X-5080500Y-2505000D01*
X-5109000Y-2505000D01*
X-5128000Y-2486000D01*
X-5128000Y-2467000D01*
X-5109000Y-2448000D01*
X-5080500Y-2448000D01*
X-5071000Y-2457500D01*
X-5052000Y-2448000D02*
X-5052000Y-2476500D01*
X-5023500Y-2505000D01*
X-4995000Y-2476500D01*
X-4995000Y-2448000D01*
X-4957000Y-2467000D02*
X-4938000Y-2448000D01*
X-4938000Y-2505000D01*
X-4881000Y-2467000D02*
X-4862000Y-2448000D01*
X-4862000Y-2505000D01*
D101*
X-4965000Y-1391000D02*
X-4965000Y-931000D01*
X-5195000Y-931000D01*
X-5195000Y-1391000D01*
X-4965000Y-1391000D01*
X-5130000Y-1161000D02*
X-5030000Y-1161000D01*
X-5080000Y-1111000D02*
X-5080000Y-1211000D01*
D111*
X-5045125Y-1300500D02*
X-5114875Y-1300500D01*
X-5114875Y-1242375D01*
X-5103250Y-1230750D01*
X-5091625Y-1230750D01*
X-5080000Y-1242375D01*
X-5080000Y-1300500D01*
X-5080000Y-1242375D02*
X-5068375Y-1230750D01*
X-5045125Y-1230750D01*
X-5114875Y-1207500D02*
X-5080000Y-1207500D01*
X-5045125Y-1172625D01*
X-5080000Y-1137750D01*
X-5114875Y-1137750D01*
X-5080000Y-1091250D02*
X-5091625Y-1102875D01*
X-5103250Y-1102875D01*
X-5114875Y-1091250D01*
X-5114875Y-1056375D01*
X-5103250Y-1044750D01*
X-5091625Y-1044750D01*
X-5080000Y-1056375D01*
X-5080000Y-1091250D01*
X-5068375Y-1102875D01*
X-5056750Y-1102875D01*
X-5045125Y-1091250D01*
X-5045125Y-1056375D01*
X-5056750Y-1044750D01*
X-5068375Y-1044750D01*
X-5080000Y-1056375D01*
D101*
X-4741000Y-2615500D02*
X-5201000Y-2615500D01*
X-5201000Y-2845500D01*
X-4741000Y-2845500D01*
X-4741000Y-2615500D01*
X-4971000Y-2780500D02*
X-4971000Y-2680500D01*
X-5021000Y-2730500D02*
X-4921000Y-2730500D01*
D111*
X-5110500Y-2765375D02*
X-5110500Y-2695625D01*
X-5052375Y-2695625D01*
X-5040750Y-2707250D01*
X-5040750Y-2718875D01*
X-5052375Y-2730500D01*
X-5110500Y-2730500D01*
X-5052375Y-2730500D02*
X-5040750Y-2742125D01*
X-5040750Y-2765375D01*
X-5017500Y-2695625D02*
X-5017500Y-2730500D01*
X-4982625Y-2765375D01*
X-4947750Y-2730500D01*
X-4947750Y-2695625D01*
X-4854750Y-2718875D02*
X-4866375Y-2730500D01*
X-4901250Y-2730500D01*
X-4912875Y-2718875D01*
X-4912875Y-2707250D01*
X-4901250Y-2695625D01*
X-4866375Y-2695625D01*
X-4854750Y-2707250D01*
X-4854750Y-2753750D01*
X-4866375Y-2765375D01*
X-4901250Y-2765375D01*
D41*
X-5344160Y-3185160D02*
X-5069840Y-3185160D01*
X-5069840Y-2910840D01*
X-5344160Y-2910840D01*
X-5344160Y-3185160D01*
D124*
X-5306750Y-3040519D02*
X-5306750Y-3048000D01*
X-5299269Y-3055482D01*
X-5291788Y-3048000D01*
X-5291788Y-3040519D01*
X-5286800Y-3055482D02*
X-5286800Y-3040519D01*
X-5271838Y-3040519D01*
X-5286800Y-3048000D02*
X-5276825Y-3048000D01*
X-5266850Y-3055482D02*
X-5266850Y-3040519D01*
X-5254382Y-3040519D01*
X-5251888Y-3043013D01*
X-5251888Y-3045507D01*
X-5254382Y-3048000D01*
X-5251888Y-3050494D01*
X-5251888Y-3052988D01*
X-5254382Y-3055482D01*
X-5266850Y-3055482D01*
X-5266850Y-3048000D02*
X-5254382Y-3048000D01*
X-5246900Y-3057976D02*
X-5231938Y-3057976D01*
X-5226950Y-3052988D02*
X-5224457Y-3055482D01*
X-5214482Y-3055482D01*
X-5211988Y-3052988D01*
X-5211988Y-3050494D01*
X-5214482Y-3048000D01*
X-5224457Y-3048000D01*
X-5226950Y-3045507D01*
X-5226950Y-3043013D01*
X-5224457Y-3040519D01*
X-5214482Y-3040519D01*
X-5211988Y-3043013D01*
X-5207000Y-3040519D02*
X-5207000Y-3052988D01*
X-5204507Y-3055482D01*
X-5194532Y-3055482D01*
X-5192038Y-3052988D01*
X-5192038Y-3040519D01*
X-5187050Y-3055482D02*
X-5187050Y-3040519D01*
X-5174582Y-3040519D01*
X-5172088Y-3043013D01*
X-5172088Y-3045507D01*
X-5174582Y-3048000D01*
X-5187050Y-3048000D01*
X-5167100Y-3055482D02*
X-5167100Y-3040519D01*
X-5154632Y-3040519D01*
X-5152138Y-3043013D01*
X-5152138Y-3045507D01*
X-5154632Y-3048000D01*
X-5167100Y-3048000D01*
X-5147150Y-3040519D02*
X-5147150Y-3055482D01*
X-5132188Y-3055482D01*
X-5112238Y-3040519D02*
X-5127200Y-3055482D01*
X-5127200Y-3040519D02*
X-5119719Y-3048000D01*
D41*
X-5344160Y-3439160D02*
X-5069840Y-3439160D01*
X-5069840Y-3164840D01*
X-5344160Y-3164840D01*
X-5344160Y-3439160D01*
D125*
X-5289296Y-3281426D02*
X-5289296Y-3302000D01*
X-5268722Y-3322574D01*
X-5248148Y-3302000D01*
X-5248148Y-3281426D01*
X-5193284Y-3281426D02*
X-5227574Y-3281426D01*
X-5227574Y-3295142D01*
X-5200142Y-3295142D01*
X-5193284Y-3302000D01*
X-5193284Y-3315716D01*
X-5200142Y-3322574D01*
X-5220716Y-3322574D01*
X-5227574Y-3315716D01*
X-5179568Y-3302000D02*
X-5138420Y-3302000D01*
X-5158994Y-3288284D02*
X-5158994Y-3315716D01*
D41*
X-5344160Y-3693160D02*
X-5069840Y-3693160D01*
X-5069840Y-3418840D01*
X-5344160Y-3418840D01*
X-5344160Y-3693160D01*
D125*
X-5289296Y-3535426D02*
X-5289296Y-3556000D01*
X-5268722Y-3576574D01*
X-5248148Y-3556000D01*
X-5248148Y-3535426D01*
X-5193284Y-3535426D02*
X-5227574Y-3535426D01*
X-5227574Y-3549142D01*
X-5200142Y-3549142D01*
X-5193284Y-3556000D01*
X-5193284Y-3569716D01*
X-5200142Y-3576574D01*
X-5220716Y-3576574D01*
X-5227574Y-3569716D01*
X-5172710Y-3556000D02*
X-5138420Y-3556000D01*
D41*
X-4770120Y-2076450D02*
X-3602990Y-2076450D01*
X-3602990Y-1377950D01*
X-4770120Y-1377950D01*
X-4770120Y-2076450D01*
D126*
X-4497789Y-1610487D02*
X-4497789Y-1805009D01*
X-4458885Y-1843913D01*
X-4303268Y-1843913D01*
X-4264364Y-1805009D01*
X-4264364Y-1610487D01*
X-4108747Y-1688296D02*
X-4030938Y-1610487D01*
X-4030938Y-1843913D01*
D41*
X-4794250Y-1111250D02*
X-3627120Y-1111250D01*
X-3627120Y-412750D01*
X-4794250Y-412750D01*
X-4794250Y-1111250D01*
D126*
X-4521919Y-645287D02*
X-4521919Y-839809D01*
X-4483015Y-878713D01*
X-4327398Y-878713D01*
X-4288494Y-839809D01*
X-4288494Y-645287D01*
X-4171781Y-684191D02*
X-4132877Y-645287D01*
X-4016164Y-645287D01*
X-3977260Y-684191D01*
X-3977260Y-723096D01*
X-4016164Y-762000D01*
X-4132877Y-762000D01*
X-4171781Y-800904D01*
X-4171781Y-878713D01*
X-3977260Y-878713D01*
D41*
X-4794250Y-158750D02*
X-3627120Y-158750D01*
X-3627120Y+539750D01*
X-4794250Y+539750D01*
X-4794250Y-158750D01*
D126*
X-4521919Y+307213D02*
X-4521919Y+112691D01*
X-4483015Y+73787D01*
X-4327398Y+73787D01*
X-4288494Y+112691D01*
X-4288494Y+307213D01*
X-4171781Y+268309D02*
X-4132877Y+307213D01*
X-4016164Y+307213D01*
X-3977260Y+268309D01*
X-3977260Y+229404D01*
X-4016164Y+190500D01*
X-3977260Y+151596D01*
X-3977260Y+112691D01*
X-4016164Y+73787D01*
X-4132877Y+73787D01*
X-4171781Y+112691D01*
X-4093973Y+190500D02*
X-4016164Y+190500D01*
D101*
X-4728120Y-1359600D02*
X-4258120Y-1359600D01*
X-4258120Y-1129600D01*
X-4728120Y-1129600D01*
X-4728120Y-1359600D01*
X-4493120Y-1194600D02*
X-4493120Y-1294600D01*
X-4443120Y-1244600D02*
X-4543120Y-1244600D01*
D105*
X-4564370Y-1268350D02*
X-4576245Y-1280225D01*
X-4611870Y-1280225D01*
X-4635620Y-1256475D01*
X-4635620Y-1232725D01*
X-4611870Y-1208975D01*
X-4576245Y-1208975D01*
X-4564370Y-1220850D01*
X-4540620Y-1280225D02*
X-4540620Y-1232725D01*
X-4516870Y-1208975D01*
X-4493120Y-1208975D01*
X-4469370Y-1232725D01*
X-4469370Y-1280225D01*
X-4540620Y-1256475D02*
X-4469370Y-1256475D01*
X-4433745Y-1208975D02*
X-4374370Y-1208975D01*
X-4374370Y-1220850D01*
X-4433745Y-1280225D01*
D41*
X-5344160Y-3947160D02*
X-5069840Y-3947160D01*
X-5069840Y-3672840D01*
X-5344160Y-3672840D01*
X-5344160Y-3947160D01*
D104*
X-5289296Y-3799028D02*
X-5283810Y-3793541D01*
X-5267351Y-3793541D01*
X-5261864Y-3799028D01*
X-5261864Y-3804514D01*
X-5267351Y-3810000D01*
X-5261864Y-3815487D01*
X-5261864Y-3820973D01*
X-5267351Y-3826460D01*
X-5283810Y-3826460D01*
X-5289296Y-3820973D01*
X-5278323Y-3810000D02*
X-5267351Y-3810000D01*
X-5250891Y-3793541D02*
X-5250891Y-3810000D01*
X-5234432Y-3826460D01*
X-5217973Y-3810000D01*
X-5217973Y-3793541D01*
X-5201514Y-3799028D02*
X-5196028Y-3793541D01*
X-5179569Y-3793541D01*
X-5174082Y-3799028D01*
X-5174082Y-3804514D01*
X-5179569Y-3810000D01*
X-5174082Y-3815487D01*
X-5174082Y-3820973D01*
X-5179569Y-3826460D01*
X-5196028Y-3826460D01*
X-5201514Y-3820973D01*
X-5190541Y-3810000D02*
X-5179569Y-3810000D01*
X-5163109Y-3810000D02*
X-5130191Y-3810000D01*
X-5146650Y-3799028D02*
X-5146650Y-3820973D01*
D41*
X-4772660Y+1767840D02*
X-4498340Y+1767840D01*
X-4498340Y+2042160D01*
X-4772660Y+2042160D01*
X-4772660Y+1767840D01*
D104*
X-4651959Y+1817218D02*
X-4635500Y+1817218D01*
X-4619040Y+1833677D01*
X-4635500Y+1850136D01*
X-4651959Y+1850136D01*
X-4640986Y+1872081D02*
X-4651959Y+1883054D01*
X-4619040Y+1883054D01*
X-4651959Y+1905000D02*
X-4619040Y+1905000D01*
X-4619040Y+1937918D01*
X-4624527Y+1948891D02*
X-4619040Y+1954377D01*
X-4619040Y+1976322D01*
X-4624527Y+1981809D01*
X-4630013Y+1981809D01*
X-4635500Y+1976322D01*
X-4635500Y+1954377D01*
X-4640986Y+1948891D01*
X-4646472Y+1948891D01*
X-4651959Y+1954377D01*
X-4651959Y+1976322D01*
X-4646472Y+1981809D01*
D101*
X-2498000Y-2528000D02*
X-2038000Y-2528000D01*
X-2038000Y-2298000D01*
X-2498000Y-2298000D01*
X-2498000Y-2528000D01*
X-2268000Y-2363000D02*
X-2268000Y-2463000D01*
X-2218000Y-2413000D02*
X-2318000Y-2413000D01*
D115*
X-2416800Y-2440900D02*
X-2416800Y-2385100D01*
X-2370300Y-2385100D01*
X-2361000Y-2394400D01*
X-2361000Y-2403700D01*
X-2370300Y-2413000D01*
X-2416800Y-2413000D01*
X-2370300Y-2413000D02*
X-2361000Y-2422300D01*
X-2361000Y-2440900D01*
X-2342400Y-2385100D02*
X-2342400Y-2413000D01*
X-2314500Y-2440900D01*
X-2286600Y-2413000D01*
X-2286600Y-2385100D01*
X-2249400Y-2403700D02*
X-2230800Y-2385100D01*
X-2230800Y-2440900D01*
X-2175000Y-2413000D02*
X-2184300Y-2403700D01*
X-2184300Y-2394400D01*
X-2175000Y-2385100D01*
X-2147100Y-2385100D01*
X-2137800Y-2394400D01*
X-2137800Y-2403700D01*
X-2147100Y-2413000D01*
X-2175000Y-2413000D01*
X-2184300Y-2422300D01*
X-2184300Y-2431600D01*
X-2175000Y-2440900D01*
X-2147100Y-2440900D01*
X-2137800Y-2431600D01*
X-2137800Y-2422300D01*
X-2147100Y-2413000D01*
D101*
X-275500Y-2528000D02*
X+184500Y-2528000D01*
X+184500Y-2298000D01*
X-275500Y-2298000D01*
X-275500Y-2528000D01*
X-45500Y-2363000D02*
X-45500Y-2463000D01*
X+4500Y-2413000D02*
X-95500Y-2413000D01*
D115*
X-194300Y-2440900D02*
X-194300Y-2385100D01*
X-147800Y-2385100D01*
X-138500Y-2394400D01*
X-138500Y-2403700D01*
X-147800Y-2413000D01*
X-194300Y-2413000D01*
X-147800Y-2413000D02*
X-138500Y-2422300D01*
X-138500Y-2440900D01*
X-119900Y-2385100D02*
X-119900Y-2413000D01*
X-92000Y-2440900D01*
X-64100Y-2413000D01*
X-64100Y-2385100D01*
X-26900Y-2403700D02*
X-8300Y-2385100D01*
X-8300Y-2440900D01*
X+84700Y-2403700D02*
X+75400Y-2413000D01*
X+47500Y-2413000D01*
X+38200Y-2403700D01*
X+38200Y-2394400D01*
X+47500Y-2385100D01*
X+75400Y-2385100D01*
X+84700Y-2394400D01*
X+84700Y-2431600D01*
X+75400Y-2440900D01*
X+47500Y-2440900D01*
D101*
X+2010500Y-2528000D02*
X+2470500Y-2528000D01*
X+2470500Y-2298000D01*
X+2010500Y-2298000D01*
X+2010500Y-2528000D01*
X+2240500Y-2363000D02*
X+2240500Y-2463000D01*
X+2290500Y-2413000D02*
X+2190500Y-2413000D01*
D115*
X+2091700Y-2440900D02*
X+2091700Y-2385100D01*
X+2138200Y-2385100D01*
X+2147500Y-2394400D01*
X+2147500Y-2403700D01*
X+2138200Y-2413000D01*
X+2091700Y-2413000D01*
X+2138200Y-2413000D02*
X+2147500Y-2422300D01*
X+2147500Y-2440900D01*
X+2166100Y-2385100D02*
X+2166100Y-2413000D01*
X+2194000Y-2440900D01*
X+2221900Y-2413000D01*
X+2221900Y-2385100D01*
X+2249800Y-2394400D02*
X+2259100Y-2385100D01*
X+2287000Y-2385100D01*
X+2296300Y-2394400D01*
X+2296300Y-2403700D01*
X+2287000Y-2413000D01*
X+2296300Y-2422300D01*
X+2296300Y-2431600D01*
X+2287000Y-2440900D01*
X+2259100Y-2440900D01*
X+2249800Y-2431600D01*
X+2268400Y-2413000D02*
X+2287000Y-2413000D01*
X+2314900Y-2431600D02*
X+2314900Y-2394400D01*
X+2324200Y-2385100D01*
X+2361400Y-2385100D01*
X+2370700Y-2394400D01*
X+2370700Y-2431600D01*
X+2361400Y-2440900D01*
X+2324200Y-2440900D01*
X+2314900Y-2431600D01*
X+2314900Y-2440900D02*
X+2370700Y-2385100D01*
D101*
X+4296500Y-2528000D02*
X+4756500Y-2528000D01*
X+4756500Y-2298000D01*
X+4296500Y-2298000D01*
X+4296500Y-2528000D01*
X+4526500Y-2363000D02*
X+4526500Y-2463000D01*
X+4576500Y-2413000D02*
X+4476500Y-2413000D01*
D115*
X+4377700Y-2440900D02*
X+4377700Y-2385100D01*
X+4424200Y-2385100D01*
X+4433500Y-2394400D01*
X+4433500Y-2403700D01*
X+4424200Y-2413000D01*
X+4377700Y-2413000D01*
X+4424200Y-2413000D02*
X+4433500Y-2422300D01*
X+4433500Y-2440900D01*
X+4452100Y-2385100D02*
X+4452100Y-2413000D01*
X+4480000Y-2440900D01*
X+4507900Y-2413000D01*
X+4507900Y-2385100D01*
X+4535800Y-2394400D02*
X+4545100Y-2385100D01*
X+4573000Y-2385100D01*
X+4582300Y-2394400D01*
X+4582300Y-2403700D01*
X+4573000Y-2413000D01*
X+4582300Y-2422300D01*
X+4582300Y-2431600D01*
X+4573000Y-2440900D01*
X+4545100Y-2440900D01*
X+4535800Y-2431600D01*
X+4554400Y-2413000D02*
X+4573000Y-2413000D01*
X+4619500Y-2403700D02*
X+4638100Y-2385100D01*
X+4638100Y-2440900D01*
D101*
X+6646000Y-2528000D02*
X+7106000Y-2528000D01*
X+7106000Y-2298000D01*
X+6646000Y-2298000D01*
X+6646000Y-2528000D01*
X+6876000Y-2363000D02*
X+6876000Y-2463000D01*
X+6926000Y-2413000D02*
X+6826000Y-2413000D01*
D115*
X+6727200Y-2440900D02*
X+6727200Y-2385100D01*
X+6773700Y-2385100D01*
X+6783000Y-2394400D01*
X+6783000Y-2403700D01*
X+6773700Y-2413000D01*
X+6727200Y-2413000D01*
X+6773700Y-2413000D02*
X+6783000Y-2422300D01*
X+6783000Y-2440900D01*
X+6801600Y-2385100D02*
X+6801600Y-2413000D01*
X+6829500Y-2440900D01*
X+6857400Y-2413000D01*
X+6857400Y-2385100D01*
X+6931800Y-2422300D02*
X+6876000Y-2422300D01*
X+6913200Y-2385100D01*
X+6913200Y-2440900D01*
X+6959700Y-2394400D02*
X+6969000Y-2385100D01*
X+6996900Y-2385100D01*
X+7006200Y-2394400D01*
X+7006200Y-2403700D01*
X+6996900Y-2413000D01*
X+6969000Y-2413000D01*
X+6959700Y-2422300D01*
X+6959700Y-2440900D01*
X+7006200Y-2440900D01*
D41*
X-7249160Y-635000D02*
X-6212840Y-635000D01*
X-6212840Y+635000D01*
X-7249160Y+635000D01*
X-7249160Y-635000D01*
D127*
X-6646333Y-84667D02*
X-6604000Y-127000D01*
X-6604000Y-254000D01*
X-6688667Y-338666D01*
X-6773333Y-338666D01*
X-6858000Y-254000D01*
X-6858000Y-127000D01*
X-6815667Y-84667D01*
X-6773333Y+84666D02*
X-6858000Y+169333D01*
X-6604000Y+169333D01*
D41*
X-5695950Y-1472080D02*
X-5397500Y-1472080D01*
X-5397500Y-1321920D01*
X-5695950Y-1321920D01*
X-5695950Y-1472080D01*
D128*
X-5618801Y-1424029D02*
X-5618801Y-1369972D01*
X-5582763Y-1369972D01*
X-5564744Y-1387991D01*
X-5564744Y-1406010D01*
X-5582763Y-1424029D01*
X-5618801Y-1424029D01*
X-5528706Y-1387991D02*
X-5510687Y-1369972D01*
X-5510687Y-1424029D01*
D41*
X-7200900Y-1967716D02*
X-5334000Y-1967716D01*
X-5334000Y-824716D01*
X-7200900Y-824716D01*
X-7200900Y-1967716D01*
D129*
X-6765290Y-1333986D02*
X-6640830Y-1209526D01*
X-6516370Y-1209526D01*
X-6391910Y-1333986D01*
X-6391910Y-1458446D01*
X-6516370Y-1582906D01*
X-6640830Y-1582906D01*
X-6765290Y-1458446D01*
X-6765290Y-1333986D01*
X-6516370Y-1458446D02*
X-6391910Y-1582906D01*
X-6142990Y-1333986D02*
X-6018530Y-1209526D01*
X-6018530Y-1582906D01*
D101*
X-5276500Y-1853500D02*
X-5736500Y-1853500D01*
X-5736500Y-2083500D01*
X-5276500Y-2083500D01*
X-5276500Y-1853500D01*
X-5506500Y-2018500D02*
X-5506500Y-1918500D01*
X-5556500Y-1968500D02*
X-5456500Y-1968500D01*
D115*
X-5655300Y-1996400D02*
X-5655300Y-1940600D01*
X-5608800Y-1940600D01*
X-5599500Y-1949900D01*
X-5599500Y-1959200D01*
X-5608800Y-1968500D01*
X-5655300Y-1968500D01*
X-5608800Y-1968500D02*
X-5599500Y-1977800D01*
X-5599500Y-1996400D01*
X-5562300Y-1959200D02*
X-5543700Y-1940600D01*
X-5543700Y-1996400D01*
X-5506500Y-1987100D02*
X-5506500Y-1949900D01*
X-5497200Y-1940600D01*
X-5460000Y-1940600D01*
X-5450700Y-1949900D01*
X-5450700Y-1987100D01*
X-5460000Y-1996400D01*
X-5497200Y-1996400D01*
X-5506500Y-1987100D01*
X-5506500Y-1996400D02*
X-5450700Y-1940600D01*
X-5413500Y-1959200D02*
X-5394900Y-1940600D01*
X-5394900Y-1996400D01*
D41*
X-6223000Y-581660D02*
X-4953000Y-581660D01*
X-4953000Y+454660D01*
X-6223000Y+454660D01*
X-6223000Y-581660D01*
D127*
X-5672667Y-148167D02*
X-5715000Y-190500D01*
X-5842000Y-190500D01*
X-5926666Y-105833D01*
X-5926666Y-21167D01*
X-5842000Y+63500D01*
X-5715000Y+63500D01*
X-5672667Y+21167D01*
X-5545667Y+21167D02*
X-5503334Y+63500D01*
X-5376334Y+63500D01*
X-5334001Y+21167D01*
X-5334001Y-21167D01*
X-5376334Y-63500D01*
X-5503334Y-63500D01*
X-5545667Y-105833D01*
X-5545667Y-190500D01*
X-5334001Y-190500D01*
D41*
X-6667500Y+624840D02*
X-5397500Y+624840D01*
X-5397500Y+1661160D01*
X-6667500Y+1661160D01*
X-6667500Y+624840D01*
D127*
X-6117167Y+1058333D02*
X-6159500Y+1016000D01*
X-6286500Y+1016000D01*
X-6371166Y+1100667D01*
X-6371166Y+1185333D01*
X-6286500Y+1270000D01*
X-6159500Y+1270000D01*
X-6117167Y+1227667D01*
X-5990167Y+1227667D02*
X-5947834Y+1270000D01*
X-5820834Y+1270000D01*
X-5778501Y+1227667D01*
X-5778501Y+1185333D01*
X-5820834Y+1143000D01*
X-5778501Y+1100667D01*
X-5778501Y+1058333D01*
X-5820834Y+1016000D01*
X-5947834Y+1016000D01*
X-5990167Y+1058333D01*
X-5905501Y+1143000D02*
X-5820834Y+1143000D01*
M02*
