G04 PROTEUS GERBER X2 FILE*
%TF.GenerationSoftware,Labcenter,Proteus,8.7-SP3-Build25561*%
%TF.CreationDate,2021-05-23T19:28:46+00:00*%
%TF.FileFunction,Legend,Bot*%
%TF.FilePolarity,Positive*%
%TF.Part,Single*%
%TF.SameCoordinates,{ce74c1e3-353a-4a96-b4f4-cabdf69041bd}*%
%FSLAX45Y45*%
%MOMM*%
G01*
%TA.AperFunction,Profile*%
%ADD38C,0.203200*%
%TA.AperFunction,Material*%
%ADD41C,0.203200*%
%ADD42C,0.250000*%
%ADD40C,0.200000*%
%ADD43C,0.101600*%
%TD.AperFunction*%
D38*
X-7429500Y-4254500D02*
X+8509000Y-4254500D01*
X+8509000Y+2921000D01*
X-7429500Y+2921000D01*
X-7429500Y-4254500D01*
D41*
X+8051800Y-1424940D02*
X+8140700Y-1424940D01*
X+8158480Y-1536700D02*
X+8229600Y-1536700D01*
X+8051800Y-1424940D02*
X+8051800Y-1516380D01*
X+8341360Y-1518920D02*
X+8341360Y-1424940D01*
X+8255000Y-1424940D01*
X+8191500Y+452120D02*
X+8191500Y+375920D01*
X+7556500Y+375920D01*
X+7556500Y+452120D01*
X+7912100Y+375920D02*
X+7912100Y+325120D01*
X+7835900Y+325120D01*
X+7835900Y+375920D01*
X+8140700Y+375920D02*
X+8140700Y+299720D01*
X+8077200Y+299720D01*
X+8077200Y+375920D01*
X+7607300Y+375920D02*
X+7607300Y+299720D01*
X+7670800Y+299720D01*
X+7670800Y+375920D02*
X+7670800Y+299720D01*
X+5638800Y-1424940D02*
X+5727700Y-1424940D01*
X+5745480Y-1536700D02*
X+5816600Y-1536700D01*
X+5638800Y-1424940D02*
X+5638800Y-1516380D01*
X+5928360Y-1518920D02*
X+5928360Y-1424940D01*
X+5842000Y-1424940D01*
X+5778500Y+452120D02*
X+5778500Y+375920D01*
X+5143500Y+375920D01*
X+5143500Y+452120D01*
X+5499100Y+375920D02*
X+5499100Y+325120D01*
X+5422900Y+325120D01*
X+5422900Y+375920D01*
X+5727700Y+375920D02*
X+5727700Y+299720D01*
X+5664200Y+299720D01*
X+5664200Y+375920D01*
X+5194300Y+375920D02*
X+5194300Y+299720D01*
X+5257800Y+299720D01*
X+5257800Y+375920D02*
X+5257800Y+299720D01*
X+3225800Y-1424940D02*
X+3314700Y-1424940D01*
X+3332480Y-1536700D02*
X+3403600Y-1536700D01*
X+3225800Y-1424940D02*
X+3225800Y-1516380D01*
X+3515360Y-1518920D02*
X+3515360Y-1424940D01*
X+3429000Y-1424940D01*
X+3365500Y+452120D02*
X+3365500Y+375920D01*
X+2730500Y+375920D01*
X+2730500Y+452120D01*
X+3086100Y+375920D02*
X+3086100Y+325120D01*
X+3009900Y+325120D01*
X+3009900Y+375920D01*
X+3314700Y+375920D02*
X+3314700Y+299720D01*
X+3251200Y+299720D01*
X+3251200Y+375920D01*
X+2781300Y+375920D02*
X+2781300Y+299720D01*
X+2844800Y+299720D01*
X+2844800Y+375920D02*
X+2844800Y+299720D01*
X+812800Y-1424940D02*
X+901700Y-1424940D01*
X+919480Y-1536700D02*
X+990600Y-1536700D01*
X+812800Y-1424940D02*
X+812800Y-1516380D01*
X+1102360Y-1518920D02*
X+1102360Y-1424940D01*
X+1016000Y-1424940D01*
X+952500Y+452120D02*
X+952500Y+375920D01*
X+317500Y+375920D01*
X+317500Y+452120D01*
X+673100Y+375920D02*
X+673100Y+325120D01*
X+596900Y+325120D01*
X+596900Y+375920D01*
X+901700Y+375920D02*
X+901700Y+299720D01*
X+838200Y+299720D01*
X+838200Y+375920D01*
X+368300Y+375920D02*
X+368300Y+299720D01*
X+431800Y+299720D01*
X+431800Y+375920D02*
X+431800Y+299720D01*
X-1600200Y-1424940D02*
X-1511300Y-1424940D01*
X-1493520Y-1536700D02*
X-1422400Y-1536700D01*
X-1600200Y-1424940D02*
X-1600200Y-1516380D01*
X-1310640Y-1518920D02*
X-1310640Y-1424940D01*
X-1397000Y-1424940D01*
X-1460500Y+452120D02*
X-1460500Y+375920D01*
X-2095500Y+375920D01*
X-2095500Y+452120D01*
X-1739900Y+375920D02*
X-1739900Y+325120D01*
X-1816100Y+325120D01*
X-1816100Y+375920D01*
X-1511300Y+375920D02*
X-1511300Y+299720D01*
X-1574800Y+299720D01*
X-1574800Y+375920D01*
X-2044700Y+375920D02*
X-2044700Y+299720D01*
X-1981200Y+299720D01*
X-1981200Y+375920D02*
X-1981200Y+299720D01*
D42*
X+7259100Y+834620D02*
X+7259057Y+835659D01*
X+7258705Y+837738D01*
X+7257968Y+839817D01*
X+7256764Y+841896D01*
X+7254923Y+843946D01*
X+7252844Y+845449D01*
X+7250765Y+846406D01*
X+7248686Y+846945D01*
X+7246607Y+847120D01*
X+7246600Y+847120D01*
X+7234100Y+834620D02*
X+7234143Y+835659D01*
X+7234495Y+837738D01*
X+7235232Y+839817D01*
X+7236436Y+841896D01*
X+7238277Y+843946D01*
X+7240356Y+845449D01*
X+7242435Y+846406D01*
X+7244514Y+846945D01*
X+7246593Y+847120D01*
X+7246600Y+847120D01*
X+7234100Y+834620D02*
X+7234143Y+833581D01*
X+7234495Y+831502D01*
X+7235232Y+829423D01*
X+7236436Y+827344D01*
X+7238277Y+825294D01*
X+7240356Y+823791D01*
X+7242435Y+822834D01*
X+7244514Y+822295D01*
X+7246593Y+822120D01*
X+7246600Y+822120D01*
X+7259100Y+834620D02*
X+7259057Y+833581D01*
X+7258705Y+831502D01*
X+7257968Y+829423D01*
X+7256764Y+827344D01*
X+7254923Y+825294D01*
X+7252844Y+823791D01*
X+7250765Y+822834D01*
X+7248686Y+822295D01*
X+7246607Y+822120D01*
X+7246600Y+822120D01*
D40*
X+7231600Y+899620D02*
X+7276600Y+899620D01*
X+7276600Y+1459620D01*
X+7231600Y+1459620D01*
X+6941600Y+899620D02*
X+6896600Y+899620D01*
X+6896600Y+1459620D01*
X+6941600Y+1459620D01*
D43*
X+7969100Y-1793340D02*
X+8109100Y-1793340D01*
X+7969100Y-1813340D02*
X+8109100Y-1813340D01*
X+7969100Y-1923340D02*
X+8109100Y-1923340D01*
X+8109100Y-1763340D01*
X+7969100Y-1763340D01*
X+7969100Y-1923340D01*
D42*
X+4846100Y+834620D02*
X+4846057Y+835659D01*
X+4845705Y+837738D01*
X+4844968Y+839817D01*
X+4843764Y+841896D01*
X+4841923Y+843946D01*
X+4839844Y+845449D01*
X+4837765Y+846406D01*
X+4835686Y+846945D01*
X+4833607Y+847120D01*
X+4833600Y+847120D01*
X+4821100Y+834620D02*
X+4821143Y+835659D01*
X+4821495Y+837738D01*
X+4822232Y+839817D01*
X+4823436Y+841896D01*
X+4825277Y+843946D01*
X+4827356Y+845449D01*
X+4829435Y+846406D01*
X+4831514Y+846945D01*
X+4833593Y+847120D01*
X+4833600Y+847120D01*
X+4821100Y+834620D02*
X+4821143Y+833581D01*
X+4821495Y+831502D01*
X+4822232Y+829423D01*
X+4823436Y+827344D01*
X+4825277Y+825294D01*
X+4827356Y+823791D01*
X+4829435Y+822834D01*
X+4831514Y+822295D01*
X+4833593Y+822120D01*
X+4833600Y+822120D01*
X+4846100Y+834620D02*
X+4846057Y+833581D01*
X+4845705Y+831502D01*
X+4844968Y+829423D01*
X+4843764Y+827344D01*
X+4841923Y+825294D01*
X+4839844Y+823791D01*
X+4837765Y+822834D01*
X+4835686Y+822295D01*
X+4833607Y+822120D01*
X+4833600Y+822120D01*
D40*
X+4818600Y+899620D02*
X+4863600Y+899620D01*
X+4863600Y+1459620D01*
X+4818600Y+1459620D01*
X+4528600Y+899620D02*
X+4483600Y+899620D01*
X+4483600Y+1459620D01*
X+4528600Y+1459620D01*
D43*
X+5556100Y-1793340D02*
X+5696100Y-1793340D01*
X+5556100Y-1813340D02*
X+5696100Y-1813340D01*
X+5556100Y-1923340D02*
X+5696100Y-1923340D01*
X+5696100Y-1763340D01*
X+5556100Y-1763340D01*
X+5556100Y-1923340D01*
D42*
X+2433100Y+834620D02*
X+2433057Y+835659D01*
X+2432705Y+837738D01*
X+2431968Y+839817D01*
X+2430764Y+841896D01*
X+2428923Y+843946D01*
X+2426844Y+845449D01*
X+2424765Y+846406D01*
X+2422686Y+846945D01*
X+2420607Y+847120D01*
X+2420600Y+847120D01*
X+2408100Y+834620D02*
X+2408143Y+835659D01*
X+2408495Y+837738D01*
X+2409232Y+839817D01*
X+2410436Y+841896D01*
X+2412277Y+843946D01*
X+2414356Y+845449D01*
X+2416435Y+846406D01*
X+2418514Y+846945D01*
X+2420593Y+847120D01*
X+2420600Y+847120D01*
X+2408100Y+834620D02*
X+2408143Y+833581D01*
X+2408495Y+831502D01*
X+2409232Y+829423D01*
X+2410436Y+827344D01*
X+2412277Y+825294D01*
X+2414356Y+823791D01*
X+2416435Y+822834D01*
X+2418514Y+822295D01*
X+2420593Y+822120D01*
X+2420600Y+822120D01*
X+2433100Y+834620D02*
X+2433057Y+833581D01*
X+2432705Y+831502D01*
X+2431968Y+829423D01*
X+2430764Y+827344D01*
X+2428923Y+825294D01*
X+2426844Y+823791D01*
X+2424765Y+822834D01*
X+2422686Y+822295D01*
X+2420607Y+822120D01*
X+2420600Y+822120D01*
D40*
X+2405600Y+899620D02*
X+2450600Y+899620D01*
X+2450600Y+1459620D01*
X+2405600Y+1459620D01*
X+2115600Y+899620D02*
X+2070600Y+899620D01*
X+2070600Y+1459620D01*
X+2115600Y+1459620D01*
D43*
X+3143100Y-1793340D02*
X+3283100Y-1793340D01*
X+3143100Y-1813340D02*
X+3283100Y-1813340D01*
X+3143100Y-1923340D02*
X+3283100Y-1923340D01*
X+3283100Y-1763340D01*
X+3143100Y-1763340D01*
X+3143100Y-1923340D01*
D42*
X+20100Y+834620D02*
X+20057Y+835659D01*
X+19705Y+837738D01*
X+18968Y+839817D01*
X+17764Y+841896D01*
X+15923Y+843946D01*
X+13844Y+845449D01*
X+11765Y+846406D01*
X+9686Y+846945D01*
X+7607Y+847120D01*
X+7600Y+847120D01*
X-4900Y+834620D02*
X-4857Y+835659D01*
X-4505Y+837738D01*
X-3768Y+839817D01*
X-2564Y+841896D01*
X-723Y+843946D01*
X+1356Y+845449D01*
X+3435Y+846406D01*
X+5514Y+846945D01*
X+7593Y+847120D01*
X+7600Y+847120D01*
X-4900Y+834620D02*
X-4857Y+833581D01*
X-4505Y+831502D01*
X-3768Y+829423D01*
X-2564Y+827344D01*
X-723Y+825294D01*
X+1356Y+823791D01*
X+3435Y+822834D01*
X+5514Y+822295D01*
X+7593Y+822120D01*
X+7600Y+822120D01*
X+20100Y+834620D02*
X+20057Y+833581D01*
X+19705Y+831502D01*
X+18968Y+829423D01*
X+17764Y+827344D01*
X+15923Y+825294D01*
X+13844Y+823791D01*
X+11765Y+822834D01*
X+9686Y+822295D01*
X+7607Y+822120D01*
X+7600Y+822120D01*
D40*
X-7400Y+899620D02*
X+37600Y+899620D01*
X+37600Y+1459620D01*
X-7400Y+1459620D01*
X-297400Y+899620D02*
X-342400Y+899620D01*
X-342400Y+1459620D01*
X-297400Y+1459620D01*
D43*
X+730100Y-1793340D02*
X+870100Y-1793340D01*
X+730100Y-1813340D02*
X+870100Y-1813340D01*
X+730100Y-1923340D02*
X+870100Y-1923340D01*
X+870100Y-1763340D01*
X+730100Y-1763340D01*
X+730100Y-1923340D01*
D42*
X-2392900Y+834620D02*
X-2392943Y+835659D01*
X-2393295Y+837738D01*
X-2394032Y+839817D01*
X-2395236Y+841896D01*
X-2397077Y+843946D01*
X-2399156Y+845449D01*
X-2401235Y+846406D01*
X-2403314Y+846945D01*
X-2405393Y+847120D01*
X-2405400Y+847120D01*
X-2417900Y+834620D02*
X-2417857Y+835659D01*
X-2417505Y+837738D01*
X-2416768Y+839817D01*
X-2415564Y+841896D01*
X-2413723Y+843946D01*
X-2411644Y+845449D01*
X-2409565Y+846406D01*
X-2407486Y+846945D01*
X-2405407Y+847120D01*
X-2405400Y+847120D01*
X-2417900Y+834620D02*
X-2417857Y+833581D01*
X-2417505Y+831502D01*
X-2416768Y+829423D01*
X-2415564Y+827344D01*
X-2413723Y+825294D01*
X-2411644Y+823791D01*
X-2409565Y+822834D01*
X-2407486Y+822295D01*
X-2405407Y+822120D01*
X-2405400Y+822120D01*
X-2392900Y+834620D02*
X-2392943Y+833581D01*
X-2393295Y+831502D01*
X-2394032Y+829423D01*
X-2395236Y+827344D01*
X-2397077Y+825294D01*
X-2399156Y+823791D01*
X-2401235Y+822834D01*
X-2403314Y+822295D01*
X-2405393Y+822120D01*
X-2405400Y+822120D01*
D40*
X-2420400Y+899620D02*
X-2375400Y+899620D01*
X-2375400Y+1459620D01*
X-2420400Y+1459620D01*
X-2710400Y+899620D02*
X-2755400Y+899620D01*
X-2755400Y+1459620D01*
X-2710400Y+1459620D01*
D43*
X-1682900Y-1793340D02*
X-1542900Y-1793340D01*
X-1682900Y-1813340D02*
X-1542900Y-1813340D01*
X-1682900Y-1923340D02*
X-1542900Y-1923340D01*
X-1542900Y-1763340D01*
X-1682900Y-1763340D01*
X-1682900Y-1923340D01*
D40*
X+6805600Y+463120D02*
X+7205600Y+463120D01*
X+6805600Y-66880D02*
X+7205600Y-66880D01*
X+4329100Y+463120D02*
X+4729100Y+463120D01*
X+4329100Y-66880D02*
X+4729100Y-66880D01*
X+1916100Y+463120D02*
X+2316100Y+463120D01*
X+1916100Y-66880D02*
X+2316100Y-66880D01*
X-496900Y+463120D02*
X-96900Y+463120D01*
X-496900Y-66880D02*
X-96900Y-66880D01*
X-2909900Y+463120D02*
X-2509900Y+463120D01*
X-2909900Y-66880D02*
X-2509900Y-66880D01*
D41*
X+6642100Y+978120D02*
X+6515100Y+851120D01*
X+6134100Y+851120D01*
X+6007100Y+978120D01*
X+6007100Y+1422620D01*
X+6642100Y+1422620D01*
X+6642100Y+978120D01*
X+6515100Y+914620D02*
X+6515100Y+1041620D01*
X+6578600Y+978120D02*
X+6451600Y+978120D01*
X+4229100Y+978120D02*
X+4102100Y+851120D01*
X+3721100Y+851120D01*
X+3594100Y+978120D01*
X+3594100Y+1422620D01*
X+4229100Y+1422620D01*
X+4229100Y+978120D01*
X+4102100Y+914620D02*
X+4102100Y+1041620D01*
X+4165600Y+978120D02*
X+4038600Y+978120D01*
X+1816100Y+978120D02*
X+1689100Y+851120D01*
X+1308100Y+851120D01*
X+1181100Y+978120D01*
X+1181100Y+1422620D01*
X+1816100Y+1422620D01*
X+1816100Y+978120D01*
X+1689100Y+914620D02*
X+1689100Y+1041620D01*
X+1752600Y+978120D02*
X+1625600Y+978120D01*
X-596900Y+978120D02*
X-723900Y+851120D01*
X-1104900Y+851120D01*
X-1231900Y+978120D01*
X-1231900Y+1422620D01*
X-596900Y+1422620D01*
X-596900Y+978120D01*
X-723900Y+914620D02*
X-723900Y+1041620D01*
X-660400Y+978120D02*
X-787400Y+978120D01*
X-3009900Y+978120D02*
X-3136900Y+851120D01*
X-3517900Y+851120D01*
X-3644900Y+978120D01*
X-3644900Y+1422620D01*
X-3009900Y+1422620D01*
X-3009900Y+978120D01*
X-3136900Y+914620D02*
X-3136900Y+1041620D01*
X-3073400Y+978120D02*
X-3200400Y+978120D01*
X+6756400Y-975360D02*
X+6675438Y-975360D01*
X+6673356Y-985981D01*
X+6667636Y-994547D01*
X+6659071Y-1000266D01*
X+6648450Y-1002348D01*
X+6621462Y-975360D02*
X+6623544Y-985981D01*
X+6629264Y-994547D01*
X+6637829Y-1000266D01*
X+6648450Y-1002348D01*
X+6621462Y-975360D02*
X+6540500Y-975360D01*
X+6680200Y-1422400D02*
X+6616700Y-1422400D01*
X+6756400Y-1008380D02*
X+6756400Y-1389380D01*
X+6540500Y-1008380D02*
X+6540500Y-1389380D01*
X+6756400Y-1008380D02*
X+6756400Y-975360D01*
X+6540500Y-975360D02*
X+6540500Y-1008380D01*
X+6616700Y-1422400D02*
X+6540500Y-1422400D01*
X+6540500Y-1389380D01*
X+6756400Y-1389380D02*
X+6756400Y-1422400D01*
X+6680200Y-1422400D01*
X+6731000Y-1024636D02*
X+6730965Y-1023791D01*
X+6730678Y-1022100D01*
X+6730079Y-1020409D01*
X+6729099Y-1018718D01*
X+6727599Y-1017050D01*
X+6725908Y-1015830D01*
X+6724217Y-1015054D01*
X+6722526Y-1014617D01*
X+6720840Y-1014476D01*
X+6710680Y-1024636D02*
X+6710715Y-1023791D01*
X+6711002Y-1022100D01*
X+6711601Y-1020409D01*
X+6712581Y-1018718D01*
X+6714081Y-1017050D01*
X+6715772Y-1015830D01*
X+6717463Y-1015054D01*
X+6719154Y-1014617D01*
X+6720840Y-1014476D01*
X+6710680Y-1024636D02*
X+6710715Y-1025481D01*
X+6711002Y-1027172D01*
X+6711601Y-1028863D01*
X+6712581Y-1030554D01*
X+6714081Y-1032222D01*
X+6715772Y-1033442D01*
X+6717463Y-1034218D01*
X+6719154Y-1034655D01*
X+6720840Y-1034796D01*
X+6731000Y-1024636D02*
X+6730965Y-1025481D01*
X+6730678Y-1027172D01*
X+6730079Y-1028863D01*
X+6729099Y-1030554D01*
X+6727599Y-1032222D01*
X+6725908Y-1033442D01*
X+6724217Y-1034218D01*
X+6722526Y-1034655D01*
X+6720840Y-1034796D01*
X+7881620Y-1948180D02*
X+7881620Y-1867218D01*
X+7870999Y-1865136D01*
X+7862433Y-1859416D01*
X+7856714Y-1850851D01*
X+7854632Y-1840230D01*
X+7881620Y-1813242D02*
X+7870999Y-1815324D01*
X+7862433Y-1821044D01*
X+7856714Y-1829609D01*
X+7854632Y-1840230D01*
X+7881620Y-1813242D02*
X+7881620Y-1732280D01*
X+7434580Y-1871980D02*
X+7434580Y-1808480D01*
X+7848600Y-1948180D02*
X+7467600Y-1948180D01*
X+7848600Y-1732280D02*
X+7467600Y-1732280D01*
X+7848600Y-1948180D02*
X+7881620Y-1948180D01*
X+7881620Y-1732280D02*
X+7848600Y-1732280D01*
X+7434580Y-1808480D02*
X+7434580Y-1732280D01*
X+7467600Y-1732280D01*
X+7467600Y-1948180D02*
X+7434580Y-1948180D01*
X+7434580Y-1871980D01*
X+7842504Y-1912620D02*
X+7842469Y-1911775D01*
X+7842182Y-1910084D01*
X+7841583Y-1908393D01*
X+7840603Y-1906702D01*
X+7839103Y-1905034D01*
X+7837412Y-1903814D01*
X+7835721Y-1903038D01*
X+7834030Y-1902601D01*
X+7832344Y-1902460D01*
X+7822184Y-1912620D02*
X+7822219Y-1911775D01*
X+7822506Y-1910084D01*
X+7823105Y-1908393D01*
X+7824085Y-1906702D01*
X+7825585Y-1905034D01*
X+7827276Y-1903814D01*
X+7828967Y-1903038D01*
X+7830658Y-1902601D01*
X+7832344Y-1902460D01*
X+7822184Y-1912620D02*
X+7822219Y-1913465D01*
X+7822506Y-1915156D01*
X+7823105Y-1916847D01*
X+7824085Y-1918538D01*
X+7825585Y-1920206D01*
X+7827276Y-1921426D01*
X+7828967Y-1922202D01*
X+7830658Y-1922639D01*
X+7832344Y-1922780D01*
X+7842504Y-1912620D02*
X+7842469Y-1913465D01*
X+7842182Y-1915156D01*
X+7841583Y-1916847D01*
X+7840603Y-1918538D01*
X+7839103Y-1920206D01*
X+7837412Y-1921426D01*
X+7835721Y-1922202D01*
X+7834030Y-1922639D01*
X+7832344Y-1922780D01*
X+4279900Y-975360D02*
X+4198938Y-975360D01*
X+4196856Y-985981D01*
X+4191136Y-994547D01*
X+4182571Y-1000266D01*
X+4171950Y-1002348D01*
X+4144962Y-975360D02*
X+4147044Y-985981D01*
X+4152764Y-994547D01*
X+4161329Y-1000266D01*
X+4171950Y-1002348D01*
X+4144962Y-975360D02*
X+4064000Y-975360D01*
X+4203700Y-1422400D02*
X+4140200Y-1422400D01*
X+4279900Y-1008380D02*
X+4279900Y-1389380D01*
X+4064000Y-1008380D02*
X+4064000Y-1389380D01*
X+4279900Y-1008380D02*
X+4279900Y-975360D01*
X+4064000Y-975360D02*
X+4064000Y-1008380D01*
X+4140200Y-1422400D02*
X+4064000Y-1422400D01*
X+4064000Y-1389380D01*
X+4279900Y-1389380D02*
X+4279900Y-1422400D01*
X+4203700Y-1422400D01*
X+4254500Y-1024636D02*
X+4254465Y-1023791D01*
X+4254178Y-1022100D01*
X+4253579Y-1020409D01*
X+4252599Y-1018718D01*
X+4251099Y-1017050D01*
X+4249408Y-1015830D01*
X+4247717Y-1015054D01*
X+4246026Y-1014617D01*
X+4244340Y-1014476D01*
X+4234180Y-1024636D02*
X+4234215Y-1023791D01*
X+4234502Y-1022100D01*
X+4235101Y-1020409D01*
X+4236081Y-1018718D01*
X+4237581Y-1017050D01*
X+4239272Y-1015830D01*
X+4240963Y-1015054D01*
X+4242654Y-1014617D01*
X+4244340Y-1014476D01*
X+4234180Y-1024636D02*
X+4234215Y-1025481D01*
X+4234502Y-1027172D01*
X+4235101Y-1028863D01*
X+4236081Y-1030554D01*
X+4237581Y-1032222D01*
X+4239272Y-1033442D01*
X+4240963Y-1034218D01*
X+4242654Y-1034655D01*
X+4244340Y-1034796D01*
X+4254500Y-1024636D02*
X+4254465Y-1025481D01*
X+4254178Y-1027172D01*
X+4253579Y-1028863D01*
X+4252599Y-1030554D01*
X+4251099Y-1032222D01*
X+4249408Y-1033442D01*
X+4247717Y-1034218D01*
X+4246026Y-1034655D01*
X+4244340Y-1034796D01*
X+5468620Y-1948180D02*
X+5468620Y-1867218D01*
X+5457999Y-1865136D01*
X+5449433Y-1859416D01*
X+5443714Y-1850851D01*
X+5441632Y-1840230D01*
X+5468620Y-1813242D02*
X+5457999Y-1815324D01*
X+5449433Y-1821044D01*
X+5443714Y-1829609D01*
X+5441632Y-1840230D01*
X+5468620Y-1813242D02*
X+5468620Y-1732280D01*
X+5021580Y-1871980D02*
X+5021580Y-1808480D01*
X+5435600Y-1948180D02*
X+5054600Y-1948180D01*
X+5435600Y-1732280D02*
X+5054600Y-1732280D01*
X+5435600Y-1948180D02*
X+5468620Y-1948180D01*
X+5468620Y-1732280D02*
X+5435600Y-1732280D01*
X+5021580Y-1808480D02*
X+5021580Y-1732280D01*
X+5054600Y-1732280D01*
X+5054600Y-1948180D02*
X+5021580Y-1948180D01*
X+5021580Y-1871980D01*
X+5429504Y-1912620D02*
X+5429469Y-1911775D01*
X+5429182Y-1910084D01*
X+5428583Y-1908393D01*
X+5427603Y-1906702D01*
X+5426103Y-1905034D01*
X+5424412Y-1903814D01*
X+5422721Y-1903038D01*
X+5421030Y-1902601D01*
X+5419344Y-1902460D01*
X+5409184Y-1912620D02*
X+5409219Y-1911775D01*
X+5409506Y-1910084D01*
X+5410105Y-1908393D01*
X+5411085Y-1906702D01*
X+5412585Y-1905034D01*
X+5414276Y-1903814D01*
X+5415967Y-1903038D01*
X+5417658Y-1902601D01*
X+5419344Y-1902460D01*
X+5409184Y-1912620D02*
X+5409219Y-1913465D01*
X+5409506Y-1915156D01*
X+5410105Y-1916847D01*
X+5411085Y-1918538D01*
X+5412585Y-1920206D01*
X+5414276Y-1921426D01*
X+5415967Y-1922202D01*
X+5417658Y-1922639D01*
X+5419344Y-1922780D01*
X+5429504Y-1912620D02*
X+5429469Y-1913465D01*
X+5429182Y-1915156D01*
X+5428583Y-1916847D01*
X+5427603Y-1918538D01*
X+5426103Y-1920206D01*
X+5424412Y-1921426D01*
X+5422721Y-1922202D01*
X+5421030Y-1922639D01*
X+5419344Y-1922780D01*
X+1866900Y-975360D02*
X+1785938Y-975360D01*
X+1783856Y-985981D01*
X+1778136Y-994547D01*
X+1769571Y-1000266D01*
X+1758950Y-1002348D01*
X+1731962Y-975360D02*
X+1734044Y-985981D01*
X+1739764Y-994547D01*
X+1748329Y-1000266D01*
X+1758950Y-1002348D01*
X+1731962Y-975360D02*
X+1651000Y-975360D01*
X+1790700Y-1422400D02*
X+1727200Y-1422400D01*
X+1866900Y-1008380D02*
X+1866900Y-1389380D01*
X+1651000Y-1008380D02*
X+1651000Y-1389380D01*
X+1866900Y-1008380D02*
X+1866900Y-975360D01*
X+1651000Y-975360D02*
X+1651000Y-1008380D01*
X+1727200Y-1422400D02*
X+1651000Y-1422400D01*
X+1651000Y-1389380D01*
X+1866900Y-1389380D02*
X+1866900Y-1422400D01*
X+1790700Y-1422400D01*
X+1841500Y-1024636D02*
X+1841465Y-1023791D01*
X+1841178Y-1022100D01*
X+1840579Y-1020409D01*
X+1839599Y-1018718D01*
X+1838099Y-1017050D01*
X+1836408Y-1015830D01*
X+1834717Y-1015054D01*
X+1833026Y-1014617D01*
X+1831340Y-1014476D01*
X+1821180Y-1024636D02*
X+1821215Y-1023791D01*
X+1821502Y-1022100D01*
X+1822101Y-1020409D01*
X+1823081Y-1018718D01*
X+1824581Y-1017050D01*
X+1826272Y-1015830D01*
X+1827963Y-1015054D01*
X+1829654Y-1014617D01*
X+1831340Y-1014476D01*
X+1821180Y-1024636D02*
X+1821215Y-1025481D01*
X+1821502Y-1027172D01*
X+1822101Y-1028863D01*
X+1823081Y-1030554D01*
X+1824581Y-1032222D01*
X+1826272Y-1033442D01*
X+1827963Y-1034218D01*
X+1829654Y-1034655D01*
X+1831340Y-1034796D01*
X+1841500Y-1024636D02*
X+1841465Y-1025481D01*
X+1841178Y-1027172D01*
X+1840579Y-1028863D01*
X+1839599Y-1030554D01*
X+1838099Y-1032222D01*
X+1836408Y-1033442D01*
X+1834717Y-1034218D01*
X+1833026Y-1034655D01*
X+1831340Y-1034796D01*
X+3055620Y-1948180D02*
X+3055620Y-1867218D01*
X+3044999Y-1865136D01*
X+3036433Y-1859416D01*
X+3030714Y-1850851D01*
X+3028632Y-1840230D01*
X+3055620Y-1813242D02*
X+3044999Y-1815324D01*
X+3036433Y-1821044D01*
X+3030714Y-1829609D01*
X+3028632Y-1840230D01*
X+3055620Y-1813242D02*
X+3055620Y-1732280D01*
X+2608580Y-1871980D02*
X+2608580Y-1808480D01*
X+3022600Y-1948180D02*
X+2641600Y-1948180D01*
X+3022600Y-1732280D02*
X+2641600Y-1732280D01*
X+3022600Y-1948180D02*
X+3055620Y-1948180D01*
X+3055620Y-1732280D02*
X+3022600Y-1732280D01*
X+2608580Y-1808480D02*
X+2608580Y-1732280D01*
X+2641600Y-1732280D01*
X+2641600Y-1948180D02*
X+2608580Y-1948180D01*
X+2608580Y-1871980D01*
X+3016504Y-1912620D02*
X+3016469Y-1911775D01*
X+3016182Y-1910084D01*
X+3015583Y-1908393D01*
X+3014603Y-1906702D01*
X+3013103Y-1905034D01*
X+3011412Y-1903814D01*
X+3009721Y-1903038D01*
X+3008030Y-1902601D01*
X+3006344Y-1902460D01*
X+2996184Y-1912620D02*
X+2996219Y-1911775D01*
X+2996506Y-1910084D01*
X+2997105Y-1908393D01*
X+2998085Y-1906702D01*
X+2999585Y-1905034D01*
X+3001276Y-1903814D01*
X+3002967Y-1903038D01*
X+3004658Y-1902601D01*
X+3006344Y-1902460D01*
X+2996184Y-1912620D02*
X+2996219Y-1913465D01*
X+2996506Y-1915156D01*
X+2997105Y-1916847D01*
X+2998085Y-1918538D01*
X+2999585Y-1920206D01*
X+3001276Y-1921426D01*
X+3002967Y-1922202D01*
X+3004658Y-1922639D01*
X+3006344Y-1922780D01*
X+3016504Y-1912620D02*
X+3016469Y-1913465D01*
X+3016182Y-1915156D01*
X+3015583Y-1916847D01*
X+3014603Y-1918538D01*
X+3013103Y-1920206D01*
X+3011412Y-1921426D01*
X+3009721Y-1922202D01*
X+3008030Y-1922639D01*
X+3006344Y-1922780D01*
X-546100Y-975360D02*
X-627062Y-975360D01*
X-629144Y-985981D01*
X-634864Y-994547D01*
X-643429Y-1000266D01*
X-654050Y-1002348D01*
X-681038Y-975360D02*
X-678956Y-985981D01*
X-673236Y-994547D01*
X-664671Y-1000266D01*
X-654050Y-1002348D01*
X-681038Y-975360D02*
X-762000Y-975360D01*
X-622300Y-1422400D02*
X-685800Y-1422400D01*
X-546100Y-1008380D02*
X-546100Y-1389380D01*
X-762000Y-1008380D02*
X-762000Y-1389380D01*
X-546100Y-1008380D02*
X-546100Y-975360D01*
X-762000Y-975360D02*
X-762000Y-1008380D01*
X-685800Y-1422400D02*
X-762000Y-1422400D01*
X-762000Y-1389380D01*
X-546100Y-1389380D02*
X-546100Y-1422400D01*
X-622300Y-1422400D01*
X-571500Y-1024636D02*
X-571535Y-1023791D01*
X-571822Y-1022100D01*
X-572421Y-1020409D01*
X-573401Y-1018718D01*
X-574901Y-1017050D01*
X-576592Y-1015830D01*
X-578283Y-1015054D01*
X-579974Y-1014617D01*
X-581660Y-1014476D01*
X-591820Y-1024636D02*
X-591785Y-1023791D01*
X-591498Y-1022100D01*
X-590899Y-1020409D01*
X-589919Y-1018718D01*
X-588419Y-1017050D01*
X-586728Y-1015830D01*
X-585037Y-1015054D01*
X-583346Y-1014617D01*
X-581660Y-1014476D01*
X-591820Y-1024636D02*
X-591785Y-1025481D01*
X-591498Y-1027172D01*
X-590899Y-1028863D01*
X-589919Y-1030554D01*
X-588419Y-1032222D01*
X-586728Y-1033442D01*
X-585037Y-1034218D01*
X-583346Y-1034655D01*
X-581660Y-1034796D01*
X-571500Y-1024636D02*
X-571535Y-1025481D01*
X-571822Y-1027172D01*
X-572421Y-1028863D01*
X-573401Y-1030554D01*
X-574901Y-1032222D01*
X-576592Y-1033442D01*
X-578283Y-1034218D01*
X-579974Y-1034655D01*
X-581660Y-1034796D01*
X+642620Y-1948180D02*
X+642620Y-1867218D01*
X+631999Y-1865136D01*
X+623433Y-1859416D01*
X+617714Y-1850851D01*
X+615632Y-1840230D01*
X+642620Y-1813242D02*
X+631999Y-1815324D01*
X+623433Y-1821044D01*
X+617714Y-1829609D01*
X+615632Y-1840230D01*
X+642620Y-1813242D02*
X+642620Y-1732280D01*
X+195580Y-1871980D02*
X+195580Y-1808480D01*
X+609600Y-1948180D02*
X+228600Y-1948180D01*
X+609600Y-1732280D02*
X+228600Y-1732280D01*
X+609600Y-1948180D02*
X+642620Y-1948180D01*
X+642620Y-1732280D02*
X+609600Y-1732280D01*
X+195580Y-1808480D02*
X+195580Y-1732280D01*
X+228600Y-1732280D01*
X+228600Y-1948180D02*
X+195580Y-1948180D01*
X+195580Y-1871980D01*
X+603504Y-1912620D02*
X+603469Y-1911775D01*
X+603182Y-1910084D01*
X+602583Y-1908393D01*
X+601603Y-1906702D01*
X+600103Y-1905034D01*
X+598412Y-1903814D01*
X+596721Y-1903038D01*
X+595030Y-1902601D01*
X+593344Y-1902460D01*
X+583184Y-1912620D02*
X+583219Y-1911775D01*
X+583506Y-1910084D01*
X+584105Y-1908393D01*
X+585085Y-1906702D01*
X+586585Y-1905034D01*
X+588276Y-1903814D01*
X+589967Y-1903038D01*
X+591658Y-1902601D01*
X+593344Y-1902460D01*
X+583184Y-1912620D02*
X+583219Y-1913465D01*
X+583506Y-1915156D01*
X+584105Y-1916847D01*
X+585085Y-1918538D01*
X+586585Y-1920206D01*
X+588276Y-1921426D01*
X+589967Y-1922202D01*
X+591658Y-1922639D01*
X+593344Y-1922780D01*
X+603504Y-1912620D02*
X+603469Y-1913465D01*
X+603182Y-1915156D01*
X+602583Y-1916847D01*
X+601603Y-1918538D01*
X+600103Y-1920206D01*
X+598412Y-1921426D01*
X+596721Y-1922202D01*
X+595030Y-1922639D01*
X+593344Y-1922780D01*
X-2959100Y-975360D02*
X-3040062Y-975360D01*
X-3042144Y-985981D01*
X-3047864Y-994547D01*
X-3056429Y-1000266D01*
X-3067050Y-1002348D01*
X-3094038Y-975360D02*
X-3091956Y-985981D01*
X-3086236Y-994547D01*
X-3077671Y-1000266D01*
X-3067050Y-1002348D01*
X-3094038Y-975360D02*
X-3175000Y-975360D01*
X-3035300Y-1422400D02*
X-3098800Y-1422400D01*
X-2959100Y-1008380D02*
X-2959100Y-1389380D01*
X-3175000Y-1008380D02*
X-3175000Y-1389380D01*
X-2959100Y-1008380D02*
X-2959100Y-975360D01*
X-3175000Y-975360D02*
X-3175000Y-1008380D01*
X-3098800Y-1422400D02*
X-3175000Y-1422400D01*
X-3175000Y-1389380D01*
X-2959100Y-1389380D02*
X-2959100Y-1422400D01*
X-3035300Y-1422400D01*
X-2984500Y-1024636D02*
X-2984535Y-1023791D01*
X-2984822Y-1022100D01*
X-2985421Y-1020409D01*
X-2986401Y-1018718D01*
X-2987901Y-1017050D01*
X-2989592Y-1015830D01*
X-2991283Y-1015054D01*
X-2992974Y-1014617D01*
X-2994660Y-1014476D01*
X-3004820Y-1024636D02*
X-3004785Y-1023791D01*
X-3004498Y-1022100D01*
X-3003899Y-1020409D01*
X-3002919Y-1018718D01*
X-3001419Y-1017050D01*
X-2999728Y-1015830D01*
X-2998037Y-1015054D01*
X-2996346Y-1014617D01*
X-2994660Y-1014476D01*
X-3004820Y-1024636D02*
X-3004785Y-1025481D01*
X-3004498Y-1027172D01*
X-3003899Y-1028863D01*
X-3002919Y-1030554D01*
X-3001419Y-1032222D01*
X-2999728Y-1033442D01*
X-2998037Y-1034218D01*
X-2996346Y-1034655D01*
X-2994660Y-1034796D01*
X-2984500Y-1024636D02*
X-2984535Y-1025481D01*
X-2984822Y-1027172D01*
X-2985421Y-1028863D01*
X-2986401Y-1030554D01*
X-2987901Y-1032222D01*
X-2989592Y-1033442D01*
X-2991283Y-1034218D01*
X-2992974Y-1034655D01*
X-2994660Y-1034796D01*
X-1770380Y-1948180D02*
X-1770380Y-1867218D01*
X-1781001Y-1865136D01*
X-1789567Y-1859416D01*
X-1795286Y-1850851D01*
X-1797368Y-1840230D01*
X-1770380Y-1813242D02*
X-1781001Y-1815324D01*
X-1789567Y-1821044D01*
X-1795286Y-1829609D01*
X-1797368Y-1840230D01*
X-1770380Y-1813242D02*
X-1770380Y-1732280D01*
X-2217420Y-1871980D02*
X-2217420Y-1808480D01*
X-1803400Y-1948180D02*
X-2184400Y-1948180D01*
X-1803400Y-1732280D02*
X-2184400Y-1732280D01*
X-1803400Y-1948180D02*
X-1770380Y-1948180D01*
X-1770380Y-1732280D02*
X-1803400Y-1732280D01*
X-2217420Y-1808480D02*
X-2217420Y-1732280D01*
X-2184400Y-1732280D01*
X-2184400Y-1948180D02*
X-2217420Y-1948180D01*
X-2217420Y-1871980D01*
X-1809496Y-1912620D02*
X-1809531Y-1911775D01*
X-1809818Y-1910084D01*
X-1810417Y-1908393D01*
X-1811397Y-1906702D01*
X-1812897Y-1905034D01*
X-1814588Y-1903814D01*
X-1816279Y-1903038D01*
X-1817970Y-1902601D01*
X-1819656Y-1902460D01*
X-1829816Y-1912620D02*
X-1829781Y-1911775D01*
X-1829494Y-1910084D01*
X-1828895Y-1908393D01*
X-1827915Y-1906702D01*
X-1826415Y-1905034D01*
X-1824724Y-1903814D01*
X-1823033Y-1903038D01*
X-1821342Y-1902601D01*
X-1819656Y-1902460D01*
X-1829816Y-1912620D02*
X-1829781Y-1913465D01*
X-1829494Y-1915156D01*
X-1828895Y-1916847D01*
X-1827915Y-1918538D01*
X-1826415Y-1920206D01*
X-1824724Y-1921426D01*
X-1823033Y-1922202D01*
X-1821342Y-1922639D01*
X-1819656Y-1922780D01*
X-1809496Y-1912620D02*
X-1809531Y-1913465D01*
X-1809818Y-1915156D01*
X-1810417Y-1916847D01*
X-1811397Y-1918538D01*
X-1812897Y-1920206D01*
X-1814588Y-1921426D01*
X-1816279Y-1922202D01*
X-1817970Y-1922639D01*
X-1819656Y-1922780D01*
D40*
X-3157400Y+542620D02*
X-3157400Y+132620D01*
X-3497400Y+542620D02*
X-3497400Y+132620D01*
X+6494600Y+542620D02*
X+6494600Y+132620D01*
X+6154600Y+542620D02*
X+6154600Y+132620D01*
X+1668600Y+542620D02*
X+1668600Y+132620D01*
X+1328600Y+542620D02*
X+1328600Y+132620D01*
X+4081600Y+542620D02*
X+4081600Y+132620D01*
X+3741600Y+542620D02*
X+3741600Y+132620D01*
X-744400Y+542620D02*
X-744400Y+132620D01*
X-1084400Y+542620D02*
X-1084400Y+132620D01*
D41*
X+7810500Y-889000D02*
X+7937500Y-1016000D01*
X+7937500Y-1270000D01*
X+7810500Y-1397000D01*
X+7429500Y-1397000D01*
X+7429500Y-889000D01*
X+7810500Y-889000D01*
X+7874000Y-1016000D02*
X+7747000Y-1016000D01*
X+7810500Y-952500D02*
X+7810500Y-1079500D01*
D40*
X+7753600Y-844380D02*
X+7643600Y-844380D01*
X+7753600Y-664380D02*
X+7643600Y-664380D01*
D41*
X+5397500Y-889000D02*
X+5524500Y-1016000D01*
X+5524500Y-1270000D01*
X+5397500Y-1397000D01*
X+5016500Y-1397000D01*
X+5016500Y-889000D01*
X+5397500Y-889000D01*
X+5461000Y-1016000D02*
X+5334000Y-1016000D01*
X+5397500Y-952500D02*
X+5397500Y-1079500D01*
D40*
X+5340600Y-844380D02*
X+5230600Y-844380D01*
X+5340600Y-664380D02*
X+5230600Y-664380D01*
D41*
X+3048000Y-889000D02*
X+3175000Y-1016000D01*
X+3175000Y-1270000D01*
X+3048000Y-1397000D01*
X+2667000Y-1397000D01*
X+2667000Y-889000D01*
X+3048000Y-889000D01*
X+3111500Y-1016000D02*
X+2984500Y-1016000D01*
X+3048000Y-952500D02*
X+3048000Y-1079500D01*
D40*
X+2927600Y-844380D02*
X+2817600Y-844380D01*
X+2927600Y-664380D02*
X+2817600Y-664380D01*
D41*
X+571500Y-889000D02*
X+698500Y-1016000D01*
X+698500Y-1270000D01*
X+571500Y-1397000D01*
X+190500Y-1397000D01*
X+190500Y-889000D01*
X+571500Y-889000D01*
X+635000Y-1016000D02*
X+508000Y-1016000D01*
X+571500Y-952500D02*
X+571500Y-1079500D01*
D40*
X+514600Y-844380D02*
X+404600Y-844380D01*
X+514600Y-664380D02*
X+404600Y-664380D01*
D41*
X-1841500Y-889000D02*
X-1714500Y-1016000D01*
X-1714500Y-1270000D01*
X-1841500Y-1397000D01*
X-2222500Y-1397000D01*
X-2222500Y-889000D01*
X-1841500Y-889000D01*
X-1778000Y-1016000D02*
X-1905000Y-1016000D01*
X-1841500Y-952500D02*
X-1841500Y-1079500D01*
D40*
X-1898400Y-844380D02*
X-2008400Y-844380D01*
X-1898400Y-664380D02*
X-2008400Y-664380D01*
X+6610600Y-2241380D02*
X+6510600Y-2241380D01*
X+6610600Y-2061380D02*
X+6510600Y-2061380D01*
X+6583100Y-1733380D02*
X+6483100Y-1733380D01*
X+6583100Y-1553380D02*
X+6483100Y-1553380D01*
X+6298100Y-504880D02*
X+6298100Y-404880D01*
X+6478100Y-504880D02*
X+6478100Y-404880D01*
X+6806100Y-504880D02*
X+6806100Y-404880D01*
X+6986100Y-504880D02*
X+6986100Y-404880D01*
X+7154600Y-2241380D02*
X+7054600Y-2241380D01*
X+7154600Y-2061380D02*
X+7054600Y-2061380D01*
X+8218000Y-2345000D02*
X+8218000Y-2445000D01*
X+8038000Y-2345000D02*
X+8038000Y-2445000D01*
X+7753600Y-2495380D02*
X+7643600Y-2495380D01*
X+7753600Y-2315380D02*
X+7643600Y-2315380D01*
X+7240100Y-404880D02*
X+7240100Y-514880D01*
X+7060100Y-404880D02*
X+7060100Y-514880D01*
X+8192600Y-214380D02*
X+8192600Y-314380D01*
X+8012600Y-214380D02*
X+8012600Y-314380D01*
X+7689600Y-29380D02*
X+7789600Y-29380D01*
X+7689600Y-209380D02*
X+7789600Y-209380D01*
X+7753600Y-2749380D02*
X+7653600Y-2749380D01*
X+7753600Y-2569380D02*
X+7653600Y-2569380D01*
X+6732100Y-404880D02*
X+6732100Y-514880D01*
X+6552100Y-404880D02*
X+6552100Y-514880D01*
X+6928100Y-907880D02*
X+6818100Y-907880D01*
X+6928100Y-727880D02*
X+6818100Y-727880D01*
X+7164600Y-1733380D02*
X+7054600Y-1733380D01*
X+7164600Y-1553380D02*
X+7054600Y-1553380D01*
X+7164600Y-1987380D02*
X+7054600Y-1987380D01*
X+7164600Y-1807380D02*
X+7054600Y-1807380D01*
X+6610600Y-1987380D02*
X+6500600Y-1987380D01*
X+6610600Y-1807380D02*
X+6500600Y-1807380D01*
X+4769100Y-1987380D02*
X+4659100Y-1987380D01*
X+4769100Y-1807380D02*
X+4659100Y-1807380D01*
X+4451600Y-907880D02*
X+4341600Y-907880D01*
X+4451600Y-727880D02*
X+4341600Y-727880D01*
X+4116600Y-1733380D02*
X+4006600Y-1733380D01*
X+4116600Y-1553380D02*
X+4006600Y-1553380D01*
X+4255600Y-404880D02*
X+4255600Y-514880D01*
X+4075600Y-404880D02*
X+4075600Y-514880D01*
X+4769100Y-1733380D02*
X+4659100Y-1733380D01*
X+4769100Y-1553380D02*
X+4659100Y-1553380D01*
X+5340600Y-2495380D02*
X+5230600Y-2495380D01*
X+5340600Y-2315380D02*
X+5230600Y-2315380D01*
X+5340600Y-2749380D02*
X+5240600Y-2749380D01*
X+5340600Y-2569380D02*
X+5240600Y-2569380D01*
X+5779600Y-2337380D02*
X+5779600Y-2437380D01*
X+5599600Y-2337380D02*
X+5599600Y-2437380D01*
X+5779600Y-214380D02*
X+5779600Y-314380D01*
X+5599600Y-214380D02*
X+5599600Y-314380D01*
X+5240600Y-29380D02*
X+5340600Y-29380D01*
X+5240600Y-209380D02*
X+5340600Y-209380D01*
X+2927600Y-2749380D02*
X+2827600Y-2749380D01*
X+2927600Y-2569380D02*
X+2827600Y-2569380D01*
X+3366600Y-2373380D02*
X+3366600Y-2473380D01*
X+3186600Y-2373380D02*
X+3186600Y-2473380D01*
X+3366600Y-277880D02*
X+3366600Y-377880D01*
X+3186600Y-277880D02*
X+3186600Y-377880D01*
X+2863600Y-92880D02*
X+2963600Y-92880D01*
X+2863600Y-272880D02*
X+2963600Y-272880D01*
X+3821600Y-504880D02*
X+3821600Y-404880D01*
X+4001600Y-504880D02*
X+4001600Y-404880D01*
X+4329600Y-504880D02*
X+4329600Y-404880D01*
X+4509600Y-504880D02*
X+4509600Y-404880D01*
X+4763600Y-404880D02*
X+4763600Y-514880D01*
X+4583600Y-404880D02*
X+4583600Y-514880D01*
X+4106600Y-2241380D02*
X+4006600Y-2241380D01*
X+4106600Y-2061380D02*
X+4006600Y-2061380D01*
X+4106600Y-1987380D02*
X+4006600Y-1987380D01*
X+4106600Y-1807380D02*
X+4006600Y-1807380D01*
X+4769100Y-2241380D02*
X+4669100Y-2241380D01*
X+4769100Y-2061380D02*
X+4669100Y-2061380D01*
X+2927600Y-2495380D02*
X+2817600Y-2495380D01*
X+2927600Y-2315380D02*
X+2817600Y-2315380D01*
X+1916600Y-468880D02*
X+1916600Y-368880D01*
X+2096600Y-468880D02*
X+2096600Y-368880D01*
X+1408600Y-468880D02*
X+1408600Y-368880D01*
X+1588600Y-468880D02*
X+1588600Y-368880D01*
X-1004400Y-504880D02*
X-1004400Y-404880D01*
X-824400Y-504880D02*
X-824400Y-404880D01*
X-496400Y-504880D02*
X-496400Y-404880D01*
X-316400Y-504880D02*
X-316400Y-404880D01*
X+1842600Y-358880D02*
X+1842600Y-468880D01*
X+1662600Y-358880D02*
X+1662600Y-468880D01*
X-570400Y-404880D02*
X-570400Y-514880D01*
X-750400Y-404880D02*
X-750400Y-514880D01*
X+2084600Y-907880D02*
X+1974600Y-907880D01*
X+2084600Y-727880D02*
X+1974600Y-727880D01*
X-328400Y-907880D02*
X-438400Y-907880D01*
X-328400Y-727880D02*
X-438400Y-727880D01*
X+2350600Y-358880D02*
X+2350600Y-468880D01*
X+2170600Y-358880D02*
X+2170600Y-468880D01*
X-62400Y-404880D02*
X-62400Y-514880D01*
X-242400Y-404880D02*
X-242400Y-514880D01*
X-3417400Y-468880D02*
X-3417400Y-368880D01*
X-3237400Y-468880D02*
X-3237400Y-368880D01*
X-2909400Y-468880D02*
X-2909400Y-368880D01*
X-2729400Y-468880D02*
X-2729400Y-368880D01*
X-2475400Y-358880D02*
X-2475400Y-468880D01*
X-2655400Y-358880D02*
X-2655400Y-468880D01*
X-2983400Y-358880D02*
X-2983400Y-468880D01*
X-3163400Y-358880D02*
X-3163400Y-468880D01*
X-2787400Y-907880D02*
X-2897400Y-907880D01*
X-2787400Y-727880D02*
X-2897400Y-727880D01*
X+1693600Y-2241380D02*
X+1593600Y-2241380D01*
X+1693600Y-2061380D02*
X+1593600Y-2061380D01*
X+1693600Y-1733380D02*
X+1593600Y-1733380D01*
X+1693600Y-1553380D02*
X+1593600Y-1553380D01*
X+2265100Y-2241380D02*
X+2165100Y-2241380D01*
X+2265100Y-2061380D02*
X+2165100Y-2061380D01*
X+2275100Y-1987380D02*
X+2165100Y-1987380D01*
X+2275100Y-1807380D02*
X+2165100Y-1807380D01*
X+1703600Y-1987380D02*
X+1593600Y-1987380D01*
X+1703600Y-1807380D02*
X+1593600Y-1807380D01*
X+2275100Y-1733380D02*
X+2165100Y-1733380D01*
X+2275100Y-1553380D02*
X+2165100Y-1553380D01*
X+514600Y-2495380D02*
X+404600Y-2495380D01*
X+514600Y-2315380D02*
X+404600Y-2315380D01*
X+953600Y-2337380D02*
X+953600Y-2437380D01*
X+773600Y-2337380D02*
X+773600Y-2437380D01*
X+514600Y-2749380D02*
X+414600Y-2749380D01*
X+514600Y-2569380D02*
X+414600Y-2569380D01*
X+953600Y-277880D02*
X+953600Y-377880D01*
X+773600Y-277880D02*
X+773600Y-377880D01*
X+450600Y-92880D02*
X+550600Y-92880D01*
X+450600Y-272880D02*
X+550600Y-272880D01*
X-84400Y-2241380D02*
X-184400Y-2241380D01*
X-84400Y-2061380D02*
X-184400Y-2061380D01*
X-719400Y-2241380D02*
X-819400Y-2241380D01*
X-719400Y-2061380D02*
X-819400Y-2061380D01*
X-719400Y-1733380D02*
X-819400Y-1733380D01*
X-719400Y-1553380D02*
X-819400Y-1553380D01*
X-74400Y-1987380D02*
X-184400Y-1987380D01*
X-74400Y-1807380D02*
X-184400Y-1807380D01*
X-709400Y-1987380D02*
X-819400Y-1987380D01*
X-709400Y-1807380D02*
X-819400Y-1807380D01*
X-74400Y-1733380D02*
X-184400Y-1733380D01*
X-74400Y-1553380D02*
X-184400Y-1553380D01*
X-2487400Y-1987380D02*
X-2597400Y-1987380D01*
X-2487400Y-1807380D02*
X-2597400Y-1807380D01*
X-3122400Y-1733380D02*
X-3232400Y-1733380D01*
X-3122400Y-1553380D02*
X-3232400Y-1553380D01*
X-2487400Y-1733380D02*
X-2597400Y-1733380D01*
X-2487400Y-1553380D02*
X-2597400Y-1553380D01*
X-1898400Y-2495380D02*
X-2008400Y-2495380D01*
X-1898400Y-2315380D02*
X-2008400Y-2315380D01*
X-3132400Y-2241380D02*
X-3232400Y-2241380D01*
X-3132400Y-2061380D02*
X-3232400Y-2061380D01*
X-3132400Y-1987380D02*
X-3232400Y-1987380D01*
X-3132400Y-1807380D02*
X-3232400Y-1807380D01*
X-2497400Y-2241380D02*
X-2597400Y-2241380D01*
X-2497400Y-2061380D02*
X-2597400Y-2061380D01*
X-1459400Y-2373380D02*
X-1459400Y-2473380D01*
X-1639400Y-2373380D02*
X-1639400Y-2473380D01*
X-1459400Y-241880D02*
X-1459400Y-341880D01*
X-1639400Y-241880D02*
X-1639400Y-341880D01*
X-1962400Y-92880D02*
X-1862400Y-92880D01*
X-1962400Y-272880D02*
X-1862400Y-272880D01*
X-1898400Y-2749380D02*
X-1998400Y-2749380D01*
X-1898400Y-2569380D02*
X-1998400Y-2569380D01*
D41*
X-3937000Y+444500D02*
X-3937000Y+368300D01*
X-4572000Y+368300D01*
X-4572000Y+444500D01*
X-4216400Y+368300D02*
X-4216400Y+317500D01*
X-4292600Y+317500D01*
X-4292600Y+368300D01*
X-3987800Y+368300D02*
X-3987800Y+292100D01*
X-4051300Y+292100D01*
X-4051300Y+368300D01*
X-4521200Y+368300D02*
X-4521200Y+292100D01*
X-4457700Y+292100D01*
X-4457700Y+368300D02*
X-4457700Y+292100D01*
D40*
X-5735500Y+535000D02*
X-5735500Y+125000D01*
X-6075500Y+535000D02*
X-6075500Y+125000D01*
D41*
X-5295900Y-982980D02*
X-5376862Y-982980D01*
X-5378944Y-993601D01*
X-5384664Y-1002167D01*
X-5393229Y-1007886D01*
X-5403850Y-1009968D01*
X-5430838Y-982980D02*
X-5428756Y-993601D01*
X-5423036Y-1002167D01*
X-5414471Y-1007886D01*
X-5403850Y-1009968D01*
X-5430838Y-982980D02*
X-5511800Y-982980D01*
X-5372100Y-1430020D02*
X-5435600Y-1430020D01*
X-5295900Y-1016000D02*
X-5295900Y-1397000D01*
X-5511800Y-1016000D02*
X-5511800Y-1397000D01*
X-5295900Y-1016000D02*
X-5295900Y-982980D01*
X-5511800Y-982980D02*
X-5511800Y-1016000D01*
X-5435600Y-1430020D02*
X-5511800Y-1430020D01*
X-5511800Y-1397000D01*
X-5295900Y-1397000D02*
X-5295900Y-1430020D01*
X-5372100Y-1430020D01*
X-5321300Y-1032256D02*
X-5321335Y-1031411D01*
X-5321622Y-1029720D01*
X-5322221Y-1028029D01*
X-5323201Y-1026338D01*
X-5324701Y-1024670D01*
X-5326392Y-1023450D01*
X-5328083Y-1022674D01*
X-5329774Y-1022237D01*
X-5331460Y-1022096D01*
X-5341620Y-1032256D02*
X-5341585Y-1031411D01*
X-5341298Y-1029720D01*
X-5340699Y-1028029D01*
X-5339719Y-1026338D01*
X-5338219Y-1024670D01*
X-5336528Y-1023450D01*
X-5334837Y-1022674D01*
X-5333146Y-1022237D01*
X-5331460Y-1022096D01*
X-5341620Y-1032256D02*
X-5341585Y-1033101D01*
X-5341298Y-1034792D01*
X-5340699Y-1036483D01*
X-5339719Y-1038174D01*
X-5338219Y-1039842D01*
X-5336528Y-1041062D01*
X-5334837Y-1041838D01*
X-5333146Y-1042275D01*
X-5331460Y-1042416D01*
X-5321300Y-1032256D02*
X-5321335Y-1033101D01*
X-5321622Y-1034792D01*
X-5322221Y-1036483D01*
X-5323201Y-1038174D01*
X-5324701Y-1039842D01*
X-5326392Y-1041062D01*
X-5328083Y-1041838D01*
X-5329774Y-1042275D01*
X-5331460Y-1042416D01*
X-4157980Y-1955800D02*
X-4157980Y-1874838D01*
X-4168601Y-1872756D01*
X-4177167Y-1867036D01*
X-4182886Y-1858471D01*
X-4184968Y-1847850D01*
X-4157980Y-1820862D02*
X-4168601Y-1822944D01*
X-4177167Y-1828664D01*
X-4182886Y-1837229D01*
X-4184968Y-1847850D01*
X-4157980Y-1820862D02*
X-4157980Y-1739900D01*
X-4605020Y-1879600D02*
X-4605020Y-1816100D01*
X-4191000Y-1955800D02*
X-4572000Y-1955800D01*
X-4191000Y-1739900D02*
X-4572000Y-1739900D01*
X-4191000Y-1955800D02*
X-4157980Y-1955800D01*
X-4157980Y-1739900D02*
X-4191000Y-1739900D01*
X-4605020Y-1816100D02*
X-4605020Y-1739900D01*
X-4572000Y-1739900D01*
X-4572000Y-1955800D02*
X-4605020Y-1955800D01*
X-4605020Y-1879600D01*
X-4197096Y-1920240D02*
X-4197131Y-1919395D01*
X-4197418Y-1917704D01*
X-4198017Y-1916013D01*
X-4198997Y-1914322D01*
X-4200497Y-1912654D01*
X-4202188Y-1911434D01*
X-4203879Y-1910658D01*
X-4205570Y-1910221D01*
X-4207256Y-1910080D01*
X-4217416Y-1920240D02*
X-4217381Y-1919395D01*
X-4217094Y-1917704D01*
X-4216495Y-1916013D01*
X-4215515Y-1914322D01*
X-4214015Y-1912654D01*
X-4212324Y-1911434D01*
X-4210633Y-1910658D01*
X-4208942Y-1910221D01*
X-4207256Y-1910080D01*
X-4217416Y-1920240D02*
X-4217381Y-1921085D01*
X-4217094Y-1922776D01*
X-4216495Y-1924467D01*
X-4215515Y-1926158D01*
X-4214015Y-1927826D01*
X-4212324Y-1929046D01*
X-4210633Y-1929822D01*
X-4208942Y-1930259D01*
X-4207256Y-1930400D01*
X-4197096Y-1920240D02*
X-4197131Y-1921085D01*
X-4197418Y-1922776D01*
X-4198017Y-1924467D01*
X-4198997Y-1926158D01*
X-4200497Y-1927826D01*
X-4202188Y-1929046D01*
X-4203879Y-1929822D01*
X-4205570Y-1930259D01*
X-4207256Y-1930400D01*
D42*
X-4907500Y+890500D02*
X-4907543Y+891539D01*
X-4907895Y+893618D01*
X-4908632Y+895697D01*
X-4909836Y+897776D01*
X-4911677Y+899826D01*
X-4913756Y+901329D01*
X-4915835Y+902286D01*
X-4917914Y+902825D01*
X-4919993Y+903000D01*
X-4920000Y+903000D01*
X-4932500Y+890500D02*
X-4932457Y+891539D01*
X-4932105Y+893618D01*
X-4931368Y+895697D01*
X-4930164Y+897776D01*
X-4928323Y+899826D01*
X-4926244Y+901329D01*
X-4924165Y+902286D01*
X-4922086Y+902825D01*
X-4920007Y+903000D01*
X-4920000Y+903000D01*
X-4932500Y+890500D02*
X-4932457Y+889461D01*
X-4932105Y+887382D01*
X-4931368Y+885303D01*
X-4930164Y+883224D01*
X-4928323Y+881174D01*
X-4926244Y+879671D01*
X-4924165Y+878714D01*
X-4922086Y+878175D01*
X-4920007Y+878000D01*
X-4920000Y+878000D01*
X-4907500Y+890500D02*
X-4907543Y+889461D01*
X-4907895Y+887382D01*
X-4908632Y+885303D01*
X-4909836Y+883224D01*
X-4911677Y+881174D01*
X-4913756Y+879671D01*
X-4915835Y+878714D01*
X-4917914Y+878175D01*
X-4919993Y+878000D01*
X-4920000Y+878000D01*
D40*
X-4935000Y+955500D02*
X-4890000Y+955500D01*
X-4890000Y+1515500D01*
X-4935000Y+1515500D01*
X-5225000Y+955500D02*
X-5270000Y+955500D01*
X-5270000Y+1515500D01*
X-5225000Y+1515500D01*
D43*
X-4070500Y-1781910D02*
X-3930500Y-1781910D01*
X-4070500Y-1801910D02*
X-3930500Y-1801910D01*
X-4070500Y-1911910D02*
X-3930500Y-1911910D01*
X-3930500Y-1751910D01*
X-4070500Y-1751910D01*
X-4070500Y-1911910D01*
D41*
X-3987800Y-1369060D02*
X-3898900Y-1369060D01*
X-3881120Y-1480820D02*
X-3810000Y-1480820D01*
X-3987800Y-1369060D02*
X-3987800Y-1460500D01*
X-3698240Y-1463040D02*
X-3698240Y-1369060D01*
X-3784600Y-1369060D01*
X-5588000Y+1034000D02*
X-5715000Y+907000D01*
X-6096000Y+907000D01*
X-6223000Y+1034000D01*
X-6223000Y+1478500D01*
X-5588000Y+1478500D01*
X-5588000Y+1034000D01*
X-5715000Y+970500D02*
X-5715000Y+1097500D01*
X-5651500Y+1034000D02*
X-5778500Y+1034000D01*
D40*
X-5389500Y+455500D02*
X-4989500Y+455500D01*
X-5389500Y-74500D02*
X-4989500Y-74500D01*
X-4875000Y-1995000D02*
X-4985000Y-1995000D01*
X-4875000Y-1815000D02*
X-4985000Y-1815000D01*
X-5129000Y-915500D02*
X-5239000Y-915500D01*
X-5129000Y-735500D02*
X-5239000Y-735500D01*
X-5446500Y-1741000D02*
X-5556500Y-1741000D01*
X-5446500Y-1561000D02*
X-5556500Y-1561000D01*
X-5307500Y-412500D02*
X-5307500Y-522500D01*
X-5487500Y-412500D02*
X-5487500Y-522500D01*
X-4875000Y-1741000D02*
X-4985000Y-1741000D01*
X-4875000Y-1561000D02*
X-4985000Y-1561000D01*
X-4286000Y-2503000D02*
X-4396000Y-2503000D01*
X-4286000Y-2323000D02*
X-4396000Y-2323000D01*
X-4286000Y-852000D02*
X-4396000Y-852000D01*
X-4286000Y-672000D02*
X-4396000Y-672000D01*
X-4799500Y-412500D02*
X-4799500Y-522500D01*
X-4979500Y-412500D02*
X-4979500Y-522500D01*
D41*
X-4205110Y-903110D02*
X-4078110Y-1030110D01*
X-4078110Y-1284110D01*
X-4205110Y-1411110D01*
X-4586110Y-1411110D01*
X-4586110Y-903110D01*
X-4205110Y-903110D01*
X-4141610Y-1030110D02*
X-4268610Y-1030110D01*
X-4205110Y-966610D02*
X-4205110Y-1093610D01*
D40*
X-5456500Y-2249000D02*
X-5556500Y-2249000D01*
X-5456500Y-2069000D02*
X-5556500Y-2069000D01*
X-5456500Y-1995000D02*
X-5556500Y-1995000D01*
X-5456500Y-1815000D02*
X-5556500Y-1815000D01*
X-5741500Y-512500D02*
X-5741500Y-412500D01*
X-5561500Y-512500D02*
X-5561500Y-412500D01*
X-5233500Y-512500D02*
X-5233500Y-412500D01*
X-5053500Y-512500D02*
X-5053500Y-412500D01*
X-4885000Y-2249000D02*
X-4985000Y-2249000D01*
X-4885000Y-2069000D02*
X-4985000Y-2069000D01*
X-3847000Y-2345000D02*
X-3847000Y-2445000D01*
X-4027000Y-2345000D02*
X-4027000Y-2445000D01*
X-3910500Y-285500D02*
X-3910500Y-385500D01*
X-4090500Y-285500D02*
X-4090500Y-385500D01*
X-4413500Y-100500D02*
X-4313500Y-100500D01*
X-4413500Y-280500D02*
X-4313500Y-280500D01*
X-4286000Y-2757000D02*
X-4386000Y-2757000D01*
X-4286000Y-2577000D02*
X-4386000Y-2577000D01*
X+7271000Y-2503000D02*
X+7171000Y-2503000D01*
X+7271000Y-2323000D02*
X+7171000Y-2323000D01*
D41*
X+7475000Y-2282520D02*
X+7475000Y-2191080D01*
X+7395625Y-2191080D01*
X+7379750Y-2206320D01*
X+7379750Y-2221560D01*
X+7395625Y-2236800D01*
X+7475000Y-2236800D01*
X+7395625Y-2236800D02*
X+7379750Y-2252040D01*
X+7379750Y-2282520D01*
X+7348000Y-2191080D02*
X+7348000Y-2236800D01*
X+7300375Y-2282520D01*
X+7252750Y-2236800D01*
X+7252750Y-2191080D01*
X+7125750Y-2252040D02*
X+7221000Y-2252040D01*
X+7157500Y-2191080D01*
X+7157500Y-2282520D01*
X+7078125Y-2206320D02*
X+7062250Y-2191080D01*
X+7014625Y-2191080D01*
X+6998750Y-2206320D01*
X+6998750Y-2221560D01*
X+7014625Y-2236800D01*
X+6998750Y-2252040D01*
X+6998750Y-2267280D01*
X+7014625Y-2282520D01*
X+7062250Y-2282520D01*
X+7078125Y-2267280D01*
X+7046375Y-2236800D02*
X+7014625Y-2236800D01*
D40*
X+4858000Y-2503000D02*
X+4758000Y-2503000D01*
X+4858000Y-2323000D02*
X+4758000Y-2323000D01*
D41*
X+5062000Y-2282520D02*
X+5062000Y-2191080D01*
X+4982625Y-2191080D01*
X+4966750Y-2206320D01*
X+4966750Y-2221560D01*
X+4982625Y-2236800D01*
X+5062000Y-2236800D01*
X+4982625Y-2236800D02*
X+4966750Y-2252040D01*
X+4966750Y-2282520D01*
X+4935000Y-2191080D02*
X+4935000Y-2236800D01*
X+4887375Y-2282520D01*
X+4839750Y-2236800D01*
X+4839750Y-2191080D01*
X+4712750Y-2191080D02*
X+4792125Y-2191080D01*
X+4792125Y-2221560D01*
X+4728625Y-2221560D01*
X+4712750Y-2236800D01*
X+4712750Y-2267280D01*
X+4728625Y-2282520D01*
X+4776250Y-2282520D01*
X+4792125Y-2267280D01*
X+4585750Y-2252040D02*
X+4681000Y-2252040D01*
X+4617500Y-2191080D01*
X+4617500Y-2282520D01*
D40*
X+2445000Y-2503000D02*
X+2345000Y-2503000D01*
X+2445000Y-2323000D02*
X+2345000Y-2323000D01*
D41*
X+2649000Y-2282520D02*
X+2649000Y-2191080D01*
X+2569625Y-2191080D01*
X+2553750Y-2206320D01*
X+2553750Y-2221560D01*
X+2569625Y-2236800D01*
X+2649000Y-2236800D01*
X+2569625Y-2236800D02*
X+2553750Y-2252040D01*
X+2553750Y-2282520D01*
X+2522000Y-2191080D02*
X+2522000Y-2236800D01*
X+2474375Y-2282520D01*
X+2426750Y-2236800D01*
X+2426750Y-2191080D01*
X+2299750Y-2191080D02*
X+2379125Y-2191080D01*
X+2379125Y-2221560D01*
X+2315625Y-2221560D01*
X+2299750Y-2236800D01*
X+2299750Y-2267280D01*
X+2315625Y-2282520D01*
X+2363250Y-2282520D01*
X+2379125Y-2267280D01*
X+2172750Y-2191080D02*
X+2252125Y-2191080D01*
X+2252125Y-2221560D01*
X+2188625Y-2221560D01*
X+2172750Y-2236800D01*
X+2172750Y-2267280D01*
X+2188625Y-2282520D01*
X+2236250Y-2282520D01*
X+2252125Y-2267280D01*
D40*
X+32000Y-2503000D02*
X-68000Y-2503000D01*
X+32000Y-2323000D02*
X-68000Y-2323000D01*
D41*
X+236000Y-2282520D02*
X+236000Y-2191080D01*
X+156625Y-2191080D01*
X+140750Y-2206320D01*
X+140750Y-2221560D01*
X+156625Y-2236800D01*
X+236000Y-2236800D01*
X+156625Y-2236800D02*
X+140750Y-2252040D01*
X+140750Y-2282520D01*
X+109000Y-2191080D02*
X+109000Y-2236800D01*
X+61375Y-2282520D01*
X+13750Y-2236800D01*
X+13750Y-2191080D01*
X-113250Y-2206320D02*
X-97375Y-2191080D01*
X-49750Y-2191080D01*
X-33875Y-2206320D01*
X-33875Y-2267280D01*
X-49750Y-2282520D01*
X-97375Y-2282520D01*
X-113250Y-2267280D01*
X-113250Y-2252040D01*
X-97375Y-2236800D01*
X-33875Y-2236800D01*
X-240250Y-2206320D02*
X-224375Y-2191080D01*
X-176750Y-2191080D01*
X-160875Y-2206320D01*
X-160875Y-2267280D01*
X-176750Y-2282520D01*
X-224375Y-2282520D01*
X-240250Y-2267280D01*
X-240250Y-2252040D01*
X-224375Y-2236800D01*
X-160875Y-2236800D01*
D40*
X-2381000Y-2503000D02*
X-2481000Y-2503000D01*
X-2381000Y-2323000D02*
X-2481000Y-2323000D01*
D41*
X-2177000Y-2282520D02*
X-2177000Y-2191080D01*
X-2256375Y-2191080D01*
X-2272250Y-2206320D01*
X-2272250Y-2221560D01*
X-2256375Y-2236800D01*
X-2177000Y-2236800D01*
X-2256375Y-2236800D02*
X-2272250Y-2252040D01*
X-2272250Y-2282520D01*
X-2304000Y-2191080D02*
X-2304000Y-2236800D01*
X-2351625Y-2282520D01*
X-2399250Y-2236800D01*
X-2399250Y-2191080D01*
X-2526250Y-2206320D02*
X-2510375Y-2191080D01*
X-2462750Y-2191080D01*
X-2446875Y-2206320D01*
X-2446875Y-2267280D01*
X-2462750Y-2282520D01*
X-2510375Y-2282520D01*
X-2526250Y-2267280D01*
X-2526250Y-2252040D01*
X-2510375Y-2236800D01*
X-2446875Y-2236800D01*
X-2573875Y-2191080D02*
X-2653250Y-2191080D01*
X-2653250Y-2206320D01*
X-2573875Y-2282520D01*
D40*
X-4885000Y-2566500D02*
X-4985000Y-2566500D01*
X-4885000Y-2386500D02*
X-4985000Y-2386500D01*
D41*
X-4681000Y-2346020D02*
X-4681000Y-2254580D01*
X-4760375Y-2254580D01*
X-4776250Y-2269820D01*
X-4776250Y-2285060D01*
X-4760375Y-2300300D01*
X-4681000Y-2300300D01*
X-4760375Y-2300300D02*
X-4776250Y-2315540D01*
X-4776250Y-2346020D01*
X-4808000Y-2254580D02*
X-4808000Y-2300300D01*
X-4855625Y-2346020D01*
X-4903250Y-2300300D01*
X-4903250Y-2254580D01*
X-4950875Y-2254580D02*
X-5030250Y-2254580D01*
X-5030250Y-2269820D01*
X-4950875Y-2346020D01*
X-5093750Y-2300300D02*
X-5077875Y-2285060D01*
X-5077875Y-2269820D01*
X-5093750Y-2254580D01*
X-5141375Y-2254580D01*
X-5157250Y-2269820D01*
X-5157250Y-2285060D01*
X-5141375Y-2300300D01*
X-5093750Y-2300300D01*
X-5077875Y-2315540D01*
X-5077875Y-2330780D01*
X-5093750Y-2346020D01*
X-5141375Y-2346020D01*
X-5157250Y-2330780D01*
X-5157250Y-2315540D01*
X-5141375Y-2300300D01*
M02*
