G04 PROTEUS GERBER X2 FILE*
%TF.GenerationSoftware,Labcenter,Proteus,8.7-SP3-Build25561*%
%TF.CreationDate,2021-05-23T19:28:46+00:00*%
%TF.FileFunction,Paste,Top*%
%TF.FilePolarity,Positive*%
%TF.Part,Single*%
%TF.SameCoordinates,{ce74c1e3-353a-4a96-b4f4-cabdf69041bd}*%
%FSLAX45Y45*%
%MOMM*%
G01*
%TA.AperFunction,Material*%
%ADD84R,1.193800X5.308600*%
%ADD85R,1.143000X1.803400*%
%ADD86R,1.803400X1.143000*%
%ADD87R,2.108200X2.108200*%
%ADD88R,1.651000X3.048000*%
%ADD89R,3.403600X1.244600*%
%TA.AperFunction,Material*%
%ADD90R,6.985000X6.985000*%
%ADD91R,1.524000X2.540000*%
%TA.AperFunction,Material*%
%ADD92R,0.635000X2.032000*%
%TA.AperFunction,Material*%
%ADD93R,2.540000X1.524000*%
%ADD94R,0.889000X0.635000*%
%TA.AperFunction,Material*%
%ADD95R,0.889000X1.016000*%
%TA.AperFunction,Material*%
%ADD96R,2.032000X0.635000*%
%TA.AperFunction,Material*%
%ADD97R,2.032000X3.810000*%
%ADD98R,0.635000X0.889000*%
%TA.AperFunction,Material*%
%ADD99R,8.890000X11.430000*%
%ADD100R,3.810000X2.032000*%
%TA.AperFunction,Profile*%
%ADD38C,0.203200*%
%TD.AperFunction*%
D84*
X-1778000Y+190500D03*
X-2378000Y+190500D03*
D85*
X-4117620Y-292100D03*
X-3817620Y-292100D03*
D86*
X-4960620Y-1498600D03*
X-4960620Y-1798600D03*
D87*
X-2095500Y+1339000D03*
X-2095500Y+889000D03*
D88*
X-1460500Y+889000D03*
X-1460500Y+1333500D03*
D89*
X-1460500Y+610000D03*
X-1460500Y+0D03*
D90*
X-2895600Y+817880D03*
D91*
X-3124200Y+127000D03*
X-2667000Y+127000D03*
D92*
X-2921000Y-2108200D03*
X-2794000Y-2108200D03*
X-2667000Y-2108200D03*
X-2540000Y-2108200D03*
X-2540000Y-1587500D03*
X-2667000Y-1587500D03*
X-2794000Y-1587500D03*
X-2921000Y-1587500D03*
D85*
X-2667000Y-254000D03*
X-2957000Y-254000D03*
D86*
X-3175000Y-254000D03*
X-3175000Y-544000D03*
D85*
X-2967000Y-768350D03*
X-2667000Y-768350D03*
D93*
X-2984500Y-1143000D03*
X-2603500Y-1143000D03*
D94*
X-3111500Y-1968500D03*
X-3111500Y-1733550D03*
D85*
X-2921000Y-2413000D03*
X-2621000Y-2413000D03*
X-2893500Y-2667000D03*
X-2603500Y-2667000D03*
D95*
X-3268980Y-1397000D03*
X-3362960Y-1587500D03*
X-3175000Y-1587500D03*
D86*
X-3111500Y-2286000D03*
X-3111500Y-2576000D03*
X-1587500Y-635000D03*
X-1587500Y-345000D03*
X-2095500Y-635000D03*
X-2095500Y-345000D03*
X-1841500Y-335000D03*
X-1841500Y-635000D03*
D96*
X-2044700Y-1016000D03*
X-2044700Y-1143000D03*
X-2044700Y-1270000D03*
X-2044700Y-1397000D03*
X-1524000Y-1397000D03*
X-1524000Y-1270000D03*
X-1524000Y-1143000D03*
X-1524000Y-1016000D03*
D85*
X-2222500Y-825500D03*
X-1922500Y-825500D03*
X-1841500Y-2159000D03*
X-1551500Y-2159000D03*
X-1841500Y-1651000D03*
X-1551500Y-1651000D03*
X-2349500Y-2159000D03*
X-2059500Y-2159000D03*
X-2349500Y-1651000D03*
X-2049500Y-1651000D03*
X-2349500Y-1905000D03*
X-2049500Y-1905000D03*
X-1841500Y-1905000D03*
X-1541500Y-1905000D03*
D86*
X-2349500Y-335000D03*
X-2349500Y-635000D03*
D90*
X-635000Y+817880D03*
D91*
X-863600Y+127000D03*
X-406400Y+127000D03*
D84*
X+508000Y+190500D03*
X-92000Y+190500D03*
D87*
X+127000Y+1397000D03*
X+127000Y+947000D03*
D88*
X+825500Y+907000D03*
X+825500Y+1351500D03*
D89*
X+825500Y+610000D03*
X+825500Y+0D03*
D96*
X+241300Y-1016000D03*
X+241300Y-1143000D03*
X+241300Y-1270000D03*
X+241300Y-1397000D03*
X+762000Y-1397000D03*
X+762000Y-1270000D03*
X+762000Y-1143000D03*
X+762000Y-1016000D03*
D86*
X-889000Y-254000D03*
X-889000Y-544000D03*
D85*
X-408500Y-254000D03*
X-698500Y-254000D03*
X-698500Y-762000D03*
X-398500Y-762000D03*
D93*
X-762000Y-1143000D03*
X-381000Y-1143000D03*
D95*
X-1046480Y-1397000D03*
X-1140460Y-1587500D03*
X-952500Y-1587500D03*
D94*
X-889000Y-1968500D03*
X-889000Y-1733550D03*
D92*
X-698500Y-2108200D03*
X-571500Y-2108200D03*
X-444500Y-2108200D03*
X-317500Y-2108200D03*
X-317500Y-1587500D03*
X-444500Y-1587500D03*
X-571500Y-1587500D03*
X-698500Y-1587500D03*
D86*
X-889000Y-2313500D03*
X-889000Y-2603500D03*
D85*
X-671000Y-2667000D03*
X-381000Y-2667000D03*
X-681000Y-2413000D03*
X-381000Y-2413000D03*
D86*
X+0Y-345000D03*
X+0Y-645000D03*
X+508000Y-345000D03*
X+508000Y-645000D03*
X+762000Y-635000D03*
X+762000Y-345000D03*
X+254000Y-635000D03*
X+254000Y-345000D03*
D85*
X+81000Y-825500D03*
X+381000Y-825500D03*
X-63500Y-1651000D03*
X+236500Y-1651000D03*
X-63500Y-1905000D03*
X+236500Y-1905000D03*
X-63500Y-2159000D03*
X+226500Y-2159000D03*
X+444500Y-1651000D03*
X+734500Y-1651000D03*
X+444500Y-2159000D03*
X+734500Y-2159000D03*
X+444500Y-1905000D03*
X+744500Y-1905000D03*
D88*
X+3111500Y+889000D03*
X+3111500Y+1333500D03*
D87*
X+2413000Y+1397000D03*
X+2413000Y+947000D03*
D94*
X+1397000Y-1968500D03*
X+1397000Y-1733550D03*
D84*
X+2794000Y+190500D03*
X+2194000Y+190500D03*
D95*
X+1239520Y-1397000D03*
X+1145540Y-1587500D03*
X+1333500Y-1587500D03*
D90*
X+1651000Y+817880D03*
D91*
X+1422400Y+127000D03*
X+1879600Y+127000D03*
D96*
X+2527300Y-1016000D03*
X+2527300Y-1143000D03*
X+2527300Y-1270000D03*
X+2527300Y-1397000D03*
X+3048000Y-1397000D03*
X+3048000Y-1270000D03*
X+3048000Y-1143000D03*
X+3048000Y-1016000D03*
D92*
X+1587500Y-2108200D03*
X+1714500Y-2108200D03*
X+1841500Y-2108200D03*
X+1968500Y-2108200D03*
X+1968500Y-1587500D03*
X+1841500Y-1587500D03*
X+1714500Y-1587500D03*
X+1587500Y-1587500D03*
D89*
X+3111500Y+610000D03*
X+3111500Y+0D03*
D85*
X+1587500Y-762000D03*
X+1887500Y-762000D03*
D93*
X+1524000Y-1143000D03*
X+1905000Y-1143000D03*
D86*
X+1397000Y-254000D03*
X+1397000Y-544000D03*
D85*
X+1877500Y-254000D03*
X+1587500Y-254000D03*
X+1587500Y-2667000D03*
X+1877500Y-2667000D03*
D86*
X+1333500Y-2286000D03*
X+1333500Y-2576000D03*
D85*
X+1587500Y-2413000D03*
X+1887500Y-2413000D03*
D86*
X+2222500Y-317500D03*
X+2222500Y-617500D03*
X+2476500Y-607500D03*
X+2476500Y-317500D03*
X+3048000Y-607500D03*
X+3048000Y-317500D03*
X+2794000Y-617500D03*
X+2794000Y-317500D03*
D85*
X+2367000Y-825500D03*
X+2667000Y-825500D03*
X+2730500Y-2159000D03*
X+3020500Y-2159000D03*
X+2730500Y-1651000D03*
X+3020500Y-1651000D03*
X+2250000Y-2159000D03*
X+2540000Y-2159000D03*
X+2240000Y-1905000D03*
X+2540000Y-1905000D03*
X+2730500Y-1905000D03*
X+3030500Y-1905000D03*
X+2240000Y-1651000D03*
X+2540000Y-1651000D03*
D88*
X+5461000Y+889000D03*
X+5461000Y+1333500D03*
D87*
X+4762500Y+1397000D03*
X+4762500Y+947000D03*
D94*
X+3683000Y-1968500D03*
X+3683000Y-1733550D03*
D84*
X+5080000Y+190500D03*
X+4480000Y+190500D03*
D95*
X+3525520Y-1397000D03*
X+3431540Y-1587500D03*
X+3619500Y-1587500D03*
D90*
X+3937000Y+825500D03*
D91*
X+3708400Y+134620D03*
X+4165600Y+134620D03*
D95*
X+5875020Y-1397000D03*
X+5781040Y-1587500D03*
X+5969000Y-1587500D03*
D90*
X+6261100Y+817880D03*
D91*
X+6032500Y+127000D03*
X+6489700Y+127000D03*
D89*
X+5397500Y+610000D03*
X+5397500Y+0D03*
X+7810500Y+635000D03*
X+7810500Y+25000D03*
D96*
X+4813300Y-1016000D03*
X+4813300Y-1143000D03*
X+4813300Y-1270000D03*
X+4813300Y-1397000D03*
X+5334000Y-1397000D03*
X+5334000Y-1270000D03*
X+5334000Y-1143000D03*
X+5334000Y-1016000D03*
D92*
X+3873500Y-2108200D03*
X+4000500Y-2108200D03*
X+4127500Y-2108200D03*
X+4254500Y-2108200D03*
X+4254500Y-1587500D03*
X+4127500Y-1587500D03*
X+4000500Y-1587500D03*
X+3873500Y-1587500D03*
D96*
X+7226300Y-1016000D03*
X+7226300Y-1143000D03*
X+7226300Y-1270000D03*
X+7226300Y-1397000D03*
X+7747000Y-1397000D03*
X+7747000Y-1270000D03*
X+7747000Y-1143000D03*
X+7747000Y-1016000D03*
D92*
X+6223000Y-2108200D03*
X+6350000Y-2108200D03*
X+6477000Y-2108200D03*
X+6604000Y-2108200D03*
X+6604000Y-1587500D03*
X+6477000Y-1587500D03*
X+6350000Y-1587500D03*
X+6223000Y-1587500D03*
D85*
X+3873500Y-2413000D03*
X+4173500Y-2413000D03*
X+3873500Y-762000D03*
X+4173500Y-762000D03*
D93*
X+3810000Y-1143000D03*
X+4191000Y-1143000D03*
D86*
X+3619500Y-2286000D03*
X+3619500Y-2576000D03*
X+3683000Y-254000D03*
X+3683000Y-544000D03*
D85*
X+4163500Y-254000D03*
X+3873500Y-254000D03*
X+3873500Y-2667000D03*
X+4163500Y-2667000D03*
D86*
X+5270500Y-635000D03*
X+5270500Y-345000D03*
X+4762500Y-635000D03*
X+4762500Y-345000D03*
D85*
X+4508500Y-2159000D03*
X+4798500Y-2159000D03*
X+4589500Y-825500D03*
X+4889500Y-825500D03*
D86*
X+5016500Y-335000D03*
X+5016500Y-635000D03*
X+4508500Y-335000D03*
X+4508500Y-635000D03*
D85*
X+4980500Y-2159000D03*
X+5270500Y-2159000D03*
X+4980500Y-1651000D03*
X+5270500Y-1651000D03*
X+7393500Y-2159000D03*
X+7683500Y-2159000D03*
X+4508500Y-1905000D03*
X+4808500Y-1905000D03*
X+4970500Y-1905000D03*
X+5270500Y-1905000D03*
X+4508500Y-1651000D03*
X+4808500Y-1651000D03*
D88*
X+7810500Y+907000D03*
X+7810500Y+1351500D03*
D87*
X+7048500Y+1397000D03*
X+7048500Y+947000D03*
D94*
X+6032500Y-1968500D03*
X+6032500Y-1733550D03*
D84*
X+7429500Y+190500D03*
X+6829500Y+190500D03*
D85*
X+6858000Y-1905000D03*
X+7158000Y-1905000D03*
X+6223000Y-762000D03*
X+6523000Y-762000D03*
D93*
X+6159500Y-1135380D03*
X+6540500Y-1135380D03*
D86*
X+5969000Y-254000D03*
X+5969000Y-544000D03*
D85*
X+6477000Y-254000D03*
X+6187000Y-254000D03*
D86*
X+5778500Y-2286000D03*
X+5778500Y-2576000D03*
D85*
X+6223000Y-2667000D03*
X+6513000Y-2667000D03*
X+6223000Y-2413000D03*
X+6523000Y-2413000D03*
X+7048500Y-825500D03*
X+7348500Y-825500D03*
X+7383500Y-1651000D03*
X+7683500Y-1651000D03*
D86*
X+7429500Y-335000D03*
X+7429500Y-635000D03*
D85*
X+6875500Y-1651000D03*
X+7175500Y-1651000D03*
D86*
X+6921500Y-335000D03*
X+6921500Y-635000D03*
D85*
X+7393500Y-1905000D03*
X+7683500Y-1905000D03*
D86*
X+7683500Y-635000D03*
X+7683500Y-345000D03*
X+7175500Y-635000D03*
X+7175500Y-345000D03*
D85*
X+6858000Y-2159000D03*
X+7148000Y-2159000D03*
X-4054120Y-1244600D03*
X-3754120Y-1244600D03*
X-4046500Y+762000D03*
X-3746500Y+762000D03*
X-4826000Y-2476500D03*
X-5126000Y-2476500D03*
D86*
X-5080000Y-1306000D03*
X-5080000Y-1016000D03*
D85*
X-4826000Y-2730500D03*
X-5116000Y-2730500D03*
D90*
X-3952240Y-1727200D03*
D93*
X-4643120Y-1498600D03*
X-4643120Y-1955800D03*
D90*
X-4445000Y-762000D03*
D93*
X-3754120Y-990600D03*
X-3754120Y-533400D03*
D90*
X-4445000Y+190500D03*
D93*
X-3754120Y-38100D03*
X-3754120Y+419100D03*
D85*
X-4643120Y-1244600D03*
X-4343120Y-1244600D03*
X-2413000Y-2413000D03*
X-2123000Y-2413000D03*
X-190500Y-2413000D03*
X+99500Y-2413000D03*
X+2095500Y-2413000D03*
X+2385500Y-2413000D03*
X+4381500Y-2413000D03*
X+4671500Y-2413000D03*
X+6731000Y-2413000D03*
X+7021000Y-2413000D03*
D97*
X-6731000Y-444500D03*
X-6731000Y+444500D03*
D98*
X-5429250Y-1397000D03*
X-5664200Y-1397000D03*
D99*
X-6756400Y-1396216D03*
D100*
X-5524500Y-1650216D03*
X-5524500Y-1142216D03*
D85*
X-5361500Y-1968500D03*
X-5651500Y-1968500D03*
D100*
X-6032500Y-63500D03*
X-5143500Y-63500D03*
X-6477000Y+1143000D03*
X-5588000Y+1143000D03*
D38*
X-7429500Y-4254500D02*
X+8509000Y-4254500D01*
X+8509000Y+2921000D01*
X-7429500Y+2921000D01*
X-7429500Y-4254500D01*
M02*
