G04 PROTEUS GERBER X2 FILE*
%TF.GenerationSoftware,Labcenter,Proteus,8.7-SP3-Build25561*%
%TF.CreationDate,2021-05-23T19:28:46+00:00*%
%TF.FileFunction,Soldermask,Top*%
%TF.FilePolarity,Negative*%
%TF.Part,Single*%
%TF.SameCoordinates,{ce74c1e3-353a-4a96-b4f4-cabdf69041bd}*%
%FSLAX45Y45*%
%MOMM*%
G01*
%TA.AperFunction,Material*%
%ADD44C,1.016000*%
%ADD45C,1.524000*%
%ADD46C,2.286000*%
%AMPPAD041*
4,1,4,
0.596900,-2.654300,
-0.596900,-2.654300,
-0.596900,2.654300,
0.596900,2.654300,
0.596900,-2.654300,
0*%
%TA.AperFunction,Material*%
%ADD47PPAD041*%
%TA.AperFunction,Material*%
%ADD48C,4.064000*%
%ADD49C,2.794000*%
%AMPPAD044*
4,1,4,
-0.571500,0.901700,
0.571500,0.901700,
0.571500,-0.901700,
-0.571500,-0.901700,
-0.571500,0.901700,
0*%
%TA.AperFunction,Material*%
%ADD50PPAD044*%
%AMPPAD045*
4,1,4,
0.901700,0.571500,
0.901700,-0.571500,
-0.901700,-0.571500,
-0.901700,0.571500,
0.901700,0.571500,
0*%
%ADD51PPAD045*%
%AMPPAD046*
4,1,4,
1.054100,-1.054100,
-1.054100,-1.054100,
-1.054100,1.054100,
1.054100,1.054100,
1.054100,-1.054100,
0*%
%ADD52PPAD046*%
%AMPPAD047*
4,1,36,
0.825500,-1.651000,
-0.825500,-1.651000,
-0.851470,-1.648470,
-0.875480,-1.641200,
-0.897080,-1.629650,
-0.915790,-1.614290,
-0.931150,-1.595570,
-0.942700,-1.573980,
-0.949970,-1.549970,
-0.952500,-1.524000,
-0.952500,1.524000,
-0.949970,1.549970,
-0.942700,1.573980,
-0.931150,1.595570,
-0.915790,1.614290,
-0.897080,1.629650,
-0.875480,1.641200,
-0.851470,1.648470,
-0.825500,1.651000,
0.825500,1.651000,
0.851470,1.648470,
0.875480,1.641200,
0.897080,1.629650,
0.915790,1.614290,
0.931150,1.595570,
0.942700,1.573980,
0.949970,1.549970,
0.952500,1.524000,
0.952500,-1.524000,
0.949970,-1.549970,
0.942700,-1.573980,
0.931150,-1.595570,
0.915790,-1.614290,
0.897080,-1.629650,
0.875480,-1.641200,
0.851470,-1.648470,
0.825500,-1.651000,
0*%
%ADD53PPAD047*%
%AMPPAD048*
4,1,4,
1.701800,0.622300,
1.701800,-0.622300,
-1.701800,-0.622300,
-1.701800,0.622300,
1.701800,0.622300,
0*%
%ADD54PPAD048*%
%AMPPAD049*
4,1,36,
-3.492500,3.619500,
3.492500,3.619500,
3.518470,3.616970,
3.542480,3.609700,
3.564080,3.598150,
3.582790,3.582790,
3.598150,3.564070,
3.609700,3.542480,
3.616970,3.518470,
3.619500,3.492500,
3.619500,-3.492500,
3.616970,-3.518470,
3.609700,-3.542480,
3.598150,-3.564070,
3.582790,-3.582790,
3.564080,-3.598150,
3.542480,-3.609700,
3.518470,-3.616970,
3.492500,-3.619500,
-3.492500,-3.619500,
-3.518470,-3.616970,
-3.542480,-3.609700,
-3.564080,-3.598150,
-3.582790,-3.582790,
-3.598150,-3.564070,
-3.609700,-3.542480,
-3.616970,-3.518470,
-3.619500,-3.492500,
-3.619500,3.492500,
-3.616970,3.518470,
-3.609700,3.542480,
-3.598150,3.564070,
-3.582790,3.582790,
-3.564080,3.598150,
-3.542480,3.609700,
-3.518470,3.616970,
-3.492500,3.619500,
0*%
%TA.AperFunction,Material*%
%ADD55PPAD049*%
%AMPPAD050*
4,1,36,
-0.762000,1.397000,
0.762000,1.397000,
0.787970,1.394470,
0.811980,1.387200,
0.833580,1.375650,
0.852290,1.360290,
0.867650,1.341570,
0.879200,1.319980,
0.886470,1.295970,
0.889000,1.270000,
0.889000,-1.270000,
0.886470,-1.295970,
0.879200,-1.319980,
0.867650,-1.341570,
0.852290,-1.360290,
0.833580,-1.375650,
0.811980,-1.387200,
0.787970,-1.394470,
0.762000,-1.397000,
-0.762000,-1.397000,
-0.787970,-1.394470,
-0.811980,-1.387200,
-0.833580,-1.375650,
-0.852290,-1.360290,
-0.867650,-1.341570,
-0.879200,-1.319980,
-0.886470,-1.295970,
-0.889000,-1.270000,
-0.889000,1.270000,
-0.886470,1.295970,
-0.879200,1.319980,
-0.867650,1.341570,
-0.852290,1.360290,
-0.833580,1.375650,
-0.811980,1.387200,
-0.787970,1.394470,
-0.762000,1.397000,
0*%
%ADD56PPAD050*%
%AMPPAD051*
4,1,36,
0.317500,-1.143000,
-0.317500,-1.143000,
-0.343470,-1.140470,
-0.367480,-1.133200,
-0.389080,-1.121650,
-0.407790,-1.106290,
-0.423150,-1.087570,
-0.434700,-1.065980,
-0.441970,-1.041970,
-0.444500,-1.016000,
-0.444500,1.016000,
-0.441970,1.041970,
-0.434700,1.065980,
-0.423150,1.087570,
-0.407790,1.106290,
-0.389080,1.121650,
-0.367480,1.133200,
-0.343470,1.140470,
-0.317500,1.143000,
0.317500,1.143000,
0.343470,1.140470,
0.367480,1.133200,
0.389080,1.121650,
0.407790,1.106290,
0.423150,1.087570,
0.434700,1.065980,
0.441970,1.041970,
0.444500,1.016000,
0.444500,-1.016000,
0.441970,-1.041970,
0.434700,-1.065980,
0.423150,-1.087570,
0.407790,-1.106290,
0.389080,-1.121650,
0.367480,-1.133200,
0.343470,-1.140470,
0.317500,-1.143000,
0*%
%TA.AperFunction,Material*%
%ADD57PPAD051*%
%AMPPAD052*
4,1,36,
-1.397000,-0.762000,
-1.397000,0.762000,
-1.394470,0.787970,
-1.387200,0.811980,
-1.375650,0.833580,
-1.360290,0.852290,
-1.341570,0.867650,
-1.319980,0.879200,
-1.295970,0.886470,
-1.270000,0.889000,
1.270000,0.889000,
1.295970,0.886470,
1.319980,0.879200,
1.341570,0.867650,
1.360290,0.852290,
1.375650,0.833580,
1.387200,0.811980,
1.394470,0.787970,
1.397000,0.762000,
1.397000,-0.762000,
1.394470,-0.787970,
1.387200,-0.811980,
1.375650,-0.833580,
1.360290,-0.852290,
1.341570,-0.867650,
1.319980,-0.879200,
1.295970,-0.886470,
1.270000,-0.889000,
-1.270000,-0.889000,
-1.295970,-0.886470,
-1.319980,-0.879200,
-1.341570,-0.867650,
-1.360290,-0.852290,
-1.375650,-0.833580,
-1.387200,-0.811980,
-1.394470,-0.787970,
-1.397000,-0.762000,
0*%
%TA.AperFunction,Material*%
%ADD58PPAD052*%
%AMPPAD053*
4,1,36,
0.571500,0.317500,
0.571500,-0.317500,
0.568970,-0.343470,
0.561700,-0.367480,
0.550150,-0.389080,
0.534790,-0.407790,
0.516070,-0.423150,
0.494480,-0.434700,
0.470470,-0.441970,
0.444500,-0.444500,
-0.444500,-0.444500,
-0.470470,-0.441970,
-0.494480,-0.434700,
-0.516070,-0.423150,
-0.534790,-0.407790,
-0.550150,-0.389080,
-0.561700,-0.367480,
-0.568970,-0.343470,
-0.571500,-0.317500,
-0.571500,0.317500,
-0.568970,0.343470,
-0.561700,0.367480,
-0.550150,0.389080,
-0.534790,0.407790,
-0.516070,0.423150,
-0.494480,0.434700,
-0.470470,0.441970,
-0.444500,0.444500,
0.444500,0.444500,
0.470470,0.441970,
0.494480,0.434700,
0.516070,0.423150,
0.534790,0.407790,
0.550150,0.389080,
0.561700,0.367480,
0.568970,0.343470,
0.571500,0.317500,
0*%
%ADD59PPAD053*%
%AMPPAD054*
4,1,36,
0.444500,-0.635000,
-0.444500,-0.635000,
-0.470470,-0.632470,
-0.494480,-0.625200,
-0.516080,-0.613650,
-0.534790,-0.598290,
-0.550150,-0.579570,
-0.561700,-0.557980,
-0.568970,-0.533970,
-0.571500,-0.508000,
-0.571500,0.508000,
-0.568970,0.533970,
-0.561700,0.557980,
-0.550150,0.579570,
-0.534790,0.598290,
-0.516080,0.613650,
-0.494480,0.625200,
-0.470470,0.632470,
-0.444500,0.635000,
0.444500,0.635000,
0.470470,0.632470,
0.494480,0.625200,
0.516080,0.613650,
0.534790,0.598290,
0.550150,0.579570,
0.561700,0.557980,
0.568970,0.533970,
0.571500,0.508000,
0.571500,-0.508000,
0.568970,-0.533970,
0.561700,-0.557980,
0.550150,-0.579570,
0.534790,-0.598290,
0.516080,-0.613650,
0.494480,-0.625200,
0.470470,-0.632470,
0.444500,-0.635000,
0*%
%TA.AperFunction,Material*%
%ADD60PPAD054*%
%AMPPAD055*
4,1,36,
-1.143000,-0.317500,
-1.143000,0.317500,
-1.140470,0.343470,
-1.133200,0.367480,
-1.121650,0.389080,
-1.106290,0.407790,
-1.087570,0.423150,
-1.065980,0.434700,
-1.041970,0.441970,
-1.016000,0.444500,
1.016000,0.444500,
1.041970,0.441970,
1.065980,0.434700,
1.087570,0.423150,
1.106290,0.407790,
1.121650,0.389080,
1.133200,0.367480,
1.140470,0.343470,
1.143000,0.317500,
1.143000,-0.317500,
1.140470,-0.343470,
1.133200,-0.367480,
1.121650,-0.389080,
1.106290,-0.407790,
1.087570,-0.423150,
1.065980,-0.434700,
1.041970,-0.441970,
1.016000,-0.444500,
-1.016000,-0.444500,
-1.041970,-0.441970,
-1.065980,-0.434700,
-1.087570,-0.423150,
-1.106290,-0.407790,
-1.121650,-0.389080,
-1.133200,-0.367480,
-1.140470,-0.343470,
-1.143000,-0.317500,
0*%
%TA.AperFunction,Material*%
%ADD61PPAD055*%
%TA.AperFunction,Material*%
%ADD62C,7.874000*%
%AMPPAD057*
4,1,36,
3.619500,3.492500,
3.619500,-3.492500,
3.616970,-3.518470,
3.609700,-3.542480,
3.598150,-3.564080,
3.582790,-3.582790,
3.564070,-3.598150,
3.542480,-3.609700,
3.518470,-3.616970,
3.492500,-3.619500,
-3.492500,-3.619500,
-3.518470,-3.616970,
-3.542480,-3.609700,
-3.564070,-3.598150,
-3.582790,-3.582790,
-3.598150,-3.564080,
-3.609700,-3.542480,
-3.616970,-3.518470,
-3.619500,-3.492500,
-3.619500,3.492500,
-3.616970,3.518470,
-3.609700,3.542480,
-3.598150,3.564080,
-3.582790,3.582790,
-3.564070,3.598150,
-3.542480,3.609700,
-3.518470,3.616970,
-3.492500,3.619500,
3.492500,3.619500,
3.518470,3.616970,
3.542480,3.609700,
3.564070,3.598150,
3.582790,3.582790,
3.598150,3.564080,
3.609700,3.542480,
3.616970,3.518470,
3.619500,3.492500,
0*%
%TA.AperFunction,Material*%
%ADD63PPAD057*%
%AMPPAD058*
4,1,36,
-1.016000,2.032000,
1.016000,2.032000,
1.041970,2.029470,
1.065980,2.022200,
1.087580,2.010650,
1.106290,1.995290,
1.121650,1.976570,
1.133200,1.954980,
1.140470,1.930970,
1.143000,1.905000,
1.143000,-1.905000,
1.140470,-1.930970,
1.133200,-1.954980,
1.121650,-1.976570,
1.106290,-1.995290,
1.087580,-2.010650,
1.065980,-2.022200,
1.041970,-2.029470,
1.016000,-2.032000,
-1.016000,-2.032000,
-1.041970,-2.029470,
-1.065980,-2.022200,
-1.087580,-2.010650,
-1.106290,-1.995290,
-1.121650,-1.976570,
-1.133200,-1.954980,
-1.140470,-1.930970,
-1.143000,-1.905000,
-1.143000,1.905000,
-1.140470,1.930970,
-1.133200,1.954980,
-1.121650,1.976570,
-1.106290,1.995290,
-1.087580,2.010650,
-1.065980,2.022200,
-1.041970,2.029470,
-1.016000,2.032000,
0*%
%TA.AperFunction,Material*%
%ADD64PPAD058*%
%AMPPAD059*
4,1,36,
-0.317500,0.571500,
0.317500,0.571500,
0.343470,0.568970,
0.367480,0.561700,
0.389080,0.550150,
0.407790,0.534790,
0.423150,0.516070,
0.434700,0.494480,
0.441970,0.470470,
0.444500,0.444500,
0.444500,-0.444500,
0.441970,-0.470470,
0.434700,-0.494480,
0.423150,-0.516070,
0.407790,-0.534790,
0.389080,-0.550150,
0.367480,-0.561700,
0.343470,-0.568970,
0.317500,-0.571500,
-0.317500,-0.571500,
-0.343470,-0.568970,
-0.367480,-0.561700,
-0.389080,-0.550150,
-0.407790,-0.534790,
-0.423150,-0.516070,
-0.434700,-0.494480,
-0.441970,-0.470470,
-0.444500,-0.444500,
-0.444500,0.444500,
-0.441970,0.470470,
-0.434700,0.494480,
-0.423150,0.516070,
-0.407790,0.534790,
-0.389080,0.550150,
-0.367480,0.561700,
-0.343470,0.568970,
-0.317500,0.571500,
0*%
%ADD65PPAD059*%
%AMPPAD060*
4,1,36,
-4.572000,-5.715000,
-4.572000,5.715000,
-4.569470,5.740970,
-4.562200,5.764980,
-4.550650,5.786580,
-4.535290,5.805290,
-4.516570,5.820650,
-4.494980,5.832200,
-4.470970,5.839470,
-4.445000,5.842000,
4.445000,5.842000,
4.470970,5.839470,
4.494980,5.832200,
4.516570,5.820650,
4.535290,5.805290,
4.550650,5.786580,
4.562200,5.764980,
4.569470,5.740970,
4.572000,5.715000,
4.572000,-5.715000,
4.569470,-5.740970,
4.562200,-5.764980,
4.550650,-5.786580,
4.535290,-5.805290,
4.516570,-5.820650,
4.494980,-5.832200,
4.470970,-5.839470,
4.445000,-5.842000,
-4.445000,-5.842000,
-4.470970,-5.839470,
-4.494980,-5.832200,
-4.516570,-5.820650,
-4.535290,-5.805290,
-4.550650,-5.786580,
-4.562200,-5.764980,
-4.569470,-5.740970,
-4.572000,-5.715000,
0*%
%TA.AperFunction,Material*%
%ADD66PPAD060*%
%AMPPAD061*
4,1,36,
-2.032000,-1.016000,
-2.032000,1.016000,
-2.029470,1.041970,
-2.022200,1.065980,
-2.010650,1.087580,
-1.995290,1.106290,
-1.976570,1.121650,
-1.954980,1.133200,
-1.930970,1.140470,
-1.905000,1.143000,
1.905000,1.143000,
1.930970,1.140470,
1.954980,1.133200,
1.976570,1.121650,
1.995290,1.106290,
2.010650,1.087580,
2.022200,1.065980,
2.029470,1.041970,
2.032000,1.016000,
2.032000,-1.016000,
2.029470,-1.041970,
2.022200,-1.065980,
2.010650,-1.087580,
1.995290,-1.106290,
1.976570,-1.121650,
1.954980,-1.133200,
1.930970,-1.140470,
1.905000,-1.143000,
-1.905000,-1.143000,
-1.930970,-1.140470,
-1.954980,-1.133200,
-1.976570,-1.121650,
-1.995290,-1.106290,
-2.010650,-1.087580,
-2.022200,-1.065980,
-2.029470,-1.041970,
-2.032000,-1.016000,
0*%
%ADD67PPAD061*%
%TA.AperFunction,Profile*%
%ADD38C,0.203200*%
%TD.AperFunction*%
D44*
X+1145382Y-2682923D03*
D45*
X-1270000Y-2413000D03*
X+6032500Y-2095500D03*
X+1079500Y-2413000D03*
X+1143584Y-2681125D03*
D44*
X-3424759Y-2876572D03*
X+3429000Y-3302000D03*
D45*
X+4635500Y-3048000D03*
X+5995294Y-3705851D03*
X+8128000Y-2730500D03*
D46*
X-2984500Y+1587500D03*
X-571500Y+1651000D03*
X+1714500Y+1651000D03*
X+4134346Y+1645009D03*
X+5778500Y+1968500D03*
X+6437156Y+1707029D03*
X+3365500Y+2095500D03*
X+952500Y+2095500D03*
X-1333500Y+2095500D03*
D45*
X-4635500Y-2476500D03*
X-3429000Y-2876572D03*
X-3175000Y-3873500D03*
X-3749845Y-768079D03*
X-3746500Y+190500D03*
D46*
X-4263961Y+1955083D03*
D45*
X-5394560Y+718686D03*
X-1079500Y-2857500D03*
D47*
X-1778000Y+190500D03*
X-2378000Y+190500D03*
D48*
X-7048500Y-2476500D03*
X-7048500Y-2921000D03*
D49*
X-1651000Y+1841500D03*
D46*
X-2921000Y-3556000D03*
X-2921000Y-3048000D03*
X-2921000Y-3302000D03*
D50*
X-4117620Y-292100D03*
X-3817620Y-292100D03*
D51*
X-4960620Y-1498600D03*
X-4960620Y-1798600D03*
D52*
X-2095500Y+1339000D03*
X-2095500Y+889000D03*
D53*
X-1460500Y+889000D03*
X-1460500Y+1333500D03*
D54*
X-1460500Y+610000D03*
X-1460500Y+0D03*
D55*
X-2895600Y+817880D03*
D56*
X-3124200Y+127000D03*
X-2667000Y+127000D03*
D57*
X-2921000Y-2108200D03*
X-2794000Y-2108200D03*
X-2667000Y-2108200D03*
X-2540000Y-2108200D03*
X-2540000Y-1587500D03*
X-2667000Y-1587500D03*
X-2794000Y-1587500D03*
X-2921000Y-1587500D03*
D50*
X-2667000Y-254000D03*
X-2957000Y-254000D03*
D51*
X-3175000Y-254000D03*
X-3175000Y-544000D03*
D50*
X-2967000Y-768350D03*
X-2667000Y-768350D03*
D58*
X-2984500Y-1143000D03*
X-2603500Y-1143000D03*
D59*
X-3111500Y-1968500D03*
X-3111500Y-1733550D03*
D50*
X-2921000Y-2413000D03*
X-2621000Y-2413000D03*
X-2893500Y-2667000D03*
X-2603500Y-2667000D03*
D60*
X-3268980Y-1397000D03*
X-3362960Y-1587500D03*
X-3175000Y-1587500D03*
D51*
X-3111500Y-2286000D03*
X-3111500Y-2576000D03*
X-1587500Y-635000D03*
X-1587500Y-345000D03*
X-2095500Y-635000D03*
X-2095500Y-345000D03*
X-1841500Y-335000D03*
X-1841500Y-635000D03*
D61*
X-2044700Y-1016000D03*
X-2044700Y-1143000D03*
X-2044700Y-1270000D03*
X-2044700Y-1397000D03*
X-1524000Y-1397000D03*
X-1524000Y-1270000D03*
X-1524000Y-1143000D03*
X-1524000Y-1016000D03*
D50*
X-2222500Y-825500D03*
X-1922500Y-825500D03*
X-1841500Y-2159000D03*
X-1551500Y-2159000D03*
X-1841500Y-1651000D03*
X-1551500Y-1651000D03*
X-2349500Y-2159000D03*
X-2059500Y-2159000D03*
X-2349500Y-1651000D03*
X-2049500Y-1651000D03*
X-2349500Y-1905000D03*
X-2049500Y-1905000D03*
X-1841500Y-1905000D03*
X-1541500Y-1905000D03*
D51*
X-2349500Y-335000D03*
X-2349500Y-635000D03*
D55*
X-635000Y+817880D03*
D56*
X-863600Y+127000D03*
X-406400Y+127000D03*
D47*
X+508000Y+190500D03*
X-92000Y+190500D03*
D52*
X+127000Y+1397000D03*
X+127000Y+947000D03*
D53*
X+825500Y+907000D03*
X+825500Y+1351500D03*
D54*
X+825500Y+610000D03*
X+825500Y+0D03*
D61*
X+241300Y-1016000D03*
X+241300Y-1143000D03*
X+241300Y-1270000D03*
X+241300Y-1397000D03*
X+762000Y-1397000D03*
X+762000Y-1270000D03*
X+762000Y-1143000D03*
X+762000Y-1016000D03*
D51*
X-889000Y-254000D03*
X-889000Y-544000D03*
D50*
X-408500Y-254000D03*
X-698500Y-254000D03*
X-698500Y-762000D03*
X-398500Y-762000D03*
D58*
X-762000Y-1143000D03*
X-381000Y-1143000D03*
D60*
X-1046480Y-1397000D03*
X-1140460Y-1587500D03*
X-952500Y-1587500D03*
D59*
X-889000Y-1968500D03*
X-889000Y-1733550D03*
D57*
X-698500Y-2108200D03*
X-571500Y-2108200D03*
X-444500Y-2108200D03*
X-317500Y-2108200D03*
X-317500Y-1587500D03*
X-444500Y-1587500D03*
X-571500Y-1587500D03*
X-698500Y-1587500D03*
D51*
X-889000Y-2313500D03*
X-889000Y-2603500D03*
D50*
X-671000Y-2667000D03*
X-381000Y-2667000D03*
X-681000Y-2413000D03*
X-381000Y-2413000D03*
D51*
X+0Y-345000D03*
X+0Y-645000D03*
X+508000Y-345000D03*
X+508000Y-645000D03*
X+762000Y-635000D03*
X+762000Y-345000D03*
X+254000Y-635000D03*
X+254000Y-345000D03*
D50*
X+81000Y-825500D03*
X+381000Y-825500D03*
X-63500Y-1651000D03*
X+236500Y-1651000D03*
X-63500Y-1905000D03*
X+236500Y-1905000D03*
X-63500Y-2159000D03*
X+226500Y-2159000D03*
X+444500Y-1651000D03*
X+734500Y-1651000D03*
X+444500Y-2159000D03*
X+734500Y-2159000D03*
X+444500Y-1905000D03*
X+744500Y-1905000D03*
D49*
X+571500Y+1841500D03*
D46*
X-762000Y-3556000D03*
X-762000Y-3302000D03*
X-762000Y-3048000D03*
D53*
X+3111500Y+889000D03*
X+3111500Y+1333500D03*
D52*
X+2413000Y+1397000D03*
X+2413000Y+947000D03*
D59*
X+1397000Y-1968500D03*
X+1397000Y-1733550D03*
D47*
X+2794000Y+190500D03*
X+2194000Y+190500D03*
D60*
X+1239520Y-1397000D03*
X+1145540Y-1587500D03*
X+1333500Y-1587500D03*
D55*
X+1651000Y+817880D03*
D56*
X+1422400Y+127000D03*
X+1879600Y+127000D03*
D46*
X+1587500Y-3302000D03*
X+1587500Y-3556000D03*
X+1587500Y-3048000D03*
D61*
X+2527300Y-1016000D03*
X+2527300Y-1143000D03*
X+2527300Y-1270000D03*
X+2527300Y-1397000D03*
X+3048000Y-1397000D03*
X+3048000Y-1270000D03*
X+3048000Y-1143000D03*
X+3048000Y-1016000D03*
D57*
X+1587500Y-2108200D03*
X+1714500Y-2108200D03*
X+1841500Y-2108200D03*
X+1968500Y-2108200D03*
X+1968500Y-1587500D03*
X+1841500Y-1587500D03*
X+1714500Y-1587500D03*
X+1587500Y-1587500D03*
D54*
X+3111500Y+610000D03*
X+3111500Y+0D03*
D49*
X+2857500Y+1841500D03*
D50*
X+1587500Y-762000D03*
X+1887500Y-762000D03*
D58*
X+1524000Y-1143000D03*
X+1905000Y-1143000D03*
D51*
X+1397000Y-254000D03*
X+1397000Y-544000D03*
D50*
X+1877500Y-254000D03*
X+1587500Y-254000D03*
X+1587500Y-2667000D03*
X+1877500Y-2667000D03*
D51*
X+1333500Y-2286000D03*
X+1333500Y-2576000D03*
D50*
X+1587500Y-2413000D03*
X+1887500Y-2413000D03*
D51*
X+2222500Y-317500D03*
X+2222500Y-617500D03*
X+2476500Y-607500D03*
X+2476500Y-317500D03*
X+3048000Y-607500D03*
X+3048000Y-317500D03*
X+2794000Y-617500D03*
X+2794000Y-317500D03*
D50*
X+2367000Y-825500D03*
X+2667000Y-825500D03*
X+2730500Y-2159000D03*
X+3020500Y-2159000D03*
X+2730500Y-1651000D03*
X+3020500Y-1651000D03*
X+2250000Y-2159000D03*
X+2540000Y-2159000D03*
X+2240000Y-1905000D03*
X+2540000Y-1905000D03*
X+2730500Y-1905000D03*
X+3030500Y-1905000D03*
X+2240000Y-1651000D03*
X+2540000Y-1651000D03*
D53*
X+5461000Y+889000D03*
X+5461000Y+1333500D03*
D52*
X+4762500Y+1397000D03*
X+4762500Y+947000D03*
D59*
X+3683000Y-1968500D03*
X+3683000Y-1733550D03*
D46*
X+3937000Y-3556000D03*
X+6223000Y-3556000D03*
X+3937000Y-3048000D03*
X+6223000Y-3048000D03*
D47*
X+5080000Y+190500D03*
X+4480000Y+190500D03*
D46*
X+3937000Y-3302000D03*
X+6223000Y-3302000D03*
D60*
X+3525520Y-1397000D03*
X+3431540Y-1587500D03*
X+3619500Y-1587500D03*
D55*
X+3937000Y+825500D03*
D56*
X+3708400Y+134620D03*
X+4165600Y+134620D03*
D60*
X+5875020Y-1397000D03*
X+5781040Y-1587500D03*
X+5969000Y-1587500D03*
D55*
X+6261100Y+817880D03*
D56*
X+6032500Y+127000D03*
X+6489700Y+127000D03*
D49*
X+5207000Y+1841500D03*
X+7556500Y+1841500D03*
D54*
X+5397500Y+610000D03*
X+5397500Y+0D03*
X+7810500Y+635000D03*
X+7810500Y+25000D03*
D61*
X+4813300Y-1016000D03*
X+4813300Y-1143000D03*
X+4813300Y-1270000D03*
X+4813300Y-1397000D03*
X+5334000Y-1397000D03*
X+5334000Y-1270000D03*
X+5334000Y-1143000D03*
X+5334000Y-1016000D03*
D57*
X+3873500Y-2108200D03*
X+4000500Y-2108200D03*
X+4127500Y-2108200D03*
X+4254500Y-2108200D03*
X+4254500Y-1587500D03*
X+4127500Y-1587500D03*
X+4000500Y-1587500D03*
X+3873500Y-1587500D03*
D61*
X+7226300Y-1016000D03*
X+7226300Y-1143000D03*
X+7226300Y-1270000D03*
X+7226300Y-1397000D03*
X+7747000Y-1397000D03*
X+7747000Y-1270000D03*
X+7747000Y-1143000D03*
X+7747000Y-1016000D03*
D57*
X+6223000Y-2108200D03*
X+6350000Y-2108200D03*
X+6477000Y-2108200D03*
X+6604000Y-2108200D03*
X+6604000Y-1587500D03*
X+6477000Y-1587500D03*
X+6350000Y-1587500D03*
X+6223000Y-1587500D03*
D50*
X+3873500Y-2413000D03*
X+4173500Y-2413000D03*
X+3873500Y-762000D03*
X+4173500Y-762000D03*
D58*
X+3810000Y-1143000D03*
X+4191000Y-1143000D03*
D51*
X+3619500Y-2286000D03*
X+3619500Y-2576000D03*
X+3683000Y-254000D03*
X+3683000Y-544000D03*
D50*
X+4163500Y-254000D03*
X+3873500Y-254000D03*
X+3873500Y-2667000D03*
X+4163500Y-2667000D03*
D51*
X+5270500Y-635000D03*
X+5270500Y-345000D03*
X+4762500Y-635000D03*
X+4762500Y-345000D03*
D50*
X+4508500Y-2159000D03*
X+4798500Y-2159000D03*
X+4589500Y-825500D03*
X+4889500Y-825500D03*
D51*
X+5016500Y-335000D03*
X+5016500Y-635000D03*
X+4508500Y-335000D03*
X+4508500Y-635000D03*
D50*
X+4980500Y-2159000D03*
X+5270500Y-2159000D03*
X+4980500Y-1651000D03*
X+5270500Y-1651000D03*
X+7393500Y-2159000D03*
X+7683500Y-2159000D03*
X+4508500Y-1905000D03*
X+4808500Y-1905000D03*
X+4970500Y-1905000D03*
X+5270500Y-1905000D03*
X+4508500Y-1651000D03*
X+4808500Y-1651000D03*
D53*
X+7810500Y+907000D03*
X+7810500Y+1351500D03*
D52*
X+7048500Y+1397000D03*
X+7048500Y+947000D03*
D59*
X+6032500Y-1968500D03*
X+6032500Y-1733550D03*
D47*
X+7429500Y+190500D03*
X+6829500Y+190500D03*
D50*
X+6858000Y-1905000D03*
X+7158000Y-1905000D03*
X+6223000Y-762000D03*
X+6523000Y-762000D03*
D58*
X+6159500Y-1135380D03*
X+6540500Y-1135380D03*
D51*
X+5969000Y-254000D03*
X+5969000Y-544000D03*
D50*
X+6477000Y-254000D03*
X+6187000Y-254000D03*
D51*
X+5778500Y-2286000D03*
X+5778500Y-2576000D03*
D50*
X+6223000Y-2667000D03*
X+6513000Y-2667000D03*
X+6223000Y-2413000D03*
X+6523000Y-2413000D03*
X+7048500Y-825500D03*
X+7348500Y-825500D03*
X+7383500Y-1651000D03*
X+7683500Y-1651000D03*
D51*
X+7429500Y-335000D03*
X+7429500Y-635000D03*
D50*
X+6875500Y-1651000D03*
X+7175500Y-1651000D03*
D51*
X+6921500Y-335000D03*
X+6921500Y-635000D03*
D50*
X+7393500Y-1905000D03*
X+7683500Y-1905000D03*
D51*
X+7683500Y-635000D03*
X+7683500Y-345000D03*
X+7175500Y-635000D03*
X+7175500Y-345000D03*
D50*
X+6858000Y-2159000D03*
X+7148000Y-2159000D03*
D46*
X+7112000Y-3302000D03*
X+5461000Y-3302000D03*
X+2984500Y-3302000D03*
X+571500Y-3302000D03*
X-1778000Y-3302000D03*
X+7112000Y-3556000D03*
X+5461000Y-3556000D03*
X+2984500Y-3556000D03*
X+571500Y-3556000D03*
X-1778000Y-3556000D03*
X+7112000Y-3048000D03*
X+5461000Y-3048000D03*
X+2984500Y-3048000D03*
X+571500Y-3048000D03*
X-1778000Y-3048000D03*
D49*
X+6667500Y+1841500D03*
X+4318000Y+1841500D03*
X+1968500Y+1841500D03*
X-317500Y+1841500D03*
X-2540000Y+1841500D03*
X-5016500Y+1905000D03*
D46*
X-4318000Y-3556000D03*
X-4318000Y-3048000D03*
X-4318000Y-3302000D03*
D50*
X-4054120Y-1244600D03*
X-3754120Y-1244600D03*
X-4046500Y+762000D03*
X-3746500Y+762000D03*
D62*
X-6921500Y-3810000D03*
X-6921500Y+2413000D03*
X+8001000Y+2413000D03*
X+8001000Y-3746500D03*
D50*
X-4826000Y-2476500D03*
X-5126000Y-2476500D03*
D51*
X-5080000Y-1306000D03*
X-5080000Y-1016000D03*
D50*
X-4826000Y-2730500D03*
X-5116000Y-2730500D03*
D46*
X-5207000Y-3048000D03*
X-5207000Y-3302000D03*
X-5207000Y-3556000D03*
D63*
X-3952240Y-1727200D03*
D58*
X-4643120Y-1498600D03*
X-4643120Y-1955800D03*
D63*
X-4445000Y-762000D03*
D58*
X-3754120Y-990600D03*
X-3754120Y-533400D03*
D63*
X-4445000Y+190500D03*
D58*
X-3754120Y-38100D03*
X-3754120Y+419100D03*
D50*
X-4643120Y-1244600D03*
X-4343120Y-1244600D03*
D46*
X-5207000Y-3810000D03*
X-4635500Y+1905000D03*
D50*
X-2413000Y-2413000D03*
X-2123000Y-2413000D03*
X-190500Y-2413000D03*
X+99500Y-2413000D03*
X+2095500Y-2413000D03*
X+2385500Y-2413000D03*
X+4381500Y-2413000D03*
X+4671500Y-2413000D03*
X+6731000Y-2413000D03*
X+7021000Y-2413000D03*
D64*
X-6731000Y-444500D03*
X-6731000Y+444500D03*
D65*
X-5429250Y-1397000D03*
X-5664200Y-1397000D03*
D66*
X-6756400Y-1396216D03*
D67*
X-5524500Y-1650216D03*
X-5524500Y-1142216D03*
D50*
X-5361500Y-1968500D03*
X-5651500Y-1968500D03*
D67*
X-6032500Y-63500D03*
X-5143500Y-63500D03*
X-6477000Y+1143000D03*
X-5588000Y+1143000D03*
D38*
X-7429500Y-4254500D02*
X+8509000Y-4254500D01*
X+8509000Y+2921000D01*
X-7429500Y+2921000D01*
X-7429500Y-4254500D01*
M02*
