G04 PROTEUS GERBER X2 FILE*
%TF.GenerationSoftware,Labcenter,Proteus,8.7-SP3-Build25561*%
%TF.CreationDate,2021-05-23T19:19:56+00:00*%
%TF.FileFunction,Copper,L3,Inr*%
%TF.FilePolarity,Positive*%
%TF.Part,Single*%
%TF.SameCoordinates,{bb4e542a-de17-4d2d-b6f0-32913e85bf41}*%
%FSLAX45Y45*%
%MOMM*%
G01*
%TA.AperFunction,ViaPad*%
%ADD18C,1.270000*%
%ADD19C,1.778000*%
%ADD70C,1.016000*%
%ADD71C,0.762000*%
%ADD20C,2.032000*%
%TA.AperFunction,ComponentPad*%
%ADD22C,3.810000*%
%ADD23C,2.540000*%
%ADD24C,2.032000*%
%TA.AperFunction,OtherPad,Unknown*%
%ADD35C,7.620000*%
%TA.AperFunction,Profile*%
%ADD40C,0.203200*%
%TD.AperFunction*%
D18*
X+6858000Y-3556000D03*
D19*
X+2921000Y-3175000D03*
X+2921000Y-3429000D03*
X+2921000Y-3683000D03*
D70*
X+4457601Y+1587500D03*
X+4254500Y+1587500D03*
X+4000500Y+1587500D03*
X+3746500Y+1587500D03*
D18*
X+7400945Y-3273445D03*
D70*
X-3379970Y-639428D03*
X-3374955Y-1215192D03*
X-3238500Y-1905000D03*
D71*
X-5560983Y-3423705D03*
D20*
X-635000Y+1841500D03*
X+1651000Y+1841500D03*
X+3383781Y+2028052D03*
X+5778500Y+2032000D03*
X+7075312Y+1816100D03*
D18*
X-4989352Y+736133D03*
X-3302000Y-63500D03*
X-4254500Y-2844450D03*
X-3777899Y-3079399D03*
X+7003489Y-2602297D03*
X+8255000Y-2603500D03*
X+6032500Y-2095500D03*
X+5143500Y-2413000D03*
X+3746500Y-2095500D03*
X+1460500Y-2095500D03*
X-889000Y-2095500D03*
X-3111500Y-2095500D03*
X-3492500Y-1905000D03*
X-3873500Y-1031366D03*
D71*
X-5080000Y-63500D03*
X-2603500Y+1841500D03*
X-3365500Y+1524000D03*
D22*
X-7048500Y-2476500D03*
X-7048500Y-2921000D03*
D23*
X-2095500Y+1841500D03*
X-1651000Y+1841500D03*
D24*
X-2921000Y-3556000D03*
X-2921000Y-3048000D03*
X-2921000Y-3302000D03*
D23*
X+571500Y+1841500D03*
D24*
X-762000Y-3556000D03*
X-762000Y-3302000D03*
X-762000Y-3048000D03*
X+1587500Y-3302000D03*
X+1587500Y-3556000D03*
X+1587500Y-3048000D03*
D23*
X+2857500Y+1841500D03*
D24*
X+3937000Y-3556000D03*
X+6223000Y-3556000D03*
X+3937000Y-3048000D03*
X+6223000Y-3048000D03*
X+3937000Y-3302000D03*
X+6223000Y-3302000D03*
D23*
X+5207000Y+1841500D03*
X+7620000Y+1841500D03*
D24*
X+7112000Y-3302000D03*
X+7112000Y-3556000D03*
X+7112000Y-3048000D03*
D23*
X+6667500Y+1841500D03*
D24*
X-4254500Y-3556000D03*
D35*
X-6921500Y-3746500D03*
X-6921500Y+2413000D03*
X+8001000Y+2413000D03*
X+8001000Y-3746500D03*
D23*
X-4191000Y+1841500D03*
X-4635500Y+1841500D03*
X-2921000Y+1841500D03*
X-3365500Y+1841500D03*
D24*
X-4254500Y-3048000D03*
X-4254500Y-3302000D03*
X+3746500Y+2095500D03*
X+2603500Y-3175000D03*
X+3746500Y+1841500D03*
X+4000500Y+2095500D03*
X+2603500Y-3429000D03*
X+4000500Y+1841500D03*
X+4254500Y+2095500D03*
X+2603500Y-3683000D03*
X+4254500Y+1841500D03*
X-5143500Y-3048000D03*
X-5143500Y-3302000D03*
X-5143500Y-3556000D03*
D40*
X-7429500Y-4254500D02*
X+8509000Y-4254500D01*
X+8509000Y+2921000D01*
X-7429500Y+2921000D01*
X-7429500Y-4254500D01*
M02*
