G04 PROTEUS GERBER X2 FILE*
%TF.GenerationSoftware,Labcenter,Proteus,8.7-SP3-Build25561*%
%TF.CreationDate,2021-04-27T11:42:45+00:00*%
%TF.FileFunction,Plated,1,6,PTH*%
%TF.FilePolarity,Positive*%
%TF.Part,Single*%
%TF.SameCoordinates,{6203c4a4-ae23-4678-9b2e-be1f49d5fe9b}*%
%FSLAX45Y45*%
%MOMM*%
G01*
%TA.AperFunction,ViaDrill*%
%ADD130C,0.508000*%
%ADD131C,0.381000*%
%TA.AperFunction,ComponentDrill*%
%ADD132C,1.524000*%
%ADD133C,1.143000*%
%ADD134C,0.762000*%
%TA.AperFunction,OtherDrill,Unknown*%
%ADD135C,4.064000*%
%TD.AperFunction*%
D130*
X+6858000Y-3556000D03*
D131*
X-4381500Y-825500D03*
X-3873500Y-1016000D03*
X-3111500Y-2095500D03*
X-889000Y-2095500D03*
X+1460500Y-2095500D03*
X+3746500Y-2095500D03*
X+6032500Y-2095500D03*
X-5080000Y-63500D03*
D130*
X-4635500Y+1333500D03*
X-3365500Y+1333500D03*
X+6477000Y+1667185D03*
X+2921000Y-3175000D03*
X+2921000Y-3429000D03*
X+2921000Y-3683000D03*
D131*
X+4457601Y+1587500D03*
X+4254500Y+1587500D03*
X+4000500Y+1587500D03*
X+3746500Y+1587500D03*
X-4000500Y-3302000D03*
X-4254500Y-2844450D03*
D130*
X+7400945Y-3273445D03*
D131*
X+7747000Y-3048000D03*
X+7048500Y-2413000D03*
X+5143500Y-2413000D03*
X+6985000Y-2603500D03*
X+8295505Y-2412861D03*
D130*
X-6223000Y+1397000D03*
D131*
X+3365500Y+2159000D03*
X+5774838Y+2150575D03*
X+1651000Y+1778000D03*
X-635000Y+1778000D03*
X-2540000Y+1841500D03*
X-3684182Y-979154D03*
X-1724959Y-4050313D03*
X-3302000Y-63500D03*
X-3492500Y-1905000D03*
X-3238500Y-1905000D03*
D132*
X-6223000Y-2476500D03*
X-6223000Y-2921000D03*
D133*
X-2095500Y+1841500D03*
X-1651000Y+1841500D03*
D134*
X-2921000Y-3556000D03*
X-2921000Y-3048000D03*
X-2921000Y-3302000D03*
D133*
X+571500Y+1841500D03*
X+127000Y+1841500D03*
D134*
X-762000Y-3556000D03*
X-762000Y-3302000D03*
X-762000Y-3048000D03*
X+1587500Y-3302000D03*
X+1587500Y-3556000D03*
X+1587500Y-3048000D03*
D133*
X+2857500Y+1841500D03*
X+2413000Y+1841500D03*
D134*
X+3937000Y-3556000D03*
X+6223000Y-3556000D03*
X+3937000Y-3048000D03*
X+6223000Y-3048000D03*
X+3937000Y-3302000D03*
X+6223000Y-3302000D03*
D133*
X+5207000Y+1841500D03*
X+4762500Y+1841500D03*
X+7620000Y+1841500D03*
X+7112000Y+1841500D03*
D134*
X+7112000Y-3302000D03*
X+7112000Y-3556000D03*
X+7112000Y-3048000D03*
D133*
X+6667500Y+1841500D03*
X+6223000Y+1841500D03*
D134*
X-4254500Y-3556000D03*
D135*
X-6096000Y-3746500D03*
X-6096000Y+2413000D03*
X+8001000Y+2413000D03*
X+8001000Y-3746500D03*
D133*
X-4191000Y+1841500D03*
X-4635500Y+1841500D03*
X-2921000Y+1841500D03*
X-3365500Y+1841500D03*
D134*
X-4254500Y-3048000D03*
X-4254500Y-3302000D03*
X+3746500Y+2095500D03*
X+2603500Y-3175000D03*
X+3746500Y+1841500D03*
X+4000500Y+2095500D03*
X+2603500Y-3429000D03*
X+4000500Y+1841500D03*
X+4254500Y+2095500D03*
X+2603500Y-3683000D03*
X+4254500Y+1841500D03*
X-5143500Y-3302000D03*
X-5143500Y-3556000D03*
M02*
