G04 PROTEUS GERBER X2 FILE*
%TF.GenerationSoftware,Labcenter,Proteus,8.7-SP3-Build25561*%
%TF.CreationDate,2021-04-27T11:42:45+00:00*%
%TF.FileFunction,Copper,L1,Top*%
%TF.FilePolarity,Positive*%
%TF.Part,Single*%
%TF.SameCoordinates,{6203c4a4-ae23-4678-9b2e-be1f49d5fe9b}*%
%FSLAX45Y45*%
%MOMM*%
G01*
%TA.AperFunction,Conductor*%
%ADD10C,0.508000*%
%ADD11C,0.635000*%
%ADD12C,1.016000*%
%ADD13C,1.778000*%
%ADD14C,1.270000*%
%ADD15C,0.254000*%
%ADD16C,0.762000*%
%TA.AperFunction,ViaPad*%
%ADD17C,1.270000*%
%ADD18C,0.762000*%
%ADD19C,1.778000*%
%ADD70C,1.016000*%
%TA.AperFunction,SMDPad,CuDef*%
%ADD71R,1.193800X5.308600*%
%TA.AperFunction,ComponentPad*%
%ADD20C,3.810000*%
%ADD21C,2.540000*%
%ADD22C,2.032000*%
%TA.AperFunction,SMDPad,CuDef*%
%ADD23R,1.524000X2.032000*%
%ADD24R,3.810000X2.032000*%
%TA.AperFunction,SMDPad,CuDef*%
%ADD25R,1.143000X1.803400*%
%ADD26R,2.108200X2.108200*%
%ADD27R,2.260600X2.362200*%
%ADD28R,3.403600X1.244600*%
%TA.AperFunction,SMDPad,CuDef*%
%ADD29R,6.985000X6.985000*%
%ADD72R,1.524000X2.540000*%
%TA.AperFunction,SMDPad,CuDef*%
%ADD73R,0.635000X2.032000*%
%TA.AperFunction,SMDPad,CuDef*%
%ADD30R,1.803400X1.143000*%
%ADD31R,1.803400X2.260600*%
%ADD32R,0.889000X0.635000*%
%TA.AperFunction,SMDPad,CuDef*%
%ADD33R,0.889000X1.016000*%
%TA.AperFunction,SMDPad,CuDef*%
%ADD34R,2.032000X0.635000*%
%TA.AperFunction,SMDPad,CuDef*%
%ADD35R,2.362200X2.260600*%
%TA.AperFunction,OtherPad,Unknown*%
%ADD36C,7.620000*%
%TA.AperFunction,Profile*%
%ADD37C,0.203200*%
%TD.AperFunction*%
G36*
X+8448040Y-4193540D02*
X-6543040Y-4193540D01*
X-6543040Y+2860040D01*
X+8448040Y+2860040D01*
X+8448040Y-4193540D01*
G37*
%LPC*%
G36*
X+3454399Y+2195823D02*
X+3454399Y+1977160D01*
X+3606801Y+1824758D01*
X+3606801Y+1899365D01*
X+3675936Y+1968500D01*
X+3606801Y+2037635D01*
X+3606801Y+2153365D01*
X+3688635Y+2235199D01*
X+3804365Y+2235199D01*
X+3873500Y+2166064D01*
X+3942635Y+2235199D01*
X+4058365Y+2235199D01*
X+4127500Y+2166064D01*
X+4196635Y+2235199D01*
X+4312365Y+2235199D01*
X+4394199Y+2153365D01*
X+4394199Y+2037635D01*
X+4325064Y+1968500D01*
X+4394199Y+1899365D01*
X+4394199Y+1783635D01*
X+4317999Y+1707435D01*
X+4317999Y+1649723D01*
X+4343399Y+1624323D01*
X+4343399Y+1550677D01*
X+4291323Y+1498601D01*
X+4217677Y+1498601D01*
X+4165601Y+1550677D01*
X+4165601Y+1624323D01*
X+4191001Y+1649723D01*
X+4191001Y+1707435D01*
X+4127500Y+1770936D01*
X+4063999Y+1707435D01*
X+4063999Y+1649723D01*
X+4089399Y+1624323D01*
X+4089399Y+1550677D01*
X+4037323Y+1498601D01*
X+3963677Y+1498601D01*
X+3911601Y+1550677D01*
X+3911601Y+1624323D01*
X+3937001Y+1649723D01*
X+3937001Y+1707435D01*
X+3873500Y+1770936D01*
X+3809999Y+1707435D01*
X+3809999Y+1649723D01*
X+3835399Y+1624323D01*
X+3835399Y+1550677D01*
X+3783323Y+1498601D01*
X+3709677Y+1498601D01*
X+3665101Y+1543177D01*
X+3665101Y+1223121D01*
X+3675373Y+1212849D01*
X+4324349Y+1212849D01*
X+4324349Y+438151D01*
X+3549651Y+438151D01*
X+3549651Y+1087127D01*
X+3496732Y+1140046D01*
X+3496732Y+40082D01*
X+3473652Y-681D01*
X+3343547Y-85808D01*
X+3343548Y-321851D01*
X+3284399Y-380999D01*
X+3176269Y-380999D01*
X+3176269Y-412749D01*
X+2943049Y-412749D01*
X+3042551Y-512251D01*
X+3176269Y-512251D01*
X+3176269Y-702749D01*
X+3111499Y-702749D01*
X+3111499Y-946151D01*
X+3187699Y-946151D01*
X+3187699Y-1466849D01*
X+3111499Y-1466849D01*
X+3111499Y-1522731D01*
X+3115749Y-1522731D01*
X+3115749Y-1776731D01*
X+3125749Y-1776731D01*
X+3125749Y-2033269D01*
X+3115749Y-2033269D01*
X+3115749Y-2287269D01*
X+2945435Y-2287269D01*
X+2945435Y-2640699D01*
X+3468753Y-3164017D01*
X+3468753Y-3990723D01*
X+3899802Y-3990723D01*
X+4005389Y-3990724D01*
X+4110977Y-3990723D01*
X+5080001Y-3021699D01*
X+5080001Y-2457263D01*
X+5067301Y-2444563D01*
X+5067301Y-2381437D01*
X+5080001Y-2368737D01*
X+5080002Y-1778000D01*
X+5080001Y-1169301D01*
X+5016501Y-1105802D01*
X+5016501Y-915301D01*
X+4990199Y-888999D01*
X+4984749Y-888999D01*
X+4984749Y-953769D01*
X+4952999Y-953769D01*
X+4952999Y-1466849D01*
X+4673601Y-1466849D01*
X+4673601Y-953769D01*
X+4494251Y-953769D01*
X+4494251Y-730249D01*
X+4380231Y-730249D01*
X+4380231Y-539751D01*
X+4477949Y-539751D01*
X+4587451Y-430249D01*
X+4380231Y-430249D01*
X+4380231Y-239751D01*
X+4636769Y-239751D01*
X+4636769Y-249751D01*
X+4699001Y-249751D01*
X+4699001Y-227699D01*
X+4982211Y+55511D01*
X+4982211Y+494029D01*
X+4991101Y+494029D01*
X+4991101Y+553446D01*
X+5125492Y+687837D01*
X+5189221Y+687837D01*
X+5189221Y+710329D01*
X+5308601Y+710329D01*
X+5308601Y+925823D01*
X+5309871Y+927093D01*
X+5309871Y+1045209D01*
X+5612129Y+1045209D01*
X+5612129Y+732791D01*
X+5486399Y+732791D01*
X+5486399Y+710329D01*
X+5605779Y+710329D01*
X+5605779Y+509671D01*
X+5198770Y+509671D01*
X+5177789Y+488690D01*
X+5177789Y-113029D01*
X+4993271Y-113029D01*
X+4856549Y-249751D01*
X+4888231Y-249751D01*
X+4888231Y-239751D01*
X+5144769Y-239751D01*
X+5144769Y-249751D01*
X+5398769Y-249751D01*
X+5398769Y-281502D01*
X+5485534Y-281502D01*
X+5487301Y-283269D01*
X+5524501Y-283269D01*
X+5524501Y-100329D01*
X+5189221Y-100329D01*
X+5189221Y+100329D01*
X+5562607Y+100329D01*
X+5626101Y+163823D01*
X+5626101Y+1677677D01*
X+5551177Y+1752601D01*
X+5351586Y+1752601D01*
X+5275386Y+1676401D01*
X+5138614Y+1676401D01*
X+5041901Y+1773114D01*
X+5041901Y+1909886D01*
X+5138614Y+2006599D01*
X+5275386Y+2006599D01*
X+5351586Y+1930399D01*
X+5624823Y+1930399D01*
X+5803899Y+1751323D01*
X+5803899Y+90177D01*
X+5651499Y-62223D01*
X+5651499Y-385726D01*
X+5614302Y-422923D01*
X+5561698Y-422923D01*
X+5549042Y-410267D01*
X+5434698Y-410267D01*
X+5432929Y-408498D01*
X+5398769Y-408498D01*
X+5398769Y-440249D01*
X+5142231Y-440249D01*
X+5142231Y-430249D01*
X+5057051Y-430249D01*
X+4947549Y-539751D01*
X+5398769Y-539751D01*
X+5398769Y-730249D01*
X+5397499Y-730249D01*
X+5397499Y-946151D01*
X+5473699Y-946151D01*
X+5473699Y-1466849D01*
X+5353951Y-1466849D01*
X+5333999Y-1486801D01*
X+5333999Y-1522731D01*
X+5365749Y-1522731D01*
X+5365749Y-2287269D01*
X+5206999Y-2287269D01*
X+5206999Y-2368737D01*
X+5219699Y-2381437D01*
X+5219699Y-2444563D01*
X+5206999Y-2457263D01*
X+5206999Y-3074302D01*
X+5169801Y-3111499D01*
X+4163580Y-4117721D01*
X+4005389Y-4117720D01*
X+3899802Y-4117721D01*
X+2853661Y-4117721D01*
X+1725731Y-4117720D01*
X+545198Y-4117721D01*
X-508000Y-4117720D01*
X-1684605Y-4117721D01*
X-1693396Y-4126512D01*
X-1756522Y-4126512D01*
X-1765313Y-4117721D01*
X-4288227Y-4117720D01*
X-5024942Y-3381006D01*
X-5072936Y-3429000D01*
X-5003801Y-3498135D01*
X-5003801Y-3613865D01*
X-5085635Y-3695699D01*
X-5201365Y-3695699D01*
X-5283199Y-3613865D01*
X-5283199Y-3498135D01*
X-5214064Y-3429000D01*
X-5283199Y-3359865D01*
X-5283199Y-3244135D01*
X-5201365Y-3162301D01*
X-5085635Y-3162301D01*
X-5009435Y-3238501D01*
X-4987846Y-3238501D01*
X-4235623Y-3990724D01*
X-1777999Y-3990723D01*
X-1777999Y-2287269D01*
X-1936749Y-2287269D01*
X-1936749Y-2222499D01*
X-1964251Y-2222499D01*
X-1964251Y-2287269D01*
X-2154749Y-2287269D01*
X-2154749Y-2127451D01*
X-2212599Y-2185301D01*
X-2212599Y-3254899D01*
X-2577198Y-3619498D01*
X-2603500Y-3619498D01*
X-2786935Y-3619499D01*
X-2863135Y-3695699D01*
X-2978865Y-3695699D01*
X-3060699Y-3613865D01*
X-3060699Y-3498135D01*
X-2991564Y-3429000D01*
X-3060699Y-3359865D01*
X-3060699Y-3244135D01*
X-2991564Y-3175000D01*
X-3055065Y-3111499D01*
X-3074301Y-3111499D01*
X-3174999Y-3010801D01*
X-3174999Y-2671249D01*
X-3239769Y-2671249D01*
X-3239769Y-2480751D01*
X-3016249Y-2480751D01*
X-3016249Y-2381249D01*
X-3239769Y-2381249D01*
X-3239769Y-2278011D01*
X-3426459Y-2091321D01*
X-3426459Y-1676399D01*
X-3445509Y-1676399D01*
X-3445509Y-1498601D01*
X-3280411Y-1498601D01*
X-3280411Y-1676399D01*
X-3299461Y-1676399D01*
X-3299461Y-2038719D01*
X-3147429Y-2190751D01*
X-2990849Y-2190751D01*
X-2990849Y-2171699D01*
X-3143063Y-2171699D01*
X-3187699Y-2127063D01*
X-3187699Y-2063937D01*
X-3162111Y-2038349D01*
X-3194049Y-2038349D01*
X-3194049Y-1898651D01*
X-3028951Y-1898651D01*
X-3028951Y-1905001D01*
X-2926244Y-1905001D01*
X-2862744Y-1968501D01*
X-2470151Y-1968501D01*
X-2470151Y-2247899D01*
X-2730501Y-2247899D01*
X-2730501Y-2637510D01*
X-2798251Y-2705260D01*
X-2798251Y-2795269D01*
X-2988749Y-2795269D01*
X-2988749Y-2671249D01*
X-3048001Y-2671249D01*
X-3048001Y-2958199D01*
X-3038382Y-2967818D01*
X-2978865Y-2908301D01*
X-2863135Y-2908301D01*
X-2781301Y-2990135D01*
X-2781301Y-3105865D01*
X-2850436Y-3175000D01*
X-2786935Y-3238501D01*
X-2756801Y-3238501D01*
X-2666999Y-3148699D01*
X-2666999Y-2795269D01*
X-2698749Y-2795269D01*
X-2698749Y-2541269D01*
X-2716249Y-2541269D01*
X-2716249Y-2284731D01*
X-2525751Y-2284731D01*
X-2525751Y-2538731D01*
X-2508251Y-2538731D01*
X-2508251Y-2795269D01*
X-2540001Y-2795269D01*
X-2540001Y-3201301D01*
X-2704199Y-3365499D01*
X-2786935Y-3365499D01*
X-2850436Y-3429000D01*
X-2786935Y-3492501D01*
X-2629802Y-3492502D01*
X-2339597Y-3202297D01*
X-2339597Y-2287269D01*
X-2444749Y-2287269D01*
X-2444749Y-1522731D01*
X-2254251Y-1522731D01*
X-2254251Y-1698321D01*
X-2162108Y-1606178D01*
X-2144749Y-1606178D01*
X-2144749Y-1522731D01*
X-1954251Y-1522731D01*
X-1954251Y-2033269D01*
X-1964251Y-2033269D01*
X-1964251Y-2095501D01*
X-1936749Y-2095501D01*
X-1936749Y-1522731D01*
X-1777999Y-1522731D01*
X-1777999Y-1169301D01*
X-1841499Y-1105801D01*
X-1841499Y-953769D01*
X-1905001Y-953769D01*
X-1905001Y-1466849D01*
X-2184399Y-1466849D01*
X-2184399Y-953769D01*
X-2317749Y-953769D01*
X-2317749Y-730249D01*
X-2477769Y-730249D01*
X-2477769Y-539751D01*
X-2344051Y-539751D01*
X-2234549Y-430249D01*
X-2477769Y-430249D01*
X-2477769Y-239751D01*
X-2221231Y-239751D01*
X-2221231Y-249751D01*
X-2158999Y-249751D01*
X-2158999Y-227699D01*
X-2058301Y-127001D01*
X-1867801Y-127001D01*
X-1853829Y-113029D01*
X-1875789Y-113029D01*
X-1875789Y+494029D01*
X-1866899Y+494029D01*
X-1866899Y+544823D01*
X-1712823Y+698899D01*
X-1668779Y+698899D01*
X-1668779Y+710329D01*
X-1549399Y+710329D01*
X-1549399Y+732791D01*
X-1611629Y+732791D01*
X-1611629Y+1045209D01*
X-1309371Y+1045209D01*
X-1309371Y+732791D01*
X-1371601Y+732791D01*
X-1371601Y+710329D01*
X-1266267Y+710329D01*
X-1266267Y+1699147D01*
X-1319721Y+1752601D01*
X-1506414Y+1752601D01*
X-1582614Y+1676401D01*
X-1719386Y+1676401D01*
X-1816099Y+1773114D01*
X-1816099Y+1909886D01*
X-1719386Y+2006599D01*
X-1582614Y+2006599D01*
X-1506414Y+1930399D01*
X-1246075Y+1930399D01*
X-1088469Y+1772793D01*
X-1088469Y+41515D01*
X-1108968Y+2608D01*
X-1242456Y-88899D01*
X-1252221Y-88899D01*
X-1252221Y-100329D01*
X-1270001Y-100329D01*
X-1270001Y-375391D01*
X-1307198Y-412588D01*
X-1359802Y-412588D01*
X-1363891Y-408499D01*
X-1459231Y-408499D01*
X-1459231Y-440249D01*
X-1715769Y-440249D01*
X-1715769Y-430249D01*
X-1800949Y-430249D01*
X-1910451Y-539751D01*
X-1459231Y-539751D01*
X-1459231Y-730249D01*
X-1460501Y-730249D01*
X-1460501Y-946151D01*
X-1384301Y-946151D01*
X-1384301Y-1466849D01*
X-1478001Y-1466849D01*
X-1478001Y-1522731D01*
X-1456251Y-1522731D01*
X-1456251Y-1776731D01*
X-1446251Y-1776731D01*
X-1446251Y-2033269D01*
X-1456251Y-2033269D01*
X-1456251Y-2287269D01*
X-1646749Y-2287269D01*
X-1646749Y-2030731D01*
X-1636749Y-2030731D01*
X-1636749Y-1779269D01*
X-1646749Y-1779269D01*
X-1646749Y-1522731D01*
X-1604999Y-1522731D01*
X-1604999Y-1466849D01*
X-1651001Y-1466849D01*
X-1651001Y-3990723D01*
X-1561198Y-3990723D01*
X-508000Y-3990724D01*
X+508001Y-3990723D01*
X+508001Y-2287269D01*
X+349251Y-2287269D01*
X+349251Y-2222499D01*
X+321749Y-2222499D01*
X+321749Y-2287269D01*
X+131251Y-2287269D01*
X+131251Y-2143090D01*
X+51842Y-2222499D01*
X+31749Y-2222499D01*
X+31749Y-2287269D01*
X-1Y-2287269D01*
X-1Y-3137801D01*
X-481699Y-3619499D01*
X-627935Y-3619499D01*
X-704135Y-3695699D01*
X-819865Y-3695699D01*
X-901699Y-3613865D01*
X-901699Y-3498135D01*
X-832564Y-3429000D01*
X-901699Y-3359865D01*
X-901699Y-3244135D01*
X-832564Y-3175000D01*
X-901699Y-3105865D01*
X-901699Y-2998560D01*
X-908500Y-2991786D01*
X-952499Y-2947787D01*
X-952499Y-2698749D01*
X-1017269Y-2698749D01*
X-1017269Y-2508251D01*
X-776249Y-2508251D01*
X-776249Y-2408749D01*
X-1017269Y-2408749D01*
X-1017269Y-2275031D01*
X-1203959Y-2088341D01*
X-1203959Y-1676399D01*
X-1223009Y-1676399D01*
X-1223009Y-1498601D01*
X-1057911Y-1498601D01*
X-1057911Y-1676399D01*
X-1076961Y-1676399D01*
X-1076961Y-2035739D01*
X-894449Y-2218251D01*
X-768349Y-2218251D01*
X-768349Y-2031999D01*
X-806451Y-2031999D01*
X-806451Y-2038349D01*
X-825501Y-2038349D01*
X-825501Y-2051237D01*
X-812801Y-2063937D01*
X-812801Y-2127063D01*
X-857437Y-2171699D01*
X-920563Y-2171699D01*
X-965199Y-2127063D01*
X-965199Y-2063937D01*
X-952499Y-2051237D01*
X-952499Y-2038349D01*
X-971549Y-2038349D01*
X-971549Y-1898651D01*
X-806451Y-1898651D01*
X-806451Y-1905001D01*
X-695115Y-1905001D01*
X-631615Y-1968501D01*
X-247651Y-1968501D01*
X-247651Y-2247899D01*
X-508001Y-2247899D01*
X-508001Y-2593801D01*
X-575751Y-2661551D01*
X-575751Y-2795269D01*
X-766249Y-2795269D01*
X-766249Y-2698749D01*
X-825501Y-2698749D01*
X-825501Y-2895185D01*
X-818808Y-2901878D01*
X-812347Y-2908301D01*
X-704135Y-2908301D01*
X-622301Y-2990135D01*
X-622301Y-3105865D01*
X-691436Y-3175000D01*
X-627935Y-3238501D01*
X-597801Y-3238501D01*
X-444499Y-3085199D01*
X-444499Y-2795269D01*
X-476249Y-2795269D01*
X-476249Y-2284731D01*
X-285751Y-2284731D01*
X-285751Y-2795269D01*
X-317501Y-2795269D01*
X-317501Y-3137801D01*
X-545198Y-3365499D01*
X-627935Y-3365499D01*
X-691436Y-3429000D01*
X-627935Y-3492501D01*
X-534301Y-3492501D01*
X-126999Y-3085199D01*
X-126999Y-2287269D01*
X-158749Y-2287269D01*
X-158749Y-1522731D01*
X+31749Y-1522731D01*
X+31749Y-1685369D01*
X+129617Y-1587501D01*
X+141251Y-1587501D01*
X+141251Y-1522731D01*
X+331749Y-1522731D01*
X+331749Y-2033269D01*
X+321749Y-2033269D01*
X+321749Y-2095501D01*
X+349251Y-2095501D01*
X+349251Y-1522731D01*
X+508001Y-1522731D01*
X+508001Y-915301D01*
X+481699Y-888999D01*
X+476249Y-888999D01*
X+476249Y-953769D01*
X+380999Y-953769D01*
X+380999Y-1466849D01*
X+101601Y-1466849D01*
X+101601Y-953769D01*
X-14249Y-953769D01*
X-14249Y-740249D01*
X-128269Y-740249D01*
X-128269Y-549751D01*
X+5449Y-549751D01*
X+114951Y-440249D01*
X-128269Y-440249D01*
X-128269Y-249751D01*
X+259449Y-249751D01*
X+410211Y-98989D01*
X+410211Y+494029D01*
X+419101Y+494029D01*
X+419101Y+544823D01*
X+573177Y+698899D01*
X+617221Y+698899D01*
X+617221Y+710329D01*
X+736601Y+710329D01*
X+736601Y+750791D01*
X+674371Y+750791D01*
X+674371Y+1063209D01*
X+976629Y+1063209D01*
X+976629Y+750791D01*
X+914399Y+750791D01*
X+914399Y+710329D01*
X+1033779Y+710329D01*
X+1033779Y+509671D01*
X+635393Y+509671D01*
X+605789Y+480067D01*
X+605789Y-113029D01*
X+571499Y-113029D01*
X+571499Y-117301D01*
X+439049Y-249751D01*
X+889001Y-249751D01*
X+889001Y-100329D01*
X+617221Y-100329D01*
X+617221Y+100329D01*
X+990607Y+100329D01*
X+1054101Y+163823D01*
X+1054101Y+1691788D01*
X+993288Y+1752601D01*
X+716086Y+1752601D01*
X+639886Y+1676401D01*
X+503114Y+1676401D01*
X+406401Y+1773114D01*
X+406401Y+1909886D01*
X+503114Y+2006599D01*
X+639886Y+2006599D01*
X+716086Y+1930399D01*
X+1066934Y+1930399D01*
X+1231899Y+1765434D01*
X+1231899Y+90177D01*
X+1052823Y-88899D01*
X+1033779Y-88899D01*
X+1033779Y-100329D01*
X+1015999Y-100329D01*
X+1015999Y-375824D01*
X+978802Y-413021D01*
X+926198Y-413021D01*
X+921676Y-408499D01*
X+890269Y-408499D01*
X+890269Y-440249D01*
X+538551Y-440249D01*
X+429049Y-549751D01*
X+633731Y-549751D01*
X+633731Y-539751D01*
X+890269Y-539751D01*
X+890269Y-730249D01*
X+825499Y-730249D01*
X+825499Y-946151D01*
X+901699Y-946151D01*
X+901699Y-1466849D01*
X+797999Y-1466849D01*
X+797999Y-1522731D01*
X+829749Y-1522731D01*
X+829749Y-1776731D01*
X+839749Y-1776731D01*
X+839749Y-2033269D01*
X+829749Y-2033269D01*
X+829749Y-2287269D01*
X+639251Y-2287269D01*
X+639251Y-2030731D01*
X+649251Y-2030731D01*
X+649251Y-1779269D01*
X+639251Y-1779269D01*
X+639251Y-1522731D01*
X+671001Y-1522731D01*
X+671001Y-1466849D01*
X+634999Y-1466849D01*
X+634999Y-3990723D01*
X+1725731Y-3990724D01*
X+3341755Y-3990723D01*
X+3341755Y-3216619D01*
X+2818437Y-2693302D01*
X+2818437Y-2287269D01*
X+2635251Y-2287269D01*
X+2635251Y-2222499D01*
X+2635249Y-2222499D01*
X+2635249Y-2287269D01*
X+2444751Y-2287269D01*
X+2444751Y-2115134D01*
X+2345249Y-2214636D01*
X+2345249Y-2287269D01*
X+2323496Y-2287269D01*
X+2323497Y-2899394D01*
X+2323496Y-3163804D01*
X+1867801Y-3619499D01*
X+1721565Y-3619499D01*
X+1645365Y-3695699D01*
X+1529635Y-3695699D01*
X+1447801Y-3613865D01*
X+1447801Y-3498135D01*
X+1516936Y-3429000D01*
X+1447801Y-3359865D01*
X+1447801Y-3244135D01*
X+1516936Y-3175000D01*
X+1453435Y-3111499D01*
X+1434199Y-3111499D01*
X+1270001Y-2947301D01*
X+1270001Y-2671249D01*
X+1205231Y-2671249D01*
X+1205231Y-2480751D01*
X+1461769Y-2480751D01*
X+1461769Y-2671249D01*
X+1396999Y-2671249D01*
X+1396999Y-2894699D01*
X+1470118Y-2967818D01*
X+1529635Y-2908301D01*
X+1645365Y-2908301D01*
X+1727199Y-2990135D01*
X+1727199Y-3105865D01*
X+1658064Y-3175000D01*
X+1727199Y-3244135D01*
X+1727199Y-3246864D01*
X+1757446Y-3246864D01*
X+1814002Y-3190308D01*
X+1814001Y-2795269D01*
X+1782251Y-2795269D01*
X+1782251Y-2538731D01*
X+1792251Y-2538731D01*
X+1792251Y-2284731D01*
X+1982749Y-2284731D01*
X+1982749Y-2541269D01*
X+1972749Y-2541269D01*
X+1972749Y-2795269D01*
X+1940999Y-2795269D01*
X+1940998Y-3242912D01*
X+1810050Y-3373860D01*
X+1713204Y-3373860D01*
X+1658064Y-3429000D01*
X+1721565Y-3492501D01*
X+1815199Y-3492501D01*
X+2196500Y-3111200D01*
X+2196499Y-2767698D01*
X+2196500Y-2287269D01*
X+2154751Y-2287269D01*
X+2154751Y-2033269D01*
X+2144751Y-2033269D01*
X+2144751Y-1522731D01*
X+2335249Y-1522731D01*
X+2335249Y-2030731D01*
X+2338612Y-2030731D01*
X+2338612Y-1661894D01*
X+2410653Y-1589853D01*
X+2444751Y-1589853D01*
X+2444751Y-1522731D01*
X+2635249Y-1522731D01*
X+2635249Y-2095501D01*
X+2635251Y-2095501D01*
X+2635251Y-1522731D01*
X+2794001Y-1522731D01*
X+2794001Y-915301D01*
X+2767699Y-888999D01*
X+2762249Y-888999D01*
X+2762249Y-953769D01*
X+2666999Y-953769D01*
X+2666999Y-1466849D01*
X+2387601Y-1466849D01*
X+2387601Y-953769D01*
X+2271751Y-953769D01*
X+2271751Y-712749D01*
X+2094231Y-712749D01*
X+2094231Y-522251D01*
X+2227949Y-522251D01*
X+2337451Y-412749D01*
X+2094231Y-412749D01*
X+2094231Y-222251D01*
X+2481949Y-222251D01*
X+2696211Y-7989D01*
X+2696211Y+494029D01*
X+2705101Y+494029D01*
X+2705101Y+548323D01*
X+2855677Y+698899D01*
X+2903221Y+698899D01*
X+2903221Y+710329D01*
X+3022601Y+710329D01*
X+3022601Y+732791D01*
X+2960371Y+732791D01*
X+2960371Y+1045209D01*
X+3262629Y+1045209D01*
X+3262629Y+732791D01*
X+3200399Y+732791D01*
X+3200399Y+710329D01*
X+3318934Y+710329D01*
X+3318934Y+1654942D01*
X+3221275Y+1752601D01*
X+3002086Y+1752601D01*
X+2925886Y+1676401D01*
X+2789114Y+1676401D01*
X+2692401Y+1773114D01*
X+2692401Y+1909886D01*
X+2789114Y+2006599D01*
X+2925886Y+2006599D01*
X+3002086Y+1930399D01*
X+3276601Y+1930399D01*
X+3276601Y+2195823D01*
X+3328677Y+2247899D01*
X+3402323Y+2247899D01*
X+3454399Y+2195823D01*
G37*
G36*
X-1951991Y+745491D02*
X-2113287Y+745491D01*
X-2260601Y+598177D01*
X-2260601Y+182177D01*
X-2280211Y+162567D01*
X-2280211Y-113029D01*
X-2475789Y-113029D01*
X-2475789Y+63501D01*
X-2552701Y+63501D01*
X-2552701Y-38099D01*
X-2565401Y-38099D01*
X-2565401Y-296084D01*
X-2571751Y-302434D01*
X-2571751Y-382269D01*
X-2603501Y-382269D01*
X-2603501Y-640081D01*
X-2571751Y-640081D01*
X-2571751Y-896619D01*
X-2603501Y-896619D01*
X-2603501Y-998221D01*
X-2538731Y-998221D01*
X-2538731Y-1300479D01*
X-2603501Y-1300479D01*
X-2603501Y-1447801D01*
X-2470151Y-1447801D01*
X-2470151Y-1727199D01*
X-2857501Y-1727199D01*
X-2857501Y-1740801D01*
X-2913749Y-1797049D01*
X-3028951Y-1797049D01*
X-3028951Y-1803399D01*
X-3194049Y-1803399D01*
X-3194049Y-1676399D01*
X-3257549Y-1676399D01*
X-3257549Y-1498601D01*
X-3092451Y-1498601D01*
X-3092451Y-1663701D01*
X-3028951Y-1663701D01*
X-3028951Y-1670051D01*
X-2990849Y-1670051D01*
X-2990849Y-1447801D01*
X-2984499Y-1447801D01*
X-2984499Y-1300479D01*
X-3085269Y-1300479D01*
X-3085269Y-998221D01*
X-3030499Y-998221D01*
X-3030499Y-896619D01*
X-3062249Y-896619D01*
X-3062249Y-640081D01*
X-2879574Y-640081D01*
X-2879574Y-623808D01*
X-2892231Y-611151D01*
X-3046731Y-611151D01*
X-3046731Y-639249D01*
X-3205481Y-639249D01*
X-3205481Y-1308101D01*
X-3186431Y-1308101D01*
X-3186431Y-1485899D01*
X-3351529Y-1485899D01*
X-3351529Y-1308101D01*
X-3332479Y-1308101D01*
X-3332479Y-581199D01*
X-3303269Y-551989D01*
X-3303269Y-448751D01*
X-3046731Y-448751D01*
X-3046731Y-484153D01*
X-2839629Y-484153D01*
X-2752576Y-571206D01*
X-2752576Y-640081D01*
X-2730499Y-640081D01*
X-2730499Y-382269D01*
X-2762249Y-382269D01*
X-2762249Y-302434D01*
X-2768599Y-296084D01*
X-2768599Y-38099D01*
X-2781299Y-38099D01*
X-2781299Y+292099D01*
X-2552701Y+292099D01*
X-2552701Y+190499D01*
X-2475789Y+190499D01*
X-2475789Y+494029D01*
X-2438399Y+494029D01*
X-2438399Y+671823D01*
X-2239009Y+871213D01*
X-2239009Y+1032509D01*
X-1951991Y+1032509D01*
X-1951991Y+745491D01*
G37*
G36*
X-6096001Y+1449605D02*
X-6096001Y+1344395D01*
X-6096002Y+1143000D01*
X-6096001Y+1040129D01*
X-6066791Y+1040129D01*
X-6066791Y+737871D01*
X-6096001Y+737871D01*
X-6096001Y+151129D01*
X-6066791Y+151129D01*
X-6066791Y-151129D01*
X-6096001Y-151129D01*
X-6096001Y-737871D01*
X-6066791Y-737871D01*
X-6066791Y-1040129D01*
X-6096001Y-1040129D01*
X-6096001Y-1690371D01*
X-6066791Y-1690371D01*
X-6066791Y-1992629D01*
X-6096001Y-1992629D01*
X-6096001Y-2280211D01*
X-5994401Y-2381811D01*
X-5994401Y-2571189D01*
X-6121962Y-2698750D01*
X-5994401Y-2826311D01*
X-5994401Y-3015689D01*
X-6128311Y-3149599D01*
X-6317689Y-3149599D01*
X-6451599Y-3015689D01*
X-6451599Y-2826311D01*
X-6324038Y-2698750D01*
X-6451599Y-2571189D01*
X-6451599Y-2381811D01*
X-6349999Y-2280211D01*
X-6349999Y-1992629D01*
X-6379209Y-1992629D01*
X-6379209Y-1690371D01*
X-6349999Y-1690371D01*
X-6349999Y-1040129D01*
X-6379209Y-1040129D01*
X-6379209Y-737871D01*
X-6349999Y-737871D01*
X-6349999Y-151129D01*
X-6379209Y-151129D01*
X-6379209Y+151129D01*
X-6349999Y+151129D01*
X-6349999Y+737871D01*
X-6379209Y+737871D01*
X-6379209Y+1040129D01*
X-6349999Y+1040129D01*
X-6349998Y+1143000D01*
X-6349999Y+1449605D01*
X-6275605Y+1523999D01*
X-6170395Y+1523999D01*
X-6096001Y+1449605D01*
G37*
G36*
X-2260599Y+1773114D02*
X-2260599Y+1909886D01*
X-2163886Y+2006599D01*
X-2027114Y+2006599D01*
X-1930401Y+1909886D01*
X-1930401Y+1773114D01*
X-2027114Y+1676401D01*
X-2163886Y+1676401D01*
X-2260599Y+1773114D01*
G37*
G36*
X-4259579Y-50801D02*
X-4030981Y-50801D01*
X-4030981Y-330199D01*
X-4259579Y-330199D01*
X-4259579Y-50801D01*
G37*
G36*
X-2776414Y+1930399D02*
X-2503177Y+1930399D01*
X-2451101Y+1878323D01*
X-2451101Y+1804677D01*
X-2503177Y+1752601D01*
X-2776414Y+1752601D01*
X-2832101Y+1696914D01*
X-2832101Y+1205229D01*
X-2508251Y+1205229D01*
X-2508251Y+430531D01*
X-3282949Y+430531D01*
X-3282949Y+927101D01*
X-3457123Y+927101D01*
X-3457123Y-1173047D01*
X-4033521Y-1749445D01*
X-4033521Y-1828801D01*
X-3995421Y-1828801D01*
X-3995421Y-2108199D01*
X-4046222Y-2108199D01*
X-4046222Y-2118360D01*
X-4046221Y-2294522D01*
X-4083419Y-2331719D01*
X-4164699Y-2412999D01*
X-4176751Y-2412999D01*
X-4176751Y-2477769D01*
X-4186751Y-2477769D01*
X-4186751Y-2731769D01*
X-4377249Y-2731769D01*
X-4377249Y-2475231D01*
X-4367249Y-2475231D01*
X-4367249Y-2221231D01*
X-4176751Y-2221231D01*
X-4176751Y-2245451D01*
X-4173219Y-2241919D01*
X-4173218Y-2108199D01*
X-4224019Y-2108199D01*
X-4224019Y-1828801D01*
X-4185919Y-1828801D01*
X-4185919Y-1686323D01*
X-3609521Y-1109925D01*
X-3609521Y-1012255D01*
X-3652619Y-1055353D01*
X-3715745Y-1055353D01*
X-3760381Y-1010717D01*
X-3760381Y-992755D01*
X-3977639Y-775497D01*
X-3977639Y-699769D01*
X-4009389Y-699769D01*
X-4009389Y-443231D01*
X-3977639Y-443231D01*
X-3977639Y-330199D01*
X-4028439Y-330199D01*
X-4028439Y-50801D01*
X-3977639Y-50801D01*
X-3977639Y+49404D01*
X-4420871Y+49404D01*
X-4420871Y-219709D01*
X-4723129Y-219709D01*
X-4723129Y+92709D01*
X-4566317Y+92709D01*
X-4482624Y+176402D01*
X-4000499Y+176402D01*
X-4000499Y+299721D01*
X-4142739Y+299721D01*
X-4142739Y+579119D01*
X-4078249Y+579119D01*
X-4078249Y+826769D01*
X-3887751Y+826769D01*
X-3887751Y+579119D01*
X-3778249Y+579119D01*
X-3778249Y+826769D01*
X-3609521Y+826769D01*
X-3609521Y+927101D01*
X-3913537Y+927101D01*
X-4279899Y+1293463D01*
X-4279899Y+1696914D01*
X-4356099Y+1773114D01*
X-4356099Y+1909886D01*
X-4259386Y+2006599D01*
X-4122614Y+2006599D01*
X-4025901Y+1909886D01*
X-4025901Y+1773114D01*
X-4102101Y+1696914D01*
X-4102101Y+1367109D01*
X-3839891Y+1104899D01*
X-3282949Y+1104899D01*
X-3282949Y+1205229D01*
X-3009899Y+1205229D01*
X-3009899Y+1696914D01*
X-3086099Y+1773114D01*
X-3086099Y+1909886D01*
X-2989386Y+2006599D01*
X-2852614Y+2006599D01*
X-2776414Y+1930399D01*
G37*
G36*
X-4309389Y-443231D02*
X-4118891Y-443231D01*
X-4118891Y-699769D01*
X-4309389Y-699769D01*
X-4309389Y-443231D01*
G37*
G36*
X-1951991Y+1195491D02*
X-2239009Y+1195491D01*
X-2239009Y+1482509D01*
X-1951991Y+1482509D01*
X-1951991Y+1195491D01*
G37*
G36*
X-1309371Y+1222791D02*
X-1611629Y+1222791D01*
X-1611629Y+1535209D01*
X-1309371Y+1535209D01*
X-1309371Y+1222791D01*
G37*
G36*
X-4420871Y+270291D02*
X-4723129Y+270291D01*
X-4723129Y+582709D01*
X-4420871Y+582709D01*
X-4420871Y+270291D01*
G37*
G36*
X-3009901Y-38099D02*
X-3060701Y-38099D01*
X-3060701Y-158751D01*
X-3052249Y-158751D01*
X-3052249Y-125731D01*
X-2861751Y-125731D01*
X-2861751Y-382269D01*
X-3052249Y-382269D01*
X-3052249Y-349249D01*
X-3303269Y-349249D01*
X-3303269Y-158751D01*
X-3187699Y-158751D01*
X-3187699Y-38099D01*
X-3238499Y-38099D01*
X-3238499Y+292099D01*
X-3009901Y+292099D01*
X-3009901Y-38099D01*
G37*
G36*
X-546101Y+1814823D02*
X-546101Y+1205229D01*
X-247651Y+1205229D01*
X-247651Y+430531D01*
X-1022349Y+430531D01*
X-1022349Y+1205229D01*
X-723899Y+1205229D01*
X-723899Y+1814823D01*
X-671823Y+1866899D01*
X-598177Y+1866899D01*
X-546101Y+1814823D01*
G37*
G36*
X-749301Y-38099D02*
X-800101Y-38099D01*
X-800101Y-158751D01*
X-793749Y-158751D01*
X-793749Y-125731D01*
X-603251Y-125731D01*
X-603251Y-382269D01*
X-793749Y-382269D01*
X-793749Y-349249D01*
X-1017269Y-349249D01*
X-1017269Y-158751D01*
X-927099Y-158751D01*
X-927099Y-38099D01*
X-977899Y-38099D01*
X-977899Y+292099D01*
X-749301Y+292099D01*
X-749301Y-38099D01*
G37*
G36*
X+270509Y+803491D02*
X+109213Y+803491D01*
X+25399Y+719677D01*
X+25399Y+182177D01*
X+5789Y+162567D01*
X+5789Y-113029D01*
X-189789Y-113029D01*
X-189789Y+127001D01*
X-292101Y+127001D01*
X-292101Y-38099D01*
X-345001Y-38099D01*
X-345001Y-125731D01*
X-313251Y-125731D01*
X-313251Y-382269D01*
X-335001Y-382269D01*
X-335001Y-633731D01*
X-303251Y-633731D01*
X-303251Y-890269D01*
X-345001Y-890269D01*
X-345001Y-991871D01*
X-280231Y-991871D01*
X-280231Y-1294129D01*
X-381001Y-1294129D01*
X-381001Y-1447801D01*
X-247651Y-1447801D01*
X-247651Y-1727199D01*
X-635001Y-1727199D01*
X-635001Y-1740801D01*
X-691249Y-1797049D01*
X-806451Y-1797049D01*
X-806451Y-1803399D01*
X-971549Y-1803399D01*
X-971549Y-1676399D01*
X-1035049Y-1676399D01*
X-1035049Y-1498601D01*
X-869951Y-1498601D01*
X-869951Y-1663701D01*
X-806451Y-1663701D01*
X-806451Y-1670051D01*
X-768349Y-1670051D01*
X-768349Y-1447801D01*
X-752952Y-1447801D01*
X-749299Y-1444148D01*
X-749299Y-1294129D01*
X-826769Y-1294129D01*
X-826769Y-991871D01*
X-761999Y-991871D01*
X-761999Y-890269D01*
X-793749Y-890269D01*
X-793749Y-639249D01*
X-894449Y-639249D01*
X-982981Y-727781D01*
X-982981Y-1308101D01*
X-963931Y-1308101D01*
X-963931Y-1485899D01*
X-1129029Y-1485899D01*
X-1129029Y-1308101D01*
X-1109979Y-1308101D01*
X-1109979Y-675179D01*
X-1017269Y-582469D01*
X-1017269Y-448751D01*
X-760731Y-448751D01*
X-760731Y-480501D01*
X-596305Y-480501D01*
X-492282Y-584524D01*
X-492282Y-633731D01*
X-461999Y-633731D01*
X-461999Y-382269D01*
X-503749Y-382269D01*
X-503749Y-125731D01*
X-471999Y-125731D01*
X-471999Y-38099D01*
X-520699Y-38099D01*
X-520699Y+292099D01*
X-292101Y+292099D01*
X-292101Y+253999D01*
X-189789Y+253999D01*
X-189789Y+494029D01*
X-152399Y+494029D01*
X-152399Y+793323D01*
X-16509Y+929213D01*
X-16509Y+1090509D01*
X+270509Y+1090509D01*
X+270509Y+803491D01*
G37*
G36*
X+270509Y+1253491D02*
X-16509Y+1253491D01*
X-16509Y+1540509D01*
X+270509Y+1540509D01*
X+270509Y+1253491D01*
G37*
G36*
X+976629Y+1240791D02*
X+674371Y+1240791D01*
X+674371Y+1553209D01*
X+976629Y+1553209D01*
X+976629Y+1240791D01*
G37*
G36*
X-38099Y+1773114D02*
X-38099Y+1909886D01*
X+58614Y+2006599D01*
X+195386Y+2006599D01*
X+292099Y+1909886D01*
X+292099Y+1773114D01*
X+195386Y+1676401D01*
X+58614Y+1676401D01*
X-38099Y+1773114D01*
G37*
G36*
X+3262629Y+1222791D02*
X+2960371Y+1222791D01*
X+2960371Y+1535209D01*
X+3262629Y+1535209D01*
X+3262629Y+1222791D01*
G37*
G36*
X+2556509Y+1253491D02*
X+2269491Y+1253491D01*
X+2269491Y+1540509D01*
X+2556509Y+1540509D01*
X+2556509Y+1253491D01*
G37*
G36*
X+2556509Y+803491D02*
X+2395467Y+803491D01*
X+2383036Y+784905D01*
X+2282899Y+684768D01*
X+2282899Y+494029D01*
X+2291789Y+494029D01*
X+2291789Y-113029D01*
X+2096211Y-113029D01*
X+2096211Y+101601D01*
X+1993899Y+101602D01*
X+1993899Y-38099D01*
X+1943099Y-38099D01*
X+1943099Y-125731D01*
X+1972749Y-125731D01*
X+1972749Y-382269D01*
X+1950999Y-382269D01*
X+1950999Y-633731D01*
X+1982749Y-633731D01*
X+1982749Y-890269D01*
X+1950999Y-890269D01*
X+1950998Y-963488D01*
X+1950999Y-991871D01*
X+2005769Y-991871D01*
X+2005769Y-1294129D01*
X+1904999Y-1294129D01*
X+1904999Y-1447801D01*
X+2038349Y-1447801D01*
X+2038349Y-1727199D01*
X+1650999Y-1727199D01*
X+1650999Y-1740801D01*
X+1594751Y-1797049D01*
X+1479549Y-1797049D01*
X+1479549Y-1803399D01*
X+1314451Y-1803399D01*
X+1314451Y-1676399D01*
X+1250951Y-1676399D01*
X+1250951Y-1498601D01*
X+1416049Y-1498601D01*
X+1416049Y-1663701D01*
X+1479549Y-1663701D01*
X+1479549Y-1670051D01*
X+1517651Y-1670051D01*
X+1517651Y-1447801D01*
X+1524001Y-1447801D01*
X+1524001Y-1294129D01*
X+1459231Y-1294129D01*
X+1459231Y-991871D01*
X+1524001Y-991871D01*
X+1524001Y-890269D01*
X+1492251Y-890269D01*
X+1492251Y-639249D01*
X+1391551Y-639249D01*
X+1303019Y-727781D01*
X+1303019Y-1308101D01*
X+1322069Y-1308101D01*
X+1322069Y-1485899D01*
X+1156971Y-1485899D01*
X+1156971Y-1308101D01*
X+1176021Y-1308101D01*
X+1176021Y-675179D01*
X+1268731Y-582469D01*
X+1268731Y-448751D01*
X+1525269Y-448751D01*
X+1525269Y-474073D01*
X+1666980Y-474073D01*
X+1791967Y-599060D01*
X+1791967Y-991871D01*
X+1824001Y-991871D01*
X+1824002Y-963488D01*
X+1824001Y-890269D01*
X+1792251Y-890269D01*
X+1792251Y-633731D01*
X+1824001Y-633731D01*
X+1824001Y-382269D01*
X+1782251Y-382269D01*
X+1782251Y-125731D01*
X+1814001Y-125731D01*
X+1814001Y-100698D01*
X+1816101Y-98598D01*
X+1816101Y-38099D01*
X+1765301Y-38099D01*
X+1765301Y+292099D01*
X+1993899Y+292099D01*
X+1993899Y+279398D01*
X+2096211Y+279399D01*
X+2096211Y+494029D01*
X+2105101Y+494029D01*
X+2105101Y+758414D01*
X+2244964Y+898277D01*
X+2269491Y+934949D01*
X+2269491Y+1090509D01*
X+2556509Y+1090509D01*
X+2556509Y+803491D01*
G37*
G36*
X+1228089Y-1676399D02*
X+1209039Y-1676399D01*
X+1209039Y-1944739D01*
X+1384301Y-2120001D01*
X+1384301Y-2109101D01*
X+1333501Y-2058301D01*
X+1333501Y-2038349D01*
X+1314451Y-2038349D01*
X+1314451Y-1898651D01*
X+1479549Y-1898651D01*
X+1479549Y-1905001D01*
X+1584461Y-1905001D01*
X+1647961Y-1968501D01*
X+2038349Y-1968501D01*
X+2038349Y-2247899D01*
X+1780090Y-2247899D01*
X+1780090Y-2643912D01*
X+1693504Y-2730498D01*
X+1682749Y-2730498D01*
X+1682749Y-2795269D01*
X+1492251Y-2795269D01*
X+1492251Y-2284731D01*
X+1524001Y-2284731D01*
X+1524001Y-2247899D01*
X+1517651Y-2247899D01*
X+1517651Y-2146111D01*
X+1492063Y-2171699D01*
X+1428937Y-2171699D01*
X+1396999Y-2139761D01*
X+1396999Y-2190751D01*
X+1461769Y-2190751D01*
X+1461769Y-2381249D01*
X+1205231Y-2381249D01*
X+1205231Y-2190751D01*
X+1270001Y-2190751D01*
X+1270001Y-2185301D01*
X+1082041Y-1997341D01*
X+1082041Y-1676399D01*
X+1062991Y-1676399D01*
X+1062991Y-1498601D01*
X+1228089Y-1498601D01*
X+1228089Y-1676399D01*
G37*
G36*
X+1739899Y+1814823D02*
X+1739899Y+1205229D01*
X+2038349Y+1205229D01*
X+2038349Y+430531D01*
X+1263651Y+430531D01*
X+1263651Y+1205229D01*
X+1562101Y+1205229D01*
X+1562101Y+1814823D01*
X+1614177Y+1866899D01*
X+1687823Y+1866899D01*
X+1739899Y+1814823D01*
G37*
G36*
X+1536699Y-38099D02*
X+1485899Y-38099D01*
X+1485899Y-158751D01*
X+1492251Y-158751D01*
X+1492251Y-125731D01*
X+1682749Y-125731D01*
X+1682749Y-382269D01*
X+1492251Y-382269D01*
X+1492251Y-349249D01*
X+1268731Y-349249D01*
X+1268731Y-158751D01*
X+1358901Y-158751D01*
X+1358901Y-38099D01*
X+1308101Y-38099D01*
X+1308101Y+292099D01*
X+1536699Y+292099D01*
X+1536699Y-38099D01*
G37*
G36*
X+2247901Y+1773114D02*
X+2247901Y+1909886D01*
X+2344614Y+2006599D01*
X+2481386Y+2006599D01*
X+2578099Y+1909886D01*
X+2578099Y+1773114D01*
X+2481386Y+1676401D01*
X+2344614Y+1676401D01*
X+2247901Y+1773114D01*
G37*
G36*
X+5612129Y+1222791D02*
X+5309871Y+1222791D01*
X+5309871Y+1535209D01*
X+5612129Y+1535209D01*
X+5612129Y+1222791D01*
G37*
G36*
X+4906009Y+1253491D02*
X+4618991Y+1253491D01*
X+4618991Y+1540509D01*
X+4906009Y+1540509D01*
X+4906009Y+1253491D01*
G37*
G36*
X+4906009Y+803491D02*
X+4716213Y+803491D01*
X+4568899Y+656177D01*
X+4568899Y+494029D01*
X+4577789Y+494029D01*
X+4577789Y-113029D01*
X+4382211Y-113029D01*
X+4382211Y+45721D01*
X+4279899Y+45721D01*
X+4279899Y-30479D01*
X+4229099Y-30479D01*
X+4229099Y-125731D01*
X+4258749Y-125731D01*
X+4258749Y-382269D01*
X+4236999Y-382269D01*
X+4236999Y-633731D01*
X+4268749Y-633731D01*
X+4268749Y-890269D01*
X+4236999Y-890269D01*
X+4236999Y-991871D01*
X+4291769Y-991871D01*
X+4291769Y-1294129D01*
X+4190999Y-1294129D01*
X+4190999Y-1447801D01*
X+4324349Y-1447801D01*
X+4324349Y-1727199D01*
X+3916470Y-1727199D01*
X+3846620Y-1797049D01*
X+3765549Y-1797049D01*
X+3765549Y-1803399D01*
X+3600451Y-1803399D01*
X+3600451Y-1676399D01*
X+3536951Y-1676399D01*
X+3536951Y-1498601D01*
X+3702049Y-1498601D01*
X+3702049Y-1663701D01*
X+3765549Y-1663701D01*
X+3765549Y-1670051D01*
X+3794018Y-1670051D01*
X+3803077Y-1660992D01*
X+3803651Y-1652720D01*
X+3803651Y-1447801D01*
X+3810001Y-1447801D01*
X+3810001Y-1294129D01*
X+3745231Y-1294129D01*
X+3745231Y-991871D01*
X+3810001Y-991871D01*
X+3810001Y-890269D01*
X+3778251Y-890269D01*
X+3778251Y-639249D01*
X+3677551Y-639249D01*
X+3589019Y-727781D01*
X+3589019Y-1308101D01*
X+3608069Y-1308101D01*
X+3608069Y-1485899D01*
X+3442971Y-1485899D01*
X+3442971Y-1308101D01*
X+3462021Y-1308101D01*
X+3462021Y-675179D01*
X+3554731Y-582469D01*
X+3554731Y-448751D01*
X+3811269Y-448751D01*
X+3811269Y-478386D01*
X+3933561Y-478386D01*
X+4086016Y-630841D01*
X+4086016Y-633731D01*
X+4110001Y-633731D01*
X+4110001Y-382269D01*
X+4068251Y-382269D01*
X+4068251Y-125731D01*
X+4100001Y-125731D01*
X+4100001Y-100698D01*
X+4102101Y-98598D01*
X+4102101Y-30479D01*
X+4051301Y-30479D01*
X+4051301Y+299719D01*
X+4279899Y+299719D01*
X+4279899Y+223519D01*
X+4382211Y+223519D01*
X+4382211Y+494029D01*
X+4391101Y+494029D01*
X+4391101Y+729823D01*
X+4618991Y+957713D01*
X+4618991Y+1090509D01*
X+4906009Y+1090509D01*
X+4906009Y+803491D01*
G37*
G36*
X+3514089Y-1676399D02*
X+3495039Y-1676399D01*
X+3495039Y-1944739D01*
X+3670301Y-2120001D01*
X+3670301Y-2109101D01*
X+3619501Y-2058301D01*
X+3619501Y-2038349D01*
X+3600451Y-2038349D01*
X+3600451Y-1898651D01*
X+3765549Y-1898651D01*
X+3765549Y-1905002D01*
X+3862709Y-1905002D01*
X+3926208Y-1968501D01*
X+4324349Y-1968501D01*
X+4324349Y-2247899D01*
X+4063999Y-2247899D01*
X+4063999Y-2629801D01*
X+3968749Y-2725051D01*
X+3968749Y-2795269D01*
X+3778251Y-2795269D01*
X+3778251Y-2284731D01*
X+3810001Y-2284731D01*
X+3810001Y-2247899D01*
X+3803651Y-2247899D01*
X+3803651Y-2146111D01*
X+3778063Y-2171699D01*
X+3714937Y-2171699D01*
X+3682999Y-2139761D01*
X+3682999Y-2190751D01*
X+3747769Y-2190751D01*
X+3747769Y-2381249D01*
X+3491231Y-2381249D01*
X+3491231Y-2190751D01*
X+3556001Y-2190751D01*
X+3556001Y-2185301D01*
X+3368041Y-1997341D01*
X+3368041Y-1676399D01*
X+3348991Y-1676399D01*
X+3348991Y-1498601D01*
X+3514089Y-1498601D01*
X+3514089Y-1676399D01*
G37*
G36*
X+5075749Y-1779269D02*
X+5065749Y-1779269D01*
X+5065749Y-2030731D01*
X+5075749Y-2030731D01*
X+5075749Y-2287269D01*
X+4703251Y-2287269D01*
X+4703251Y-2161450D01*
X+4615809Y-2248892D01*
X+4603749Y-2248892D01*
X+4603749Y-2287269D01*
X+4571999Y-2287269D01*
X+4571999Y-2883802D01*
X+4571998Y-3217574D01*
X+4170073Y-3619499D01*
X+4071065Y-3619499D01*
X+3994865Y-3695699D01*
X+3879135Y-3695699D01*
X+3797301Y-3613865D01*
X+3797301Y-3498135D01*
X+3866436Y-3429000D01*
X+3797301Y-3359865D01*
X+3797301Y-3244135D01*
X+3866436Y-3175000D01*
X+3802935Y-3111499D01*
X+3720198Y-3111499D01*
X+3683001Y-3074301D01*
X+3556001Y-2947301D01*
X+3556001Y-2671249D01*
X+3491231Y-2671249D01*
X+3491231Y-2480751D01*
X+3747769Y-2480751D01*
X+3747769Y-2671249D01*
X+3682999Y-2671249D01*
X+3682999Y-2894699D01*
X+3772801Y-2984501D01*
X+3802935Y-2984501D01*
X+3879135Y-2908301D01*
X+3994865Y-2908301D01*
X+4076699Y-2990135D01*
X+4076699Y-3105865D01*
X+4007564Y-3175000D01*
X+4060558Y-3227994D01*
X+4093399Y-3195154D01*
X+4093399Y-2795269D01*
X+4068251Y-2795269D01*
X+4068251Y-2538731D01*
X+4078251Y-2538731D01*
X+4078251Y-2284731D01*
X+4268749Y-2284731D01*
X+4268749Y-2541269D01*
X+4258749Y-2541269D01*
X+4258749Y-2795269D01*
X+4220397Y-2795269D01*
X+4220397Y-3247756D01*
X+4102654Y-3365499D01*
X+4071065Y-3365499D01*
X+4007564Y-3429000D01*
X+4071065Y-3492501D01*
X+4117471Y-3492501D01*
X+4445002Y-3164970D01*
X+4445001Y-2287269D01*
X+4413251Y-2287269D01*
X+4413251Y-1522731D01*
X+4603749Y-1522731D01*
X+4603749Y-2081352D01*
X+4607018Y-2078083D01*
X+4607018Y-1683496D01*
X+4703013Y-1587501D01*
X+4713251Y-1587501D01*
X+4713251Y-1522731D01*
X+5075749Y-1522731D01*
X+5075749Y-1779269D01*
G37*
G36*
X+7478749Y-1776731D02*
X+7488749Y-1776731D01*
X+7488749Y-2287269D01*
X+7298251Y-2287269D01*
X+7298251Y-2222499D01*
X+7243249Y-2222499D01*
X+7243249Y-2287269D01*
X+7052751Y-2287269D01*
X+7052751Y-2126172D01*
X+6956424Y-2222499D01*
X+6953249Y-2222499D01*
X+6953249Y-2287269D01*
X+6921499Y-2287269D01*
X+6921499Y-2559239D01*
X+6953437Y-2527301D01*
X+7016563Y-2527301D01*
X+7029263Y-2540001D01*
X+7207250Y-2540002D01*
X+7403198Y-2540001D01*
X+8078565Y-2540001D01*
X+8219306Y-2399260D01*
X+8219306Y-2381298D01*
X+8263942Y-2336662D01*
X+8327068Y-2336662D01*
X+8371704Y-2381298D01*
X+8371704Y-2444424D01*
X+8327068Y-2489060D01*
X+8309106Y-2489060D01*
X+8131167Y-2666999D01*
X+7403198Y-2666999D01*
X+7207250Y-2666998D01*
X+7029263Y-2666999D01*
X+7016563Y-2679699D01*
X+6953437Y-2679699D01*
X+6921499Y-2647761D01*
X+6921499Y-2715922D01*
X+6884301Y-2753119D01*
X+6705275Y-2932145D01*
X+6705275Y-3354026D01*
X+6439802Y-3619499D01*
X+6357065Y-3619499D01*
X+6280865Y-3695699D01*
X+6165135Y-3695699D01*
X+6083301Y-3613865D01*
X+6083301Y-3498135D01*
X+6152436Y-3429000D01*
X+6083301Y-3359865D01*
X+6083301Y-3244135D01*
X+6152436Y-3175000D01*
X+6083301Y-3105865D01*
X+6083301Y-3061602D01*
X+6057901Y-3036201D01*
X+5905502Y-2883802D01*
X+5905502Y-2857500D01*
X+5905501Y-2671249D01*
X+5840731Y-2671249D01*
X+5840731Y-2480751D01*
X+6097269Y-2480751D01*
X+6097269Y-2671249D01*
X+6032499Y-2671249D01*
X+6032499Y-2706634D01*
X+6032498Y-2831198D01*
X+6137368Y-2936068D01*
X+6165135Y-2908301D01*
X+6280865Y-2908301D01*
X+6362699Y-2990135D01*
X+6362699Y-3105865D01*
X+6293564Y-3175000D01*
X+6357065Y-3238501D01*
X+6371323Y-3238501D01*
X+6449501Y-3160323D01*
X+6449501Y-2795269D01*
X+6417751Y-2795269D01*
X+6417751Y-2538731D01*
X+6427751Y-2538731D01*
X+6427751Y-2284731D01*
X+6618249Y-2284731D01*
X+6618249Y-2541269D01*
X+6608249Y-2541269D01*
X+6608249Y-2795269D01*
X+6576499Y-2795269D01*
X+6576499Y-3212925D01*
X+6423925Y-3365499D01*
X+6357065Y-3365499D01*
X+6293564Y-3429000D01*
X+6357065Y-3492501D01*
X+6387199Y-3492501D01*
X+6578277Y-3301423D01*
X+6578277Y-2879543D01*
X+6794501Y-2663319D01*
X+6794501Y-2287269D01*
X+6762751Y-2287269D01*
X+6762751Y-1776731D01*
X+6780251Y-1776731D01*
X+6780251Y-1522731D01*
X+6970749Y-1522731D01*
X+6970749Y-1664038D01*
X+7047286Y-1587501D01*
X+7080251Y-1587501D01*
X+7080251Y-1522731D01*
X+7270749Y-1522731D01*
X+7270749Y-1779269D01*
X+7253249Y-1779269D01*
X+7253249Y-2033269D01*
X+7243249Y-2033269D01*
X+7243249Y-2095501D01*
X+7298251Y-2095501D01*
X+7298251Y-1779269D01*
X+7288251Y-1779269D01*
X+7288251Y-1522731D01*
X+7478749Y-1522731D01*
X+7478749Y-1776731D01*
G37*
G36*
X+3822699Y-30479D02*
X+3771899Y-30479D01*
X+3771899Y-158751D01*
X+3778251Y-158751D01*
X+3778251Y-125731D01*
X+3968749Y-125731D01*
X+3968749Y-382269D01*
X+3778251Y-382269D01*
X+3778251Y-349249D01*
X+3554731Y-349249D01*
X+3554731Y-158751D01*
X+3644901Y-158751D01*
X+3644901Y-30479D01*
X+3594101Y-30479D01*
X+3594101Y+299719D01*
X+3822699Y+299719D01*
X+3822699Y-30479D01*
G37*
G36*
X+7192009Y+803491D02*
X+7065713Y+803491D01*
X+6918399Y+656177D01*
X+6918399Y+494029D01*
X+6927289Y+494029D01*
X+6927289Y-113029D01*
X+6731711Y-113029D01*
X+6731711Y+101601D01*
X+6603999Y+101601D01*
X+6603999Y-38099D01*
X+6540499Y-38099D01*
X+6540499Y-125731D01*
X+6572249Y-125731D01*
X+6572249Y-299351D01*
X+6586499Y-313601D01*
X+6586499Y-633731D01*
X+6618249Y-633731D01*
X+6618249Y-890269D01*
X+6576499Y-890269D01*
X+6576499Y-991871D01*
X+6641269Y-991871D01*
X+6641269Y-1294129D01*
X+6540499Y-1294129D01*
X+6540499Y-1447801D01*
X+6673849Y-1447801D01*
X+6673849Y-1727199D01*
X+6289333Y-1727199D01*
X+6289333Y-1727574D01*
X+6219858Y-1797049D01*
X+6115049Y-1797049D01*
X+6115049Y-1803399D01*
X+5949951Y-1803399D01*
X+5949951Y-1676399D01*
X+5886451Y-1676399D01*
X+5886451Y-1498601D01*
X+6051549Y-1498601D01*
X+6051549Y-1663701D01*
X+6115049Y-1663701D01*
X+6115049Y-1670051D01*
X+6153151Y-1670051D01*
X+6153151Y-1447801D01*
X+6159501Y-1447801D01*
X+6159502Y-1365250D01*
X+6159501Y-1294129D01*
X+6094731Y-1294129D01*
X+6094731Y-991871D01*
X+6159501Y-991871D01*
X+6159501Y-890269D01*
X+6127751Y-890269D01*
X+6127751Y-633731D01*
X+6288780Y-633731D01*
X+6264540Y-609491D01*
X+6097269Y-609491D01*
X+6097269Y-639249D01*
X+5963551Y-639249D01*
X+5938519Y-664281D01*
X+5938519Y-1308101D01*
X+5957569Y-1308101D01*
X+5957569Y-1485899D01*
X+5792471Y-1485899D01*
X+5792471Y-1308101D01*
X+5811521Y-1308101D01*
X+5811521Y-611679D01*
X+5840731Y-582469D01*
X+5840731Y-448751D01*
X+6097269Y-448751D01*
X+6097269Y-482493D01*
X+6317142Y-482493D01*
X+6435537Y-600888D01*
X+6435537Y-633731D01*
X+6459501Y-633731D01*
X+6459501Y-382269D01*
X+6381751Y-382269D01*
X+6381751Y-125731D01*
X+6413501Y-125731D01*
X+6413501Y-38099D01*
X+6375401Y-38099D01*
X+6375401Y+292099D01*
X+6603999Y+292099D01*
X+6603999Y+279399D01*
X+6731711Y+279399D01*
X+6731711Y+494029D01*
X+6740601Y+494029D01*
X+6740601Y+729823D01*
X+6904991Y+894213D01*
X+6904991Y+1090509D01*
X+7192009Y+1090509D01*
X+7192009Y+803491D01*
G37*
G36*
X+5863589Y-1676399D02*
X+5844539Y-1676399D01*
X+5844539Y-2071739D01*
X+5963551Y-2190751D01*
X+6097269Y-2190751D01*
X+6097269Y-2381249D01*
X+5840731Y-2381249D01*
X+5840731Y-2247531D01*
X+5717541Y-2124341D01*
X+5717541Y-1676399D01*
X+5698491Y-1676399D01*
X+5698491Y-1498601D01*
X+5863589Y-1498601D01*
X+5863589Y-1676399D01*
G37*
G36*
X+5837699Y+2213436D02*
X+6022991Y+2028144D01*
X+6022991Y+1205229D01*
X+6648449Y+1205229D01*
X+6648449Y+430531D01*
X+5873751Y+430531D01*
X+5873751Y+1079507D01*
X+5845193Y+1108065D01*
X+5845193Y+1954498D01*
X+5685939Y+2113752D01*
X+5685939Y+2187398D01*
X+5738015Y+2239474D01*
X+5811661Y+2239474D01*
X+5837699Y+2213436D01*
G37*
G36*
X+6146799Y-38099D02*
X+6095999Y-38099D01*
X+6095999Y-125731D01*
X+6282249Y-125731D01*
X+6282249Y-382269D01*
X+6091751Y-382269D01*
X+6091751Y-349249D01*
X+5840731Y-349249D01*
X+5840731Y-158751D01*
X+5969001Y-158751D01*
X+5969001Y-38099D01*
X+5918201Y-38099D01*
X+5918201Y+292099D01*
X+6146799Y+292099D01*
X+6146799Y-38099D01*
G37*
G36*
X+4597401Y+1773114D02*
X+4597401Y+1909886D01*
X+4694114Y+2006599D01*
X+4830886Y+2006599D01*
X+4927599Y+1909886D01*
X+4927599Y+1773114D01*
X+4830886Y+1676401D01*
X+4694114Y+1676401D01*
X+4597401Y+1773114D01*
G37*
G36*
X+7764586Y+1930399D02*
X+7796722Y+1930399D01*
X+8216899Y+1510222D01*
X+8216899Y+69133D01*
X+8089309Y-58457D01*
X+8018779Y-58457D01*
X+8018779Y-75329D01*
X+7911656Y-75329D01*
X+8002146Y-112999D01*
X+8023488Y-145000D01*
X+8023488Y-374376D01*
X+7986291Y-411573D01*
X+7933687Y-411573D01*
X+7930613Y-408499D01*
X+7811769Y-408499D01*
X+7811769Y-440249D01*
X+7555231Y-440249D01*
X+7555231Y-430249D01*
X+7470051Y-430249D01*
X+7360549Y-539751D01*
X+7811769Y-539751D01*
X+7811769Y-730249D01*
X+7797799Y-730249D01*
X+7797799Y-946151D01*
X+7886699Y-946151D01*
X+7886699Y-1466849D01*
X+7766951Y-1466849D01*
X+7746999Y-1486801D01*
X+7746999Y-1522731D01*
X+7778749Y-1522731D01*
X+7778749Y-2287269D01*
X+7616049Y-2287269D01*
X+7616049Y-2347202D01*
X+7486752Y-2476499D01*
X+7092763Y-2476499D01*
X+7080063Y-2489199D01*
X+7016937Y-2489199D01*
X+6972301Y-2444563D01*
X+6972301Y-2381437D01*
X+7016937Y-2336801D01*
X+7080063Y-2336801D01*
X+7092763Y-2349501D01*
X+7434150Y-2349501D01*
X+7489051Y-2294600D01*
X+7489051Y-1165351D01*
X+7466698Y-1142999D01*
X+7429501Y-1105802D01*
X+7429501Y-953769D01*
X+7365999Y-953769D01*
X+7365999Y-1466849D01*
X+7086601Y-1466849D01*
X+7086601Y-953769D01*
X+6953251Y-953769D01*
X+6953251Y-730249D01*
X+6793231Y-730249D01*
X+6793231Y-539751D01*
X+6926949Y-539751D01*
X+7036451Y-430249D01*
X+6793231Y-430249D01*
X+6793231Y-239751D01*
X+7049769Y-239751D01*
X+7049769Y-249751D01*
X+7180949Y-249751D01*
X+7331711Y-98989D01*
X+7331711Y+494029D01*
X+7340601Y+494029D01*
X+7340601Y+509823D01*
X+7554677Y+723899D01*
X+7602221Y+723899D01*
X+7602221Y+735329D01*
X+7721601Y+735329D01*
X+7721601Y+750791D01*
X+7659371Y+750791D01*
X+7659371Y+1063209D01*
X+7961629Y+1063209D01*
X+7961629Y+750791D01*
X+7899399Y+750791D01*
X+7899399Y+735329D01*
X+8018779Y+735329D01*
X+8018779Y+534671D01*
X+7616893Y+534671D01*
X+7527289Y+445067D01*
X+7527289Y-113029D01*
X+7492999Y-113029D01*
X+7492999Y-117301D01*
X+7370549Y-239751D01*
X+7557769Y-239751D01*
X+7557769Y-249751D01*
X+7811769Y-249751D01*
X+7811769Y-281501D01*
X+7896490Y-281501D01*
X+7896490Y-206577D01*
X+7768343Y-153231D01*
X+7747001Y-121230D01*
X+7747001Y-75329D01*
X+7602221Y-75329D01*
X+7602221Y+125329D01*
X+8018779Y+125329D01*
X+8018779Y+122457D01*
X+8039101Y+142779D01*
X+8039101Y+1436576D01*
X+7961629Y+1514048D01*
X+7961629Y+1240791D01*
X+7659371Y+1240791D01*
X+7659371Y+1553209D01*
X+7922468Y+1553209D01*
X+7743831Y+1731846D01*
X+7688386Y+1676401D01*
X+7551614Y+1676401D01*
X+7454901Y+1773114D01*
X+7454901Y+1909886D01*
X+7551614Y+2006599D01*
X+7688386Y+2006599D01*
X+7764586Y+1930399D01*
G37*
G36*
X+6946901Y+1773114D02*
X+6946901Y+1909886D01*
X+7043614Y+2006599D01*
X+7180386Y+2006599D01*
X+7277099Y+1909886D01*
X+7277099Y+1773114D01*
X+7180386Y+1676401D01*
X+7043614Y+1676401D01*
X+6946901Y+1773114D01*
G37*
G36*
X+6115049Y-1905001D02*
X+6208194Y-1905001D01*
X+6271694Y-1968501D01*
X+6673849Y-1968501D01*
X+6673849Y-2247899D01*
X+6413499Y-2247899D01*
X+6413499Y-2629801D01*
X+6318249Y-2725051D01*
X+6318249Y-2795269D01*
X+6127751Y-2795269D01*
X+6127751Y-2284731D01*
X+6159501Y-2284731D01*
X+6159501Y-2247899D01*
X+6153151Y-2247899D01*
X+6153151Y-2031999D01*
X+6115049Y-2031999D01*
X+6115049Y-2038349D01*
X+6095999Y-2038349D01*
X+6095999Y-2051237D01*
X+6108699Y-2063937D01*
X+6108699Y-2127063D01*
X+6064063Y-2171699D01*
X+6000937Y-2171699D01*
X+5956301Y-2127063D01*
X+5956301Y-2063937D01*
X+5969001Y-2051237D01*
X+5969001Y-2038349D01*
X+5949951Y-2038349D01*
X+5949951Y-1898651D01*
X+6115049Y-1898651D01*
X+6115049Y-1905001D01*
G37*
G36*
X+7192009Y+1253491D02*
X+6904991Y+1253491D01*
X+6904991Y+1540509D01*
X+7192009Y+1540509D01*
X+7192009Y+1253491D01*
G37*
G36*
X+7246065Y-2984501D02*
X+7429500Y-2984502D01*
X+7702737Y-2984501D01*
X+7715437Y-2971801D01*
X+7778563Y-2971801D01*
X+7823199Y-3016437D01*
X+7823199Y-3079563D01*
X+7778563Y-3124199D01*
X+7715437Y-3124199D01*
X+7702737Y-3111499D01*
X+7429500Y-3111498D01*
X+7246065Y-3111499D01*
X+7182564Y-3175000D01*
X+7246065Y-3238501D01*
X+7299346Y-3238501D01*
X+7299346Y-3231361D01*
X+7358861Y-3171846D01*
X+7443029Y-3171846D01*
X+7502544Y-3231361D01*
X+7502544Y-3315529D01*
X+7491806Y-3326267D01*
X+7491806Y-3327108D01*
X+7453415Y-3365499D01*
X+7452574Y-3365499D01*
X+7443029Y-3375044D01*
X+7358861Y-3375044D01*
X+7349316Y-3365499D01*
X+7246065Y-3365499D01*
X+7182564Y-3429000D01*
X+7251699Y-3498135D01*
X+7251699Y-3613865D01*
X+7169865Y-3695699D01*
X+7054135Y-3695699D01*
X+6977935Y-3619499D01*
X+6938184Y-3619499D01*
X+6900084Y-3657599D01*
X+6815916Y-3657599D01*
X+6756401Y-3598084D01*
X+6756401Y-3513916D01*
X+6815916Y-3454401D01*
X+6900084Y-3454401D01*
X+6938184Y-3492501D01*
X+6977935Y-3492501D01*
X+7041436Y-3429000D01*
X+6972301Y-3359865D01*
X+6972301Y-3244135D01*
X+7041436Y-3175000D01*
X+6972301Y-3105865D01*
X+6972301Y-2990135D01*
X+7054135Y-2908301D01*
X+7169865Y-2908301D01*
X+7246065Y-2984501D01*
G37*
G36*
X+6502401Y+1773114D02*
X+6502401Y+1909886D01*
X+6599114Y+2006599D01*
X+6735886Y+2006599D01*
X+6832599Y+1909886D01*
X+6832599Y+1773114D01*
X+6735886Y+1676401D01*
X+6599114Y+1676401D01*
X+6502401Y+1773114D01*
G37*
G36*
X+6057901Y+1773114D02*
X+6057901Y+1909886D01*
X+6154614Y+2006599D01*
X+6291386Y+2006599D01*
X+6388099Y+1909886D01*
X+6388099Y+1773114D01*
X+6291386Y+1676401D01*
X+6154614Y+1676401D01*
X+6057901Y+1773114D01*
G37*
G36*
X-4476751Y-2477769D02*
X-4476751Y-2731769D01*
X-4508501Y-2731769D01*
X-4508502Y-3466198D01*
X-4482199Y-3492501D01*
X-4388565Y-3492501D01*
X-4325064Y-3429000D01*
X-4394199Y-3359865D01*
X-4394199Y-3244135D01*
X-4325064Y-3175000D01*
X-4394199Y-3105865D01*
X-4394199Y-2990135D01*
X-4317999Y-2913935D01*
X-4317999Y-2888713D01*
X-4330699Y-2876013D01*
X-4330699Y-2812887D01*
X-4286063Y-2768251D01*
X-4222937Y-2768251D01*
X-4178301Y-2812887D01*
X-4178301Y-2876013D01*
X-4191001Y-2888713D01*
X-4191001Y-2913935D01*
X-4114801Y-2990135D01*
X-4114801Y-3105865D01*
X-4183936Y-3175000D01*
X-4120435Y-3238501D01*
X-4044763Y-3238501D01*
X-4032063Y-3225801D01*
X-3968937Y-3225801D01*
X-3924301Y-3270437D01*
X-3924301Y-3333563D01*
X-3968937Y-3378199D01*
X-4032063Y-3378199D01*
X-4044763Y-3365499D01*
X-4120435Y-3365499D01*
X-4183936Y-3429000D01*
X-4114801Y-3498135D01*
X-4114801Y-3613865D01*
X-4196635Y-3695699D01*
X-4312365Y-3695699D01*
X-4388565Y-3619499D01*
X-4534801Y-3619499D01*
X-4635498Y-3518802D01*
X-4635498Y-3492500D01*
X-4635499Y-2731769D01*
X-4667249Y-2731769D01*
X-4667249Y-2666999D01*
X-4697731Y-2666999D01*
X-4697731Y-2744749D01*
X-4954269Y-2744749D01*
X-4954269Y-2734749D01*
X-5208269Y-2734749D01*
X-5208269Y-2544251D01*
X-5074551Y-2544251D01*
X-5070301Y-2540001D01*
X-4667249Y-2540001D01*
X-4667249Y-2221231D01*
X-4476751Y-2221231D01*
X-4476751Y-2477769D01*
G37*
G36*
X-4686299Y-1828801D02*
X-4457701Y-1828801D01*
X-4457701Y-2108199D01*
X-4686299Y-2108199D01*
X-4686299Y-1828801D01*
G37*
G36*
X-4305301Y-793937D02*
X-4305301Y-857063D01*
X-4318001Y-869763D01*
X-4318001Y-951231D01*
X-4286251Y-951231D01*
X-4286251Y-952502D01*
X-3917763Y-952501D01*
X-3905063Y-939801D01*
X-3841937Y-939801D01*
X-3797301Y-984437D01*
X-3797301Y-1047563D01*
X-3841937Y-1092199D01*
X-3905063Y-1092199D01*
X-3917763Y-1079499D01*
X-4286251Y-1079498D01*
X-4286251Y-1084949D01*
X-4277361Y-1093839D01*
X-4277361Y-1198881D01*
X-4112261Y-1198881D01*
X-4112261Y-1478279D01*
X-4277361Y-1478279D01*
X-4277362Y-1653540D01*
X-4277361Y-1828801D01*
X-4226561Y-1828801D01*
X-4226561Y-2108199D01*
X-4455159Y-2108199D01*
X-4455159Y-1828801D01*
X-4404359Y-1828801D01*
X-4404358Y-1653540D01*
X-4404359Y-1478279D01*
X-4569459Y-1478279D01*
X-4569459Y-1402079D01*
X-4865371Y-1402079D01*
X-4865371Y-1616709D01*
X-5167629Y-1616709D01*
X-5167629Y-1304291D01*
X-4950091Y-1304291D01*
X-4920881Y-1275081D01*
X-4569459Y-1275081D01*
X-4569459Y-1198881D01*
X-4476749Y-1198881D01*
X-4476749Y-951231D01*
X-4444999Y-951231D01*
X-4444999Y-869763D01*
X-4457699Y-857063D01*
X-4457699Y-793937D01*
X-4413063Y-749301D01*
X-4349937Y-749301D01*
X-4305301Y-793937D01*
G37*
G36*
X-4776749Y-951231D02*
X-4586251Y-951231D01*
X-4586251Y-1207769D01*
X-4776749Y-1207769D01*
X-4776749Y-951231D01*
G37*
G36*
X-5167629Y-1794291D02*
X-4865371Y-1794291D01*
X-4865371Y-2106709D01*
X-5167629Y-2106709D01*
X-5167629Y-1794291D01*
G37*
G36*
X-5889209Y+737871D02*
X-5889209Y+1040129D01*
X-5576791Y+1040129D01*
X-5576791Y+737871D01*
X-5889209Y+737871D01*
G37*
G36*
X-5889209Y-151129D02*
X-5889209Y+151129D01*
X-5576791Y+151129D01*
X-5576791Y-151129D01*
X-5889209Y-151129D01*
G37*
G36*
X-5889209Y-1040129D02*
X-5889209Y-737871D01*
X-5576791Y-737871D01*
X-5576791Y-1040129D01*
X-5889209Y-1040129D01*
G37*
G36*
X-5889209Y-1992629D02*
X-5889209Y-1690371D01*
X-5576791Y-1690371D01*
X-5576791Y-1992629D01*
X-5889209Y-1992629D01*
G37*
G36*
X-6515099Y-3920096D02*
X-6515099Y-3572904D01*
X-6269596Y-3327401D01*
X-5922404Y-3327401D01*
X-5676901Y-3572904D01*
X-5676901Y-3920096D01*
X-5922404Y-4165599D01*
X-6269596Y-4165599D01*
X-6515099Y-3920096D01*
G37*
G36*
X-6515099Y+2239404D02*
X-6515099Y+2586596D01*
X-6269596Y+2832099D01*
X-5922404Y+2832099D01*
X-5676901Y+2586596D01*
X-5676901Y+2239404D01*
X-5922404Y+1993901D01*
X-6269596Y+1993901D01*
X-6515099Y+2239404D01*
G37*
G36*
X+7581901Y+2239404D02*
X+7581901Y+2586596D01*
X+7827404Y+2832099D01*
X+8174596Y+2832099D01*
X+8420099Y+2586596D01*
X+8420099Y+2239404D01*
X+8174596Y+1993901D01*
X+7827404Y+1993901D01*
X+7581901Y+2239404D01*
G37*
G36*
X+7581901Y-3920096D02*
X+7581901Y-3572904D01*
X+7827404Y-3327401D01*
X+8174596Y-3327401D01*
X+8420099Y-3572904D01*
X+8420099Y-3920096D01*
X+8174596Y-4165599D01*
X+7827404Y-4165599D01*
X+7581901Y-3920096D01*
G37*
G36*
X-4470401Y+1909886D02*
X-4470401Y+1773114D01*
X-4546601Y+1696914D01*
X-4546601Y+1424205D01*
X-4508501Y+1386105D01*
X-4508501Y+1280895D01*
X-4582895Y+1206501D01*
X-4688105Y+1206501D01*
X-4762499Y+1280895D01*
X-4762499Y+1386105D01*
X-4724399Y+1424205D01*
X-4724399Y+1696914D01*
X-4800599Y+1773114D01*
X-4800599Y+1909886D01*
X-4703886Y+2006599D01*
X-4567114Y+2006599D01*
X-4470401Y+1909886D01*
G37*
G36*
X-3200401Y+1909886D02*
X-3200401Y+1773114D01*
X-3276601Y+1696914D01*
X-3276601Y+1424205D01*
X-3238501Y+1386105D01*
X-3238501Y+1280895D01*
X-3312895Y+1206501D01*
X-3418105Y+1206501D01*
X-3492499Y+1280895D01*
X-3492499Y+1386105D01*
X-3454399Y+1424205D01*
X-3454399Y+1696914D01*
X-3530599Y+1773114D01*
X-3530599Y+1909886D01*
X-3433886Y+2006599D01*
X-3297114Y+2006599D01*
X-3200401Y+1909886D01*
G37*
G36*
X+2737565Y-3111501D02*
X+2762250Y-3111502D01*
X+2804895Y-3111501D01*
X+2868395Y-3048001D01*
X+2973605Y-3048001D01*
X+3047999Y-3122395D01*
X+3047999Y-3227605D01*
X+2973605Y-3301999D01*
X+2868395Y-3301999D01*
X+2804895Y-3238499D01*
X+2762250Y-3238498D01*
X+2737565Y-3238499D01*
X+2674064Y-3302000D01*
X+2737565Y-3365501D01*
X+2762250Y-3365502D01*
X+2804895Y-3365501D01*
X+2868395Y-3302001D01*
X+2973605Y-3302001D01*
X+3047999Y-3376395D01*
X+3047999Y-3481605D01*
X+2973605Y-3555999D01*
X+2868395Y-3555999D01*
X+2804895Y-3492499D01*
X+2762250Y-3492498D01*
X+2737565Y-3492499D01*
X+2674064Y-3556000D01*
X+2737565Y-3619501D01*
X+2762250Y-3619502D01*
X+2804895Y-3619501D01*
X+2868395Y-3556001D01*
X+2973605Y-3556001D01*
X+3047999Y-3630395D01*
X+3047999Y-3735605D01*
X+2973605Y-3809999D01*
X+2868395Y-3809999D01*
X+2804895Y-3746499D01*
X+2762250Y-3746498D01*
X+2737565Y-3746499D01*
X+2661365Y-3822699D01*
X+2545635Y-3822699D01*
X+2463801Y-3740865D01*
X+2463801Y-3625135D01*
X+2532936Y-3556000D01*
X+2463801Y-3486865D01*
X+2463801Y-3371135D01*
X+2532936Y-3302000D01*
X+2463801Y-3232865D01*
X+2463801Y-3117135D01*
X+2545635Y-3035301D01*
X+2661365Y-3035301D01*
X+2737565Y-3111501D01*
G37*
G36*
X-4697731Y-2444749D02*
X-5208269Y-2444749D01*
X-5208269Y-2254251D01*
X-4697731Y-2254251D01*
X-4697731Y-2444749D01*
G37*
G36*
X-5111750Y-76651D02*
X-5111750Y-50349D01*
X-5093151Y-31750D01*
X-5066849Y-31750D01*
X-5048250Y-50349D01*
X-5048250Y-76651D01*
X-5066849Y-95250D01*
X-5093151Y-95250D01*
X-5111750Y-76651D01*
G37*
G36*
X+6438900Y+1651403D02*
X+6438900Y+1682967D01*
X+6461218Y+1705285D01*
X+6492782Y+1705285D01*
X+6515100Y+1682967D01*
X+6515100Y+1651403D01*
X+6492782Y+1629085D01*
X+6461218Y+1629085D01*
X+6438900Y+1651403D01*
G37*
G36*
X+4425851Y+1574349D02*
X+4425851Y+1600651D01*
X+4444450Y+1619250D01*
X+4470752Y+1619250D01*
X+4489351Y+1600651D01*
X+4489351Y+1574349D01*
X+4470752Y+1555750D01*
X+4444450Y+1555750D01*
X+4425851Y+1574349D01*
G37*
G36*
X-3333750Y-76651D02*
X-3333750Y-50349D01*
X-3315151Y-31750D01*
X-3288849Y-31750D01*
X-3270250Y-50349D01*
X-3270250Y-76651D01*
X-3288849Y-95250D01*
X-3315151Y-95250D01*
X-3333750Y-76651D01*
G37*
G36*
X-3524250Y-1918151D02*
X-3524250Y-1891849D01*
X-3505651Y-1873250D01*
X-3479349Y-1873250D01*
X-3460750Y-1891849D01*
X-3460750Y-1918151D01*
X-3479349Y-1936750D01*
X-3505651Y-1936750D01*
X-3524250Y-1918151D01*
G37*
G36*
X-3270250Y-1918151D02*
X-3270250Y-1891849D01*
X-3251651Y-1873250D01*
X-3225349Y-1873250D01*
X-3206750Y-1891849D01*
X-3206750Y-1918151D01*
X-3225349Y-1936750D01*
X-3251651Y-1936750D01*
X-3270250Y-1918151D01*
G37*
%LPD*%
G36*
X+4699001Y-946151D02*
X+4684749Y-946151D01*
X+4684749Y-730249D01*
X+4699001Y-730249D01*
X+4699001Y-946151D01*
G37*
G36*
X+2463801Y-946151D02*
X+2462249Y-946151D01*
X+2462249Y-702749D01*
X+2463801Y-702749D01*
X+2463801Y-946151D01*
G37*
G36*
X+177801Y-946151D02*
X+176249Y-946151D01*
X+176249Y-730249D01*
X+177802Y-730249D01*
X+177801Y-946151D01*
G37*
G36*
X-2108199Y-946151D02*
X-2127251Y-946151D01*
X-2127251Y-730249D01*
X-2108199Y-730249D01*
X-2108199Y-946151D01*
G37*
G36*
X+7162801Y-946151D02*
X+7143749Y-946151D01*
X+7143749Y-730249D01*
X+7162801Y-730249D01*
X+7162801Y-946151D01*
G37*
D10*
X-3914140Y-571500D02*
X-3914140Y-317500D01*
X-4572000Y-63500D02*
X-4572000Y-2774D01*
X-4456323Y+112903D01*
X-3951097Y+112903D01*
X-3937000Y+127000D01*
X-3937000Y+416560D01*
X-3914140Y+439420D01*
D11*
X-3983000Y+698500D02*
X-4318000Y+698500D01*
X-4471890Y+544610D01*
X-4572000Y+426500D01*
D10*
X-2667000Y-1149350D02*
X-2667000Y-768350D01*
X-2967000Y-768350D02*
X-2967000Y-1139350D01*
X-2921000Y-2413000D02*
X-2921000Y-2108200D01*
X-2349500Y-2159000D02*
X-2276098Y-2159000D01*
X-1551500Y-2159000D02*
X-1551500Y-1915000D01*
X-1541500Y-1905000D01*
X-2222500Y-825500D02*
X-2349500Y-825500D01*
X-2349500Y-1143000D01*
X-2059500Y-2159000D02*
X-2059500Y-1915000D01*
X-2049500Y-1905000D01*
X-2276098Y-2159000D02*
X-2205301Y-2088203D01*
X-2205301Y-1739171D01*
X-2135807Y-1669677D01*
X-2068177Y-1669677D01*
X-2049500Y-1651000D01*
X-2349500Y-1651000D02*
X-2349500Y-1905000D01*
X-2540000Y-2108200D02*
X-2540000Y-2413000D01*
X-2621000Y-2413000D01*
X-2349500Y-1651000D02*
X-2349500Y-1333500D01*
X-2540000Y-2108200D02*
X-2540000Y-1841500D01*
X-2406650Y-1841500D01*
X-2349500Y-1905000D01*
X-2059500Y-2159000D02*
X-1841500Y-2159000D01*
D12*
X-1460500Y+889000D02*
X-1460500Y+610000D01*
D10*
X-2378000Y+190500D02*
X-2441500Y+127000D01*
X-2667000Y+127000D01*
X-1587500Y-635000D02*
X-1841500Y-635000D01*
X-2794000Y-2108200D02*
X-2794000Y-2611207D01*
X-2794000Y-2611208D01*
X-2821896Y-2639104D01*
X-2893500Y-2667000D02*
X-2849793Y-2667000D01*
X-2821896Y-2639104D01*
X-2794000Y-2611208D01*
X-2794000Y-2611207D01*
D12*
X-2095500Y+1841500D02*
X-2095500Y+1339000D01*
X-1778000Y+1339000D01*
X-1500500Y+1339000D01*
X-1460500Y+1379000D01*
D10*
X-2349500Y-825500D02*
X-2445146Y-825500D01*
X-2503273Y-767373D01*
X-2503273Y-488773D01*
X-2349500Y-335000D01*
X-2095500Y-635000D02*
X-1841500Y-381000D01*
X-1841500Y-335000D01*
X-889000Y-254000D02*
X-698500Y-254000D01*
X-406400Y+127000D02*
X-342900Y+190500D01*
X-92000Y+190500D01*
D12*
X+508000Y+190500D02*
X+508000Y+508000D01*
X+571500Y+571500D01*
X+610000Y+610000D01*
X+825500Y+610000D01*
X+825500Y+907000D01*
D10*
X-398500Y-762000D02*
X-408500Y-772000D01*
X-408500Y-1143000D01*
X-698500Y-762000D02*
X-698500Y-1143000D01*
X+254000Y-635000D02*
X+508000Y-381000D01*
X+508000Y-345000D01*
X+0Y-645000D02*
X+254000Y-391000D01*
X+254000Y-345000D01*
D12*
X+825500Y+1397000D02*
X+444500Y+1397000D01*
X+127000Y+1397000D01*
D10*
X+508000Y-645000D02*
X+752000Y-645000D01*
X+762000Y-635000D01*
X-571500Y-2108200D02*
X-571500Y-2567500D01*
X-671000Y-2667000D01*
X+226500Y-2159000D02*
X+226500Y-1915000D01*
X+236500Y-1905000D01*
X-63500Y-1651000D02*
X-63500Y-1905000D01*
X-317500Y-2108200D02*
X-317500Y-1845210D01*
X-79168Y-1845210D01*
X-67673Y-1856705D01*
X-63500Y-1905000D01*
X+81000Y-825500D02*
X-63500Y-825500D01*
X-177574Y-762000D02*
X-114074Y-825500D01*
X+0Y-345000D02*
X-177574Y-522574D01*
X-177574Y-645173D01*
X-177574Y-762000D01*
X-63500Y-1143000D02*
X-63500Y-853822D01*
X-63500Y-825500D01*
X-114074Y-825500D01*
X+444500Y-2159000D02*
X+226500Y-2159000D01*
X+734500Y-2159000D02*
X+734500Y-1915000D01*
X+744500Y-1905000D01*
X+744500Y-1661000D01*
X+734500Y-1651000D01*
X+444500Y-1651000D02*
X+444500Y-1905000D01*
D12*
X+127000Y+1841500D02*
X+127000Y+1397000D01*
X-2095500Y+1841500D02*
X-2095500Y+2159000D01*
D10*
X-2878079Y+871451D02*
X-2895600Y+817880D01*
X-2878079Y+871451D02*
X-2878079Y+835401D01*
X-2895600Y+817880D01*
X-3362960Y-1587500D02*
X-3362960Y-2065020D01*
X-3141980Y-2286000D01*
X-3111500Y-2286000D01*
X-317500Y-1845210D02*
X-1003101Y-1845210D01*
X-1044386Y-1803925D01*
X-1044386Y-1679386D01*
X-952500Y-1587500D01*
X-1140460Y-1587500D02*
X-1140460Y-2062040D01*
X-889000Y-2313500D01*
D12*
X-2095500Y+889000D02*
X-2349500Y+635000D01*
X-2349500Y+219000D01*
X-2378000Y+190500D01*
X-92000Y+190500D02*
X-63500Y+219000D01*
X-63500Y+756500D01*
X+127000Y+947000D01*
D13*
X+127000Y+2159000D02*
X+44686Y+2159000D01*
D12*
X+127000Y+1841500D02*
X+127000Y+2159000D01*
D10*
X+1397000Y-254000D02*
X+1587500Y-254000D01*
X+1887500Y-762000D02*
X+1887500Y-793977D01*
X+1892195Y-798672D01*
X+1887500Y-762000D01*
X+1887500Y-793977D02*
X+1887500Y-1133000D01*
X+1587500Y-762000D02*
X+1587500Y-1143000D01*
X+1968500Y-2413000D02*
X+1887500Y-2413000D01*
X+3048000Y-607500D02*
X+2758000Y-317500D01*
X+2794000Y-317500D01*
X+2527300Y-1016000D02*
X+2527300Y-607500D01*
X+2476500Y-607500D01*
X+2527300Y-607500D02*
X+2754826Y-607500D01*
X+2760115Y-612789D01*
X+2794000Y-617500D01*
X+2794000Y+190500D02*
X+2794000Y+196074D01*
X+2788426Y+196074D02*
X+2794000Y+190500D01*
X+2788426Y+196074D02*
X+2794000Y+196074D01*
D12*
X+1879600Y+127000D02*
X+1943100Y+190500D01*
X+2159000Y+190500D01*
X+2194000Y+190500D01*
X+2194000Y+721591D01*
X+2313999Y+841590D01*
X+2384500Y+947000D01*
X+2413000Y+947000D01*
D10*
X+3111500Y+610000D02*
X+3175000Y+610000D01*
D12*
X+2794000Y+196074D02*
X+2794000Y+511500D01*
X+2892500Y+610000D01*
X+2984500Y+610000D02*
X+3111500Y+610000D01*
X+2892500Y+610000D02*
X+2984500Y+610000D01*
X+3111500Y+889000D02*
X+3111500Y+610000D01*
D10*
X+2222500Y-617500D02*
X+2476500Y-363500D01*
X+2476500Y-317500D01*
D12*
X+3111500Y+1379000D02*
X+2667000Y+1379000D01*
X+2413000Y+1379000D01*
X+2413000Y+1397000D01*
D10*
X+2367000Y-825500D02*
X+2367000Y-1125500D01*
X+2349500Y-1143000D01*
X+2527300Y-1143000D02*
X+2349500Y-1143000D01*
X+3048000Y-1016000D02*
X+3048000Y-607500D01*
X+1333500Y-2286000D02*
X+1333500Y-2159000D01*
X+1145540Y-1971040D01*
X+1145540Y-1587500D01*
X+2240000Y-1905000D02*
X+2240000Y-1651000D01*
X+2349500Y-1143000D02*
X+2222500Y-1143000D01*
X+2050031Y-970531D01*
X+2050031Y-460180D01*
X+2192711Y-317500D01*
X+2222500Y-317500D01*
X+2250000Y-2159000D02*
X+2311085Y-2159000D01*
X+2402111Y-2067974D01*
X+2402111Y-1688195D01*
X+2436954Y-1653352D01*
X+2537648Y-1653352D01*
X+2540000Y-1651000D01*
X+2540000Y-1905000D02*
X+2540000Y-2159000D01*
X+1968500Y-2108200D02*
X+1968500Y-2413000D01*
X+1587500Y-2667000D02*
X+1667202Y-2667000D01*
X+1716591Y-2617611D01*
X+1716591Y-2110291D01*
X+1714500Y-2108200D01*
X+1587500Y-2108200D02*
X+1587500Y-2413000D01*
X-317500Y-2108200D02*
X-317500Y-2413000D01*
X-63500Y-2159000D02*
X+25540Y-2159000D01*
X+39651Y-2144889D01*
X+91324Y-2093216D01*
X+236500Y-1651000D02*
X+155918Y-1651000D01*
X+91324Y-1715594D01*
X+91324Y-1797080D01*
X+91324Y-2093216D01*
X-3111500Y-1968500D02*
X-2952545Y-1968500D01*
X-2919775Y-2001270D01*
X-2921000Y-2002495D01*
X-2921000Y-2108200D01*
X-889000Y-1968500D02*
X-721416Y-1968500D01*
X-692669Y-1997247D01*
X-692669Y-2102369D01*
X-698500Y-2108200D01*
X-698500Y-2395500D01*
X-681000Y-2413000D01*
X+3048000Y-317500D02*
X+3258098Y-317500D01*
X+3280049Y-295549D01*
X+762000Y-345000D02*
X+947978Y-345000D01*
X+952500Y-349522D01*
X-1551500Y-1714500D02*
X-1551500Y-1651000D01*
X-1841500Y-1651000D02*
X-1841500Y-1905000D01*
X+3873500Y-254000D02*
X+3683000Y-254000D01*
X+4173500Y-762000D02*
X+4173500Y-1133000D01*
X+4163500Y-1143000D01*
X+3873500Y-762000D02*
X+3873500Y-1143000D01*
X+3683000Y-1733550D02*
X+3820319Y-1733550D01*
X+3864769Y-1689100D01*
X+3873500Y-1587500D01*
X+3683000Y-1968500D02*
X+3836407Y-1968500D01*
X+3874507Y-2006600D01*
X+3873500Y-2108200D01*
X+3873500Y-2413000D02*
X+3873500Y-2108200D01*
X+4173500Y-2413000D02*
X+4254500Y-2332000D01*
X+4254500Y-2108200D01*
X+3619500Y-2286000D02*
X+3619500Y-2159000D01*
X+3431540Y-1971040D01*
X+3431540Y-1587500D01*
X+3873500Y-2667000D02*
X+3937000Y-2667000D01*
X+4000500Y-2603500D01*
X+4000500Y-2108200D01*
X+4508500Y-635000D02*
X+4508500Y-599000D01*
X+4762500Y-345000D01*
X+4762500Y-635000D02*
X+5016500Y-381000D01*
X+5016500Y-335000D01*
X+5016500Y-635000D02*
X+5270500Y-635000D01*
D12*
X+4762500Y+947000D02*
X+4734000Y+947000D01*
X+4480000Y+693000D01*
X+4480000Y+190500D01*
X+4165600Y+134620D02*
X+4424120Y+134620D01*
X+4480000Y+190500D01*
D10*
X+5397500Y+610000D02*
X+5397500Y+635000D01*
D12*
X+5397500Y+889000D01*
X+5461000Y+889000D01*
D10*
X+5397500Y+635000D02*
X+5461000Y+635000D01*
D12*
X+5461000Y+1379000D02*
X+5117814Y+1379000D01*
X+4780500Y+1379000D01*
X+4762500Y+1397000D01*
X+5080000Y+190500D02*
X+5080000Y+516623D01*
X+5162315Y+598938D01*
X+5386438Y+598938D01*
X+5397500Y+610000D01*
D10*
X+5270500Y-345000D02*
X+5459232Y-345000D01*
X+5461000Y-346768D01*
X+4980500Y-2159000D02*
X+4798500Y-2159000D01*
X+4798500Y-1915000D01*
X+4808500Y-1905000D01*
X+5270500Y-1905000D02*
X+5270500Y-2159000D01*
X+5270500Y-1905000D02*
X+5270500Y-1651000D01*
X+4970500Y-1905000D02*
X+4970500Y-1661000D01*
X+4980500Y-1651000D01*
X+4808500Y-1651000D02*
X+4729314Y-1651000D01*
X+4670517Y-1709797D01*
X+4670517Y-2104384D01*
X+4662677Y-2112224D01*
X+4589508Y-2185393D01*
X+4565650Y-2185393D01*
X+4508500Y-2159000D01*
X+4508500Y-1905000D02*
X+4508500Y-1651000D01*
X+4254500Y-1841500D02*
X+4451350Y-1841500D01*
X+4508500Y-1905000D01*
X+3619500Y-1587500D02*
X+3530378Y-1676622D01*
X+3530378Y-1815878D01*
X+3556000Y-1841500D01*
X+4254500Y-1841500D01*
X+4254500Y-2108200D01*
X+4594735Y-1143000D02*
X+4508500Y-1143000D01*
X+4318000Y-762000D02*
X+4318000Y-525500D01*
X+4508500Y-335000D01*
X+4508500Y-1143000D02*
X+4508500Y-825500D01*
X+4589500Y-825500D02*
X+4508500Y-825500D01*
X+4381500Y-825500D01*
X+4318000Y-762000D01*
X+6032500Y-1733550D02*
X+6193557Y-1733550D01*
X+6225834Y-1701273D01*
X+6225834Y-1590334D01*
X+6223000Y-1587500D01*
X+6032500Y-1968500D02*
X+6181893Y-1968500D01*
X+6219993Y-2006600D01*
X+6223000Y-2108200D01*
X+6223000Y-762000D02*
X+6223000Y-1143000D01*
X+6513000Y-1143000D02*
X+6513000Y-772000D01*
X+6523000Y-762000D01*
X+6523000Y-339902D01*
X+6474286Y-291188D01*
X+6477000Y-254000D01*
X+5969000Y-2286000D02*
X+5781040Y-2098040D01*
X+5781040Y-1587500D01*
X+5461000Y-346768D02*
X+5575344Y-346768D01*
X+5588000Y-359424D01*
X+6223000Y-2413000D02*
X+6223000Y-2108200D01*
X+6350000Y-2108200D02*
X+6350000Y-2603500D01*
X+6286500Y-2667000D01*
X+6223000Y-2667000D01*
X+6523000Y-2413000D02*
X+6604000Y-2332000D01*
X+6604000Y-2108200D01*
D12*
X+7810500Y+635000D02*
X+7810500Y+907000D01*
X+2413000Y+1397000D02*
X+2413000Y+1778000D01*
X+2413000Y+1841500D01*
X+2413000Y+2095500D01*
X+2413000Y+2159000D01*
X+4762500Y+1397000D02*
X+4762500Y+1778000D01*
X+4762500Y+1841500D01*
X+4762500Y+2159000D02*
X+4762500Y+1841500D01*
X+6489700Y+127000D02*
X+6553200Y+190500D01*
X+6794500Y+190500D01*
X+6829500Y+190500D01*
X+7048500Y+947000D02*
X+7083500Y+947000D01*
X+6829500Y+693000D01*
X+6829500Y+190500D01*
X+7429500Y+190500D02*
X+7429500Y+473000D01*
X+7591500Y+635000D01*
X+7771739Y+635000D01*
X+7775313Y+631426D01*
X+7810500Y+635000D01*
X+7810500Y+1397000D02*
X+7411997Y+1397000D01*
D10*
X+7048500Y-825500D02*
X+6921500Y-825500D01*
X+6921500Y-635000D02*
X+7175500Y-381000D01*
X+7175500Y-345000D01*
X+7175500Y-635000D02*
X+7429500Y-381000D01*
X+7429500Y-335000D01*
X+7429500Y-635000D02*
X+7683500Y-635000D01*
X+7393500Y-1905000D02*
X+7393500Y-1661000D01*
X+7383500Y-1651000D01*
X+7148000Y-2159000D02*
X+7393500Y-2159000D01*
X+7683500Y-1905000D02*
X+7683500Y-1937728D01*
X+7683500Y-2159000D01*
X+7683500Y-1937728D02*
X+7679972Y-1941256D01*
X+7683500Y-1905000D01*
X+6858000Y-2159000D02*
X+6930123Y-2159000D01*
X+7001855Y-2087268D01*
X+7001855Y-1722732D01*
X+7048892Y-1675695D01*
X+7073587Y-1651000D01*
X+7175500Y-1651000D01*
X+7158000Y-1905000D02*
X+7158000Y-2149000D01*
X+7148000Y-2159000D01*
X+6858000Y-1905000D02*
X+6858000Y-1668500D01*
X+6875500Y-1651000D01*
X+6921500Y-335000D02*
X+6742680Y-335000D01*
X+6742250Y-334570D01*
X+6742250Y-773250D01*
X+6794500Y-825500D01*
X+6874463Y-825500D01*
X+6921500Y-825500D01*
X+6875500Y-1143000D02*
X+6875500Y-826537D01*
X+6874463Y-825500D01*
X+6540500Y-1841500D02*
X+5937904Y-1841500D01*
X+5886927Y-1790523D01*
X+5886927Y-1669573D01*
X+5969000Y-1587500D01*
X+6604000Y-2108200D02*
X+6604000Y-1841500D01*
X+6540500Y-1841500D02*
X+6604000Y-1841500D01*
X+6800850Y-1841500D01*
X+6858000Y-1905000D01*
X+1905000Y-1841500D02*
X+1968500Y-1841500D01*
X+2182850Y-1841500D01*
X+2240000Y-1905000D01*
X+1968500Y-2108200D02*
X+1968500Y-1841500D01*
X+1905000Y-1841500D02*
X+1272709Y-1841500D01*
X+1249128Y-1817919D01*
X+1249128Y-1671872D01*
X+1333500Y-1587500D01*
X+7359092Y-836092D02*
X+7357250Y-834250D01*
X+7348500Y-825500D01*
X+7357250Y-834250D01*
X+7359092Y-836092D01*
X-381000Y-2413000D02*
X-317500Y-2413000D01*
X-2667000Y-1587500D02*
X-2667000Y-1149350D01*
X-2794000Y-1587500D02*
X-2794000Y-1378315D01*
X-2816075Y-1356240D01*
X-2816075Y-597507D01*
X-2865930Y-547652D01*
X-3171348Y-547652D01*
X-3175000Y-544000D01*
X-2921000Y-1587500D02*
X-2921000Y-1524000D01*
X-2921000Y-1185350D01*
X-2957000Y-1149350D01*
X-2967000Y-1139350D01*
X-1524000Y-1143000D02*
X-1524000Y-1270000D01*
X-2044700Y-1270000D02*
X-2044700Y-1143000D01*
X-2349500Y-1333500D02*
X-2349500Y-1143000D01*
X-444500Y-1587500D02*
X-444500Y-1179000D01*
X-408500Y-1143000D01*
X+241300Y-1143000D02*
X+241300Y-1270000D01*
X+762000Y-1143000D02*
X+762000Y-1270000D01*
X-63500Y-1651000D02*
X-63500Y-1143000D01*
X-3268980Y-1397000D02*
X-3268980Y-607500D01*
X-3205480Y-544000D01*
X-3175000Y-544000D01*
X-1046480Y-1397000D02*
X-1046480Y-701480D01*
X-889000Y-544000D01*
X-698500Y-1524000D02*
X-698500Y-1587500D01*
X-571500Y-1587500D02*
X-571500Y-1354454D01*
X-555781Y-1338735D01*
X-555781Y-610825D01*
X-622606Y-544000D01*
X-889000Y-544000D01*
X+1841500Y-1587500D02*
X+1841500Y-1179000D01*
X+1877500Y-1143000D01*
X+1887500Y-1133000D01*
X+1714500Y-1587500D02*
X+1714500Y-1366729D01*
X+1728468Y-1352761D01*
X+1728468Y-625361D01*
X+1640679Y-537572D01*
X+1403428Y-537572D01*
X+1397000Y-544000D01*
X+1587500Y-1143000D02*
X+1587500Y-1524000D01*
X+1587500Y-1587500D01*
X+1239520Y-1397000D02*
X+1239520Y-701480D01*
X+1397000Y-544000D01*
X+3048000Y-1270000D02*
X+3048000Y-1143000D01*
X+2527300Y-1143000D02*
X+2527300Y-1270000D01*
X+2240000Y-1651000D02*
X+2240000Y-1160500D01*
X+2222500Y-1143000D01*
X+4127500Y-1587500D02*
X+4127500Y-1179000D01*
X+4163500Y-1143000D01*
X+4000500Y-1587500D02*
X+4000500Y-1377770D01*
X+4022517Y-1355753D01*
X+4022517Y-657142D01*
X+3907259Y-541884D01*
X+3685116Y-541884D01*
X+3683000Y-544000D01*
X+3873500Y-1143000D02*
X+3873500Y-1524000D01*
X+3873500Y-1587500D01*
X+3525520Y-1397000D02*
X+3525520Y-701480D01*
X+3683000Y-544000D01*
X+4813300Y-1143000D02*
X+4813300Y-1270000D01*
X+5334000Y-1143000D02*
X+5334000Y-1270000D01*
X+4508500Y-1651000D02*
X+4508500Y-1143000D01*
X+5875020Y-1397000D02*
X+5875020Y-637980D01*
X+5969000Y-544000D01*
X+6223000Y-1143000D02*
X+6223000Y-1587500D01*
X+6477000Y-1587500D02*
X+6477000Y-1132428D01*
X+6493282Y-1116146D01*
X+6513000Y-1143000D01*
X+6350000Y-1587500D02*
X+6350000Y-1383430D01*
X+6372038Y-1361392D01*
X+6372038Y-627189D01*
X+6290841Y-545992D01*
X+5970992Y-545992D01*
X+5969000Y-544000D01*
X+7747000Y-1143000D02*
X+7747000Y-1270000D01*
X+6875500Y-1651000D02*
X+6875500Y-1143000D01*
X+7226300Y-1270000D02*
X+7226300Y-1143000D01*
X-889000Y-1733550D02*
X-717550Y-1733550D01*
X-698500Y-1714500D01*
X-698500Y-1587500D01*
X-3111500Y-1733550D02*
X-2940050Y-1733550D01*
X-2921000Y-1714500D01*
X-2921000Y-1587500D01*
X+1397000Y-1733550D02*
X+1568450Y-1733550D01*
X+1587500Y-1714500D01*
X+1587500Y-1587500D01*
X+2527300Y-1270000D02*
X+2667000Y-1270000D01*
X+2730500Y-1333500D01*
X+2730500Y-1651000D01*
X+2748000Y-1668500D01*
X+2730500Y-1651000D01*
X-2044700Y-1016000D02*
X-2044700Y-635000D01*
X-2095500Y-635000D01*
X-1524000Y-1016000D02*
X-1524000Y-647700D01*
X-1536700Y-635000D01*
X-1587500Y-635000D01*
X-2044700Y-1143000D02*
X-2349500Y-1143000D01*
X-1551500Y-1651000D02*
X-1551500Y-1618171D01*
X-1541500Y-1608171D01*
X-1541500Y-1905000D02*
X-1541500Y-1608171D01*
X-1541500Y-1414500D01*
X-1524000Y-1397000D01*
X-1922500Y-825500D02*
X-1841500Y-825500D01*
X-1778000Y-889000D01*
X-1778000Y-1079500D01*
X-1714500Y-1143000D01*
X-1524000Y-1143000D01*
X-1968500Y-1270000D02*
X-1905000Y-1270000D01*
X-1841500Y-1333500D01*
X-2044700Y-1270000D02*
X-1968500Y-1270000D01*
X-1841500Y-1333500D02*
X-1841500Y-1651000D01*
X+241300Y-1016000D02*
X+241300Y-698500D01*
X+304800Y-635000D01*
X+254000Y-635000D01*
X+762000Y-1016000D02*
X+762000Y-685800D01*
X+802800Y-645000D01*
X+752000Y-645000D01*
X-63500Y-1143000D02*
X+241300Y-1143000D01*
X+444500Y-1651000D02*
X+444500Y-1333500D01*
X+381000Y-1270000D01*
X+241300Y-1270000D01*
X+381000Y-825500D02*
X+508000Y-825500D01*
X+571500Y-889000D01*
X+571500Y-1079500D01*
X+635000Y-1143000D01*
X+762000Y-1143000D01*
X+734500Y-1651000D02*
X+734500Y-1424500D01*
X+762000Y-1397000D01*
X+3048000Y-1678500D02*
X+3048000Y-1397000D01*
X+3048000Y-1678500D02*
X+3020500Y-1651000D01*
X+2730500Y-1905000D02*
X+2730500Y-1668500D01*
X+2748000Y-1668500D01*
X+3030500Y-1905000D02*
X+3030500Y-1678500D01*
X+3048000Y-1678500D01*
X+2540000Y-2159000D02*
X+2730500Y-2159000D01*
X+3020500Y-2159000D02*
X+3003000Y-2159000D01*
X+3003000Y-1905000D01*
X+3030500Y-1905000D01*
X+2667000Y-825500D02*
X+2794000Y-825500D01*
X+2857500Y-889000D01*
X+2857500Y-1079500D01*
X+5270500Y-635000D02*
X+5334000Y-635000D01*
X+5334000Y-1016000D01*
X+4813300Y-1143000D02*
X+4594735Y-1143000D01*
X+4762500Y-635000D02*
X+4762500Y-965200D01*
X+4813300Y-1016000D01*
X+4813300Y-1270000D02*
X+4964137Y-1270000D01*
X+5018788Y-1324651D01*
X+5018788Y-1612712D01*
X+4980500Y-1651000D01*
X+5143500Y-1143000D02*
X+5334000Y-1143000D01*
X+5270500Y-1651000D02*
X+5270500Y-1460500D01*
X+5334000Y-1397000D01*
X+7175500Y-635000D02*
X+7226300Y-635000D01*
X+7226300Y-1016000D01*
X+7683500Y-635000D02*
X+7734300Y-635000D01*
X+7734300Y-1003300D01*
X+7747000Y-1016000D01*
X+7226300Y-1143000D02*
X+6875500Y-1143000D01*
X+7226300Y-1270000D02*
X+7365104Y-1270000D01*
X+7427365Y-1332261D01*
X+7427365Y-1644065D01*
X+7434300Y-1651000D01*
X+7383500Y-1651000D01*
X+7683500Y-1714500D02*
X+7683500Y-1651000D01*
X+7683500Y-1460500D01*
X+7747000Y-1397000D01*
X+7683500Y-1714500D02*
X+7683500Y-1937728D01*
X+7556500Y-1143000D02*
X+7747000Y-1143000D01*
X-3914140Y-317500D02*
X-3914140Y-190500D01*
X-3914140Y+75946D01*
X-3951097Y+112903D01*
D14*
X-2667000Y-254000D02*
X-2667000Y-127000D01*
X-2667000Y+127000D01*
D10*
X-2667000Y-641350D02*
X-2667000Y-254000D01*
X-863600Y+127000D02*
X-863600Y-228600D01*
X-889000Y-254000D01*
X-408500Y-254000D02*
X-408500Y-127000D01*
X-408500Y+124900D01*
X-406400Y+127000D01*
X+254000Y-345000D02*
X+508000Y-91000D01*
X+508000Y+190500D01*
X+0Y-345000D02*
X+190500Y-154500D01*
X+190500Y+508000D01*
X+444500Y+762000D01*
X+444500Y+1397000D01*
X+1422400Y+127000D02*
X+1422400Y-228600D01*
X+1397000Y-254000D01*
X+1879600Y+127000D02*
X+1879600Y-251900D01*
X+1877500Y-254000D01*
X+1877500Y-127000D02*
X+1877500Y-254000D01*
X+2222500Y-317500D02*
X+2389742Y-150258D01*
X+2389742Y+85712D01*
X+2389742Y+341802D01*
X+2666738Y+618798D01*
X+2666738Y+1378738D01*
X+2667000Y+1379000D01*
X+3708400Y+134620D02*
X+3708400Y-228600D01*
X+3683000Y-254000D01*
X+4165600Y+134620D02*
X+4165600Y-251900D01*
X+4163500Y-254000D01*
X+4163500Y-127000D02*
X+4163500Y-254000D01*
X+4762500Y-345000D02*
X+4762500Y-254000D01*
X+5080000Y+63500D01*
X+5080000Y+190500D01*
X+4508500Y-335000D02*
X+4746804Y-96696D01*
X+4746804Y+142438D01*
X+4746804Y+500477D01*
X+4920633Y+674306D01*
X+5117814Y+871487D01*
X+5117814Y+1379000D01*
X+2476500Y-317500D02*
X+2794000Y+0D01*
X+2794000Y+190500D01*
X+6477000Y-254000D02*
X+6477000Y+114300D01*
X+6489700Y+127000D01*
X+6921500Y-335000D02*
X+7151255Y-105245D01*
X+7151255Y+285159D01*
X+7151255Y+597564D01*
X+7386045Y+832354D01*
X+7413211Y+859520D01*
X+7413211Y+1395786D01*
X+7411997Y+1397000D01*
X+7175500Y-345000D02*
X+7429500Y-91000D01*
X+7429500Y+190500D01*
X+7959989Y-348074D02*
X+7959989Y-221074D01*
X+7959989Y-164230D01*
X+7810500Y-102000D01*
X+7810500Y+25000D01*
X-2349500Y-635000D02*
X-2095500Y-381000D01*
X-2095500Y-345000D01*
X-2095500Y-254000D01*
X-2032000Y-190500D01*
X-1841500Y-190500D01*
X-1778000Y-127000D01*
X-1778000Y-74930D01*
X-1778000Y+174625D01*
X-1778000Y+190500D01*
D12*
X-1460500Y+610000D02*
X-1676000Y+610000D01*
X-1778000Y+508000D01*
X-1778000Y+190500D01*
D10*
X-1587500Y-345000D02*
X-1337589Y-345000D01*
X-1333500Y-349089D01*
X-1333500Y-62230D01*
X-1460500Y+0D01*
X-2349500Y-335000D02*
X-2349500Y-254000D01*
X-2286000Y-190500D01*
X-2034797Y+60703D01*
X-2034797Y+505203D01*
X-1778000Y+762000D01*
X-1778000Y+1339000D01*
X-3124200Y+127000D02*
X-3124200Y-250178D01*
X-3120378Y-254000D01*
X-3175000Y-254000D01*
X-3120378Y-254000D02*
X-2957000Y-254000D01*
X-2667000Y-641350D02*
X-2667000Y-768350D01*
X-4214140Y-571500D02*
X-4214140Y-259360D01*
X-4145280Y-190500D01*
X-398500Y-762000D02*
X-398500Y-264000D01*
X-408500Y-254000D01*
D12*
X+952500Y+0D02*
X+825500Y+0D01*
D10*
X+952500Y+0D02*
X+952500Y-349522D01*
X+1887500Y-762000D02*
X+1887500Y-264000D01*
X+1877500Y-254000D01*
D12*
X+3302000Y+0D02*
X+3111500Y+0D01*
D10*
X+3280049Y-295549D02*
X+3280049Y-21951D01*
X+3302000Y+0D01*
X+4173500Y-762000D02*
X+4173500Y-264000D01*
X+4163500Y-254000D01*
D12*
X+5397500Y+0D02*
X+5588000Y+0D01*
D10*
X+5588000Y-359424D02*
X+5588000Y+0D01*
D12*
X+5715000Y+127000D01*
X+5715000Y+1714500D01*
X+5588000Y+1841500D01*
X+5207000Y+1841500D01*
D10*
X+6032500Y+127000D02*
X+6032500Y-246160D01*
X+6040340Y-254000D01*
X+5969000Y-254000D01*
X+6040340Y-254000D02*
X+6187000Y-254000D01*
X+7683500Y-345000D02*
X+7956915Y-345000D01*
X+7959989Y-348074D01*
D12*
X-1651000Y+1841500D02*
X-1282898Y+1841500D01*
X-1177368Y+1735970D01*
X-1177368Y+63500D01*
X-1270000Y+0D01*
X-1460500Y+0D01*
X+3302000Y+0D02*
X+3407833Y+63500D01*
X+3407833Y+1691765D01*
X+3258098Y+1841500D01*
X+2857500Y+1841500D01*
X+571500Y+1841500D02*
X+1030111Y+1841500D01*
X+1143000Y+1728611D01*
X+1143000Y+127000D01*
X+1016000Y+0D01*
X+952500Y+0D01*
X+7112000Y+1397000D02*
X+7048500Y+1397000D01*
X+7411997Y+1397000D02*
X+7112000Y+1397000D01*
D13*
X+44686Y+2159000D02*
X-762000Y+2159000D01*
X-2095500Y+2159000D01*
D12*
X+6223000Y+1841500D02*
X+6223000Y+2159000D01*
D13*
X+2413000Y+2159000D02*
X+1524000Y+2159000D01*
X+127000Y+2159000D01*
D12*
X+7112000Y+1841500D02*
X+7112000Y+1397000D01*
D15*
X-698500Y-1143000D02*
X-698500Y-1483150D01*
X-703844Y-1488494D01*
D10*
X-698500Y-1483150D02*
X-698500Y-1524000D01*
X-5016500Y-1950500D02*
X-4590000Y-1950500D01*
X-4572000Y-1968500D01*
X-4572000Y-2349500D01*
X-5016500Y-1460500D02*
X-4894580Y-1338580D01*
X-4340860Y-1338580D01*
X-4340860Y-1968500D02*
X-4340860Y-1338580D01*
X-4381500Y-1079500D02*
X-4340860Y-1120140D01*
X-4340860Y-1338580D01*
X-4681500Y-1079500D02*
X-4681500Y-585560D01*
X-4695560Y-571500D01*
D11*
X-4214140Y-571500D02*
X-4695560Y-571500D01*
D10*
X-4272000Y-2349500D02*
X-4191000Y-2349500D01*
X-4127500Y-2286000D01*
X-4109720Y-2268220D01*
X-4109720Y-1968500D01*
X+3048000Y-1143000D02*
X+2921000Y-1143000D01*
X+2857500Y-1143000D01*
X+2857500Y-1079500D02*
X+2857500Y-1143000D01*
X+5080000Y-1079500D02*
X+5143500Y-1143000D01*
X+4889500Y-825500D02*
X+5016500Y-825500D01*
X+5080000Y-889000D01*
X+5080000Y-1079500D01*
D13*
X-5733000Y+0D02*
X-5733000Y-889000D01*
X-5733000Y-1841500D01*
X-6223000Y-1841500D02*
X-6223000Y-889000D01*
X-6223000Y+0D01*
X-6223000Y+889000D01*
D10*
X-3111500Y-2576000D02*
X-3111500Y-2984500D01*
X-3048000Y-3048000D01*
X-2921000Y-3048000D01*
X-2603500Y-2667000D02*
X-2603500Y-3175000D01*
X-2730500Y-3302000D01*
X-2921000Y-3302000D01*
X-2276098Y-2159000D02*
X-2276098Y-2857500D01*
X-2571750Y-3524250D02*
X-2603500Y-3556000D01*
X-2921000Y-3556000D01*
X-889000Y-2603500D02*
X-889000Y-2921486D01*
X-863600Y-2946886D01*
X-762000Y-3048000D01*
X+1333500Y-2576000D02*
X+1333500Y-2921000D01*
X+1460500Y-3048000D01*
X+1587500Y-3048000D01*
X+1877500Y-2667000D02*
X+1877500Y-3216610D01*
X+1783748Y-3310362D01*
X+1595862Y-3310362D01*
X+1587500Y-3302000D01*
X+3937000Y-3302000D02*
X+4076353Y-3302000D01*
X+4156898Y-3221455D01*
X+4156898Y-2673602D01*
X+4163500Y-2667000D01*
D13*
X-5733000Y+825500D02*
X-5733000Y+889000D01*
X-5733000Y+825500D02*
X-5733000Y+0D01*
D12*
X+7747000Y+1841500D02*
X+7759899Y+1841500D01*
X+8128000Y+1473399D01*
X+8128000Y+105956D01*
X+8052486Y+30442D01*
X+7815942Y+30442D01*
X+7810500Y+25000D01*
D10*
X+6121400Y-3009900D02*
X+6223000Y-3048000D01*
X+6121400Y-3009900D02*
X+6159500Y-3048000D01*
X+6223000Y-3048000D01*
X+6223000Y-3302000D02*
X+6397624Y-3302000D01*
X+6462006Y-3237618D01*
X+6513000Y-3186624D01*
X+6513000Y-2812930D01*
X+6513000Y-2667000D01*
X+6413500Y-3556000D02*
X+6212613Y-3556000D01*
X+6189095Y-3532482D01*
X+6223000Y-3556000D01*
X+6858000Y-3556000D02*
X+7112000Y-3556000D01*
D13*
X-6223000Y-2476500D02*
X-6223000Y-1841500D01*
D10*
X-4381500Y-825500D02*
X-4381500Y-1079500D01*
X-3873500Y-1016000D02*
X-4318000Y-1016000D01*
X-4381500Y-1079500D01*
D12*
X-2921000Y+1841500D02*
X-2921000Y+1397000D01*
D10*
X-5733000Y-1841500D02*
X-5270500Y-1841500D01*
X-4681500Y-1079500D02*
X-5207000Y-1079500D01*
X-5270500Y-1143000D01*
X-5270500Y-1841500D01*
X-5270500Y-1865250D01*
X-5193577Y-1942173D01*
X-5185250Y-1950500D01*
X-5129530Y-1950500D01*
X-5016500Y-1950500D01*
D11*
X-4695560Y-571500D02*
X-4826000Y-441060D01*
X-4826000Y-254000D01*
X-4826000Y-63500D01*
X-4826000Y+172500D01*
X-4572000Y+426500D01*
D12*
X+7620000Y+1841500D02*
X+7747000Y+1841500D01*
D10*
X-2921000Y-2108200D02*
X-3098800Y-2108200D01*
X-3111500Y-2095500D01*
X-889000Y-2095500D02*
X-889000Y-1968500D01*
D15*
X+1587209Y-2107909D02*
X+1587500Y-2108200D01*
D10*
X+1397000Y-1968500D02*
X+1558160Y-1968500D01*
X+1587209Y-1997549D01*
X+1587209Y-2107909D01*
X+1460500Y-2095500D02*
X+1397000Y-2032000D01*
X+1397000Y-1968500D01*
X+3746500Y-2095500D02*
X+3683000Y-2032000D01*
X+3683000Y-1968500D01*
X+6032500Y-2095500D02*
X+6032500Y-1968500D01*
X-1714500Y-1143000D02*
X-1714500Y-4054222D01*
X+571500Y-1079500D02*
X+571500Y-4054222D01*
X+2879963Y-4054222D02*
X+571500Y-4054222D01*
X+7493000Y-1079500D02*
X+7552550Y-1139050D01*
X+7348500Y-825500D02*
X+7429500Y-825500D01*
X+7493000Y-889000D01*
X+7493000Y-1079500D01*
X+7552550Y-1139050D02*
X+7556500Y-1143000D01*
D13*
X-5733000Y+889000D02*
X-5733000Y+1591875D01*
X-5165875Y+2159000D01*
X-2095500Y+2159000D01*
D12*
X-4635500Y+1841500D02*
X-4635500Y+1333500D01*
X-3365500Y+1333500D02*
X-3365500Y+1841500D01*
X-2921000Y+843280D02*
X-2895600Y+817880D01*
X-2921000Y+1397000D02*
X-2921000Y+843280D01*
D10*
X-5080000Y-63500D02*
X-4826000Y-63500D01*
X-2540000Y-1841500D02*
X-3236132Y-1841500D01*
D13*
X+6223000Y+2159000D02*
X+6921500Y+2159000D01*
X+7112000Y+1968500D01*
X+7112000Y+1841500D01*
D12*
X+6477000Y+1667185D02*
X+6302685Y+1841500D01*
X+6223000Y+1841500D01*
D10*
X+2881936Y-2667000D02*
X+3405254Y-3190318D01*
X+3405254Y-4054222D01*
X+2857500Y-1143000D02*
X+2857500Y-1520214D01*
X+2881936Y-1544650D01*
X+2881936Y-2667000D01*
X+3405254Y-4054222D02*
X+2879963Y-4054222D01*
X+2921000Y-3175000D02*
X+2603500Y-3175000D01*
X+2921000Y-3429000D02*
X+2603500Y-3429000D01*
X+2921000Y-3683000D02*
X+2603500Y-3683000D01*
X+3746500Y+2095500D02*
X+4000500Y+2095500D01*
X+4254500Y+2095500D01*
D12*
X+4762500Y+2159000D02*
X+4762500Y+2540000D01*
D13*
X+5842000Y+2540000D01*
X+6223000Y+2159000D01*
D10*
X+4254500Y+1587500D02*
X+4254500Y+1841500D01*
X+4000500Y+1587500D02*
X+4000500Y+1841500D01*
X+3746500Y+1587500D02*
X+3746500Y+1841500D01*
X+4451308Y+1841500D02*
X+4762500Y+1841500D01*
X+4254500Y+2095500D02*
X+4377840Y+2095500D01*
X+4451308Y+2022032D01*
X+4451308Y+1841500D01*
X+4451308Y+1593808D01*
X+4445000Y+1587500D01*
X+4457601Y+1587500D01*
D13*
X+2413000Y+2159000D02*
X+2794000Y+2540000D01*
X+4762500Y+2540000D01*
D10*
X-5080000Y-2349500D02*
X-4826000Y-2349500D01*
X-4572000Y-2349500D01*
X-4826000Y-2649500D02*
X-4826000Y-2603500D01*
X-4572000Y-2603500D02*
X-4826000Y-2603500D01*
X-5044000Y-2603500D01*
X-5080000Y-2639500D01*
X-4572000Y-2603500D02*
X-4572000Y-3492500D01*
X-4508500Y-3556000D01*
X-4254500Y-3556000D01*
X-4254500Y-3302000D02*
X-4000500Y-3302000D01*
X-4254500Y-2844450D02*
X-4254500Y-3048000D01*
X-4282000Y-2603500D02*
X-4282000Y-2359500D01*
X-4272000Y-2349500D01*
X+4508500Y-2730500D02*
X+4508500Y-2857500D01*
X+4508500Y-3191272D01*
X+4256851Y-3442921D01*
X+4215694Y-3484078D01*
X+3937000Y-3556000D02*
X+4143772Y-3556000D01*
X+4215694Y-3484078D01*
X+4508500Y-2730500D02*
X+4508500Y-2159000D01*
X+2259998Y-2794000D02*
X+2259998Y-2873092D01*
X+2259998Y-3137502D01*
X+1968500Y-3429000D01*
X+1587500Y-3556000D02*
X+1841500Y-3556000D01*
X+1968500Y-3429000D01*
X+2259998Y-2794000D02*
X+2259998Y-2168998D01*
X+2250000Y-2159000D01*
X-444500Y-3492500D02*
X-381000Y-3429000D01*
X-63500Y-3111500D01*
X-63500Y-2803911D01*
X-63500Y-2159000D02*
X-63500Y-2803911D01*
X-444500Y-3492500D02*
X-508000Y-3556000D01*
X-762000Y-3556000D01*
X-571500Y-3302000D02*
X-490483Y-3220983D01*
X-381000Y-3111500D01*
X-381000Y-2871854D01*
X-381000Y-2667000D02*
X-381000Y-2871854D01*
X-571500Y-3302000D02*
X-762000Y-3302000D01*
X-2571750Y-3524250D02*
X-2459833Y-3412333D01*
X-2276098Y-3228598D01*
X-2276098Y-2932410D01*
X-2276098Y-2857500D01*
X+3746500Y-3048000D02*
X+3674769Y-2976269D01*
X+3619500Y-2921000D01*
X+3619500Y-2693856D01*
X+3619500Y-2630323D01*
X+3619500Y-2576000D02*
X+3619500Y-2630323D01*
X+3746500Y-3048000D02*
X+3937000Y-3048000D01*
X+6604000Y-3365500D02*
X+6572250Y-3397250D01*
X+6413500Y-3556000D01*
X+6604000Y-3365500D02*
X+6641776Y-3327724D01*
X+6641776Y-3167829D01*
X+6641776Y-2905844D01*
X+6858000Y-2689620D01*
X+6858000Y-2159000D02*
X+6858000Y-2689620D01*
X+7112000Y-3302000D02*
X+7427114Y-3302000D01*
X+7428307Y-3300807D01*
X+7400945Y-3273445D01*
X+7112000Y-3048000D02*
X+7747000Y-3048000D01*
X+7552550Y-1139050D02*
X+7552550Y-2320901D01*
X+7460451Y-2413000D01*
X+7048500Y-2413000D01*
X+5143500Y-2413000D02*
X+5143500Y-2476500D01*
X+5143500Y-2776906D01*
X+5143500Y-1143000D02*
X+5143500Y-2413000D01*
X+5143500Y-3048000D02*
X+4137278Y-4054222D01*
X+3873500Y-4054222D01*
X+5143500Y-2776906D02*
X+5143500Y-3048000D01*
X+3873500Y-4054222D02*
X+3405254Y-4054222D01*
X+7429500Y-2603500D02*
X+7553658Y-2603500D01*
X+8104866Y-2603500D01*
X+8295505Y-2412861D01*
X+6985000Y-2603500D02*
X+7429500Y-2603500D01*
X+5969000Y-2680332D02*
X+5969000Y-2857500D01*
X+6027829Y-2916329D01*
X+6121400Y-3009900D01*
X+5969000Y-2576000D02*
X+5969000Y-2680332D01*
D13*
X-6223000Y-2921000D02*
X-5847863Y-2921000D01*
X-5715000Y-2788137D01*
X-5715000Y-2064597D01*
X-5733000Y-2055277D01*
X-5733000Y-1841500D01*
X-6223000Y+1397000D02*
X-6223000Y+889000D01*
D12*
X+3937000Y+825500D02*
X+3576202Y+1186298D01*
X+3576202Y+1486007D01*
X+3576202Y+1729635D01*
X+3365500Y+1940337D01*
X+3365500Y+2159000D01*
X+6261100Y+817880D02*
X+5934092Y+1144888D01*
X+5934092Y+1502853D01*
X+5934092Y+1991321D01*
X+5774838Y+2150575D01*
X+1651000Y+817880D02*
X+1651000Y+1778000D01*
X-635000Y+817880D02*
X-635000Y+1778000D01*
X-2921000Y+1841500D02*
X-2540000Y+1841500D01*
X-4191000Y+1841500D02*
X-4191000Y+1330286D01*
X-3876714Y+1016000D01*
X-3533322Y+1016000D01*
X-3093720Y+1016000D01*
X-2921000Y+843280D01*
D16*
X-3683000Y+698500D02*
X-3533322Y+698500D01*
X-3533322Y+1016000D01*
X-3651250Y-154364D02*
X-3651250Y-158750D01*
X-3683000Y-190500D02*
X-3651250Y-158750D01*
X-3533322Y-40822D02*
X-3533322Y+153296D01*
X-3533322Y+698500D01*
X-3651250Y-154364D02*
X-3537699Y-154364D01*
X-3533322Y-149987D01*
X-4109720Y-1968500D02*
X-4109720Y-1717884D01*
X-4092360Y-1700524D01*
X-3533322Y-1141486D01*
X-3533322Y-149987D01*
X-3533322Y-40822D01*
D10*
X-3914140Y-571500D02*
X-3914140Y-749196D01*
X-3684182Y-979154D01*
X-1724959Y-4050313D02*
X-1718409Y-4050313D01*
X-1714500Y-4054222D01*
X-3302000Y-63500D02*
X-3405219Y-166719D01*
X-3405219Y-858614D01*
X-3405219Y-1281946D01*
X-3496679Y-1373406D01*
X-3496679Y-1900821D01*
X-3492500Y-1905000D01*
X-3238500Y-1905000D02*
X-3238500Y-1839132D01*
X-3264020Y-1813612D01*
X-3236132Y-1841500D02*
X-3238500Y-1839132D01*
X-3264020Y-1813612D02*
X-3264020Y-1676520D01*
X-3175000Y-1587500D01*
X-1587500Y-4054222D02*
X-1714500Y-4054222D01*
X-4261925Y-4054222D01*
X-4430104Y-3886043D01*
X-5014147Y-3302000D01*
X-5143500Y-3302000D01*
X+571500Y-4054222D02*
X-1587500Y-4054222D01*
X-5143500Y-3556000D02*
X-5334000Y-3556000D01*
X-5397500Y-3492500D01*
X-5397500Y-2474149D01*
X-5284611Y-2361260D01*
X-5091760Y-2361260D01*
X-5080000Y-2349500D01*
D17*
X+6858000Y-3556000D03*
D18*
X-4381500Y-825500D03*
X-3873500Y-1016000D03*
X-3111500Y-2095500D03*
X-889000Y-2095500D03*
X+1460500Y-2095500D03*
X+3746500Y-2095500D03*
X+6032500Y-2095500D03*
X-5080000Y-63500D03*
D19*
X-4635500Y+1333500D03*
X-3365500Y+1333500D03*
X+6477000Y+1667185D03*
X+2921000Y-3175000D03*
X+2921000Y-3429000D03*
X+2921000Y-3683000D03*
D70*
X+4457601Y+1587500D03*
X+4254500Y+1587500D03*
X+4000500Y+1587500D03*
X+3746500Y+1587500D03*
D18*
X-4000500Y-3302000D03*
X-4254500Y-2844450D03*
D17*
X+7400945Y-3273445D03*
D18*
X+7747000Y-3048000D03*
X+7048500Y-2413000D03*
X+5143500Y-2413000D03*
X+6985000Y-2603500D03*
X+8295505Y-2412861D03*
D19*
X-6223000Y+1397000D03*
D18*
X+3365500Y+2159000D03*
X+5774838Y+2150575D03*
X+1651000Y+1778000D03*
X-635000Y+1778000D03*
X-2540000Y+1841500D03*
X-3684182Y-979154D03*
X-1724959Y-4050313D03*
X-3302000Y-63500D03*
X-3492500Y-1905000D03*
X-3238500Y-1905000D03*
D15*
X+8448040Y-4193540D02*
X-6543040Y-4193540D01*
X-6543040Y+2860040D01*
X+8448040Y+2860040D01*
X+8448040Y-4193540D01*
X+3454399Y+2195823D02*
X+3454399Y+1977160D01*
X+3606801Y+1824758D01*
X+3606801Y+1899365D01*
X+3675936Y+1968500D01*
X+3606801Y+2037635D01*
X+3606801Y+2153365D01*
X+3688635Y+2235199D01*
X+3804365Y+2235199D01*
X+3873500Y+2166064D01*
X+3942635Y+2235199D01*
X+4058365Y+2235199D01*
X+4127500Y+2166064D01*
X+4196635Y+2235199D01*
X+4312365Y+2235199D01*
X+4394199Y+2153365D01*
X+4394199Y+2037635D01*
X+4325064Y+1968500D01*
X+4394199Y+1899365D01*
X+4394199Y+1783635D01*
X+4317999Y+1707435D01*
X+4317999Y+1649723D01*
X+4343399Y+1624323D01*
X+4343399Y+1550677D01*
X+4291323Y+1498601D01*
X+4217677Y+1498601D01*
X+4165601Y+1550677D01*
X+4165601Y+1624323D01*
X+4191001Y+1649723D01*
X+4191001Y+1707435D01*
X+4127500Y+1770936D01*
X+4063999Y+1707435D01*
X+4063999Y+1649723D01*
X+4089399Y+1624323D01*
X+4089399Y+1550677D01*
X+4037323Y+1498601D01*
X+3963677Y+1498601D01*
X+3911601Y+1550677D01*
X+3911601Y+1624323D01*
X+3937001Y+1649723D01*
X+3937001Y+1707435D01*
X+3873500Y+1770936D01*
X+3809999Y+1707435D01*
X+3809999Y+1649723D01*
X+3835399Y+1624323D01*
X+3835399Y+1550677D01*
X+3783323Y+1498601D01*
X+3709677Y+1498601D01*
X+3665101Y+1543177D01*
X+3665101Y+1223121D01*
X+3675373Y+1212849D01*
X+4324349Y+1212849D01*
X+4324349Y+438151D01*
X+3549651Y+438151D01*
X+3549651Y+1087127D01*
X+3496732Y+1140046D01*
X+3496732Y+40082D01*
X+3473652Y-681D01*
X+3343547Y-85808D01*
X+3343548Y-321851D01*
X+3284399Y-380999D01*
X+3176269Y-380999D01*
X+3176269Y-412749D01*
X+2943049Y-412749D01*
X+3042551Y-512251D01*
X+3176269Y-512251D01*
X+3176269Y-702749D01*
X+3111499Y-702749D01*
X+3111499Y-946151D01*
X+3187699Y-946151D01*
X+3187699Y-1466849D01*
X+3111499Y-1466849D01*
X+3111499Y-1522731D01*
X+3115749Y-1522731D01*
X+3115749Y-1776731D01*
X+3125749Y-1776731D01*
X+3125749Y-2033269D01*
X+3115749Y-2033269D01*
X+3115749Y-2287269D01*
X+2945435Y-2287269D01*
X+2945435Y-2640699D01*
X+3468753Y-3164017D01*
X+3468753Y-3990723D01*
X+3899802Y-3990723D01*
X+4005389Y-3990724D01*
X+4110977Y-3990723D01*
X+5080001Y-3021699D01*
X+5080001Y-2457263D01*
X+5067301Y-2444563D01*
X+5067301Y-2381437D01*
X+5080001Y-2368737D01*
X+5080002Y-1778000D01*
X+5080001Y-1169301D01*
X+5016501Y-1105802D01*
X+5016501Y-915301D01*
X+4990199Y-888999D01*
X+4984749Y-888999D01*
X+4984749Y-953769D01*
X+4952999Y-953769D01*
X+4952999Y-1466849D01*
X+4673601Y-1466849D01*
X+4673601Y-953769D01*
X+4494251Y-953769D01*
X+4494251Y-730249D01*
X+4380231Y-730249D01*
X+4380231Y-539751D01*
X+4477949Y-539751D01*
X+4587451Y-430249D01*
X+4380231Y-430249D01*
X+4380231Y-239751D01*
X+4636769Y-239751D01*
X+4636769Y-249751D01*
X+4699001Y-249751D01*
X+4699001Y-227699D01*
X+4982211Y+55511D01*
X+4982211Y+494029D01*
X+4991101Y+494029D01*
X+4991101Y+553446D01*
X+5125492Y+687837D01*
X+5189221Y+687837D01*
X+5189221Y+710329D01*
X+5308601Y+710329D01*
X+5308601Y+925823D01*
X+5309871Y+927093D01*
X+5309871Y+1045209D01*
X+5612129Y+1045209D01*
X+5612129Y+732791D01*
X+5486399Y+732791D01*
X+5486399Y+710329D01*
X+5605779Y+710329D01*
X+5605779Y+509671D01*
X+5198770Y+509671D01*
X+5177789Y+488690D01*
X+5177789Y-113029D01*
X+4993271Y-113029D01*
X+4856549Y-249751D01*
X+4888231Y-249751D01*
X+4888231Y-239751D01*
X+5144769Y-239751D01*
X+5144769Y-249751D01*
X+5398769Y-249751D01*
X+5398769Y-281502D01*
X+5485534Y-281502D01*
X+5487301Y-283269D01*
X+5524501Y-283269D01*
X+5524501Y-100329D01*
X+5189221Y-100329D01*
X+5189221Y+100329D01*
X+5562607Y+100329D01*
X+5626101Y+163823D01*
X+5626101Y+1677677D01*
X+5551177Y+1752601D01*
X+5351586Y+1752601D01*
X+5275386Y+1676401D01*
X+5138614Y+1676401D01*
X+5041901Y+1773114D01*
X+5041901Y+1909886D01*
X+5138614Y+2006599D01*
X+5275386Y+2006599D01*
X+5351586Y+1930399D01*
X+5624823Y+1930399D01*
X+5803899Y+1751323D01*
X+5803899Y+90177D01*
X+5651499Y-62223D01*
X+5651499Y-385726D01*
X+5614302Y-422923D01*
X+5561698Y-422923D01*
X+5549042Y-410267D01*
X+5434698Y-410267D01*
X+5432929Y-408498D01*
X+5398769Y-408498D01*
X+5398769Y-440249D01*
X+5142231Y-440249D01*
X+5142231Y-430249D01*
X+5057051Y-430249D01*
X+4947549Y-539751D01*
X+5398769Y-539751D01*
X+5398769Y-730249D01*
X+5397499Y-730249D01*
X+5397499Y-946151D01*
X+5473699Y-946151D01*
X+5473699Y-1466849D01*
X+5353951Y-1466849D01*
X+5333999Y-1486801D01*
X+5333999Y-1522731D01*
X+5365749Y-1522731D01*
X+5365749Y-2287269D01*
X+5206999Y-2287269D01*
X+5206999Y-2368737D01*
X+5219699Y-2381437D01*
X+5219699Y-2444563D01*
X+5206999Y-2457263D01*
X+5206999Y-3074302D01*
X+5169801Y-3111499D01*
X+4163580Y-4117721D01*
X+4005389Y-4117720D01*
X+3899802Y-4117721D01*
X+2853661Y-4117721D01*
X+1725731Y-4117720D01*
X+545198Y-4117721D01*
X-508000Y-4117720D01*
X-1684605Y-4117721D01*
X-1693396Y-4126512D01*
X-1756522Y-4126512D01*
X-1765313Y-4117721D01*
X-4288227Y-4117720D01*
X-5024942Y-3381006D01*
X-5072936Y-3429000D01*
X-5003801Y-3498135D01*
X-5003801Y-3613865D01*
X-5085635Y-3695699D01*
X-5201365Y-3695699D01*
X-5283199Y-3613865D01*
X-5283199Y-3498135D01*
X-5214064Y-3429000D01*
X-5283199Y-3359865D01*
X-5283199Y-3244135D01*
X-5201365Y-3162301D01*
X-5085635Y-3162301D01*
X-5009435Y-3238501D01*
X-4987846Y-3238501D01*
X-4235623Y-3990724D01*
X-1777999Y-3990723D01*
X-1777999Y-2287269D01*
X-1936749Y-2287269D01*
X-1936749Y-2222499D01*
X-1964251Y-2222499D01*
X-1964251Y-2287269D01*
X-2154749Y-2287269D01*
X-2154749Y-2127451D01*
X-2212599Y-2185301D01*
X-2212599Y-3254899D01*
X-2577198Y-3619498D01*
X-2603500Y-3619498D01*
X-2786935Y-3619499D01*
X-2863135Y-3695699D01*
X-2978865Y-3695699D01*
X-3060699Y-3613865D01*
X-3060699Y-3498135D01*
X-2991564Y-3429000D01*
X-3060699Y-3359865D01*
X-3060699Y-3244135D01*
X-2991564Y-3175000D01*
X-3055065Y-3111499D01*
X-3074301Y-3111499D01*
X-3174999Y-3010801D01*
X-3174999Y-2671249D01*
X-3239769Y-2671249D01*
X-3239769Y-2480751D01*
X-3016249Y-2480751D01*
X-3016249Y-2381249D01*
X-3239769Y-2381249D01*
X-3239769Y-2278011D01*
X-3426459Y-2091321D01*
X-3426459Y-1676399D01*
X-3445509Y-1676399D01*
X-3445509Y-1498601D01*
X-3280411Y-1498601D01*
X-3280411Y-1676399D01*
X-3299461Y-1676399D01*
X-3299461Y-2038719D01*
X-3147429Y-2190751D01*
X-2990849Y-2190751D01*
X-2990849Y-2171699D01*
X-3143063Y-2171699D01*
X-3187699Y-2127063D01*
X-3187699Y-2063937D01*
X-3162111Y-2038349D01*
X-3194049Y-2038349D01*
X-3194049Y-1898651D01*
X-3028951Y-1898651D01*
X-3028951Y-1905001D01*
X-2926244Y-1905001D01*
X-2862744Y-1968501D01*
X-2470151Y-1968501D01*
X-2470151Y-2247899D01*
X-2730501Y-2247899D01*
X-2730501Y-2637510D01*
X-2798251Y-2705260D01*
X-2798251Y-2795269D01*
X-2988749Y-2795269D01*
X-2988749Y-2671249D01*
X-3048001Y-2671249D01*
X-3048001Y-2958199D01*
X-3038382Y-2967818D01*
X-2978865Y-2908301D01*
X-2863135Y-2908301D01*
X-2781301Y-2990135D01*
X-2781301Y-3105865D01*
X-2850436Y-3175000D01*
X-2786935Y-3238501D01*
X-2756801Y-3238501D01*
X-2666999Y-3148699D01*
X-2666999Y-2795269D01*
X-2698749Y-2795269D01*
X-2698749Y-2541269D01*
X-2716249Y-2541269D01*
X-2716249Y-2284731D01*
X-2525751Y-2284731D01*
X-2525751Y-2538731D01*
X-2508251Y-2538731D01*
X-2508251Y-2795269D01*
X-2540001Y-2795269D01*
X-2540001Y-3201301D01*
X-2704199Y-3365499D01*
X-2786935Y-3365499D01*
X-2850436Y-3429000D01*
X-2786935Y-3492501D01*
X-2629802Y-3492502D01*
X-2339597Y-3202297D01*
X-2339597Y-2287269D01*
X-2444749Y-2287269D01*
X-2444749Y-1522731D01*
X-2254251Y-1522731D01*
X-2254251Y-1698321D01*
X-2162108Y-1606178D01*
X-2144749Y-1606178D01*
X-2144749Y-1522731D01*
X-1954251Y-1522731D01*
X-1954251Y-2033269D01*
X-1964251Y-2033269D01*
X-1964251Y-2095501D01*
X-1936749Y-2095501D01*
X-1936749Y-1522731D01*
X-1777999Y-1522731D01*
X-1777999Y-1169301D01*
X-1841499Y-1105801D01*
X-1841499Y-953769D01*
X-1905001Y-953769D01*
X-1905001Y-1466849D01*
X-2184399Y-1466849D01*
X-2184399Y-953769D01*
X-2317749Y-953769D01*
X-2317749Y-730249D01*
X-2477769Y-730249D01*
X-2477769Y-539751D01*
X-2344051Y-539751D01*
X-2234549Y-430249D01*
X-2477769Y-430249D01*
X-2477769Y-239751D01*
X-2221231Y-239751D01*
X-2221231Y-249751D01*
X-2158999Y-249751D01*
X-2158999Y-227699D01*
X-2058301Y-127001D01*
X-1867801Y-127001D01*
X-1853829Y-113029D01*
X-1875789Y-113029D01*
X-1875789Y+494029D01*
X-1866899Y+494029D01*
X-1866899Y+544823D01*
X-1712823Y+698899D01*
X-1668779Y+698899D01*
X-1668779Y+710329D01*
X-1549399Y+710329D01*
X-1549399Y+732791D01*
X-1611629Y+732791D01*
X-1611629Y+1045209D01*
X-1309371Y+1045209D01*
X-1309371Y+732791D01*
X-1371601Y+732791D01*
X-1371601Y+710329D01*
X-1266267Y+710329D01*
X-1266267Y+1699147D01*
X-1319721Y+1752601D01*
X-1506414Y+1752601D01*
X-1582614Y+1676401D01*
X-1719386Y+1676401D01*
X-1816099Y+1773114D01*
X-1816099Y+1909886D01*
X-1719386Y+2006599D01*
X-1582614Y+2006599D01*
X-1506414Y+1930399D01*
X-1246075Y+1930399D01*
X-1088469Y+1772793D01*
X-1088469Y+41515D01*
X-1108968Y+2608D01*
X-1242456Y-88899D01*
X-1252221Y-88899D01*
X-1252221Y-100329D01*
X-1270001Y-100329D01*
X-1270001Y-375391D01*
X-1307198Y-412588D01*
X-1359802Y-412588D01*
X-1363891Y-408499D01*
X-1459231Y-408499D01*
X-1459231Y-440249D01*
X-1715769Y-440249D01*
X-1715769Y-430249D01*
X-1800949Y-430249D01*
X-1910451Y-539751D01*
X-1459231Y-539751D01*
X-1459231Y-730249D01*
X-1460501Y-730249D01*
X-1460501Y-946151D01*
X-1384301Y-946151D01*
X-1384301Y-1466849D01*
X-1478001Y-1466849D01*
X-1478001Y-1522731D01*
X-1456251Y-1522731D01*
X-1456251Y-1776731D01*
X-1446251Y-1776731D01*
X-1446251Y-2033269D01*
X-1456251Y-2033269D01*
X-1456251Y-2287269D01*
X-1646749Y-2287269D01*
X-1646749Y-2030731D01*
X-1636749Y-2030731D01*
X-1636749Y-1779269D01*
X-1646749Y-1779269D01*
X-1646749Y-1522731D01*
X-1604999Y-1522731D01*
X-1604999Y-1466849D01*
X-1651001Y-1466849D01*
X-1651001Y-3990723D01*
X-1561198Y-3990723D01*
X-508000Y-3990724D01*
X+508001Y-3990723D01*
X+508001Y-2287269D01*
X+349251Y-2287269D01*
X+349251Y-2222499D01*
X+321749Y-2222499D01*
X+321749Y-2287269D01*
X+131251Y-2287269D01*
X+131251Y-2143090D01*
X+51842Y-2222499D01*
X+31749Y-2222499D01*
X+31749Y-2287269D01*
X-1Y-2287269D01*
X-1Y-3137801D01*
X-481699Y-3619499D01*
X-627935Y-3619499D01*
X-704135Y-3695699D01*
X-819865Y-3695699D01*
X-901699Y-3613865D01*
X-901699Y-3498135D01*
X-832564Y-3429000D01*
X-901699Y-3359865D01*
X-901699Y-3244135D01*
X-832564Y-3175000D01*
X-901699Y-3105865D01*
X-901699Y-2998560D01*
X-908500Y-2991786D01*
X-952499Y-2947787D01*
X-952499Y-2698749D01*
X-1017269Y-2698749D01*
X-1017269Y-2508251D01*
X-776249Y-2508251D01*
X-776249Y-2408749D01*
X-1017269Y-2408749D01*
X-1017269Y-2275031D01*
X-1203959Y-2088341D01*
X-1203959Y-1676399D01*
X-1223009Y-1676399D01*
X-1223009Y-1498601D01*
X-1057911Y-1498601D01*
X-1057911Y-1676399D01*
X-1076961Y-1676399D01*
X-1076961Y-2035739D01*
X-894449Y-2218251D01*
X-768349Y-2218251D01*
X-768349Y-2031999D01*
X-806451Y-2031999D01*
X-806451Y-2038349D01*
X-825501Y-2038349D01*
X-825501Y-2051237D01*
X-812801Y-2063937D01*
X-812801Y-2127063D01*
X-857437Y-2171699D01*
X-920563Y-2171699D01*
X-965199Y-2127063D01*
X-965199Y-2063937D01*
X-952499Y-2051237D01*
X-952499Y-2038349D01*
X-971549Y-2038349D01*
X-971549Y-1898651D01*
X-806451Y-1898651D01*
X-806451Y-1905001D01*
X-695115Y-1905001D01*
X-631615Y-1968501D01*
X-247651Y-1968501D01*
X-247651Y-2247899D01*
X-508001Y-2247899D01*
X-508001Y-2593801D01*
X-575751Y-2661551D01*
X-575751Y-2795269D01*
X-766249Y-2795269D01*
X-766249Y-2698749D01*
X-825501Y-2698749D01*
X-825501Y-2895185D01*
X-818808Y-2901878D01*
X-812347Y-2908301D01*
X-704135Y-2908301D01*
X-622301Y-2990135D01*
X-622301Y-3105865D01*
X-691436Y-3175000D01*
X-627935Y-3238501D01*
X-597801Y-3238501D01*
X-444499Y-3085199D01*
X-444499Y-2795269D01*
X-476249Y-2795269D01*
X-476249Y-2284731D01*
X-285751Y-2284731D01*
X-285751Y-2795269D01*
X-317501Y-2795269D01*
X-317501Y-3137801D01*
X-545198Y-3365499D01*
X-627935Y-3365499D01*
X-691436Y-3429000D01*
X-627935Y-3492501D01*
X-534301Y-3492501D01*
X-126999Y-3085199D01*
X-126999Y-2287269D01*
X-158749Y-2287269D01*
X-158749Y-1522731D01*
X+31749Y-1522731D01*
X+31749Y-1685369D01*
X+129617Y-1587501D01*
X+141251Y-1587501D01*
X+141251Y-1522731D01*
X+331749Y-1522731D01*
X+331749Y-2033269D01*
X+321749Y-2033269D01*
X+321749Y-2095501D01*
X+349251Y-2095501D01*
X+349251Y-1522731D01*
X+508001Y-1522731D01*
X+508001Y-915301D01*
X+481699Y-888999D01*
X+476249Y-888999D01*
X+476249Y-953769D01*
X+380999Y-953769D01*
X+380999Y-1466849D01*
X+101601Y-1466849D01*
X+101601Y-953769D01*
X-14249Y-953769D01*
X-14249Y-740249D01*
X-128269Y-740249D01*
X-128269Y-549751D01*
X+5449Y-549751D01*
X+114951Y-440249D01*
X-128269Y-440249D01*
X-128269Y-249751D01*
X+259449Y-249751D01*
X+410211Y-98989D01*
X+410211Y+494029D01*
X+419101Y+494029D01*
X+419101Y+544823D01*
X+573177Y+698899D01*
X+617221Y+698899D01*
X+617221Y+710329D01*
X+736601Y+710329D01*
X+736601Y+750791D01*
X+674371Y+750791D01*
X+674371Y+1063209D01*
X+976629Y+1063209D01*
X+976629Y+750791D01*
X+914399Y+750791D01*
X+914399Y+710329D01*
X+1033779Y+710329D01*
X+1033779Y+509671D01*
X+635393Y+509671D01*
X+605789Y+480067D01*
X+605789Y-113029D01*
X+571499Y-113029D01*
X+571499Y-117301D01*
X+439049Y-249751D01*
X+889001Y-249751D01*
X+889001Y-100329D01*
X+617221Y-100329D01*
X+617221Y+100329D01*
X+990607Y+100329D01*
X+1054101Y+163823D01*
X+1054101Y+1691788D01*
X+993288Y+1752601D01*
X+716086Y+1752601D01*
X+639886Y+1676401D01*
X+503114Y+1676401D01*
X+406401Y+1773114D01*
X+406401Y+1909886D01*
X+503114Y+2006599D01*
X+639886Y+2006599D01*
X+716086Y+1930399D01*
X+1066934Y+1930399D01*
X+1231899Y+1765434D01*
X+1231899Y+90177D01*
X+1052823Y-88899D01*
X+1033779Y-88899D01*
X+1033779Y-100329D01*
X+1015999Y-100329D01*
X+1015999Y-375824D01*
X+978802Y-413021D01*
X+926198Y-413021D01*
X+921676Y-408499D01*
X+890269Y-408499D01*
X+890269Y-440249D01*
X+538551Y-440249D01*
X+429049Y-549751D01*
X+633731Y-549751D01*
X+633731Y-539751D01*
X+890269Y-539751D01*
X+890269Y-730249D01*
X+825499Y-730249D01*
X+825499Y-946151D01*
X+901699Y-946151D01*
X+901699Y-1466849D01*
X+797999Y-1466849D01*
X+797999Y-1522731D01*
X+829749Y-1522731D01*
X+829749Y-1776731D01*
X+839749Y-1776731D01*
X+839749Y-2033269D01*
X+829749Y-2033269D01*
X+829749Y-2287269D01*
X+639251Y-2287269D01*
X+639251Y-2030731D01*
X+649251Y-2030731D01*
X+649251Y-1779269D01*
X+639251Y-1779269D01*
X+639251Y-1522731D01*
X+671001Y-1522731D01*
X+671001Y-1466849D01*
X+634999Y-1466849D01*
X+634999Y-3990723D01*
X+1725731Y-3990724D01*
X+3341755Y-3990723D01*
X+3341755Y-3216619D01*
X+2818437Y-2693302D01*
X+2818437Y-2287269D01*
X+2635251Y-2287269D01*
X+2635251Y-2222499D01*
X+2635249Y-2222499D01*
X+2635249Y-2287269D01*
X+2444751Y-2287269D01*
X+2444751Y-2115134D01*
X+2345249Y-2214636D01*
X+2345249Y-2287269D01*
X+2323496Y-2287269D01*
X+2323497Y-2899394D01*
X+2323496Y-3163804D01*
X+1867801Y-3619499D01*
X+1721565Y-3619499D01*
X+1645365Y-3695699D01*
X+1529635Y-3695699D01*
X+1447801Y-3613865D01*
X+1447801Y-3498135D01*
X+1516936Y-3429000D01*
X+1447801Y-3359865D01*
X+1447801Y-3244135D01*
X+1516936Y-3175000D01*
X+1453435Y-3111499D01*
X+1434199Y-3111499D01*
X+1270001Y-2947301D01*
X+1270001Y-2671249D01*
X+1205231Y-2671249D01*
X+1205231Y-2480751D01*
X+1461769Y-2480751D01*
X+1461769Y-2671249D01*
X+1396999Y-2671249D01*
X+1396999Y-2894699D01*
X+1470118Y-2967818D01*
X+1529635Y-2908301D01*
X+1645365Y-2908301D01*
X+1727199Y-2990135D01*
X+1727199Y-3105865D01*
X+1658064Y-3175000D01*
X+1727199Y-3244135D01*
X+1727199Y-3246864D01*
X+1757446Y-3246864D01*
X+1814002Y-3190308D01*
X+1814001Y-2795269D01*
X+1782251Y-2795269D01*
X+1782251Y-2538731D01*
X+1792251Y-2538731D01*
X+1792251Y-2284731D01*
X+1982749Y-2284731D01*
X+1982749Y-2541269D01*
X+1972749Y-2541269D01*
X+1972749Y-2795269D01*
X+1940999Y-2795269D01*
X+1940998Y-3242912D01*
X+1810050Y-3373860D01*
X+1713204Y-3373860D01*
X+1658064Y-3429000D01*
X+1721565Y-3492501D01*
X+1815199Y-3492501D01*
X+2196500Y-3111200D01*
X+2196499Y-2767698D01*
X+2196500Y-2287269D01*
X+2154751Y-2287269D01*
X+2154751Y-2033269D01*
X+2144751Y-2033269D01*
X+2144751Y-1522731D01*
X+2335249Y-1522731D01*
X+2335249Y-2030731D01*
X+2338612Y-2030731D01*
X+2338612Y-1661894D01*
X+2410653Y-1589853D01*
X+2444751Y-1589853D01*
X+2444751Y-1522731D01*
X+2635249Y-1522731D01*
X+2635249Y-2095501D01*
X+2635251Y-2095501D01*
X+2635251Y-1522731D01*
X+2794001Y-1522731D01*
X+2794001Y-915301D01*
X+2767699Y-888999D01*
X+2762249Y-888999D01*
X+2762249Y-953769D01*
X+2666999Y-953769D01*
X+2666999Y-1466849D01*
X+2387601Y-1466849D01*
X+2387601Y-953769D01*
X+2271751Y-953769D01*
X+2271751Y-712749D01*
X+2094231Y-712749D01*
X+2094231Y-522251D01*
X+2227949Y-522251D01*
X+2337451Y-412749D01*
X+2094231Y-412749D01*
X+2094231Y-222251D01*
X+2481949Y-222251D01*
X+2696211Y-7989D01*
X+2696211Y+494029D01*
X+2705101Y+494029D01*
X+2705101Y+548323D01*
X+2855677Y+698899D01*
X+2903221Y+698899D01*
X+2903221Y+710329D01*
X+3022601Y+710329D01*
X+3022601Y+732791D01*
X+2960371Y+732791D01*
X+2960371Y+1045209D01*
X+3262629Y+1045209D01*
X+3262629Y+732791D01*
X+3200399Y+732791D01*
X+3200399Y+710329D01*
X+3318934Y+710329D01*
X+3318934Y+1654942D01*
X+3221275Y+1752601D01*
X+3002086Y+1752601D01*
X+2925886Y+1676401D01*
X+2789114Y+1676401D01*
X+2692401Y+1773114D01*
X+2692401Y+1909886D01*
X+2789114Y+2006599D01*
X+2925886Y+2006599D01*
X+3002086Y+1930399D01*
X+3276601Y+1930399D01*
X+3276601Y+2195823D01*
X+3328677Y+2247899D01*
X+3402323Y+2247899D01*
X+3454399Y+2195823D01*
X-1951991Y+745491D02*
X-2113287Y+745491D01*
X-2260601Y+598177D01*
X-2260601Y+182177D01*
X-2280211Y+162567D01*
X-2280211Y-113029D01*
X-2475789Y-113029D01*
X-2475789Y+63501D01*
X-2552701Y+63501D01*
X-2552701Y-38099D01*
X-2565401Y-38099D01*
X-2565401Y-296084D01*
X-2571751Y-302434D01*
X-2571751Y-382269D01*
X-2603501Y-382269D01*
X-2603501Y-640081D01*
X-2571751Y-640081D01*
X-2571751Y-896619D01*
X-2603501Y-896619D01*
X-2603501Y-998221D01*
X-2538731Y-998221D01*
X-2538731Y-1300479D01*
X-2603501Y-1300479D01*
X-2603501Y-1447801D01*
X-2470151Y-1447801D01*
X-2470151Y-1727199D01*
X-2857501Y-1727199D01*
X-2857501Y-1740801D01*
X-2913749Y-1797049D01*
X-3028951Y-1797049D01*
X-3028951Y-1803399D01*
X-3194049Y-1803399D01*
X-3194049Y-1676399D01*
X-3257549Y-1676399D01*
X-3257549Y-1498601D01*
X-3092451Y-1498601D01*
X-3092451Y-1663701D01*
X-3028951Y-1663701D01*
X-3028951Y-1670051D01*
X-2990849Y-1670051D01*
X-2990849Y-1447801D01*
X-2984499Y-1447801D01*
X-2984499Y-1300479D01*
X-3085269Y-1300479D01*
X-3085269Y-998221D01*
X-3030499Y-998221D01*
X-3030499Y-896619D01*
X-3062249Y-896619D01*
X-3062249Y-640081D01*
X-2879574Y-640081D01*
X-2879574Y-623808D01*
X-2892231Y-611151D01*
X-3046731Y-611151D01*
X-3046731Y-639249D01*
X-3205481Y-639249D01*
X-3205481Y-1308101D01*
X-3186431Y-1308101D01*
X-3186431Y-1485899D01*
X-3351529Y-1485899D01*
X-3351529Y-1308101D01*
X-3332479Y-1308101D01*
X-3332479Y-581199D01*
X-3303269Y-551989D01*
X-3303269Y-448751D01*
X-3046731Y-448751D01*
X-3046731Y-484153D01*
X-2839629Y-484153D01*
X-2752576Y-571206D01*
X-2752576Y-640081D01*
X-2730499Y-640081D01*
X-2730499Y-382269D01*
X-2762249Y-382269D01*
X-2762249Y-302434D01*
X-2768599Y-296084D01*
X-2768599Y-38099D01*
X-2781299Y-38099D01*
X-2781299Y+292099D01*
X-2552701Y+292099D01*
X-2552701Y+190499D01*
X-2475789Y+190499D01*
X-2475789Y+494029D01*
X-2438399Y+494029D01*
X-2438399Y+671823D01*
X-2239009Y+871213D01*
X-2239009Y+1032509D01*
X-1951991Y+1032509D01*
X-1951991Y+745491D01*
X-6096001Y+1449605D02*
X-6096001Y+1344395D01*
X-6096002Y+1143000D01*
X-6096001Y+1040129D01*
X-6066791Y+1040129D01*
X-6066791Y+737871D01*
X-6096001Y+737871D01*
X-6096001Y+151129D01*
X-6066791Y+151129D01*
X-6066791Y-151129D01*
X-6096001Y-151129D01*
X-6096001Y-737871D01*
X-6066791Y-737871D01*
X-6066791Y-1040129D01*
X-6096001Y-1040129D01*
X-6096001Y-1690371D01*
X-6066791Y-1690371D01*
X-6066791Y-1992629D01*
X-6096001Y-1992629D01*
X-6096001Y-2280211D01*
X-5994401Y-2381811D01*
X-5994401Y-2571189D01*
X-6121962Y-2698750D01*
X-5994401Y-2826311D01*
X-5994401Y-3015689D01*
X-6128311Y-3149599D01*
X-6317689Y-3149599D01*
X-6451599Y-3015689D01*
X-6451599Y-2826311D01*
X-6324038Y-2698750D01*
X-6451599Y-2571189D01*
X-6451599Y-2381811D01*
X-6349999Y-2280211D01*
X-6349999Y-1992629D01*
X-6379209Y-1992629D01*
X-6379209Y-1690371D01*
X-6349999Y-1690371D01*
X-6349999Y-1040129D01*
X-6379209Y-1040129D01*
X-6379209Y-737871D01*
X-6349999Y-737871D01*
X-6349999Y-151129D01*
X-6379209Y-151129D01*
X-6379209Y+151129D01*
X-6349999Y+151129D01*
X-6349999Y+737871D01*
X-6379209Y+737871D01*
X-6379209Y+1040129D01*
X-6349999Y+1040129D01*
X-6349998Y+1143000D01*
X-6349999Y+1449605D01*
X-6275605Y+1523999D01*
X-6170395Y+1523999D01*
X-6096001Y+1449605D01*
X-2260599Y+1773114D02*
X-2260599Y+1909886D01*
X-2163886Y+2006599D01*
X-2027114Y+2006599D01*
X-1930401Y+1909886D01*
X-1930401Y+1773114D01*
X-2027114Y+1676401D01*
X-2163886Y+1676401D01*
X-2260599Y+1773114D01*
X-4259579Y-50801D02*
X-4030981Y-50801D01*
X-4030981Y-330199D01*
X-4259579Y-330199D01*
X-4259579Y-50801D01*
X-2776414Y+1930399D02*
X-2503177Y+1930399D01*
X-2451101Y+1878323D01*
X-2451101Y+1804677D01*
X-2503177Y+1752601D01*
X-2776414Y+1752601D01*
X-2832101Y+1696914D01*
X-2832101Y+1205229D01*
X-2508251Y+1205229D01*
X-2508251Y+430531D01*
X-3282949Y+430531D01*
X-3282949Y+927101D01*
X-3457123Y+927101D01*
X-3457123Y-1173047D01*
X-4033521Y-1749445D01*
X-4033521Y-1828801D01*
X-3995421Y-1828801D01*
X-3995421Y-2108199D01*
X-4046222Y-2108199D01*
X-4046222Y-2118360D01*
X-4046221Y-2294522D01*
X-4083419Y-2331719D01*
X-4164699Y-2412999D01*
X-4176751Y-2412999D01*
X-4176751Y-2477769D01*
X-4186751Y-2477769D01*
X-4186751Y-2731769D01*
X-4377249Y-2731769D01*
X-4377249Y-2475231D01*
X-4367249Y-2475231D01*
X-4367249Y-2221231D01*
X-4176751Y-2221231D01*
X-4176751Y-2245451D01*
X-4173219Y-2241919D01*
X-4173218Y-2108199D01*
X-4224019Y-2108199D01*
X-4224019Y-1828801D01*
X-4185919Y-1828801D01*
X-4185919Y-1686323D01*
X-3609521Y-1109925D01*
X-3609521Y-1012255D01*
X-3652619Y-1055353D01*
X-3715745Y-1055353D01*
X-3760381Y-1010717D01*
X-3760381Y-992755D01*
X-3977639Y-775497D01*
X-3977639Y-699769D01*
X-4009389Y-699769D01*
X-4009389Y-443231D01*
X-3977639Y-443231D01*
X-3977639Y-330199D01*
X-4028439Y-330199D01*
X-4028439Y-50801D01*
X-3977639Y-50801D01*
X-3977639Y+49404D01*
X-4420871Y+49404D01*
X-4420871Y-219709D01*
X-4723129Y-219709D01*
X-4723129Y+92709D01*
X-4566317Y+92709D01*
X-4482624Y+176402D01*
X-4000499Y+176402D01*
X-4000499Y+299721D01*
X-4142739Y+299721D01*
X-4142739Y+579119D01*
X-4078249Y+579119D01*
X-4078249Y+826769D01*
X-3887751Y+826769D01*
X-3887751Y+579119D01*
X-3778249Y+579119D01*
X-3778249Y+826769D01*
X-3609521Y+826769D01*
X-3609521Y+927101D01*
X-3913537Y+927101D01*
X-4279899Y+1293463D01*
X-4279899Y+1696914D01*
X-4356099Y+1773114D01*
X-4356099Y+1909886D01*
X-4259386Y+2006599D01*
X-4122614Y+2006599D01*
X-4025901Y+1909886D01*
X-4025901Y+1773114D01*
X-4102101Y+1696914D01*
X-4102101Y+1367109D01*
X-3839891Y+1104899D01*
X-3282949Y+1104899D01*
X-3282949Y+1205229D01*
X-3009899Y+1205229D01*
X-3009899Y+1696914D01*
X-3086099Y+1773114D01*
X-3086099Y+1909886D01*
X-2989386Y+2006599D01*
X-2852614Y+2006599D01*
X-2776414Y+1930399D01*
X-4309389Y-443231D02*
X-4118891Y-443231D01*
X-4118891Y-699769D01*
X-4309389Y-699769D01*
X-4309389Y-443231D01*
X-1951991Y+1195491D02*
X-2239009Y+1195491D01*
X-2239009Y+1482509D01*
X-1951991Y+1482509D01*
X-1951991Y+1195491D01*
X-1309371Y+1222791D02*
X-1611629Y+1222791D01*
X-1611629Y+1535209D01*
X-1309371Y+1535209D01*
X-1309371Y+1222791D01*
X-4420871Y+270291D02*
X-4723129Y+270291D01*
X-4723129Y+582709D01*
X-4420871Y+582709D01*
X-4420871Y+270291D01*
X-3009901Y-38099D02*
X-3060701Y-38099D01*
X-3060701Y-158751D01*
X-3052249Y-158751D01*
X-3052249Y-125731D01*
X-2861751Y-125731D01*
X-2861751Y-382269D01*
X-3052249Y-382269D01*
X-3052249Y-349249D01*
X-3303269Y-349249D01*
X-3303269Y-158751D01*
X-3187699Y-158751D01*
X-3187699Y-38099D01*
X-3238499Y-38099D01*
X-3238499Y+292099D01*
X-3009901Y+292099D01*
X-3009901Y-38099D01*
X-546101Y+1814823D02*
X-546101Y+1205229D01*
X-247651Y+1205229D01*
X-247651Y+430531D01*
X-1022349Y+430531D01*
X-1022349Y+1205229D01*
X-723899Y+1205229D01*
X-723899Y+1814823D01*
X-671823Y+1866899D01*
X-598177Y+1866899D01*
X-546101Y+1814823D01*
X-749301Y-38099D02*
X-800101Y-38099D01*
X-800101Y-158751D01*
X-793749Y-158751D01*
X-793749Y-125731D01*
X-603251Y-125731D01*
X-603251Y-382269D01*
X-793749Y-382269D01*
X-793749Y-349249D01*
X-1017269Y-349249D01*
X-1017269Y-158751D01*
X-927099Y-158751D01*
X-927099Y-38099D01*
X-977899Y-38099D01*
X-977899Y+292099D01*
X-749301Y+292099D01*
X-749301Y-38099D01*
X+270509Y+803491D02*
X+109213Y+803491D01*
X+25399Y+719677D01*
X+25399Y+182177D01*
X+5789Y+162567D01*
X+5789Y-113029D01*
X-189789Y-113029D01*
X-189789Y+127001D01*
X-292101Y+127001D01*
X-292101Y-38099D01*
X-345001Y-38099D01*
X-345001Y-125731D01*
X-313251Y-125731D01*
X-313251Y-382269D01*
X-335001Y-382269D01*
X-335001Y-633731D01*
X-303251Y-633731D01*
X-303251Y-890269D01*
X-345001Y-890269D01*
X-345001Y-991871D01*
X-280231Y-991871D01*
X-280231Y-1294129D01*
X-381001Y-1294129D01*
X-381001Y-1447801D01*
X-247651Y-1447801D01*
X-247651Y-1727199D01*
X-635001Y-1727199D01*
X-635001Y-1740801D01*
X-691249Y-1797049D01*
X-806451Y-1797049D01*
X-806451Y-1803399D01*
X-971549Y-1803399D01*
X-971549Y-1676399D01*
X-1035049Y-1676399D01*
X-1035049Y-1498601D01*
X-869951Y-1498601D01*
X-869951Y-1663701D01*
X-806451Y-1663701D01*
X-806451Y-1670051D01*
X-768349Y-1670051D01*
X-768349Y-1447801D01*
X-752952Y-1447801D01*
X-749299Y-1444148D01*
X-749299Y-1294129D01*
X-826769Y-1294129D01*
X-826769Y-991871D01*
X-761999Y-991871D01*
X-761999Y-890269D01*
X-793749Y-890269D01*
X-793749Y-639249D01*
X-894449Y-639249D01*
X-982981Y-727781D01*
X-982981Y-1308101D01*
X-963931Y-1308101D01*
X-963931Y-1485899D01*
X-1129029Y-1485899D01*
X-1129029Y-1308101D01*
X-1109979Y-1308101D01*
X-1109979Y-675179D01*
X-1017269Y-582469D01*
X-1017269Y-448751D01*
X-760731Y-448751D01*
X-760731Y-480501D01*
X-596305Y-480501D01*
X-492282Y-584524D01*
X-492282Y-633731D01*
X-461999Y-633731D01*
X-461999Y-382269D01*
X-503749Y-382269D01*
X-503749Y-125731D01*
X-471999Y-125731D01*
X-471999Y-38099D01*
X-520699Y-38099D01*
X-520699Y+292099D01*
X-292101Y+292099D01*
X-292101Y+253999D01*
X-189789Y+253999D01*
X-189789Y+494029D01*
X-152399Y+494029D01*
X-152399Y+793323D01*
X-16509Y+929213D01*
X-16509Y+1090509D01*
X+270509Y+1090509D01*
X+270509Y+803491D01*
X+270509Y+1253491D02*
X-16509Y+1253491D01*
X-16509Y+1540509D01*
X+270509Y+1540509D01*
X+270509Y+1253491D01*
X+976629Y+1240791D02*
X+674371Y+1240791D01*
X+674371Y+1553209D01*
X+976629Y+1553209D01*
X+976629Y+1240791D01*
X-38099Y+1773114D02*
X-38099Y+1909886D01*
X+58614Y+2006599D01*
X+195386Y+2006599D01*
X+292099Y+1909886D01*
X+292099Y+1773114D01*
X+195386Y+1676401D01*
X+58614Y+1676401D01*
X-38099Y+1773114D01*
X+3262629Y+1222791D02*
X+2960371Y+1222791D01*
X+2960371Y+1535209D01*
X+3262629Y+1535209D01*
X+3262629Y+1222791D01*
X+2556509Y+1253491D02*
X+2269491Y+1253491D01*
X+2269491Y+1540509D01*
X+2556509Y+1540509D01*
X+2556509Y+1253491D01*
X+2556509Y+803491D02*
X+2395467Y+803491D01*
X+2383036Y+784905D01*
X+2282899Y+684768D01*
X+2282899Y+494029D01*
X+2291789Y+494029D01*
X+2291789Y-113029D01*
X+2096211Y-113029D01*
X+2096211Y+101601D01*
X+1993899Y+101602D01*
X+1993899Y-38099D01*
X+1943099Y-38099D01*
X+1943099Y-125731D01*
X+1972749Y-125731D01*
X+1972749Y-382269D01*
X+1950999Y-382269D01*
X+1950999Y-633731D01*
X+1982749Y-633731D01*
X+1982749Y-890269D01*
X+1950999Y-890269D01*
X+1950998Y-963488D01*
X+1950999Y-991871D01*
X+2005769Y-991871D01*
X+2005769Y-1294129D01*
X+1904999Y-1294129D01*
X+1904999Y-1447801D01*
X+2038349Y-1447801D01*
X+2038349Y-1727199D01*
X+1650999Y-1727199D01*
X+1650999Y-1740801D01*
X+1594751Y-1797049D01*
X+1479549Y-1797049D01*
X+1479549Y-1803399D01*
X+1314451Y-1803399D01*
X+1314451Y-1676399D01*
X+1250951Y-1676399D01*
X+1250951Y-1498601D01*
X+1416049Y-1498601D01*
X+1416049Y-1663701D01*
X+1479549Y-1663701D01*
X+1479549Y-1670051D01*
X+1517651Y-1670051D01*
X+1517651Y-1447801D01*
X+1524001Y-1447801D01*
X+1524001Y-1294129D01*
X+1459231Y-1294129D01*
X+1459231Y-991871D01*
X+1524001Y-991871D01*
X+1524001Y-890269D01*
X+1492251Y-890269D01*
X+1492251Y-639249D01*
X+1391551Y-639249D01*
X+1303019Y-727781D01*
X+1303019Y-1308101D01*
X+1322069Y-1308101D01*
X+1322069Y-1485899D01*
X+1156971Y-1485899D01*
X+1156971Y-1308101D01*
X+1176021Y-1308101D01*
X+1176021Y-675179D01*
X+1268731Y-582469D01*
X+1268731Y-448751D01*
X+1525269Y-448751D01*
X+1525269Y-474073D01*
X+1666980Y-474073D01*
X+1791967Y-599060D01*
X+1791967Y-991871D01*
X+1824001Y-991871D01*
X+1824002Y-963488D01*
X+1824001Y-890269D01*
X+1792251Y-890269D01*
X+1792251Y-633731D01*
X+1824001Y-633731D01*
X+1824001Y-382269D01*
X+1782251Y-382269D01*
X+1782251Y-125731D01*
X+1814001Y-125731D01*
X+1814001Y-100698D01*
X+1816101Y-98598D01*
X+1816101Y-38099D01*
X+1765301Y-38099D01*
X+1765301Y+292099D01*
X+1993899Y+292099D01*
X+1993899Y+279398D01*
X+2096211Y+279399D01*
X+2096211Y+494029D01*
X+2105101Y+494029D01*
X+2105101Y+758414D01*
X+2244964Y+898277D01*
X+2269491Y+934949D01*
X+2269491Y+1090509D01*
X+2556509Y+1090509D01*
X+2556509Y+803491D01*
X+1228089Y-1676399D02*
X+1209039Y-1676399D01*
X+1209039Y-1944739D01*
X+1384301Y-2120001D01*
X+1384301Y-2109101D01*
X+1333501Y-2058301D01*
X+1333501Y-2038349D01*
X+1314451Y-2038349D01*
X+1314451Y-1898651D01*
X+1479549Y-1898651D01*
X+1479549Y-1905001D01*
X+1584461Y-1905001D01*
X+1647961Y-1968501D01*
X+2038349Y-1968501D01*
X+2038349Y-2247899D01*
X+1780090Y-2247899D01*
X+1780090Y-2643912D01*
X+1693504Y-2730498D01*
X+1682749Y-2730498D01*
X+1682749Y-2795269D01*
X+1492251Y-2795269D01*
X+1492251Y-2284731D01*
X+1524001Y-2284731D01*
X+1524001Y-2247899D01*
X+1517651Y-2247899D01*
X+1517651Y-2146111D01*
X+1492063Y-2171699D01*
X+1428937Y-2171699D01*
X+1396999Y-2139761D01*
X+1396999Y-2190751D01*
X+1461769Y-2190751D01*
X+1461769Y-2381249D01*
X+1205231Y-2381249D01*
X+1205231Y-2190751D01*
X+1270001Y-2190751D01*
X+1270001Y-2185301D01*
X+1082041Y-1997341D01*
X+1082041Y-1676399D01*
X+1062991Y-1676399D01*
X+1062991Y-1498601D01*
X+1228089Y-1498601D01*
X+1228089Y-1676399D01*
X+1739899Y+1814823D02*
X+1739899Y+1205229D01*
X+2038349Y+1205229D01*
X+2038349Y+430531D01*
X+1263651Y+430531D01*
X+1263651Y+1205229D01*
X+1562101Y+1205229D01*
X+1562101Y+1814823D01*
X+1614177Y+1866899D01*
X+1687823Y+1866899D01*
X+1739899Y+1814823D01*
X+1536699Y-38099D02*
X+1485899Y-38099D01*
X+1485899Y-158751D01*
X+1492251Y-158751D01*
X+1492251Y-125731D01*
X+1682749Y-125731D01*
X+1682749Y-382269D01*
X+1492251Y-382269D01*
X+1492251Y-349249D01*
X+1268731Y-349249D01*
X+1268731Y-158751D01*
X+1358901Y-158751D01*
X+1358901Y-38099D01*
X+1308101Y-38099D01*
X+1308101Y+292099D01*
X+1536699Y+292099D01*
X+1536699Y-38099D01*
X+2247901Y+1773114D02*
X+2247901Y+1909886D01*
X+2344614Y+2006599D01*
X+2481386Y+2006599D01*
X+2578099Y+1909886D01*
X+2578099Y+1773114D01*
X+2481386Y+1676401D01*
X+2344614Y+1676401D01*
X+2247901Y+1773114D01*
X+5612129Y+1222791D02*
X+5309871Y+1222791D01*
X+5309871Y+1535209D01*
X+5612129Y+1535209D01*
X+5612129Y+1222791D01*
X+4906009Y+1253491D02*
X+4618991Y+1253491D01*
X+4618991Y+1540509D01*
X+4906009Y+1540509D01*
X+4906009Y+1253491D01*
X+4906009Y+803491D02*
X+4716213Y+803491D01*
X+4568899Y+656177D01*
X+4568899Y+494029D01*
X+4577789Y+494029D01*
X+4577789Y-113029D01*
X+4382211Y-113029D01*
X+4382211Y+45721D01*
X+4279899Y+45721D01*
X+4279899Y-30479D01*
X+4229099Y-30479D01*
X+4229099Y-125731D01*
X+4258749Y-125731D01*
X+4258749Y-382269D01*
X+4236999Y-382269D01*
X+4236999Y-633731D01*
X+4268749Y-633731D01*
X+4268749Y-890269D01*
X+4236999Y-890269D01*
X+4236999Y-991871D01*
X+4291769Y-991871D01*
X+4291769Y-1294129D01*
X+4190999Y-1294129D01*
X+4190999Y-1447801D01*
X+4324349Y-1447801D01*
X+4324349Y-1727199D01*
X+3916470Y-1727199D01*
X+3846620Y-1797049D01*
X+3765549Y-1797049D01*
X+3765549Y-1803399D01*
X+3600451Y-1803399D01*
X+3600451Y-1676399D01*
X+3536951Y-1676399D01*
X+3536951Y-1498601D01*
X+3702049Y-1498601D01*
X+3702049Y-1663701D01*
X+3765549Y-1663701D01*
X+3765549Y-1670051D01*
X+3794018Y-1670051D01*
X+3803077Y-1660992D01*
X+3803651Y-1652720D01*
X+3803651Y-1447801D01*
X+3810001Y-1447801D01*
X+3810001Y-1294129D01*
X+3745231Y-1294129D01*
X+3745231Y-991871D01*
X+3810001Y-991871D01*
X+3810001Y-890269D01*
X+3778251Y-890269D01*
X+3778251Y-639249D01*
X+3677551Y-639249D01*
X+3589019Y-727781D01*
X+3589019Y-1308101D01*
X+3608069Y-1308101D01*
X+3608069Y-1485899D01*
X+3442971Y-1485899D01*
X+3442971Y-1308101D01*
X+3462021Y-1308101D01*
X+3462021Y-675179D01*
X+3554731Y-582469D01*
X+3554731Y-448751D01*
X+3811269Y-448751D01*
X+3811269Y-478386D01*
X+3933561Y-478386D01*
X+4086016Y-630841D01*
X+4086016Y-633731D01*
X+4110001Y-633731D01*
X+4110001Y-382269D01*
X+4068251Y-382269D01*
X+4068251Y-125731D01*
X+4100001Y-125731D01*
X+4100001Y-100698D01*
X+4102101Y-98598D01*
X+4102101Y-30479D01*
X+4051301Y-30479D01*
X+4051301Y+299719D01*
X+4279899Y+299719D01*
X+4279899Y+223519D01*
X+4382211Y+223519D01*
X+4382211Y+494029D01*
X+4391101Y+494029D01*
X+4391101Y+729823D01*
X+4618991Y+957713D01*
X+4618991Y+1090509D01*
X+4906009Y+1090509D01*
X+4906009Y+803491D01*
X+3514089Y-1676399D02*
X+3495039Y-1676399D01*
X+3495039Y-1944739D01*
X+3670301Y-2120001D01*
X+3670301Y-2109101D01*
X+3619501Y-2058301D01*
X+3619501Y-2038349D01*
X+3600451Y-2038349D01*
X+3600451Y-1898651D01*
X+3765549Y-1898651D01*
X+3765549Y-1905002D01*
X+3862709Y-1905002D01*
X+3926208Y-1968501D01*
X+4324349Y-1968501D01*
X+4324349Y-2247899D01*
X+4063999Y-2247899D01*
X+4063999Y-2629801D01*
X+3968749Y-2725051D01*
X+3968749Y-2795269D01*
X+3778251Y-2795269D01*
X+3778251Y-2284731D01*
X+3810001Y-2284731D01*
X+3810001Y-2247899D01*
X+3803651Y-2247899D01*
X+3803651Y-2146111D01*
X+3778063Y-2171699D01*
X+3714937Y-2171699D01*
X+3682999Y-2139761D01*
X+3682999Y-2190751D01*
X+3747769Y-2190751D01*
X+3747769Y-2381249D01*
X+3491231Y-2381249D01*
X+3491231Y-2190751D01*
X+3556001Y-2190751D01*
X+3556001Y-2185301D01*
X+3368041Y-1997341D01*
X+3368041Y-1676399D01*
X+3348991Y-1676399D01*
X+3348991Y-1498601D01*
X+3514089Y-1498601D01*
X+3514089Y-1676399D01*
X+5075749Y-1779269D02*
X+5065749Y-1779269D01*
X+5065749Y-2030731D01*
X+5075749Y-2030731D01*
X+5075749Y-2287269D01*
X+4703251Y-2287269D01*
X+4703251Y-2161450D01*
X+4615809Y-2248892D01*
X+4603749Y-2248892D01*
X+4603749Y-2287269D01*
X+4571999Y-2287269D01*
X+4571999Y-2883802D01*
X+4571998Y-3217574D01*
X+4170073Y-3619499D01*
X+4071065Y-3619499D01*
X+3994865Y-3695699D01*
X+3879135Y-3695699D01*
X+3797301Y-3613865D01*
X+3797301Y-3498135D01*
X+3866436Y-3429000D01*
X+3797301Y-3359865D01*
X+3797301Y-3244135D01*
X+3866436Y-3175000D01*
X+3802935Y-3111499D01*
X+3720198Y-3111499D01*
X+3683001Y-3074301D01*
X+3556001Y-2947301D01*
X+3556001Y-2671249D01*
X+3491231Y-2671249D01*
X+3491231Y-2480751D01*
X+3747769Y-2480751D01*
X+3747769Y-2671249D01*
X+3682999Y-2671249D01*
X+3682999Y-2894699D01*
X+3772801Y-2984501D01*
X+3802935Y-2984501D01*
X+3879135Y-2908301D01*
X+3994865Y-2908301D01*
X+4076699Y-2990135D01*
X+4076699Y-3105865D01*
X+4007564Y-3175000D01*
X+4060558Y-3227994D01*
X+4093399Y-3195154D01*
X+4093399Y-2795269D01*
X+4068251Y-2795269D01*
X+4068251Y-2538731D01*
X+4078251Y-2538731D01*
X+4078251Y-2284731D01*
X+4268749Y-2284731D01*
X+4268749Y-2541269D01*
X+4258749Y-2541269D01*
X+4258749Y-2795269D01*
X+4220397Y-2795269D01*
X+4220397Y-3247756D01*
X+4102654Y-3365499D01*
X+4071065Y-3365499D01*
X+4007564Y-3429000D01*
X+4071065Y-3492501D01*
X+4117471Y-3492501D01*
X+4445002Y-3164970D01*
X+4445001Y-2287269D01*
X+4413251Y-2287269D01*
X+4413251Y-1522731D01*
X+4603749Y-1522731D01*
X+4603749Y-2081352D01*
X+4607018Y-2078083D01*
X+4607018Y-1683496D01*
X+4703013Y-1587501D01*
X+4713251Y-1587501D01*
X+4713251Y-1522731D01*
X+5075749Y-1522731D01*
X+5075749Y-1779269D01*
X+7478749Y-1776731D02*
X+7488749Y-1776731D01*
X+7488749Y-2287269D01*
X+7298251Y-2287269D01*
X+7298251Y-2222499D01*
X+7243249Y-2222499D01*
X+7243249Y-2287269D01*
X+7052751Y-2287269D01*
X+7052751Y-2126172D01*
X+6956424Y-2222499D01*
X+6953249Y-2222499D01*
X+6953249Y-2287269D01*
X+6921499Y-2287269D01*
X+6921499Y-2559239D01*
X+6953437Y-2527301D01*
X+7016563Y-2527301D01*
X+7029263Y-2540001D01*
X+7207250Y-2540002D01*
X+7403198Y-2540001D01*
X+8078565Y-2540001D01*
X+8219306Y-2399260D01*
X+8219306Y-2381298D01*
X+8263942Y-2336662D01*
X+8327068Y-2336662D01*
X+8371704Y-2381298D01*
X+8371704Y-2444424D01*
X+8327068Y-2489060D01*
X+8309106Y-2489060D01*
X+8131167Y-2666999D01*
X+7403198Y-2666999D01*
X+7207250Y-2666998D01*
X+7029263Y-2666999D01*
X+7016563Y-2679699D01*
X+6953437Y-2679699D01*
X+6921499Y-2647761D01*
X+6921499Y-2715922D01*
X+6884301Y-2753119D01*
X+6705275Y-2932145D01*
X+6705275Y-3354026D01*
X+6439802Y-3619499D01*
X+6357065Y-3619499D01*
X+6280865Y-3695699D01*
X+6165135Y-3695699D01*
X+6083301Y-3613865D01*
X+6083301Y-3498135D01*
X+6152436Y-3429000D01*
X+6083301Y-3359865D01*
X+6083301Y-3244135D01*
X+6152436Y-3175000D01*
X+6083301Y-3105865D01*
X+6083301Y-3061602D01*
X+6057901Y-3036201D01*
X+5905502Y-2883802D01*
X+5905502Y-2857500D01*
X+5905501Y-2671249D01*
X+5840731Y-2671249D01*
X+5840731Y-2480751D01*
X+6097269Y-2480751D01*
X+6097269Y-2671249D01*
X+6032499Y-2671249D01*
X+6032499Y-2706634D01*
X+6032498Y-2831198D01*
X+6137368Y-2936068D01*
X+6165135Y-2908301D01*
X+6280865Y-2908301D01*
X+6362699Y-2990135D01*
X+6362699Y-3105865D01*
X+6293564Y-3175000D01*
X+6357065Y-3238501D01*
X+6371323Y-3238501D01*
X+6449501Y-3160323D01*
X+6449501Y-2795269D01*
X+6417751Y-2795269D01*
X+6417751Y-2538731D01*
X+6427751Y-2538731D01*
X+6427751Y-2284731D01*
X+6618249Y-2284731D01*
X+6618249Y-2541269D01*
X+6608249Y-2541269D01*
X+6608249Y-2795269D01*
X+6576499Y-2795269D01*
X+6576499Y-3212925D01*
X+6423925Y-3365499D01*
X+6357065Y-3365499D01*
X+6293564Y-3429000D01*
X+6357065Y-3492501D01*
X+6387199Y-3492501D01*
X+6578277Y-3301423D01*
X+6578277Y-2879543D01*
X+6794501Y-2663319D01*
X+6794501Y-2287269D01*
X+6762751Y-2287269D01*
X+6762751Y-1776731D01*
X+6780251Y-1776731D01*
X+6780251Y-1522731D01*
X+6970749Y-1522731D01*
X+6970749Y-1664038D01*
X+7047286Y-1587501D01*
X+7080251Y-1587501D01*
X+7080251Y-1522731D01*
X+7270749Y-1522731D01*
X+7270749Y-1779269D01*
X+7253249Y-1779269D01*
X+7253249Y-2033269D01*
X+7243249Y-2033269D01*
X+7243249Y-2095501D01*
X+7298251Y-2095501D01*
X+7298251Y-1779269D01*
X+7288251Y-1779269D01*
X+7288251Y-1522731D01*
X+7478749Y-1522731D01*
X+7478749Y-1776731D01*
X+3822699Y-30479D02*
X+3771899Y-30479D01*
X+3771899Y-158751D01*
X+3778251Y-158751D01*
X+3778251Y-125731D01*
X+3968749Y-125731D01*
X+3968749Y-382269D01*
X+3778251Y-382269D01*
X+3778251Y-349249D01*
X+3554731Y-349249D01*
X+3554731Y-158751D01*
X+3644901Y-158751D01*
X+3644901Y-30479D01*
X+3594101Y-30479D01*
X+3594101Y+299719D01*
X+3822699Y+299719D01*
X+3822699Y-30479D01*
X+7192009Y+803491D02*
X+7065713Y+803491D01*
X+6918399Y+656177D01*
X+6918399Y+494029D01*
X+6927289Y+494029D01*
X+6927289Y-113029D01*
X+6731711Y-113029D01*
X+6731711Y+101601D01*
X+6603999Y+101601D01*
X+6603999Y-38099D01*
X+6540499Y-38099D01*
X+6540499Y-125731D01*
X+6572249Y-125731D01*
X+6572249Y-299351D01*
X+6586499Y-313601D01*
X+6586499Y-633731D01*
X+6618249Y-633731D01*
X+6618249Y-890269D01*
X+6576499Y-890269D01*
X+6576499Y-991871D01*
X+6641269Y-991871D01*
X+6641269Y-1294129D01*
X+6540499Y-1294129D01*
X+6540499Y-1447801D01*
X+6673849Y-1447801D01*
X+6673849Y-1727199D01*
X+6289333Y-1727199D01*
X+6289333Y-1727574D01*
X+6219858Y-1797049D01*
X+6115049Y-1797049D01*
X+6115049Y-1803399D01*
X+5949951Y-1803399D01*
X+5949951Y-1676399D01*
X+5886451Y-1676399D01*
X+5886451Y-1498601D01*
X+6051549Y-1498601D01*
X+6051549Y-1663701D01*
X+6115049Y-1663701D01*
X+6115049Y-1670051D01*
X+6153151Y-1670051D01*
X+6153151Y-1447801D01*
X+6159501Y-1447801D01*
X+6159502Y-1365250D01*
X+6159501Y-1294129D01*
X+6094731Y-1294129D01*
X+6094731Y-991871D01*
X+6159501Y-991871D01*
X+6159501Y-890269D01*
X+6127751Y-890269D01*
X+6127751Y-633731D01*
X+6288780Y-633731D01*
X+6264540Y-609491D01*
X+6097269Y-609491D01*
X+6097269Y-639249D01*
X+5963551Y-639249D01*
X+5938519Y-664281D01*
X+5938519Y-1308101D01*
X+5957569Y-1308101D01*
X+5957569Y-1485899D01*
X+5792471Y-1485899D01*
X+5792471Y-1308101D01*
X+5811521Y-1308101D01*
X+5811521Y-611679D01*
X+5840731Y-582469D01*
X+5840731Y-448751D01*
X+6097269Y-448751D01*
X+6097269Y-482493D01*
X+6317142Y-482493D01*
X+6435537Y-600888D01*
X+6435537Y-633731D01*
X+6459501Y-633731D01*
X+6459501Y-382269D01*
X+6381751Y-382269D01*
X+6381751Y-125731D01*
X+6413501Y-125731D01*
X+6413501Y-38099D01*
X+6375401Y-38099D01*
X+6375401Y+292099D01*
X+6603999Y+292099D01*
X+6603999Y+279399D01*
X+6731711Y+279399D01*
X+6731711Y+494029D01*
X+6740601Y+494029D01*
X+6740601Y+729823D01*
X+6904991Y+894213D01*
X+6904991Y+1090509D01*
X+7192009Y+1090509D01*
X+7192009Y+803491D01*
X+5863589Y-1676399D02*
X+5844539Y-1676399D01*
X+5844539Y-2071739D01*
X+5963551Y-2190751D01*
X+6097269Y-2190751D01*
X+6097269Y-2381249D01*
X+5840731Y-2381249D01*
X+5840731Y-2247531D01*
X+5717541Y-2124341D01*
X+5717541Y-1676399D01*
X+5698491Y-1676399D01*
X+5698491Y-1498601D01*
X+5863589Y-1498601D01*
X+5863589Y-1676399D01*
X+5837699Y+2213436D02*
X+6022991Y+2028144D01*
X+6022991Y+1205229D01*
X+6648449Y+1205229D01*
X+6648449Y+430531D01*
X+5873751Y+430531D01*
X+5873751Y+1079507D01*
X+5845193Y+1108065D01*
X+5845193Y+1954498D01*
X+5685939Y+2113752D01*
X+5685939Y+2187398D01*
X+5738015Y+2239474D01*
X+5811661Y+2239474D01*
X+5837699Y+2213436D01*
X+6146799Y-38099D02*
X+6095999Y-38099D01*
X+6095999Y-125731D01*
X+6282249Y-125731D01*
X+6282249Y-382269D01*
X+6091751Y-382269D01*
X+6091751Y-349249D01*
X+5840731Y-349249D01*
X+5840731Y-158751D01*
X+5969001Y-158751D01*
X+5969001Y-38099D01*
X+5918201Y-38099D01*
X+5918201Y+292099D01*
X+6146799Y+292099D01*
X+6146799Y-38099D01*
X+4597401Y+1773114D02*
X+4597401Y+1909886D01*
X+4694114Y+2006599D01*
X+4830886Y+2006599D01*
X+4927599Y+1909886D01*
X+4927599Y+1773114D01*
X+4830886Y+1676401D01*
X+4694114Y+1676401D01*
X+4597401Y+1773114D01*
X+7764586Y+1930399D02*
X+7796722Y+1930399D01*
X+8216899Y+1510222D01*
X+8216899Y+69133D01*
X+8089309Y-58457D01*
X+8018779Y-58457D01*
X+8018779Y-75329D01*
X+7911656Y-75329D01*
X+8002146Y-112999D01*
X+8023488Y-145000D01*
X+8023488Y-374376D01*
X+7986291Y-411573D01*
X+7933687Y-411573D01*
X+7930613Y-408499D01*
X+7811769Y-408499D01*
X+7811769Y-440249D01*
X+7555231Y-440249D01*
X+7555231Y-430249D01*
X+7470051Y-430249D01*
X+7360549Y-539751D01*
X+7811769Y-539751D01*
X+7811769Y-730249D01*
X+7797799Y-730249D01*
X+7797799Y-946151D01*
X+7886699Y-946151D01*
X+7886699Y-1466849D01*
X+7766951Y-1466849D01*
X+7746999Y-1486801D01*
X+7746999Y-1522731D01*
X+7778749Y-1522731D01*
X+7778749Y-2287269D01*
X+7616049Y-2287269D01*
X+7616049Y-2347202D01*
X+7486752Y-2476499D01*
X+7092763Y-2476499D01*
X+7080063Y-2489199D01*
X+7016937Y-2489199D01*
X+6972301Y-2444563D01*
X+6972301Y-2381437D01*
X+7016937Y-2336801D01*
X+7080063Y-2336801D01*
X+7092763Y-2349501D01*
X+7434150Y-2349501D01*
X+7489051Y-2294600D01*
X+7489051Y-1165351D01*
X+7466698Y-1142999D01*
X+7429501Y-1105802D01*
X+7429501Y-953769D01*
X+7365999Y-953769D01*
X+7365999Y-1466849D01*
X+7086601Y-1466849D01*
X+7086601Y-953769D01*
X+6953251Y-953769D01*
X+6953251Y-730249D01*
X+6793231Y-730249D01*
X+6793231Y-539751D01*
X+6926949Y-539751D01*
X+7036451Y-430249D01*
X+6793231Y-430249D01*
X+6793231Y-239751D01*
X+7049769Y-239751D01*
X+7049769Y-249751D01*
X+7180949Y-249751D01*
X+7331711Y-98989D01*
X+7331711Y+494029D01*
X+7340601Y+494029D01*
X+7340601Y+509823D01*
X+7554677Y+723899D01*
X+7602221Y+723899D01*
X+7602221Y+735329D01*
X+7721601Y+735329D01*
X+7721601Y+750791D01*
X+7659371Y+750791D01*
X+7659371Y+1063209D01*
X+7961629Y+1063209D01*
X+7961629Y+750791D01*
X+7899399Y+750791D01*
X+7899399Y+735329D01*
X+8018779Y+735329D01*
X+8018779Y+534671D01*
X+7616893Y+534671D01*
X+7527289Y+445067D01*
X+7527289Y-113029D01*
X+7492999Y-113029D01*
X+7492999Y-117301D01*
X+7370549Y-239751D01*
X+7557769Y-239751D01*
X+7557769Y-249751D01*
X+7811769Y-249751D01*
X+7811769Y-281501D01*
X+7896490Y-281501D01*
X+7896490Y-206577D01*
X+7768343Y-153231D01*
X+7747001Y-121230D01*
X+7747001Y-75329D01*
X+7602221Y-75329D01*
X+7602221Y+125329D01*
X+8018779Y+125329D01*
X+8018779Y+122457D01*
X+8039101Y+142779D01*
X+8039101Y+1436576D01*
X+7961629Y+1514048D01*
X+7961629Y+1240791D01*
X+7659371Y+1240791D01*
X+7659371Y+1553209D01*
X+7922468Y+1553209D01*
X+7743831Y+1731846D01*
X+7688386Y+1676401D01*
X+7551614Y+1676401D01*
X+7454901Y+1773114D01*
X+7454901Y+1909886D01*
X+7551614Y+2006599D01*
X+7688386Y+2006599D01*
X+7764586Y+1930399D01*
X+6946901Y+1773114D02*
X+6946901Y+1909886D01*
X+7043614Y+2006599D01*
X+7180386Y+2006599D01*
X+7277099Y+1909886D01*
X+7277099Y+1773114D01*
X+7180386Y+1676401D01*
X+7043614Y+1676401D01*
X+6946901Y+1773114D01*
X+6115049Y-1905001D02*
X+6208194Y-1905001D01*
X+6271694Y-1968501D01*
X+6673849Y-1968501D01*
X+6673849Y-2247899D01*
X+6413499Y-2247899D01*
X+6413499Y-2629801D01*
X+6318249Y-2725051D01*
X+6318249Y-2795269D01*
X+6127751Y-2795269D01*
X+6127751Y-2284731D01*
X+6159501Y-2284731D01*
X+6159501Y-2247899D01*
X+6153151Y-2247899D01*
X+6153151Y-2031999D01*
X+6115049Y-2031999D01*
X+6115049Y-2038349D01*
X+6095999Y-2038349D01*
X+6095999Y-2051237D01*
X+6108699Y-2063937D01*
X+6108699Y-2127063D01*
X+6064063Y-2171699D01*
X+6000937Y-2171699D01*
X+5956301Y-2127063D01*
X+5956301Y-2063937D01*
X+5969001Y-2051237D01*
X+5969001Y-2038349D01*
X+5949951Y-2038349D01*
X+5949951Y-1898651D01*
X+6115049Y-1898651D01*
X+6115049Y-1905001D01*
X+7192009Y+1253491D02*
X+6904991Y+1253491D01*
X+6904991Y+1540509D01*
X+7192009Y+1540509D01*
X+7192009Y+1253491D01*
X+7246065Y-2984501D02*
X+7429500Y-2984502D01*
X+7702737Y-2984501D01*
X+7715437Y-2971801D01*
X+7778563Y-2971801D01*
X+7823199Y-3016437D01*
X+7823199Y-3079563D01*
X+7778563Y-3124199D01*
X+7715437Y-3124199D01*
X+7702737Y-3111499D01*
X+7429500Y-3111498D01*
X+7246065Y-3111499D01*
X+7182564Y-3175000D01*
X+7246065Y-3238501D01*
X+7299346Y-3238501D01*
X+7299346Y-3231361D01*
X+7358861Y-3171846D01*
X+7443029Y-3171846D01*
X+7502544Y-3231361D01*
X+7502544Y-3315529D01*
X+7491806Y-3326267D01*
X+7491806Y-3327108D01*
X+7453415Y-3365499D01*
X+7452574Y-3365499D01*
X+7443029Y-3375044D01*
X+7358861Y-3375044D01*
X+7349316Y-3365499D01*
X+7246065Y-3365499D01*
X+7182564Y-3429000D01*
X+7251699Y-3498135D01*
X+7251699Y-3613865D01*
X+7169865Y-3695699D01*
X+7054135Y-3695699D01*
X+6977935Y-3619499D01*
X+6938184Y-3619499D01*
X+6900084Y-3657599D01*
X+6815916Y-3657599D01*
X+6756401Y-3598084D01*
X+6756401Y-3513916D01*
X+6815916Y-3454401D01*
X+6900084Y-3454401D01*
X+6938184Y-3492501D01*
X+6977935Y-3492501D01*
X+7041436Y-3429000D01*
X+6972301Y-3359865D01*
X+6972301Y-3244135D01*
X+7041436Y-3175000D01*
X+6972301Y-3105865D01*
X+6972301Y-2990135D01*
X+7054135Y-2908301D01*
X+7169865Y-2908301D01*
X+7246065Y-2984501D01*
X+6502401Y+1773114D02*
X+6502401Y+1909886D01*
X+6599114Y+2006599D01*
X+6735886Y+2006599D01*
X+6832599Y+1909886D01*
X+6832599Y+1773114D01*
X+6735886Y+1676401D01*
X+6599114Y+1676401D01*
X+6502401Y+1773114D01*
X+6057901Y+1773114D02*
X+6057901Y+1909886D01*
X+6154614Y+2006599D01*
X+6291386Y+2006599D01*
X+6388099Y+1909886D01*
X+6388099Y+1773114D01*
X+6291386Y+1676401D01*
X+6154614Y+1676401D01*
X+6057901Y+1773114D01*
X-4476751Y-2477769D02*
X-4476751Y-2731769D01*
X-4508501Y-2731769D01*
X-4508502Y-3466198D01*
X-4482199Y-3492501D01*
X-4388565Y-3492501D01*
X-4325064Y-3429000D01*
X-4394199Y-3359865D01*
X-4394199Y-3244135D01*
X-4325064Y-3175000D01*
X-4394199Y-3105865D01*
X-4394199Y-2990135D01*
X-4317999Y-2913935D01*
X-4317999Y-2888713D01*
X-4330699Y-2876013D01*
X-4330699Y-2812887D01*
X-4286063Y-2768251D01*
X-4222937Y-2768251D01*
X-4178301Y-2812887D01*
X-4178301Y-2876013D01*
X-4191001Y-2888713D01*
X-4191001Y-2913935D01*
X-4114801Y-2990135D01*
X-4114801Y-3105865D01*
X-4183936Y-3175000D01*
X-4120435Y-3238501D01*
X-4044763Y-3238501D01*
X-4032063Y-3225801D01*
X-3968937Y-3225801D01*
X-3924301Y-3270437D01*
X-3924301Y-3333563D01*
X-3968937Y-3378199D01*
X-4032063Y-3378199D01*
X-4044763Y-3365499D01*
X-4120435Y-3365499D01*
X-4183936Y-3429000D01*
X-4114801Y-3498135D01*
X-4114801Y-3613865D01*
X-4196635Y-3695699D01*
X-4312365Y-3695699D01*
X-4388565Y-3619499D01*
X-4534801Y-3619499D01*
X-4635498Y-3518802D01*
X-4635498Y-3492500D01*
X-4635499Y-2731769D01*
X-4667249Y-2731769D01*
X-4667249Y-2666999D01*
X-4697731Y-2666999D01*
X-4697731Y-2744749D01*
X-4954269Y-2744749D01*
X-4954269Y-2734749D01*
X-5208269Y-2734749D01*
X-5208269Y-2544251D01*
X-5074551Y-2544251D01*
X-5070301Y-2540001D01*
X-4667249Y-2540001D01*
X-4667249Y-2221231D01*
X-4476751Y-2221231D01*
X-4476751Y-2477769D01*
X-4686299Y-1828801D02*
X-4457701Y-1828801D01*
X-4457701Y-2108199D01*
X-4686299Y-2108199D01*
X-4686299Y-1828801D01*
X-4305301Y-793937D02*
X-4305301Y-857063D01*
X-4318001Y-869763D01*
X-4318001Y-951231D01*
X-4286251Y-951231D01*
X-4286251Y-952502D01*
X-3917763Y-952501D01*
X-3905063Y-939801D01*
X-3841937Y-939801D01*
X-3797301Y-984437D01*
X-3797301Y-1047563D01*
X-3841937Y-1092199D01*
X-3905063Y-1092199D01*
X-3917763Y-1079499D01*
X-4286251Y-1079498D01*
X-4286251Y-1084949D01*
X-4277361Y-1093839D01*
X-4277361Y-1198881D01*
X-4112261Y-1198881D01*
X-4112261Y-1478279D01*
X-4277361Y-1478279D01*
X-4277362Y-1653540D01*
X-4277361Y-1828801D01*
X-4226561Y-1828801D01*
X-4226561Y-2108199D01*
X-4455159Y-2108199D01*
X-4455159Y-1828801D01*
X-4404359Y-1828801D01*
X-4404358Y-1653540D01*
X-4404359Y-1478279D01*
X-4569459Y-1478279D01*
X-4569459Y-1402079D01*
X-4865371Y-1402079D01*
X-4865371Y-1616709D01*
X-5167629Y-1616709D01*
X-5167629Y-1304291D01*
X-4950091Y-1304291D01*
X-4920881Y-1275081D01*
X-4569459Y-1275081D01*
X-4569459Y-1198881D01*
X-4476749Y-1198881D01*
X-4476749Y-951231D01*
X-4444999Y-951231D01*
X-4444999Y-869763D01*
X-4457699Y-857063D01*
X-4457699Y-793937D01*
X-4413063Y-749301D01*
X-4349937Y-749301D01*
X-4305301Y-793937D01*
X-4776749Y-951231D02*
X-4586251Y-951231D01*
X-4586251Y-1207769D01*
X-4776749Y-1207769D01*
X-4776749Y-951231D01*
X-5167629Y-1794291D02*
X-4865371Y-1794291D01*
X-4865371Y-2106709D01*
X-5167629Y-2106709D01*
X-5167629Y-1794291D01*
X-5889209Y+737871D02*
X-5889209Y+1040129D01*
X-5576791Y+1040129D01*
X-5576791Y+737871D01*
X-5889209Y+737871D01*
X-5889209Y-151129D02*
X-5889209Y+151129D01*
X-5576791Y+151129D01*
X-5576791Y-151129D01*
X-5889209Y-151129D01*
X-5889209Y-1040129D02*
X-5889209Y-737871D01*
X-5576791Y-737871D01*
X-5576791Y-1040129D01*
X-5889209Y-1040129D01*
X-5889209Y-1992629D02*
X-5889209Y-1690371D01*
X-5576791Y-1690371D01*
X-5576791Y-1992629D01*
X-5889209Y-1992629D01*
X-6515099Y-3920096D02*
X-6515099Y-3572904D01*
X-6269596Y-3327401D01*
X-5922404Y-3327401D01*
X-5676901Y-3572904D01*
X-5676901Y-3920096D01*
X-5922404Y-4165599D01*
X-6269596Y-4165599D01*
X-6515099Y-3920096D01*
X-6515099Y+2239404D02*
X-6515099Y+2586596D01*
X-6269596Y+2832099D01*
X-5922404Y+2832099D01*
X-5676901Y+2586596D01*
X-5676901Y+2239404D01*
X-5922404Y+1993901D01*
X-6269596Y+1993901D01*
X-6515099Y+2239404D01*
X+7581901Y+2239404D02*
X+7581901Y+2586596D01*
X+7827404Y+2832099D01*
X+8174596Y+2832099D01*
X+8420099Y+2586596D01*
X+8420099Y+2239404D01*
X+8174596Y+1993901D01*
X+7827404Y+1993901D01*
X+7581901Y+2239404D01*
X+7581901Y-3920096D02*
X+7581901Y-3572904D01*
X+7827404Y-3327401D01*
X+8174596Y-3327401D01*
X+8420099Y-3572904D01*
X+8420099Y-3920096D01*
X+8174596Y-4165599D01*
X+7827404Y-4165599D01*
X+7581901Y-3920096D01*
X-4470401Y+1909886D02*
X-4470401Y+1773114D01*
X-4546601Y+1696914D01*
X-4546601Y+1424205D01*
X-4508501Y+1386105D01*
X-4508501Y+1280895D01*
X-4582895Y+1206501D01*
X-4688105Y+1206501D01*
X-4762499Y+1280895D01*
X-4762499Y+1386105D01*
X-4724399Y+1424205D01*
X-4724399Y+1696914D01*
X-4800599Y+1773114D01*
X-4800599Y+1909886D01*
X-4703886Y+2006599D01*
X-4567114Y+2006599D01*
X-4470401Y+1909886D01*
X-3200401Y+1909886D02*
X-3200401Y+1773114D01*
X-3276601Y+1696914D01*
X-3276601Y+1424205D01*
X-3238501Y+1386105D01*
X-3238501Y+1280895D01*
X-3312895Y+1206501D01*
X-3418105Y+1206501D01*
X-3492499Y+1280895D01*
X-3492499Y+1386105D01*
X-3454399Y+1424205D01*
X-3454399Y+1696914D01*
X-3530599Y+1773114D01*
X-3530599Y+1909886D01*
X-3433886Y+2006599D01*
X-3297114Y+2006599D01*
X-3200401Y+1909886D01*
X+2737565Y-3111501D02*
X+2762250Y-3111502D01*
X+2804895Y-3111501D01*
X+2868395Y-3048001D01*
X+2973605Y-3048001D01*
X+3047999Y-3122395D01*
X+3047999Y-3227605D01*
X+2973605Y-3301999D01*
X+2868395Y-3301999D01*
X+2804895Y-3238499D01*
X+2762250Y-3238498D01*
X+2737565Y-3238499D01*
X+2674064Y-3302000D01*
X+2737565Y-3365501D01*
X+2762250Y-3365502D01*
X+2804895Y-3365501D01*
X+2868395Y-3302001D01*
X+2973605Y-3302001D01*
X+3047999Y-3376395D01*
X+3047999Y-3481605D01*
X+2973605Y-3555999D01*
X+2868395Y-3555999D01*
X+2804895Y-3492499D01*
X+2762250Y-3492498D01*
X+2737565Y-3492499D01*
X+2674064Y-3556000D01*
X+2737565Y-3619501D01*
X+2762250Y-3619502D01*
X+2804895Y-3619501D01*
X+2868395Y-3556001D01*
X+2973605Y-3556001D01*
X+3047999Y-3630395D01*
X+3047999Y-3735605D01*
X+2973605Y-3809999D01*
X+2868395Y-3809999D01*
X+2804895Y-3746499D01*
X+2762250Y-3746498D01*
X+2737565Y-3746499D01*
X+2661365Y-3822699D01*
X+2545635Y-3822699D01*
X+2463801Y-3740865D01*
X+2463801Y-3625135D01*
X+2532936Y-3556000D01*
X+2463801Y-3486865D01*
X+2463801Y-3371135D01*
X+2532936Y-3302000D01*
X+2463801Y-3232865D01*
X+2463801Y-3117135D01*
X+2545635Y-3035301D01*
X+2661365Y-3035301D01*
X+2737565Y-3111501D01*
X-4697731Y-2444749D02*
X-5208269Y-2444749D01*
X-5208269Y-2254251D01*
X-4697731Y-2254251D01*
X-4697731Y-2444749D01*
X-5111750Y-76651D02*
X-5111750Y-50349D01*
X-5093151Y-31750D01*
X-5066849Y-31750D01*
X-5048250Y-50349D01*
X-5048250Y-76651D01*
X-5066849Y-95250D01*
X-5093151Y-95250D01*
X-5111750Y-76651D01*
X+6438900Y+1651403D02*
X+6438900Y+1682967D01*
X+6461218Y+1705285D01*
X+6492782Y+1705285D01*
X+6515100Y+1682967D01*
X+6515100Y+1651403D01*
X+6492782Y+1629085D01*
X+6461218Y+1629085D01*
X+6438900Y+1651403D01*
X+4425851Y+1574349D02*
X+4425851Y+1600651D01*
X+4444450Y+1619250D01*
X+4470752Y+1619250D01*
X+4489351Y+1600651D01*
X+4489351Y+1574349D01*
X+4470752Y+1555750D01*
X+4444450Y+1555750D01*
X+4425851Y+1574349D01*
X-3333750Y-76651D02*
X-3333750Y-50349D01*
X-3315151Y-31750D01*
X-3288849Y-31750D01*
X-3270250Y-50349D01*
X-3270250Y-76651D01*
X-3288849Y-95250D01*
X-3315151Y-95250D01*
X-3333750Y-76651D01*
X-3524250Y-1918151D02*
X-3524250Y-1891849D01*
X-3505651Y-1873250D01*
X-3479349Y-1873250D01*
X-3460750Y-1891849D01*
X-3460750Y-1918151D01*
X-3479349Y-1936750D01*
X-3505651Y-1936750D01*
X-3524250Y-1918151D01*
X-3270250Y-1918151D02*
X-3270250Y-1891849D01*
X-3251651Y-1873250D01*
X-3225349Y-1873250D01*
X-3206750Y-1891849D01*
X-3206750Y-1918151D01*
X-3225349Y-1936750D01*
X-3251651Y-1936750D01*
X-3270250Y-1918151D01*
X+4699001Y-946151D02*
X+4684749Y-946151D01*
X+4684749Y-730249D01*
X+4699001Y-730249D01*
X+4699001Y-946151D01*
X+2463801Y-946151D02*
X+2462249Y-946151D01*
X+2462249Y-702749D01*
X+2463801Y-702749D01*
X+2463801Y-946151D01*
X+177801Y-946151D02*
X+176249Y-946151D01*
X+176249Y-730249D01*
X+177802Y-730249D01*
X+177801Y-946151D01*
X-2108199Y-946151D02*
X-2127251Y-946151D01*
X-2127251Y-730249D01*
X-2108199Y-730249D01*
X-2108199Y-946151D01*
X+7162801Y-946151D02*
X+7143749Y-946151D01*
X+7143749Y-730249D01*
X+7162801Y-730249D01*
X+7162801Y-946151D01*
X-6451599Y-2921000D02*
X-6223000Y-2921000D01*
X-5994401Y-2921000D02*
X-6223000Y-2921000D01*
X-6223000Y-3149599D02*
X-6223000Y-2921000D01*
X-2260599Y+1841500D02*
X-2095500Y+1841500D01*
X-1930401Y+1841500D02*
X-2095500Y+1841500D01*
X-2095500Y+1676401D02*
X-2095500Y+1841500D01*
X-2095500Y+2006599D02*
X-2095500Y+1841500D01*
X-4259579Y-190500D02*
X-4145280Y-190500D01*
X-4030981Y-190500D02*
X-4145280Y-190500D01*
X-4145280Y-330199D02*
X-4145280Y-190500D01*
X-4145280Y-50801D02*
X-4145280Y-190500D01*
X-4078249Y+698500D02*
X-3983000Y+698500D01*
X-3887751Y+698500D02*
X-3983000Y+698500D01*
X-3983000Y+826769D02*
X-3983000Y+698500D01*
X-4309389Y-571500D02*
X-4214140Y-571500D01*
X-4118891Y-571500D02*
X-4214140Y-571500D01*
X-4214140Y-699769D02*
X-4214140Y-571500D01*
X-4214140Y-443231D02*
X-4214140Y-571500D01*
X-1951991Y+1339000D02*
X-2095500Y+1339000D01*
X-2239009Y+1339000D02*
X-2095500Y+1339000D01*
X-2095500Y+1482509D02*
X-2095500Y+1339000D01*
X-2095500Y+1195491D02*
X-2095500Y+1339000D01*
X-1309371Y+1379000D02*
X-1460500Y+1379000D01*
X-1611629Y+1379000D02*
X-1460500Y+1379000D01*
X-1460500Y+1535209D02*
X-1460500Y+1379000D01*
X-1460500Y+1222791D02*
X-1460500Y+1379000D01*
X-4420871Y+426500D02*
X-4572000Y+426500D01*
X-4723129Y+426500D02*
X-4572000Y+426500D01*
X-4572000Y+582709D02*
X-4572000Y+426500D01*
X-4572000Y+270291D02*
X-4572000Y+426500D01*
X-2470151Y-2108200D02*
X-2540000Y-2108200D01*
X-2540000Y-1968501D02*
X-2540000Y-2108200D01*
X-2540000Y-2247899D02*
X-2540000Y-2108200D01*
X-2716249Y-2413000D02*
X-2621000Y-2413000D01*
X-2525751Y-2413000D02*
X-2621000Y-2413000D01*
X-2621000Y-2284731D02*
X-2621000Y-2413000D01*
X-3092451Y-1587500D02*
X-3175000Y-1587500D01*
X-3257549Y-1587500D02*
X-3175000Y-1587500D01*
X-3175000Y-1498601D02*
X-3175000Y-1587500D01*
X-1905001Y-1143000D02*
X-2044700Y-1143000D01*
X-2184399Y-1143000D02*
X-2044700Y-1143000D01*
X-1905001Y-1270000D02*
X-2044700Y-1270000D01*
X-2184399Y-1270000D02*
X-2044700Y-1270000D01*
X-2317749Y-825500D02*
X-2222500Y-825500D01*
X-2127251Y-825500D02*
X-2222500Y-825500D01*
X-2222500Y-953769D02*
X-2222500Y-825500D01*
X-1936749Y-1651000D02*
X-1841500Y-1651000D01*
X-1841500Y-1522731D02*
X-1841500Y-1651000D01*
X-2444749Y-1651000D02*
X-2349500Y-1651000D01*
X-2254251Y-1651000D02*
X-2349500Y-1651000D01*
X-2349500Y-1522731D02*
X-2349500Y-1651000D01*
X-2444749Y-1905000D02*
X-2349500Y-1905000D01*
X-1936749Y-1905000D02*
X-1841500Y-1905000D01*
X-2349500Y-239751D02*
X-2349500Y-335000D01*
X-2349500Y-430249D02*
X-2349500Y-335000D01*
X-2477769Y-335000D02*
X-2349500Y-335000D01*
X+270509Y+1397000D02*
X+127000Y+1397000D01*
X-16509Y+1397000D02*
X+127000Y+1397000D01*
X+127000Y+1540509D02*
X+127000Y+1397000D01*
X+127000Y+1253491D02*
X+127000Y+1397000D01*
X+976629Y+1397000D02*
X+825500Y+1397000D01*
X+674371Y+1397000D02*
X+825500Y+1397000D01*
X+825500Y+1553209D02*
X+825500Y+1397000D01*
X+825500Y+1240791D02*
X+825500Y+1397000D01*
X+380999Y-1143000D02*
X+241300Y-1143000D01*
X+101601Y-1143000D02*
X+241300Y-1143000D01*
X+380999Y-1270000D02*
X+241300Y-1270000D01*
X+101601Y-1270000D02*
X+241300Y-1270000D01*
X-869951Y-1587500D02*
X-952500Y-1587500D01*
X-1035049Y-1587500D02*
X-952500Y-1587500D01*
X-952500Y-1498601D02*
X-952500Y-1587500D01*
X-247651Y-2108200D02*
X-317500Y-2108200D01*
X-317500Y-1968501D02*
X-317500Y-2108200D01*
X-317500Y-2247899D02*
X-317500Y-2108200D01*
X-476249Y-2413000D02*
X-381000Y-2413000D01*
X-285751Y-2413000D02*
X-381000Y-2413000D01*
X-381000Y-2284731D02*
X-381000Y-2413000D01*
X+0Y-249751D02*
X+0Y-345000D01*
X+0Y-440249D02*
X+0Y-345000D01*
X-128269Y-345000D02*
X+0Y-345000D01*
X+176249Y-825500D02*
X+81000Y-825500D01*
X-14249Y-825500D02*
X+81000Y-825500D01*
X+81000Y-953769D02*
X+81000Y-825500D01*
X+31749Y-1651000D02*
X-63500Y-1651000D01*
X-158749Y-1651000D02*
X-63500Y-1651000D01*
X-63500Y-1522731D02*
X-63500Y-1651000D01*
X-158749Y-1905000D02*
X-63500Y-1905000D01*
X+349251Y-1651000D02*
X+444500Y-1651000D01*
X+444500Y-1522731D02*
X+444500Y-1651000D01*
X+349251Y-1905000D02*
X+444500Y-1905000D01*
X-38099Y+1841500D02*
X+127000Y+1841500D01*
X+292099Y+1841500D02*
X+127000Y+1841500D01*
X+127000Y+1676401D02*
X+127000Y+1841500D01*
X+127000Y+2006599D02*
X+127000Y+1841500D01*
X+3262629Y+1379000D02*
X+3111500Y+1379000D01*
X+2960371Y+1379000D02*
X+3111500Y+1379000D01*
X+3111500Y+1535209D02*
X+3111500Y+1379000D01*
X+3111500Y+1222791D02*
X+3111500Y+1379000D01*
X+2556509Y+1397000D02*
X+2413000Y+1397000D01*
X+2269491Y+1397000D02*
X+2413000Y+1397000D01*
X+2413000Y+1540509D02*
X+2413000Y+1397000D01*
X+2413000Y+1253491D02*
X+2413000Y+1397000D01*
X+1416049Y-1587500D02*
X+1333500Y-1587500D01*
X+1250951Y-1587500D02*
X+1333500Y-1587500D01*
X+1333500Y-1498601D02*
X+1333500Y-1587500D01*
X+2666999Y-1143000D02*
X+2527300Y-1143000D01*
X+2387601Y-1143000D02*
X+2527300Y-1143000D01*
X+2666999Y-1270000D02*
X+2527300Y-1270000D01*
X+2387601Y-1270000D02*
X+2527300Y-1270000D01*
X+2038349Y-2108200D02*
X+1968500Y-2108200D01*
X+1968500Y-1968501D02*
X+1968500Y-2108200D01*
X+1968500Y-2247899D02*
X+1968500Y-2108200D01*
X+2247901Y+1841500D02*
X+2413000Y+1841500D01*
X+2578099Y+1841500D02*
X+2413000Y+1841500D01*
X+2413000Y+1676401D02*
X+2413000Y+1841500D01*
X+2413000Y+2006599D02*
X+2413000Y+1841500D01*
X+1792251Y-2413000D02*
X+1887500Y-2413000D01*
X+1982749Y-2413000D02*
X+1887500Y-2413000D01*
X+1887500Y-2284731D02*
X+1887500Y-2413000D01*
X+2222500Y-222251D02*
X+2222500Y-317500D01*
X+2222500Y-412749D02*
X+2222500Y-317500D01*
X+2094231Y-317500D02*
X+2222500Y-317500D01*
X+2271751Y-825500D02*
X+2367000Y-825500D01*
X+2462249Y-825500D02*
X+2367000Y-825500D01*
X+2367000Y-953769D02*
X+2367000Y-825500D01*
X+2635251Y-1651000D02*
X+2730500Y-1651000D01*
X+2730500Y-1522731D02*
X+2730500Y-1651000D01*
X+2144751Y-1905000D02*
X+2240000Y-1905000D01*
X+2335249Y-1905000D02*
X+2240000Y-1905000D01*
X+2635251Y-1905000D02*
X+2730500Y-1905000D01*
X+2144751Y-1651000D02*
X+2240000Y-1651000D01*
X+2335249Y-1651000D02*
X+2240000Y-1651000D01*
X+2240000Y-1522731D02*
X+2240000Y-1651000D01*
X+5612129Y+1379000D02*
X+5461000Y+1379000D01*
X+5309871Y+1379000D02*
X+5461000Y+1379000D01*
X+5461000Y+1535209D02*
X+5461000Y+1379000D01*
X+5461000Y+1222791D02*
X+5461000Y+1379000D01*
X+4906009Y+1397000D02*
X+4762500Y+1397000D01*
X+4618991Y+1397000D02*
X+4762500Y+1397000D01*
X+4762500Y+1540509D02*
X+4762500Y+1397000D01*
X+4762500Y+1253491D02*
X+4762500Y+1397000D01*
X+3702049Y-1587500D02*
X+3619500Y-1587500D01*
X+3536951Y-1587500D02*
X+3619500Y-1587500D01*
X+3619500Y-1498601D02*
X+3619500Y-1587500D01*
X+6051549Y-1587500D02*
X+5969000Y-1587500D01*
X+5886451Y-1587500D02*
X+5969000Y-1587500D01*
X+5969000Y-1498601D02*
X+5969000Y-1587500D01*
X+4597401Y+1841500D02*
X+4762500Y+1841500D01*
X+4927599Y+1841500D02*
X+4762500Y+1841500D01*
X+4762500Y+1676401D02*
X+4762500Y+1841500D01*
X+4762500Y+2006599D02*
X+4762500Y+1841500D01*
X+6946901Y+1841500D02*
X+7112000Y+1841500D01*
X+7277099Y+1841500D02*
X+7112000Y+1841500D01*
X+7112000Y+1676401D02*
X+7112000Y+1841500D01*
X+7112000Y+2006599D02*
X+7112000Y+1841500D01*
X+4952999Y-1143000D02*
X+4813300Y-1143000D01*
X+4673601Y-1143000D02*
X+4813300Y-1143000D01*
X+4952999Y-1270000D02*
X+4813300Y-1270000D01*
X+4673601Y-1270000D02*
X+4813300Y-1270000D01*
X+4324349Y-2108200D02*
X+4254500Y-2108200D01*
X+4254500Y-1968501D02*
X+4254500Y-2108200D01*
X+4254500Y-2247899D02*
X+4254500Y-2108200D01*
X+7365999Y-1143000D02*
X+7226300Y-1143000D01*
X+7086601Y-1143000D02*
X+7226300Y-1143000D01*
X+7365999Y-1270000D02*
X+7226300Y-1270000D01*
X+7086601Y-1270000D02*
X+7226300Y-1270000D01*
X+6673849Y-2108200D02*
X+6604000Y-2108200D01*
X+6604000Y-1968501D02*
X+6604000Y-2108200D01*
X+6604000Y-2247899D02*
X+6604000Y-2108200D01*
X+4078251Y-2413000D02*
X+4173500Y-2413000D01*
X+4268749Y-2413000D02*
X+4173500Y-2413000D01*
X+4173500Y-2284731D02*
X+4173500Y-2413000D01*
X+4494251Y-825500D02*
X+4589500Y-825500D01*
X+4684749Y-825500D02*
X+4589500Y-825500D01*
X+4589500Y-953769D02*
X+4589500Y-825500D01*
X+4508500Y-239751D02*
X+4508500Y-335000D01*
X+4508500Y-430249D02*
X+4508500Y-335000D01*
X+4380231Y-335000D02*
X+4508500Y-335000D01*
X+5075749Y-1651000D02*
X+4980500Y-1651000D01*
X+4980500Y-1522731D02*
X+4980500Y-1651000D01*
X+4413251Y-1905000D02*
X+4508500Y-1905000D01*
X+4603749Y-1905000D02*
X+4508500Y-1905000D01*
X+5065749Y-1905000D02*
X+4970500Y-1905000D01*
X+4413251Y-1651000D02*
X+4508500Y-1651000D01*
X+4603749Y-1651000D02*
X+4508500Y-1651000D01*
X+4508500Y-1522731D02*
X+4508500Y-1651000D01*
X+7961629Y+1397000D02*
X+7810500Y+1397000D01*
X+7659371Y+1397000D02*
X+7810500Y+1397000D01*
X+7810500Y+1553209D02*
X+7810500Y+1397000D01*
X+7810500Y+1240791D02*
X+7810500Y+1397000D01*
X+7192009Y+1397000D02*
X+7048500Y+1397000D01*
X+6904991Y+1397000D02*
X+7048500Y+1397000D01*
X+7048500Y+1540509D02*
X+7048500Y+1397000D01*
X+7048500Y+1253491D02*
X+7048500Y+1397000D01*
X+6762751Y-1905000D02*
X+6858000Y-1905000D01*
X+6427751Y-2413000D02*
X+6523000Y-2413000D01*
X+6618249Y-2413000D02*
X+6523000Y-2413000D01*
X+6523000Y-2284731D02*
X+6523000Y-2413000D01*
X+6953251Y-825500D02*
X+7048500Y-825500D01*
X+7143749Y-825500D02*
X+7048500Y-825500D01*
X+7048500Y-953769D02*
X+7048500Y-825500D01*
X+7288251Y-1651000D02*
X+7383500Y-1651000D01*
X+7478749Y-1651000D02*
X+7383500Y-1651000D01*
X+7383500Y-1522731D02*
X+7383500Y-1651000D01*
X+6780251Y-1651000D02*
X+6875500Y-1651000D01*
X+6970749Y-1651000D02*
X+6875500Y-1651000D01*
X+6875500Y-1522731D02*
X+6875500Y-1651000D01*
X+6921500Y-239751D02*
X+6921500Y-335000D01*
X+6921500Y-430249D02*
X+6921500Y-335000D01*
X+6793231Y-335000D02*
X+6921500Y-335000D01*
X+7298251Y-1905000D02*
X+7393500Y-1905000D01*
X+7488749Y-1905000D02*
X+7393500Y-1905000D01*
X+6057901Y+1841500D02*
X+6223000Y+1841500D01*
X+6388099Y+1841500D02*
X+6223000Y+1841500D01*
X+6223000Y+1676401D02*
X+6223000Y+1841500D01*
X+6223000Y+2006599D02*
X+6223000Y+1841500D01*
X-4686299Y-1968500D02*
X-4572000Y-1968500D01*
X-4457701Y-1968500D02*
X-4572000Y-1968500D01*
X-4572000Y-2108199D02*
X-4572000Y-1968500D01*
X-4572000Y-1828801D02*
X-4572000Y-1968500D01*
X-4667249Y-2349500D02*
X-4572000Y-2349500D01*
X-4476751Y-2349500D02*
X-4572000Y-2349500D01*
X-4572000Y-2221231D02*
X-4572000Y-2349500D01*
X-4776749Y-1079500D02*
X-4681500Y-1079500D01*
X-4586251Y-1079500D02*
X-4681500Y-1079500D01*
X-4681500Y-1207769D02*
X-4681500Y-1079500D01*
X-4681500Y-951231D02*
X-4681500Y-1079500D01*
X-5167629Y-1950500D02*
X-5016500Y-1950500D01*
X-4865371Y-1950500D02*
X-5016500Y-1950500D01*
X-5016500Y-2106709D02*
X-5016500Y-1950500D01*
X-5016500Y-1794291D02*
X-5016500Y-1950500D01*
X-5733000Y+737871D02*
X-5733000Y+889000D01*
X-5733000Y+1040129D02*
X-5733000Y+889000D01*
X-5576791Y+889000D02*
X-5733000Y+889000D01*
X-5889209Y+889000D02*
X-5733000Y+889000D01*
X-5733000Y-151129D02*
X-5733000Y+0D01*
X-5733000Y+151129D02*
X-5733000Y+0D01*
X-5576791Y+0D02*
X-5733000Y+0D01*
X-5889209Y+0D02*
X-5733000Y+0D01*
X-5733000Y-1040129D02*
X-5733000Y-889000D01*
X-5733000Y-737871D02*
X-5733000Y-889000D01*
X-5576791Y-889000D02*
X-5733000Y-889000D01*
X-5889209Y-889000D02*
X-5733000Y-889000D01*
X-5733000Y-1992629D02*
X-5733000Y-1841500D01*
X-5733000Y-1690371D02*
X-5733000Y-1841500D01*
X-5576791Y-1841500D02*
X-5733000Y-1841500D01*
X-5889209Y-1841500D02*
X-5733000Y-1841500D01*
X+3746500Y+2235199D02*
X+3746500Y+2095500D01*
X+3606801Y+2095500D02*
X+3746500Y+2095500D01*
X+4000500Y+2235199D02*
X+4000500Y+2095500D01*
X+4254500Y+2235199D02*
X+4254500Y+2095500D01*
X+4394199Y+2095500D02*
X+4254500Y+2095500D01*
X-4826000Y-2254251D02*
X-4826000Y-2349500D01*
X-4826000Y-2444749D02*
X-4826000Y-2349500D01*
X-4697731Y-2349500D02*
X-4826000Y-2349500D01*
X-5080000Y-2254251D02*
X-5080000Y-2349500D01*
X-5080000Y-2444749D02*
X-5080000Y-2349500D01*
X-5208269Y-2349500D02*
X-5080000Y-2349500D01*
X-5283199Y-3556000D02*
X-5143500Y-3556000D01*
X-5003801Y-3556000D02*
X-5143500Y-3556000D01*
X-5143500Y-3695699D02*
X-5143500Y-3556000D01*
D71*
X-1778000Y+190500D03*
X-2378000Y+190500D03*
D20*
X-6223000Y-2476500D03*
X-6223000Y-2921000D03*
D21*
X-2095500Y+1841500D03*
X-1651000Y+1841500D03*
D22*
X-2921000Y-3556000D03*
X-2921000Y-3048000D03*
X-2921000Y-3302000D03*
D23*
X-4145280Y-190500D03*
D24*
X-3914140Y+439420D03*
D23*
X-3914140Y-190500D03*
X-3683000Y-190500D03*
D25*
X-3983000Y+698500D03*
X-3683000Y+698500D03*
X-4214140Y-571500D03*
X-3914140Y-571500D03*
D26*
X-2095500Y+1339000D03*
X-2095500Y+889000D03*
D27*
X-1460500Y+889000D03*
X-1460500Y+1379000D03*
X-4572000Y-63500D03*
X-4572000Y+426500D03*
D28*
X-1460500Y+610000D03*
X-1460500Y+0D03*
D29*
X-2895600Y+817880D03*
D72*
X-3124200Y+127000D03*
X-2667000Y+127000D03*
D73*
X-2921000Y-2108200D03*
X-2794000Y-2108200D03*
X-2667000Y-2108200D03*
X-2540000Y-2108200D03*
X-2540000Y-1587500D03*
X-2667000Y-1587500D03*
X-2794000Y-1587500D03*
X-2921000Y-1587500D03*
D25*
X-2667000Y-254000D03*
X-2957000Y-254000D03*
D30*
X-3175000Y-254000D03*
X-3175000Y-544000D03*
D25*
X-2967000Y-768350D03*
X-2667000Y-768350D03*
D31*
X-2957000Y-1149350D03*
X-2667000Y-1149350D03*
D32*
X-3111500Y-1968500D03*
X-3111500Y-1733550D03*
D25*
X-2921000Y-2413000D03*
X-2621000Y-2413000D03*
X-2893500Y-2667000D03*
X-2603500Y-2667000D03*
D33*
X-3268980Y-1397000D03*
X-3362960Y-1587500D03*
X-3175000Y-1587500D03*
D30*
X-3111500Y-2286000D03*
X-3111500Y-2576000D03*
X-1587500Y-635000D03*
X-1587500Y-345000D03*
X-2095500Y-635000D03*
X-2095500Y-345000D03*
X-1841500Y-335000D03*
X-1841500Y-635000D03*
D34*
X-2044700Y-1016000D03*
X-2044700Y-1143000D03*
X-2044700Y-1270000D03*
X-2044700Y-1397000D03*
X-1524000Y-1397000D03*
X-1524000Y-1270000D03*
X-1524000Y-1143000D03*
X-1524000Y-1016000D03*
D25*
X-2222500Y-825500D03*
X-1922500Y-825500D03*
X-1841500Y-2159000D03*
X-1551500Y-2159000D03*
X-1841500Y-1651000D03*
X-1551500Y-1651000D03*
X-2349500Y-2159000D03*
X-2059500Y-2159000D03*
X-2349500Y-1651000D03*
X-2049500Y-1651000D03*
X-2349500Y-1905000D03*
X-2049500Y-1905000D03*
X-1841500Y-1905000D03*
X-1541500Y-1905000D03*
D30*
X-2349500Y-335000D03*
X-2349500Y-635000D03*
D29*
X-635000Y+817880D03*
D72*
X-863600Y+127000D03*
X-406400Y+127000D03*
D71*
X+508000Y+190500D03*
X-92000Y+190500D03*
D26*
X+127000Y+1397000D03*
X+127000Y+947000D03*
D27*
X+825500Y+907000D03*
X+825500Y+1397000D03*
D28*
X+825500Y+610000D03*
X+825500Y+0D03*
D34*
X+241300Y-1016000D03*
X+241300Y-1143000D03*
X+241300Y-1270000D03*
X+241300Y-1397000D03*
X+762000Y-1397000D03*
X+762000Y-1270000D03*
X+762000Y-1143000D03*
X+762000Y-1016000D03*
D30*
X-889000Y-254000D03*
X-889000Y-544000D03*
D25*
X-408500Y-254000D03*
X-698500Y-254000D03*
X-698500Y-762000D03*
X-398500Y-762000D03*
D31*
X-698500Y-1143000D03*
X-408500Y-1143000D03*
D33*
X-1046480Y-1397000D03*
X-1140460Y-1587500D03*
X-952500Y-1587500D03*
D32*
X-889000Y-1968500D03*
X-889000Y-1733550D03*
D73*
X-698500Y-2108200D03*
X-571500Y-2108200D03*
X-444500Y-2108200D03*
X-317500Y-2108200D03*
X-317500Y-1587500D03*
X-444500Y-1587500D03*
X-571500Y-1587500D03*
X-698500Y-1587500D03*
D30*
X-889000Y-2313500D03*
X-889000Y-2603500D03*
D25*
X-671000Y-2667000D03*
X-381000Y-2667000D03*
X-681000Y-2413000D03*
X-381000Y-2413000D03*
D30*
X+0Y-345000D03*
X+0Y-645000D03*
X+508000Y-345000D03*
X+508000Y-645000D03*
X+762000Y-635000D03*
X+762000Y-345000D03*
X+254000Y-635000D03*
X+254000Y-345000D03*
D25*
X+81000Y-825500D03*
X+381000Y-825500D03*
X-63500Y-1651000D03*
X+236500Y-1651000D03*
X-63500Y-1905000D03*
X+236500Y-1905000D03*
X-63500Y-2159000D03*
X+226500Y-2159000D03*
X+444500Y-1651000D03*
X+734500Y-1651000D03*
X+444500Y-2159000D03*
X+734500Y-2159000D03*
X+444500Y-1905000D03*
X+744500Y-1905000D03*
D21*
X+571500Y+1841500D03*
X+127000Y+1841500D03*
D22*
X-762000Y-3556000D03*
X-762000Y-3302000D03*
X-762000Y-3048000D03*
D27*
X+3111500Y+889000D03*
X+3111500Y+1379000D03*
D26*
X+2413000Y+1397000D03*
X+2413000Y+947000D03*
D32*
X+1397000Y-1968500D03*
X+1397000Y-1733550D03*
D71*
X+2794000Y+190500D03*
X+2194000Y+190500D03*
D33*
X+1239520Y-1397000D03*
X+1145540Y-1587500D03*
X+1333500Y-1587500D03*
D29*
X+1651000Y+817880D03*
D72*
X+1422400Y+127000D03*
X+1879600Y+127000D03*
D22*
X+1587500Y-3302000D03*
X+1587500Y-3556000D03*
X+1587500Y-3048000D03*
D34*
X+2527300Y-1016000D03*
X+2527300Y-1143000D03*
X+2527300Y-1270000D03*
X+2527300Y-1397000D03*
X+3048000Y-1397000D03*
X+3048000Y-1270000D03*
X+3048000Y-1143000D03*
X+3048000Y-1016000D03*
D73*
X+1587500Y-2108200D03*
X+1714500Y-2108200D03*
X+1841500Y-2108200D03*
X+1968500Y-2108200D03*
X+1968500Y-1587500D03*
X+1841500Y-1587500D03*
X+1714500Y-1587500D03*
X+1587500Y-1587500D03*
D28*
X+3111500Y+610000D03*
X+3111500Y+0D03*
D21*
X+2857500Y+1841500D03*
X+2413000Y+1841500D03*
D25*
X+1587500Y-762000D03*
X+1887500Y-762000D03*
D31*
X+1587500Y-1143000D03*
X+1877500Y-1143000D03*
D30*
X+1397000Y-254000D03*
X+1397000Y-544000D03*
D25*
X+1877500Y-254000D03*
X+1587500Y-254000D03*
X+1587500Y-2667000D03*
X+1877500Y-2667000D03*
D30*
X+1333500Y-2286000D03*
X+1333500Y-2576000D03*
D25*
X+1587500Y-2413000D03*
X+1887500Y-2413000D03*
D30*
X+2222500Y-317500D03*
X+2222500Y-617500D03*
X+2476500Y-607500D03*
X+2476500Y-317500D03*
X+3048000Y-607500D03*
X+3048000Y-317500D03*
X+2794000Y-617500D03*
X+2794000Y-317500D03*
D25*
X+2367000Y-825500D03*
X+2667000Y-825500D03*
X+2730500Y-2159000D03*
X+3020500Y-2159000D03*
X+2730500Y-1651000D03*
X+3020500Y-1651000D03*
X+2250000Y-2159000D03*
X+2540000Y-2159000D03*
X+2240000Y-1905000D03*
X+2540000Y-1905000D03*
X+2730500Y-1905000D03*
X+3030500Y-1905000D03*
X+2240000Y-1651000D03*
X+2540000Y-1651000D03*
D27*
X+5461000Y+889000D03*
X+5461000Y+1379000D03*
D26*
X+4762500Y+1397000D03*
X+4762500Y+947000D03*
D32*
X+3683000Y-1968500D03*
X+3683000Y-1733550D03*
D22*
X+3937000Y-3556000D03*
X+6223000Y-3556000D03*
X+3937000Y-3048000D03*
X+6223000Y-3048000D03*
D71*
X+5080000Y+190500D03*
X+4480000Y+190500D03*
D22*
X+3937000Y-3302000D03*
X+6223000Y-3302000D03*
D33*
X+3525520Y-1397000D03*
X+3431540Y-1587500D03*
X+3619500Y-1587500D03*
D29*
X+3937000Y+825500D03*
D72*
X+3708400Y+134620D03*
X+4165600Y+134620D03*
D33*
X+5875020Y-1397000D03*
X+5781040Y-1587500D03*
X+5969000Y-1587500D03*
D29*
X+6261100Y+817880D03*
D72*
X+6032500Y+127000D03*
X+6489700Y+127000D03*
D21*
X+5207000Y+1841500D03*
X+4762500Y+1841500D03*
X+7620000Y+1841500D03*
X+7112000Y+1841500D03*
D28*
X+5397500Y+610000D03*
X+5397500Y+0D03*
X+7810500Y+635000D03*
X+7810500Y+25000D03*
D34*
X+4813300Y-1016000D03*
X+4813300Y-1143000D03*
X+4813300Y-1270000D03*
X+4813300Y-1397000D03*
X+5334000Y-1397000D03*
X+5334000Y-1270000D03*
X+5334000Y-1143000D03*
X+5334000Y-1016000D03*
D73*
X+3873500Y-2108200D03*
X+4000500Y-2108200D03*
X+4127500Y-2108200D03*
X+4254500Y-2108200D03*
X+4254500Y-1587500D03*
X+4127500Y-1587500D03*
X+4000500Y-1587500D03*
X+3873500Y-1587500D03*
D34*
X+7226300Y-1016000D03*
X+7226300Y-1143000D03*
X+7226300Y-1270000D03*
X+7226300Y-1397000D03*
X+7747000Y-1397000D03*
X+7747000Y-1270000D03*
X+7747000Y-1143000D03*
X+7747000Y-1016000D03*
D73*
X+6223000Y-2108200D03*
X+6350000Y-2108200D03*
X+6477000Y-2108200D03*
X+6604000Y-2108200D03*
X+6604000Y-1587500D03*
X+6477000Y-1587500D03*
X+6350000Y-1587500D03*
X+6223000Y-1587500D03*
D25*
X+3873500Y-2413000D03*
X+4173500Y-2413000D03*
X+3873500Y-762000D03*
X+4173500Y-762000D03*
D31*
X+3873500Y-1143000D03*
X+4163500Y-1143000D03*
D30*
X+3619500Y-2286000D03*
X+3619500Y-2576000D03*
X+3683000Y-254000D03*
X+3683000Y-544000D03*
D25*
X+4163500Y-254000D03*
X+3873500Y-254000D03*
X+3873500Y-2667000D03*
X+4163500Y-2667000D03*
D30*
X+5270500Y-635000D03*
X+5270500Y-345000D03*
X+4762500Y-635000D03*
X+4762500Y-345000D03*
D25*
X+4508500Y-2159000D03*
X+4798500Y-2159000D03*
X+4589500Y-825500D03*
X+4889500Y-825500D03*
D30*
X+5016500Y-335000D03*
X+5016500Y-635000D03*
X+4508500Y-335000D03*
X+4508500Y-635000D03*
D25*
X+4980500Y-2159000D03*
X+5270500Y-2159000D03*
X+4980500Y-1651000D03*
X+5270500Y-1651000D03*
X+7393500Y-2159000D03*
X+7683500Y-2159000D03*
X+4508500Y-1905000D03*
X+4808500Y-1905000D03*
X+4970500Y-1905000D03*
X+5270500Y-1905000D03*
X+4508500Y-1651000D03*
X+4808500Y-1651000D03*
D27*
X+7810500Y+907000D03*
X+7810500Y+1397000D03*
D26*
X+7048500Y+1397000D03*
X+7048500Y+947000D03*
D32*
X+6032500Y-1968500D03*
X+6032500Y-1733550D03*
D71*
X+7429500Y+190500D03*
X+6829500Y+190500D03*
D25*
X+6858000Y-1905000D03*
X+7158000Y-1905000D03*
X+6223000Y-762000D03*
X+6523000Y-762000D03*
D31*
X+6223000Y-1143000D03*
X+6513000Y-1143000D03*
D30*
X+5969000Y-254000D03*
X+5969000Y-544000D03*
D25*
X+6477000Y-254000D03*
X+6187000Y-254000D03*
D30*
X+5969000Y-2286000D03*
X+5969000Y-2576000D03*
D25*
X+6223000Y-2667000D03*
X+6513000Y-2667000D03*
X+6223000Y-2413000D03*
X+6523000Y-2413000D03*
X+7048500Y-825500D03*
X+7348500Y-825500D03*
X+7383500Y-1651000D03*
X+7683500Y-1651000D03*
D30*
X+7429500Y-335000D03*
X+7429500Y-635000D03*
D25*
X+6875500Y-1651000D03*
X+7175500Y-1651000D03*
D30*
X+6921500Y-335000D03*
X+6921500Y-635000D03*
D25*
X+7393500Y-1905000D03*
X+7683500Y-1905000D03*
D30*
X+7683500Y-635000D03*
X+7683500Y-345000D03*
X+7175500Y-635000D03*
X+7175500Y-345000D03*
D25*
X+6858000Y-2159000D03*
X+7148000Y-2159000D03*
D22*
X+7112000Y-3302000D03*
X+7112000Y-3556000D03*
X+7112000Y-3048000D03*
D21*
X+6667500Y+1841500D03*
X+6223000Y+1841500D03*
D22*
X-4254500Y-3556000D03*
D23*
X-4572000Y-1968500D03*
D24*
X-4340860Y-1338580D03*
D23*
X-4340860Y-1968500D03*
X-4109720Y-1968500D03*
D25*
X-4572000Y-2349500D03*
X-4272000Y-2349500D03*
X-4681500Y-1079500D03*
X-4381500Y-1079500D03*
D27*
X-5016500Y-1460500D03*
X-5016500Y-1950500D03*
D35*
X-6223000Y+889000D03*
X-5733000Y+889000D03*
X-6223000Y+0D03*
X-5733000Y+0D03*
X-6223000Y-889000D03*
X-5733000Y-889000D03*
X-6223000Y-1841500D03*
X-5733000Y-1841500D03*
D36*
X-6096000Y-3746500D03*
X-6096000Y+2413000D03*
X+8001000Y+2413000D03*
X+8001000Y-3746500D03*
D21*
X-4191000Y+1841500D03*
X-4635500Y+1841500D03*
X-2921000Y+1841500D03*
X-3365500Y+1841500D03*
D22*
X-4254500Y-3048000D03*
X-4254500Y-3302000D03*
X+3746500Y+2095500D03*
X+2603500Y-3175000D03*
X+3746500Y+1841500D03*
X+4000500Y+2095500D03*
X+2603500Y-3429000D03*
X+4000500Y+1841500D03*
X+4254500Y+2095500D03*
X+2603500Y-3683000D03*
X+4254500Y+1841500D03*
D30*
X-4826000Y-2349500D03*
X-4826000Y-2649500D03*
D25*
X-4572000Y-2603500D03*
X-4282000Y-2603500D03*
D30*
X-5080000Y-2349500D03*
X-5080000Y-2639500D03*
D22*
X-5143500Y-3302000D03*
X-5143500Y-3556000D03*
D37*
X-6604000Y-4254500D02*
X+8509000Y-4254500D01*
X+8509000Y+2921000D01*
X-6604000Y+2921000D01*
X-6604000Y-4254500D01*
M02*
