G04 PROTEUS GERBER X2 FILE*
%TF.GenerationSoftware,Labcenter,Proteus,8.7-SP3-Build25561*%
%TF.CreationDate,2021-05-23T19:19:56+00:00*%
%TF.FileFunction,Copper,L6,Bot*%
%TF.FilePolarity,Positive*%
%TF.Part,Single*%
%TF.SameCoordinates,{bb4e542a-de17-4d2d-b6f0-32913e85bf41}*%
%FSLAX45Y45*%
%MOMM*%
G01*
%TA.AperFunction,Conductor*%
%ADD11C,1.016000*%
%ADD10C,0.508000*%
%ADD15C,2.032000*%
%TA.AperFunction,ViaPad*%
%ADD18C,1.270000*%
%ADD19C,1.778000*%
%ADD70C,1.016000*%
%ADD71C,0.762000*%
%ADD20C,2.032000*%
%TA.AperFunction,Conductor*%
%ADD13C,0.254000*%
%TA.AperFunction,ComponentPad*%
%ADD22C,3.810000*%
%ADD23C,2.540000*%
%ADD24C,2.032000*%
%TA.AperFunction,SMDPad,CuDef*%
%ADD33R,0.889000X1.016000*%
%ADD29R,6.985000X6.985000*%
%ADD72R,1.524000X2.540000*%
%TA.AperFunction,SMDPad,CuDef*%
%ADD26R,2.108200X2.108200*%
%ADD32R,0.889000X0.635000*%
%ADD21R,1.193800X5.308600*%
%ADD27R,1.651000X3.048000*%
%TA.AperFunction,SMDPad,CuDef*%
%ADD34R,2.032000X0.635000*%
%ADD73R,0.635000X2.032000*%
%TA.AperFunction,SMDPad,CuDef*%
%ADD28R,3.403600X1.244600*%
%ADD31R,2.540000X1.524000*%
%ADD25R,1.143000X1.803400*%
%ADD30R,1.803400X1.143000*%
%TA.AperFunction,OtherPad,Unknown*%
%ADD35C,7.620000*%
%TA.AperFunction,Profile*%
%ADD40C,0.203200*%
%TD.AperFunction*%
G36*
X+8448040Y-4193540D02*
X-7368540Y-4193540D01*
X-7368540Y+2860040D01*
X+8448040Y+2860040D01*
X+8448040Y-4193540D01*
G37*
%LPC*%
G36*
X-6819901Y-2381811D02*
X-6819901Y-2571189D01*
X-6947462Y-2698750D01*
X-6819901Y-2826311D01*
X-6819901Y-3015689D01*
X-6953811Y-3149599D01*
X-7143189Y-3149599D01*
X-7277099Y-3015689D01*
X-7277099Y-2826311D01*
X-7149538Y-2698750D01*
X-7277099Y-2571189D01*
X-7277099Y-2381811D01*
X-7143189Y-2247901D01*
X-6953811Y-2247901D01*
X-6819901Y-2381811D01*
G37*
G36*
X-2260599Y+1773114D02*
X-2260599Y+1909886D01*
X-2163886Y+2006599D01*
X-2027114Y+2006599D01*
X-1930401Y+1909886D01*
X-1930401Y+1773114D01*
X-2027114Y+1676401D01*
X-2163886Y+1676401D01*
X-2260599Y+1773114D01*
G37*
G36*
X-1816099Y+1773114D02*
X-1816099Y+1909886D01*
X-1719386Y+2006599D01*
X-1582614Y+2006599D01*
X-1485901Y+1909886D01*
X-1485901Y+1773114D01*
X-1582614Y+1676401D01*
X-1719386Y+1676401D01*
X-1816099Y+1773114D01*
G37*
G36*
X-2781301Y-2990135D02*
X-2781301Y-3105865D01*
X-2850436Y-3175000D01*
X-2781301Y-3244135D01*
X-2781301Y-3359865D01*
X-2850436Y-3429000D01*
X-2781301Y-3498135D01*
X-2781301Y-3613865D01*
X-2863135Y-3695699D01*
X-2978865Y-3695699D01*
X-3060699Y-3613865D01*
X-3060699Y-3498135D01*
X-2991564Y-3429000D01*
X-3060699Y-3359865D01*
X-3060699Y-3244135D01*
X-2991564Y-3175000D01*
X-3060699Y-3105865D01*
X-3060699Y-2990135D01*
X-2978865Y-2908301D01*
X-2863135Y-2908301D01*
X-2781301Y-2990135D01*
G37*
G36*
X+406401Y+1773114D02*
X+406401Y+1909886D01*
X+503114Y+2006599D01*
X+639886Y+2006599D01*
X+736599Y+1909886D01*
X+736599Y+1773114D01*
X+639886Y+1676401D01*
X+503114Y+1676401D01*
X+406401Y+1773114D01*
G37*
G36*
X-622301Y-2990135D02*
X-622301Y-3105865D01*
X-691436Y-3175000D01*
X-622301Y-3244135D01*
X-622301Y-3359865D01*
X-691436Y-3429000D01*
X-622301Y-3498135D01*
X-622301Y-3613865D01*
X-704135Y-3695699D01*
X-819865Y-3695699D01*
X-901699Y-3613865D01*
X-901699Y-3498135D01*
X-832564Y-3429000D01*
X-901699Y-3359865D01*
X-901699Y-3244135D01*
X-832564Y-3175000D01*
X-901699Y-3105865D01*
X-901699Y-2990135D01*
X-819865Y-2908301D01*
X-704135Y-2908301D01*
X-622301Y-2990135D01*
G37*
G36*
X+1727199Y-2990135D02*
X+1727199Y-3105865D01*
X+1658064Y-3175000D01*
X+1727199Y-3244135D01*
X+1727199Y-3359865D01*
X+1658064Y-3429000D01*
X+1727199Y-3498135D01*
X+1727199Y-3613865D01*
X+1645365Y-3695699D01*
X+1529635Y-3695699D01*
X+1447801Y-3613865D01*
X+1447801Y-3498135D01*
X+1516936Y-3429000D01*
X+1447801Y-3359865D01*
X+1447801Y-3244135D01*
X+1516936Y-3175000D01*
X+1447801Y-3105865D01*
X+1447801Y-2990135D01*
X+1529635Y-2908301D01*
X+1645365Y-2908301D01*
X+1727199Y-2990135D01*
G37*
G36*
X+2692401Y+1773114D02*
X+2692401Y+1909886D01*
X+2789114Y+2006599D01*
X+2925886Y+2006599D01*
X+3022599Y+1909886D01*
X+3022599Y+1773114D01*
X+2925886Y+1676401D01*
X+2789114Y+1676401D01*
X+2692401Y+1773114D01*
G37*
G36*
X+4076699Y-2990135D02*
X+4076699Y-3105865D01*
X+4007564Y-3175000D01*
X+4076699Y-3244135D01*
X+4076699Y-3359865D01*
X+4007564Y-3429000D01*
X+4076699Y-3498135D01*
X+4076699Y-3613865D01*
X+3994865Y-3695699D01*
X+3879135Y-3695699D01*
X+3797301Y-3613865D01*
X+3797301Y-3498135D01*
X+3866436Y-3429000D01*
X+3797301Y-3359865D01*
X+3797301Y-3244135D01*
X+3866436Y-3175000D01*
X+3797301Y-3105865D01*
X+3797301Y-2990135D01*
X+3879135Y-2908301D01*
X+3994865Y-2908301D01*
X+4076699Y-2990135D01*
G37*
G36*
X+6362699Y-2990135D02*
X+6362699Y-3105865D01*
X+6293564Y-3175000D01*
X+6362699Y-3244135D01*
X+6362699Y-3359865D01*
X+6293564Y-3429000D01*
X+6362699Y-3498135D01*
X+6362699Y-3613865D01*
X+6280865Y-3695699D01*
X+6165135Y-3695699D01*
X+6083301Y-3613865D01*
X+6083301Y-3498135D01*
X+6152436Y-3429000D01*
X+6083301Y-3359865D01*
X+6083301Y-3244135D01*
X+6152436Y-3175000D01*
X+6083301Y-3105865D01*
X+6083301Y-2990135D01*
X+6165135Y-2908301D01*
X+6280865Y-2908301D01*
X+6362699Y-2990135D01*
G37*
G36*
X+5041901Y+1773114D02*
X+5041901Y+1909886D01*
X+5138614Y+2006599D01*
X+5275386Y+2006599D01*
X+5372099Y+1909886D01*
X+5372099Y+1773114D01*
X+5275386Y+1676401D01*
X+5138614Y+1676401D01*
X+5041901Y+1773114D01*
G37*
G36*
X+7454901Y+1773114D02*
X+7454901Y+1909886D01*
X+7551614Y+2006599D01*
X+7688386Y+2006599D01*
X+7785099Y+1909886D01*
X+7785099Y+1773114D01*
X+7688386Y+1676401D01*
X+7551614Y+1676401D01*
X+7454901Y+1773114D01*
G37*
G36*
X+7230109Y+936833D02*
X+7394499Y+772443D01*
X+7394499Y+501649D01*
X+7403389Y+501649D01*
X+7403389Y+226053D01*
X+7405923Y+223519D01*
X+7531101Y+223519D01*
X+7531101Y+299719D01*
X+7759699Y+299719D01*
X+7759699Y-30479D01*
X+7689849Y-30479D01*
X+7689849Y-247649D01*
X+7658099Y-247649D01*
X+7658098Y-446753D01*
X+7758970Y-345881D01*
X+7974331Y-345881D01*
X+7974331Y-314131D01*
X+8230869Y-314131D01*
X+8230869Y-447849D01*
X+8260079Y-477059D01*
X+8260079Y-1300481D01*
X+8279129Y-1300481D01*
X+8279129Y-1478279D01*
X+8114031Y-1478279D01*
X+8114031Y-1300481D01*
X+8133081Y-1300481D01*
X+8133081Y-529661D01*
X+8108049Y-504629D01*
X+7974331Y-504629D01*
X+7974331Y-472879D01*
X+7811572Y-472879D01*
X+7759702Y-524749D01*
X+7759702Y-626111D01*
X+7943849Y-626111D01*
X+7943849Y-882649D01*
X+7912099Y-882649D01*
X+7912099Y-1028701D01*
X+8039099Y-1028701D01*
X+8039099Y-1257299D01*
X+7912099Y-1257299D01*
X+7912099Y-1440181D01*
X+7918449Y-1440181D01*
X+7918449Y-1662431D01*
X+7956551Y-1662431D01*
X+7956551Y-1656081D01*
X+8020051Y-1656081D01*
X+8020051Y-1490981D01*
X+8185149Y-1490981D01*
X+8185149Y-1668779D01*
X+8121649Y-1668779D01*
X+8121649Y-1795779D01*
X+7956551Y-1795779D01*
X+7956551Y-1789429D01*
X+7848106Y-1789429D01*
X+7784392Y-1725715D01*
X+7784392Y-1719579D01*
X+7397751Y-1719579D01*
X+7397751Y-1440181D01*
X+7531101Y-1440181D01*
X+7531102Y-1270902D01*
X+7517499Y-1257299D01*
X+7327901Y-1257299D01*
X+7327901Y-1028701D01*
X+7485101Y-1028701D01*
X+7485101Y-882649D01*
X+7453351Y-882649D01*
X+7453351Y-626111D01*
X+7531101Y-626111D01*
X+7531102Y-436880D01*
X+7531101Y-247649D01*
X+7499351Y-247649D01*
X+7499351Y+8889D01*
X+7531101Y+8889D01*
X+7531101Y+45721D01*
X+7403389Y+45721D01*
X+7403389Y-105409D01*
X+7207811Y-105409D01*
X+7207811Y+501649D01*
X+7216701Y+501649D01*
X+7216701Y+698797D01*
X+7104387Y+811111D01*
X+6943091Y+811111D01*
X+6943091Y+1098129D01*
X+7230109Y+1098129D01*
X+7230109Y+936833D01*
G37*
G36*
X+8373109Y-1668779D02*
X+8354059Y-1668779D01*
X+8354059Y-2000251D01*
X+8383269Y-2000251D01*
X+8383269Y-2190749D01*
X+8126731Y-2190749D01*
X+8126731Y-2000251D01*
X+8227061Y-2000251D01*
X+8227061Y-1668779D01*
X+8208011Y-1668779D01*
X+8208011Y-1490981D01*
X+8373109Y-1490981D01*
X+8373109Y-1668779D01*
G37*
G36*
X+5800615Y+2679699D02*
X+5851415Y+2628899D01*
X+7047049Y+2628899D01*
X+7444796Y+2231152D01*
X+7444796Y+1637844D01*
X+7869791Y+1212849D01*
X+8261349Y+1212849D01*
X+8261349Y+438151D01*
X+7486651Y+438151D01*
X+7486651Y+1212849D01*
X+7618347Y+1212849D01*
X+7266998Y+1564198D01*
X+7266998Y+2157506D01*
X+6973403Y+2451101D01*
X+5864232Y+2451101D01*
X+5866799Y+2141265D01*
X+5918199Y+2089865D01*
X+5918199Y+2073821D01*
X+6095803Y+2251425D01*
X+6569955Y+2251425D01*
X+6756399Y+2064981D01*
X+6756399Y+1986086D01*
X+6832599Y+1909886D01*
X+6832599Y+1773114D01*
X+6735886Y+1676401D01*
X+6599114Y+1676401D01*
X+6502401Y+1773114D01*
X+6502401Y+1909886D01*
X+6578601Y+1986086D01*
X+6578601Y+1991335D01*
X+6496309Y+2073627D01*
X+6169449Y+2073627D01*
X+6066925Y+1971103D01*
X+6066925Y+416017D01*
X+6349993Y+132949D01*
X+6532879Y+132949D01*
X+6532879Y-67709D01*
X+6451599Y-67709D01*
X+6451599Y-214631D01*
X+6832601Y-214631D01*
X+6832601Y+83456D01*
X+6803389Y+112668D01*
X+6803389Y-105409D01*
X+6607811Y-105409D01*
X+6607811Y+487687D01*
X+6541777Y+553721D01*
X+6532879Y+553721D01*
X+6532879Y+542291D01*
X+6116321Y+542291D01*
X+6116321Y+742949D01*
X+6203951Y+742949D01*
X+6203951Y+1105119D01*
X+6445249Y+1105119D01*
X+6445249Y+742949D01*
X+6532879Y+742949D01*
X+6532879Y+731519D01*
X+6615423Y+731519D01*
X+6794499Y+552443D01*
X+6794499Y+501649D01*
X+6803389Y+501649D01*
X+6803389Y+262850D01*
X+6832807Y+262850D01*
X+6959599Y+136058D01*
X+6959599Y-214631D01*
X+7278369Y-214631D01*
X+7278369Y-405129D01*
X+7081149Y-405129D01*
X+7190651Y-514631D01*
X+7278369Y-514631D01*
X+7278369Y-705129D01*
X+7118349Y-705129D01*
X+7118349Y-946149D01*
X+7048499Y-946149D01*
X+7048499Y-1459229D01*
X+6769101Y-1459229D01*
X+6769101Y-946149D01*
X+6708735Y-946149D01*
X+6708735Y-1099189D01*
X+6646243Y-1161681D01*
X+6646243Y-1469502D01*
X+6600634Y-1515111D01*
X+6773349Y-1515111D01*
X+6773349Y-1769111D01*
X+6800849Y-1769111D01*
X+6800849Y-2087881D01*
X+6864351Y-2087881D01*
X+6864351Y-1515111D01*
X+7054849Y-1515111D01*
X+7054849Y-1579881D01*
X+7101841Y-1579881D01*
X+7164351Y-1642391D01*
X+7164351Y-1515111D01*
X+7354849Y-1515111D01*
X+7354849Y-2025649D01*
X+7344849Y-2025649D01*
X+7344849Y-2279649D01*
X+7240174Y-2279649D01*
X+7240174Y-2284731D01*
X+7406249Y-2284731D01*
X+7406249Y-2541269D01*
X+7240174Y-2541269D01*
X+7240174Y-2633331D01*
X+7202976Y-2670528D01*
X+6931494Y-2942010D01*
X+6931494Y-3485811D01*
X+6959599Y-3513916D01*
X+6959599Y-3598084D01*
X+6900084Y-3657599D01*
X+6815916Y-3657599D01*
X+6756401Y-3598084D01*
X+6756401Y-3513916D01*
X+6804498Y-3465819D01*
X+6804498Y-2889406D01*
X+6990008Y-2703896D01*
X+6961405Y-2703896D01*
X+6923305Y-2665796D01*
X+6697067Y-2665796D01*
X+6507770Y-2476499D01*
X+5223684Y-2476499D01*
X+5185584Y-2514599D01*
X+5101416Y-2514599D01*
X+5041901Y-2455084D01*
X+5041901Y-2370916D01*
X+5101416Y-2311401D01*
X+5185584Y-2311401D01*
X+5223684Y-2349501D01*
X+6470572Y-2349501D01*
X+6470572Y-2279649D01*
X+6320351Y-2279649D01*
X+6320351Y-2025649D01*
X+6310351Y-2025649D01*
X+6310351Y-1771649D01*
X+6292851Y-1771649D01*
X+6292851Y-1515111D01*
X+6352101Y-1515111D01*
X+6352101Y-1459229D01*
X+6248401Y-1459229D01*
X+6248401Y-938531D01*
X+6324601Y-938531D01*
X+6324601Y-695129D01*
X+6259831Y-695129D01*
X+6259831Y-504631D01*
X+6516369Y-504631D01*
X+6516369Y-514631D01*
X+6721051Y-514631D01*
X+6611549Y-405129D01*
X+6259831Y-405129D01*
X+6259831Y-214631D01*
X+6324601Y-214631D01*
X+6324601Y-67709D01*
X+6116321Y-67709D01*
X+6116321Y+115177D01*
X+5889127Y+342371D01*
X+5889127Y+1945063D01*
X+5836365Y+1892301D01*
X+5720635Y+1892301D01*
X+5638801Y+1974135D01*
X+5638801Y+2089865D01*
X+5688569Y+2139633D01*
X+5686706Y+2400301D01*
X+5684885Y+2400301D01*
X+5557885Y+2527301D01*
X+3472680Y+2527301D01*
X+3472680Y+2136717D01*
X+3523480Y+2085917D01*
X+3523480Y+1970187D01*
X+3441646Y+1888353D01*
X+3325916Y+1888353D01*
X+3244082Y+1970187D01*
X+3244082Y+2085917D01*
X+3294882Y+2136717D01*
X+3294882Y+2527301D01*
X+1739899Y+2527301D01*
X+1739899Y+1950165D01*
X+1790699Y+1899365D01*
X+1790699Y+1783635D01*
X+1708865Y+1701801D01*
X+1593135Y+1701801D01*
X+1511301Y+1783635D01*
X+1511301Y+1899365D01*
X+1562101Y+1950165D01*
X+1562101Y+2527301D01*
X-546101Y+2527301D01*
X-546101Y+1950165D01*
X-495301Y+1899365D01*
X-495301Y+1783635D01*
X-577135Y+1701801D01*
X-692865Y+1701801D01*
X-774699Y+1783635D01*
X-774699Y+1899365D01*
X-723899Y+1950165D01*
X-723899Y+2527301D01*
X-2463801Y+2527301D01*
X-2463801Y+1783635D01*
X-2545635Y+1701801D01*
X-2661365Y+1701801D01*
X-2743199Y+1783635D01*
X-2743199Y+2527301D01*
X-3752135Y+2527301D01*
X-4051301Y+2228135D01*
X-4051301Y+1935286D01*
X-4025901Y+1909886D01*
X-4025901Y+1773114D01*
X-4122614Y+1676401D01*
X-4259386Y+1676401D01*
X-4356099Y+1773114D01*
X-4356099Y+1909886D01*
X-4330699Y+1935286D01*
X-4330699Y+2343865D01*
X-3867865Y+2806699D01*
X+5673615Y+2806699D01*
X+5800615Y+2679699D01*
G37*
G36*
X+8216899Y-24131D02*
X+8230869Y-24131D01*
X+8230869Y-214629D01*
X+7979849Y-214629D01*
X+7979849Y-247649D01*
X+7789351Y-247649D01*
X+7789351Y+8889D01*
X+7979849Y+8889D01*
X+7979849Y-24131D01*
X+7988301Y-24131D01*
X+7988301Y+299719D01*
X+8216899Y+299719D01*
X+8216899Y-24131D01*
G37*
G36*
X+7230109Y+1261111D02*
X+6943091Y+1261111D01*
X+6943091Y+1548129D01*
X+7230109Y+1548129D01*
X+7230109Y+1261111D01*
G37*
G36*
X-3186431Y-342899D02*
X-3205481Y-342899D01*
X-3205481Y-355601D01*
X-3092451Y-355601D01*
X-3092451Y-533399D01*
X-3111501Y-533399D01*
X-3111501Y-1768401D01*
X-3048001Y-1831901D01*
X-3048001Y-2015316D01*
X-3031316Y-2032001D01*
X-969184Y-2032001D01*
X-931084Y-1993901D01*
X-846916Y-1993901D01*
X-808816Y-2032001D01*
X+1380316Y-2032001D01*
X+1418416Y-1993901D01*
X+1502584Y-1993901D01*
X+1540684Y-2032001D01*
X+1830997Y-2032001D01*
X+1868194Y-2069199D01*
X+2148775Y-2349780D01*
X+2148775Y-3758366D01*
X+2361488Y-3971079D01*
X+3772802Y-3971079D01*
X+3825285Y-3971080D01*
X+3877768Y-3971079D01*
X+4479988Y-3971079D01*
X+4479988Y-2894698D01*
X+4479989Y-2762250D01*
X+4479988Y-2603500D01*
X+4479988Y-2158999D01*
X+3826684Y-2158999D01*
X+3788584Y-2197099D01*
X+3704416Y-2197099D01*
X+3644901Y-2137584D01*
X+3644901Y-2053416D01*
X+3704416Y-1993901D01*
X+3788584Y-1993901D01*
X+3826684Y-2032001D01*
X+5952316Y-2032001D01*
X+5990416Y-1993901D01*
X+6074584Y-1993901D01*
X+6134099Y-2053416D01*
X+6134099Y-2137584D01*
X+6074584Y-2197099D01*
X+5990416Y-2197099D01*
X+5952316Y-2158999D01*
X+4606986Y-2158999D01*
X+4606986Y-2629802D01*
X+4606985Y-2762250D01*
X+4606986Y-2894698D01*
X+4606986Y-3971079D01*
X+6973401Y-3971079D01*
X+7336337Y-3608143D01*
X+7336337Y-3480097D01*
X+7441390Y-3375044D01*
X+7358861Y-3375044D01*
X+7299346Y-3315529D01*
X+7299346Y-3231361D01*
X+7337446Y-3193261D01*
X+7337446Y-2790734D01*
X+7463351Y-2664829D01*
X+7463351Y-2533649D01*
X+7453351Y-2533649D01*
X+7453351Y-2277111D01*
X+7643849Y-2277111D01*
X+7643849Y-2531111D01*
X+7653849Y-2531111D01*
X+7653849Y-2787649D01*
X+7520131Y-2787649D01*
X+7464444Y-2843336D01*
X+7464444Y-3193261D01*
X+7502544Y-3231361D01*
X+7502544Y-3313890D01*
X+7966110Y-2850324D01*
X+7966110Y-2484386D01*
X+7950603Y-2468879D01*
X+7943849Y-2468879D01*
X+7943849Y-2787649D01*
X+7753351Y-2787649D01*
X+7753351Y-2714592D01*
X+7718398Y-2714592D01*
X+7658101Y-2654295D01*
X+7658101Y-2240279D01*
X+7397751Y-2240279D01*
X+7397751Y-1960881D01*
X+7795271Y-1960881D01*
X+7858771Y-1897381D01*
X+7956551Y-1897381D01*
X+7956551Y-1891031D01*
X+8121649Y-1891031D01*
X+8121649Y-2030729D01*
X+7956551Y-2030729D01*
X+7956551Y-2024379D01*
X+7918449Y-2024379D01*
X+7918449Y-2240279D01*
X+7912099Y-2240279D01*
X+7912099Y-2277111D01*
X+7943849Y-2277111D01*
X+7943849Y-2341881D01*
X+8003205Y-2341881D01*
X+8093108Y-2431784D01*
X+8093108Y-2902926D01*
X+7463335Y-3532699D01*
X+7463335Y-3660745D01*
X+7026003Y-4098077D01*
X+3877768Y-4098077D01*
X+3825285Y-4098076D01*
X+3772802Y-4098077D01*
X+2308886Y-4098077D01*
X+2021779Y-3810970D01*
X+2021779Y-2402384D01*
X+1778394Y-2158999D01*
X+1540684Y-2158999D01*
X+1502584Y-2197099D01*
X+1418416Y-2197099D01*
X+1380316Y-2158999D01*
X-808816Y-2158999D01*
X-846916Y-2197099D01*
X-931084Y-2197099D01*
X-969184Y-2158999D01*
X-3031316Y-2158999D01*
X-3069416Y-2197099D01*
X-3153584Y-2197099D01*
X-3213099Y-2137584D01*
X-3213099Y-2053416D01*
X-3174999Y-2015316D01*
X-3174999Y-1896665D01*
X-3238499Y-1833165D01*
X-3238499Y-1094865D01*
X-3793316Y-1094865D01*
X-3831416Y-1132965D01*
X-3915584Y-1132965D01*
X-3975099Y-1073450D01*
X-3975099Y-1067702D01*
X-3985133Y-1057667D01*
X-4509401Y-533399D01*
X-4591049Y-533399D01*
X-4591049Y-426349D01*
X-4672699Y-507999D01*
X-4697731Y-507999D01*
X-4697731Y-539749D01*
X-4759582Y-539749D01*
X-4759582Y-698109D01*
X-4191001Y-1266690D01*
X-4191001Y-2764266D01*
X-4152901Y-2802366D01*
X-4152901Y-2886534D01*
X-4185652Y-2919284D01*
X-4114801Y-2990135D01*
X-4114801Y-3105865D01*
X-4183936Y-3175000D01*
X-4114801Y-3244135D01*
X-4114801Y-3359865D01*
X-4183936Y-3429000D01*
X-4114801Y-3498135D01*
X-4114801Y-3613865D01*
X-4196635Y-3695699D01*
X-4312365Y-3695699D01*
X-4394199Y-3613865D01*
X-4394199Y-3498135D01*
X-4325064Y-3429000D01*
X-4394199Y-3359865D01*
X-4394199Y-3244135D01*
X-4325064Y-3175000D01*
X-4394199Y-3105865D01*
X-4394199Y-2990135D01*
X-4323348Y-2919284D01*
X-4356099Y-2886534D01*
X-4356099Y-2802366D01*
X-4317999Y-2764266D01*
X-4317999Y-1319292D01*
X-4886580Y-750711D01*
X-4886580Y-539749D01*
X-4954269Y-539749D01*
X-4954269Y-507999D01*
X-4997451Y-507999D01*
X-4997451Y-533399D01*
X-5162549Y-533399D01*
X-5162549Y-355601D01*
X-4997451Y-355601D01*
X-4997451Y-381001D01*
X-4954269Y-381001D01*
X-4954269Y-349251D01*
X-4698999Y-349251D01*
X-4698999Y-260719D01*
X-4685029Y-246749D01*
X-4685029Y-165101D01*
X-4519931Y-165101D01*
X-4519931Y-342899D01*
X-4572001Y-342899D01*
X-4572001Y-355601D01*
X-4425951Y-355601D01*
X-4425951Y-437249D01*
X-3924508Y-938692D01*
X-3915584Y-929767D01*
X-3831416Y-929767D01*
X-3793316Y-967867D01*
X-3238499Y-967867D01*
X-3238499Y-533399D01*
X-3257549Y-533399D01*
X-3257549Y-408809D01*
X-3319541Y-470801D01*
X-3319541Y-574135D01*
X-3291071Y-602605D01*
X-3291071Y-676251D01*
X-3343147Y-728327D01*
X-3416793Y-728327D01*
X-3468869Y-676251D01*
X-3468869Y-602605D01*
X-3446539Y-580275D01*
X-3446539Y-539749D01*
X-3620769Y-539749D01*
X-3620769Y-507999D01*
X-3663951Y-507999D01*
X-3663951Y-533399D01*
X-3829049Y-533399D01*
X-3829049Y-355601D01*
X-3663951Y-355601D01*
X-3663951Y-381001D01*
X-3620769Y-381001D01*
X-3620769Y-349251D01*
X-3377591Y-349251D01*
X-3351529Y-323189D01*
X-3351529Y-165101D01*
X-3186431Y-165101D01*
X-3186431Y-342899D01*
G37*
G36*
X+7251699Y-2990135D02*
X+7251699Y-3105865D01*
X+7182564Y-3175000D01*
X+7251699Y-3244135D01*
X+7251699Y-3359865D01*
X+7182564Y-3429000D01*
X+7251699Y-3498135D01*
X+7251699Y-3613865D01*
X+7169865Y-3695699D01*
X+7054135Y-3695699D01*
X+6972301Y-3613865D01*
X+6972301Y-3498135D01*
X+7041436Y-3429000D01*
X+6972301Y-3359865D01*
X+6972301Y-3244135D01*
X+7041436Y-3175000D01*
X+6972301Y-3105865D01*
X+6972301Y-2990135D01*
X+7054135Y-2908301D01*
X+7169865Y-2908301D01*
X+7251699Y-2990135D01*
G37*
G36*
X+6445249Y+1168621D02*
X+6203951Y+1168621D01*
X+6203951Y+1549619D01*
X+6445249Y+1549619D01*
X+6445249Y+1168621D01*
G37*
G36*
X+8383269Y-2480749D02*
X+8318499Y-2480749D01*
X+8318499Y-2523316D01*
X+8356599Y-2561416D01*
X+8356599Y-2645584D01*
X+8297084Y-2705099D01*
X+8212916Y-2705099D01*
X+8153401Y-2645584D01*
X+8153401Y-2561416D01*
X+8191501Y-2523316D01*
X+8191501Y-2480749D01*
X+8126731Y-2480749D01*
X+8126731Y-2290251D01*
X+8383269Y-2290251D01*
X+8383269Y-2480749D01*
G37*
G36*
X-7340599Y-3920096D02*
X-7340599Y-3572904D01*
X-7095096Y-3327401D01*
X-6747904Y-3327401D01*
X-6502401Y-3572904D01*
X-6502401Y-3920096D01*
X-6747904Y-4165599D01*
X-7095096Y-4165599D01*
X-7340599Y-3920096D01*
G37*
G36*
X-7340599Y+2239404D02*
X-7340599Y+2586596D01*
X-7095096Y+2832099D01*
X-6747904Y+2832099D01*
X-6502401Y+2586596D01*
X-6502401Y+2239404D01*
X-6747904Y+1993901D01*
X-7095096Y+1993901D01*
X-7340599Y+2239404D01*
G37*
G36*
X+7581901Y+2239404D02*
X+7581901Y+2586596D01*
X+7827404Y+2832099D01*
X+8174596Y+2832099D01*
X+8420099Y+2586596D01*
X+8420099Y+2239404D01*
X+8174596Y+1993901D01*
X+7827404Y+1993901D01*
X+7581901Y+2239404D01*
G37*
G36*
X+7581901Y-3920096D02*
X+7581901Y-3572904D01*
X+7827404Y-3327401D01*
X+8174596Y-3327401D01*
X+8420099Y-3572904D01*
X+8420099Y-3920096D01*
X+8174596Y-4165599D01*
X+7827404Y-4165599D01*
X+7581901Y-3920096D01*
G37*
G36*
X-4470401Y+1909886D02*
X-4470401Y+1873965D01*
X-4406901Y+1810465D01*
X-4406901Y+1205229D01*
X-4159251Y+1205229D01*
X-4159251Y+430531D01*
X-4595231Y+430531D01*
X-4445001Y+280301D01*
X-4445001Y-20294D01*
X-4432299Y-32996D01*
X-4432299Y+292099D01*
X-4203701Y+292099D01*
X-4203701Y+102501D01*
X-4127501Y+26301D01*
X-4127501Y-59251D01*
X-4062731Y-59251D01*
X-4062731Y-249749D01*
X-4319269Y-249749D01*
X-4319269Y-59251D01*
X-4254499Y-59251D01*
X-4254499Y-38099D01*
X-4427196Y-38099D01*
X-4347525Y-117770D01*
X-4347525Y-165101D01*
X-4331971Y-165101D01*
X-4331971Y-246749D01*
X-4229469Y-349251D01*
X-4062731Y-349251D01*
X-4062731Y-539749D01*
X-4319269Y-539749D01*
X-4319269Y-439051D01*
X-4415421Y-342899D01*
X-4497069Y-342899D01*
X-4497069Y-165101D01*
X-4479794Y-165101D01*
X-4571999Y-72896D01*
X-4571999Y+227699D01*
X-4656059Y+311759D01*
X-5057492Y+311759D01*
X-5270501Y+98750D01*
X-5270501Y-352159D01*
X-5267059Y-355601D01*
X-5185411Y-355601D01*
X-5185411Y-533399D01*
X-5350509Y-533399D01*
X-5350509Y-451751D01*
X-5397499Y-404761D01*
X-5397499Y+151352D01*
X-5110094Y+438757D01*
X-4933949Y+438757D01*
X-4933949Y+647853D01*
X-4947268Y+634534D01*
X-4965229Y+634534D01*
X-5472084Y+127679D01*
X-5472084Y-3460528D01*
X-5524160Y-3512604D01*
X-5597806Y-3512604D01*
X-5649882Y-3460528D01*
X-5649882Y+201325D01*
X-5090951Y+760256D01*
X-5090951Y+778217D01*
X-5031436Y+837732D01*
X-4947268Y+837732D01*
X-4933949Y+824413D01*
X-4933949Y+1205229D01*
X-4686299Y+1205229D01*
X-4686299Y+1676401D01*
X-4703886Y+1676401D01*
X-4800599Y+1773114D01*
X-4800599Y+1909886D01*
X-4703886Y+2006599D01*
X-4567114Y+2006599D01*
X-4470401Y+1909886D01*
G37*
G36*
X-4889499Y+292099D02*
X-4660901Y+292099D01*
X-4660901Y-38099D01*
X-4889499Y-38099D01*
X-4889499Y+292099D01*
G37*
G36*
X-3225801Y+1581865D02*
X-3225801Y+1205229D01*
X-2813051Y+1205229D01*
X-2813051Y+430531D01*
X-3261731Y+430531D01*
X-3111501Y+280301D01*
X-3111501Y-9453D01*
X-3086099Y-34855D01*
X-3086099Y+292099D01*
X-2857501Y+292099D01*
X-2857501Y+102501D01*
X-2794001Y+39001D01*
X-2794001Y-59251D01*
X-2729231Y-59251D01*
X-2729231Y-249749D01*
X-2985769Y-249749D01*
X-2985769Y-59251D01*
X-2920999Y-59251D01*
X-2920999Y-38099D01*
X-3082855Y-38099D01*
X-3017877Y-103077D01*
X-3017877Y-165101D01*
X-2998471Y-165101D01*
X-2998471Y-246749D01*
X-2895969Y-349251D01*
X-2729231Y-349251D01*
X-2729231Y-539749D01*
X-2985769Y-539749D01*
X-2985769Y-439051D01*
X-3081921Y-342899D01*
X-3163569Y-342899D01*
X-3163569Y-165101D01*
X-3144875Y-165101D01*
X-3144875Y-155679D01*
X-3238499Y-62055D01*
X-3238499Y+227699D01*
X-3328302Y+317502D01*
X-3593198Y+317502D01*
X-3909108Y+1592D01*
X-3909108Y-165101D01*
X-3757931Y-165101D01*
X-3757931Y-342899D01*
X-3909108Y-342899D01*
X-3909108Y-355601D01*
X-3851911Y-355601D01*
X-3851911Y-533399D01*
X-4017009Y-533399D01*
X-4017009Y-451751D01*
X-4036106Y-432654D01*
X-4036106Y+54194D01*
X-3645802Y+444498D01*
X-3587749Y+444498D01*
X-3587749Y+1205229D01*
X-3505199Y+1205229D01*
X-3505199Y+1581865D01*
X-3423365Y+1663699D01*
X-3307635Y+1663699D01*
X-3225801Y+1581865D01*
G37*
G36*
X-3314701Y-25400D02*
X-3286218Y-25400D01*
X-3263900Y-47718D01*
X-3263900Y-79282D01*
X-3286218Y-101600D01*
X-3317782Y-101600D01*
X-3340100Y-79282D01*
X-3340100Y-47718D01*
X-3330481Y-38099D01*
X-3543299Y-38099D01*
X-3543299Y+292099D01*
X-3314701Y+292099D01*
X-3314701Y-25400D01*
G37*
G36*
X-5091431Y-342899D02*
X-5256529Y-342899D01*
X-5256529Y-165101D01*
X-5091431Y-165101D01*
X-5091431Y-342899D01*
G37*
G36*
X-4954269Y-249749D02*
X-4954269Y-59251D01*
X-4697731Y-59251D01*
X-4697731Y-249749D01*
X-4954269Y-249749D01*
G37*
G36*
X-3620769Y-249749D02*
X-3620769Y-59251D01*
X-3364231Y-59251D01*
X-3364231Y-249749D01*
X-3620769Y-249749D01*
G37*
G36*
X-3086099Y+1773114D02*
X-3086099Y+1909886D01*
X-2989386Y+2006599D01*
X-2852614Y+2006599D01*
X-2755901Y+1909886D01*
X-2755901Y+1773114D01*
X-2852614Y+1676401D01*
X-2989386Y+1676401D01*
X-3086099Y+1773114D01*
G37*
G36*
X-3530599Y+1773114D02*
X-3530599Y+1909886D01*
X-3433886Y+2006599D01*
X-3297114Y+2006599D01*
X-3200401Y+1909886D01*
X-3200401Y+1773114D01*
X-3297114Y+1676401D01*
X-3433886Y+1676401D01*
X-3530599Y+1773114D01*
G37*
G36*
X+3835399Y+1624323D02*
X+3835399Y+1588401D01*
X+3836877Y+1586923D01*
X+3836877Y+937344D01*
X+3776401Y+876868D01*
X+3776401Y+134072D01*
X+2994499Y-647830D01*
X+2994499Y-1157251D01*
X+3310731Y-1157251D01*
X+3310731Y-1147251D01*
X+3567269Y-1147251D01*
X+3567269Y-1337749D01*
X+3313269Y-1337749D01*
X+3313269Y-1347749D01*
X+2802731Y-1347749D01*
X+2802731Y-1157251D01*
X+2867501Y-1157251D01*
X+2867501Y-595228D01*
X+3649403Y+186674D01*
X+3649403Y+929470D01*
X+3709879Y+989946D01*
X+3709879Y+1498601D01*
X+3709677Y+1498601D01*
X+3657601Y+1550677D01*
X+3657601Y+1624323D01*
X+3709677Y+1676399D01*
X+3783323Y+1676399D01*
X+3835399Y+1624323D01*
G37*
G36*
X+4138769Y-1093749D02*
X+3819999Y-1093749D01*
X+3819999Y-1628982D01*
X+3128065Y-2320916D01*
X+3128065Y-3311735D01*
X+3047999Y-3391801D01*
X+3047999Y-3481605D01*
X+2973605Y-3555999D01*
X+2868395Y-3555999D01*
X+2794001Y-3481605D01*
X+2794001Y-3376395D01*
X+2868395Y-3302001D01*
X+2958199Y-3302001D01*
X+2958201Y-3301999D01*
X+2868395Y-3301999D01*
X+2794001Y-3227605D01*
X+2794001Y-3122395D01*
X+2867502Y-3048894D01*
X+2867501Y-1637749D01*
X+2802731Y-1637749D01*
X+2802731Y-1447251D01*
X+3567269Y-1447251D01*
X+3567269Y-1637749D01*
X+2994499Y-1637749D01*
X+2994498Y-3068894D01*
X+3001067Y-3075463D01*
X+3001067Y-2268314D01*
X+3693001Y-1576380D01*
X+3693001Y-1093749D01*
X+3628231Y-1093749D01*
X+3628231Y-1061999D01*
X+3597750Y-1061998D01*
X+3567269Y-1061999D01*
X+3567269Y-1093749D01*
X+3310731Y-1093749D01*
X+3310731Y-903251D01*
X+3567269Y-903251D01*
X+3567269Y-935001D01*
X+3597750Y-935002D01*
X+3628231Y-935001D01*
X+3628231Y-903251D01*
X+4138769Y-903251D01*
X+4138769Y-1093749D01*
G37*
G36*
X+3884769Y-613251D02*
X+4138769Y-613251D01*
X+4138769Y-803749D01*
X+3882231Y-803749D01*
X+3882231Y-793749D01*
X+3628231Y-793749D01*
X+3628231Y-603251D01*
X+3884769Y-603251D01*
X+3884769Y-613251D01*
G37*
G36*
X+4343399Y+1624323D02*
X+4343399Y+1550677D01*
X+4316557Y+1523835D01*
X+4316557Y+944550D01*
X+4073999Y+701992D01*
X+4073999Y-105251D01*
X+4136231Y-105251D01*
X+4136231Y-95251D01*
X+4392769Y-95251D01*
X+4392769Y-105251D01*
X+4646769Y-105251D01*
X+4646769Y-295749D01*
X+4390231Y-295749D01*
X+4390231Y-285749D01*
X+4138769Y-285749D01*
X+4138769Y-295749D01*
X+3882231Y-295749D01*
X+3882231Y-105251D01*
X+3947001Y-105251D01*
X+3947001Y+754594D01*
X+4189559Y+997152D01*
X+4189559Y+1526719D01*
X+4165601Y+1550677D01*
X+4165601Y+1624323D01*
X+4217677Y+1676399D01*
X+4291323Y+1676399D01*
X+4343399Y+1624323D01*
G37*
G36*
X+4646769Y-585749D02*
X+4327999Y-585749D01*
X+4327999Y-1312650D01*
X+3279423Y-2361226D01*
X+3279423Y-3479087D01*
X+3047999Y-3710511D01*
X+3047999Y-3735605D01*
X+2973605Y-3809999D01*
X+2868395Y-3809999D01*
X+2794001Y-3735605D01*
X+2794001Y-3630395D01*
X+2868395Y-3556001D01*
X+2973605Y-3556001D01*
X+2998257Y-3580653D01*
X+3152425Y-3426485D01*
X+3152425Y-2308624D01*
X+4201001Y-1260048D01*
X+4201001Y-585749D01*
X+3882231Y-585749D01*
X+3882231Y-395251D01*
X+4646769Y-395251D01*
X+4646769Y-585749D01*
G37*
G36*
X+4089399Y+1624323D02*
X+4089399Y+1550677D01*
X+4063999Y+1525277D01*
X+4063998Y+913774D01*
X+3936999Y+786775D01*
X+3936999Y+37199D01*
X+3502499Y-397301D01*
X+3502499Y-613251D01*
X+3567269Y-613251D01*
X+3567269Y-803749D01*
X+3310731Y-803749D01*
X+3310731Y-613251D01*
X+3375501Y-613251D01*
X+3375501Y-344699D01*
X+3810001Y+89801D01*
X+3810001Y+839377D01*
X+3937002Y+966378D01*
X+3937001Y+1525277D01*
X+3911601Y+1550677D01*
X+3911601Y+1624323D01*
X+3963677Y+1676399D01*
X+4037323Y+1676399D01*
X+4089399Y+1624323D01*
G37*
G36*
X+4394199Y+2153365D02*
X+4394199Y+2037635D01*
X+4325064Y+1968500D01*
X+4394199Y+1899365D01*
X+4394199Y+1783635D01*
X+4312365Y+1701801D01*
X+4196635Y+1701801D01*
X+4127500Y+1770936D01*
X+4058365Y+1701801D01*
X+3942635Y+1701801D01*
X+3873500Y+1770936D01*
X+3804365Y+1701801D01*
X+3688635Y+1701801D01*
X+3606801Y+1783635D01*
X+3606801Y+1899365D01*
X+3675936Y+1968500D01*
X+3606801Y+2037635D01*
X+3606801Y+2153365D01*
X+3688635Y+2235199D01*
X+3804365Y+2235199D01*
X+3873500Y+2166064D01*
X+3942635Y+2235199D01*
X+4058365Y+2235199D01*
X+4127500Y+2166064D01*
X+4196635Y+2235199D01*
X+4312365Y+2235199D01*
X+4394199Y+2153365D01*
G37*
G36*
X+2743199Y-3117135D02*
X+2743199Y-3232865D01*
X+2674064Y-3302000D01*
X+2743199Y-3371135D01*
X+2743199Y-3486865D01*
X+2674064Y-3556000D01*
X+2743199Y-3625135D01*
X+2743199Y-3740865D01*
X+2661365Y-3822699D01*
X+2545635Y-3822699D01*
X+2463801Y-3740865D01*
X+2463801Y-3625135D01*
X+2532936Y-3556000D01*
X+2463801Y-3486865D01*
X+2463801Y-3371135D01*
X+2532936Y-3302000D01*
X+2463801Y-3232865D01*
X+2463801Y-3117135D01*
X+2545635Y-3035301D01*
X+2661365Y-3035301D01*
X+2743199Y-3117135D01*
G37*
G36*
X-5003801Y-2990135D02*
X-5003801Y-3105865D01*
X-5072936Y-3175000D01*
X-5003801Y-3244135D01*
X-5003801Y-3359865D01*
X-5072936Y-3429000D01*
X-5003801Y-3498135D01*
X-5003801Y-3613865D01*
X-5085635Y-3695699D01*
X-5201365Y-3695699D01*
X-5283199Y-3613865D01*
X-5283199Y-3498135D01*
X-5214064Y-3429000D01*
X-5283199Y-3359865D01*
X-5283199Y-3244135D01*
X-5214064Y-3175000D01*
X-5283199Y-3105865D01*
X-5283199Y-2990135D01*
X-5201365Y-2908301D01*
X-5085635Y-2908301D01*
X-5003801Y-2990135D01*
G37*
G36*
X+4425851Y+1574349D02*
X+4425851Y+1600651D01*
X+4444450Y+1619250D01*
X+4470752Y+1619250D01*
X+4489351Y+1600651D01*
X+4489351Y+1574349D01*
X+4470752Y+1555750D01*
X+4444450Y+1555750D01*
X+4425851Y+1574349D01*
G37*
G36*
X-3286056Y-1178369D02*
X-3286056Y-1252015D01*
X-3338132Y-1304091D01*
X-3374054Y-1304091D01*
X-3714400Y-1644437D01*
X-3714400Y-2999215D01*
X-3676300Y-3037315D01*
X-3676300Y-3121483D01*
X-3735815Y-3180998D01*
X-3819983Y-3180998D01*
X-3879498Y-3121483D01*
X-3879498Y-3037315D01*
X-3841398Y-2999215D01*
X-3841398Y-1591835D01*
X-3463854Y-1214291D01*
X-3463854Y-1178369D01*
X-3411778Y-1126293D01*
X-3338132Y-1126293D01*
X-3286056Y-1178369D01*
G37*
G36*
X-3270250Y-1918151D02*
X-3270250Y-1891849D01*
X-3251651Y-1873250D01*
X-3225349Y-1873250D01*
X-3206750Y-1891849D01*
X-3206750Y-1918151D01*
X-3225349Y-1936750D01*
X-3251651Y-1936750D01*
X-3270250Y-1918151D01*
G37*
G36*
X+7037212Y+1800318D02*
X+7037212Y+1831882D01*
X+7059530Y+1854200D01*
X+7091094Y+1854200D01*
X+7113412Y+1831882D01*
X+7113412Y+1800318D01*
X+7091094Y+1778000D01*
X+7059530Y+1778000D01*
X+7037212Y+1800318D01*
G37*
G36*
X-3530600Y-1920782D02*
X-3530600Y-1889218D01*
X-3508282Y-1866900D01*
X-3476718Y-1866900D01*
X-3454400Y-1889218D01*
X-3454400Y-1920782D01*
X-3476718Y-1943100D01*
X-3508282Y-1943100D01*
X-3530600Y-1920782D01*
G37*
G36*
X-5111750Y-76651D02*
X-5111750Y-50349D01*
X-5093151Y-31750D01*
X-5066849Y-31750D01*
X-5048250Y-50349D01*
X-5048250Y-76651D01*
X-5066849Y-95250D01*
X-5093151Y-95250D01*
X-5111750Y-76651D01*
G37*
%LPD*%
G36*
X+6610351Y-2025649D02*
X+6610351Y-2279649D01*
X+6800849Y-2279649D01*
X+6800849Y-2214879D01*
X+6864351Y-2214879D01*
X+6864351Y-2279649D01*
X+7054849Y-2279649D01*
X+7054849Y-2158759D01*
X+7110970Y-2214879D01*
X+7113176Y-2214879D01*
X+7113176Y-2284731D01*
X+6925751Y-2284731D01*
X+6925751Y-2536352D01*
X+6923305Y-2538798D01*
X+6749669Y-2538798D01*
X+6597570Y-2386698D01*
X+6597570Y-1771649D01*
X+6610351Y-1771649D01*
X+6610351Y-2025649D01*
G37*
D11*
X+7305600Y+198120D02*
X+7305600Y+735620D01*
X+7086600Y+954620D01*
X+7645400Y+134620D02*
X+7369100Y+134620D01*
X+7305600Y+198120D01*
X+6324600Y+642620D02*
X+6324600Y+914620D01*
X+6705600Y+198120D02*
X+6705600Y+515620D01*
X+6578600Y+642620D01*
X+6324600Y+642620D01*
D10*
X+6388100Y-309880D02*
X+6388100Y-30880D01*
X+6324600Y+32620D01*
X+6896100Y-309880D02*
X+7150100Y-563880D01*
X+7150100Y-609880D01*
X+6896100Y-599880D02*
X+6642100Y-345880D01*
X+6642100Y-309880D01*
X+6388100Y-599880D02*
X+6632100Y-599880D01*
X+6642100Y-609880D01*
X+6896100Y-599880D02*
X+6896100Y-995680D01*
X+6908800Y-1008380D01*
X+6896100Y-309880D02*
X+6896100Y+109757D01*
X+6806506Y+199351D01*
X+6706831Y+199351D01*
X+6705600Y+198120D01*
X+7150100Y-309880D02*
X+7150100Y+425241D01*
X+6778507Y+796834D01*
X+6778507Y+1373262D01*
X+6747149Y+1404620D01*
X+7594600Y-119380D02*
X+7594600Y+83820D01*
X+7645400Y+134620D01*
X+7884600Y-119380D02*
X+8102600Y-119380D01*
X+8102600Y+134620D01*
X+8196580Y-1389380D02*
X+8196580Y-503360D01*
X+8159750Y-466530D01*
X+8102600Y-409380D01*
X+7548600Y-754380D02*
X+7594600Y-754380D01*
X+7594600Y-119380D01*
X+8039100Y-1725930D02*
X+7874407Y-1725930D01*
X+7847891Y-1699414D01*
X+7847891Y-1580589D01*
X+7848600Y-1579880D01*
X+7259600Y-1643380D02*
X+7259600Y-1897380D01*
X+7467600Y-2100580D02*
X+7467600Y-1833880D01*
X+8102600Y-1579880D02*
X+8166100Y-1643380D01*
X+8166100Y-1833880D01*
X+7467600Y-1833880D01*
X+7278892Y-1833880D01*
X+7265528Y-1847244D01*
X+7259600Y-1897380D01*
X+6908800Y-1262380D02*
X+6908800Y-1135380D01*
X+7340600Y-817880D02*
X+7340600Y-500380D01*
X+7150100Y-309880D01*
X+6678100Y-1643380D02*
X+6678100Y-1869880D01*
X+6705600Y-1897380D01*
X+6678100Y-1643380D02*
X+6678100Y-1277727D01*
X+6695016Y-1260811D01*
X+6868436Y-1260811D01*
X+6869931Y-1262306D01*
X+6908800Y-1262380D01*
X+6959600Y-1897380D02*
X+6959600Y-2151380D01*
X+6705600Y-2151380D01*
X+6388100Y-1135380D02*
X+6388100Y-1262380D01*
X+6388100Y-1008380D02*
X+6388100Y-599880D01*
X+6388100Y-1643380D02*
X+6415600Y-1643380D01*
X+6415600Y-1416880D01*
X+6388100Y-1389380D01*
X+6415600Y-2151380D02*
X+6415600Y-1987550D01*
X+6405600Y-1897380D01*
X+6415600Y-1987550D02*
X+6415600Y-1643380D01*
X+7467600Y-2100580D02*
X+7467600Y-2399087D01*
X+7461307Y-2405380D01*
X+7721600Y-2100580D02*
X+7721600Y-2627994D01*
X+7744699Y-2651093D01*
X+7840313Y-2651093D01*
X+7848600Y-2659380D01*
X+7848600Y-2405380D02*
X+7848600Y-2100580D01*
X+7847891Y-2099871D01*
X+7848600Y-2100580D01*
X+8039100Y-1960880D02*
X+7885072Y-1960880D01*
X+7847891Y-1998061D01*
X+7847891Y-2099871D01*
D11*
X+6324600Y+32620D02*
X+5978026Y+379194D01*
X+5978026Y+2007926D01*
X+6132626Y+2162526D01*
X+6533132Y+2162526D01*
X+6618214Y+2077444D01*
X+6667500Y+2028158D01*
X+6667500Y+1841500D01*
D10*
X+6388100Y-1135380D02*
X+6582744Y-1135380D01*
X+6634037Y-1084087D01*
X+6645236Y-1072888D01*
X+6645236Y-828743D01*
X+6712237Y-828743D01*
X+6723100Y-817880D01*
X+6959600Y-1643380D02*
X+7075540Y-1643380D01*
X+7104260Y-1672100D01*
X+7104260Y-2118369D01*
X+7134677Y-2148786D02*
X+7156505Y-2148786D01*
X+7247006Y-2148786D01*
X+7249600Y-2151380D01*
X+7104260Y-2118369D02*
X+7134677Y-2148786D01*
X+7137271Y-2151380D01*
X+7159099Y-2151380D01*
X+7249600Y-2151380D02*
X+7159099Y-2151380D01*
X+7156505Y-2148786D01*
X+7048500Y-3556000D02*
X+7048500Y-3556000D01*
X-5080000Y-444500D02*
X-4826000Y-444500D01*
X-4699000Y-444500D01*
X-4635500Y-381000D01*
X-4635500Y-287020D01*
X-4602480Y-254000D01*
X-4414520Y-254000D02*
X-4224020Y-444500D01*
X-4191000Y-444500D01*
X-4191000Y-154500D02*
X-4191000Y+0D01*
X-4318000Y+127000D01*
X-3746500Y-444500D02*
X-3492500Y-444500D01*
X-3934460Y-444500D02*
X-3972607Y-406353D01*
X-3972607Y-383439D01*
X-3972607Y+27893D01*
X-3619500Y+381000D01*
X-3302000Y+381000D01*
X-3175000Y+254000D01*
X-3175000Y-35754D01*
X-3081376Y-129378D01*
X-3081376Y-253644D01*
X-3081020Y-254000D01*
X-2890520Y-444500D01*
X-2857500Y-444500D01*
X-2857500Y-154500D02*
X-2857500Y+12700D01*
X-2971800Y+127000D01*
X-5173980Y-254000D02*
X-5074480Y-154500D01*
X-4826000Y-154500D01*
X-3429000Y-91000D02*
X-3429000Y+127000D01*
X-1016000Y-2095500D02*
X-889000Y-2095500D01*
X+1333500Y-2095500D02*
X+1460500Y-2095500D01*
X-889000Y-2095500D02*
X+1333500Y-2095500D01*
X-5267960Y-444500D02*
X-5334000Y-378460D01*
X-5334000Y+125051D01*
X-5083793Y+375258D01*
X-4629758Y+375258D01*
X-4508500Y+254000D01*
X-4508500Y-46595D01*
X-4411024Y-144071D01*
X-4411024Y-250504D01*
X-4414520Y-254000D01*
X-3111500Y-2095500D02*
X-2984500Y-2095500D01*
X+2931000Y-1542500D02*
X+3185000Y-1542500D01*
X+3439000Y-1542500D01*
X+3196111Y-1242500D02*
X+3185000Y-1252500D01*
X+3195000Y-1242500D01*
X+3196111Y-1242500D01*
X+3439000Y-1242500D01*
X+3439000Y-998500D02*
X+3756500Y-998500D01*
X+4010500Y-998500D01*
X+3756500Y-698500D02*
X+4000500Y-698500D01*
X+4010500Y-708500D01*
X+4010500Y-490500D02*
X+4264500Y-490500D01*
X+4518500Y-490500D01*
X+4264500Y-190500D02*
X+4508500Y-190500D01*
X+4518500Y-200500D01*
X+3185000Y-871500D02*
X+3693000Y-871500D01*
X+3756500Y-808000D01*
X+3756500Y-698500D01*
X+3185000Y-1252500D02*
X+3185000Y-871500D01*
X+4264500Y-190500D02*
X+4112079Y-342921D01*
X+4098204Y-342921D01*
X+3762379Y-342921D01*
X+3756500Y-337042D01*
X+3756500Y-698500D02*
X+3756500Y-337042D01*
X+1460500Y-2095500D02*
X+1804695Y-2095500D01*
X+3746500Y-2095500D02*
X+4534399Y-2095500D01*
X+6032500Y-2095500D01*
X+2931000Y-1542500D02*
X+2931000Y-3165000D01*
X+2921000Y-3175000D01*
X+3756500Y-998500D02*
X+3756500Y-1602681D01*
X+3602894Y-1756287D01*
X+3064566Y-2294615D01*
X+3064566Y-3285434D01*
X+2921000Y-3429000D01*
X+4264500Y-490500D02*
X+4264500Y-1286349D01*
X+3215924Y-2334925D01*
X+3215924Y-3452786D01*
X+2985710Y-3683000D01*
X+2921000Y-3683000D01*
D11*
X+7874000Y+825500D02*
X+7874000Y+1082918D01*
X+7355897Y+1601021D01*
X+7355897Y+2194329D01*
X+7163473Y+2386753D01*
D10*
X+4010500Y-200500D02*
X+4010500Y+728293D01*
X+4253058Y+970851D01*
X+4253058Y+1586058D01*
X+4254500Y+1587500D01*
X+3439000Y-708500D02*
X+3439000Y-371000D01*
X+3873500Y+63500D01*
X+3873500Y+813076D01*
X+4000500Y+940076D01*
X+4000500Y+1587500D01*
X+2931000Y-1252500D02*
X+2931000Y-621529D01*
X+3338846Y-213683D01*
X+3712902Y+160373D01*
X+3712902Y+903169D01*
X+3773378Y+963645D01*
X+3773378Y+1560622D01*
X+3746500Y+1587500D01*
X+4457601Y+1587500D02*
X+4457601Y+2601D01*
X+4264500Y-190500D01*
X-4254500Y-2844450D02*
X-4254500Y-1292991D01*
X-4823081Y-724410D01*
X-4823081Y-447419D01*
X-4826000Y-444500D01*
X+6892102Y-2891602D02*
X+6956191Y-2827513D01*
X+7176675Y-2607029D01*
X+7176675Y-2540000D01*
X+6892102Y-2891602D02*
X+6867996Y-2915708D01*
X+6867996Y-3546004D01*
X+6858000Y-3556000D01*
X+6582744Y-1135380D02*
X+6582744Y-1443201D01*
X+6534071Y-1491874D01*
X+6534071Y-1522968D01*
X+6534071Y-2413000D01*
X+5143500Y-2413000D01*
X+4543487Y-2921000D02*
X+4543487Y-2603500D01*
X+4543487Y-2104588D01*
X+4534399Y-2095500D01*
X+1804695Y-2095500D02*
X+2085277Y-2376082D01*
X+2085277Y-3784668D01*
X+2335187Y-4034578D01*
X+3746500Y-4034578D01*
X+4543487Y-3429000D02*
X+4543487Y-2921000D01*
D11*
X+7163473Y+2386753D02*
X+7010226Y+2540000D01*
X+6229523Y+2540000D02*
X+7010226Y+2540000D01*
X+5742750Y+2540000D02*
X+6229523Y+2540000D01*
D10*
X-3175000Y-444500D02*
X-3175000Y-600328D01*
X-2984500Y-2095500D02*
X-2886364Y-2095500D01*
X-1016000Y-2095500D01*
X-3111500Y-2095500D02*
X-3111500Y-1870364D01*
X-3111500Y-1858202D01*
X-3175000Y-1794702D01*
X-3175000Y-1806864D01*
X-3111500Y-1870364D01*
X-3492500Y-154500D02*
X-3429000Y-91000D01*
X-3492500Y-1905000D02*
X-3238500Y-1905000D01*
X+7548600Y-2405380D02*
X+7461307Y-2405380D01*
X+7318620Y-2405380D01*
X+7311000Y-2413000D01*
X+7021000Y-2413000D02*
X+7167111Y-2413000D01*
X+7176675Y-2403436D01*
X+7249600Y-2151380D02*
X+7176675Y-2224305D01*
X+7176675Y-2403436D01*
X+7176675Y-2540000D01*
X+7003489Y-2602297D02*
X+6723368Y-2602297D01*
X+6534071Y-2413000D01*
X+3937909Y-4034578D02*
X+3904070Y-4034578D01*
X+3746500Y-4034578D02*
X+3904070Y-4034578D01*
X+4543487Y-3429000D02*
X+4543487Y-4022322D01*
X+4531231Y-4034578D01*
X+3937909Y-4034578D01*
X+7400945Y-3273445D02*
X+7400945Y-2817035D01*
X+7558600Y-2659380D01*
X+8255000Y-2095500D02*
X+8290560Y-2059940D01*
X+8290560Y-1579880D01*
X+8255000Y-2385500D02*
X+8255000Y-2603500D01*
X+7485117Y-3421117D02*
X+7512202Y-3394032D01*
X+7548617Y-3357617D01*
X+8029609Y-2876625D01*
X+8029609Y-2748581D01*
X+7848600Y-2405380D02*
X+7976904Y-2405380D01*
X+8029609Y-2458085D01*
X+8029609Y-2748581D01*
X+7485117Y-3421117D02*
X+7399836Y-3506398D01*
X+7399836Y-3634444D01*
X+6999702Y-4034578D01*
X+4531231Y-4034578D01*
X-3850451Y-1031366D02*
X-3176537Y-1031366D01*
X-3175000Y-1029829D01*
X-3175000Y-600328D02*
X-3175000Y-1029829D01*
X-3175000Y-1794702D01*
X-3492500Y-444500D02*
X-3383040Y-444500D01*
X-3281995Y-343455D01*
X-3268980Y-330440D01*
X-3268980Y-254000D01*
X-3383040Y-444500D02*
X-3383040Y-636358D01*
X-3379970Y-639428D01*
X-3777899Y-2794000D02*
X-3777899Y-3079399D01*
X-3374955Y-1215192D02*
X-3777899Y-1618136D01*
X-3777899Y-2474648D01*
X-3777899Y-2794000D01*
D11*
X+6324600Y+1359120D02*
X+6370100Y+1404620D01*
X+6747149Y+1404620D01*
X+6778507Y+1404620D01*
X+1651000Y+1841500D02*
X+1651000Y+2644267D01*
X+1628267Y+2667000D01*
X-5560983Y-3238500D02*
X-5560983Y-3423705D01*
X-4989352Y+736133D02*
X-5560983Y+164502D01*
X-5560983Y-454820D01*
X-5560983Y-3238500D01*
X-635000Y+2032000D02*
X-635000Y+2634074D01*
X-635000Y+2638256D01*
X-663744Y+2667000D01*
D15*
X-1206500Y+2667000D01*
X-2540000Y+2667000D02*
X-1206500Y+2667000D01*
X-663744Y+2667000D02*
X+1628267Y+2667000D01*
D11*
X-635000Y+1841500D02*
X-635000Y+2032000D01*
X-635000Y+2634074D02*
X-634086Y+2634988D01*
D15*
X-2603500Y+2667000D02*
X-2540000Y+2667000D01*
D10*
X+7302500Y-1262380D02*
X+7302500Y-817880D01*
X+7340600Y-817880D01*
X+6908800Y-1262380D02*
X+7302500Y-1262380D01*
X+7023100Y-817880D02*
X+7302500Y-817880D01*
X+7259600Y-1643380D02*
X+7259600Y-1406880D01*
X+7302500Y-1333500D01*
X+7302500Y-1262380D01*
X+7848600Y-754380D02*
X+7848600Y-1117600D01*
X+7874000Y-1143000D01*
X+7848600Y-1579880D02*
X+7848600Y-1168400D01*
X+7874000Y-1143000D01*
X+7548600Y-754380D02*
X+7548600Y-1087400D01*
X+7493000Y-1143000D01*
X+7594600Y-1579880D02*
X+7594600Y-1244600D01*
X+7493000Y-1143000D01*
X+7696203Y-1206500D02*
X+7696203Y-1320797D01*
X+7696203Y-1346203D01*
X+7721600Y-1371600D01*
X+7721600Y-1579880D02*
X+7721600Y-1371600D01*
X+7696203Y-1206500D02*
X+7696203Y-498448D01*
X+7719735Y-474916D01*
X+7785271Y-409380D01*
X+8102600Y-409380D01*
D11*
X+3383781Y+2028052D02*
X+3383781Y+2648719D01*
X+3365500Y+2667000D01*
D15*
X+1628267Y+2667000D02*
X+3365500Y+2667000D01*
X+5615750Y+2667000D01*
X+5742750Y+2540000D01*
D11*
X+5778500Y+2032000D02*
X+5774838Y+2507912D01*
X+5742750Y+2540000D01*
X+6778507Y+1404620D02*
X+7048500Y+1404620D01*
X+7086600Y+1404620D02*
X+7048500Y+1404620D01*
X+7086600Y+1404620D02*
X+7086600Y+1804812D01*
X+7075312Y+1816100D01*
D10*
X-4508500Y-444500D02*
X-3921634Y-1031366D01*
X-3873500Y-1031366D01*
X-3850451Y-1031366D01*
D15*
X-3810000Y+2667000D02*
X-4191000Y+2286000D01*
X-4191000Y+1841500D01*
X-3810000Y+2667000D02*
X-2857500Y+2667000D01*
X-2603500Y+2667000D01*
X-4546600Y+817880D02*
X-4546600Y+1752600D01*
X-4635500Y+1841500D01*
D10*
X-4826000Y-154500D02*
X-4775200Y-103700D01*
X-4775200Y+63500D01*
X-4775200Y+127000D01*
X-5074480Y-154500D02*
X-5074480Y-69020D01*
X-5080000Y-63500D01*
X-3840480Y-254000D02*
X-3740844Y-154364D01*
X-3737598Y-154364D01*
X-3492636Y-154364D01*
X-3429272Y-91000D01*
X-3429000Y-91000D01*
X-3401500Y-63500D01*
X-3302000Y-63500D01*
X-3492636Y-154364D02*
X-3492500Y-154500D01*
D15*
X-2603500Y+2667000D02*
X-2603500Y+1841500D01*
X-3200400Y+817880D02*
X-3365500Y+982980D01*
X-3365500Y+1524000D01*
D18*
X+6858000Y-3556000D03*
D19*
X+2921000Y-3175000D03*
X+2921000Y-3429000D03*
X+2921000Y-3683000D03*
D70*
X+4457601Y+1587500D03*
X+4254500Y+1587500D03*
X+4000500Y+1587500D03*
X+3746500Y+1587500D03*
D18*
X+7400945Y-3273445D03*
D70*
X-3379970Y-639428D03*
X-3374955Y-1215192D03*
X-3238500Y-1905000D03*
D71*
X-5560983Y-3423705D03*
D20*
X-635000Y+1841500D03*
X+1651000Y+1841500D03*
X+3383781Y+2028052D03*
X+5778500Y+2032000D03*
X+7075312Y+1816100D03*
D18*
X-4989352Y+736133D03*
X-3302000Y-63500D03*
X-4254500Y-2844450D03*
X-3777899Y-3079399D03*
X+7003489Y-2602297D03*
X+8255000Y-2603500D03*
X+6032500Y-2095500D03*
X+5143500Y-2413000D03*
X+3746500Y-2095500D03*
X+1460500Y-2095500D03*
X-889000Y-2095500D03*
X-3111500Y-2095500D03*
X-3492500Y-1905000D03*
X-3873500Y-1031366D03*
D71*
X-5080000Y-63500D03*
X-2603500Y+1841500D03*
X-3365500Y+1524000D03*
D13*
X+8448040Y-4193540D02*
X-7368540Y-4193540D01*
X-7368540Y+2860040D01*
X+8448040Y+2860040D01*
X+8448040Y-4193540D01*
X-6819901Y-2381811D02*
X-6819901Y-2571189D01*
X-6947462Y-2698750D01*
X-6819901Y-2826311D01*
X-6819901Y-3015689D01*
X-6953811Y-3149599D01*
X-7143189Y-3149599D01*
X-7277099Y-3015689D01*
X-7277099Y-2826311D01*
X-7149538Y-2698750D01*
X-7277099Y-2571189D01*
X-7277099Y-2381811D01*
X-7143189Y-2247901D01*
X-6953811Y-2247901D01*
X-6819901Y-2381811D01*
X-2260599Y+1773114D02*
X-2260599Y+1909886D01*
X-2163886Y+2006599D01*
X-2027114Y+2006599D01*
X-1930401Y+1909886D01*
X-1930401Y+1773114D01*
X-2027114Y+1676401D01*
X-2163886Y+1676401D01*
X-2260599Y+1773114D01*
X-1816099Y+1773114D02*
X-1816099Y+1909886D01*
X-1719386Y+2006599D01*
X-1582614Y+2006599D01*
X-1485901Y+1909886D01*
X-1485901Y+1773114D01*
X-1582614Y+1676401D01*
X-1719386Y+1676401D01*
X-1816099Y+1773114D01*
X-2781301Y-2990135D02*
X-2781301Y-3105865D01*
X-2850436Y-3175000D01*
X-2781301Y-3244135D01*
X-2781301Y-3359865D01*
X-2850436Y-3429000D01*
X-2781301Y-3498135D01*
X-2781301Y-3613865D01*
X-2863135Y-3695699D01*
X-2978865Y-3695699D01*
X-3060699Y-3613865D01*
X-3060699Y-3498135D01*
X-2991564Y-3429000D01*
X-3060699Y-3359865D01*
X-3060699Y-3244135D01*
X-2991564Y-3175000D01*
X-3060699Y-3105865D01*
X-3060699Y-2990135D01*
X-2978865Y-2908301D01*
X-2863135Y-2908301D01*
X-2781301Y-2990135D01*
X+406401Y+1773114D02*
X+406401Y+1909886D01*
X+503114Y+2006599D01*
X+639886Y+2006599D01*
X+736599Y+1909886D01*
X+736599Y+1773114D01*
X+639886Y+1676401D01*
X+503114Y+1676401D01*
X+406401Y+1773114D01*
X-622301Y-2990135D02*
X-622301Y-3105865D01*
X-691436Y-3175000D01*
X-622301Y-3244135D01*
X-622301Y-3359865D01*
X-691436Y-3429000D01*
X-622301Y-3498135D01*
X-622301Y-3613865D01*
X-704135Y-3695699D01*
X-819865Y-3695699D01*
X-901699Y-3613865D01*
X-901699Y-3498135D01*
X-832564Y-3429000D01*
X-901699Y-3359865D01*
X-901699Y-3244135D01*
X-832564Y-3175000D01*
X-901699Y-3105865D01*
X-901699Y-2990135D01*
X-819865Y-2908301D01*
X-704135Y-2908301D01*
X-622301Y-2990135D01*
X+1727199Y-2990135D02*
X+1727199Y-3105865D01*
X+1658064Y-3175000D01*
X+1727199Y-3244135D01*
X+1727199Y-3359865D01*
X+1658064Y-3429000D01*
X+1727199Y-3498135D01*
X+1727199Y-3613865D01*
X+1645365Y-3695699D01*
X+1529635Y-3695699D01*
X+1447801Y-3613865D01*
X+1447801Y-3498135D01*
X+1516936Y-3429000D01*
X+1447801Y-3359865D01*
X+1447801Y-3244135D01*
X+1516936Y-3175000D01*
X+1447801Y-3105865D01*
X+1447801Y-2990135D01*
X+1529635Y-2908301D01*
X+1645365Y-2908301D01*
X+1727199Y-2990135D01*
X+2692401Y+1773114D02*
X+2692401Y+1909886D01*
X+2789114Y+2006599D01*
X+2925886Y+2006599D01*
X+3022599Y+1909886D01*
X+3022599Y+1773114D01*
X+2925886Y+1676401D01*
X+2789114Y+1676401D01*
X+2692401Y+1773114D01*
X+4076699Y-2990135D02*
X+4076699Y-3105865D01*
X+4007564Y-3175000D01*
X+4076699Y-3244135D01*
X+4076699Y-3359865D01*
X+4007564Y-3429000D01*
X+4076699Y-3498135D01*
X+4076699Y-3613865D01*
X+3994865Y-3695699D01*
X+3879135Y-3695699D01*
X+3797301Y-3613865D01*
X+3797301Y-3498135D01*
X+3866436Y-3429000D01*
X+3797301Y-3359865D01*
X+3797301Y-3244135D01*
X+3866436Y-3175000D01*
X+3797301Y-3105865D01*
X+3797301Y-2990135D01*
X+3879135Y-2908301D01*
X+3994865Y-2908301D01*
X+4076699Y-2990135D01*
X+6362699Y-2990135D02*
X+6362699Y-3105865D01*
X+6293564Y-3175000D01*
X+6362699Y-3244135D01*
X+6362699Y-3359865D01*
X+6293564Y-3429000D01*
X+6362699Y-3498135D01*
X+6362699Y-3613865D01*
X+6280865Y-3695699D01*
X+6165135Y-3695699D01*
X+6083301Y-3613865D01*
X+6083301Y-3498135D01*
X+6152436Y-3429000D01*
X+6083301Y-3359865D01*
X+6083301Y-3244135D01*
X+6152436Y-3175000D01*
X+6083301Y-3105865D01*
X+6083301Y-2990135D01*
X+6165135Y-2908301D01*
X+6280865Y-2908301D01*
X+6362699Y-2990135D01*
X+5041901Y+1773114D02*
X+5041901Y+1909886D01*
X+5138614Y+2006599D01*
X+5275386Y+2006599D01*
X+5372099Y+1909886D01*
X+5372099Y+1773114D01*
X+5275386Y+1676401D01*
X+5138614Y+1676401D01*
X+5041901Y+1773114D01*
X+7454901Y+1773114D02*
X+7454901Y+1909886D01*
X+7551614Y+2006599D01*
X+7688386Y+2006599D01*
X+7785099Y+1909886D01*
X+7785099Y+1773114D01*
X+7688386Y+1676401D01*
X+7551614Y+1676401D01*
X+7454901Y+1773114D01*
X+7230109Y+936833D02*
X+7394499Y+772443D01*
X+7394499Y+501649D01*
X+7403389Y+501649D01*
X+7403389Y+226053D01*
X+7405923Y+223519D01*
X+7531101Y+223519D01*
X+7531101Y+299719D01*
X+7759699Y+299719D01*
X+7759699Y-30479D01*
X+7689849Y-30479D01*
X+7689849Y-247649D01*
X+7658099Y-247649D01*
X+7658098Y-446753D01*
X+7758970Y-345881D01*
X+7974331Y-345881D01*
X+7974331Y-314131D01*
X+8230869Y-314131D01*
X+8230869Y-447849D01*
X+8260079Y-477059D01*
X+8260079Y-1300481D01*
X+8279129Y-1300481D01*
X+8279129Y-1478279D01*
X+8114031Y-1478279D01*
X+8114031Y-1300481D01*
X+8133081Y-1300481D01*
X+8133081Y-529661D01*
X+8108049Y-504629D01*
X+7974331Y-504629D01*
X+7974331Y-472879D01*
X+7811572Y-472879D01*
X+7759702Y-524749D01*
X+7759702Y-626111D01*
X+7943849Y-626111D01*
X+7943849Y-882649D01*
X+7912099Y-882649D01*
X+7912099Y-1028701D01*
X+8039099Y-1028701D01*
X+8039099Y-1257299D01*
X+7912099Y-1257299D01*
X+7912099Y-1440181D01*
X+7918449Y-1440181D01*
X+7918449Y-1662431D01*
X+7956551Y-1662431D01*
X+7956551Y-1656081D01*
X+8020051Y-1656081D01*
X+8020051Y-1490981D01*
X+8185149Y-1490981D01*
X+8185149Y-1668779D01*
X+8121649Y-1668779D01*
X+8121649Y-1795779D01*
X+7956551Y-1795779D01*
X+7956551Y-1789429D01*
X+7848106Y-1789429D01*
X+7784392Y-1725715D01*
X+7784392Y-1719579D01*
X+7397751Y-1719579D01*
X+7397751Y-1440181D01*
X+7531101Y-1440181D01*
X+7531102Y-1270902D01*
X+7517499Y-1257299D01*
X+7327901Y-1257299D01*
X+7327901Y-1028701D01*
X+7485101Y-1028701D01*
X+7485101Y-882649D01*
X+7453351Y-882649D01*
X+7453351Y-626111D01*
X+7531101Y-626111D01*
X+7531102Y-436880D01*
X+7531101Y-247649D01*
X+7499351Y-247649D01*
X+7499351Y+8889D01*
X+7531101Y+8889D01*
X+7531101Y+45721D01*
X+7403389Y+45721D01*
X+7403389Y-105409D01*
X+7207811Y-105409D01*
X+7207811Y+501649D01*
X+7216701Y+501649D01*
X+7216701Y+698797D01*
X+7104387Y+811111D01*
X+6943091Y+811111D01*
X+6943091Y+1098129D01*
X+7230109Y+1098129D01*
X+7230109Y+936833D01*
X+8373109Y-1668779D02*
X+8354059Y-1668779D01*
X+8354059Y-2000251D01*
X+8383269Y-2000251D01*
X+8383269Y-2190749D01*
X+8126731Y-2190749D01*
X+8126731Y-2000251D01*
X+8227061Y-2000251D01*
X+8227061Y-1668779D01*
X+8208011Y-1668779D01*
X+8208011Y-1490981D01*
X+8373109Y-1490981D01*
X+8373109Y-1668779D01*
X+5800615Y+2679699D02*
X+5851415Y+2628899D01*
X+7047049Y+2628899D01*
X+7444796Y+2231152D01*
X+7444796Y+1637844D01*
X+7869791Y+1212849D01*
X+8261349Y+1212849D01*
X+8261349Y+438151D01*
X+7486651Y+438151D01*
X+7486651Y+1212849D01*
X+7618347Y+1212849D01*
X+7266998Y+1564198D01*
X+7266998Y+2157506D01*
X+6973403Y+2451101D01*
X+5864232Y+2451101D01*
X+5866799Y+2141265D01*
X+5918199Y+2089865D01*
X+5918199Y+2073821D01*
X+6095803Y+2251425D01*
X+6569955Y+2251425D01*
X+6756399Y+2064981D01*
X+6756399Y+1986086D01*
X+6832599Y+1909886D01*
X+6832599Y+1773114D01*
X+6735886Y+1676401D01*
X+6599114Y+1676401D01*
X+6502401Y+1773114D01*
X+6502401Y+1909886D01*
X+6578601Y+1986086D01*
X+6578601Y+1991335D01*
X+6496309Y+2073627D01*
X+6169449Y+2073627D01*
X+6066925Y+1971103D01*
X+6066925Y+416017D01*
X+6349993Y+132949D01*
X+6532879Y+132949D01*
X+6532879Y-67709D01*
X+6451599Y-67709D01*
X+6451599Y-214631D01*
X+6832601Y-214631D01*
X+6832601Y+83456D01*
X+6803389Y+112668D01*
X+6803389Y-105409D01*
X+6607811Y-105409D01*
X+6607811Y+487687D01*
X+6541777Y+553721D01*
X+6532879Y+553721D01*
X+6532879Y+542291D01*
X+6116321Y+542291D01*
X+6116321Y+742949D01*
X+6203951Y+742949D01*
X+6203951Y+1105119D01*
X+6445249Y+1105119D01*
X+6445249Y+742949D01*
X+6532879Y+742949D01*
X+6532879Y+731519D01*
X+6615423Y+731519D01*
X+6794499Y+552443D01*
X+6794499Y+501649D01*
X+6803389Y+501649D01*
X+6803389Y+262850D01*
X+6832807Y+262850D01*
X+6959599Y+136058D01*
X+6959599Y-214631D01*
X+7278369Y-214631D01*
X+7278369Y-405129D01*
X+7081149Y-405129D01*
X+7190651Y-514631D01*
X+7278369Y-514631D01*
X+7278369Y-705129D01*
X+7118349Y-705129D01*
X+7118349Y-946149D01*
X+7048499Y-946149D01*
X+7048499Y-1459229D01*
X+6769101Y-1459229D01*
X+6769101Y-946149D01*
X+6708735Y-946149D01*
X+6708735Y-1099189D01*
X+6646243Y-1161681D01*
X+6646243Y-1469502D01*
X+6600634Y-1515111D01*
X+6773349Y-1515111D01*
X+6773349Y-1769111D01*
X+6800849Y-1769111D01*
X+6800849Y-2087881D01*
X+6864351Y-2087881D01*
X+6864351Y-1515111D01*
X+7054849Y-1515111D01*
X+7054849Y-1579881D01*
X+7101841Y-1579881D01*
X+7164351Y-1642391D01*
X+7164351Y-1515111D01*
X+7354849Y-1515111D01*
X+7354849Y-2025649D01*
X+7344849Y-2025649D01*
X+7344849Y-2279649D01*
X+7240174Y-2279649D01*
X+7240174Y-2284731D01*
X+7406249Y-2284731D01*
X+7406249Y-2541269D01*
X+7240174Y-2541269D01*
X+7240174Y-2633331D01*
X+7202976Y-2670528D01*
X+6931494Y-2942010D01*
X+6931494Y-3485811D01*
X+6959599Y-3513916D01*
X+6959599Y-3598084D01*
X+6900084Y-3657599D01*
X+6815916Y-3657599D01*
X+6756401Y-3598084D01*
X+6756401Y-3513916D01*
X+6804498Y-3465819D01*
X+6804498Y-2889406D01*
X+6990008Y-2703896D01*
X+6961405Y-2703896D01*
X+6923305Y-2665796D01*
X+6697067Y-2665796D01*
X+6507770Y-2476499D01*
X+5223684Y-2476499D01*
X+5185584Y-2514599D01*
X+5101416Y-2514599D01*
X+5041901Y-2455084D01*
X+5041901Y-2370916D01*
X+5101416Y-2311401D01*
X+5185584Y-2311401D01*
X+5223684Y-2349501D01*
X+6470572Y-2349501D01*
X+6470572Y-2279649D01*
X+6320351Y-2279649D01*
X+6320351Y-2025649D01*
X+6310351Y-2025649D01*
X+6310351Y-1771649D01*
X+6292851Y-1771649D01*
X+6292851Y-1515111D01*
X+6352101Y-1515111D01*
X+6352101Y-1459229D01*
X+6248401Y-1459229D01*
X+6248401Y-938531D01*
X+6324601Y-938531D01*
X+6324601Y-695129D01*
X+6259831Y-695129D01*
X+6259831Y-504631D01*
X+6516369Y-504631D01*
X+6516369Y-514631D01*
X+6721051Y-514631D01*
X+6611549Y-405129D01*
X+6259831Y-405129D01*
X+6259831Y-214631D01*
X+6324601Y-214631D01*
X+6324601Y-67709D01*
X+6116321Y-67709D01*
X+6116321Y+115177D01*
X+5889127Y+342371D01*
X+5889127Y+1945063D01*
X+5836365Y+1892301D01*
X+5720635Y+1892301D01*
X+5638801Y+1974135D01*
X+5638801Y+2089865D01*
X+5688569Y+2139633D01*
X+5686706Y+2400301D01*
X+5684885Y+2400301D01*
X+5557885Y+2527301D01*
X+3472680Y+2527301D01*
X+3472680Y+2136717D01*
X+3523480Y+2085917D01*
X+3523480Y+1970187D01*
X+3441646Y+1888353D01*
X+3325916Y+1888353D01*
X+3244082Y+1970187D01*
X+3244082Y+2085917D01*
X+3294882Y+2136717D01*
X+3294882Y+2527301D01*
X+1739899Y+2527301D01*
X+1739899Y+1950165D01*
X+1790699Y+1899365D01*
X+1790699Y+1783635D01*
X+1708865Y+1701801D01*
X+1593135Y+1701801D01*
X+1511301Y+1783635D01*
X+1511301Y+1899365D01*
X+1562101Y+1950165D01*
X+1562101Y+2527301D01*
X-546101Y+2527301D01*
X-546101Y+1950165D01*
X-495301Y+1899365D01*
X-495301Y+1783635D01*
X-577135Y+1701801D01*
X-692865Y+1701801D01*
X-774699Y+1783635D01*
X-774699Y+1899365D01*
X-723899Y+1950165D01*
X-723899Y+2527301D01*
X-2463801Y+2527301D01*
X-2463801Y+1783635D01*
X-2545635Y+1701801D01*
X-2661365Y+1701801D01*
X-2743199Y+1783635D01*
X-2743199Y+2527301D01*
X-3752135Y+2527301D01*
X-4051301Y+2228135D01*
X-4051301Y+1935286D01*
X-4025901Y+1909886D01*
X-4025901Y+1773114D01*
X-4122614Y+1676401D01*
X-4259386Y+1676401D01*
X-4356099Y+1773114D01*
X-4356099Y+1909886D01*
X-4330699Y+1935286D01*
X-4330699Y+2343865D01*
X-3867865Y+2806699D01*
X+5673615Y+2806699D01*
X+5800615Y+2679699D01*
X+8216899Y-24131D02*
X+8230869Y-24131D01*
X+8230869Y-214629D01*
X+7979849Y-214629D01*
X+7979849Y-247649D01*
X+7789351Y-247649D01*
X+7789351Y+8889D01*
X+7979849Y+8889D01*
X+7979849Y-24131D01*
X+7988301Y-24131D01*
X+7988301Y+299719D01*
X+8216899Y+299719D01*
X+8216899Y-24131D01*
X+7230109Y+1261111D02*
X+6943091Y+1261111D01*
X+6943091Y+1548129D01*
X+7230109Y+1548129D01*
X+7230109Y+1261111D01*
X-3186431Y-342899D02*
X-3205481Y-342899D01*
X-3205481Y-355601D01*
X-3092451Y-355601D01*
X-3092451Y-533399D01*
X-3111501Y-533399D01*
X-3111501Y-1768401D01*
X-3048001Y-1831901D01*
X-3048001Y-2015316D01*
X-3031316Y-2032001D01*
X-969184Y-2032001D01*
X-931084Y-1993901D01*
X-846916Y-1993901D01*
X-808816Y-2032001D01*
X+1380316Y-2032001D01*
X+1418416Y-1993901D01*
X+1502584Y-1993901D01*
X+1540684Y-2032001D01*
X+1830997Y-2032001D01*
X+1868194Y-2069199D01*
X+2148775Y-2349780D01*
X+2148775Y-3758366D01*
X+2361488Y-3971079D01*
X+3772802Y-3971079D01*
X+3825285Y-3971080D01*
X+3877768Y-3971079D01*
X+4479988Y-3971079D01*
X+4479988Y-2894698D01*
X+4479989Y-2762250D01*
X+4479988Y-2603500D01*
X+4479988Y-2158999D01*
X+3826684Y-2158999D01*
X+3788584Y-2197099D01*
X+3704416Y-2197099D01*
X+3644901Y-2137584D01*
X+3644901Y-2053416D01*
X+3704416Y-1993901D01*
X+3788584Y-1993901D01*
X+3826684Y-2032001D01*
X+5952316Y-2032001D01*
X+5990416Y-1993901D01*
X+6074584Y-1993901D01*
X+6134099Y-2053416D01*
X+6134099Y-2137584D01*
X+6074584Y-2197099D01*
X+5990416Y-2197099D01*
X+5952316Y-2158999D01*
X+4606986Y-2158999D01*
X+4606986Y-2629802D01*
X+4606985Y-2762250D01*
X+4606986Y-2894698D01*
X+4606986Y-3971079D01*
X+6973401Y-3971079D01*
X+7336337Y-3608143D01*
X+7336337Y-3480097D01*
X+7441390Y-3375044D01*
X+7358861Y-3375044D01*
X+7299346Y-3315529D01*
X+7299346Y-3231361D01*
X+7337446Y-3193261D01*
X+7337446Y-2790734D01*
X+7463351Y-2664829D01*
X+7463351Y-2533649D01*
X+7453351Y-2533649D01*
X+7453351Y-2277111D01*
X+7643849Y-2277111D01*
X+7643849Y-2531111D01*
X+7653849Y-2531111D01*
X+7653849Y-2787649D01*
X+7520131Y-2787649D01*
X+7464444Y-2843336D01*
X+7464444Y-3193261D01*
X+7502544Y-3231361D01*
X+7502544Y-3313890D01*
X+7966110Y-2850324D01*
X+7966110Y-2484386D01*
X+7950603Y-2468879D01*
X+7943849Y-2468879D01*
X+7943849Y-2787649D01*
X+7753351Y-2787649D01*
X+7753351Y-2714592D01*
X+7718398Y-2714592D01*
X+7658101Y-2654295D01*
X+7658101Y-2240279D01*
X+7397751Y-2240279D01*
X+7397751Y-1960881D01*
X+7795271Y-1960881D01*
X+7858771Y-1897381D01*
X+7956551Y-1897381D01*
X+7956551Y-1891031D01*
X+8121649Y-1891031D01*
X+8121649Y-2030729D01*
X+7956551Y-2030729D01*
X+7956551Y-2024379D01*
X+7918449Y-2024379D01*
X+7918449Y-2240279D01*
X+7912099Y-2240279D01*
X+7912099Y-2277111D01*
X+7943849Y-2277111D01*
X+7943849Y-2341881D01*
X+8003205Y-2341881D01*
X+8093108Y-2431784D01*
X+8093108Y-2902926D01*
X+7463335Y-3532699D01*
X+7463335Y-3660745D01*
X+7026003Y-4098077D01*
X+3877768Y-4098077D01*
X+3825285Y-4098076D01*
X+3772802Y-4098077D01*
X+2308886Y-4098077D01*
X+2021779Y-3810970D01*
X+2021779Y-2402384D01*
X+1778394Y-2158999D01*
X+1540684Y-2158999D01*
X+1502584Y-2197099D01*
X+1418416Y-2197099D01*
X+1380316Y-2158999D01*
X-808816Y-2158999D01*
X-846916Y-2197099D01*
X-931084Y-2197099D01*
X-969184Y-2158999D01*
X-3031316Y-2158999D01*
X-3069416Y-2197099D01*
X-3153584Y-2197099D01*
X-3213099Y-2137584D01*
X-3213099Y-2053416D01*
X-3174999Y-2015316D01*
X-3174999Y-1896665D01*
X-3238499Y-1833165D01*
X-3238499Y-1094865D01*
X-3793316Y-1094865D01*
X-3831416Y-1132965D01*
X-3915584Y-1132965D01*
X-3975099Y-1073450D01*
X-3975099Y-1067702D01*
X-3985133Y-1057667D01*
X-4509401Y-533399D01*
X-4591049Y-533399D01*
X-4591049Y-426349D01*
X-4672699Y-507999D01*
X-4697731Y-507999D01*
X-4697731Y-539749D01*
X-4759582Y-539749D01*
X-4759582Y-698109D01*
X-4191001Y-1266690D01*
X-4191001Y-2764266D01*
X-4152901Y-2802366D01*
X-4152901Y-2886534D01*
X-4185652Y-2919284D01*
X-4114801Y-2990135D01*
X-4114801Y-3105865D01*
X-4183936Y-3175000D01*
X-4114801Y-3244135D01*
X-4114801Y-3359865D01*
X-4183936Y-3429000D01*
X-4114801Y-3498135D01*
X-4114801Y-3613865D01*
X-4196635Y-3695699D01*
X-4312365Y-3695699D01*
X-4394199Y-3613865D01*
X-4394199Y-3498135D01*
X-4325064Y-3429000D01*
X-4394199Y-3359865D01*
X-4394199Y-3244135D01*
X-4325064Y-3175000D01*
X-4394199Y-3105865D01*
X-4394199Y-2990135D01*
X-4323348Y-2919284D01*
X-4356099Y-2886534D01*
X-4356099Y-2802366D01*
X-4317999Y-2764266D01*
X-4317999Y-1319292D01*
X-4886580Y-750711D01*
X-4886580Y-539749D01*
X-4954269Y-539749D01*
X-4954269Y-507999D01*
X-4997451Y-507999D01*
X-4997451Y-533399D01*
X-5162549Y-533399D01*
X-5162549Y-355601D01*
X-4997451Y-355601D01*
X-4997451Y-381001D01*
X-4954269Y-381001D01*
X-4954269Y-349251D01*
X-4698999Y-349251D01*
X-4698999Y-260719D01*
X-4685029Y-246749D01*
X-4685029Y-165101D01*
X-4519931Y-165101D01*
X-4519931Y-342899D01*
X-4572001Y-342899D01*
X-4572001Y-355601D01*
X-4425951Y-355601D01*
X-4425951Y-437249D01*
X-3924508Y-938692D01*
X-3915584Y-929767D01*
X-3831416Y-929767D01*
X-3793316Y-967867D01*
X-3238499Y-967867D01*
X-3238499Y-533399D01*
X-3257549Y-533399D01*
X-3257549Y-408809D01*
X-3319541Y-470801D01*
X-3319541Y-574135D01*
X-3291071Y-602605D01*
X-3291071Y-676251D01*
X-3343147Y-728327D01*
X-3416793Y-728327D01*
X-3468869Y-676251D01*
X-3468869Y-602605D01*
X-3446539Y-580275D01*
X-3446539Y-539749D01*
X-3620769Y-539749D01*
X-3620769Y-507999D01*
X-3663951Y-507999D01*
X-3663951Y-533399D01*
X-3829049Y-533399D01*
X-3829049Y-355601D01*
X-3663951Y-355601D01*
X-3663951Y-381001D01*
X-3620769Y-381001D01*
X-3620769Y-349251D01*
X-3377591Y-349251D01*
X-3351529Y-323189D01*
X-3351529Y-165101D01*
X-3186431Y-165101D01*
X-3186431Y-342899D01*
X+7251699Y-2990135D02*
X+7251699Y-3105865D01*
X+7182564Y-3175000D01*
X+7251699Y-3244135D01*
X+7251699Y-3359865D01*
X+7182564Y-3429000D01*
X+7251699Y-3498135D01*
X+7251699Y-3613865D01*
X+7169865Y-3695699D01*
X+7054135Y-3695699D01*
X+6972301Y-3613865D01*
X+6972301Y-3498135D01*
X+7041436Y-3429000D01*
X+6972301Y-3359865D01*
X+6972301Y-3244135D01*
X+7041436Y-3175000D01*
X+6972301Y-3105865D01*
X+6972301Y-2990135D01*
X+7054135Y-2908301D01*
X+7169865Y-2908301D01*
X+7251699Y-2990135D01*
X+6445249Y+1168621D02*
X+6203951Y+1168621D01*
X+6203951Y+1549619D01*
X+6445249Y+1549619D01*
X+6445249Y+1168621D01*
X+8383269Y-2480749D02*
X+8318499Y-2480749D01*
X+8318499Y-2523316D01*
X+8356599Y-2561416D01*
X+8356599Y-2645584D01*
X+8297084Y-2705099D01*
X+8212916Y-2705099D01*
X+8153401Y-2645584D01*
X+8153401Y-2561416D01*
X+8191501Y-2523316D01*
X+8191501Y-2480749D01*
X+8126731Y-2480749D01*
X+8126731Y-2290251D01*
X+8383269Y-2290251D01*
X+8383269Y-2480749D01*
X-7340599Y-3920096D02*
X-7340599Y-3572904D01*
X-7095096Y-3327401D01*
X-6747904Y-3327401D01*
X-6502401Y-3572904D01*
X-6502401Y-3920096D01*
X-6747904Y-4165599D01*
X-7095096Y-4165599D01*
X-7340599Y-3920096D01*
X-7340599Y+2239404D02*
X-7340599Y+2586596D01*
X-7095096Y+2832099D01*
X-6747904Y+2832099D01*
X-6502401Y+2586596D01*
X-6502401Y+2239404D01*
X-6747904Y+1993901D01*
X-7095096Y+1993901D01*
X-7340599Y+2239404D01*
X+7581901Y+2239404D02*
X+7581901Y+2586596D01*
X+7827404Y+2832099D01*
X+8174596Y+2832099D01*
X+8420099Y+2586596D01*
X+8420099Y+2239404D01*
X+8174596Y+1993901D01*
X+7827404Y+1993901D01*
X+7581901Y+2239404D01*
X+7581901Y-3920096D02*
X+7581901Y-3572904D01*
X+7827404Y-3327401D01*
X+8174596Y-3327401D01*
X+8420099Y-3572904D01*
X+8420099Y-3920096D01*
X+8174596Y-4165599D01*
X+7827404Y-4165599D01*
X+7581901Y-3920096D01*
X-4470401Y+1909886D02*
X-4470401Y+1873965D01*
X-4406901Y+1810465D01*
X-4406901Y+1205229D01*
X-4159251Y+1205229D01*
X-4159251Y+430531D01*
X-4595231Y+430531D01*
X-4445001Y+280301D01*
X-4445001Y-20294D01*
X-4432299Y-32996D01*
X-4432299Y+292099D01*
X-4203701Y+292099D01*
X-4203701Y+102501D01*
X-4127501Y+26301D01*
X-4127501Y-59251D01*
X-4062731Y-59251D01*
X-4062731Y-249749D01*
X-4319269Y-249749D01*
X-4319269Y-59251D01*
X-4254499Y-59251D01*
X-4254499Y-38099D01*
X-4427196Y-38099D01*
X-4347525Y-117770D01*
X-4347525Y-165101D01*
X-4331971Y-165101D01*
X-4331971Y-246749D01*
X-4229469Y-349251D01*
X-4062731Y-349251D01*
X-4062731Y-539749D01*
X-4319269Y-539749D01*
X-4319269Y-439051D01*
X-4415421Y-342899D01*
X-4497069Y-342899D01*
X-4497069Y-165101D01*
X-4479794Y-165101D01*
X-4571999Y-72896D01*
X-4571999Y+227699D01*
X-4656059Y+311759D01*
X-5057492Y+311759D01*
X-5270501Y+98750D01*
X-5270501Y-352159D01*
X-5267059Y-355601D01*
X-5185411Y-355601D01*
X-5185411Y-533399D01*
X-5350509Y-533399D01*
X-5350509Y-451751D01*
X-5397499Y-404761D01*
X-5397499Y+151352D01*
X-5110094Y+438757D01*
X-4933949Y+438757D01*
X-4933949Y+647853D01*
X-4947268Y+634534D01*
X-4965229Y+634534D01*
X-5472084Y+127679D01*
X-5472084Y-3460528D01*
X-5524160Y-3512604D01*
X-5597806Y-3512604D01*
X-5649882Y-3460528D01*
X-5649882Y+201325D01*
X-5090951Y+760256D01*
X-5090951Y+778217D01*
X-5031436Y+837732D01*
X-4947268Y+837732D01*
X-4933949Y+824413D01*
X-4933949Y+1205229D01*
X-4686299Y+1205229D01*
X-4686299Y+1676401D01*
X-4703886Y+1676401D01*
X-4800599Y+1773114D01*
X-4800599Y+1909886D01*
X-4703886Y+2006599D01*
X-4567114Y+2006599D01*
X-4470401Y+1909886D01*
X-4889499Y+292099D02*
X-4660901Y+292099D01*
X-4660901Y-38099D01*
X-4889499Y-38099D01*
X-4889499Y+292099D01*
X-3225801Y+1581865D02*
X-3225801Y+1205229D01*
X-2813051Y+1205229D01*
X-2813051Y+430531D01*
X-3261731Y+430531D01*
X-3111501Y+280301D01*
X-3111501Y-9453D01*
X-3086099Y-34855D01*
X-3086099Y+292099D01*
X-2857501Y+292099D01*
X-2857501Y+102501D01*
X-2794001Y+39001D01*
X-2794001Y-59251D01*
X-2729231Y-59251D01*
X-2729231Y-249749D01*
X-2985769Y-249749D01*
X-2985769Y-59251D01*
X-2920999Y-59251D01*
X-2920999Y-38099D01*
X-3082855Y-38099D01*
X-3017877Y-103077D01*
X-3017877Y-165101D01*
X-2998471Y-165101D01*
X-2998471Y-246749D01*
X-2895969Y-349251D01*
X-2729231Y-349251D01*
X-2729231Y-539749D01*
X-2985769Y-539749D01*
X-2985769Y-439051D01*
X-3081921Y-342899D01*
X-3163569Y-342899D01*
X-3163569Y-165101D01*
X-3144875Y-165101D01*
X-3144875Y-155679D01*
X-3238499Y-62055D01*
X-3238499Y+227699D01*
X-3328302Y+317502D01*
X-3593198Y+317502D01*
X-3909108Y+1592D01*
X-3909108Y-165101D01*
X-3757931Y-165101D01*
X-3757931Y-342899D01*
X-3909108Y-342899D01*
X-3909108Y-355601D01*
X-3851911Y-355601D01*
X-3851911Y-533399D01*
X-4017009Y-533399D01*
X-4017009Y-451751D01*
X-4036106Y-432654D01*
X-4036106Y+54194D01*
X-3645802Y+444498D01*
X-3587749Y+444498D01*
X-3587749Y+1205229D01*
X-3505199Y+1205229D01*
X-3505199Y+1581865D01*
X-3423365Y+1663699D01*
X-3307635Y+1663699D01*
X-3225801Y+1581865D01*
X-3314701Y-25400D02*
X-3286218Y-25400D01*
X-3263900Y-47718D01*
X-3263900Y-79282D01*
X-3286218Y-101600D01*
X-3317782Y-101600D01*
X-3340100Y-79282D01*
X-3340100Y-47718D01*
X-3330481Y-38099D01*
X-3543299Y-38099D01*
X-3543299Y+292099D01*
X-3314701Y+292099D01*
X-3314701Y-25400D01*
X-5091431Y-342899D02*
X-5256529Y-342899D01*
X-5256529Y-165101D01*
X-5091431Y-165101D01*
X-5091431Y-342899D01*
X-4954269Y-249749D02*
X-4954269Y-59251D01*
X-4697731Y-59251D01*
X-4697731Y-249749D01*
X-4954269Y-249749D01*
X-3620769Y-249749D02*
X-3620769Y-59251D01*
X-3364231Y-59251D01*
X-3364231Y-249749D01*
X-3620769Y-249749D01*
X-3086099Y+1773114D02*
X-3086099Y+1909886D01*
X-2989386Y+2006599D01*
X-2852614Y+2006599D01*
X-2755901Y+1909886D01*
X-2755901Y+1773114D01*
X-2852614Y+1676401D01*
X-2989386Y+1676401D01*
X-3086099Y+1773114D01*
X-3530599Y+1773114D02*
X-3530599Y+1909886D01*
X-3433886Y+2006599D01*
X-3297114Y+2006599D01*
X-3200401Y+1909886D01*
X-3200401Y+1773114D01*
X-3297114Y+1676401D01*
X-3433886Y+1676401D01*
X-3530599Y+1773114D01*
X+3835399Y+1624323D02*
X+3835399Y+1588401D01*
X+3836877Y+1586923D01*
X+3836877Y+937344D01*
X+3776401Y+876868D01*
X+3776401Y+134072D01*
X+2994499Y-647830D01*
X+2994499Y-1157251D01*
X+3310731Y-1157251D01*
X+3310731Y-1147251D01*
X+3567269Y-1147251D01*
X+3567269Y-1337749D01*
X+3313269Y-1337749D01*
X+3313269Y-1347749D01*
X+2802731Y-1347749D01*
X+2802731Y-1157251D01*
X+2867501Y-1157251D01*
X+2867501Y-595228D01*
X+3649403Y+186674D01*
X+3649403Y+929470D01*
X+3709879Y+989946D01*
X+3709879Y+1498601D01*
X+3709677Y+1498601D01*
X+3657601Y+1550677D01*
X+3657601Y+1624323D01*
X+3709677Y+1676399D01*
X+3783323Y+1676399D01*
X+3835399Y+1624323D01*
X+4138769Y-1093749D02*
X+3819999Y-1093749D01*
X+3819999Y-1628982D01*
X+3128065Y-2320916D01*
X+3128065Y-3311735D01*
X+3047999Y-3391801D01*
X+3047999Y-3481605D01*
X+2973605Y-3555999D01*
X+2868395Y-3555999D01*
X+2794001Y-3481605D01*
X+2794001Y-3376395D01*
X+2868395Y-3302001D01*
X+2958199Y-3302001D01*
X+2958201Y-3301999D01*
X+2868395Y-3301999D01*
X+2794001Y-3227605D01*
X+2794001Y-3122395D01*
X+2867502Y-3048894D01*
X+2867501Y-1637749D01*
X+2802731Y-1637749D01*
X+2802731Y-1447251D01*
X+3567269Y-1447251D01*
X+3567269Y-1637749D01*
X+2994499Y-1637749D01*
X+2994498Y-3068894D01*
X+3001067Y-3075463D01*
X+3001067Y-2268314D01*
X+3693001Y-1576380D01*
X+3693001Y-1093749D01*
X+3628231Y-1093749D01*
X+3628231Y-1061999D01*
X+3597750Y-1061998D01*
X+3567269Y-1061999D01*
X+3567269Y-1093749D01*
X+3310731Y-1093749D01*
X+3310731Y-903251D01*
X+3567269Y-903251D01*
X+3567269Y-935001D01*
X+3597750Y-935002D01*
X+3628231Y-935001D01*
X+3628231Y-903251D01*
X+4138769Y-903251D01*
X+4138769Y-1093749D01*
X+3884769Y-613251D02*
X+4138769Y-613251D01*
X+4138769Y-803749D01*
X+3882231Y-803749D01*
X+3882231Y-793749D01*
X+3628231Y-793749D01*
X+3628231Y-603251D01*
X+3884769Y-603251D01*
X+3884769Y-613251D01*
X+4343399Y+1624323D02*
X+4343399Y+1550677D01*
X+4316557Y+1523835D01*
X+4316557Y+944550D01*
X+4073999Y+701992D01*
X+4073999Y-105251D01*
X+4136231Y-105251D01*
X+4136231Y-95251D01*
X+4392769Y-95251D01*
X+4392769Y-105251D01*
X+4646769Y-105251D01*
X+4646769Y-295749D01*
X+4390231Y-295749D01*
X+4390231Y-285749D01*
X+4138769Y-285749D01*
X+4138769Y-295749D01*
X+3882231Y-295749D01*
X+3882231Y-105251D01*
X+3947001Y-105251D01*
X+3947001Y+754594D01*
X+4189559Y+997152D01*
X+4189559Y+1526719D01*
X+4165601Y+1550677D01*
X+4165601Y+1624323D01*
X+4217677Y+1676399D01*
X+4291323Y+1676399D01*
X+4343399Y+1624323D01*
X+4646769Y-585749D02*
X+4327999Y-585749D01*
X+4327999Y-1312650D01*
X+3279423Y-2361226D01*
X+3279423Y-3479087D01*
X+3047999Y-3710511D01*
X+3047999Y-3735605D01*
X+2973605Y-3809999D01*
X+2868395Y-3809999D01*
X+2794001Y-3735605D01*
X+2794001Y-3630395D01*
X+2868395Y-3556001D01*
X+2973605Y-3556001D01*
X+2998257Y-3580653D01*
X+3152425Y-3426485D01*
X+3152425Y-2308624D01*
X+4201001Y-1260048D01*
X+4201001Y-585749D01*
X+3882231Y-585749D01*
X+3882231Y-395251D01*
X+4646769Y-395251D01*
X+4646769Y-585749D01*
X+4089399Y+1624323D02*
X+4089399Y+1550677D01*
X+4063999Y+1525277D01*
X+4063998Y+913774D01*
X+3936999Y+786775D01*
X+3936999Y+37199D01*
X+3502499Y-397301D01*
X+3502499Y-613251D01*
X+3567269Y-613251D01*
X+3567269Y-803749D01*
X+3310731Y-803749D01*
X+3310731Y-613251D01*
X+3375501Y-613251D01*
X+3375501Y-344699D01*
X+3810001Y+89801D01*
X+3810001Y+839377D01*
X+3937002Y+966378D01*
X+3937001Y+1525277D01*
X+3911601Y+1550677D01*
X+3911601Y+1624323D01*
X+3963677Y+1676399D01*
X+4037323Y+1676399D01*
X+4089399Y+1624323D01*
X+4394199Y+2153365D02*
X+4394199Y+2037635D01*
X+4325064Y+1968500D01*
X+4394199Y+1899365D01*
X+4394199Y+1783635D01*
X+4312365Y+1701801D01*
X+4196635Y+1701801D01*
X+4127500Y+1770936D01*
X+4058365Y+1701801D01*
X+3942635Y+1701801D01*
X+3873500Y+1770936D01*
X+3804365Y+1701801D01*
X+3688635Y+1701801D01*
X+3606801Y+1783635D01*
X+3606801Y+1899365D01*
X+3675936Y+1968500D01*
X+3606801Y+2037635D01*
X+3606801Y+2153365D01*
X+3688635Y+2235199D01*
X+3804365Y+2235199D01*
X+3873500Y+2166064D01*
X+3942635Y+2235199D01*
X+4058365Y+2235199D01*
X+4127500Y+2166064D01*
X+4196635Y+2235199D01*
X+4312365Y+2235199D01*
X+4394199Y+2153365D01*
X+2743199Y-3117135D02*
X+2743199Y-3232865D01*
X+2674064Y-3302000D01*
X+2743199Y-3371135D01*
X+2743199Y-3486865D01*
X+2674064Y-3556000D01*
X+2743199Y-3625135D01*
X+2743199Y-3740865D01*
X+2661365Y-3822699D01*
X+2545635Y-3822699D01*
X+2463801Y-3740865D01*
X+2463801Y-3625135D01*
X+2532936Y-3556000D01*
X+2463801Y-3486865D01*
X+2463801Y-3371135D01*
X+2532936Y-3302000D01*
X+2463801Y-3232865D01*
X+2463801Y-3117135D01*
X+2545635Y-3035301D01*
X+2661365Y-3035301D01*
X+2743199Y-3117135D01*
X-5003801Y-2990135D02*
X-5003801Y-3105865D01*
X-5072936Y-3175000D01*
X-5003801Y-3244135D01*
X-5003801Y-3359865D01*
X-5072936Y-3429000D01*
X-5003801Y-3498135D01*
X-5003801Y-3613865D01*
X-5085635Y-3695699D01*
X-5201365Y-3695699D01*
X-5283199Y-3613865D01*
X-5283199Y-3498135D01*
X-5214064Y-3429000D01*
X-5283199Y-3359865D01*
X-5283199Y-3244135D01*
X-5214064Y-3175000D01*
X-5283199Y-3105865D01*
X-5283199Y-2990135D01*
X-5201365Y-2908301D01*
X-5085635Y-2908301D01*
X-5003801Y-2990135D01*
X+4425851Y+1574349D02*
X+4425851Y+1600651D01*
X+4444450Y+1619250D01*
X+4470752Y+1619250D01*
X+4489351Y+1600651D01*
X+4489351Y+1574349D01*
X+4470752Y+1555750D01*
X+4444450Y+1555750D01*
X+4425851Y+1574349D01*
X-3286056Y-1178369D02*
X-3286056Y-1252015D01*
X-3338132Y-1304091D01*
X-3374054Y-1304091D01*
X-3714400Y-1644437D01*
X-3714400Y-2999215D01*
X-3676300Y-3037315D01*
X-3676300Y-3121483D01*
X-3735815Y-3180998D01*
X-3819983Y-3180998D01*
X-3879498Y-3121483D01*
X-3879498Y-3037315D01*
X-3841398Y-2999215D01*
X-3841398Y-1591835D01*
X-3463854Y-1214291D01*
X-3463854Y-1178369D01*
X-3411778Y-1126293D01*
X-3338132Y-1126293D01*
X-3286056Y-1178369D01*
X-3270250Y-1918151D02*
X-3270250Y-1891849D01*
X-3251651Y-1873250D01*
X-3225349Y-1873250D01*
X-3206750Y-1891849D01*
X-3206750Y-1918151D01*
X-3225349Y-1936750D01*
X-3251651Y-1936750D01*
X-3270250Y-1918151D01*
X+7037212Y+1800318D02*
X+7037212Y+1831882D01*
X+7059530Y+1854200D01*
X+7091094Y+1854200D01*
X+7113412Y+1831882D01*
X+7113412Y+1800318D01*
X+7091094Y+1778000D01*
X+7059530Y+1778000D01*
X+7037212Y+1800318D01*
X-3530600Y-1920782D02*
X-3530600Y-1889218D01*
X-3508282Y-1866900D01*
X-3476718Y-1866900D01*
X-3454400Y-1889218D01*
X-3454400Y-1920782D01*
X-3476718Y-1943100D01*
X-3508282Y-1943100D01*
X-3530600Y-1920782D01*
X-5111750Y-76651D02*
X-5111750Y-50349D01*
X-5093151Y-31750D01*
X-5066849Y-31750D01*
X-5048250Y-50349D01*
X-5048250Y-76651D01*
X-5066849Y-95250D01*
X-5093151Y-95250D01*
X-5111750Y-76651D01*
X+6610351Y-2025649D02*
X+6610351Y-2279649D01*
X+6800849Y-2279649D01*
X+6800849Y-2214879D01*
X+6864351Y-2214879D01*
X+6864351Y-2279649D01*
X+7054849Y-2279649D01*
X+7054849Y-2158759D01*
X+7110970Y-2214879D01*
X+7113176Y-2214879D01*
X+7113176Y-2284731D01*
X+6925751Y-2284731D01*
X+6925751Y-2536352D01*
X+6923305Y-2538798D01*
X+6749669Y-2538798D01*
X+6597570Y-2386698D01*
X+6597570Y-1771649D01*
X+6610351Y-1771649D01*
X+6610351Y-2025649D01*
X-7277099Y-2921000D02*
X-7048500Y-2921000D01*
X-6819901Y-2921000D02*
X-7048500Y-2921000D01*
X-7048500Y-3149599D02*
X-7048500Y-2921000D01*
X-2260599Y+1841500D02*
X-2095500Y+1841500D01*
X-1930401Y+1841500D02*
X-2095500Y+1841500D01*
X-2095500Y+1676401D02*
X-2095500Y+1841500D01*
X-2095500Y+2006599D02*
X-2095500Y+1841500D01*
X+8185149Y-1579880D02*
X+8102600Y-1579880D01*
X+8020051Y-1579880D02*
X+8102600Y-1579880D01*
X+8102600Y-1490981D02*
X+8102600Y-1579880D01*
X+7230109Y+1404620D02*
X+7086600Y+1404620D01*
X+6943091Y+1404620D02*
X+7086600Y+1404620D01*
X+7086600Y+1548129D02*
X+7086600Y+1404620D01*
X+7086600Y+1261111D02*
X+7086600Y+1404620D01*
X+6445249Y+1359120D02*
X+6324600Y+1359120D01*
X+6203951Y+1359120D02*
X+6324600Y+1359120D01*
X+6324600Y+1549619D02*
X+6324600Y+1359120D01*
X+6324600Y+1168621D02*
X+6324600Y+1359120D01*
X+6769101Y-1135380D02*
X+6908800Y-1135380D01*
X+7048499Y-1135380D02*
X+6908800Y-1135380D01*
X+6769101Y-1262380D02*
X+6908800Y-1262380D01*
X+7048499Y-1262380D02*
X+6908800Y-1262380D01*
X+7397751Y-2100580D02*
X+7467600Y-2100580D01*
X+7467600Y-1960881D02*
X+7467600Y-2100580D01*
X+7467600Y-2240279D02*
X+7467600Y-2100580D01*
X+6773349Y-1643380D02*
X+6678100Y-1643380D01*
X+6678100Y-1515111D02*
X+6678100Y-1643380D01*
X+7453351Y-2405380D02*
X+7548600Y-2405380D01*
X+7643849Y-2405380D02*
X+7548600Y-2405380D01*
X+7548600Y-2277111D02*
X+7548600Y-2405380D01*
X+7150100Y-405129D02*
X+7150100Y-309880D01*
X+7150100Y-214631D02*
X+7150100Y-309880D01*
X+7278369Y-309880D02*
X+7150100Y-309880D01*
X+7118349Y-817880D02*
X+7023100Y-817880D01*
X+7354849Y-1643380D02*
X+7259600Y-1643380D01*
X+7259600Y-1515111D02*
X+7259600Y-1643380D01*
X+7354849Y-1897380D02*
X+7259600Y-1897380D01*
X+6610351Y-1897380D02*
X+6705600Y-1897380D01*
X+6800849Y-1897380D02*
X+6705600Y-1897380D01*
X-4889499Y+127000D02*
X-4775200Y+127000D01*
X-4660901Y+127000D02*
X-4775200Y+127000D01*
X-4775200Y-38099D02*
X-4775200Y+127000D01*
X-4775200Y+292099D02*
X-4775200Y+127000D01*
X-3543299Y+127000D02*
X-3429000Y+127000D01*
X-3314701Y+127000D02*
X-3429000Y+127000D01*
X-3429000Y-38099D02*
X-3429000Y+127000D01*
X-3429000Y+292099D02*
X-3429000Y+127000D01*
X-5091431Y-254000D02*
X-5173980Y-254000D01*
X-5256529Y-254000D02*
X-5173980Y-254000D01*
X-5173980Y-165101D02*
X-5173980Y-254000D01*
X-5173980Y-342899D02*
X-5173980Y-254000D01*
X-3757931Y-254000D02*
X-3840480Y-254000D01*
X-3840480Y-165101D02*
X-3840480Y-254000D01*
X-3840480Y-342899D02*
X-3840480Y-254000D01*
X-4826000Y-249749D02*
X-4826000Y-154500D01*
X-4826000Y-59251D02*
X-4826000Y-154500D01*
X-4697731Y-154500D02*
X-4826000Y-154500D01*
X-4954269Y-154500D02*
X-4826000Y-154500D01*
X-3492500Y-249749D02*
X-3492500Y-154500D01*
X-3492500Y-59251D02*
X-3492500Y-154500D01*
X-3364231Y-154500D02*
X-3492500Y-154500D01*
X-3620769Y-154500D02*
X-3492500Y-154500D01*
X+3439000Y-1337749D02*
X+3439000Y-1242500D01*
X+3439000Y-1147251D02*
X+3439000Y-1242500D01*
X+3567269Y-1242500D02*
X+3439000Y-1242500D01*
X+3756500Y-793749D02*
X+3756500Y-698500D01*
X+3756500Y-603251D02*
X+3756500Y-698500D01*
X+3628231Y-698500D02*
X+3756500Y-698500D01*
X+4264500Y-285749D02*
X+4264500Y-190500D01*
X+4264500Y-95251D02*
X+4264500Y-190500D01*
X+4010500Y-613251D02*
X+4010500Y-708500D01*
X+4010500Y-803749D02*
X+4010500Y-708500D01*
X+4138769Y-708500D02*
X+4010500Y-708500D01*
X+3185000Y-1157251D02*
X+3185000Y-1252500D01*
X+3185000Y-1347749D02*
X+3185000Y-1252500D01*
X+4518500Y-105251D02*
X+4518500Y-200500D01*
X+4518500Y-295749D02*
X+4518500Y-200500D01*
X+4646769Y-200500D02*
X+4518500Y-200500D01*
X+3746500Y+2235199D02*
X+3746500Y+2095500D01*
X+3606801Y+2095500D02*
X+3746500Y+2095500D01*
X+4000500Y+2235199D02*
X+4000500Y+2095500D01*
X+4254500Y+2235199D02*
X+4254500Y+2095500D01*
X+4394199Y+2095500D02*
X+4254500Y+2095500D01*
X-5283199Y-3302000D02*
X-5143500Y-3302000D01*
X-5003801Y-3302000D02*
X-5143500Y-3302000D01*
X+7406249Y-2413000D02*
X+7311000Y-2413000D01*
X+7311000Y-2541269D02*
X+7311000Y-2413000D01*
X+7311000Y-2284731D02*
X+7311000Y-2413000D01*
D22*
X-7048500Y-2476500D03*
X-7048500Y-2921000D03*
D23*
X-2095500Y+1841500D03*
X-1651000Y+1841500D03*
D24*
X-2921000Y-3556000D03*
X-2921000Y-3048000D03*
X-2921000Y-3302000D03*
D23*
X+571500Y+1841500D03*
D24*
X-762000Y-3556000D03*
X-762000Y-3302000D03*
X-762000Y-3048000D03*
X+1587500Y-3302000D03*
X+1587500Y-3556000D03*
X+1587500Y-3048000D03*
D23*
X+2857500Y+1841500D03*
D24*
X+3937000Y-3556000D03*
X+6223000Y-3556000D03*
X+3937000Y-3048000D03*
X+6223000Y-3048000D03*
X+3937000Y-3302000D03*
X+6223000Y-3302000D03*
D23*
X+5207000Y+1841500D03*
X+7620000Y+1841500D03*
D33*
X+8196580Y-1389380D03*
X+8290560Y-1579880D03*
X+8102600Y-1579880D03*
D29*
X+7874000Y+825500D03*
D72*
X+8102600Y+134620D03*
X+7645400Y+134620D03*
D26*
X+7086600Y+1404620D03*
X+7086600Y+954620D03*
D32*
X+8039100Y-1960880D03*
X+8039100Y-1725930D03*
D21*
X+6705600Y+198120D03*
X+7305600Y+198120D03*
D24*
X+7112000Y-3302000D03*
X+7112000Y-3556000D03*
X+7112000Y-3048000D03*
D23*
X+6667500Y+1841500D03*
D24*
X-4254500Y-3556000D03*
D27*
X+6324600Y+914620D03*
X+6324600Y+1359120D03*
D34*
X+6908800Y-1008380D03*
X+6908800Y-1135380D03*
X+6908800Y-1262380D03*
X+6908800Y-1389380D03*
X+6388100Y-1389380D03*
X+6388100Y-1262380D03*
X+6388100Y-1135380D03*
X+6388100Y-1008380D03*
D73*
X+7848600Y-2100580D03*
X+7721600Y-2100580D03*
X+7594600Y-2100580D03*
X+7467600Y-2100580D03*
X+7467600Y-1579880D03*
X+7594600Y-1579880D03*
X+7721600Y-1579880D03*
X+7848600Y-1579880D03*
D28*
X+6324600Y+642620D03*
X+6324600Y+32620D03*
D31*
X+7874000Y-1143000D03*
X+7493000Y-1143000D03*
D25*
X+7848600Y-754380D03*
X+7548600Y-754380D03*
X+6705600Y-2151380D03*
X+6415600Y-2151380D03*
X+6678100Y-1643380D03*
X+6388100Y-1643380D03*
D30*
X+6388100Y-599880D03*
X+6388100Y-309880D03*
X+6896100Y-599880D03*
X+6896100Y-309880D03*
D25*
X+7249600Y-2151380D03*
X+6959600Y-2151380D03*
D30*
X+8255000Y-2095500D03*
X+8255000Y-2385500D03*
D25*
X+7848600Y-2405380D03*
X+7548600Y-2405380D03*
D30*
X+7150100Y-309880D03*
X+7150100Y-609880D03*
X+8102600Y-119380D03*
X+8102600Y-409380D03*
D25*
X+7594600Y-119380D03*
X+7884600Y-119380D03*
X+7848600Y-2659380D03*
X+7558600Y-2659380D03*
D30*
X+6642100Y-309880D03*
X+6642100Y-609880D03*
D25*
X+7023100Y-817880D03*
X+6723100Y-817880D03*
X+7259600Y-1643380D03*
X+6959600Y-1643380D03*
X+7259600Y-1897380D03*
X+6959600Y-1897380D03*
X+6705600Y-1897380D03*
X+6405600Y-1897380D03*
D35*
X-6921500Y-3746500D03*
X-6921500Y+2413000D03*
X+8001000Y+2413000D03*
X+8001000Y-3746500D03*
D23*
X-4191000Y+1841500D03*
X-4635500Y+1841500D03*
D29*
X-4546600Y+817880D03*
D72*
X-4318000Y+127000D03*
X-4775200Y+127000D03*
D29*
X-3200400Y+817880D03*
D72*
X-2971800Y+127000D03*
X-3429000Y+127000D03*
D33*
X-5173980Y-254000D03*
X-5080000Y-444500D03*
X-5267960Y-444500D03*
X-3840480Y-254000D03*
X-3746500Y-444500D03*
X-3934460Y-444500D03*
X-4508500Y-444500D03*
X-4602480Y-254000D03*
X-4414520Y-254000D03*
X-3175000Y-444500D03*
X-3268980Y-254000D03*
X-3081020Y-254000D03*
D30*
X-4826000Y-154500D03*
X-4826000Y-444500D03*
X-4191000Y-154500D03*
X-4191000Y-444500D03*
X-3492500Y-154500D03*
X-3492500Y-444500D03*
X-2857500Y-154500D03*
X-2857500Y-444500D03*
D23*
X-2921000Y+1841500D03*
X-3365500Y+1841500D03*
D24*
X-4254500Y-3048000D03*
X-4254500Y-3302000D03*
D30*
X+3439000Y-1242500D03*
X+3439000Y-1542500D03*
X+3756500Y-698500D03*
X+3756500Y-998500D03*
X+4264500Y-190500D03*
X+4264500Y-490500D03*
X+2931000Y-1542500D03*
X+2931000Y-1252500D03*
X+3439000Y-998500D03*
X+3439000Y-708500D03*
X+4010500Y-998500D03*
X+4010500Y-708500D03*
X+3185000Y-1542500D03*
X+3185000Y-1252500D03*
X+4010500Y-490500D03*
X+4010500Y-200500D03*
X+4518500Y-490500D03*
X+4518500Y-200500D03*
D24*
X+3746500Y+2095500D03*
X+2603500Y-3175000D03*
X+3746500Y+1841500D03*
X+4000500Y+2095500D03*
X+2603500Y-3429000D03*
X+4000500Y+1841500D03*
X+4254500Y+2095500D03*
X+2603500Y-3683000D03*
X+4254500Y+1841500D03*
X-5143500Y-3048000D03*
X-5143500Y-3302000D03*
D25*
X+7311000Y-2413000D03*
X+7021000Y-2413000D03*
D24*
X-5143500Y-3556000D03*
D40*
X-7429500Y-4254500D02*
X+8509000Y-4254500D01*
X+8509000Y+2921000D01*
X-7429500Y+2921000D01*
X-7429500Y-4254500D01*
M02*
