G04 PROTEUS GERBER X2 FILE*
%TF.GenerationSoftware,Labcenter,Proteus,8.7-SP3-Build25561*%
%TF.CreationDate,2021-04-27T11:42:45+00:00*%
%TF.FileFunction,Legend,Top*%
%TF.FilePolarity,Positive*%
%TF.Part,Single*%
%TF.SameCoordinates,{6203c4a4-ae23-4678-9b2e-be1f49d5fe9b}*%
%FSLAX45Y45*%
%MOMM*%
G01*
%TA.AperFunction,Profile*%
%ADD37C,0.203200*%
%TA.AperFunction,Material*%
%ADD38C,0.200000*%
%ADD39C,0.203200*%
%ADD40C,0.250000*%
%ADD41C,0.101600*%
%TA.AperFunction,NonMaterial*%
%ADD42C,0.203200*%
%TD.AperFunction*%
D37*
X-6604000Y-4254500D02*
X+8509000Y-4254500D01*
X+8509000Y+2921000D01*
X-6604000Y+2921000D01*
X-6604000Y-4254500D01*
D38*
X-1878000Y+455500D02*
X-2278000Y+455500D01*
X-1878000Y-74500D02*
X-2278000Y-74500D01*
D39*
X-6096000Y-2476500D02*
X-6096427Y-2466091D01*
X-6099899Y-2445272D01*
X-6107155Y-2424453D01*
X-6118983Y-2403634D01*
X-6137080Y-2382976D01*
X-6157899Y-2367455D01*
X-6178718Y-2357470D01*
X-6199537Y-2351686D01*
X-6220356Y-2349528D01*
X-6223000Y-2349500D01*
X-6350000Y-2476500D02*
X-6349573Y-2466091D01*
X-6346101Y-2445272D01*
X-6338845Y-2424453D01*
X-6327017Y-2403634D01*
X-6308920Y-2382976D01*
X-6288101Y-2367455D01*
X-6267282Y-2357470D01*
X-6246463Y-2351686D01*
X-6225644Y-2349528D01*
X-6223000Y-2349500D01*
X-6350000Y-2476500D02*
X-6349573Y-2486909D01*
X-6346101Y-2507728D01*
X-6338845Y-2528547D01*
X-6327017Y-2549366D01*
X-6308920Y-2570024D01*
X-6288101Y-2585545D01*
X-6267282Y-2595530D01*
X-6246463Y-2601314D01*
X-6225644Y-2603472D01*
X-6223000Y-2603500D01*
X-6096000Y-2476500D02*
X-6096427Y-2486909D01*
X-6099899Y-2507728D01*
X-6107155Y-2528547D01*
X-6118983Y-2549366D01*
X-6137080Y-2570024D01*
X-6157899Y-2585545D01*
X-6178718Y-2595530D01*
X-6199537Y-2601314D01*
X-6220356Y-2603472D01*
X-6223000Y-2603500D01*
X-6159500Y-2476500D02*
X-6159717Y-2471253D01*
X-6161482Y-2460758D01*
X-6165174Y-2450263D01*
X-6171202Y-2439768D01*
X-6180424Y-2429388D01*
X-6190919Y-2421700D01*
X-6201414Y-2416782D01*
X-6211909Y-2413976D01*
X-6222404Y-2413003D01*
X-6223000Y-2413000D01*
X-6286500Y-2476500D02*
X-6286283Y-2471253D01*
X-6284518Y-2460758D01*
X-6280826Y-2450263D01*
X-6274798Y-2439768D01*
X-6265576Y-2429388D01*
X-6255081Y-2421700D01*
X-6244586Y-2416782D01*
X-6234091Y-2413976D01*
X-6223596Y-2413003D01*
X-6223000Y-2413000D01*
X-6286500Y-2476500D02*
X-6286283Y-2481747D01*
X-6284518Y-2492242D01*
X-6280826Y-2502737D01*
X-6274798Y-2513232D01*
X-6265576Y-2523612D01*
X-6255081Y-2531300D01*
X-6244586Y-2536218D01*
X-6234091Y-2539024D01*
X-6223596Y-2539997D01*
X-6223000Y-2540000D01*
X-6159500Y-2476500D02*
X-6159717Y-2481747D01*
X-6161482Y-2492242D01*
X-6165174Y-2502737D01*
X-6171202Y-2513232D01*
X-6180424Y-2523612D01*
X-6190919Y-2531300D01*
X-6201414Y-2536218D01*
X-6211909Y-2539024D01*
X-6222404Y-2539997D01*
X-6223000Y-2540000D01*
X-6032500Y-2390140D02*
X-6032500Y-2435860D01*
X-5984875Y-2481580D01*
X-5937250Y-2435860D01*
X-5937250Y-2390140D01*
X-5889625Y-2390140D02*
X-5826125Y-2390140D01*
X-5857875Y-2390140D02*
X-5857875Y-2481580D01*
X-5889625Y-2481580D02*
X-5826125Y-2481580D01*
X-5778500Y-2481580D02*
X-5778500Y-2390140D01*
X-5683250Y-2481580D01*
X-5683250Y-2390140D01*
X-5651500Y-2496820D02*
X-5556250Y-2496820D01*
X-5508625Y-2405380D02*
X-5492750Y-2390140D01*
X-5445125Y-2390140D01*
X-5429250Y-2405380D01*
X-5429250Y-2420620D01*
X-5445125Y-2435860D01*
X-5492750Y-2435860D01*
X-5508625Y-2451100D01*
X-5508625Y-2481580D01*
X-5429250Y-2481580D01*
X-5302250Y-2451100D02*
X-5397500Y-2451100D01*
X-5334000Y-2390140D01*
X-5334000Y-2481580D01*
X-5270500Y-2390140D02*
X-5270500Y-2435860D01*
X-5222875Y-2481580D01*
X-5175250Y-2435860D01*
X-5175250Y-2390140D01*
X-6096000Y-2921000D02*
X-6096427Y-2910591D01*
X-6099899Y-2889772D01*
X-6107155Y-2868953D01*
X-6118983Y-2848134D01*
X-6137080Y-2827476D01*
X-6157899Y-2811955D01*
X-6178718Y-2801970D01*
X-6199537Y-2796186D01*
X-6220356Y-2794028D01*
X-6223000Y-2794000D01*
X-6350000Y-2921000D02*
X-6349573Y-2910591D01*
X-6346101Y-2889772D01*
X-6338845Y-2868953D01*
X-6327017Y-2848134D01*
X-6308920Y-2827476D01*
X-6288101Y-2811955D01*
X-6267282Y-2801970D01*
X-6246463Y-2796186D01*
X-6225644Y-2794028D01*
X-6223000Y-2794000D01*
X-6350000Y-2921000D02*
X-6349573Y-2931409D01*
X-6346101Y-2952228D01*
X-6338845Y-2973047D01*
X-6327017Y-2993866D01*
X-6308920Y-3014524D01*
X-6288101Y-3030045D01*
X-6267282Y-3040030D01*
X-6246463Y-3045814D01*
X-6225644Y-3047972D01*
X-6223000Y-3048000D01*
X-6096000Y-2921000D02*
X-6096427Y-2931409D01*
X-6099899Y-2952228D01*
X-6107155Y-2973047D01*
X-6118983Y-2993866D01*
X-6137080Y-3014524D01*
X-6157899Y-3030045D01*
X-6178718Y-3040030D01*
X-6199537Y-3045814D01*
X-6220356Y-3047972D01*
X-6223000Y-3048000D01*
X-6159500Y-2921000D02*
X-6159717Y-2915753D01*
X-6161482Y-2905258D01*
X-6165174Y-2894763D01*
X-6171202Y-2884268D01*
X-6180424Y-2873888D01*
X-6190919Y-2866200D01*
X-6201414Y-2861282D01*
X-6211909Y-2858476D01*
X-6222404Y-2857503D01*
X-6223000Y-2857500D01*
X-6286500Y-2921000D02*
X-6286283Y-2915753D01*
X-6284518Y-2905258D01*
X-6280826Y-2894763D01*
X-6274798Y-2884268D01*
X-6265576Y-2873888D01*
X-6255081Y-2866200D01*
X-6244586Y-2861282D01*
X-6234091Y-2858476D01*
X-6223596Y-2857503D01*
X-6223000Y-2857500D01*
X-6286500Y-2921000D02*
X-6286283Y-2926247D01*
X-6284518Y-2936742D01*
X-6280826Y-2947237D01*
X-6274798Y-2957732D01*
X-6265576Y-2968112D01*
X-6255081Y-2975800D01*
X-6244586Y-2980718D01*
X-6234091Y-2983524D01*
X-6223596Y-2984497D01*
X-6223000Y-2984500D01*
X-6159500Y-2921000D02*
X-6159717Y-2926247D01*
X-6161482Y-2936742D01*
X-6165174Y-2947237D01*
X-6171202Y-2957732D01*
X-6180424Y-2968112D01*
X-6190919Y-2975800D01*
X-6201414Y-2980718D01*
X-6211909Y-2983524D01*
X-6222404Y-2984497D01*
X-6223000Y-2984500D01*
X-6032500Y-2644140D02*
X-6032500Y-2689860D01*
X-5984875Y-2735580D01*
X-5937250Y-2689860D01*
X-5937250Y-2644140D01*
X-5889625Y-2644140D02*
X-5826125Y-2644140D01*
X-5857875Y-2644140D02*
X-5857875Y-2735580D01*
X-5889625Y-2735580D02*
X-5826125Y-2735580D01*
X-5778500Y-2735580D02*
X-5778500Y-2644140D01*
X-5683250Y-2735580D01*
X-5683250Y-2644140D01*
X-5651500Y-2750820D02*
X-5556250Y-2750820D01*
X-5461000Y-2705100D02*
X-5429250Y-2705100D01*
X-5429250Y-2735580D01*
X-5492750Y-2735580D01*
X-5524500Y-2705100D01*
X-5524500Y-2674620D01*
X-5492750Y-2644140D01*
X-5445125Y-2644140D01*
X-5429250Y-2659380D01*
X-5397500Y-2735580D02*
X-5397500Y-2644140D01*
X-5302250Y-2735580D01*
X-5302250Y-2644140D01*
X-5270500Y-2735580D02*
X-5270500Y-2644140D01*
X-5207000Y-2644140D01*
X-5175250Y-2674620D01*
X-5175250Y-2705100D01*
X-5207000Y-2735580D01*
X-5270500Y-2735580D01*
X-1968500Y+1841500D02*
X-1968927Y+1851909D01*
X-1972399Y+1872728D01*
X-1979655Y+1893547D01*
X-1991483Y+1914366D01*
X-2009580Y+1935024D01*
X-2030399Y+1950545D01*
X-2051218Y+1960530D01*
X-2072037Y+1966314D01*
X-2092856Y+1968472D01*
X-2095500Y+1968500D01*
X-2222500Y+1841500D02*
X-2222073Y+1851909D01*
X-2218601Y+1872728D01*
X-2211345Y+1893547D01*
X-2199517Y+1914366D01*
X-2181420Y+1935024D01*
X-2160601Y+1950545D01*
X-2139782Y+1960530D01*
X-2118963Y+1966314D01*
X-2098144Y+1968472D01*
X-2095500Y+1968500D01*
X-2222500Y+1841500D02*
X-2222073Y+1831091D01*
X-2218601Y+1810272D01*
X-2211345Y+1789453D01*
X-2199517Y+1768634D01*
X-2181420Y+1747976D01*
X-2160601Y+1732455D01*
X-2139782Y+1722470D01*
X-2118963Y+1716686D01*
X-2098144Y+1714528D01*
X-2095500Y+1714500D01*
X-1968500Y+1841500D02*
X-1968927Y+1831091D01*
X-1972399Y+1810272D01*
X-1979655Y+1789453D01*
X-1991483Y+1768634D01*
X-2009580Y+1747976D01*
X-2030399Y+1732455D01*
X-2051218Y+1722470D01*
X-2072037Y+1716686D01*
X-2092856Y+1714528D01*
X-2095500Y+1714500D01*
X-2032000Y+1841500D02*
X-2032217Y+1846747D01*
X-2033982Y+1857242D01*
X-2037674Y+1867737D01*
X-2043702Y+1878232D01*
X-2052924Y+1888612D01*
X-2063419Y+1896300D01*
X-2073914Y+1901218D01*
X-2084409Y+1904024D01*
X-2094904Y+1904997D01*
X-2095500Y+1905000D01*
X-2159000Y+1841500D02*
X-2158783Y+1846747D01*
X-2157018Y+1857242D01*
X-2153326Y+1867737D01*
X-2147298Y+1878232D01*
X-2138076Y+1888612D01*
X-2127581Y+1896300D01*
X-2117086Y+1901218D01*
X-2106591Y+1904024D01*
X-2096096Y+1904997D01*
X-2095500Y+1905000D01*
X-2159000Y+1841500D02*
X-2158783Y+1836253D01*
X-2157018Y+1825758D01*
X-2153326Y+1815263D01*
X-2147298Y+1804768D01*
X-2138076Y+1794388D01*
X-2127581Y+1786700D01*
X-2117086Y+1781782D01*
X-2106591Y+1778976D01*
X-2096096Y+1778003D01*
X-2095500Y+1778000D01*
X-2032000Y+1841500D02*
X-2032217Y+1836253D01*
X-2033982Y+1825758D01*
X-2037674Y+1815263D01*
X-2043702Y+1804768D01*
X-2052924Y+1794388D01*
X-2063419Y+1786700D01*
X-2073914Y+1781782D01*
X-2084409Y+1778976D01*
X-2094904Y+1778003D01*
X-2095500Y+1778000D01*
X-2227580Y+2095500D02*
X-2181860Y+2095500D01*
X-2136140Y+2143125D01*
X-2181860Y+2190750D01*
X-2227580Y+2190750D01*
X-2197100Y+2254250D02*
X-2227580Y+2286000D01*
X-2136140Y+2286000D01*
X-2227580Y+2349500D02*
X-2136140Y+2349500D01*
X-2136140Y+2444750D01*
X-2151380Y+2476500D02*
X-2136140Y+2492375D01*
X-2136140Y+2555875D01*
X-2151380Y+2571750D01*
X-2166620Y+2571750D01*
X-2181860Y+2555875D01*
X-2181860Y+2492375D01*
X-2197100Y+2476500D01*
X-2212340Y+2476500D01*
X-2227580Y+2492375D01*
X-2227580Y+2555875D01*
X-2212340Y+2571750D01*
X-1524000Y+1841500D02*
X-1524427Y+1851909D01*
X-1527899Y+1872728D01*
X-1535155Y+1893547D01*
X-1546983Y+1914366D01*
X-1565080Y+1935024D01*
X-1585899Y+1950545D01*
X-1606718Y+1960530D01*
X-1627537Y+1966314D01*
X-1648356Y+1968472D01*
X-1651000Y+1968500D01*
X-1778000Y+1841500D02*
X-1777573Y+1851909D01*
X-1774101Y+1872728D01*
X-1766845Y+1893547D01*
X-1755017Y+1914366D01*
X-1736920Y+1935024D01*
X-1716101Y+1950545D01*
X-1695282Y+1960530D01*
X-1674463Y+1966314D01*
X-1653644Y+1968472D01*
X-1651000Y+1968500D01*
X-1778000Y+1841500D02*
X-1777573Y+1831091D01*
X-1774101Y+1810272D01*
X-1766845Y+1789453D01*
X-1755017Y+1768634D01*
X-1736920Y+1747976D01*
X-1716101Y+1732455D01*
X-1695282Y+1722470D01*
X-1674463Y+1716686D01*
X-1653644Y+1714528D01*
X-1651000Y+1714500D01*
X-1524000Y+1841500D02*
X-1524427Y+1831091D01*
X-1527899Y+1810272D01*
X-1535155Y+1789453D01*
X-1546983Y+1768634D01*
X-1565080Y+1747976D01*
X-1585899Y+1732455D01*
X-1606718Y+1722470D01*
X-1627537Y+1716686D01*
X-1648356Y+1714528D01*
X-1651000Y+1714500D01*
X-1587500Y+1841500D02*
X-1587717Y+1846747D01*
X-1589482Y+1857242D01*
X-1593174Y+1867737D01*
X-1599202Y+1878232D01*
X-1608424Y+1888612D01*
X-1618919Y+1896300D01*
X-1629414Y+1901218D01*
X-1639909Y+1904024D01*
X-1650404Y+1904997D01*
X-1651000Y+1905000D01*
X-1714500Y+1841500D02*
X-1714283Y+1846747D01*
X-1712518Y+1857242D01*
X-1708826Y+1867737D01*
X-1702798Y+1878232D01*
X-1693576Y+1888612D01*
X-1683081Y+1896300D01*
X-1672586Y+1901218D01*
X-1662091Y+1904024D01*
X-1651596Y+1904997D01*
X-1651000Y+1905000D01*
X-1714500Y+1841500D02*
X-1714283Y+1836253D01*
X-1712518Y+1825758D01*
X-1708826Y+1815263D01*
X-1702798Y+1804768D01*
X-1693576Y+1794388D01*
X-1683081Y+1786700D01*
X-1672586Y+1781782D01*
X-1662091Y+1778976D01*
X-1651596Y+1778003D01*
X-1651000Y+1778000D01*
X-1587500Y+1841500D02*
X-1587717Y+1836253D01*
X-1589482Y+1825758D01*
X-1593174Y+1815263D01*
X-1599202Y+1804768D01*
X-1608424Y+1794388D01*
X-1618919Y+1786700D01*
X-1629414Y+1781782D01*
X-1639909Y+1778976D01*
X-1650404Y+1778003D01*
X-1651000Y+1778000D01*
X-1783080Y+2095500D02*
X-1737360Y+2095500D01*
X-1691640Y+2143125D01*
X-1737360Y+2190750D01*
X-1783080Y+2190750D01*
X-1752600Y+2254250D02*
X-1783080Y+2286000D01*
X-1691640Y+2286000D01*
X-1691640Y+2349500D02*
X-1783080Y+2349500D01*
X-1783080Y+2444750D02*
X-1691640Y+2444750D01*
X-1737360Y+2349500D02*
X-1737360Y+2444750D01*
X-1706880Y+2476500D02*
X-1691640Y+2492375D01*
X-1691640Y+2555875D01*
X-1706880Y+2571750D01*
X-1722120Y+2571750D01*
X-1737360Y+2555875D01*
X-1737360Y+2492375D01*
X-1752600Y+2476500D01*
X-1767840Y+2476500D01*
X-1783080Y+2492375D01*
X-1783080Y+2555875D01*
X-1767840Y+2571750D01*
X-2794000Y-3556000D02*
X-2794427Y-3545591D01*
X-2797899Y-3524772D01*
X-2805155Y-3503953D01*
X-2816983Y-3483134D01*
X-2835080Y-3462476D01*
X-2855899Y-3446955D01*
X-2876718Y-3436970D01*
X-2897537Y-3431186D01*
X-2918356Y-3429028D01*
X-2921000Y-3429000D01*
X-3048000Y-3556000D02*
X-3047573Y-3545591D01*
X-3044101Y-3524772D01*
X-3036845Y-3503953D01*
X-3025017Y-3483134D01*
X-3006920Y-3462476D01*
X-2986101Y-3446955D01*
X-2965282Y-3436970D01*
X-2944463Y-3431186D01*
X-2923644Y-3429028D01*
X-2921000Y-3429000D01*
X-3048000Y-3556000D02*
X-3047573Y-3566409D01*
X-3044101Y-3587228D01*
X-3036845Y-3608047D01*
X-3025017Y-3628866D01*
X-3006920Y-3649524D01*
X-2986101Y-3665045D01*
X-2965282Y-3675030D01*
X-2944463Y-3680814D01*
X-2923644Y-3682972D01*
X-2921000Y-3683000D01*
X-2794000Y-3556000D02*
X-2794427Y-3566409D01*
X-2797899Y-3587228D01*
X-2805155Y-3608047D01*
X-2816983Y-3628866D01*
X-2835080Y-3649524D01*
X-2855899Y-3665045D01*
X-2876718Y-3675030D01*
X-2897537Y-3680814D01*
X-2918356Y-3682972D01*
X-2921000Y-3683000D01*
X-2857500Y-3556000D02*
X-2857717Y-3550753D01*
X-2859482Y-3540258D01*
X-2863174Y-3529763D01*
X-2869202Y-3519268D01*
X-2878424Y-3508888D01*
X-2888919Y-3501200D01*
X-2899414Y-3496282D01*
X-2909909Y-3493476D01*
X-2920404Y-3492503D01*
X-2921000Y-3492500D01*
X-2984500Y-3556000D02*
X-2984283Y-3550753D01*
X-2982518Y-3540258D01*
X-2978826Y-3529763D01*
X-2972798Y-3519268D01*
X-2963576Y-3508888D01*
X-2953081Y-3501200D01*
X-2942586Y-3496282D01*
X-2932091Y-3493476D01*
X-2921596Y-3492503D01*
X-2921000Y-3492500D01*
X-2984500Y-3556000D02*
X-2984283Y-3561247D01*
X-2982518Y-3571742D01*
X-2978826Y-3582237D01*
X-2972798Y-3592732D01*
X-2963576Y-3603112D01*
X-2953081Y-3610800D01*
X-2942586Y-3615718D01*
X-2932091Y-3618524D01*
X-2921596Y-3619497D01*
X-2921000Y-3619500D01*
X-2857500Y-3556000D02*
X-2857717Y-3561247D01*
X-2859482Y-3571742D01*
X-2863174Y-3582237D01*
X-2869202Y-3592732D01*
X-2878424Y-3603112D01*
X-2888919Y-3610800D01*
X-2899414Y-3615718D01*
X-2909909Y-3618524D01*
X-2920404Y-3619497D01*
X-2921000Y-3619500D01*
X-3540125Y-3423920D02*
X-3476625Y-3423920D01*
X-3508375Y-3423920D02*
X-3508375Y-3515360D01*
X-3540125Y-3515360D02*
X-3476625Y-3515360D01*
X-3429000Y-3515360D02*
X-3429000Y-3423920D01*
X-3333750Y-3423920D01*
X-3429000Y-3469640D02*
X-3365500Y-3469640D01*
X-3302000Y-3515360D02*
X-3302000Y-3423920D01*
X-3222625Y-3423920D01*
X-3206750Y-3439160D01*
X-3206750Y-3454400D01*
X-3222625Y-3469640D01*
X-3206750Y-3484880D01*
X-3206750Y-3500120D01*
X-3222625Y-3515360D01*
X-3302000Y-3515360D01*
X-3302000Y-3469640D02*
X-3222625Y-3469640D01*
X-3143250Y-3454400D02*
X-3111500Y-3423920D01*
X-3111500Y-3515360D01*
X-2794000Y-3048000D02*
X-2794427Y-3037591D01*
X-2797899Y-3016772D01*
X-2805155Y-2995953D01*
X-2816983Y-2975134D01*
X-2835080Y-2954476D01*
X-2855899Y-2938955D01*
X-2876718Y-2928970D01*
X-2897537Y-2923186D01*
X-2918356Y-2921028D01*
X-2921000Y-2921000D01*
X-3048000Y-3048000D02*
X-3047573Y-3037591D01*
X-3044101Y-3016772D01*
X-3036845Y-2995953D01*
X-3025017Y-2975134D01*
X-3006920Y-2954476D01*
X-2986101Y-2938955D01*
X-2965282Y-2928970D01*
X-2944463Y-2923186D01*
X-2923644Y-2921028D01*
X-2921000Y-2921000D01*
X-3048000Y-3048000D02*
X-3047573Y-3058409D01*
X-3044101Y-3079228D01*
X-3036845Y-3100047D01*
X-3025017Y-3120866D01*
X-3006920Y-3141524D01*
X-2986101Y-3157045D01*
X-2965282Y-3167030D01*
X-2944463Y-3172814D01*
X-2923644Y-3174972D01*
X-2921000Y-3175000D01*
X-2794000Y-3048000D02*
X-2794427Y-3058409D01*
X-2797899Y-3079228D01*
X-2805155Y-3100047D01*
X-2816983Y-3120866D01*
X-2835080Y-3141524D01*
X-2855899Y-3157045D01*
X-2876718Y-3167030D01*
X-2897537Y-3172814D01*
X-2918356Y-3174972D01*
X-2921000Y-3175000D01*
X-2857500Y-3048000D02*
X-2857717Y-3042753D01*
X-2859482Y-3032258D01*
X-2863174Y-3021763D01*
X-2869202Y-3011268D01*
X-2878424Y-3000888D01*
X-2888919Y-2993200D01*
X-2899414Y-2988282D01*
X-2909909Y-2985476D01*
X-2920404Y-2984503D01*
X-2921000Y-2984500D01*
X-2984500Y-3048000D02*
X-2984283Y-3042753D01*
X-2982518Y-3032258D01*
X-2978826Y-3021763D01*
X-2972798Y-3011268D01*
X-2963576Y-3000888D01*
X-2953081Y-2993200D01*
X-2942586Y-2988282D01*
X-2932091Y-2985476D01*
X-2921596Y-2984503D01*
X-2921000Y-2984500D01*
X-2984500Y-3048000D02*
X-2984283Y-3053247D01*
X-2982518Y-3063742D01*
X-2978826Y-3074237D01*
X-2972798Y-3084732D01*
X-2963576Y-3095112D01*
X-2953081Y-3102800D01*
X-2942586Y-3107718D01*
X-2932091Y-3110524D01*
X-2921596Y-3111497D01*
X-2921000Y-3111500D01*
X-2857500Y-3048000D02*
X-2857717Y-3053247D01*
X-2859482Y-3063742D01*
X-2863174Y-3074237D01*
X-2869202Y-3084732D01*
X-2878424Y-3095112D01*
X-2888919Y-3102800D01*
X-2899414Y-3107718D01*
X-2909909Y-3110524D01*
X-2920404Y-3111497D01*
X-2921000Y-3111500D01*
X-3540125Y-2915920D02*
X-3476625Y-2915920D01*
X-3508375Y-2915920D02*
X-3508375Y-3007360D01*
X-3540125Y-3007360D02*
X-3476625Y-3007360D01*
X-3429000Y-3007360D02*
X-3429000Y-2915920D01*
X-3333750Y-3007360D01*
X-3333750Y-2915920D01*
X-3302000Y-3007360D02*
X-3302000Y-2915920D01*
X-3206750Y-2915920D02*
X-3206750Y-3007360D01*
X-3302000Y-2961640D02*
X-3206750Y-2961640D01*
X-3143250Y-2946400D02*
X-3111500Y-2915920D01*
X-3111500Y-3007360D01*
X-2794000Y-3302000D02*
X-2794427Y-3291591D01*
X-2797899Y-3270772D01*
X-2805155Y-3249953D01*
X-2816983Y-3229134D01*
X-2835080Y-3208476D01*
X-2855899Y-3192955D01*
X-2876718Y-3182970D01*
X-2897537Y-3177186D01*
X-2918356Y-3175028D01*
X-2921000Y-3175000D01*
X-3048000Y-3302000D02*
X-3047573Y-3291591D01*
X-3044101Y-3270772D01*
X-3036845Y-3249953D01*
X-3025017Y-3229134D01*
X-3006920Y-3208476D01*
X-2986101Y-3192955D01*
X-2965282Y-3182970D01*
X-2944463Y-3177186D01*
X-2923644Y-3175028D01*
X-2921000Y-3175000D01*
X-3048000Y-3302000D02*
X-3047573Y-3312409D01*
X-3044101Y-3333228D01*
X-3036845Y-3354047D01*
X-3025017Y-3374866D01*
X-3006920Y-3395524D01*
X-2986101Y-3411045D01*
X-2965282Y-3421030D01*
X-2944463Y-3426814D01*
X-2923644Y-3428972D01*
X-2921000Y-3429000D01*
X-2794000Y-3302000D02*
X-2794427Y-3312409D01*
X-2797899Y-3333228D01*
X-2805155Y-3354047D01*
X-2816983Y-3374866D01*
X-2835080Y-3395524D01*
X-2855899Y-3411045D01*
X-2876718Y-3421030D01*
X-2897537Y-3426814D01*
X-2918356Y-3428972D01*
X-2921000Y-3429000D01*
X-2857500Y-3302000D02*
X-2857717Y-3296753D01*
X-2859482Y-3286258D01*
X-2863174Y-3275763D01*
X-2869202Y-3265268D01*
X-2878424Y-3254888D01*
X-2888919Y-3247200D01*
X-2899414Y-3242282D01*
X-2909909Y-3239476D01*
X-2920404Y-3238503D01*
X-2921000Y-3238500D01*
X-2984500Y-3302000D02*
X-2984283Y-3296753D01*
X-2982518Y-3286258D01*
X-2978826Y-3275763D01*
X-2972798Y-3265268D01*
X-2963576Y-3254888D01*
X-2953081Y-3247200D01*
X-2942586Y-3242282D01*
X-2932091Y-3239476D01*
X-2921596Y-3238503D01*
X-2921000Y-3238500D01*
X-2984500Y-3302000D02*
X-2984283Y-3307247D01*
X-2982518Y-3317742D01*
X-2978826Y-3328237D01*
X-2972798Y-3338732D01*
X-2963576Y-3349112D01*
X-2953081Y-3356800D01*
X-2942586Y-3361718D01*
X-2932091Y-3364524D01*
X-2921596Y-3365497D01*
X-2921000Y-3365500D01*
X-2857500Y-3302000D02*
X-2857717Y-3307247D01*
X-2859482Y-3317742D01*
X-2863174Y-3328237D01*
X-2869202Y-3338732D01*
X-2878424Y-3349112D01*
X-2888919Y-3356800D01*
X-2899414Y-3361718D01*
X-2909909Y-3364524D01*
X-2920404Y-3365497D01*
X-2921000Y-3365500D01*
X-3556000Y-3261360D02*
X-3556000Y-3169920D01*
X-3476625Y-3169920D01*
X-3460750Y-3185160D01*
X-3460750Y-3200400D01*
X-3476625Y-3215640D01*
X-3556000Y-3215640D01*
X-3429000Y-3169920D02*
X-3429000Y-3261360D01*
X-3381375Y-3215640D01*
X-3333750Y-3261360D01*
X-3333750Y-3169920D01*
X-3302000Y-3261360D02*
X-3302000Y-3169920D01*
X-3254375Y-3215640D01*
X-3206750Y-3169920D01*
X-3206750Y-3261360D01*
X-3143250Y-3200400D02*
X-3111500Y-3169920D01*
X-3111500Y-3261360D01*
X-4239260Y-53340D02*
X-3599180Y-53340D01*
X-3599180Y+294640D01*
X-4239260Y+294640D01*
X-4239260Y-50800D01*
X-4104640Y+294640D02*
X-4104640Y+314960D01*
X-3726180Y+314960D01*
X-3726180Y+297180D01*
D38*
X-3888000Y+608500D02*
X-3778000Y+608500D01*
X-3888000Y+788500D02*
X-3778000Y+788500D01*
D39*
X-3928250Y+844220D02*
X-3944125Y+828980D01*
X-3991750Y+828980D01*
X-4023500Y+859460D01*
X-4023500Y+889940D01*
X-3991750Y+920420D01*
X-3944125Y+920420D01*
X-3928250Y+905180D01*
X-3896500Y+828980D02*
X-3896500Y+889940D01*
X-3864750Y+920420D01*
X-3833000Y+920420D01*
X-3801250Y+889940D01*
X-3801250Y+828980D01*
X-3896500Y+859460D02*
X-3801250Y+859460D01*
X-3737750Y+889940D02*
X-3706000Y+920420D01*
X-3706000Y+828980D01*
D38*
X-4119140Y-661500D02*
X-4009140Y-661500D01*
X-4119140Y-481500D02*
X-4009140Y-481500D01*
D40*
X-2243000Y+769000D02*
X-2243043Y+770039D01*
X-2243395Y+772118D01*
X-2244132Y+774197D01*
X-2245336Y+776276D01*
X-2247177Y+778326D01*
X-2249256Y+779829D01*
X-2251335Y+780786D01*
X-2253414Y+781325D01*
X-2255493Y+781500D01*
X-2255500Y+781500D01*
X-2268000Y+769000D02*
X-2267957Y+770039D01*
X-2267605Y+772118D01*
X-2266868Y+774197D01*
X-2265664Y+776276D01*
X-2263823Y+778326D01*
X-2261744Y+779829D01*
X-2259665Y+780786D01*
X-2257586Y+781325D01*
X-2255507Y+781500D01*
X-2255500Y+781500D01*
X-2268000Y+769000D02*
X-2267957Y+767961D01*
X-2267605Y+765882D01*
X-2266868Y+763803D01*
X-2265664Y+761724D01*
X-2263823Y+759674D01*
X-2261744Y+758171D01*
X-2259665Y+757214D01*
X-2257586Y+756675D01*
X-2255507Y+756500D01*
X-2255500Y+756500D01*
X-2243000Y+769000D02*
X-2243043Y+767961D01*
X-2243395Y+765882D01*
X-2244132Y+763803D01*
X-2245336Y+761724D01*
X-2247177Y+759674D01*
X-2249256Y+758171D01*
X-2251335Y+757214D01*
X-2253414Y+756675D01*
X-2255493Y+756500D01*
X-2255500Y+756500D01*
D38*
X-2240500Y+834000D02*
X-2285500Y+834000D01*
X-2285500Y+1394000D01*
X-2240500Y+1394000D01*
X-1950500Y+834000D02*
X-1905500Y+834000D01*
X-1905500Y+1394000D01*
X-1950500Y+1394000D01*
D40*
X-1618000Y+754000D02*
X-1618043Y+755039D01*
X-1618395Y+757118D01*
X-1619132Y+759197D01*
X-1620336Y+761276D01*
X-1622177Y+763326D01*
X-1624256Y+764829D01*
X-1626335Y+765786D01*
X-1628414Y+766325D01*
X-1630493Y+766500D01*
X-1630500Y+766500D01*
X-1643000Y+754000D02*
X-1642957Y+755039D01*
X-1642605Y+757118D01*
X-1641868Y+759197D01*
X-1640664Y+761276D01*
X-1638823Y+763326D01*
X-1636744Y+764829D01*
X-1634665Y+765786D01*
X-1632586Y+766325D01*
X-1630507Y+766500D01*
X-1630500Y+766500D01*
X-1643000Y+754000D02*
X-1642957Y+752961D01*
X-1642605Y+750882D01*
X-1641868Y+748803D01*
X-1640664Y+746724D01*
X-1638823Y+744674D01*
X-1636744Y+743171D01*
X-1634665Y+742214D01*
X-1632586Y+741675D01*
X-1630507Y+741500D01*
X-1630500Y+741500D01*
X-1618000Y+754000D02*
X-1618043Y+752961D01*
X-1618395Y+750882D01*
X-1619132Y+748803D01*
X-1620336Y+746724D01*
X-1622177Y+744674D01*
X-1624256Y+743171D01*
X-1626335Y+742214D01*
X-1628414Y+741675D01*
X-1630493Y+741500D01*
X-1630500Y+741500D01*
D38*
X-1613000Y+819000D02*
X-1635500Y+819000D01*
X-1635500Y+1449000D01*
X-1613000Y+1449000D01*
X-1308000Y+819000D02*
X-1285500Y+819000D01*
X-1285500Y+1449000D01*
X-1308000Y+1449000D01*
D40*
X-4729500Y-198500D02*
X-4729543Y-197461D01*
X-4729895Y-195382D01*
X-4730632Y-193303D01*
X-4731836Y-191224D01*
X-4733677Y-189174D01*
X-4735756Y-187671D01*
X-4737835Y-186714D01*
X-4739914Y-186175D01*
X-4741993Y-186000D01*
X-4742000Y-186000D01*
X-4754500Y-198500D02*
X-4754457Y-197461D01*
X-4754105Y-195382D01*
X-4753368Y-193303D01*
X-4752164Y-191224D01*
X-4750323Y-189174D01*
X-4748244Y-187671D01*
X-4746165Y-186714D01*
X-4744086Y-186175D01*
X-4742007Y-186000D01*
X-4742000Y-186000D01*
X-4754500Y-198500D02*
X-4754457Y-199539D01*
X-4754105Y-201618D01*
X-4753368Y-203697D01*
X-4752164Y-205776D01*
X-4750323Y-207826D01*
X-4748244Y-209329D01*
X-4746165Y-210286D01*
X-4744086Y-210825D01*
X-4742007Y-211000D01*
X-4742000Y-211000D01*
X-4729500Y-198500D02*
X-4729543Y-199539D01*
X-4729895Y-201618D01*
X-4730632Y-203697D01*
X-4731836Y-205776D01*
X-4733677Y-207826D01*
X-4735756Y-209329D01*
X-4737835Y-210286D01*
X-4739914Y-210825D01*
X-4741993Y-211000D01*
X-4742000Y-211000D01*
D38*
X-4724500Y-133500D02*
X-4747000Y-133500D01*
X-4747000Y+496500D01*
X-4724500Y+496500D01*
X-4419500Y-133500D02*
X-4397000Y-133500D01*
X-4397000Y+496500D01*
X-4419500Y+496500D01*
X-1630500Y+510000D02*
X-1630500Y+100000D01*
X-1290500Y+510000D02*
X-1290500Y+100000D01*
D39*
X-3213100Y+444500D02*
X-3213100Y+368300D01*
X-2578100Y+368300D01*
X-2578100Y+444500D01*
X-2933700Y+368300D02*
X-2933700Y+317500D01*
X-2857500Y+317500D01*
X-2857500Y+368300D01*
X-3162300Y+368300D02*
X-3162300Y+292100D01*
X-3098800Y+292100D01*
X-3098800Y+368300D01*
X-2628900Y+368300D02*
X-2628900Y+292100D01*
X-2692400Y+292100D01*
X-2692400Y+368300D02*
X-2692400Y+292100D01*
X-2954020Y-1955800D02*
X-2954020Y-1874838D01*
X-2943399Y-1872756D01*
X-2934833Y-1867036D01*
X-2929114Y-1858471D01*
X-2927032Y-1847850D01*
X-2954020Y-1820862D02*
X-2943399Y-1822944D01*
X-2934833Y-1828664D01*
X-2929114Y-1837229D01*
X-2927032Y-1847850D01*
X-2954020Y-1820862D02*
X-2954020Y-1739900D01*
X-2506980Y-1879600D02*
X-2506980Y-1816100D01*
X-2921000Y-1955800D02*
X-2540000Y-1955800D01*
X-2921000Y-1739900D02*
X-2540000Y-1739900D01*
X-2921000Y-1955800D02*
X-2954020Y-1955800D01*
X-2954020Y-1739900D02*
X-2921000Y-1739900D01*
X-2506980Y-1816100D02*
X-2506980Y-1739900D01*
X-2540000Y-1739900D01*
X-2540000Y-1955800D02*
X-2506980Y-1955800D01*
X-2506980Y-1879600D01*
X-2894584Y-1920240D02*
X-2894619Y-1919395D01*
X-2894906Y-1917704D01*
X-2895505Y-1916013D01*
X-2896485Y-1914322D01*
X-2897985Y-1912654D01*
X-2899676Y-1911434D01*
X-2901367Y-1910658D01*
X-2903058Y-1910221D01*
X-2904744Y-1910080D01*
X-2914904Y-1920240D02*
X-2914869Y-1919395D01*
X-2914582Y-1917704D01*
X-2913983Y-1916013D01*
X-2913003Y-1914322D01*
X-2911503Y-1912654D01*
X-2909812Y-1911434D01*
X-2908121Y-1910658D01*
X-2906430Y-1910221D01*
X-2904744Y-1910080D01*
X-2914904Y-1920240D02*
X-2914869Y-1921085D01*
X-2914582Y-1922776D01*
X-2913983Y-1924467D01*
X-2913003Y-1926158D01*
X-2911503Y-1927826D01*
X-2909812Y-1929046D01*
X-2908121Y-1929822D01*
X-2906430Y-1930259D01*
X-2904744Y-1930400D01*
X-2894584Y-1920240D02*
X-2894619Y-1921085D01*
X-2894906Y-1922776D01*
X-2895505Y-1924467D01*
X-2896485Y-1926158D01*
X-2897985Y-1927826D01*
X-2899676Y-1929046D01*
X-2901367Y-1929822D01*
X-2903058Y-1930259D01*
X-2904744Y-1930400D01*
D38*
X-2762000Y-164000D02*
X-2862000Y-164000D01*
X-2762000Y-344000D02*
X-2862000Y-344000D01*
X-3265000Y-349000D02*
X-3265000Y-449000D01*
X-3085000Y-349000D02*
X-3085000Y-449000D01*
X-2872000Y-858350D02*
X-2762000Y-858350D01*
X-2872000Y-678350D02*
X-2762000Y-678350D01*
D40*
X-3049500Y-979350D02*
X-3049543Y-978311D01*
X-3049895Y-976232D01*
X-3050632Y-974153D01*
X-3051836Y-972074D01*
X-3053677Y-970024D01*
X-3055756Y-968521D01*
X-3057835Y-967564D01*
X-3059914Y-967025D01*
X-3061993Y-966850D01*
X-3062000Y-966850D01*
X-3074500Y-979350D02*
X-3074457Y-978311D01*
X-3074105Y-976232D01*
X-3073368Y-974153D01*
X-3072164Y-972074D01*
X-3070323Y-970024D01*
X-3068244Y-968521D01*
X-3066165Y-967564D01*
X-3064086Y-967025D01*
X-3062007Y-966850D01*
X-3062000Y-966850D01*
X-3074500Y-979350D02*
X-3074457Y-980389D01*
X-3074105Y-982468D01*
X-3073368Y-984547D01*
X-3072164Y-986626D01*
X-3070323Y-988676D01*
X-3068244Y-990179D01*
X-3066165Y-991136D01*
X-3064086Y-991675D01*
X-3062007Y-991850D01*
X-3062000Y-991850D01*
X-3049500Y-979350D02*
X-3049543Y-980389D01*
X-3049895Y-982468D01*
X-3050632Y-984547D01*
X-3051836Y-986626D01*
X-3053677Y-988676D01*
X-3055756Y-990179D01*
X-3057835Y-991136D01*
X-3059914Y-991675D01*
X-3061993Y-991850D01*
X-3062000Y-991850D01*
D38*
X-2997000Y-996850D02*
X-2627000Y-996850D01*
X-2997000Y-1301850D02*
X-2627000Y-1301850D01*
D41*
X-3041500Y-1800960D02*
X-3181500Y-1800960D01*
X-3041500Y-1820960D02*
X-3181500Y-1820960D01*
X-3181500Y-1930960D02*
X-3041500Y-1930960D01*
X-3041500Y-1770960D01*
X-3181500Y-1770960D01*
X-3181500Y-1930960D01*
D38*
X-2826000Y-2503000D02*
X-2716000Y-2503000D01*
X-2826000Y-2323000D02*
X-2716000Y-2323000D01*
X-2798500Y-2757000D02*
X-2698500Y-2757000D01*
X-2798500Y-2577000D02*
X-2698500Y-2577000D01*
D39*
X-3124200Y-1432560D02*
X-3213100Y-1432560D01*
X-3230880Y-1544320D02*
X-3302000Y-1544320D01*
X-3124200Y-1432560D02*
X-3124200Y-1524000D01*
X-3413760Y-1526540D02*
X-3413760Y-1432560D01*
X-3327400Y-1432560D01*
D38*
X-3201500Y-2381000D02*
X-3201500Y-2481000D01*
X-3021500Y-2381000D02*
X-3021500Y-2481000D01*
X-1497500Y-540000D02*
X-1497500Y-440000D01*
X-1677500Y-540000D02*
X-1677500Y-440000D01*
X-2005500Y-540000D02*
X-2005500Y-440000D01*
X-2185500Y-540000D02*
X-2185500Y-440000D01*
X-1931500Y-430000D02*
X-1931500Y-540000D01*
X-1751500Y-430000D02*
X-1751500Y-540000D01*
D39*
X-1892300Y-982980D02*
X-1811338Y-982980D01*
X-1809256Y-993601D01*
X-1803536Y-1002167D01*
X-1794971Y-1007886D01*
X-1784350Y-1009968D01*
X-1757362Y-982980D02*
X-1759444Y-993601D01*
X-1765164Y-1002167D01*
X-1773729Y-1007886D01*
X-1784350Y-1009968D01*
X-1757362Y-982980D02*
X-1676400Y-982980D01*
X-1816100Y-1430020D02*
X-1752600Y-1430020D01*
X-1892300Y-1016000D02*
X-1892300Y-1397000D01*
X-1676400Y-1016000D02*
X-1676400Y-1397000D01*
X-1892300Y-1016000D02*
X-1892300Y-982980D01*
X-1676400Y-982980D02*
X-1676400Y-1016000D01*
X-1752600Y-1430020D02*
X-1676400Y-1430020D01*
X-1676400Y-1397000D01*
X-1892300Y-1397000D02*
X-1892300Y-1430020D01*
X-1816100Y-1430020D01*
X-1846580Y-1032256D02*
X-1846615Y-1031411D01*
X-1846902Y-1029720D01*
X-1847501Y-1028029D01*
X-1848481Y-1026338D01*
X-1849981Y-1024670D01*
X-1851672Y-1023450D01*
X-1853363Y-1022674D01*
X-1855054Y-1022237D01*
X-1856740Y-1022096D01*
X-1866900Y-1032256D02*
X-1866865Y-1031411D01*
X-1866578Y-1029720D01*
X-1865979Y-1028029D01*
X-1864999Y-1026338D01*
X-1863499Y-1024670D01*
X-1861808Y-1023450D01*
X-1860117Y-1022674D01*
X-1858426Y-1022237D01*
X-1856740Y-1022096D01*
X-1866900Y-1032256D02*
X-1866865Y-1033101D01*
X-1866578Y-1034792D01*
X-1865979Y-1036483D01*
X-1864999Y-1038174D01*
X-1863499Y-1039842D01*
X-1861808Y-1041062D01*
X-1860117Y-1041838D01*
X-1858426Y-1042275D01*
X-1856740Y-1042416D01*
X-1846580Y-1032256D02*
X-1846615Y-1033101D01*
X-1846902Y-1034792D01*
X-1847501Y-1036483D01*
X-1848481Y-1038174D01*
X-1849981Y-1039842D01*
X-1851672Y-1041062D01*
X-1853363Y-1041838D01*
X-1855054Y-1042275D01*
X-1856740Y-1042416D01*
D38*
X-2127500Y-915500D02*
X-2017500Y-915500D01*
X-2127500Y-735500D02*
X-2017500Y-735500D01*
X-1746500Y-2249000D02*
X-1646500Y-2249000D01*
X-1746500Y-2069000D02*
X-1646500Y-2069000D01*
X-1746500Y-1741000D02*
X-1646500Y-1741000D01*
X-1746500Y-1561000D02*
X-1646500Y-1561000D01*
X-2254500Y-2249000D02*
X-2154500Y-2249000D01*
X-2254500Y-2069000D02*
X-2154500Y-2069000D01*
X-2254500Y-1741000D02*
X-2144500Y-1741000D01*
X-2254500Y-1561000D02*
X-2144500Y-1561000D01*
X-2254500Y-1995000D02*
X-2144500Y-1995000D01*
X-2254500Y-1815000D02*
X-2144500Y-1815000D01*
X-1746500Y-1995000D02*
X-1636500Y-1995000D01*
X-1746500Y-1815000D02*
X-1636500Y-1815000D01*
X-2439500Y-430000D02*
X-2439500Y-540000D01*
X-2259500Y-430000D02*
X-2259500Y-540000D01*
D39*
X-952500Y+444500D02*
X-952500Y+368300D01*
X-317500Y+368300D01*
X-317500Y+444500D01*
X-673100Y+368300D02*
X-673100Y+317500D01*
X-596900Y+317500D01*
X-596900Y+368300D01*
X-901700Y+368300D02*
X-901700Y+292100D01*
X-838200Y+292100D01*
X-838200Y+368300D01*
X-368300Y+368300D02*
X-368300Y+292100D01*
X-431800Y+292100D01*
X-431800Y+368300D02*
X-431800Y+292100D01*
D38*
X+408000Y+455500D02*
X+8000Y+455500D01*
X+408000Y-74500D02*
X+8000Y-74500D01*
D40*
X-20500Y+827000D02*
X-20543Y+828039D01*
X-20895Y+830118D01*
X-21632Y+832197D01*
X-22836Y+834276D01*
X-24677Y+836326D01*
X-26756Y+837829D01*
X-28835Y+838786D01*
X-30914Y+839325D01*
X-32993Y+839500D01*
X-33000Y+839500D01*
X-45500Y+827000D02*
X-45457Y+828039D01*
X-45105Y+830118D01*
X-44368Y+832197D01*
X-43164Y+834276D01*
X-41323Y+836326D01*
X-39244Y+837829D01*
X-37165Y+838786D01*
X-35086Y+839325D01*
X-33007Y+839500D01*
X-33000Y+839500D01*
X-45500Y+827000D02*
X-45457Y+825961D01*
X-45105Y+823882D01*
X-44368Y+821803D01*
X-43164Y+819724D01*
X-41323Y+817674D01*
X-39244Y+816171D01*
X-37165Y+815214D01*
X-35086Y+814675D01*
X-33007Y+814500D01*
X-33000Y+814500D01*
X-20500Y+827000D02*
X-20543Y+825961D01*
X-20895Y+823882D01*
X-21632Y+821803D01*
X-22836Y+819724D01*
X-24677Y+817674D01*
X-26756Y+816171D01*
X-28835Y+815214D01*
X-30914Y+814675D01*
X-32993Y+814500D01*
X-33000Y+814500D01*
D38*
X-18000Y+892000D02*
X-63000Y+892000D01*
X-63000Y+1452000D01*
X-18000Y+1452000D01*
X+272000Y+892000D02*
X+317000Y+892000D01*
X+317000Y+1452000D01*
X+272000Y+1452000D01*
D40*
X+668000Y+772000D02*
X+667957Y+773039D01*
X+667605Y+775118D01*
X+666868Y+777197D01*
X+665664Y+779276D01*
X+663823Y+781326D01*
X+661744Y+782829D01*
X+659665Y+783786D01*
X+657586Y+784325D01*
X+655507Y+784500D01*
X+655500Y+784500D01*
X+643000Y+772000D02*
X+643043Y+773039D01*
X+643395Y+775118D01*
X+644132Y+777197D01*
X+645336Y+779276D01*
X+647177Y+781326D01*
X+649256Y+782829D01*
X+651335Y+783786D01*
X+653414Y+784325D01*
X+655493Y+784500D01*
X+655500Y+784500D01*
X+643000Y+772000D02*
X+643043Y+770961D01*
X+643395Y+768882D01*
X+644132Y+766803D01*
X+645336Y+764724D01*
X+647177Y+762674D01*
X+649256Y+761171D01*
X+651335Y+760214D01*
X+653414Y+759675D01*
X+655493Y+759500D01*
X+655500Y+759500D01*
X+668000Y+772000D02*
X+667957Y+770961D01*
X+667605Y+768882D01*
X+666868Y+766803D01*
X+665664Y+764724D01*
X+663823Y+762674D01*
X+661744Y+761171D01*
X+659665Y+760214D01*
X+657586Y+759675D01*
X+655507Y+759500D01*
X+655500Y+759500D01*
D38*
X+673000Y+837000D02*
X+650500Y+837000D01*
X+650500Y+1467000D01*
X+673000Y+1467000D01*
X+978000Y+837000D02*
X+1000500Y+837000D01*
X+1000500Y+1467000D01*
X+978000Y+1467000D01*
X+655500Y+510000D02*
X+655500Y+100000D01*
X+995500Y+510000D02*
X+995500Y+100000D01*
D39*
X+393700Y-982980D02*
X+474662Y-982980D01*
X+476744Y-993601D01*
X+482464Y-1002167D01*
X+491029Y-1007886D01*
X+501650Y-1009968D01*
X+528638Y-982980D02*
X+526556Y-993601D01*
X+520836Y-1002167D01*
X+512271Y-1007886D01*
X+501650Y-1009968D01*
X+528638Y-982980D02*
X+609600Y-982980D01*
X+469900Y-1430020D02*
X+533400Y-1430020D01*
X+393700Y-1016000D02*
X+393700Y-1397000D01*
X+609600Y-1016000D02*
X+609600Y-1397000D01*
X+393700Y-1016000D02*
X+393700Y-982980D01*
X+609600Y-982980D02*
X+609600Y-1016000D01*
X+533400Y-1430020D02*
X+609600Y-1430020D01*
X+609600Y-1397000D01*
X+393700Y-1397000D02*
X+393700Y-1430020D01*
X+469900Y-1430020D01*
X+439420Y-1032256D02*
X+439385Y-1031411D01*
X+439098Y-1029720D01*
X+438499Y-1028029D01*
X+437519Y-1026338D01*
X+436019Y-1024670D01*
X+434328Y-1023450D01*
X+432637Y-1022674D01*
X+430946Y-1022237D01*
X+429260Y-1022096D01*
X+419100Y-1032256D02*
X+419135Y-1031411D01*
X+419422Y-1029720D01*
X+420021Y-1028029D01*
X+421001Y-1026338D01*
X+422501Y-1024670D01*
X+424192Y-1023450D01*
X+425883Y-1022674D01*
X+427574Y-1022237D01*
X+429260Y-1022096D01*
X+419100Y-1032256D02*
X+419135Y-1033101D01*
X+419422Y-1034792D01*
X+420021Y-1036483D01*
X+421001Y-1038174D01*
X+422501Y-1039842D01*
X+424192Y-1041062D01*
X+425883Y-1041838D01*
X+427574Y-1042275D01*
X+429260Y-1042416D01*
X+439420Y-1032256D02*
X+439385Y-1033101D01*
X+439098Y-1034792D01*
X+438499Y-1036483D01*
X+437519Y-1038174D01*
X+436019Y-1039842D01*
X+434328Y-1041062D01*
X+432637Y-1041838D01*
X+430946Y-1042275D01*
X+429260Y-1042416D01*
D38*
X-979000Y-349000D02*
X-979000Y-449000D01*
X-799000Y-349000D02*
X-799000Y-449000D01*
X-503500Y-164000D02*
X-603500Y-164000D01*
X-503500Y-344000D02*
X-603500Y-344000D01*
X-603500Y-852000D02*
X-493500Y-852000D01*
X-603500Y-672000D02*
X-493500Y-672000D01*
D40*
X-791000Y-973000D02*
X-791043Y-971961D01*
X-791395Y-969882D01*
X-792132Y-967803D01*
X-793336Y-965724D01*
X-795177Y-963674D01*
X-797256Y-962171D01*
X-799335Y-961214D01*
X-801414Y-960675D01*
X-803493Y-960500D01*
X-803500Y-960500D01*
X-816000Y-973000D02*
X-815957Y-971961D01*
X-815605Y-969882D01*
X-814868Y-967803D01*
X-813664Y-965724D01*
X-811823Y-963674D01*
X-809744Y-962171D01*
X-807665Y-961214D01*
X-805586Y-960675D01*
X-803507Y-960500D01*
X-803500Y-960500D01*
X-816000Y-973000D02*
X-815957Y-974039D01*
X-815605Y-976118D01*
X-814868Y-978197D01*
X-813664Y-980276D01*
X-811823Y-982326D01*
X-809744Y-983829D01*
X-807665Y-984786D01*
X-805586Y-985325D01*
X-803507Y-985500D01*
X-803500Y-985500D01*
X-791000Y-973000D02*
X-791043Y-974039D01*
X-791395Y-976118D01*
X-792132Y-978197D01*
X-793336Y-980276D01*
X-795177Y-982326D01*
X-797256Y-983829D01*
X-799335Y-984786D01*
X-801414Y-985325D01*
X-803493Y-985500D01*
X-803500Y-985500D01*
D38*
X-738500Y-990500D02*
X-368500Y-990500D01*
X-738500Y-1295500D02*
X-368500Y-1295500D01*
D39*
X-901700Y-1432560D02*
X-990600Y-1432560D01*
X-1008380Y-1544320D02*
X-1079500Y-1544320D01*
X-901700Y-1432560D02*
X-901700Y-1524000D01*
X-1191260Y-1526540D02*
X-1191260Y-1432560D01*
X-1104900Y-1432560D01*
D41*
X-819000Y-1800960D02*
X-959000Y-1800960D01*
X-819000Y-1820960D02*
X-959000Y-1820960D01*
X-959000Y-1930960D02*
X-819000Y-1930960D01*
X-819000Y-1770960D01*
X-959000Y-1770960D01*
X-959000Y-1930960D01*
D39*
X-731520Y-1955800D02*
X-731520Y-1874838D01*
X-720899Y-1872756D01*
X-712333Y-1867036D01*
X-706614Y-1858471D01*
X-704532Y-1847850D01*
X-731520Y-1820862D02*
X-720899Y-1822944D01*
X-712333Y-1828664D01*
X-706614Y-1837229D01*
X-704532Y-1847850D01*
X-731520Y-1820862D02*
X-731520Y-1739900D01*
X-284480Y-1879600D02*
X-284480Y-1816100D01*
X-698500Y-1955800D02*
X-317500Y-1955800D01*
X-698500Y-1739900D02*
X-317500Y-1739900D01*
X-698500Y-1955800D02*
X-731520Y-1955800D01*
X-731520Y-1739900D02*
X-698500Y-1739900D01*
X-284480Y-1816100D02*
X-284480Y-1739900D01*
X-317500Y-1739900D01*
X-317500Y-1955800D02*
X-284480Y-1955800D01*
X-284480Y-1879600D01*
X-672084Y-1920240D02*
X-672119Y-1919395D01*
X-672406Y-1917704D01*
X-673005Y-1916013D01*
X-673985Y-1914322D01*
X-675485Y-1912654D01*
X-677176Y-1911434D01*
X-678867Y-1910658D01*
X-680558Y-1910221D01*
X-682244Y-1910080D01*
X-692404Y-1920240D02*
X-692369Y-1919395D01*
X-692082Y-1917704D01*
X-691483Y-1916013D01*
X-690503Y-1914322D01*
X-689003Y-1912654D01*
X-687312Y-1911434D01*
X-685621Y-1910658D01*
X-683930Y-1910221D01*
X-682244Y-1910080D01*
X-692404Y-1920240D02*
X-692369Y-1921085D01*
X-692082Y-1922776D01*
X-691483Y-1924467D01*
X-690503Y-1926158D01*
X-689003Y-1927826D01*
X-687312Y-1929046D01*
X-685621Y-1929822D01*
X-683930Y-1930259D01*
X-682244Y-1930400D01*
X-672084Y-1920240D02*
X-672119Y-1921085D01*
X-672406Y-1922776D01*
X-673005Y-1924467D01*
X-673985Y-1926158D01*
X-675485Y-1927826D01*
X-677176Y-1929046D01*
X-678867Y-1929822D01*
X-680558Y-1930259D01*
X-682244Y-1930400D01*
D38*
X-979000Y-2408500D02*
X-979000Y-2508500D01*
X-799000Y-2408500D02*
X-799000Y-2508500D01*
X-576000Y-2757000D02*
X-476000Y-2757000D01*
X-576000Y-2577000D02*
X-476000Y-2577000D01*
X-586000Y-2503000D02*
X-476000Y-2503000D01*
X-586000Y-2323000D02*
X-476000Y-2323000D01*
X-90000Y-440000D02*
X-90000Y-550000D01*
X+90000Y-440000D02*
X+90000Y-550000D01*
X+418000Y-440000D02*
X+418000Y-550000D01*
X+598000Y-440000D02*
X+598000Y-550000D01*
X+852000Y-540000D02*
X+852000Y-440000D01*
X+672000Y-540000D02*
X+672000Y-440000D01*
X+344000Y-540000D02*
X+344000Y-440000D01*
X+164000Y-540000D02*
X+164000Y-440000D01*
X+176000Y-915500D02*
X+286000Y-915500D01*
X+176000Y-735500D02*
X+286000Y-735500D01*
X+31500Y-1741000D02*
X+141500Y-1741000D01*
X+31500Y-1561000D02*
X+141500Y-1561000D01*
X+31500Y-1995000D02*
X+141500Y-1995000D01*
X+31500Y-1815000D02*
X+141500Y-1815000D01*
X+31500Y-2249000D02*
X+131500Y-2249000D01*
X+31500Y-2069000D02*
X+131500Y-2069000D01*
X+539500Y-1741000D02*
X+639500Y-1741000D01*
X+539500Y-1561000D02*
X+639500Y-1561000D01*
X+539500Y-2249000D02*
X+639500Y-2249000D01*
X+539500Y-2069000D02*
X+639500Y-2069000D01*
X+539500Y-1995000D02*
X+649500Y-1995000D01*
X+539500Y-1815000D02*
X+649500Y-1815000D01*
D39*
X+698500Y+1841500D02*
X+698073Y+1851909D01*
X+694601Y+1872728D01*
X+687345Y+1893547D01*
X+675517Y+1914366D01*
X+657420Y+1935024D01*
X+636601Y+1950545D01*
X+615782Y+1960530D01*
X+594963Y+1966314D01*
X+574144Y+1968472D01*
X+571500Y+1968500D01*
X+444500Y+1841500D02*
X+444927Y+1851909D01*
X+448399Y+1872728D01*
X+455655Y+1893547D01*
X+467483Y+1914366D01*
X+485580Y+1935024D01*
X+506399Y+1950545D01*
X+527218Y+1960530D01*
X+548037Y+1966314D01*
X+568856Y+1968472D01*
X+571500Y+1968500D01*
X+444500Y+1841500D02*
X+444927Y+1831091D01*
X+448399Y+1810272D01*
X+455655Y+1789453D01*
X+467483Y+1768634D01*
X+485580Y+1747976D01*
X+506399Y+1732455D01*
X+527218Y+1722470D01*
X+548037Y+1716686D01*
X+568856Y+1714528D01*
X+571500Y+1714500D01*
X+698500Y+1841500D02*
X+698073Y+1831091D01*
X+694601Y+1810272D01*
X+687345Y+1789453D01*
X+675517Y+1768634D01*
X+657420Y+1747976D01*
X+636601Y+1732455D01*
X+615782Y+1722470D01*
X+594963Y+1716686D01*
X+574144Y+1714528D01*
X+571500Y+1714500D01*
X+635000Y+1841500D02*
X+634783Y+1846747D01*
X+633018Y+1857242D01*
X+629326Y+1867737D01*
X+623298Y+1878232D01*
X+614076Y+1888612D01*
X+603581Y+1896300D01*
X+593086Y+1901218D01*
X+582591Y+1904024D01*
X+572096Y+1904997D01*
X+571500Y+1905000D01*
X+508000Y+1841500D02*
X+508217Y+1846747D01*
X+509982Y+1857242D01*
X+513674Y+1867737D01*
X+519702Y+1878232D01*
X+528924Y+1888612D01*
X+539419Y+1896300D01*
X+549914Y+1901218D01*
X+560409Y+1904024D01*
X+570904Y+1904997D01*
X+571500Y+1905000D01*
X+508000Y+1841500D02*
X+508217Y+1836253D01*
X+509982Y+1825758D01*
X+513674Y+1815263D01*
X+519702Y+1804768D01*
X+528924Y+1794388D01*
X+539419Y+1786700D01*
X+549914Y+1781782D01*
X+560409Y+1778976D01*
X+570904Y+1778003D01*
X+571500Y+1778000D01*
X+635000Y+1841500D02*
X+634783Y+1836253D01*
X+633018Y+1825758D01*
X+629326Y+1815263D01*
X+623298Y+1804768D01*
X+614076Y+1794388D01*
X+603581Y+1786700D01*
X+593086Y+1781782D01*
X+582591Y+1778976D01*
X+572096Y+1778003D01*
X+571500Y+1778000D01*
X+502920Y+2032000D02*
X+548640Y+2032000D01*
X+594360Y+2079625D01*
X+548640Y+2127250D01*
X+502920Y+2127250D01*
X+518160Y+2174875D02*
X+502920Y+2190750D01*
X+502920Y+2238375D01*
X+518160Y+2254250D01*
X+533400Y+2254250D01*
X+548640Y+2238375D01*
X+548640Y+2190750D01*
X+563880Y+2174875D01*
X+594360Y+2174875D01*
X+594360Y+2254250D01*
X+594360Y+2286000D02*
X+502920Y+2286000D01*
X+502920Y+2381250D02*
X+594360Y+2381250D01*
X+548640Y+2286000D02*
X+548640Y+2381250D01*
X+579120Y+2413000D02*
X+594360Y+2428875D01*
X+594360Y+2492375D01*
X+579120Y+2508250D01*
X+563880Y+2508250D01*
X+548640Y+2492375D01*
X+548640Y+2428875D01*
X+533400Y+2413000D01*
X+518160Y+2413000D01*
X+502920Y+2428875D01*
X+502920Y+2492375D01*
X+518160Y+2508250D01*
X+254000Y+1841500D02*
X+253573Y+1851909D01*
X+250101Y+1872728D01*
X+242845Y+1893547D01*
X+231017Y+1914366D01*
X+212920Y+1935024D01*
X+192101Y+1950545D01*
X+171282Y+1960530D01*
X+150463Y+1966314D01*
X+129644Y+1968472D01*
X+127000Y+1968500D01*
X+0Y+1841500D02*
X+427Y+1851909D01*
X+3899Y+1872728D01*
X+11155Y+1893547D01*
X+22983Y+1914366D01*
X+41080Y+1935024D01*
X+61899Y+1950545D01*
X+82718Y+1960530D01*
X+103537Y+1966314D01*
X+124356Y+1968472D01*
X+127000Y+1968500D01*
X+0Y+1841500D02*
X+427Y+1831091D01*
X+3899Y+1810272D01*
X+11155Y+1789453D01*
X+22983Y+1768634D01*
X+41080Y+1747976D01*
X+61899Y+1732455D01*
X+82718Y+1722470D01*
X+103537Y+1716686D01*
X+124356Y+1714528D01*
X+127000Y+1714500D01*
X+254000Y+1841500D02*
X+253573Y+1831091D01*
X+250101Y+1810272D01*
X+242845Y+1789453D01*
X+231017Y+1768634D01*
X+212920Y+1747976D01*
X+192101Y+1732455D01*
X+171282Y+1722470D01*
X+150463Y+1716686D01*
X+129644Y+1714528D01*
X+127000Y+1714500D01*
X+190500Y+1841500D02*
X+190283Y+1846747D01*
X+188518Y+1857242D01*
X+184826Y+1867737D01*
X+178798Y+1878232D01*
X+169576Y+1888612D01*
X+159081Y+1896300D01*
X+148586Y+1901218D01*
X+138091Y+1904024D01*
X+127596Y+1904997D01*
X+127000Y+1905000D01*
X+63500Y+1841500D02*
X+63717Y+1846747D01*
X+65482Y+1857242D01*
X+69174Y+1867737D01*
X+75202Y+1878232D01*
X+84424Y+1888612D01*
X+94919Y+1896300D01*
X+105414Y+1901218D01*
X+115909Y+1904024D01*
X+126404Y+1904997D01*
X+127000Y+1905000D01*
X+63500Y+1841500D02*
X+63717Y+1836253D01*
X+65482Y+1825758D01*
X+69174Y+1815263D01*
X+75202Y+1804768D01*
X+84424Y+1794388D01*
X+94919Y+1786700D01*
X+105414Y+1781782D01*
X+115909Y+1778976D01*
X+126404Y+1778003D01*
X+127000Y+1778000D01*
X+190500Y+1841500D02*
X+190283Y+1836253D01*
X+188518Y+1825758D01*
X+184826Y+1815263D01*
X+178798Y+1804768D01*
X+169576Y+1794388D01*
X+159081Y+1786700D01*
X+148586Y+1781782D01*
X+138091Y+1778976D01*
X+127596Y+1778003D01*
X+127000Y+1778000D01*
X+58420Y+2032000D02*
X+104140Y+2032000D01*
X+149860Y+2079625D01*
X+104140Y+2127250D01*
X+58420Y+2127250D01*
X+73660Y+2174875D02*
X+58420Y+2190750D01*
X+58420Y+2238375D01*
X+73660Y+2254250D01*
X+88900Y+2254250D01*
X+104140Y+2238375D01*
X+104140Y+2190750D01*
X+119380Y+2174875D01*
X+149860Y+2174875D01*
X+149860Y+2254250D01*
X+58420Y+2286000D02*
X+149860Y+2286000D01*
X+149860Y+2381250D01*
X+134620Y+2413000D02*
X+149860Y+2428875D01*
X+149860Y+2492375D01*
X+134620Y+2508250D01*
X+119380Y+2508250D01*
X+104140Y+2492375D01*
X+104140Y+2428875D01*
X+88900Y+2413000D01*
X+73660Y+2413000D01*
X+58420Y+2428875D01*
X+58420Y+2492375D01*
X+73660Y+2508250D01*
X-635000Y-3556000D02*
X-635427Y-3545591D01*
X-638899Y-3524772D01*
X-646155Y-3503953D01*
X-657983Y-3483134D01*
X-676080Y-3462476D01*
X-696899Y-3446955D01*
X-717718Y-3436970D01*
X-738537Y-3431186D01*
X-759356Y-3429028D01*
X-762000Y-3429000D01*
X-889000Y-3556000D02*
X-888573Y-3545591D01*
X-885101Y-3524772D01*
X-877845Y-3503953D01*
X-866017Y-3483134D01*
X-847920Y-3462476D01*
X-827101Y-3446955D01*
X-806282Y-3436970D01*
X-785463Y-3431186D01*
X-764644Y-3429028D01*
X-762000Y-3429000D01*
X-889000Y-3556000D02*
X-888573Y-3566409D01*
X-885101Y-3587228D01*
X-877845Y-3608047D01*
X-866017Y-3628866D01*
X-847920Y-3649524D01*
X-827101Y-3665045D01*
X-806282Y-3675030D01*
X-785463Y-3680814D01*
X-764644Y-3682972D01*
X-762000Y-3683000D01*
X-635000Y-3556000D02*
X-635427Y-3566409D01*
X-638899Y-3587228D01*
X-646155Y-3608047D01*
X-657983Y-3628866D01*
X-676080Y-3649524D01*
X-696899Y-3665045D01*
X-717718Y-3675030D01*
X-738537Y-3680814D01*
X-759356Y-3682972D01*
X-762000Y-3683000D01*
X-698500Y-3556000D02*
X-698717Y-3550753D01*
X-700482Y-3540258D01*
X-704174Y-3529763D01*
X-710202Y-3519268D01*
X-719424Y-3508888D01*
X-729919Y-3501200D01*
X-740414Y-3496282D01*
X-750909Y-3493476D01*
X-761404Y-3492503D01*
X-762000Y-3492500D01*
X-825500Y-3556000D02*
X-825283Y-3550753D01*
X-823518Y-3540258D01*
X-819826Y-3529763D01*
X-813798Y-3519268D01*
X-804576Y-3508888D01*
X-794081Y-3501200D01*
X-783586Y-3496282D01*
X-773091Y-3493476D01*
X-762596Y-3492503D01*
X-762000Y-3492500D01*
X-825500Y-3556000D02*
X-825283Y-3561247D01*
X-823518Y-3571742D01*
X-819826Y-3582237D01*
X-813798Y-3592732D01*
X-804576Y-3603112D01*
X-794081Y-3610800D01*
X-783586Y-3615718D01*
X-773091Y-3618524D01*
X-762596Y-3619497D01*
X-762000Y-3619500D01*
X-698500Y-3556000D02*
X-698717Y-3561247D01*
X-700482Y-3571742D01*
X-704174Y-3582237D01*
X-710202Y-3592732D01*
X-719424Y-3603112D01*
X-729919Y-3610800D01*
X-740414Y-3615718D01*
X-750909Y-3618524D01*
X-761404Y-3619497D01*
X-762000Y-3619500D01*
X-1444625Y-3487420D02*
X-1381125Y-3487420D01*
X-1412875Y-3487420D02*
X-1412875Y-3578860D01*
X-1444625Y-3578860D02*
X-1381125Y-3578860D01*
X-1333500Y-3578860D02*
X-1333500Y-3487420D01*
X-1238250Y-3487420D01*
X-1333500Y-3533140D02*
X-1270000Y-3533140D01*
X-1206500Y-3578860D02*
X-1206500Y-3487420D01*
X-1127125Y-3487420D01*
X-1111250Y-3502660D01*
X-1111250Y-3517900D01*
X-1127125Y-3533140D01*
X-1111250Y-3548380D01*
X-1111250Y-3563620D01*
X-1127125Y-3578860D01*
X-1206500Y-3578860D01*
X-1206500Y-3533140D02*
X-1127125Y-3533140D01*
X-1063625Y-3502660D02*
X-1047750Y-3487420D01*
X-1000125Y-3487420D01*
X-984250Y-3502660D01*
X-984250Y-3517900D01*
X-1000125Y-3533140D01*
X-1047750Y-3533140D01*
X-1063625Y-3548380D01*
X-1063625Y-3578860D01*
X-984250Y-3578860D01*
X-635000Y-3302000D02*
X-635427Y-3291591D01*
X-638899Y-3270772D01*
X-646155Y-3249953D01*
X-657983Y-3229134D01*
X-676080Y-3208476D01*
X-696899Y-3192955D01*
X-717718Y-3182970D01*
X-738537Y-3177186D01*
X-759356Y-3175028D01*
X-762000Y-3175000D01*
X-889000Y-3302000D02*
X-888573Y-3291591D01*
X-885101Y-3270772D01*
X-877845Y-3249953D01*
X-866017Y-3229134D01*
X-847920Y-3208476D01*
X-827101Y-3192955D01*
X-806282Y-3182970D01*
X-785463Y-3177186D01*
X-764644Y-3175028D01*
X-762000Y-3175000D01*
X-889000Y-3302000D02*
X-888573Y-3312409D01*
X-885101Y-3333228D01*
X-877845Y-3354047D01*
X-866017Y-3374866D01*
X-847920Y-3395524D01*
X-827101Y-3411045D01*
X-806282Y-3421030D01*
X-785463Y-3426814D01*
X-764644Y-3428972D01*
X-762000Y-3429000D01*
X-635000Y-3302000D02*
X-635427Y-3312409D01*
X-638899Y-3333228D01*
X-646155Y-3354047D01*
X-657983Y-3374866D01*
X-676080Y-3395524D01*
X-696899Y-3411045D01*
X-717718Y-3421030D01*
X-738537Y-3426814D01*
X-759356Y-3428972D01*
X-762000Y-3429000D01*
X-698500Y-3302000D02*
X-698717Y-3296753D01*
X-700482Y-3286258D01*
X-704174Y-3275763D01*
X-710202Y-3265268D01*
X-719424Y-3254888D01*
X-729919Y-3247200D01*
X-740414Y-3242282D01*
X-750909Y-3239476D01*
X-761404Y-3238503D01*
X-762000Y-3238500D01*
X-825500Y-3302000D02*
X-825283Y-3296753D01*
X-823518Y-3286258D01*
X-819826Y-3275763D01*
X-813798Y-3265268D01*
X-804576Y-3254888D01*
X-794081Y-3247200D01*
X-783586Y-3242282D01*
X-773091Y-3239476D01*
X-762596Y-3238503D01*
X-762000Y-3238500D01*
X-825500Y-3302000D02*
X-825283Y-3307247D01*
X-823518Y-3317742D01*
X-819826Y-3328237D01*
X-813798Y-3338732D01*
X-804576Y-3349112D01*
X-794081Y-3356800D01*
X-783586Y-3361718D01*
X-773091Y-3364524D01*
X-762596Y-3365497D01*
X-762000Y-3365500D01*
X-698500Y-3302000D02*
X-698717Y-3307247D01*
X-700482Y-3317742D01*
X-704174Y-3328237D01*
X-710202Y-3338732D01*
X-719424Y-3349112D01*
X-729919Y-3356800D01*
X-740414Y-3361718D01*
X-750909Y-3364524D01*
X-761404Y-3365497D01*
X-762000Y-3365500D01*
X-1460500Y-3388360D02*
X-1460500Y-3296920D01*
X-1381125Y-3296920D01*
X-1365250Y-3312160D01*
X-1365250Y-3327400D01*
X-1381125Y-3342640D01*
X-1460500Y-3342640D01*
X-1333500Y-3296920D02*
X-1333500Y-3388360D01*
X-1285875Y-3342640D01*
X-1238250Y-3388360D01*
X-1238250Y-3296920D01*
X-1206500Y-3388360D02*
X-1206500Y-3296920D01*
X-1158875Y-3342640D01*
X-1111250Y-3296920D01*
X-1111250Y-3388360D01*
X-1063625Y-3312160D02*
X-1047750Y-3296920D01*
X-1000125Y-3296920D01*
X-984250Y-3312160D01*
X-984250Y-3327400D01*
X-1000125Y-3342640D01*
X-1047750Y-3342640D01*
X-1063625Y-3357880D01*
X-1063625Y-3388360D01*
X-984250Y-3388360D01*
X-635000Y-3048000D02*
X-635427Y-3037591D01*
X-638899Y-3016772D01*
X-646155Y-2995953D01*
X-657983Y-2975134D01*
X-676080Y-2954476D01*
X-696899Y-2938955D01*
X-717718Y-2928970D01*
X-738537Y-2923186D01*
X-759356Y-2921028D01*
X-762000Y-2921000D01*
X-889000Y-3048000D02*
X-888573Y-3037591D01*
X-885101Y-3016772D01*
X-877845Y-2995953D01*
X-866017Y-2975134D01*
X-847920Y-2954476D01*
X-827101Y-2938955D01*
X-806282Y-2928970D01*
X-785463Y-2923186D01*
X-764644Y-2921028D01*
X-762000Y-2921000D01*
X-889000Y-3048000D02*
X-888573Y-3058409D01*
X-885101Y-3079228D01*
X-877845Y-3100047D01*
X-866017Y-3120866D01*
X-847920Y-3141524D01*
X-827101Y-3157045D01*
X-806282Y-3167030D01*
X-785463Y-3172814D01*
X-764644Y-3174972D01*
X-762000Y-3175000D01*
X-635000Y-3048000D02*
X-635427Y-3058409D01*
X-638899Y-3079228D01*
X-646155Y-3100047D01*
X-657983Y-3120866D01*
X-676080Y-3141524D01*
X-696899Y-3157045D01*
X-717718Y-3167030D01*
X-738537Y-3172814D01*
X-759356Y-3174972D01*
X-762000Y-3175000D01*
X-698500Y-3048000D02*
X-698717Y-3042753D01*
X-700482Y-3032258D01*
X-704174Y-3021763D01*
X-710202Y-3011268D01*
X-719424Y-3000888D01*
X-729919Y-2993200D01*
X-740414Y-2988282D01*
X-750909Y-2985476D01*
X-761404Y-2984503D01*
X-762000Y-2984500D01*
X-825500Y-3048000D02*
X-825283Y-3042753D01*
X-823518Y-3032258D01*
X-819826Y-3021763D01*
X-813798Y-3011268D01*
X-804576Y-3000888D01*
X-794081Y-2993200D01*
X-783586Y-2988282D01*
X-773091Y-2985476D01*
X-762596Y-2984503D01*
X-762000Y-2984500D01*
X-825500Y-3048000D02*
X-825283Y-3053247D01*
X-823518Y-3063742D01*
X-819826Y-3074237D01*
X-813798Y-3084732D01*
X-804576Y-3095112D01*
X-794081Y-3102800D01*
X-783586Y-3107718D01*
X-773091Y-3110524D01*
X-762596Y-3111497D01*
X-762000Y-3111500D01*
X-698500Y-3048000D02*
X-698717Y-3053247D01*
X-700482Y-3063742D01*
X-704174Y-3074237D01*
X-710202Y-3084732D01*
X-719424Y-3095112D01*
X-729919Y-3102800D01*
X-740414Y-3107718D01*
X-750909Y-3110524D01*
X-761404Y-3111497D01*
X-762000Y-3111500D01*
X-1444625Y-2979420D02*
X-1381125Y-2979420D01*
X-1412875Y-2979420D02*
X-1412875Y-3070860D01*
X-1444625Y-3070860D02*
X-1381125Y-3070860D01*
X-1333500Y-3070860D02*
X-1333500Y-2979420D01*
X-1238250Y-3070860D01*
X-1238250Y-2979420D01*
X-1206500Y-3070860D02*
X-1206500Y-2979420D01*
X-1111250Y-2979420D02*
X-1111250Y-3070860D01*
X-1206500Y-3025140D02*
X-1111250Y-3025140D01*
X-1063625Y-2994660D02*
X-1047750Y-2979420D01*
X-1000125Y-2979420D01*
X-984250Y-2994660D01*
X-984250Y-3009900D01*
X-1000125Y-3025140D01*
X-1047750Y-3025140D01*
X-1063625Y-3040380D01*
X-1063625Y-3070860D01*
X-984250Y-3070860D01*
D40*
X+2954000Y+754000D02*
X+2953957Y+755039D01*
X+2953605Y+757118D01*
X+2952868Y+759197D01*
X+2951664Y+761276D01*
X+2949823Y+763326D01*
X+2947744Y+764829D01*
X+2945665Y+765786D01*
X+2943586Y+766325D01*
X+2941507Y+766500D01*
X+2941500Y+766500D01*
X+2929000Y+754000D02*
X+2929043Y+755039D01*
X+2929395Y+757118D01*
X+2930132Y+759197D01*
X+2931336Y+761276D01*
X+2933177Y+763326D01*
X+2935256Y+764829D01*
X+2937335Y+765786D01*
X+2939414Y+766325D01*
X+2941493Y+766500D01*
X+2941500Y+766500D01*
X+2929000Y+754000D02*
X+2929043Y+752961D01*
X+2929395Y+750882D01*
X+2930132Y+748803D01*
X+2931336Y+746724D01*
X+2933177Y+744674D01*
X+2935256Y+743171D01*
X+2937335Y+742214D01*
X+2939414Y+741675D01*
X+2941493Y+741500D01*
X+2941500Y+741500D01*
X+2954000Y+754000D02*
X+2953957Y+752961D01*
X+2953605Y+750882D01*
X+2952868Y+748803D01*
X+2951664Y+746724D01*
X+2949823Y+744674D01*
X+2947744Y+743171D01*
X+2945665Y+742214D01*
X+2943586Y+741675D01*
X+2941507Y+741500D01*
X+2941500Y+741500D01*
D38*
X+2959000Y+819000D02*
X+2936500Y+819000D01*
X+2936500Y+1449000D01*
X+2959000Y+1449000D01*
X+3264000Y+819000D02*
X+3286500Y+819000D01*
X+3286500Y+1449000D01*
X+3264000Y+1449000D01*
D40*
X+2265500Y+827000D02*
X+2265457Y+828039D01*
X+2265105Y+830118D01*
X+2264368Y+832197D01*
X+2263164Y+834276D01*
X+2261323Y+836326D01*
X+2259244Y+837829D01*
X+2257165Y+838786D01*
X+2255086Y+839325D01*
X+2253007Y+839500D01*
X+2253000Y+839500D01*
X+2240500Y+827000D02*
X+2240543Y+828039D01*
X+2240895Y+830118D01*
X+2241632Y+832197D01*
X+2242836Y+834276D01*
X+2244677Y+836326D01*
X+2246756Y+837829D01*
X+2248835Y+838786D01*
X+2250914Y+839325D01*
X+2252993Y+839500D01*
X+2253000Y+839500D01*
X+2240500Y+827000D02*
X+2240543Y+825961D01*
X+2240895Y+823882D01*
X+2241632Y+821803D01*
X+2242836Y+819724D01*
X+2244677Y+817674D01*
X+2246756Y+816171D01*
X+2248835Y+815214D01*
X+2250914Y+814675D01*
X+2252993Y+814500D01*
X+2253000Y+814500D01*
X+2265500Y+827000D02*
X+2265457Y+825961D01*
X+2265105Y+823882D01*
X+2264368Y+821803D01*
X+2263164Y+819724D01*
X+2261323Y+817674D01*
X+2259244Y+816171D01*
X+2257165Y+815214D01*
X+2255086Y+814675D01*
X+2253007Y+814500D01*
X+2253000Y+814500D01*
D38*
X+2268000Y+892000D02*
X+2223000Y+892000D01*
X+2223000Y+1452000D01*
X+2268000Y+1452000D01*
X+2558000Y+892000D02*
X+2603000Y+892000D01*
X+2603000Y+1452000D01*
X+2558000Y+1452000D01*
D41*
X+1467000Y-1800960D02*
X+1327000Y-1800960D01*
X+1467000Y-1820960D02*
X+1327000Y-1820960D01*
X+1327000Y-1930960D02*
X+1467000Y-1930960D01*
X+1467000Y-1770960D01*
X+1327000Y-1770960D01*
X+1327000Y-1930960D01*
D38*
X+2694000Y+455500D02*
X+2294000Y+455500D01*
X+2694000Y-74500D02*
X+2294000Y-74500D01*
D39*
X+1384300Y-1432560D02*
X+1295400Y-1432560D01*
X+1277620Y-1544320D02*
X+1206500Y-1544320D01*
X+1384300Y-1432560D02*
X+1384300Y-1524000D01*
X+1094740Y-1526540D02*
X+1094740Y-1432560D01*
X+1181100Y-1432560D01*
X+1333500Y+444500D02*
X+1333500Y+368300D01*
X+1968500Y+368300D01*
X+1968500Y+444500D01*
X+1612900Y+368300D02*
X+1612900Y+317500D01*
X+1689100Y+317500D01*
X+1689100Y+368300D01*
X+1384300Y+368300D02*
X+1384300Y+292100D01*
X+1447800Y+292100D01*
X+1447800Y+368300D01*
X+1917700Y+368300D02*
X+1917700Y+292100D01*
X+1854200Y+292100D01*
X+1854200Y+368300D02*
X+1854200Y+292100D01*
X+1714500Y-3302000D02*
X+1714073Y-3291591D01*
X+1710601Y-3270772D01*
X+1703345Y-3249953D01*
X+1691517Y-3229134D01*
X+1673420Y-3208476D01*
X+1652601Y-3192955D01*
X+1631782Y-3182970D01*
X+1610963Y-3177186D01*
X+1590144Y-3175028D01*
X+1587500Y-3175000D01*
X+1460500Y-3302000D02*
X+1460927Y-3291591D01*
X+1464399Y-3270772D01*
X+1471655Y-3249953D01*
X+1483483Y-3229134D01*
X+1501580Y-3208476D01*
X+1522399Y-3192955D01*
X+1543218Y-3182970D01*
X+1564037Y-3177186D01*
X+1584856Y-3175028D01*
X+1587500Y-3175000D01*
X+1460500Y-3302000D02*
X+1460927Y-3312409D01*
X+1464399Y-3333228D01*
X+1471655Y-3354047D01*
X+1483483Y-3374866D01*
X+1501580Y-3395524D01*
X+1522399Y-3411045D01*
X+1543218Y-3421030D01*
X+1564037Y-3426814D01*
X+1584856Y-3428972D01*
X+1587500Y-3429000D01*
X+1714500Y-3302000D02*
X+1714073Y-3312409D01*
X+1710601Y-3333228D01*
X+1703345Y-3354047D01*
X+1691517Y-3374866D01*
X+1673420Y-3395524D01*
X+1652601Y-3411045D01*
X+1631782Y-3421030D01*
X+1610963Y-3426814D01*
X+1590144Y-3428972D01*
X+1587500Y-3429000D01*
X+1651000Y-3302000D02*
X+1650783Y-3296753D01*
X+1649018Y-3286258D01*
X+1645326Y-3275763D01*
X+1639298Y-3265268D01*
X+1630076Y-3254888D01*
X+1619581Y-3247200D01*
X+1609086Y-3242282D01*
X+1598591Y-3239476D01*
X+1588096Y-3238503D01*
X+1587500Y-3238500D01*
X+1524000Y-3302000D02*
X+1524217Y-3296753D01*
X+1525982Y-3286258D01*
X+1529674Y-3275763D01*
X+1535702Y-3265268D01*
X+1544924Y-3254888D01*
X+1555419Y-3247200D01*
X+1565914Y-3242282D01*
X+1576409Y-3239476D01*
X+1586904Y-3238503D01*
X+1587500Y-3238500D01*
X+1524000Y-3302000D02*
X+1524217Y-3307247D01*
X+1525982Y-3317742D01*
X+1529674Y-3328237D01*
X+1535702Y-3338732D01*
X+1544924Y-3349112D01*
X+1555419Y-3356800D01*
X+1565914Y-3361718D01*
X+1576409Y-3364524D01*
X+1586904Y-3365497D01*
X+1587500Y-3365500D01*
X+1651000Y-3302000D02*
X+1650783Y-3307247D01*
X+1649018Y-3317742D01*
X+1645326Y-3328237D01*
X+1639298Y-3338732D01*
X+1630076Y-3349112D01*
X+1619581Y-3356800D01*
X+1609086Y-3361718D01*
X+1598591Y-3364524D01*
X+1588096Y-3365497D01*
X+1587500Y-3365500D01*
X+889000Y-3324860D02*
X+889000Y-3233420D01*
X+968375Y-3233420D01*
X+984250Y-3248660D01*
X+984250Y-3263900D01*
X+968375Y-3279140D01*
X+889000Y-3279140D01*
X+1016000Y-3233420D02*
X+1016000Y-3324860D01*
X+1063625Y-3279140D01*
X+1111250Y-3324860D01*
X+1111250Y-3233420D01*
X+1143000Y-3324860D02*
X+1143000Y-3233420D01*
X+1190625Y-3279140D01*
X+1238250Y-3233420D01*
X+1238250Y-3324860D01*
X+1285875Y-3248660D02*
X+1301750Y-3233420D01*
X+1349375Y-3233420D01*
X+1365250Y-3248660D01*
X+1365250Y-3263900D01*
X+1349375Y-3279140D01*
X+1365250Y-3294380D01*
X+1365250Y-3309620D01*
X+1349375Y-3324860D01*
X+1301750Y-3324860D01*
X+1285875Y-3309620D01*
X+1317625Y-3279140D02*
X+1349375Y-3279140D01*
X+1714500Y-3556000D02*
X+1714073Y-3545591D01*
X+1710601Y-3524772D01*
X+1703345Y-3503953D01*
X+1691517Y-3483134D01*
X+1673420Y-3462476D01*
X+1652601Y-3446955D01*
X+1631782Y-3436970D01*
X+1610963Y-3431186D01*
X+1590144Y-3429028D01*
X+1587500Y-3429000D01*
X+1460500Y-3556000D02*
X+1460927Y-3545591D01*
X+1464399Y-3524772D01*
X+1471655Y-3503953D01*
X+1483483Y-3483134D01*
X+1501580Y-3462476D01*
X+1522399Y-3446955D01*
X+1543218Y-3436970D01*
X+1564037Y-3431186D01*
X+1584856Y-3429028D01*
X+1587500Y-3429000D01*
X+1460500Y-3556000D02*
X+1460927Y-3566409D01*
X+1464399Y-3587228D01*
X+1471655Y-3608047D01*
X+1483483Y-3628866D01*
X+1501580Y-3649524D01*
X+1522399Y-3665045D01*
X+1543218Y-3675030D01*
X+1564037Y-3680814D01*
X+1584856Y-3682972D01*
X+1587500Y-3683000D01*
X+1714500Y-3556000D02*
X+1714073Y-3566409D01*
X+1710601Y-3587228D01*
X+1703345Y-3608047D01*
X+1691517Y-3628866D01*
X+1673420Y-3649524D01*
X+1652601Y-3665045D01*
X+1631782Y-3675030D01*
X+1610963Y-3680814D01*
X+1590144Y-3682972D01*
X+1587500Y-3683000D01*
X+1651000Y-3556000D02*
X+1650783Y-3550753D01*
X+1649018Y-3540258D01*
X+1645326Y-3529763D01*
X+1639298Y-3519268D01*
X+1630076Y-3508888D01*
X+1619581Y-3501200D01*
X+1609086Y-3496282D01*
X+1598591Y-3493476D01*
X+1588096Y-3492503D01*
X+1587500Y-3492500D01*
X+1524000Y-3556000D02*
X+1524217Y-3550753D01*
X+1525982Y-3540258D01*
X+1529674Y-3529763D01*
X+1535702Y-3519268D01*
X+1544924Y-3508888D01*
X+1555419Y-3501200D01*
X+1565914Y-3496282D01*
X+1576409Y-3493476D01*
X+1586904Y-3492503D01*
X+1587500Y-3492500D01*
X+1524000Y-3556000D02*
X+1524217Y-3561247D01*
X+1525982Y-3571742D01*
X+1529674Y-3582237D01*
X+1535702Y-3592732D01*
X+1544924Y-3603112D01*
X+1555419Y-3610800D01*
X+1565914Y-3615718D01*
X+1576409Y-3618524D01*
X+1586904Y-3619497D01*
X+1587500Y-3619500D01*
X+1651000Y-3556000D02*
X+1650783Y-3561247D01*
X+1649018Y-3571742D01*
X+1645326Y-3582237D01*
X+1639298Y-3592732D01*
X+1630076Y-3603112D01*
X+1619581Y-3610800D01*
X+1609086Y-3615718D01*
X+1598591Y-3618524D01*
X+1588096Y-3619497D01*
X+1587500Y-3619500D01*
X+904875Y-3487420D02*
X+968375Y-3487420D01*
X+936625Y-3487420D02*
X+936625Y-3578860D01*
X+904875Y-3578860D02*
X+968375Y-3578860D01*
X+1016000Y-3578860D02*
X+1016000Y-3487420D01*
X+1111250Y-3487420D01*
X+1016000Y-3533140D02*
X+1079500Y-3533140D01*
X+1143000Y-3578860D02*
X+1143000Y-3487420D01*
X+1222375Y-3487420D01*
X+1238250Y-3502660D01*
X+1238250Y-3517900D01*
X+1222375Y-3533140D01*
X+1238250Y-3548380D01*
X+1238250Y-3563620D01*
X+1222375Y-3578860D01*
X+1143000Y-3578860D01*
X+1143000Y-3533140D02*
X+1222375Y-3533140D01*
X+1285875Y-3502660D02*
X+1301750Y-3487420D01*
X+1349375Y-3487420D01*
X+1365250Y-3502660D01*
X+1365250Y-3517900D01*
X+1349375Y-3533140D01*
X+1365250Y-3548380D01*
X+1365250Y-3563620D01*
X+1349375Y-3578860D01*
X+1301750Y-3578860D01*
X+1285875Y-3563620D01*
X+1317625Y-3533140D02*
X+1349375Y-3533140D01*
X+1714500Y-3048000D02*
X+1714073Y-3037591D01*
X+1710601Y-3016772D01*
X+1703345Y-2995953D01*
X+1691517Y-2975134D01*
X+1673420Y-2954476D01*
X+1652601Y-2938955D01*
X+1631782Y-2928970D01*
X+1610963Y-2923186D01*
X+1590144Y-2921028D01*
X+1587500Y-2921000D01*
X+1460500Y-3048000D02*
X+1460927Y-3037591D01*
X+1464399Y-3016772D01*
X+1471655Y-2995953D01*
X+1483483Y-2975134D01*
X+1501580Y-2954476D01*
X+1522399Y-2938955D01*
X+1543218Y-2928970D01*
X+1564037Y-2923186D01*
X+1584856Y-2921028D01*
X+1587500Y-2921000D01*
X+1460500Y-3048000D02*
X+1460927Y-3058409D01*
X+1464399Y-3079228D01*
X+1471655Y-3100047D01*
X+1483483Y-3120866D01*
X+1501580Y-3141524D01*
X+1522399Y-3157045D01*
X+1543218Y-3167030D01*
X+1564037Y-3172814D01*
X+1584856Y-3174972D01*
X+1587500Y-3175000D01*
X+1714500Y-3048000D02*
X+1714073Y-3058409D01*
X+1710601Y-3079228D01*
X+1703345Y-3100047D01*
X+1691517Y-3120866D01*
X+1673420Y-3141524D01*
X+1652601Y-3157045D01*
X+1631782Y-3167030D01*
X+1610963Y-3172814D01*
X+1590144Y-3174972D01*
X+1587500Y-3175000D01*
X+1651000Y-3048000D02*
X+1650783Y-3042753D01*
X+1649018Y-3032258D01*
X+1645326Y-3021763D01*
X+1639298Y-3011268D01*
X+1630076Y-3000888D01*
X+1619581Y-2993200D01*
X+1609086Y-2988282D01*
X+1598591Y-2985476D01*
X+1588096Y-2984503D01*
X+1587500Y-2984500D01*
X+1524000Y-3048000D02*
X+1524217Y-3042753D01*
X+1525982Y-3032258D01*
X+1529674Y-3021763D01*
X+1535702Y-3011268D01*
X+1544924Y-3000888D01*
X+1555419Y-2993200D01*
X+1565914Y-2988282D01*
X+1576409Y-2985476D01*
X+1586904Y-2984503D01*
X+1587500Y-2984500D01*
X+1524000Y-3048000D02*
X+1524217Y-3053247D01*
X+1525982Y-3063742D01*
X+1529674Y-3074237D01*
X+1535702Y-3084732D01*
X+1544924Y-3095112D01*
X+1555419Y-3102800D01*
X+1565914Y-3107718D01*
X+1576409Y-3110524D01*
X+1586904Y-3111497D01*
X+1587500Y-3111500D01*
X+1651000Y-3048000D02*
X+1650783Y-3053247D01*
X+1649018Y-3063742D01*
X+1645326Y-3074237D01*
X+1639298Y-3084732D01*
X+1630076Y-3095112D01*
X+1619581Y-3102800D01*
X+1609086Y-3107718D01*
X+1598591Y-3110524D01*
X+1588096Y-3111497D01*
X+1587500Y-3111500D01*
X+904875Y-2979420D02*
X+968375Y-2979420D01*
X+936625Y-2979420D02*
X+936625Y-3070860D01*
X+904875Y-3070860D02*
X+968375Y-3070860D01*
X+1016000Y-3070860D02*
X+1016000Y-2979420D01*
X+1111250Y-3070860D01*
X+1111250Y-2979420D01*
X+1143000Y-3070860D02*
X+1143000Y-2979420D01*
X+1238250Y-2979420D02*
X+1238250Y-3070860D01*
X+1143000Y-3025140D02*
X+1238250Y-3025140D01*
X+1285875Y-2994660D02*
X+1301750Y-2979420D01*
X+1349375Y-2979420D01*
X+1365250Y-2994660D01*
X+1365250Y-3009900D01*
X+1349375Y-3025140D01*
X+1365250Y-3040380D01*
X+1365250Y-3055620D01*
X+1349375Y-3070860D01*
X+1301750Y-3070860D01*
X+1285875Y-3055620D01*
X+1317625Y-3025140D02*
X+1349375Y-3025140D01*
X+2679700Y-982980D02*
X+2760662Y-982980D01*
X+2762744Y-993601D01*
X+2768464Y-1002167D01*
X+2777029Y-1007886D01*
X+2787650Y-1009968D01*
X+2814638Y-982980D02*
X+2812556Y-993601D01*
X+2806836Y-1002167D01*
X+2798271Y-1007886D01*
X+2787650Y-1009968D01*
X+2814638Y-982980D02*
X+2895600Y-982980D01*
X+2755900Y-1430020D02*
X+2819400Y-1430020D01*
X+2679700Y-1016000D02*
X+2679700Y-1397000D01*
X+2895600Y-1016000D02*
X+2895600Y-1397000D01*
X+2679700Y-1016000D02*
X+2679700Y-982980D01*
X+2895600Y-982980D02*
X+2895600Y-1016000D01*
X+2819400Y-1430020D02*
X+2895600Y-1430020D01*
X+2895600Y-1397000D01*
X+2679700Y-1397000D02*
X+2679700Y-1430020D01*
X+2755900Y-1430020D01*
X+2725420Y-1032256D02*
X+2725385Y-1031411D01*
X+2725098Y-1029720D01*
X+2724499Y-1028029D01*
X+2723519Y-1026338D01*
X+2722019Y-1024670D01*
X+2720328Y-1023450D01*
X+2718637Y-1022674D01*
X+2716946Y-1022237D01*
X+2715260Y-1022096D01*
X+2705100Y-1032256D02*
X+2705135Y-1031411D01*
X+2705422Y-1029720D01*
X+2706021Y-1028029D01*
X+2707001Y-1026338D01*
X+2708501Y-1024670D01*
X+2710192Y-1023450D01*
X+2711883Y-1022674D01*
X+2713574Y-1022237D01*
X+2715260Y-1022096D01*
X+2705100Y-1032256D02*
X+2705135Y-1033101D01*
X+2705422Y-1034792D01*
X+2706021Y-1036483D01*
X+2707001Y-1038174D01*
X+2708501Y-1039842D01*
X+2710192Y-1041062D01*
X+2711883Y-1041838D01*
X+2713574Y-1042275D01*
X+2715260Y-1042416D01*
X+2725420Y-1032256D02*
X+2725385Y-1033101D01*
X+2725098Y-1034792D01*
X+2724499Y-1036483D01*
X+2723519Y-1038174D01*
X+2722019Y-1039842D01*
X+2720328Y-1041062D01*
X+2718637Y-1041838D01*
X+2716946Y-1042275D01*
X+2715260Y-1042416D01*
X+1554480Y-1955800D02*
X+1554480Y-1874838D01*
X+1565101Y-1872756D01*
X+1573667Y-1867036D01*
X+1579386Y-1858471D01*
X+1581468Y-1847850D01*
X+1554480Y-1820862D02*
X+1565101Y-1822944D01*
X+1573667Y-1828664D01*
X+1579386Y-1837229D01*
X+1581468Y-1847850D01*
X+1554480Y-1820862D02*
X+1554480Y-1739900D01*
X+2001520Y-1879600D02*
X+2001520Y-1816100D01*
X+1587500Y-1955800D02*
X+1968500Y-1955800D01*
X+1587500Y-1739900D02*
X+1968500Y-1739900D01*
X+1587500Y-1955800D02*
X+1554480Y-1955800D01*
X+1554480Y-1739900D02*
X+1587500Y-1739900D01*
X+2001520Y-1816100D02*
X+2001520Y-1739900D01*
X+1968500Y-1739900D01*
X+1968500Y-1955800D02*
X+2001520Y-1955800D01*
X+2001520Y-1879600D01*
X+1613916Y-1920240D02*
X+1613881Y-1919395D01*
X+1613594Y-1917704D01*
X+1612995Y-1916013D01*
X+1612015Y-1914322D01*
X+1610515Y-1912654D01*
X+1608824Y-1911434D01*
X+1607133Y-1910658D01*
X+1605442Y-1910221D01*
X+1603756Y-1910080D01*
X+1593596Y-1920240D02*
X+1593631Y-1919395D01*
X+1593918Y-1917704D01*
X+1594517Y-1916013D01*
X+1595497Y-1914322D01*
X+1596997Y-1912654D01*
X+1598688Y-1911434D01*
X+1600379Y-1910658D01*
X+1602070Y-1910221D01*
X+1603756Y-1910080D01*
X+1593596Y-1920240D02*
X+1593631Y-1921085D01*
X+1593918Y-1922776D01*
X+1594517Y-1924467D01*
X+1595497Y-1926158D01*
X+1596997Y-1927826D01*
X+1598688Y-1929046D01*
X+1600379Y-1929822D01*
X+1602070Y-1930259D01*
X+1603756Y-1930400D01*
X+1613916Y-1920240D02*
X+1613881Y-1921085D01*
X+1613594Y-1922776D01*
X+1612995Y-1924467D01*
X+1612015Y-1926158D01*
X+1610515Y-1927826D01*
X+1608824Y-1929046D01*
X+1607133Y-1929822D01*
X+1605442Y-1930259D01*
X+1603756Y-1930400D01*
D38*
X+2941500Y+510000D02*
X+2941500Y+100000D01*
X+3281500Y+510000D02*
X+3281500Y+100000D01*
D39*
X+2984500Y+1841500D02*
X+2984073Y+1851909D01*
X+2980601Y+1872728D01*
X+2973345Y+1893547D01*
X+2961517Y+1914366D01*
X+2943420Y+1935024D01*
X+2922601Y+1950545D01*
X+2901782Y+1960530D01*
X+2880963Y+1966314D01*
X+2860144Y+1968472D01*
X+2857500Y+1968500D01*
X+2730500Y+1841500D02*
X+2730927Y+1851909D01*
X+2734399Y+1872728D01*
X+2741655Y+1893547D01*
X+2753483Y+1914366D01*
X+2771580Y+1935024D01*
X+2792399Y+1950545D01*
X+2813218Y+1960530D01*
X+2834037Y+1966314D01*
X+2854856Y+1968472D01*
X+2857500Y+1968500D01*
X+2730500Y+1841500D02*
X+2730927Y+1831091D01*
X+2734399Y+1810272D01*
X+2741655Y+1789453D01*
X+2753483Y+1768634D01*
X+2771580Y+1747976D01*
X+2792399Y+1732455D01*
X+2813218Y+1722470D01*
X+2834037Y+1716686D01*
X+2854856Y+1714528D01*
X+2857500Y+1714500D01*
X+2984500Y+1841500D02*
X+2984073Y+1831091D01*
X+2980601Y+1810272D01*
X+2973345Y+1789453D01*
X+2961517Y+1768634D01*
X+2943420Y+1747976D01*
X+2922601Y+1732455D01*
X+2901782Y+1722470D01*
X+2880963Y+1716686D01*
X+2860144Y+1714528D01*
X+2857500Y+1714500D01*
X+2921000Y+1841500D02*
X+2920783Y+1846747D01*
X+2919018Y+1857242D01*
X+2915326Y+1867737D01*
X+2909298Y+1878232D01*
X+2900076Y+1888612D01*
X+2889581Y+1896300D01*
X+2879086Y+1901218D01*
X+2868591Y+1904024D01*
X+2858096Y+1904997D01*
X+2857500Y+1905000D01*
X+2794000Y+1841500D02*
X+2794217Y+1846747D01*
X+2795982Y+1857242D01*
X+2799674Y+1867737D01*
X+2805702Y+1878232D01*
X+2814924Y+1888612D01*
X+2825419Y+1896300D01*
X+2835914Y+1901218D01*
X+2846409Y+1904024D01*
X+2856904Y+1904997D01*
X+2857500Y+1905000D01*
X+2794000Y+1841500D02*
X+2794217Y+1836253D01*
X+2795982Y+1825758D01*
X+2799674Y+1815263D01*
X+2805702Y+1804768D01*
X+2814924Y+1794388D01*
X+2825419Y+1786700D01*
X+2835914Y+1781782D01*
X+2846409Y+1778976D01*
X+2856904Y+1778003D01*
X+2857500Y+1778000D01*
X+2921000Y+1841500D02*
X+2920783Y+1836253D01*
X+2919018Y+1825758D01*
X+2915326Y+1815263D01*
X+2909298Y+1804768D01*
X+2900076Y+1794388D01*
X+2889581Y+1786700D01*
X+2879086Y+1781782D01*
X+2868591Y+1778976D01*
X+2858096Y+1778003D01*
X+2857500Y+1778000D01*
X+2788920Y+2032000D02*
X+2834640Y+2032000D01*
X+2880360Y+2079625D01*
X+2834640Y+2127250D01*
X+2788920Y+2127250D01*
X+2804160Y+2174875D02*
X+2788920Y+2190750D01*
X+2788920Y+2238375D01*
X+2804160Y+2254250D01*
X+2819400Y+2254250D01*
X+2834640Y+2238375D01*
X+2849880Y+2254250D01*
X+2865120Y+2254250D01*
X+2880360Y+2238375D01*
X+2880360Y+2190750D01*
X+2865120Y+2174875D01*
X+2834640Y+2206625D02*
X+2834640Y+2238375D01*
X+2880360Y+2286000D02*
X+2788920Y+2286000D01*
X+2788920Y+2381250D02*
X+2880360Y+2381250D01*
X+2834640Y+2286000D02*
X+2834640Y+2381250D01*
X+2865120Y+2413000D02*
X+2880360Y+2428875D01*
X+2880360Y+2492375D01*
X+2865120Y+2508250D01*
X+2849880Y+2508250D01*
X+2834640Y+2492375D01*
X+2834640Y+2428875D01*
X+2819400Y+2413000D01*
X+2804160Y+2413000D01*
X+2788920Y+2428875D01*
X+2788920Y+2492375D01*
X+2804160Y+2508250D01*
X+2540000Y+1841500D02*
X+2539573Y+1851909D01*
X+2536101Y+1872728D01*
X+2528845Y+1893547D01*
X+2517017Y+1914366D01*
X+2498920Y+1935024D01*
X+2478101Y+1950545D01*
X+2457282Y+1960530D01*
X+2436463Y+1966314D01*
X+2415644Y+1968472D01*
X+2413000Y+1968500D01*
X+2286000Y+1841500D02*
X+2286427Y+1851909D01*
X+2289899Y+1872728D01*
X+2297155Y+1893547D01*
X+2308983Y+1914366D01*
X+2327080Y+1935024D01*
X+2347899Y+1950545D01*
X+2368718Y+1960530D01*
X+2389537Y+1966314D01*
X+2410356Y+1968472D01*
X+2413000Y+1968500D01*
X+2286000Y+1841500D02*
X+2286427Y+1831091D01*
X+2289899Y+1810272D01*
X+2297155Y+1789453D01*
X+2308983Y+1768634D01*
X+2327080Y+1747976D01*
X+2347899Y+1732455D01*
X+2368718Y+1722470D01*
X+2389537Y+1716686D01*
X+2410356Y+1714528D01*
X+2413000Y+1714500D01*
X+2540000Y+1841500D02*
X+2539573Y+1831091D01*
X+2536101Y+1810272D01*
X+2528845Y+1789453D01*
X+2517017Y+1768634D01*
X+2498920Y+1747976D01*
X+2478101Y+1732455D01*
X+2457282Y+1722470D01*
X+2436463Y+1716686D01*
X+2415644Y+1714528D01*
X+2413000Y+1714500D01*
X+2476500Y+1841500D02*
X+2476283Y+1846747D01*
X+2474518Y+1857242D01*
X+2470826Y+1867737D01*
X+2464798Y+1878232D01*
X+2455576Y+1888612D01*
X+2445081Y+1896300D01*
X+2434586Y+1901218D01*
X+2424091Y+1904024D01*
X+2413596Y+1904997D01*
X+2413000Y+1905000D01*
X+2349500Y+1841500D02*
X+2349717Y+1846747D01*
X+2351482Y+1857242D01*
X+2355174Y+1867737D01*
X+2361202Y+1878232D01*
X+2370424Y+1888612D01*
X+2380919Y+1896300D01*
X+2391414Y+1901218D01*
X+2401909Y+1904024D01*
X+2412404Y+1904997D01*
X+2413000Y+1905000D01*
X+2349500Y+1841500D02*
X+2349717Y+1836253D01*
X+2351482Y+1825758D01*
X+2355174Y+1815263D01*
X+2361202Y+1804768D01*
X+2370424Y+1794388D01*
X+2380919Y+1786700D01*
X+2391414Y+1781782D01*
X+2401909Y+1778976D01*
X+2412404Y+1778003D01*
X+2413000Y+1778000D01*
X+2476500Y+1841500D02*
X+2476283Y+1836253D01*
X+2474518Y+1825758D01*
X+2470826Y+1815263D01*
X+2464798Y+1804768D01*
X+2455576Y+1794388D01*
X+2445081Y+1786700D01*
X+2434586Y+1781782D01*
X+2424091Y+1778976D01*
X+2413596Y+1778003D01*
X+2413000Y+1778000D01*
X+2344420Y+2032000D02*
X+2390140Y+2032000D01*
X+2435860Y+2079625D01*
X+2390140Y+2127250D01*
X+2344420Y+2127250D01*
X+2359660Y+2174875D02*
X+2344420Y+2190750D01*
X+2344420Y+2238375D01*
X+2359660Y+2254250D01*
X+2374900Y+2254250D01*
X+2390140Y+2238375D01*
X+2405380Y+2254250D01*
X+2420620Y+2254250D01*
X+2435860Y+2238375D01*
X+2435860Y+2190750D01*
X+2420620Y+2174875D01*
X+2390140Y+2206625D02*
X+2390140Y+2238375D01*
X+2344420Y+2286000D02*
X+2435860Y+2286000D01*
X+2435860Y+2381250D01*
X+2420620Y+2413000D02*
X+2435860Y+2428875D01*
X+2435860Y+2492375D01*
X+2420620Y+2508250D01*
X+2405380Y+2508250D01*
X+2390140Y+2492375D01*
X+2390140Y+2428875D01*
X+2374900Y+2413000D01*
X+2359660Y+2413000D01*
X+2344420Y+2428875D01*
X+2344420Y+2492375D01*
X+2359660Y+2508250D01*
D38*
X+1682500Y-852000D02*
X+1792500Y-852000D01*
X+1682500Y-672000D02*
X+1792500Y-672000D01*
D40*
X+1495000Y-973000D02*
X+1494957Y-971961D01*
X+1494605Y-969882D01*
X+1493868Y-967803D01*
X+1492664Y-965724D01*
X+1490823Y-963674D01*
X+1488744Y-962171D01*
X+1486665Y-961214D01*
X+1484586Y-960675D01*
X+1482507Y-960500D01*
X+1482500Y-960500D01*
X+1470000Y-973000D02*
X+1470043Y-971961D01*
X+1470395Y-969882D01*
X+1471132Y-967803D01*
X+1472336Y-965724D01*
X+1474177Y-963674D01*
X+1476256Y-962171D01*
X+1478335Y-961214D01*
X+1480414Y-960675D01*
X+1482493Y-960500D01*
X+1482500Y-960500D01*
X+1470000Y-973000D02*
X+1470043Y-974039D01*
X+1470395Y-976118D01*
X+1471132Y-978197D01*
X+1472336Y-980276D01*
X+1474177Y-982326D01*
X+1476256Y-983829D01*
X+1478335Y-984786D01*
X+1480414Y-985325D01*
X+1482493Y-985500D01*
X+1482500Y-985500D01*
X+1495000Y-973000D02*
X+1494957Y-974039D01*
X+1494605Y-976118D01*
X+1493868Y-978197D01*
X+1492664Y-980276D01*
X+1490823Y-982326D01*
X+1488744Y-983829D01*
X+1486665Y-984786D01*
X+1484586Y-985325D01*
X+1482507Y-985500D01*
X+1482500Y-985500D01*
D38*
X+1547500Y-990500D02*
X+1917500Y-990500D01*
X+1547500Y-1295500D02*
X+1917500Y-1295500D01*
X+1307000Y-349000D02*
X+1307000Y-449000D01*
X+1487000Y-349000D02*
X+1487000Y-449000D01*
X+1782500Y-164000D02*
X+1682500Y-164000D01*
X+1782500Y-344000D02*
X+1682500Y-344000D01*
X+1682500Y-2757000D02*
X+1782500Y-2757000D01*
X+1682500Y-2577000D02*
X+1782500Y-2577000D01*
X+1243500Y-2381000D02*
X+1243500Y-2481000D01*
X+1423500Y-2381000D02*
X+1423500Y-2481000D01*
X+1682500Y-2503000D02*
X+1792500Y-2503000D01*
X+1682500Y-2323000D02*
X+1792500Y-2323000D01*
X+2132500Y-412500D02*
X+2132500Y-522500D01*
X+2312500Y-412500D02*
X+2312500Y-522500D01*
X+2566500Y-512500D02*
X+2566500Y-412500D01*
X+2386500Y-512500D02*
X+2386500Y-412500D01*
X+3138000Y-512500D02*
X+3138000Y-412500D01*
X+2958000Y-512500D02*
X+2958000Y-412500D01*
X+2884000Y-522500D02*
X+2884000Y-412500D01*
X+2704000Y-522500D02*
X+2704000Y-412500D01*
X+2462000Y-915500D02*
X+2572000Y-915500D01*
X+2462000Y-735500D02*
X+2572000Y-735500D01*
X+2825500Y-2249000D02*
X+2925500Y-2249000D01*
X+2825500Y-2069000D02*
X+2925500Y-2069000D01*
X+2825500Y-1741000D02*
X+2925500Y-1741000D01*
X+2825500Y-1561000D02*
X+2925500Y-1561000D01*
X+2345000Y-2249000D02*
X+2445000Y-2249000D01*
X+2345000Y-2069000D02*
X+2445000Y-2069000D01*
X+2335000Y-1995000D02*
X+2445000Y-1995000D01*
X+2335000Y-1815000D02*
X+2445000Y-1815000D01*
X+2825500Y-1995000D02*
X+2935500Y-1995000D01*
X+2825500Y-1815000D02*
X+2935500Y-1815000D01*
X+2335000Y-1741000D02*
X+2445000Y-1741000D01*
X+2335000Y-1561000D02*
X+2445000Y-1561000D01*
D40*
X+5303500Y+754000D02*
X+5303457Y+755039D01*
X+5303105Y+757118D01*
X+5302368Y+759197D01*
X+5301164Y+761276D01*
X+5299323Y+763326D01*
X+5297244Y+764829D01*
X+5295165Y+765786D01*
X+5293086Y+766325D01*
X+5291007Y+766500D01*
X+5291000Y+766500D01*
X+5278500Y+754000D02*
X+5278543Y+755039D01*
X+5278895Y+757118D01*
X+5279632Y+759197D01*
X+5280836Y+761276D01*
X+5282677Y+763326D01*
X+5284756Y+764829D01*
X+5286835Y+765786D01*
X+5288914Y+766325D01*
X+5290993Y+766500D01*
X+5291000Y+766500D01*
X+5278500Y+754000D02*
X+5278543Y+752961D01*
X+5278895Y+750882D01*
X+5279632Y+748803D01*
X+5280836Y+746724D01*
X+5282677Y+744674D01*
X+5284756Y+743171D01*
X+5286835Y+742214D01*
X+5288914Y+741675D01*
X+5290993Y+741500D01*
X+5291000Y+741500D01*
X+5303500Y+754000D02*
X+5303457Y+752961D01*
X+5303105Y+750882D01*
X+5302368Y+748803D01*
X+5301164Y+746724D01*
X+5299323Y+744674D01*
X+5297244Y+743171D01*
X+5295165Y+742214D01*
X+5293086Y+741675D01*
X+5291007Y+741500D01*
X+5291000Y+741500D01*
D38*
X+5308500Y+819000D02*
X+5286000Y+819000D01*
X+5286000Y+1449000D01*
X+5308500Y+1449000D01*
X+5613500Y+819000D02*
X+5636000Y+819000D01*
X+5636000Y+1449000D01*
X+5613500Y+1449000D01*
D40*
X+4615000Y+827000D02*
X+4614957Y+828039D01*
X+4614605Y+830118D01*
X+4613868Y+832197D01*
X+4612664Y+834276D01*
X+4610823Y+836326D01*
X+4608744Y+837829D01*
X+4606665Y+838786D01*
X+4604586Y+839325D01*
X+4602507Y+839500D01*
X+4602500Y+839500D01*
X+4590000Y+827000D02*
X+4590043Y+828039D01*
X+4590395Y+830118D01*
X+4591132Y+832197D01*
X+4592336Y+834276D01*
X+4594177Y+836326D01*
X+4596256Y+837829D01*
X+4598335Y+838786D01*
X+4600414Y+839325D01*
X+4602493Y+839500D01*
X+4602500Y+839500D01*
X+4590000Y+827000D02*
X+4590043Y+825961D01*
X+4590395Y+823882D01*
X+4591132Y+821803D01*
X+4592336Y+819724D01*
X+4594177Y+817674D01*
X+4596256Y+816171D01*
X+4598335Y+815214D01*
X+4600414Y+814675D01*
X+4602493Y+814500D01*
X+4602500Y+814500D01*
X+4615000Y+827000D02*
X+4614957Y+825961D01*
X+4614605Y+823882D01*
X+4613868Y+821803D01*
X+4612664Y+819724D01*
X+4610823Y+817674D01*
X+4608744Y+816171D01*
X+4606665Y+815214D01*
X+4604586Y+814675D01*
X+4602507Y+814500D01*
X+4602500Y+814500D01*
D38*
X+4617500Y+892000D02*
X+4572500Y+892000D01*
X+4572500Y+1452000D01*
X+4617500Y+1452000D01*
X+4907500Y+892000D02*
X+4952500Y+892000D01*
X+4952500Y+1452000D01*
X+4907500Y+1452000D01*
D41*
X+3753000Y-1800960D02*
X+3613000Y-1800960D01*
X+3753000Y-1820960D02*
X+3613000Y-1820960D01*
X+3613000Y-1930960D02*
X+3753000Y-1930960D01*
X+3753000Y-1770960D01*
X+3613000Y-1770960D01*
X+3613000Y-1930960D01*
D39*
X+4064000Y-3556000D02*
X+4063573Y-3545591D01*
X+4060101Y-3524772D01*
X+4052845Y-3503953D01*
X+4041017Y-3483134D01*
X+4022920Y-3462476D01*
X+4002101Y-3446955D01*
X+3981282Y-3436970D01*
X+3960463Y-3431186D01*
X+3939644Y-3429028D01*
X+3937000Y-3429000D01*
X+3810000Y-3556000D02*
X+3810427Y-3545591D01*
X+3813899Y-3524772D01*
X+3821155Y-3503953D01*
X+3832983Y-3483134D01*
X+3851080Y-3462476D01*
X+3871899Y-3446955D01*
X+3892718Y-3436970D01*
X+3913537Y-3431186D01*
X+3934356Y-3429028D01*
X+3937000Y-3429000D01*
X+3810000Y-3556000D02*
X+3810427Y-3566409D01*
X+3813899Y-3587228D01*
X+3821155Y-3608047D01*
X+3832983Y-3628866D01*
X+3851080Y-3649524D01*
X+3871899Y-3665045D01*
X+3892718Y-3675030D01*
X+3913537Y-3680814D01*
X+3934356Y-3682972D01*
X+3937000Y-3683000D01*
X+4064000Y-3556000D02*
X+4063573Y-3566409D01*
X+4060101Y-3587228D01*
X+4052845Y-3608047D01*
X+4041017Y-3628866D01*
X+4022920Y-3649524D01*
X+4002101Y-3665045D01*
X+3981282Y-3675030D01*
X+3960463Y-3680814D01*
X+3939644Y-3682972D01*
X+3937000Y-3683000D01*
X+4000500Y-3556000D02*
X+4000283Y-3550753D01*
X+3998518Y-3540258D01*
X+3994826Y-3529763D01*
X+3988798Y-3519268D01*
X+3979576Y-3508888D01*
X+3969081Y-3501200D01*
X+3958586Y-3496282D01*
X+3948091Y-3493476D01*
X+3937596Y-3492503D01*
X+3937000Y-3492500D01*
X+3873500Y-3556000D02*
X+3873717Y-3550753D01*
X+3875482Y-3540258D01*
X+3879174Y-3529763D01*
X+3885202Y-3519268D01*
X+3894424Y-3508888D01*
X+3904919Y-3501200D01*
X+3915414Y-3496282D01*
X+3925909Y-3493476D01*
X+3936404Y-3492503D01*
X+3937000Y-3492500D01*
X+3873500Y-3556000D02*
X+3873717Y-3561247D01*
X+3875482Y-3571742D01*
X+3879174Y-3582237D01*
X+3885202Y-3592732D01*
X+3894424Y-3603112D01*
X+3904919Y-3610800D01*
X+3915414Y-3615718D01*
X+3925909Y-3618524D01*
X+3936404Y-3619497D01*
X+3937000Y-3619500D01*
X+4000500Y-3556000D02*
X+4000283Y-3561247D01*
X+3998518Y-3571742D01*
X+3994826Y-3582237D01*
X+3988798Y-3592732D01*
X+3979576Y-3603112D01*
X+3969081Y-3610800D01*
X+3958586Y-3615718D01*
X+3948091Y-3618524D01*
X+3937596Y-3619497D01*
X+3937000Y-3619500D01*
X+3254375Y-3487420D02*
X+3317875Y-3487420D01*
X+3286125Y-3487420D02*
X+3286125Y-3578860D01*
X+3254375Y-3578860D02*
X+3317875Y-3578860D01*
X+3365500Y-3578860D02*
X+3365500Y-3487420D01*
X+3460750Y-3487420D01*
X+3365500Y-3533140D02*
X+3429000Y-3533140D01*
X+3492500Y-3578860D02*
X+3492500Y-3487420D01*
X+3571875Y-3487420D01*
X+3587750Y-3502660D01*
X+3587750Y-3517900D01*
X+3571875Y-3533140D01*
X+3587750Y-3548380D01*
X+3587750Y-3563620D01*
X+3571875Y-3578860D01*
X+3492500Y-3578860D01*
X+3492500Y-3533140D02*
X+3571875Y-3533140D01*
X+3714750Y-3548380D02*
X+3619500Y-3548380D01*
X+3683000Y-3487420D01*
X+3683000Y-3578860D01*
X+6350000Y-3556000D02*
X+6349573Y-3545591D01*
X+6346101Y-3524772D01*
X+6338845Y-3503953D01*
X+6327017Y-3483134D01*
X+6308920Y-3462476D01*
X+6288101Y-3446955D01*
X+6267282Y-3436970D01*
X+6246463Y-3431186D01*
X+6225644Y-3429028D01*
X+6223000Y-3429000D01*
X+6096000Y-3556000D02*
X+6096427Y-3545591D01*
X+6099899Y-3524772D01*
X+6107155Y-3503953D01*
X+6118983Y-3483134D01*
X+6137080Y-3462476D01*
X+6157899Y-3446955D01*
X+6178718Y-3436970D01*
X+6199537Y-3431186D01*
X+6220356Y-3429028D01*
X+6223000Y-3429000D01*
X+6096000Y-3556000D02*
X+6096427Y-3566409D01*
X+6099899Y-3587228D01*
X+6107155Y-3608047D01*
X+6118983Y-3628866D01*
X+6137080Y-3649524D01*
X+6157899Y-3665045D01*
X+6178718Y-3675030D01*
X+6199537Y-3680814D01*
X+6220356Y-3682972D01*
X+6223000Y-3683000D01*
X+6350000Y-3556000D02*
X+6349573Y-3566409D01*
X+6346101Y-3587228D01*
X+6338845Y-3608047D01*
X+6327017Y-3628866D01*
X+6308920Y-3649524D01*
X+6288101Y-3665045D01*
X+6267282Y-3675030D01*
X+6246463Y-3680814D01*
X+6225644Y-3682972D01*
X+6223000Y-3683000D01*
X+6286500Y-3556000D02*
X+6286283Y-3550753D01*
X+6284518Y-3540258D01*
X+6280826Y-3529763D01*
X+6274798Y-3519268D01*
X+6265576Y-3508888D01*
X+6255081Y-3501200D01*
X+6244586Y-3496282D01*
X+6234091Y-3493476D01*
X+6223596Y-3492503D01*
X+6223000Y-3492500D01*
X+6159500Y-3556000D02*
X+6159717Y-3550753D01*
X+6161482Y-3540258D01*
X+6165174Y-3529763D01*
X+6171202Y-3519268D01*
X+6180424Y-3508888D01*
X+6190919Y-3501200D01*
X+6201414Y-3496282D01*
X+6211909Y-3493476D01*
X+6222404Y-3492503D01*
X+6223000Y-3492500D01*
X+6159500Y-3556000D02*
X+6159717Y-3561247D01*
X+6161482Y-3571742D01*
X+6165174Y-3582237D01*
X+6171202Y-3592732D01*
X+6180424Y-3603112D01*
X+6190919Y-3610800D01*
X+6201414Y-3615718D01*
X+6211909Y-3618524D01*
X+6222404Y-3619497D01*
X+6223000Y-3619500D01*
X+6286500Y-3556000D02*
X+6286283Y-3561247D01*
X+6284518Y-3571742D01*
X+6280826Y-3582237D01*
X+6274798Y-3592732D01*
X+6265576Y-3603112D01*
X+6255081Y-3610800D01*
X+6244586Y-3615718D01*
X+6234091Y-3618524D01*
X+6223596Y-3619497D01*
X+6223000Y-3619500D01*
X+5540375Y-3487420D02*
X+5603875Y-3487420D01*
X+5572125Y-3487420D02*
X+5572125Y-3578860D01*
X+5540375Y-3578860D02*
X+5603875Y-3578860D01*
X+5651500Y-3578860D02*
X+5651500Y-3487420D01*
X+5746750Y-3487420D01*
X+5651500Y-3533140D02*
X+5715000Y-3533140D01*
X+5778500Y-3578860D02*
X+5778500Y-3487420D01*
X+5857875Y-3487420D01*
X+5873750Y-3502660D01*
X+5873750Y-3517900D01*
X+5857875Y-3533140D01*
X+5873750Y-3548380D01*
X+5873750Y-3563620D01*
X+5857875Y-3578860D01*
X+5778500Y-3578860D01*
X+5778500Y-3533140D02*
X+5857875Y-3533140D01*
X+6000750Y-3487420D02*
X+5921375Y-3487420D01*
X+5921375Y-3517900D01*
X+5984875Y-3517900D01*
X+6000750Y-3533140D01*
X+6000750Y-3563620D01*
X+5984875Y-3578860D01*
X+5937250Y-3578860D01*
X+5921375Y-3563620D01*
X+4064000Y-3048000D02*
X+4063573Y-3037591D01*
X+4060101Y-3016772D01*
X+4052845Y-2995953D01*
X+4041017Y-2975134D01*
X+4022920Y-2954476D01*
X+4002101Y-2938955D01*
X+3981282Y-2928970D01*
X+3960463Y-2923186D01*
X+3939644Y-2921028D01*
X+3937000Y-2921000D01*
X+3810000Y-3048000D02*
X+3810427Y-3037591D01*
X+3813899Y-3016772D01*
X+3821155Y-2995953D01*
X+3832983Y-2975134D01*
X+3851080Y-2954476D01*
X+3871899Y-2938955D01*
X+3892718Y-2928970D01*
X+3913537Y-2923186D01*
X+3934356Y-2921028D01*
X+3937000Y-2921000D01*
X+3810000Y-3048000D02*
X+3810427Y-3058409D01*
X+3813899Y-3079228D01*
X+3821155Y-3100047D01*
X+3832983Y-3120866D01*
X+3851080Y-3141524D01*
X+3871899Y-3157045D01*
X+3892718Y-3167030D01*
X+3913537Y-3172814D01*
X+3934356Y-3174972D01*
X+3937000Y-3175000D01*
X+4064000Y-3048000D02*
X+4063573Y-3058409D01*
X+4060101Y-3079228D01*
X+4052845Y-3100047D01*
X+4041017Y-3120866D01*
X+4022920Y-3141524D01*
X+4002101Y-3157045D01*
X+3981282Y-3167030D01*
X+3960463Y-3172814D01*
X+3939644Y-3174972D01*
X+3937000Y-3175000D01*
X+4000500Y-3048000D02*
X+4000283Y-3042753D01*
X+3998518Y-3032258D01*
X+3994826Y-3021763D01*
X+3988798Y-3011268D01*
X+3979576Y-3000888D01*
X+3969081Y-2993200D01*
X+3958586Y-2988282D01*
X+3948091Y-2985476D01*
X+3937596Y-2984503D01*
X+3937000Y-2984500D01*
X+3873500Y-3048000D02*
X+3873717Y-3042753D01*
X+3875482Y-3032258D01*
X+3879174Y-3021763D01*
X+3885202Y-3011268D01*
X+3894424Y-3000888D01*
X+3904919Y-2993200D01*
X+3915414Y-2988282D01*
X+3925909Y-2985476D01*
X+3936404Y-2984503D01*
X+3937000Y-2984500D01*
X+3873500Y-3048000D02*
X+3873717Y-3053247D01*
X+3875482Y-3063742D01*
X+3879174Y-3074237D01*
X+3885202Y-3084732D01*
X+3894424Y-3095112D01*
X+3904919Y-3102800D01*
X+3915414Y-3107718D01*
X+3925909Y-3110524D01*
X+3936404Y-3111497D01*
X+3937000Y-3111500D01*
X+4000500Y-3048000D02*
X+4000283Y-3053247D01*
X+3998518Y-3063742D01*
X+3994826Y-3074237D01*
X+3988798Y-3084732D01*
X+3979576Y-3095112D01*
X+3969081Y-3102800D01*
X+3958586Y-3107718D01*
X+3948091Y-3110524D01*
X+3937596Y-3111497D01*
X+3937000Y-3111500D01*
X+3254375Y-2915920D02*
X+3317875Y-2915920D01*
X+3286125Y-2915920D02*
X+3286125Y-3007360D01*
X+3254375Y-3007360D02*
X+3317875Y-3007360D01*
X+3365500Y-3007360D02*
X+3365500Y-2915920D01*
X+3460750Y-3007360D01*
X+3460750Y-2915920D01*
X+3492500Y-3007360D02*
X+3492500Y-2915920D01*
X+3587750Y-2915920D02*
X+3587750Y-3007360D01*
X+3492500Y-2961640D02*
X+3587750Y-2961640D01*
X+3714750Y-2976880D02*
X+3619500Y-2976880D01*
X+3683000Y-2915920D01*
X+3683000Y-3007360D01*
X+6350000Y-3048000D02*
X+6349573Y-3037591D01*
X+6346101Y-3016772D01*
X+6338845Y-2995953D01*
X+6327017Y-2975134D01*
X+6308920Y-2954476D01*
X+6288101Y-2938955D01*
X+6267282Y-2928970D01*
X+6246463Y-2923186D01*
X+6225644Y-2921028D01*
X+6223000Y-2921000D01*
X+6096000Y-3048000D02*
X+6096427Y-3037591D01*
X+6099899Y-3016772D01*
X+6107155Y-2995953D01*
X+6118983Y-2975134D01*
X+6137080Y-2954476D01*
X+6157899Y-2938955D01*
X+6178718Y-2928970D01*
X+6199537Y-2923186D01*
X+6220356Y-2921028D01*
X+6223000Y-2921000D01*
X+6096000Y-3048000D02*
X+6096427Y-3058409D01*
X+6099899Y-3079228D01*
X+6107155Y-3100047D01*
X+6118983Y-3120866D01*
X+6137080Y-3141524D01*
X+6157899Y-3157045D01*
X+6178718Y-3167030D01*
X+6199537Y-3172814D01*
X+6220356Y-3174972D01*
X+6223000Y-3175000D01*
X+6350000Y-3048000D02*
X+6349573Y-3058409D01*
X+6346101Y-3079228D01*
X+6338845Y-3100047D01*
X+6327017Y-3120866D01*
X+6308920Y-3141524D01*
X+6288101Y-3157045D01*
X+6267282Y-3167030D01*
X+6246463Y-3172814D01*
X+6225644Y-3174972D01*
X+6223000Y-3175000D01*
X+6286500Y-3048000D02*
X+6286283Y-3042753D01*
X+6284518Y-3032258D01*
X+6280826Y-3021763D01*
X+6274798Y-3011268D01*
X+6265576Y-3000888D01*
X+6255081Y-2993200D01*
X+6244586Y-2988282D01*
X+6234091Y-2985476D01*
X+6223596Y-2984503D01*
X+6223000Y-2984500D01*
X+6159500Y-3048000D02*
X+6159717Y-3042753D01*
X+6161482Y-3032258D01*
X+6165174Y-3021763D01*
X+6171202Y-3011268D01*
X+6180424Y-3000888D01*
X+6190919Y-2993200D01*
X+6201414Y-2988282D01*
X+6211909Y-2985476D01*
X+6222404Y-2984503D01*
X+6223000Y-2984500D01*
X+6159500Y-3048000D02*
X+6159717Y-3053247D01*
X+6161482Y-3063742D01*
X+6165174Y-3074237D01*
X+6171202Y-3084732D01*
X+6180424Y-3095112D01*
X+6190919Y-3102800D01*
X+6201414Y-3107718D01*
X+6211909Y-3110524D01*
X+6222404Y-3111497D01*
X+6223000Y-3111500D01*
X+6286500Y-3048000D02*
X+6286283Y-3053247D01*
X+6284518Y-3063742D01*
X+6280826Y-3074237D01*
X+6274798Y-3084732D01*
X+6265576Y-3095112D01*
X+6255081Y-3102800D01*
X+6244586Y-3107718D01*
X+6234091Y-3110524D01*
X+6223596Y-3111497D01*
X+6223000Y-3111500D01*
X+5540375Y-2979420D02*
X+5603875Y-2979420D01*
X+5572125Y-2979420D02*
X+5572125Y-3070860D01*
X+5540375Y-3070860D02*
X+5603875Y-3070860D01*
X+5651500Y-3070860D02*
X+5651500Y-2979420D01*
X+5746750Y-3070860D01*
X+5746750Y-2979420D01*
X+5778500Y-3070860D02*
X+5778500Y-2979420D01*
X+5873750Y-2979420D02*
X+5873750Y-3070860D01*
X+5778500Y-3025140D02*
X+5873750Y-3025140D01*
X+6000750Y-2979420D02*
X+5921375Y-2979420D01*
X+5921375Y-3009900D01*
X+5984875Y-3009900D01*
X+6000750Y-3025140D01*
X+6000750Y-3055620D01*
X+5984875Y-3070860D01*
X+5937250Y-3070860D01*
X+5921375Y-3055620D01*
D38*
X+4980000Y+455500D02*
X+4580000Y+455500D01*
X+4980000Y-74500D02*
X+4580000Y-74500D01*
D39*
X+4064000Y-3302000D02*
X+4063573Y-3291591D01*
X+4060101Y-3270772D01*
X+4052845Y-3249953D01*
X+4041017Y-3229134D01*
X+4022920Y-3208476D01*
X+4002101Y-3192955D01*
X+3981282Y-3182970D01*
X+3960463Y-3177186D01*
X+3939644Y-3175028D01*
X+3937000Y-3175000D01*
X+3810000Y-3302000D02*
X+3810427Y-3291591D01*
X+3813899Y-3270772D01*
X+3821155Y-3249953D01*
X+3832983Y-3229134D01*
X+3851080Y-3208476D01*
X+3871899Y-3192955D01*
X+3892718Y-3182970D01*
X+3913537Y-3177186D01*
X+3934356Y-3175028D01*
X+3937000Y-3175000D01*
X+3810000Y-3302000D02*
X+3810427Y-3312409D01*
X+3813899Y-3333228D01*
X+3821155Y-3354047D01*
X+3832983Y-3374866D01*
X+3851080Y-3395524D01*
X+3871899Y-3411045D01*
X+3892718Y-3421030D01*
X+3913537Y-3426814D01*
X+3934356Y-3428972D01*
X+3937000Y-3429000D01*
X+4064000Y-3302000D02*
X+4063573Y-3312409D01*
X+4060101Y-3333228D01*
X+4052845Y-3354047D01*
X+4041017Y-3374866D01*
X+4022920Y-3395524D01*
X+4002101Y-3411045D01*
X+3981282Y-3421030D01*
X+3960463Y-3426814D01*
X+3939644Y-3428972D01*
X+3937000Y-3429000D01*
X+4000500Y-3302000D02*
X+4000283Y-3296753D01*
X+3998518Y-3286258D01*
X+3994826Y-3275763D01*
X+3988798Y-3265268D01*
X+3979576Y-3254888D01*
X+3969081Y-3247200D01*
X+3958586Y-3242282D01*
X+3948091Y-3239476D01*
X+3937596Y-3238503D01*
X+3937000Y-3238500D01*
X+3873500Y-3302000D02*
X+3873717Y-3296753D01*
X+3875482Y-3286258D01*
X+3879174Y-3275763D01*
X+3885202Y-3265268D01*
X+3894424Y-3254888D01*
X+3904919Y-3247200D01*
X+3915414Y-3242282D01*
X+3925909Y-3239476D01*
X+3936404Y-3238503D01*
X+3937000Y-3238500D01*
X+3873500Y-3302000D02*
X+3873717Y-3307247D01*
X+3875482Y-3317742D01*
X+3879174Y-3328237D01*
X+3885202Y-3338732D01*
X+3894424Y-3349112D01*
X+3904919Y-3356800D01*
X+3915414Y-3361718D01*
X+3925909Y-3364524D01*
X+3936404Y-3365497D01*
X+3937000Y-3365500D01*
X+4000500Y-3302000D02*
X+4000283Y-3307247D01*
X+3998518Y-3317742D01*
X+3994826Y-3328237D01*
X+3988798Y-3338732D01*
X+3979576Y-3349112D01*
X+3969081Y-3356800D01*
X+3958586Y-3361718D01*
X+3948091Y-3364524D01*
X+3937596Y-3365497D01*
X+3937000Y-3365500D01*
X+3238500Y-3307080D02*
X+3238500Y-3215640D01*
X+3317875Y-3215640D01*
X+3333750Y-3230880D01*
X+3333750Y-3246120D01*
X+3317875Y-3261360D01*
X+3238500Y-3261360D01*
X+3365500Y-3215640D02*
X+3365500Y-3307080D01*
X+3413125Y-3261360D01*
X+3460750Y-3307080D01*
X+3460750Y-3215640D01*
X+3492500Y-3307080D02*
X+3492500Y-3215640D01*
X+3540125Y-3261360D01*
X+3587750Y-3215640D01*
X+3587750Y-3307080D01*
X+3714750Y-3276600D02*
X+3619500Y-3276600D01*
X+3683000Y-3215640D01*
X+3683000Y-3307080D01*
X+6350000Y-3302000D02*
X+6349573Y-3291591D01*
X+6346101Y-3270772D01*
X+6338845Y-3249953D01*
X+6327017Y-3229134D01*
X+6308920Y-3208476D01*
X+6288101Y-3192955D01*
X+6267282Y-3182970D01*
X+6246463Y-3177186D01*
X+6225644Y-3175028D01*
X+6223000Y-3175000D01*
X+6096000Y-3302000D02*
X+6096427Y-3291591D01*
X+6099899Y-3270772D01*
X+6107155Y-3249953D01*
X+6118983Y-3229134D01*
X+6137080Y-3208476D01*
X+6157899Y-3192955D01*
X+6178718Y-3182970D01*
X+6199537Y-3177186D01*
X+6220356Y-3175028D01*
X+6223000Y-3175000D01*
X+6096000Y-3302000D02*
X+6096427Y-3312409D01*
X+6099899Y-3333228D01*
X+6107155Y-3354047D01*
X+6118983Y-3374866D01*
X+6137080Y-3395524D01*
X+6157899Y-3411045D01*
X+6178718Y-3421030D01*
X+6199537Y-3426814D01*
X+6220356Y-3428972D01*
X+6223000Y-3429000D01*
X+6350000Y-3302000D02*
X+6349573Y-3312409D01*
X+6346101Y-3333228D01*
X+6338845Y-3354047D01*
X+6327017Y-3374866D01*
X+6308920Y-3395524D01*
X+6288101Y-3411045D01*
X+6267282Y-3421030D01*
X+6246463Y-3426814D01*
X+6225644Y-3428972D01*
X+6223000Y-3429000D01*
X+6286500Y-3302000D02*
X+6286283Y-3296753D01*
X+6284518Y-3286258D01*
X+6280826Y-3275763D01*
X+6274798Y-3265268D01*
X+6265576Y-3254888D01*
X+6255081Y-3247200D01*
X+6244586Y-3242282D01*
X+6234091Y-3239476D01*
X+6223596Y-3238503D01*
X+6223000Y-3238500D01*
X+6159500Y-3302000D02*
X+6159717Y-3296753D01*
X+6161482Y-3286258D01*
X+6165174Y-3275763D01*
X+6171202Y-3265268D01*
X+6180424Y-3254888D01*
X+6190919Y-3247200D01*
X+6201414Y-3242282D01*
X+6211909Y-3239476D01*
X+6222404Y-3238503D01*
X+6223000Y-3238500D01*
X+6159500Y-3302000D02*
X+6159717Y-3307247D01*
X+6161482Y-3317742D01*
X+6165174Y-3328237D01*
X+6171202Y-3338732D01*
X+6180424Y-3349112D01*
X+6190919Y-3356800D01*
X+6201414Y-3361718D01*
X+6211909Y-3364524D01*
X+6222404Y-3365497D01*
X+6223000Y-3365500D01*
X+6286500Y-3302000D02*
X+6286283Y-3307247D01*
X+6284518Y-3317742D01*
X+6280826Y-3328237D01*
X+6274798Y-3338732D01*
X+6265576Y-3349112D01*
X+6255081Y-3356800D01*
X+6244586Y-3361718D01*
X+6234091Y-3364524D01*
X+6223596Y-3365497D01*
X+6223000Y-3365500D01*
X+5524500Y-3307080D02*
X+5524500Y-3215640D01*
X+5603875Y-3215640D01*
X+5619750Y-3230880D01*
X+5619750Y-3246120D01*
X+5603875Y-3261360D01*
X+5524500Y-3261360D01*
X+5651500Y-3215640D02*
X+5651500Y-3307080D01*
X+5699125Y-3261360D01*
X+5746750Y-3307080D01*
X+5746750Y-3215640D01*
X+5778500Y-3307080D02*
X+5778500Y-3215640D01*
X+5826125Y-3261360D01*
X+5873750Y-3215640D01*
X+5873750Y-3307080D01*
X+6000750Y-3215640D02*
X+5921375Y-3215640D01*
X+5921375Y-3246120D01*
X+5984875Y-3246120D01*
X+6000750Y-3261360D01*
X+6000750Y-3291840D01*
X+5984875Y-3307080D01*
X+5937250Y-3307080D01*
X+5921375Y-3291840D01*
X+3670300Y-1432560D02*
X+3581400Y-1432560D01*
X+3563620Y-1544320D02*
X+3492500Y-1544320D01*
X+3670300Y-1432560D02*
X+3670300Y-1524000D01*
X+3380740Y-1526540D02*
X+3380740Y-1432560D01*
X+3467100Y-1432560D01*
X+3619500Y+452120D02*
X+3619500Y+375920D01*
X+4254500Y+375920D01*
X+4254500Y+452120D01*
X+3898900Y+375920D02*
X+3898900Y+325120D01*
X+3975100Y+325120D01*
X+3975100Y+375920D01*
X+3670300Y+375920D02*
X+3670300Y+299720D01*
X+3733800Y+299720D01*
X+3733800Y+375920D01*
X+4203700Y+375920D02*
X+4203700Y+299720D01*
X+4140200Y+299720D01*
X+4140200Y+375920D02*
X+4140200Y+299720D01*
X+6019800Y-1432560D02*
X+5930900Y-1432560D01*
X+5913120Y-1544320D02*
X+5842000Y-1544320D01*
X+6019800Y-1432560D02*
X+6019800Y-1524000D01*
X+5730240Y-1526540D02*
X+5730240Y-1432560D01*
X+5816600Y-1432560D01*
X+5943600Y+444500D02*
X+5943600Y+368300D01*
X+6578600Y+368300D01*
X+6578600Y+444500D01*
X+6223000Y+368300D02*
X+6223000Y+317500D01*
X+6299200Y+317500D01*
X+6299200Y+368300D01*
X+5994400Y+368300D02*
X+5994400Y+292100D01*
X+6057900Y+292100D01*
X+6057900Y+368300D01*
X+6527800Y+368300D02*
X+6527800Y+292100D01*
X+6464300Y+292100D01*
X+6464300Y+368300D02*
X+6464300Y+292100D01*
X+5334000Y+1841500D02*
X+5333573Y+1851909D01*
X+5330101Y+1872728D01*
X+5322845Y+1893547D01*
X+5311017Y+1914366D01*
X+5292920Y+1935024D01*
X+5272101Y+1950545D01*
X+5251282Y+1960530D01*
X+5230463Y+1966314D01*
X+5209644Y+1968472D01*
X+5207000Y+1968500D01*
X+5080000Y+1841500D02*
X+5080427Y+1851909D01*
X+5083899Y+1872728D01*
X+5091155Y+1893547D01*
X+5102983Y+1914366D01*
X+5121080Y+1935024D01*
X+5141899Y+1950545D01*
X+5162718Y+1960530D01*
X+5183537Y+1966314D01*
X+5204356Y+1968472D01*
X+5207000Y+1968500D01*
X+5080000Y+1841500D02*
X+5080427Y+1831091D01*
X+5083899Y+1810272D01*
X+5091155Y+1789453D01*
X+5102983Y+1768634D01*
X+5121080Y+1747976D01*
X+5141899Y+1732455D01*
X+5162718Y+1722470D01*
X+5183537Y+1716686D01*
X+5204356Y+1714528D01*
X+5207000Y+1714500D01*
X+5334000Y+1841500D02*
X+5333573Y+1831091D01*
X+5330101Y+1810272D01*
X+5322845Y+1789453D01*
X+5311017Y+1768634D01*
X+5292920Y+1747976D01*
X+5272101Y+1732455D01*
X+5251282Y+1722470D01*
X+5230463Y+1716686D01*
X+5209644Y+1714528D01*
X+5207000Y+1714500D01*
X+5270500Y+1841500D02*
X+5270283Y+1846747D01*
X+5268518Y+1857242D01*
X+5264826Y+1867737D01*
X+5258798Y+1878232D01*
X+5249576Y+1888612D01*
X+5239081Y+1896300D01*
X+5228586Y+1901218D01*
X+5218091Y+1904024D01*
X+5207596Y+1904997D01*
X+5207000Y+1905000D01*
X+5143500Y+1841500D02*
X+5143717Y+1846747D01*
X+5145482Y+1857242D01*
X+5149174Y+1867737D01*
X+5155202Y+1878232D01*
X+5164424Y+1888612D01*
X+5174919Y+1896300D01*
X+5185414Y+1901218D01*
X+5195909Y+1904024D01*
X+5206404Y+1904997D01*
X+5207000Y+1905000D01*
X+5143500Y+1841500D02*
X+5143717Y+1836253D01*
X+5145482Y+1825758D01*
X+5149174Y+1815263D01*
X+5155202Y+1804768D01*
X+5164424Y+1794388D01*
X+5174919Y+1786700D01*
X+5185414Y+1781782D01*
X+5195909Y+1778976D01*
X+5206404Y+1778003D01*
X+5207000Y+1778000D01*
X+5270500Y+1841500D02*
X+5270283Y+1836253D01*
X+5268518Y+1825758D01*
X+5264826Y+1815263D01*
X+5258798Y+1804768D01*
X+5249576Y+1794388D01*
X+5239081Y+1786700D01*
X+5228586Y+1781782D01*
X+5218091Y+1778976D01*
X+5207596Y+1778003D01*
X+5207000Y+1778000D01*
X+5138420Y+2032000D02*
X+5184140Y+2032000D01*
X+5229860Y+2079625D01*
X+5184140Y+2127250D01*
X+5138420Y+2127250D01*
X+5199380Y+2254250D02*
X+5199380Y+2159000D01*
X+5138420Y+2222500D01*
X+5229860Y+2222500D01*
X+5229860Y+2286000D02*
X+5138420Y+2286000D01*
X+5138420Y+2381250D02*
X+5229860Y+2381250D01*
X+5184140Y+2286000D02*
X+5184140Y+2381250D01*
X+5214620Y+2413000D02*
X+5229860Y+2428875D01*
X+5229860Y+2492375D01*
X+5214620Y+2508250D01*
X+5199380Y+2508250D01*
X+5184140Y+2492375D01*
X+5184140Y+2428875D01*
X+5168900Y+2413000D01*
X+5153660Y+2413000D01*
X+5138420Y+2428875D01*
X+5138420Y+2492375D01*
X+5153660Y+2508250D01*
X+4889500Y+1841500D02*
X+4889073Y+1851909D01*
X+4885601Y+1872728D01*
X+4878345Y+1893547D01*
X+4866517Y+1914366D01*
X+4848420Y+1935024D01*
X+4827601Y+1950545D01*
X+4806782Y+1960530D01*
X+4785963Y+1966314D01*
X+4765144Y+1968472D01*
X+4762500Y+1968500D01*
X+4635500Y+1841500D02*
X+4635927Y+1851909D01*
X+4639399Y+1872728D01*
X+4646655Y+1893547D01*
X+4658483Y+1914366D01*
X+4676580Y+1935024D01*
X+4697399Y+1950545D01*
X+4718218Y+1960530D01*
X+4739037Y+1966314D01*
X+4759856Y+1968472D01*
X+4762500Y+1968500D01*
X+4635500Y+1841500D02*
X+4635927Y+1831091D01*
X+4639399Y+1810272D01*
X+4646655Y+1789453D01*
X+4658483Y+1768634D01*
X+4676580Y+1747976D01*
X+4697399Y+1732455D01*
X+4718218Y+1722470D01*
X+4739037Y+1716686D01*
X+4759856Y+1714528D01*
X+4762500Y+1714500D01*
X+4889500Y+1841500D02*
X+4889073Y+1831091D01*
X+4885601Y+1810272D01*
X+4878345Y+1789453D01*
X+4866517Y+1768634D01*
X+4848420Y+1747976D01*
X+4827601Y+1732455D01*
X+4806782Y+1722470D01*
X+4785963Y+1716686D01*
X+4765144Y+1714528D01*
X+4762500Y+1714500D01*
X+4826000Y+1841500D02*
X+4825783Y+1846747D01*
X+4824018Y+1857242D01*
X+4820326Y+1867737D01*
X+4814298Y+1878232D01*
X+4805076Y+1888612D01*
X+4794581Y+1896300D01*
X+4784086Y+1901218D01*
X+4773591Y+1904024D01*
X+4763096Y+1904997D01*
X+4762500Y+1905000D01*
X+4699000Y+1841500D02*
X+4699217Y+1846747D01*
X+4700982Y+1857242D01*
X+4704674Y+1867737D01*
X+4710702Y+1878232D01*
X+4719924Y+1888612D01*
X+4730419Y+1896300D01*
X+4740914Y+1901218D01*
X+4751409Y+1904024D01*
X+4761904Y+1904997D01*
X+4762500Y+1905000D01*
X+4699000Y+1841500D02*
X+4699217Y+1836253D01*
X+4700982Y+1825758D01*
X+4704674Y+1815263D01*
X+4710702Y+1804768D01*
X+4719924Y+1794388D01*
X+4730419Y+1786700D01*
X+4740914Y+1781782D01*
X+4751409Y+1778976D01*
X+4761904Y+1778003D01*
X+4762500Y+1778000D01*
X+4826000Y+1841500D02*
X+4825783Y+1836253D01*
X+4824018Y+1825758D01*
X+4820326Y+1815263D01*
X+4814298Y+1804768D01*
X+4805076Y+1794388D01*
X+4794581Y+1786700D01*
X+4784086Y+1781782D01*
X+4773591Y+1778976D01*
X+4763096Y+1778003D01*
X+4762500Y+1778000D01*
X+4693920Y+2032000D02*
X+4739640Y+2032000D01*
X+4785360Y+2079625D01*
X+4739640Y+2127250D01*
X+4693920Y+2127250D01*
X+4754880Y+2254250D02*
X+4754880Y+2159000D01*
X+4693920Y+2222500D01*
X+4785360Y+2222500D01*
X+4693920Y+2286000D02*
X+4785360Y+2286000D01*
X+4785360Y+2381250D01*
X+4770120Y+2413000D02*
X+4785360Y+2428875D01*
X+4785360Y+2492375D01*
X+4770120Y+2508250D01*
X+4754880Y+2508250D01*
X+4739640Y+2492375D01*
X+4739640Y+2428875D01*
X+4724400Y+2413000D01*
X+4709160Y+2413000D01*
X+4693920Y+2428875D01*
X+4693920Y+2492375D01*
X+4709160Y+2508250D01*
X+7747000Y+1841500D02*
X+7746573Y+1851909D01*
X+7743101Y+1872728D01*
X+7735845Y+1893547D01*
X+7724017Y+1914366D01*
X+7705920Y+1935024D01*
X+7685101Y+1950545D01*
X+7664282Y+1960530D01*
X+7643463Y+1966314D01*
X+7622644Y+1968472D01*
X+7620000Y+1968500D01*
X+7493000Y+1841500D02*
X+7493427Y+1851909D01*
X+7496899Y+1872728D01*
X+7504155Y+1893547D01*
X+7515983Y+1914366D01*
X+7534080Y+1935024D01*
X+7554899Y+1950545D01*
X+7575718Y+1960530D01*
X+7596537Y+1966314D01*
X+7617356Y+1968472D01*
X+7620000Y+1968500D01*
X+7493000Y+1841500D02*
X+7493427Y+1831091D01*
X+7496899Y+1810272D01*
X+7504155Y+1789453D01*
X+7515983Y+1768634D01*
X+7534080Y+1747976D01*
X+7554899Y+1732455D01*
X+7575718Y+1722470D01*
X+7596537Y+1716686D01*
X+7617356Y+1714528D01*
X+7620000Y+1714500D01*
X+7747000Y+1841500D02*
X+7746573Y+1831091D01*
X+7743101Y+1810272D01*
X+7735845Y+1789453D01*
X+7724017Y+1768634D01*
X+7705920Y+1747976D01*
X+7685101Y+1732455D01*
X+7664282Y+1722470D01*
X+7643463Y+1716686D01*
X+7622644Y+1714528D01*
X+7620000Y+1714500D01*
X+7683500Y+1841500D02*
X+7683283Y+1846747D01*
X+7681518Y+1857242D01*
X+7677826Y+1867737D01*
X+7671798Y+1878232D01*
X+7662576Y+1888612D01*
X+7652081Y+1896300D01*
X+7641586Y+1901218D01*
X+7631091Y+1904024D01*
X+7620596Y+1904997D01*
X+7620000Y+1905000D01*
X+7556500Y+1841500D02*
X+7556717Y+1846747D01*
X+7558482Y+1857242D01*
X+7562174Y+1867737D01*
X+7568202Y+1878232D01*
X+7577424Y+1888612D01*
X+7587919Y+1896300D01*
X+7598414Y+1901218D01*
X+7608909Y+1904024D01*
X+7619404Y+1904997D01*
X+7620000Y+1905000D01*
X+7556500Y+1841500D02*
X+7556717Y+1836253D01*
X+7558482Y+1825758D01*
X+7562174Y+1815263D01*
X+7568202Y+1804768D01*
X+7577424Y+1794388D01*
X+7587919Y+1786700D01*
X+7598414Y+1781782D01*
X+7608909Y+1778976D01*
X+7619404Y+1778003D01*
X+7620000Y+1778000D01*
X+7683500Y+1841500D02*
X+7683283Y+1836253D01*
X+7681518Y+1825758D01*
X+7677826Y+1815263D01*
X+7671798Y+1804768D01*
X+7662576Y+1794388D01*
X+7652081Y+1786700D01*
X+7641586Y+1781782D01*
X+7631091Y+1778976D01*
X+7620596Y+1778003D01*
X+7620000Y+1778000D01*
X+7551420Y+2032000D02*
X+7597140Y+2032000D01*
X+7642860Y+2079625D01*
X+7597140Y+2127250D01*
X+7551420Y+2127250D01*
X+7551420Y+2254250D02*
X+7551420Y+2174875D01*
X+7581900Y+2174875D01*
X+7581900Y+2238375D01*
X+7597140Y+2254250D01*
X+7627620Y+2254250D01*
X+7642860Y+2238375D01*
X+7642860Y+2190750D01*
X+7627620Y+2174875D01*
X+7642860Y+2286000D02*
X+7551420Y+2286000D01*
X+7551420Y+2381250D02*
X+7642860Y+2381250D01*
X+7597140Y+2286000D02*
X+7597140Y+2381250D01*
X+7627620Y+2413000D02*
X+7642860Y+2428875D01*
X+7642860Y+2492375D01*
X+7627620Y+2508250D01*
X+7612380Y+2508250D01*
X+7597140Y+2492375D01*
X+7597140Y+2428875D01*
X+7581900Y+2413000D01*
X+7566660Y+2413000D01*
X+7551420Y+2428875D01*
X+7551420Y+2492375D01*
X+7566660Y+2508250D01*
X+7239000Y+1841500D02*
X+7238573Y+1851909D01*
X+7235101Y+1872728D01*
X+7227845Y+1893547D01*
X+7216017Y+1914366D01*
X+7197920Y+1935024D01*
X+7177101Y+1950545D01*
X+7156282Y+1960530D01*
X+7135463Y+1966314D01*
X+7114644Y+1968472D01*
X+7112000Y+1968500D01*
X+6985000Y+1841500D02*
X+6985427Y+1851909D01*
X+6988899Y+1872728D01*
X+6996155Y+1893547D01*
X+7007983Y+1914366D01*
X+7026080Y+1935024D01*
X+7046899Y+1950545D01*
X+7067718Y+1960530D01*
X+7088537Y+1966314D01*
X+7109356Y+1968472D01*
X+7112000Y+1968500D01*
X+6985000Y+1841500D02*
X+6985427Y+1831091D01*
X+6988899Y+1810272D01*
X+6996155Y+1789453D01*
X+7007983Y+1768634D01*
X+7026080Y+1747976D01*
X+7046899Y+1732455D01*
X+7067718Y+1722470D01*
X+7088537Y+1716686D01*
X+7109356Y+1714528D01*
X+7112000Y+1714500D01*
X+7239000Y+1841500D02*
X+7238573Y+1831091D01*
X+7235101Y+1810272D01*
X+7227845Y+1789453D01*
X+7216017Y+1768634D01*
X+7197920Y+1747976D01*
X+7177101Y+1732455D01*
X+7156282Y+1722470D01*
X+7135463Y+1716686D01*
X+7114644Y+1714528D01*
X+7112000Y+1714500D01*
X+7175500Y+1841500D02*
X+7175283Y+1846747D01*
X+7173518Y+1857242D01*
X+7169826Y+1867737D01*
X+7163798Y+1878232D01*
X+7154576Y+1888612D01*
X+7144081Y+1896300D01*
X+7133586Y+1901218D01*
X+7123091Y+1904024D01*
X+7112596Y+1904997D01*
X+7112000Y+1905000D01*
X+7048500Y+1841500D02*
X+7048717Y+1846747D01*
X+7050482Y+1857242D01*
X+7054174Y+1867737D01*
X+7060202Y+1878232D01*
X+7069424Y+1888612D01*
X+7079919Y+1896300D01*
X+7090414Y+1901218D01*
X+7100909Y+1904024D01*
X+7111404Y+1904997D01*
X+7112000Y+1905000D01*
X+7048500Y+1841500D02*
X+7048717Y+1836253D01*
X+7050482Y+1825758D01*
X+7054174Y+1815263D01*
X+7060202Y+1804768D01*
X+7069424Y+1794388D01*
X+7079919Y+1786700D01*
X+7090414Y+1781782D01*
X+7100909Y+1778976D01*
X+7111404Y+1778003D01*
X+7112000Y+1778000D01*
X+7175500Y+1841500D02*
X+7175283Y+1836253D01*
X+7173518Y+1825758D01*
X+7169826Y+1815263D01*
X+7163798Y+1804768D01*
X+7154576Y+1794388D01*
X+7144081Y+1786700D01*
X+7133586Y+1781782D01*
X+7123091Y+1778976D01*
X+7112596Y+1778003D01*
X+7112000Y+1778000D01*
X+7043420Y+2032000D02*
X+7089140Y+2032000D01*
X+7134860Y+2079625D01*
X+7089140Y+2127250D01*
X+7043420Y+2127250D01*
X+7043420Y+2254250D02*
X+7043420Y+2174875D01*
X+7073900Y+2174875D01*
X+7073900Y+2238375D01*
X+7089140Y+2254250D01*
X+7119620Y+2254250D01*
X+7134860Y+2238375D01*
X+7134860Y+2190750D01*
X+7119620Y+2174875D01*
X+7043420Y+2286000D02*
X+7134860Y+2286000D01*
X+7134860Y+2381250D01*
X+7119620Y+2413000D02*
X+7134860Y+2428875D01*
X+7134860Y+2492375D01*
X+7119620Y+2508250D01*
X+7104380Y+2508250D01*
X+7089140Y+2492375D01*
X+7089140Y+2428875D01*
X+7073900Y+2413000D01*
X+7058660Y+2413000D01*
X+7043420Y+2428875D01*
X+7043420Y+2492375D01*
X+7058660Y+2508250D01*
D38*
X+5227500Y+510000D02*
X+5227500Y+100000D01*
X+5567500Y+510000D02*
X+5567500Y+100000D01*
X+7640500Y+535000D02*
X+7640500Y+125000D01*
X+7980500Y+535000D02*
X+7980500Y+125000D01*
D39*
X+4965700Y-982980D02*
X+5046662Y-982980D01*
X+5048744Y-993601D01*
X+5054464Y-1002167D01*
X+5063029Y-1007886D01*
X+5073650Y-1009968D01*
X+5100638Y-982980D02*
X+5098556Y-993601D01*
X+5092836Y-1002167D01*
X+5084271Y-1007886D01*
X+5073650Y-1009968D01*
X+5100638Y-982980D02*
X+5181600Y-982980D01*
X+5041900Y-1430020D02*
X+5105400Y-1430020D01*
X+4965700Y-1016000D02*
X+4965700Y-1397000D01*
X+5181600Y-1016000D02*
X+5181600Y-1397000D01*
X+4965700Y-1016000D02*
X+4965700Y-982980D01*
X+5181600Y-982980D02*
X+5181600Y-1016000D01*
X+5105400Y-1430020D02*
X+5181600Y-1430020D01*
X+5181600Y-1397000D01*
X+4965700Y-1397000D02*
X+4965700Y-1430020D01*
X+5041900Y-1430020D01*
X+5011420Y-1032256D02*
X+5011385Y-1031411D01*
X+5011098Y-1029720D01*
X+5010499Y-1028029D01*
X+5009519Y-1026338D01*
X+5008019Y-1024670D01*
X+5006328Y-1023450D01*
X+5004637Y-1022674D01*
X+5002946Y-1022237D01*
X+5001260Y-1022096D01*
X+4991100Y-1032256D02*
X+4991135Y-1031411D01*
X+4991422Y-1029720D01*
X+4992021Y-1028029D01*
X+4993001Y-1026338D01*
X+4994501Y-1024670D01*
X+4996192Y-1023450D01*
X+4997883Y-1022674D01*
X+4999574Y-1022237D01*
X+5001260Y-1022096D01*
X+4991100Y-1032256D02*
X+4991135Y-1033101D01*
X+4991422Y-1034792D01*
X+4992021Y-1036483D01*
X+4993001Y-1038174D01*
X+4994501Y-1039842D01*
X+4996192Y-1041062D01*
X+4997883Y-1041838D01*
X+4999574Y-1042275D01*
X+5001260Y-1042416D01*
X+5011420Y-1032256D02*
X+5011385Y-1033101D01*
X+5011098Y-1034792D01*
X+5010499Y-1036483D01*
X+5009519Y-1038174D01*
X+5008019Y-1039842D01*
X+5006328Y-1041062D01*
X+5004637Y-1041838D01*
X+5002946Y-1042275D01*
X+5001260Y-1042416D01*
X+3840480Y-1955800D02*
X+3840480Y-1874838D01*
X+3851101Y-1872756D01*
X+3859667Y-1867036D01*
X+3865386Y-1858471D01*
X+3867468Y-1847850D01*
X+3840480Y-1820862D02*
X+3851101Y-1822944D01*
X+3859667Y-1828664D01*
X+3865386Y-1837229D01*
X+3867468Y-1847850D01*
X+3840480Y-1820862D02*
X+3840480Y-1739900D01*
X+4287520Y-1879600D02*
X+4287520Y-1816100D01*
X+3873500Y-1955800D02*
X+4254500Y-1955800D01*
X+3873500Y-1739900D02*
X+4254500Y-1739900D01*
X+3873500Y-1955800D02*
X+3840480Y-1955800D01*
X+3840480Y-1739900D02*
X+3873500Y-1739900D01*
X+4287520Y-1816100D02*
X+4287520Y-1739900D01*
X+4254500Y-1739900D01*
X+4254500Y-1955800D02*
X+4287520Y-1955800D01*
X+4287520Y-1879600D01*
X+3899916Y-1920240D02*
X+3899881Y-1919395D01*
X+3899594Y-1917704D01*
X+3898995Y-1916013D01*
X+3898015Y-1914322D01*
X+3896515Y-1912654D01*
X+3894824Y-1911434D01*
X+3893133Y-1910658D01*
X+3891442Y-1910221D01*
X+3889756Y-1910080D01*
X+3879596Y-1920240D02*
X+3879631Y-1919395D01*
X+3879918Y-1917704D01*
X+3880517Y-1916013D01*
X+3881497Y-1914322D01*
X+3882997Y-1912654D01*
X+3884688Y-1911434D01*
X+3886379Y-1910658D01*
X+3888070Y-1910221D01*
X+3889756Y-1910080D01*
X+3879596Y-1920240D02*
X+3879631Y-1921085D01*
X+3879918Y-1922776D01*
X+3880517Y-1924467D01*
X+3881497Y-1926158D01*
X+3882997Y-1927826D01*
X+3884688Y-1929046D01*
X+3886379Y-1929822D01*
X+3888070Y-1930259D01*
X+3889756Y-1930400D01*
X+3899916Y-1920240D02*
X+3899881Y-1921085D01*
X+3899594Y-1922776D01*
X+3898995Y-1924467D01*
X+3898015Y-1926158D01*
X+3896515Y-1927826D01*
X+3894824Y-1929046D01*
X+3893133Y-1929822D01*
X+3891442Y-1930259D01*
X+3889756Y-1930400D01*
X+7378700Y-982980D02*
X+7459662Y-982980D01*
X+7461744Y-993601D01*
X+7467464Y-1002167D01*
X+7476029Y-1007886D01*
X+7486650Y-1009968D01*
X+7513638Y-982980D02*
X+7511556Y-993601D01*
X+7505836Y-1002167D01*
X+7497271Y-1007886D01*
X+7486650Y-1009968D01*
X+7513638Y-982980D02*
X+7594600Y-982980D01*
X+7454900Y-1430020D02*
X+7518400Y-1430020D01*
X+7378700Y-1016000D02*
X+7378700Y-1397000D01*
X+7594600Y-1016000D02*
X+7594600Y-1397000D01*
X+7378700Y-1016000D02*
X+7378700Y-982980D01*
X+7594600Y-982980D02*
X+7594600Y-1016000D01*
X+7518400Y-1430020D02*
X+7594600Y-1430020D01*
X+7594600Y-1397000D01*
X+7378700Y-1397000D02*
X+7378700Y-1430020D01*
X+7454900Y-1430020D01*
X+7424420Y-1032256D02*
X+7424385Y-1031411D01*
X+7424098Y-1029720D01*
X+7423499Y-1028029D01*
X+7422519Y-1026338D01*
X+7421019Y-1024670D01*
X+7419328Y-1023450D01*
X+7417637Y-1022674D01*
X+7415946Y-1022237D01*
X+7414260Y-1022096D01*
X+7404100Y-1032256D02*
X+7404135Y-1031411D01*
X+7404422Y-1029720D01*
X+7405021Y-1028029D01*
X+7406001Y-1026338D01*
X+7407501Y-1024670D01*
X+7409192Y-1023450D01*
X+7410883Y-1022674D01*
X+7412574Y-1022237D01*
X+7414260Y-1022096D01*
X+7404100Y-1032256D02*
X+7404135Y-1033101D01*
X+7404422Y-1034792D01*
X+7405021Y-1036483D01*
X+7406001Y-1038174D01*
X+7407501Y-1039842D01*
X+7409192Y-1041062D01*
X+7410883Y-1041838D01*
X+7412574Y-1042275D01*
X+7414260Y-1042416D01*
X+7424420Y-1032256D02*
X+7424385Y-1033101D01*
X+7424098Y-1034792D01*
X+7423499Y-1036483D01*
X+7422519Y-1038174D01*
X+7421019Y-1039842D01*
X+7419328Y-1041062D01*
X+7417637Y-1041838D01*
X+7415946Y-1042275D01*
X+7414260Y-1042416D01*
X+6189980Y-1955800D02*
X+6189980Y-1874838D01*
X+6200601Y-1872756D01*
X+6209167Y-1867036D01*
X+6214886Y-1858471D01*
X+6216968Y-1847850D01*
X+6189980Y-1820862D02*
X+6200601Y-1822944D01*
X+6209167Y-1828664D01*
X+6214886Y-1837229D01*
X+6216968Y-1847850D01*
X+6189980Y-1820862D02*
X+6189980Y-1739900D01*
X+6637020Y-1879600D02*
X+6637020Y-1816100D01*
X+6223000Y-1955800D02*
X+6604000Y-1955800D01*
X+6223000Y-1739900D02*
X+6604000Y-1739900D01*
X+6223000Y-1955800D02*
X+6189980Y-1955800D01*
X+6189980Y-1739900D02*
X+6223000Y-1739900D01*
X+6637020Y-1816100D02*
X+6637020Y-1739900D01*
X+6604000Y-1739900D01*
X+6604000Y-1955800D02*
X+6637020Y-1955800D01*
X+6637020Y-1879600D01*
X+6249416Y-1920240D02*
X+6249381Y-1919395D01*
X+6249094Y-1917704D01*
X+6248495Y-1916013D01*
X+6247515Y-1914322D01*
X+6246015Y-1912654D01*
X+6244324Y-1911434D01*
X+6242633Y-1910658D01*
X+6240942Y-1910221D01*
X+6239256Y-1910080D01*
X+6229096Y-1920240D02*
X+6229131Y-1919395D01*
X+6229418Y-1917704D01*
X+6230017Y-1916013D01*
X+6230997Y-1914322D01*
X+6232497Y-1912654D01*
X+6234188Y-1911434D01*
X+6235879Y-1910658D01*
X+6237570Y-1910221D01*
X+6239256Y-1910080D01*
X+6229096Y-1920240D02*
X+6229131Y-1921085D01*
X+6229418Y-1922776D01*
X+6230017Y-1924467D01*
X+6230997Y-1926158D01*
X+6232497Y-1927826D01*
X+6234188Y-1929046D01*
X+6235879Y-1929822D01*
X+6237570Y-1930259D01*
X+6239256Y-1930400D01*
X+6249416Y-1920240D02*
X+6249381Y-1921085D01*
X+6249094Y-1922776D01*
X+6248495Y-1924467D01*
X+6247515Y-1926158D01*
X+6246015Y-1927826D01*
X+6244324Y-1929046D01*
X+6242633Y-1929822D01*
X+6240942Y-1930259D01*
X+6239256Y-1930400D01*
D38*
X+3968500Y-2503000D02*
X+4078500Y-2503000D01*
X+3968500Y-2323000D02*
X+4078500Y-2323000D01*
X+3968500Y-852000D02*
X+4078500Y-852000D01*
X+3968500Y-672000D02*
X+4078500Y-672000D01*
D40*
X+3781000Y-973000D02*
X+3780957Y-971961D01*
X+3780605Y-969882D01*
X+3779868Y-967803D01*
X+3778664Y-965724D01*
X+3776823Y-963674D01*
X+3774744Y-962171D01*
X+3772665Y-961214D01*
X+3770586Y-960675D01*
X+3768507Y-960500D01*
X+3768500Y-960500D01*
X+3756000Y-973000D02*
X+3756043Y-971961D01*
X+3756395Y-969882D01*
X+3757132Y-967803D01*
X+3758336Y-965724D01*
X+3760177Y-963674D01*
X+3762256Y-962171D01*
X+3764335Y-961214D01*
X+3766414Y-960675D01*
X+3768493Y-960500D01*
X+3768500Y-960500D01*
X+3756000Y-973000D02*
X+3756043Y-974039D01*
X+3756395Y-976118D01*
X+3757132Y-978197D01*
X+3758336Y-980276D01*
X+3760177Y-982326D01*
X+3762256Y-983829D01*
X+3764335Y-984786D01*
X+3766414Y-985325D01*
X+3768493Y-985500D01*
X+3768500Y-985500D01*
X+3781000Y-973000D02*
X+3780957Y-974039D01*
X+3780605Y-976118D01*
X+3779868Y-978197D01*
X+3778664Y-980276D01*
X+3776823Y-982326D01*
X+3774744Y-983829D01*
X+3772665Y-984786D01*
X+3770586Y-985325D01*
X+3768507Y-985500D01*
X+3768500Y-985500D01*
D38*
X+3833500Y-990500D02*
X+4203500Y-990500D01*
X+3833500Y-1295500D02*
X+4203500Y-1295500D01*
X+3529500Y-2381000D02*
X+3529500Y-2481000D01*
X+3709500Y-2381000D02*
X+3709500Y-2481000D01*
X+3593000Y-349000D02*
X+3593000Y-449000D01*
X+3773000Y-349000D02*
X+3773000Y-449000D01*
X+4068500Y-164000D02*
X+3968500Y-164000D01*
X+4068500Y-344000D02*
X+3968500Y-344000D01*
X+3968500Y-2757000D02*
X+4068500Y-2757000D01*
X+3968500Y-2577000D02*
X+4068500Y-2577000D01*
X+5360500Y-540000D02*
X+5360500Y-440000D01*
X+5180500Y-540000D02*
X+5180500Y-440000D01*
X+4852500Y-540000D02*
X+4852500Y-440000D01*
X+4672500Y-540000D02*
X+4672500Y-440000D01*
X+4603500Y-2249000D02*
X+4703500Y-2249000D01*
X+4603500Y-2069000D02*
X+4703500Y-2069000D01*
X+4684500Y-915500D02*
X+4794500Y-915500D01*
X+4684500Y-735500D02*
X+4794500Y-735500D01*
X+4926500Y-430000D02*
X+4926500Y-540000D01*
X+5106500Y-430000D02*
X+5106500Y-540000D01*
X+4418500Y-430000D02*
X+4418500Y-540000D01*
X+4598500Y-430000D02*
X+4598500Y-540000D01*
X+5075500Y-2249000D02*
X+5175500Y-2249000D01*
X+5075500Y-2069000D02*
X+5175500Y-2069000D01*
X+5075500Y-1741000D02*
X+5175500Y-1741000D01*
X+5075500Y-1561000D02*
X+5175500Y-1561000D01*
X+7488500Y-2249000D02*
X+7588500Y-2249000D01*
X+7488500Y-2069000D02*
X+7588500Y-2069000D01*
X+4603500Y-1995000D02*
X+4713500Y-1995000D01*
X+4603500Y-1815000D02*
X+4713500Y-1815000D01*
X+5065500Y-1995000D02*
X+5175500Y-1995000D01*
X+5065500Y-1815000D02*
X+5175500Y-1815000D01*
X+4603500Y-1741000D02*
X+4713500Y-1741000D01*
X+4603500Y-1561000D02*
X+4713500Y-1561000D01*
D40*
X+7653000Y+772000D02*
X+7652957Y+773039D01*
X+7652605Y+775118D01*
X+7651868Y+777197D01*
X+7650664Y+779276D01*
X+7648823Y+781326D01*
X+7646744Y+782829D01*
X+7644665Y+783786D01*
X+7642586Y+784325D01*
X+7640507Y+784500D01*
X+7640500Y+784500D01*
X+7628000Y+772000D02*
X+7628043Y+773039D01*
X+7628395Y+775118D01*
X+7629132Y+777197D01*
X+7630336Y+779276D01*
X+7632177Y+781326D01*
X+7634256Y+782829D01*
X+7636335Y+783786D01*
X+7638414Y+784325D01*
X+7640493Y+784500D01*
X+7640500Y+784500D01*
X+7628000Y+772000D02*
X+7628043Y+770961D01*
X+7628395Y+768882D01*
X+7629132Y+766803D01*
X+7630336Y+764724D01*
X+7632177Y+762674D01*
X+7634256Y+761171D01*
X+7636335Y+760214D01*
X+7638414Y+759675D01*
X+7640493Y+759500D01*
X+7640500Y+759500D01*
X+7653000Y+772000D02*
X+7652957Y+770961D01*
X+7652605Y+768882D01*
X+7651868Y+766803D01*
X+7650664Y+764724D01*
X+7648823Y+762674D01*
X+7646744Y+761171D01*
X+7644665Y+760214D01*
X+7642586Y+759675D01*
X+7640507Y+759500D01*
X+7640500Y+759500D01*
D38*
X+7658000Y+837000D02*
X+7635500Y+837000D01*
X+7635500Y+1467000D01*
X+7658000Y+1467000D01*
X+7963000Y+837000D02*
X+7985500Y+837000D01*
X+7985500Y+1467000D01*
X+7963000Y+1467000D01*
D40*
X+6901000Y+827000D02*
X+6900957Y+828039D01*
X+6900605Y+830118D01*
X+6899868Y+832197D01*
X+6898664Y+834276D01*
X+6896823Y+836326D01*
X+6894744Y+837829D01*
X+6892665Y+838786D01*
X+6890586Y+839325D01*
X+6888507Y+839500D01*
X+6888500Y+839500D01*
X+6876000Y+827000D02*
X+6876043Y+828039D01*
X+6876395Y+830118D01*
X+6877132Y+832197D01*
X+6878336Y+834276D01*
X+6880177Y+836326D01*
X+6882256Y+837829D01*
X+6884335Y+838786D01*
X+6886414Y+839325D01*
X+6888493Y+839500D01*
X+6888500Y+839500D01*
X+6876000Y+827000D02*
X+6876043Y+825961D01*
X+6876395Y+823882D01*
X+6877132Y+821803D01*
X+6878336Y+819724D01*
X+6880177Y+817674D01*
X+6882256Y+816171D01*
X+6884335Y+815214D01*
X+6886414Y+814675D01*
X+6888493Y+814500D01*
X+6888500Y+814500D01*
X+6901000Y+827000D02*
X+6900957Y+825961D01*
X+6900605Y+823882D01*
X+6899868Y+821803D01*
X+6898664Y+819724D01*
X+6896823Y+817674D01*
X+6894744Y+816171D01*
X+6892665Y+815214D01*
X+6890586Y+814675D01*
X+6888507Y+814500D01*
X+6888500Y+814500D01*
D38*
X+6903500Y+892000D02*
X+6858500Y+892000D01*
X+6858500Y+1452000D01*
X+6903500Y+1452000D01*
X+7193500Y+892000D02*
X+7238500Y+892000D01*
X+7238500Y+1452000D01*
X+7193500Y+1452000D01*
D41*
X+6102500Y-1800960D02*
X+5962500Y-1800960D01*
X+6102500Y-1820960D02*
X+5962500Y-1820960D01*
X+5962500Y-1930960D02*
X+6102500Y-1930960D01*
X+6102500Y-1770960D01*
X+5962500Y-1770960D01*
X+5962500Y-1930960D01*
D38*
X+7329500Y+455500D02*
X+6929500Y+455500D01*
X+7329500Y-74500D02*
X+6929500Y-74500D01*
X+6953000Y-1995000D02*
X+7063000Y-1995000D01*
X+6953000Y-1815000D02*
X+7063000Y-1815000D01*
X+6318000Y-852000D02*
X+6428000Y-852000D01*
X+6318000Y-672000D02*
X+6428000Y-672000D01*
D40*
X+6130500Y-973000D02*
X+6130457Y-971961D01*
X+6130105Y-969882D01*
X+6129368Y-967803D01*
X+6128164Y-965724D01*
X+6126323Y-963674D01*
X+6124244Y-962171D01*
X+6122165Y-961214D01*
X+6120086Y-960675D01*
X+6118007Y-960500D01*
X+6118000Y-960500D01*
X+6105500Y-973000D02*
X+6105543Y-971961D01*
X+6105895Y-969882D01*
X+6106632Y-967803D01*
X+6107836Y-965724D01*
X+6109677Y-963674D01*
X+6111756Y-962171D01*
X+6113835Y-961214D01*
X+6115914Y-960675D01*
X+6117993Y-960500D01*
X+6118000Y-960500D01*
X+6105500Y-973000D02*
X+6105543Y-974039D01*
X+6105895Y-976118D01*
X+6106632Y-978197D01*
X+6107836Y-980276D01*
X+6109677Y-982326D01*
X+6111756Y-983829D01*
X+6113835Y-984786D01*
X+6115914Y-985325D01*
X+6117993Y-985500D01*
X+6118000Y-985500D01*
X+6130500Y-973000D02*
X+6130457Y-974039D01*
X+6130105Y-976118D01*
X+6129368Y-978197D01*
X+6128164Y-980276D01*
X+6126323Y-982326D01*
X+6124244Y-983829D01*
X+6122165Y-984786D01*
X+6120086Y-985325D01*
X+6118007Y-985500D01*
X+6118000Y-985500D01*
D38*
X+6183000Y-990500D02*
X+6553000Y-990500D01*
X+6183000Y-1295500D02*
X+6553000Y-1295500D01*
X+5879000Y-349000D02*
X+5879000Y-449000D01*
X+6059000Y-349000D02*
X+6059000Y-449000D01*
X+6382000Y-164000D02*
X+6282000Y-164000D01*
X+6382000Y-344000D02*
X+6282000Y-344000D01*
X+5879000Y-2381000D02*
X+5879000Y-2481000D01*
X+6059000Y-2381000D02*
X+6059000Y-2481000D01*
X+6318000Y-2757000D02*
X+6418000Y-2757000D01*
X+6318000Y-2577000D02*
X+6418000Y-2577000D01*
X+6318000Y-2503000D02*
X+6428000Y-2503000D01*
X+6318000Y-2323000D02*
X+6428000Y-2323000D01*
X+7143500Y-915500D02*
X+7253500Y-915500D01*
X+7143500Y-735500D02*
X+7253500Y-735500D01*
X+7478500Y-1741000D02*
X+7588500Y-1741000D01*
X+7478500Y-1561000D02*
X+7588500Y-1561000D01*
X+7339500Y-430000D02*
X+7339500Y-540000D01*
X+7519500Y-430000D02*
X+7519500Y-540000D01*
X+6970500Y-1741000D02*
X+7080500Y-1741000D01*
X+6970500Y-1561000D02*
X+7080500Y-1561000D01*
X+6831500Y-430000D02*
X+6831500Y-540000D01*
X+7011500Y-430000D02*
X+7011500Y-540000D01*
X+7488500Y-1995000D02*
X+7588500Y-1995000D01*
X+7488500Y-1815000D02*
X+7588500Y-1815000D01*
X+7773500Y-540000D02*
X+7773500Y-440000D01*
X+7593500Y-540000D02*
X+7593500Y-440000D01*
X+7265500Y-540000D02*
X+7265500Y-440000D01*
X+7085500Y-540000D02*
X+7085500Y-440000D01*
X+6953000Y-2249000D02*
X+7053000Y-2249000D01*
X+6953000Y-2069000D02*
X+7053000Y-2069000D01*
D39*
X+7239000Y-3302000D02*
X+7238573Y-3291591D01*
X+7235101Y-3270772D01*
X+7227845Y-3249953D01*
X+7216017Y-3229134D01*
X+7197920Y-3208476D01*
X+7177101Y-3192955D01*
X+7156282Y-3182970D01*
X+7135463Y-3177186D01*
X+7114644Y-3175028D01*
X+7112000Y-3175000D01*
X+6985000Y-3302000D02*
X+6985427Y-3291591D01*
X+6988899Y-3270772D01*
X+6996155Y-3249953D01*
X+7007983Y-3229134D01*
X+7026080Y-3208476D01*
X+7046899Y-3192955D01*
X+7067718Y-3182970D01*
X+7088537Y-3177186D01*
X+7109356Y-3175028D01*
X+7112000Y-3175000D01*
X+6985000Y-3302000D02*
X+6985427Y-3312409D01*
X+6988899Y-3333228D01*
X+6996155Y-3354047D01*
X+7007983Y-3374866D01*
X+7026080Y-3395524D01*
X+7046899Y-3411045D01*
X+7067718Y-3421030D01*
X+7088537Y-3426814D01*
X+7109356Y-3428972D01*
X+7112000Y-3429000D01*
X+7239000Y-3302000D02*
X+7238573Y-3312409D01*
X+7235101Y-3333228D01*
X+7227845Y-3354047D01*
X+7216017Y-3374866D01*
X+7197920Y-3395524D01*
X+7177101Y-3411045D01*
X+7156282Y-3421030D01*
X+7135463Y-3426814D01*
X+7114644Y-3428972D01*
X+7112000Y-3429000D01*
X+7175500Y-3302000D02*
X+7175283Y-3296753D01*
X+7173518Y-3286258D01*
X+7169826Y-3275763D01*
X+7163798Y-3265268D01*
X+7154576Y-3254888D01*
X+7144081Y-3247200D01*
X+7133586Y-3242282D01*
X+7123091Y-3239476D01*
X+7112596Y-3238503D01*
X+7112000Y-3238500D01*
X+7048500Y-3302000D02*
X+7048717Y-3296753D01*
X+7050482Y-3286258D01*
X+7054174Y-3275763D01*
X+7060202Y-3265268D01*
X+7069424Y-3254888D01*
X+7079919Y-3247200D01*
X+7090414Y-3242282D01*
X+7100909Y-3239476D01*
X+7111404Y-3238503D01*
X+7112000Y-3238500D01*
X+7048500Y-3302000D02*
X+7048717Y-3307247D01*
X+7050482Y-3317742D01*
X+7054174Y-3328237D01*
X+7060202Y-3338732D01*
X+7069424Y-3349112D01*
X+7079919Y-3356800D01*
X+7090414Y-3361718D01*
X+7100909Y-3364524D01*
X+7111404Y-3365497D01*
X+7112000Y-3365500D01*
X+7175500Y-3302000D02*
X+7175283Y-3307247D01*
X+7173518Y-3317742D01*
X+7169826Y-3328237D01*
X+7163798Y-3338732D01*
X+7154576Y-3349112D01*
X+7144081Y-3356800D01*
X+7133586Y-3361718D01*
X+7123091Y-3364524D01*
X+7112596Y-3365497D01*
X+7112000Y-3365500D01*
X+6413500Y-3324860D02*
X+6413500Y-3233420D01*
X+6492875Y-3233420D01*
X+6508750Y-3248660D01*
X+6508750Y-3263900D01*
X+6492875Y-3279140D01*
X+6413500Y-3279140D01*
X+6540500Y-3233420D02*
X+6540500Y-3324860D01*
X+6588125Y-3279140D01*
X+6635750Y-3324860D01*
X+6635750Y-3233420D01*
X+6667500Y-3324860D02*
X+6667500Y-3233420D01*
X+6715125Y-3279140D01*
X+6762750Y-3233420D01*
X+6762750Y-3324860D01*
X+6889750Y-3248660D02*
X+6873875Y-3233420D01*
X+6826250Y-3233420D01*
X+6810375Y-3248660D01*
X+6810375Y-3309620D01*
X+6826250Y-3324860D01*
X+6873875Y-3324860D01*
X+6889750Y-3309620D01*
X+6889750Y-3294380D01*
X+6873875Y-3279140D01*
X+6810375Y-3279140D01*
X+7239000Y-3556000D02*
X+7238573Y-3545591D01*
X+7235101Y-3524772D01*
X+7227845Y-3503953D01*
X+7216017Y-3483134D01*
X+7197920Y-3462476D01*
X+7177101Y-3446955D01*
X+7156282Y-3436970D01*
X+7135463Y-3431186D01*
X+7114644Y-3429028D01*
X+7112000Y-3429000D01*
X+6985000Y-3556000D02*
X+6985427Y-3545591D01*
X+6988899Y-3524772D01*
X+6996155Y-3503953D01*
X+7007983Y-3483134D01*
X+7026080Y-3462476D01*
X+7046899Y-3446955D01*
X+7067718Y-3436970D01*
X+7088537Y-3431186D01*
X+7109356Y-3429028D01*
X+7112000Y-3429000D01*
X+6985000Y-3556000D02*
X+6985427Y-3566409D01*
X+6988899Y-3587228D01*
X+6996155Y-3608047D01*
X+7007983Y-3628866D01*
X+7026080Y-3649524D01*
X+7046899Y-3665045D01*
X+7067718Y-3675030D01*
X+7088537Y-3680814D01*
X+7109356Y-3682972D01*
X+7112000Y-3683000D01*
X+7239000Y-3556000D02*
X+7238573Y-3566409D01*
X+7235101Y-3587228D01*
X+7227845Y-3608047D01*
X+7216017Y-3628866D01*
X+7197920Y-3649524D01*
X+7177101Y-3665045D01*
X+7156282Y-3675030D01*
X+7135463Y-3680814D01*
X+7114644Y-3682972D01*
X+7112000Y-3683000D01*
X+7175500Y-3556000D02*
X+7175283Y-3550753D01*
X+7173518Y-3540258D01*
X+7169826Y-3529763D01*
X+7163798Y-3519268D01*
X+7154576Y-3508888D01*
X+7144081Y-3501200D01*
X+7133586Y-3496282D01*
X+7123091Y-3493476D01*
X+7112596Y-3492503D01*
X+7112000Y-3492500D01*
X+7048500Y-3556000D02*
X+7048717Y-3550753D01*
X+7050482Y-3540258D01*
X+7054174Y-3529763D01*
X+7060202Y-3519268D01*
X+7069424Y-3508888D01*
X+7079919Y-3501200D01*
X+7090414Y-3496282D01*
X+7100909Y-3493476D01*
X+7111404Y-3492503D01*
X+7112000Y-3492500D01*
X+7048500Y-3556000D02*
X+7048717Y-3561247D01*
X+7050482Y-3571742D01*
X+7054174Y-3582237D01*
X+7060202Y-3592732D01*
X+7069424Y-3603112D01*
X+7079919Y-3610800D01*
X+7090414Y-3615718D01*
X+7100909Y-3618524D01*
X+7111404Y-3619497D01*
X+7112000Y-3619500D01*
X+7175500Y-3556000D02*
X+7175283Y-3561247D01*
X+7173518Y-3571742D01*
X+7169826Y-3582237D01*
X+7163798Y-3592732D01*
X+7154576Y-3603112D01*
X+7144081Y-3610800D01*
X+7133586Y-3615718D01*
X+7123091Y-3618524D01*
X+7112596Y-3619497D01*
X+7112000Y-3619500D01*
X+6429375Y-3487420D02*
X+6492875Y-3487420D01*
X+6461125Y-3487420D02*
X+6461125Y-3578860D01*
X+6429375Y-3578860D02*
X+6492875Y-3578860D01*
X+6540500Y-3578860D02*
X+6540500Y-3487420D01*
X+6635750Y-3487420D01*
X+6540500Y-3533140D02*
X+6604000Y-3533140D01*
X+6667500Y-3578860D02*
X+6667500Y-3487420D01*
X+6746875Y-3487420D01*
X+6762750Y-3502660D01*
X+6762750Y-3517900D01*
X+6746875Y-3533140D01*
X+6762750Y-3548380D01*
X+6762750Y-3563620D01*
X+6746875Y-3578860D01*
X+6667500Y-3578860D01*
X+6667500Y-3533140D02*
X+6746875Y-3533140D01*
X+6889750Y-3502660D02*
X+6873875Y-3487420D01*
X+6826250Y-3487420D01*
X+6810375Y-3502660D01*
X+6810375Y-3563620D01*
X+6826250Y-3578860D01*
X+6873875Y-3578860D01*
X+6889750Y-3563620D01*
X+6889750Y-3548380D01*
X+6873875Y-3533140D01*
X+6810375Y-3533140D01*
X+7239000Y-3048000D02*
X+7238573Y-3037591D01*
X+7235101Y-3016772D01*
X+7227845Y-2995953D01*
X+7216017Y-2975134D01*
X+7197920Y-2954476D01*
X+7177101Y-2938955D01*
X+7156282Y-2928970D01*
X+7135463Y-2923186D01*
X+7114644Y-2921028D01*
X+7112000Y-2921000D01*
X+6985000Y-3048000D02*
X+6985427Y-3037591D01*
X+6988899Y-3016772D01*
X+6996155Y-2995953D01*
X+7007983Y-2975134D01*
X+7026080Y-2954476D01*
X+7046899Y-2938955D01*
X+7067718Y-2928970D01*
X+7088537Y-2923186D01*
X+7109356Y-2921028D01*
X+7112000Y-2921000D01*
X+6985000Y-3048000D02*
X+6985427Y-3058409D01*
X+6988899Y-3079228D01*
X+6996155Y-3100047D01*
X+7007983Y-3120866D01*
X+7026080Y-3141524D01*
X+7046899Y-3157045D01*
X+7067718Y-3167030D01*
X+7088537Y-3172814D01*
X+7109356Y-3174972D01*
X+7112000Y-3175000D01*
X+7239000Y-3048000D02*
X+7238573Y-3058409D01*
X+7235101Y-3079228D01*
X+7227845Y-3100047D01*
X+7216017Y-3120866D01*
X+7197920Y-3141524D01*
X+7177101Y-3157045D01*
X+7156282Y-3167030D01*
X+7135463Y-3172814D01*
X+7114644Y-3174972D01*
X+7112000Y-3175000D01*
X+7175500Y-3048000D02*
X+7175283Y-3042753D01*
X+7173518Y-3032258D01*
X+7169826Y-3021763D01*
X+7163798Y-3011268D01*
X+7154576Y-3000888D01*
X+7144081Y-2993200D01*
X+7133586Y-2988282D01*
X+7123091Y-2985476D01*
X+7112596Y-2984503D01*
X+7112000Y-2984500D01*
X+7048500Y-3048000D02*
X+7048717Y-3042753D01*
X+7050482Y-3032258D01*
X+7054174Y-3021763D01*
X+7060202Y-3011268D01*
X+7069424Y-3000888D01*
X+7079919Y-2993200D01*
X+7090414Y-2988282D01*
X+7100909Y-2985476D01*
X+7111404Y-2984503D01*
X+7112000Y-2984500D01*
X+7048500Y-3048000D02*
X+7048717Y-3053247D01*
X+7050482Y-3063742D01*
X+7054174Y-3074237D01*
X+7060202Y-3084732D01*
X+7069424Y-3095112D01*
X+7079919Y-3102800D01*
X+7090414Y-3107718D01*
X+7100909Y-3110524D01*
X+7111404Y-3111497D01*
X+7112000Y-3111500D01*
X+7175500Y-3048000D02*
X+7175283Y-3053247D01*
X+7173518Y-3063742D01*
X+7169826Y-3074237D01*
X+7163798Y-3084732D01*
X+7154576Y-3095112D01*
X+7144081Y-3102800D01*
X+7133586Y-3107718D01*
X+7123091Y-3110524D01*
X+7112596Y-3111497D01*
X+7112000Y-3111500D01*
X+6429375Y-2979420D02*
X+6492875Y-2979420D01*
X+6461125Y-2979420D02*
X+6461125Y-3070860D01*
X+6429375Y-3070860D02*
X+6492875Y-3070860D01*
X+6540500Y-3070860D02*
X+6540500Y-2979420D01*
X+6635750Y-3070860D01*
X+6635750Y-2979420D01*
X+6667500Y-3070860D02*
X+6667500Y-2979420D01*
X+6762750Y-2979420D02*
X+6762750Y-3070860D01*
X+6667500Y-3025140D02*
X+6762750Y-3025140D01*
X+6889750Y-2994660D02*
X+6873875Y-2979420D01*
X+6826250Y-2979420D01*
X+6810375Y-2994660D01*
X+6810375Y-3055620D01*
X+6826250Y-3070860D01*
X+6873875Y-3070860D01*
X+6889750Y-3055620D01*
X+6889750Y-3040380D01*
X+6873875Y-3025140D01*
X+6810375Y-3025140D01*
X+6794500Y+1841500D02*
X+6794073Y+1851909D01*
X+6790601Y+1872728D01*
X+6783345Y+1893547D01*
X+6771517Y+1914366D01*
X+6753420Y+1935024D01*
X+6732601Y+1950545D01*
X+6711782Y+1960530D01*
X+6690963Y+1966314D01*
X+6670144Y+1968472D01*
X+6667500Y+1968500D01*
X+6540500Y+1841500D02*
X+6540927Y+1851909D01*
X+6544399Y+1872728D01*
X+6551655Y+1893547D01*
X+6563483Y+1914366D01*
X+6581580Y+1935024D01*
X+6602399Y+1950545D01*
X+6623218Y+1960530D01*
X+6644037Y+1966314D01*
X+6664856Y+1968472D01*
X+6667500Y+1968500D01*
X+6540500Y+1841500D02*
X+6540927Y+1831091D01*
X+6544399Y+1810272D01*
X+6551655Y+1789453D01*
X+6563483Y+1768634D01*
X+6581580Y+1747976D01*
X+6602399Y+1732455D01*
X+6623218Y+1722470D01*
X+6644037Y+1716686D01*
X+6664856Y+1714528D01*
X+6667500Y+1714500D01*
X+6794500Y+1841500D02*
X+6794073Y+1831091D01*
X+6790601Y+1810272D01*
X+6783345Y+1789453D01*
X+6771517Y+1768634D01*
X+6753420Y+1747976D01*
X+6732601Y+1732455D01*
X+6711782Y+1722470D01*
X+6690963Y+1716686D01*
X+6670144Y+1714528D01*
X+6667500Y+1714500D01*
X+6731000Y+1841500D02*
X+6730783Y+1846747D01*
X+6729018Y+1857242D01*
X+6725326Y+1867737D01*
X+6719298Y+1878232D01*
X+6710076Y+1888612D01*
X+6699581Y+1896300D01*
X+6689086Y+1901218D01*
X+6678591Y+1904024D01*
X+6668096Y+1904997D01*
X+6667500Y+1905000D01*
X+6604000Y+1841500D02*
X+6604217Y+1846747D01*
X+6605982Y+1857242D01*
X+6609674Y+1867737D01*
X+6615702Y+1878232D01*
X+6624924Y+1888612D01*
X+6635419Y+1896300D01*
X+6645914Y+1901218D01*
X+6656409Y+1904024D01*
X+6666904Y+1904997D01*
X+6667500Y+1905000D01*
X+6604000Y+1841500D02*
X+6604217Y+1836253D01*
X+6605982Y+1825758D01*
X+6609674Y+1815263D01*
X+6615702Y+1804768D01*
X+6624924Y+1794388D01*
X+6635419Y+1786700D01*
X+6645914Y+1781782D01*
X+6656409Y+1778976D01*
X+6666904Y+1778003D01*
X+6667500Y+1778000D01*
X+6731000Y+1841500D02*
X+6730783Y+1836253D01*
X+6729018Y+1825758D01*
X+6725326Y+1815263D01*
X+6719298Y+1804768D01*
X+6710076Y+1794388D01*
X+6699581Y+1786700D01*
X+6689086Y+1781782D01*
X+6678591Y+1778976D01*
X+6668096Y+1778003D01*
X+6667500Y+1778000D01*
X+6598920Y+2032000D02*
X+6644640Y+2032000D01*
X+6690360Y+2079625D01*
X+6644640Y+2127250D01*
X+6598920Y+2127250D01*
X+6614160Y+2254250D02*
X+6598920Y+2238375D01*
X+6598920Y+2190750D01*
X+6614160Y+2174875D01*
X+6675120Y+2174875D01*
X+6690360Y+2190750D01*
X+6690360Y+2238375D01*
X+6675120Y+2254250D01*
X+6659880Y+2254250D01*
X+6644640Y+2238375D01*
X+6644640Y+2174875D01*
X+6690360Y+2286000D02*
X+6598920Y+2286000D01*
X+6598920Y+2381250D02*
X+6690360Y+2381250D01*
X+6644640Y+2286000D02*
X+6644640Y+2381250D01*
X+6675120Y+2413000D02*
X+6690360Y+2428875D01*
X+6690360Y+2492375D01*
X+6675120Y+2508250D01*
X+6659880Y+2508250D01*
X+6644640Y+2492375D01*
X+6644640Y+2428875D01*
X+6629400Y+2413000D01*
X+6614160Y+2413000D01*
X+6598920Y+2428875D01*
X+6598920Y+2492375D01*
X+6614160Y+2508250D01*
X+6350000Y+1841500D02*
X+6349573Y+1851909D01*
X+6346101Y+1872728D01*
X+6338845Y+1893547D01*
X+6327017Y+1914366D01*
X+6308920Y+1935024D01*
X+6288101Y+1950545D01*
X+6267282Y+1960530D01*
X+6246463Y+1966314D01*
X+6225644Y+1968472D01*
X+6223000Y+1968500D01*
X+6096000Y+1841500D02*
X+6096427Y+1851909D01*
X+6099899Y+1872728D01*
X+6107155Y+1893547D01*
X+6118983Y+1914366D01*
X+6137080Y+1935024D01*
X+6157899Y+1950545D01*
X+6178718Y+1960530D01*
X+6199537Y+1966314D01*
X+6220356Y+1968472D01*
X+6223000Y+1968500D01*
X+6096000Y+1841500D02*
X+6096427Y+1831091D01*
X+6099899Y+1810272D01*
X+6107155Y+1789453D01*
X+6118983Y+1768634D01*
X+6137080Y+1747976D01*
X+6157899Y+1732455D01*
X+6178718Y+1722470D01*
X+6199537Y+1716686D01*
X+6220356Y+1714528D01*
X+6223000Y+1714500D01*
X+6350000Y+1841500D02*
X+6349573Y+1831091D01*
X+6346101Y+1810272D01*
X+6338845Y+1789453D01*
X+6327017Y+1768634D01*
X+6308920Y+1747976D01*
X+6288101Y+1732455D01*
X+6267282Y+1722470D01*
X+6246463Y+1716686D01*
X+6225644Y+1714528D01*
X+6223000Y+1714500D01*
X+6286500Y+1841500D02*
X+6286283Y+1846747D01*
X+6284518Y+1857242D01*
X+6280826Y+1867737D01*
X+6274798Y+1878232D01*
X+6265576Y+1888612D01*
X+6255081Y+1896300D01*
X+6244586Y+1901218D01*
X+6234091Y+1904024D01*
X+6223596Y+1904997D01*
X+6223000Y+1905000D01*
X+6159500Y+1841500D02*
X+6159717Y+1846747D01*
X+6161482Y+1857242D01*
X+6165174Y+1867737D01*
X+6171202Y+1878232D01*
X+6180424Y+1888612D01*
X+6190919Y+1896300D01*
X+6201414Y+1901218D01*
X+6211909Y+1904024D01*
X+6222404Y+1904997D01*
X+6223000Y+1905000D01*
X+6159500Y+1841500D02*
X+6159717Y+1836253D01*
X+6161482Y+1825758D01*
X+6165174Y+1815263D01*
X+6171202Y+1804768D01*
X+6180424Y+1794388D01*
X+6190919Y+1786700D01*
X+6201414Y+1781782D01*
X+6211909Y+1778976D01*
X+6222404Y+1778003D01*
X+6223000Y+1778000D01*
X+6286500Y+1841500D02*
X+6286283Y+1836253D01*
X+6284518Y+1825758D01*
X+6280826Y+1815263D01*
X+6274798Y+1804768D01*
X+6265576Y+1794388D01*
X+6255081Y+1786700D01*
X+6244586Y+1781782D01*
X+6234091Y+1778976D01*
X+6223596Y+1778003D01*
X+6223000Y+1778000D01*
X+5963920Y+2032000D02*
X+6009640Y+2032000D01*
X+6055360Y+2079625D01*
X+6009640Y+2127250D01*
X+5963920Y+2127250D01*
X+5979160Y+2254250D02*
X+5963920Y+2238375D01*
X+5963920Y+2190750D01*
X+5979160Y+2174875D01*
X+6040120Y+2174875D01*
X+6055360Y+2190750D01*
X+6055360Y+2238375D01*
X+6040120Y+2254250D01*
X+6024880Y+2254250D01*
X+6009640Y+2238375D01*
X+6009640Y+2174875D01*
X+5963920Y+2286000D02*
X+6055360Y+2286000D01*
X+6055360Y+2381250D01*
X+6040120Y+2413000D02*
X+6055360Y+2428875D01*
X+6055360Y+2492375D01*
X+6040120Y+2508250D01*
X+6024880Y+2508250D01*
X+6009640Y+2492375D01*
X+6009640Y+2428875D01*
X+5994400Y+2413000D01*
X+5979160Y+2413000D01*
X+5963920Y+2428875D01*
X+5963920Y+2492375D01*
X+5979160Y+2508250D01*
X-4127500Y-3556000D02*
X-4127927Y-3545591D01*
X-4131399Y-3524772D01*
X-4138655Y-3503953D01*
X-4150483Y-3483134D01*
X-4168580Y-3462476D01*
X-4189399Y-3446955D01*
X-4210218Y-3436970D01*
X-4231037Y-3431186D01*
X-4251856Y-3429028D01*
X-4254500Y-3429000D01*
X-4381500Y-3556000D02*
X-4381073Y-3545591D01*
X-4377601Y-3524772D01*
X-4370345Y-3503953D01*
X-4358517Y-3483134D01*
X-4340420Y-3462476D01*
X-4319601Y-3446955D01*
X-4298782Y-3436970D01*
X-4277963Y-3431186D01*
X-4257144Y-3429028D01*
X-4254500Y-3429000D01*
X-4381500Y-3556000D02*
X-4381073Y-3566409D01*
X-4377601Y-3587228D01*
X-4370345Y-3608047D01*
X-4358517Y-3628866D01*
X-4340420Y-3649524D01*
X-4319601Y-3665045D01*
X-4298782Y-3675030D01*
X-4277963Y-3680814D01*
X-4257144Y-3682972D01*
X-4254500Y-3683000D01*
X-4127500Y-3556000D02*
X-4127927Y-3566409D01*
X-4131399Y-3587228D01*
X-4138655Y-3608047D01*
X-4150483Y-3628866D01*
X-4168580Y-3649524D01*
X-4189399Y-3665045D01*
X-4210218Y-3675030D01*
X-4231037Y-3680814D01*
X-4251856Y-3682972D01*
X-4254500Y-3683000D01*
X-4191000Y-3556000D02*
X-4191217Y-3550753D01*
X-4192982Y-3540258D01*
X-4196674Y-3529763D01*
X-4202702Y-3519268D01*
X-4211924Y-3508888D01*
X-4222419Y-3501200D01*
X-4232914Y-3496282D01*
X-4243409Y-3493476D01*
X-4253904Y-3492503D01*
X-4254500Y-3492500D01*
X-4318000Y-3556000D02*
X-4317783Y-3550753D01*
X-4316018Y-3540258D01*
X-4312326Y-3529763D01*
X-4306298Y-3519268D01*
X-4297076Y-3508888D01*
X-4286581Y-3501200D01*
X-4276086Y-3496282D01*
X-4265591Y-3493476D01*
X-4255096Y-3492503D01*
X-4254500Y-3492500D01*
X-4318000Y-3556000D02*
X-4317783Y-3561247D01*
X-4316018Y-3571742D01*
X-4312326Y-3582237D01*
X-4306298Y-3592732D01*
X-4297076Y-3603112D01*
X-4286581Y-3610800D01*
X-4276086Y-3615718D01*
X-4265591Y-3618524D01*
X-4255096Y-3619497D01*
X-4254500Y-3619500D01*
X-4191000Y-3556000D02*
X-4191217Y-3561247D01*
X-4192982Y-3571742D01*
X-4196674Y-3582237D01*
X-4202702Y-3592732D01*
X-4211924Y-3603112D01*
X-4222419Y-3610800D01*
X-4232914Y-3615718D01*
X-4243409Y-3618524D01*
X-4253904Y-3619497D01*
X-4254500Y-3619500D01*
X-4953000Y-3487420D02*
X-4953000Y-3533140D01*
X-4905375Y-3578860D01*
X-4857750Y-3533140D01*
X-4857750Y-3487420D01*
X-4826000Y-3578860D02*
X-4826000Y-3487420D01*
X-4730750Y-3487420D01*
X-4826000Y-3533140D02*
X-4762500Y-3533140D01*
X-4699000Y-3578860D02*
X-4699000Y-3487420D01*
X-4619625Y-3487420D01*
X-4603750Y-3502660D01*
X-4603750Y-3517900D01*
X-4619625Y-3533140D01*
X-4603750Y-3548380D01*
X-4603750Y-3563620D01*
X-4619625Y-3578860D01*
X-4699000Y-3578860D01*
X-4699000Y-3533140D02*
X-4619625Y-3533140D01*
X-4476750Y-3502660D02*
X-4492625Y-3487420D01*
X-4540250Y-3487420D01*
X-4556125Y-3502660D01*
X-4556125Y-3563620D01*
X-4540250Y-3578860D01*
X-4492625Y-3578860D01*
X-4476750Y-3563620D01*
X-4476750Y-3548380D01*
X-4492625Y-3533140D01*
X-4556125Y-3533140D01*
X-4665980Y-1831340D02*
X-4025900Y-1831340D01*
X-4025900Y-1483360D01*
X-4665980Y-1483360D01*
X-4665980Y-1828800D01*
X-4531360Y-1483360D02*
X-4531360Y-1463040D01*
X-4152900Y-1463040D01*
X-4152900Y-1480820D01*
D38*
X-4477000Y-2439500D02*
X-4367000Y-2439500D01*
X-4477000Y-2259500D02*
X-4367000Y-2259500D01*
X-4586500Y-1169500D02*
X-4476500Y-1169500D01*
X-4586500Y-989500D02*
X-4476500Y-989500D01*
D40*
X-4834000Y-1325500D02*
X-4834043Y-1324461D01*
X-4834395Y-1322382D01*
X-4835132Y-1320303D01*
X-4836336Y-1318224D01*
X-4838177Y-1316174D01*
X-4840256Y-1314671D01*
X-4842335Y-1313714D01*
X-4844414Y-1313175D01*
X-4846493Y-1313000D01*
X-4846500Y-1313000D01*
X-4859000Y-1325500D02*
X-4858957Y-1324461D01*
X-4858605Y-1322382D01*
X-4857868Y-1320303D01*
X-4856664Y-1318224D01*
X-4854823Y-1316174D01*
X-4852744Y-1314671D01*
X-4850665Y-1313714D01*
X-4848586Y-1313175D01*
X-4846507Y-1313000D01*
X-4846500Y-1313000D01*
X-4859000Y-1325500D02*
X-4858957Y-1326539D01*
X-4858605Y-1328618D01*
X-4857868Y-1330697D01*
X-4856664Y-1332776D01*
X-4854823Y-1334826D01*
X-4852744Y-1336329D01*
X-4850665Y-1337286D01*
X-4848586Y-1337825D01*
X-4846507Y-1338000D01*
X-4846500Y-1338000D01*
X-4834000Y-1325500D02*
X-4834043Y-1326539D01*
X-4834395Y-1328618D01*
X-4835132Y-1330697D01*
X-4836336Y-1332776D01*
X-4838177Y-1334826D01*
X-4840256Y-1336329D01*
X-4842335Y-1337286D01*
X-4844414Y-1337825D01*
X-4846493Y-1338000D01*
X-4846500Y-1338000D01*
D38*
X-4864000Y-1390500D02*
X-4841500Y-1390500D01*
X-4841500Y-2020500D01*
X-4864000Y-2020500D01*
X-5169000Y-1390500D02*
X-5191500Y-1390500D01*
X-5191500Y-2020500D01*
X-5169000Y-2020500D01*
D42*
X+9017000Y+2921000D02*
X+9017000Y-4254500D01*
X+9017000Y+2921000D02*
X+8890000Y+2794000D01*
X+9017000Y+2921000D02*
X+9144000Y+2794000D01*
X+9017000Y-4254500D02*
X+9144000Y-4127500D01*
X+9017000Y-4254500D02*
X+8890000Y-4127500D01*
X+9048750Y-666750D02*
X+9048641Y-664116D01*
X+9047751Y-658847D01*
X+9045889Y-653578D01*
X+9042846Y-648309D01*
X+9038191Y-643107D01*
X+9032922Y-639281D01*
X+9027653Y-636841D01*
X+9022384Y-635460D01*
X+9017115Y-635000D01*
X+9017000Y-635000D01*
X+8985250Y-666750D02*
X+8985359Y-664116D01*
X+8986249Y-658847D01*
X+8988111Y-653578D01*
X+8991154Y-648309D01*
X+8995809Y-643107D01*
X+9001078Y-639281D01*
X+9006347Y-636841D01*
X+9011616Y-635460D01*
X+9016885Y-635000D01*
X+9017000Y-635000D01*
X+8985250Y-666750D02*
X+8985359Y-669384D01*
X+8986249Y-674653D01*
X+8988111Y-679922D01*
X+8991154Y-685191D01*
X+8995809Y-690393D01*
X+9001078Y-694219D01*
X+9006347Y-696659D01*
X+9011616Y-698040D01*
X+9016885Y-698500D01*
X+9017000Y-698500D01*
X+9048750Y-666750D02*
X+9048641Y-669384D01*
X+9047751Y-674653D01*
X+9045889Y-679922D01*
X+9042846Y-685191D01*
X+9038191Y-690393D01*
X+9032922Y-694219D01*
X+9027653Y-696659D01*
X+9022384Y-698040D01*
X+9017115Y-698500D01*
X+9017000Y-698500D01*
X+6606535Y+3290450D02*
X+6647810Y+3328550D01*
X+6771635Y+3328550D01*
X+6812910Y+3290450D01*
X+6812910Y+3252350D01*
X+6771635Y+3214250D01*
X+6647810Y+3214250D01*
X+6606535Y+3176150D01*
X+6606535Y+3099950D01*
X+6812910Y+3099950D01*
X+6978010Y+3214250D02*
X+6936735Y+3252350D01*
X+6936735Y+3290450D01*
X+6978010Y+3328550D01*
X+7101835Y+3328550D01*
X+7143110Y+3290450D01*
X+7143110Y+3252350D01*
X+7101835Y+3214250D01*
X+6978010Y+3214250D01*
X+6936735Y+3176150D01*
X+6936735Y+3138050D01*
X+6978010Y+3099950D01*
X+7101835Y+3099950D01*
X+7143110Y+3138050D01*
X+7143110Y+3176150D01*
X+7101835Y+3214250D01*
X+7266935Y+3290450D02*
X+7308210Y+3328550D01*
X+7432035Y+3328550D01*
X+7473310Y+3290450D01*
X+7473310Y+3252350D01*
X+7432035Y+3214250D01*
X+7308210Y+3214250D01*
X+7266935Y+3176150D01*
X+7266935Y+3099950D01*
X+7473310Y+3099950D01*
X+7803510Y+3328550D02*
X+7597135Y+3328550D01*
X+7597135Y+3252350D01*
X+7762235Y+3252350D01*
X+7803510Y+3214250D01*
X+7803510Y+3138050D01*
X+7762235Y+3099950D01*
X+7638410Y+3099950D01*
X+7597135Y+3138050D01*
X+7927335Y+3328550D02*
X+7927335Y+3138050D01*
X+7968610Y+3099950D01*
X+8092435Y+3099950D01*
X+8133710Y+3138050D01*
X+7886060Y+3252350D02*
X+8092435Y+3252350D01*
X+8463910Y+3099950D02*
X+8463910Y+3214250D01*
X+8422635Y+3252350D01*
X+8257535Y+3252350D01*
X+8216260Y+3214250D01*
X+8216260Y+3328550D02*
X+8216260Y+3099950D01*
X-6604000Y+3492500D02*
X+8509000Y+3492500D01*
X-6604000Y+3492500D02*
X-6477000Y+3365500D01*
X-6604000Y+3492500D02*
X-6477000Y+3619500D01*
X+8509000Y+3492500D02*
X+8382000Y+3619500D01*
X+8509000Y+3492500D02*
X+8382000Y+3365500D01*
X+984250Y+3492500D02*
X+984141Y+3495134D01*
X+983251Y+3500403D01*
X+981389Y+3505672D01*
X+978346Y+3510941D01*
X+973691Y+3516143D01*
X+968422Y+3519969D01*
X+963153Y+3522409D01*
X+957884Y+3523790D01*
X+952615Y+3524250D01*
X+952500Y+3524250D01*
X+920750Y+3492500D02*
X+920859Y+3495134D01*
X+921749Y+3500403D01*
X+923611Y+3505672D01*
X+926654Y+3510941D01*
X+931309Y+3516143D01*
X+936578Y+3519969D01*
X+941847Y+3522409D01*
X+947116Y+3523790D01*
X+952385Y+3524250D01*
X+952500Y+3524250D01*
X+920750Y+3492500D02*
X+920859Y+3489866D01*
X+921749Y+3484597D01*
X+923611Y+3479328D01*
X+926654Y+3474059D01*
X+931309Y+3468857D01*
X+936578Y+3465031D01*
X+941847Y+3462591D01*
X+947116Y+3461210D01*
X+952385Y+3460750D01*
X+952500Y+3460750D01*
X+984250Y+3492500D02*
X+984141Y+3489866D01*
X+983251Y+3484597D01*
X+981389Y+3479328D01*
X+978346Y+3474059D01*
X+973691Y+3468857D01*
X+968422Y+3465031D01*
X+963153Y+3462591D01*
X+957884Y+3461210D01*
X+952615Y+3460750D01*
X+952500Y+3460750D01*
X+139700Y+3383280D02*
X-50800Y+3383280D01*
X-50800Y+3302000D01*
X+101600Y+3302000D01*
X+139700Y+3261360D01*
X+139700Y+3180080D01*
X+101600Y+3139440D01*
X-12700Y+3139440D01*
X-50800Y+3180080D01*
X+444500Y+3302000D02*
X+406400Y+3261360D01*
X+292100Y+3261360D01*
X+254000Y+3302000D01*
X+254000Y+3342640D01*
X+292100Y+3383280D01*
X+406400Y+3383280D01*
X+444500Y+3342640D01*
X+444500Y+3180080D01*
X+406400Y+3139440D01*
X+292100Y+3139440D01*
X+749300Y+3383280D02*
X+558800Y+3383280D01*
X+558800Y+3302000D01*
X+711200Y+3302000D01*
X+749300Y+3261360D01*
X+749300Y+3180080D01*
X+711200Y+3139440D01*
X+596900Y+3139440D01*
X+558800Y+3180080D01*
X+825500Y+3180080D02*
X+825500Y+3342640D01*
X+863600Y+3383280D01*
X+1016000Y+3383280D01*
X+1054100Y+3342640D01*
X+1054100Y+3180080D01*
X+1016000Y+3139440D01*
X+863600Y+3139440D01*
X+825500Y+3180080D01*
X+825500Y+3139440D02*
X+1054100Y+3383280D01*
X+1168400Y+3383280D02*
X+1168400Y+3180080D01*
X+1206500Y+3139440D01*
X+1320800Y+3139440D01*
X+1358900Y+3180080D01*
X+1130300Y+3302000D02*
X+1320800Y+3302000D01*
X+1663700Y+3139440D02*
X+1663700Y+3261360D01*
X+1625600Y+3302000D01*
X+1473200Y+3302000D01*
X+1435100Y+3261360D01*
X+1435100Y+3383280D02*
X+1435100Y+3139440D01*
D40*
X-6345500Y+1059000D02*
X-6345543Y+1060039D01*
X-6345895Y+1062118D01*
X-6346632Y+1064197D01*
X-6347836Y+1066276D01*
X-6349677Y+1068326D01*
X-6351756Y+1069829D01*
X-6353835Y+1070786D01*
X-6355914Y+1071325D01*
X-6357993Y+1071500D01*
X-6358000Y+1071500D01*
X-6370500Y+1059000D02*
X-6370457Y+1060039D01*
X-6370105Y+1062118D01*
X-6369368Y+1064197D01*
X-6368164Y+1066276D01*
X-6366323Y+1068326D01*
X-6364244Y+1069829D01*
X-6362165Y+1070786D01*
X-6360086Y+1071325D01*
X-6358007Y+1071500D01*
X-6358000Y+1071500D01*
X-6370500Y+1059000D02*
X-6370457Y+1057961D01*
X-6370105Y+1055882D01*
X-6369368Y+1053803D01*
X-6368164Y+1051724D01*
X-6366323Y+1049674D01*
X-6364244Y+1048171D01*
X-6362165Y+1047214D01*
X-6360086Y+1046675D01*
X-6358007Y+1046500D01*
X-6358000Y+1046500D01*
X-6345500Y+1059000D02*
X-6345543Y+1057961D01*
X-6345895Y+1055882D01*
X-6346632Y+1053803D01*
X-6347836Y+1051724D01*
X-6349677Y+1049674D01*
X-6351756Y+1048171D01*
X-6353835Y+1047214D01*
X-6355914Y+1046675D01*
X-6357993Y+1046500D01*
X-6358000Y+1046500D01*
D38*
X-6293000Y+1041500D02*
X-6293000Y+1064000D01*
X-5663000Y+1064000D01*
X-5663000Y+1041500D01*
X-6293000Y+736500D02*
X-6293000Y+714000D01*
X-5663000Y+714000D01*
X-5663000Y+736500D01*
D40*
X-6345500Y+170000D02*
X-6345543Y+171039D01*
X-6345895Y+173118D01*
X-6346632Y+175197D01*
X-6347836Y+177276D01*
X-6349677Y+179326D01*
X-6351756Y+180829D01*
X-6353835Y+181786D01*
X-6355914Y+182325D01*
X-6357993Y+182500D01*
X-6358000Y+182500D01*
X-6370500Y+170000D02*
X-6370457Y+171039D01*
X-6370105Y+173118D01*
X-6369368Y+175197D01*
X-6368164Y+177276D01*
X-6366323Y+179326D01*
X-6364244Y+180829D01*
X-6362165Y+181786D01*
X-6360086Y+182325D01*
X-6358007Y+182500D01*
X-6358000Y+182500D01*
X-6370500Y+170000D02*
X-6370457Y+168961D01*
X-6370105Y+166882D01*
X-6369368Y+164803D01*
X-6368164Y+162724D01*
X-6366323Y+160674D01*
X-6364244Y+159171D01*
X-6362165Y+158214D01*
X-6360086Y+157675D01*
X-6358007Y+157500D01*
X-6358000Y+157500D01*
X-6345500Y+170000D02*
X-6345543Y+168961D01*
X-6345895Y+166882D01*
X-6346632Y+164803D01*
X-6347836Y+162724D01*
X-6349677Y+160674D01*
X-6351756Y+159171D01*
X-6353835Y+158214D01*
X-6355914Y+157675D01*
X-6357993Y+157500D01*
X-6358000Y+157500D01*
D38*
X-6293000Y+152500D02*
X-6293000Y+175000D01*
X-5663000Y+175000D01*
X-5663000Y+152500D01*
X-6293000Y-152500D02*
X-6293000Y-175000D01*
X-5663000Y-175000D01*
X-5663000Y-152500D01*
D40*
X-6345500Y-719000D02*
X-6345543Y-717961D01*
X-6345895Y-715882D01*
X-6346632Y-713803D01*
X-6347836Y-711724D01*
X-6349677Y-709674D01*
X-6351756Y-708171D01*
X-6353835Y-707214D01*
X-6355914Y-706675D01*
X-6357993Y-706500D01*
X-6358000Y-706500D01*
X-6370500Y-719000D02*
X-6370457Y-717961D01*
X-6370105Y-715882D01*
X-6369368Y-713803D01*
X-6368164Y-711724D01*
X-6366323Y-709674D01*
X-6364244Y-708171D01*
X-6362165Y-707214D01*
X-6360086Y-706675D01*
X-6358007Y-706500D01*
X-6358000Y-706500D01*
X-6370500Y-719000D02*
X-6370457Y-720039D01*
X-6370105Y-722118D01*
X-6369368Y-724197D01*
X-6368164Y-726276D01*
X-6366323Y-728326D01*
X-6364244Y-729829D01*
X-6362165Y-730786D01*
X-6360086Y-731325D01*
X-6358007Y-731500D01*
X-6358000Y-731500D01*
X-6345500Y-719000D02*
X-6345543Y-720039D01*
X-6345895Y-722118D01*
X-6346632Y-724197D01*
X-6347836Y-726276D01*
X-6349677Y-728326D01*
X-6351756Y-729829D01*
X-6353835Y-730786D01*
X-6355914Y-731325D01*
X-6357993Y-731500D01*
X-6358000Y-731500D01*
D38*
X-6293000Y-736500D02*
X-6293000Y-714000D01*
X-5663000Y-714000D01*
X-5663000Y-736500D01*
X-6293000Y-1041500D02*
X-6293000Y-1064000D01*
X-5663000Y-1064000D01*
X-5663000Y-1041500D01*
D40*
X-6345500Y-1671500D02*
X-6345543Y-1670461D01*
X-6345895Y-1668382D01*
X-6346632Y-1666303D01*
X-6347836Y-1664224D01*
X-6349677Y-1662174D01*
X-6351756Y-1660671D01*
X-6353835Y-1659714D01*
X-6355914Y-1659175D01*
X-6357993Y-1659000D01*
X-6358000Y-1659000D01*
X-6370500Y-1671500D02*
X-6370457Y-1670461D01*
X-6370105Y-1668382D01*
X-6369368Y-1666303D01*
X-6368164Y-1664224D01*
X-6366323Y-1662174D01*
X-6364244Y-1660671D01*
X-6362165Y-1659714D01*
X-6360086Y-1659175D01*
X-6358007Y-1659000D01*
X-6358000Y-1659000D01*
X-6370500Y-1671500D02*
X-6370457Y-1672539D01*
X-6370105Y-1674618D01*
X-6369368Y-1676697D01*
X-6368164Y-1678776D01*
X-6366323Y-1680826D01*
X-6364244Y-1682329D01*
X-6362165Y-1683286D01*
X-6360086Y-1683825D01*
X-6358007Y-1684000D01*
X-6358000Y-1684000D01*
X-6345500Y-1671500D02*
X-6345543Y-1672539D01*
X-6345895Y-1674618D01*
X-6346632Y-1676697D01*
X-6347836Y-1678776D01*
X-6349677Y-1680826D01*
X-6351756Y-1682329D01*
X-6353835Y-1683286D01*
X-6355914Y-1683825D01*
X-6357993Y-1684000D01*
X-6358000Y-1684000D01*
D38*
X-6293000Y-1689000D02*
X-6293000Y-1666500D01*
X-5663000Y-1666500D01*
X-5663000Y-1689000D01*
X-6293000Y-1994000D02*
X-6293000Y-2016500D01*
X-5663000Y-2016500D01*
X-5663000Y-1994000D01*
D39*
X-4064000Y+1841500D02*
X-4064427Y+1851909D01*
X-4067899Y+1872728D01*
X-4075155Y+1893547D01*
X-4086983Y+1914366D01*
X-4105080Y+1935024D01*
X-4125899Y+1950545D01*
X-4146718Y+1960530D01*
X-4167537Y+1966314D01*
X-4188356Y+1968472D01*
X-4191000Y+1968500D01*
X-4318000Y+1841500D02*
X-4317573Y+1851909D01*
X-4314101Y+1872728D01*
X-4306845Y+1893547D01*
X-4295017Y+1914366D01*
X-4276920Y+1935024D01*
X-4256101Y+1950545D01*
X-4235282Y+1960530D01*
X-4214463Y+1966314D01*
X-4193644Y+1968472D01*
X-4191000Y+1968500D01*
X-4318000Y+1841500D02*
X-4317573Y+1831091D01*
X-4314101Y+1810272D01*
X-4306845Y+1789453D01*
X-4295017Y+1768634D01*
X-4276920Y+1747976D01*
X-4256101Y+1732455D01*
X-4235282Y+1722470D01*
X-4214463Y+1716686D01*
X-4193644Y+1714528D01*
X-4191000Y+1714500D01*
X-4064000Y+1841500D02*
X-4064427Y+1831091D01*
X-4067899Y+1810272D01*
X-4075155Y+1789453D01*
X-4086983Y+1768634D01*
X-4105080Y+1747976D01*
X-4125899Y+1732455D01*
X-4146718Y+1722470D01*
X-4167537Y+1716686D01*
X-4188356Y+1714528D01*
X-4191000Y+1714500D01*
X-4127500Y+1841500D02*
X-4127717Y+1846747D01*
X-4129482Y+1857242D01*
X-4133174Y+1867737D01*
X-4139202Y+1878232D01*
X-4148424Y+1888612D01*
X-4158919Y+1896300D01*
X-4169414Y+1901218D01*
X-4179909Y+1904024D01*
X-4190404Y+1904997D01*
X-4191000Y+1905000D01*
X-4254500Y+1841500D02*
X-4254283Y+1846747D01*
X-4252518Y+1857242D01*
X-4248826Y+1867737D01*
X-4242798Y+1878232D01*
X-4233576Y+1888612D01*
X-4223081Y+1896300D01*
X-4212586Y+1901218D01*
X-4202091Y+1904024D01*
X-4191596Y+1904997D01*
X-4191000Y+1905000D01*
X-4254500Y+1841500D02*
X-4254283Y+1836253D01*
X-4252518Y+1825758D01*
X-4248826Y+1815263D01*
X-4242798Y+1804768D01*
X-4233576Y+1794388D01*
X-4223081Y+1786700D01*
X-4212586Y+1781782D01*
X-4202091Y+1778976D01*
X-4191596Y+1778003D01*
X-4191000Y+1778000D01*
X-4127500Y+1841500D02*
X-4127717Y+1836253D01*
X-4129482Y+1825758D01*
X-4133174Y+1815263D01*
X-4139202Y+1804768D01*
X-4148424Y+1794388D01*
X-4158919Y+1786700D01*
X-4169414Y+1781782D01*
X-4179909Y+1778976D01*
X-4190404Y+1778003D01*
X-4191000Y+1778000D01*
X-4183380Y+2127250D02*
X-4168140Y+2111375D01*
X-4168140Y+2063750D01*
X-4198620Y+2032000D01*
X-4229100Y+2032000D01*
X-4259580Y+2063750D01*
X-4259580Y+2111375D01*
X-4244340Y+2127250D01*
X-4259580Y+2159000D02*
X-4259580Y+2254250D01*
X-4259580Y+2206625D02*
X-4168140Y+2206625D01*
X-4229100Y+2317750D02*
X-4259580Y+2349500D01*
X-4168140Y+2349500D01*
X-4213860Y+2413000D02*
X-4213860Y+2508250D01*
X-4244340Y+2460625D02*
X-4183380Y+2460625D01*
X-4508500Y+1841500D02*
X-4508927Y+1851909D01*
X-4512399Y+1872728D01*
X-4519655Y+1893547D01*
X-4531483Y+1914366D01*
X-4549580Y+1935024D01*
X-4570399Y+1950545D01*
X-4591218Y+1960530D01*
X-4612037Y+1966314D01*
X-4632856Y+1968472D01*
X-4635500Y+1968500D01*
X-4762500Y+1841500D02*
X-4762073Y+1851909D01*
X-4758601Y+1872728D01*
X-4751345Y+1893547D01*
X-4739517Y+1914366D01*
X-4721420Y+1935024D01*
X-4700601Y+1950545D01*
X-4679782Y+1960530D01*
X-4658963Y+1966314D01*
X-4638144Y+1968472D01*
X-4635500Y+1968500D01*
X-4762500Y+1841500D02*
X-4762073Y+1831091D01*
X-4758601Y+1810272D01*
X-4751345Y+1789453D01*
X-4739517Y+1768634D01*
X-4721420Y+1747976D01*
X-4700601Y+1732455D01*
X-4679782Y+1722470D01*
X-4658963Y+1716686D01*
X-4638144Y+1714528D01*
X-4635500Y+1714500D01*
X-4508500Y+1841500D02*
X-4508927Y+1831091D01*
X-4512399Y+1810272D01*
X-4519655Y+1789453D01*
X-4531483Y+1768634D01*
X-4549580Y+1747976D01*
X-4570399Y+1732455D01*
X-4591218Y+1722470D01*
X-4612037Y+1716686D01*
X-4632856Y+1714528D01*
X-4635500Y+1714500D01*
X-4572000Y+1841500D02*
X-4572217Y+1846747D01*
X-4573982Y+1857242D01*
X-4577674Y+1867737D01*
X-4583702Y+1878232D01*
X-4592924Y+1888612D01*
X-4603419Y+1896300D01*
X-4613914Y+1901218D01*
X-4624409Y+1904024D01*
X-4634904Y+1904997D01*
X-4635500Y+1905000D01*
X-4699000Y+1841500D02*
X-4698783Y+1846747D01*
X-4697018Y+1857242D01*
X-4693326Y+1867737D01*
X-4687298Y+1878232D01*
X-4678076Y+1888612D01*
X-4667581Y+1896300D01*
X-4657086Y+1901218D01*
X-4646591Y+1904024D01*
X-4636096Y+1904997D01*
X-4635500Y+1905000D01*
X-4699000Y+1841500D02*
X-4698783Y+1836253D01*
X-4697018Y+1825758D01*
X-4693326Y+1815263D01*
X-4687298Y+1804768D01*
X-4678076Y+1794388D01*
X-4667581Y+1786700D01*
X-4657086Y+1781782D01*
X-4646591Y+1778976D01*
X-4636096Y+1778003D01*
X-4635500Y+1778000D01*
X-4572000Y+1841500D02*
X-4572217Y+1836253D01*
X-4573982Y+1825758D01*
X-4577674Y+1815263D01*
X-4583702Y+1804768D01*
X-4592924Y+1794388D01*
X-4603419Y+1786700D01*
X-4613914Y+1781782D01*
X-4624409Y+1778976D01*
X-4634904Y+1778003D01*
X-4635500Y+1778000D01*
X-4627880Y+2127250D02*
X-4612640Y+2111375D01*
X-4612640Y+2063750D01*
X-4643120Y+2032000D01*
X-4673600Y+2032000D01*
X-4704080Y+2063750D01*
X-4704080Y+2111375D01*
X-4688840Y+2127250D01*
X-4704080Y+2159000D02*
X-4704080Y+2254250D01*
X-4704080Y+2206625D02*
X-4612640Y+2206625D01*
X-4673600Y+2317750D02*
X-4704080Y+2349500D01*
X-4612640Y+2349500D01*
X-4658360Y+2428875D02*
X-4658360Y+2508250D01*
X-2794000Y+1841500D02*
X-2794427Y+1851909D01*
X-2797899Y+1872728D01*
X-2805155Y+1893547D01*
X-2816983Y+1914366D01*
X-2835080Y+1935024D01*
X-2855899Y+1950545D01*
X-2876718Y+1960530D01*
X-2897537Y+1966314D01*
X-2918356Y+1968472D01*
X-2921000Y+1968500D01*
X-3048000Y+1841500D02*
X-3047573Y+1851909D01*
X-3044101Y+1872728D01*
X-3036845Y+1893547D01*
X-3025017Y+1914366D01*
X-3006920Y+1935024D01*
X-2986101Y+1950545D01*
X-2965282Y+1960530D01*
X-2944463Y+1966314D01*
X-2923644Y+1968472D01*
X-2921000Y+1968500D01*
X-3048000Y+1841500D02*
X-3047573Y+1831091D01*
X-3044101Y+1810272D01*
X-3036845Y+1789453D01*
X-3025017Y+1768634D01*
X-3006920Y+1747976D01*
X-2986101Y+1732455D01*
X-2965282Y+1722470D01*
X-2944463Y+1716686D01*
X-2923644Y+1714528D01*
X-2921000Y+1714500D01*
X-2794000Y+1841500D02*
X-2794427Y+1831091D01*
X-2797899Y+1810272D01*
X-2805155Y+1789453D01*
X-2816983Y+1768634D01*
X-2835080Y+1747976D01*
X-2855899Y+1732455D01*
X-2876718Y+1722470D01*
X-2897537Y+1716686D01*
X-2918356Y+1714528D01*
X-2921000Y+1714500D01*
X-2857500Y+1841500D02*
X-2857717Y+1846747D01*
X-2859482Y+1857242D01*
X-2863174Y+1867737D01*
X-2869202Y+1878232D01*
X-2878424Y+1888612D01*
X-2888919Y+1896300D01*
X-2899414Y+1901218D01*
X-2909909Y+1904024D01*
X-2920404Y+1904997D01*
X-2921000Y+1905000D01*
X-2984500Y+1841500D02*
X-2984283Y+1846747D01*
X-2982518Y+1857242D01*
X-2978826Y+1867737D01*
X-2972798Y+1878232D01*
X-2963576Y+1888612D01*
X-2953081Y+1896300D01*
X-2942586Y+1901218D01*
X-2932091Y+1904024D01*
X-2921596Y+1904997D01*
X-2921000Y+1905000D01*
X-2984500Y+1841500D02*
X-2984283Y+1836253D01*
X-2982518Y+1825758D01*
X-2978826Y+1815263D01*
X-2972798Y+1804768D01*
X-2963576Y+1794388D01*
X-2953081Y+1786700D01*
X-2942586Y+1781782D01*
X-2932091Y+1778976D01*
X-2921596Y+1778003D01*
X-2921000Y+1778000D01*
X-2857500Y+1841500D02*
X-2857717Y+1836253D01*
X-2859482Y+1825758D01*
X-2863174Y+1815263D01*
X-2869202Y+1804768D01*
X-2878424Y+1794388D01*
X-2888919Y+1786700D01*
X-2899414Y+1781782D01*
X-2909909Y+1778976D01*
X-2920404Y+1778003D01*
X-2921000Y+1778000D01*
X-2913380Y+2127250D02*
X-2898140Y+2111375D01*
X-2898140Y+2063750D01*
X-2928620Y+2032000D01*
X-2959100Y+2032000D01*
X-2989580Y+2063750D01*
X-2989580Y+2111375D01*
X-2974340Y+2127250D01*
X-2989580Y+2159000D02*
X-2989580Y+2254250D01*
X-2989580Y+2206625D02*
X-2898140Y+2206625D01*
X-2974340Y+2301875D02*
X-2989580Y+2317750D01*
X-2989580Y+2365375D01*
X-2974340Y+2381250D01*
X-2959100Y+2381250D01*
X-2943860Y+2365375D01*
X-2943860Y+2317750D01*
X-2928620Y+2301875D01*
X-2898140Y+2301875D01*
X-2898140Y+2381250D01*
X-2943860Y+2413000D02*
X-2943860Y+2508250D01*
X-2974340Y+2460625D02*
X-2913380Y+2460625D01*
X-3238500Y+1841500D02*
X-3238927Y+1851909D01*
X-3242399Y+1872728D01*
X-3249655Y+1893547D01*
X-3261483Y+1914366D01*
X-3279580Y+1935024D01*
X-3300399Y+1950545D01*
X-3321218Y+1960530D01*
X-3342037Y+1966314D01*
X-3362856Y+1968472D01*
X-3365500Y+1968500D01*
X-3492500Y+1841500D02*
X-3492073Y+1851909D01*
X-3488601Y+1872728D01*
X-3481345Y+1893547D01*
X-3469517Y+1914366D01*
X-3451420Y+1935024D01*
X-3430601Y+1950545D01*
X-3409782Y+1960530D01*
X-3388963Y+1966314D01*
X-3368144Y+1968472D01*
X-3365500Y+1968500D01*
X-3492500Y+1841500D02*
X-3492073Y+1831091D01*
X-3488601Y+1810272D01*
X-3481345Y+1789453D01*
X-3469517Y+1768634D01*
X-3451420Y+1747976D01*
X-3430601Y+1732455D01*
X-3409782Y+1722470D01*
X-3388963Y+1716686D01*
X-3368144Y+1714528D01*
X-3365500Y+1714500D01*
X-3238500Y+1841500D02*
X-3238927Y+1831091D01*
X-3242399Y+1810272D01*
X-3249655Y+1789453D01*
X-3261483Y+1768634D01*
X-3279580Y+1747976D01*
X-3300399Y+1732455D01*
X-3321218Y+1722470D01*
X-3342037Y+1716686D01*
X-3362856Y+1714528D01*
X-3365500Y+1714500D01*
X-3302000Y+1841500D02*
X-3302217Y+1846747D01*
X-3303982Y+1857242D01*
X-3307674Y+1867737D01*
X-3313702Y+1878232D01*
X-3322924Y+1888612D01*
X-3333419Y+1896300D01*
X-3343914Y+1901218D01*
X-3354409Y+1904024D01*
X-3364904Y+1904997D01*
X-3365500Y+1905000D01*
X-3429000Y+1841500D02*
X-3428783Y+1846747D01*
X-3427018Y+1857242D01*
X-3423326Y+1867737D01*
X-3417298Y+1878232D01*
X-3408076Y+1888612D01*
X-3397581Y+1896300D01*
X-3387086Y+1901218D01*
X-3376591Y+1904024D01*
X-3366096Y+1904997D01*
X-3365500Y+1905000D01*
X-3429000Y+1841500D02*
X-3428783Y+1836253D01*
X-3427018Y+1825758D01*
X-3423326Y+1815263D01*
X-3417298Y+1804768D01*
X-3408076Y+1794388D01*
X-3397581Y+1786700D01*
X-3387086Y+1781782D01*
X-3376591Y+1778976D01*
X-3366096Y+1778003D01*
X-3365500Y+1778000D01*
X-3302000Y+1841500D02*
X-3302217Y+1836253D01*
X-3303982Y+1825758D01*
X-3307674Y+1815263D01*
X-3313702Y+1804768D01*
X-3322924Y+1794388D01*
X-3333419Y+1786700D01*
X-3343914Y+1781782D01*
X-3354409Y+1778976D01*
X-3364904Y+1778003D01*
X-3365500Y+1778000D01*
X-3357880Y+2127250D02*
X-3342640Y+2111375D01*
X-3342640Y+2063750D01*
X-3373120Y+2032000D01*
X-3403600Y+2032000D01*
X-3434080Y+2063750D01*
X-3434080Y+2111375D01*
X-3418840Y+2127250D01*
X-3434080Y+2159000D02*
X-3434080Y+2254250D01*
X-3434080Y+2206625D02*
X-3342640Y+2206625D01*
X-3418840Y+2301875D02*
X-3434080Y+2317750D01*
X-3434080Y+2365375D01*
X-3418840Y+2381250D01*
X-3403600Y+2381250D01*
X-3388360Y+2365375D01*
X-3388360Y+2317750D01*
X-3373120Y+2301875D01*
X-3342640Y+2301875D01*
X-3342640Y+2381250D01*
X-3388360Y+2428875D02*
X-3388360Y+2508250D01*
X-4127500Y-3048000D02*
X-4127927Y-3037591D01*
X-4131399Y-3016772D01*
X-4138655Y-2995953D01*
X-4150483Y-2975134D01*
X-4168580Y-2954476D01*
X-4189399Y-2938955D01*
X-4210218Y-2928970D01*
X-4231037Y-2923186D01*
X-4251856Y-2921028D01*
X-4254500Y-2921000D01*
X-4381500Y-3048000D02*
X-4381073Y-3037591D01*
X-4377601Y-3016772D01*
X-4370345Y-2995953D01*
X-4358517Y-2975134D01*
X-4340420Y-2954476D01*
X-4319601Y-2938955D01*
X-4298782Y-2928970D01*
X-4277963Y-2923186D01*
X-4257144Y-2921028D01*
X-4254500Y-2921000D01*
X-4381500Y-3048000D02*
X-4381073Y-3058409D01*
X-4377601Y-3079228D01*
X-4370345Y-3100047D01*
X-4358517Y-3120866D01*
X-4340420Y-3141524D01*
X-4319601Y-3157045D01*
X-4298782Y-3167030D01*
X-4277963Y-3172814D01*
X-4257144Y-3174972D01*
X-4254500Y-3175000D01*
X-4127500Y-3048000D02*
X-4127927Y-3058409D01*
X-4131399Y-3079228D01*
X-4138655Y-3100047D01*
X-4150483Y-3120866D01*
X-4168580Y-3141524D01*
X-4189399Y-3157045D01*
X-4210218Y-3167030D01*
X-4231037Y-3172814D01*
X-4251856Y-3174972D01*
X-4254500Y-3175000D01*
X-4191000Y-3048000D02*
X-4191217Y-3042753D01*
X-4192982Y-3032258D01*
X-4196674Y-3021763D01*
X-4202702Y-3011268D01*
X-4211924Y-3000888D01*
X-4222419Y-2993200D01*
X-4232914Y-2988282D01*
X-4243409Y-2985476D01*
X-4253904Y-2984503D01*
X-4254500Y-2984500D01*
X-4318000Y-3048000D02*
X-4317783Y-3042753D01*
X-4316018Y-3032258D01*
X-4312326Y-3021763D01*
X-4306298Y-3011268D01*
X-4297076Y-3000888D01*
X-4286581Y-2993200D01*
X-4276086Y-2988282D01*
X-4265591Y-2985476D01*
X-4255096Y-2984503D01*
X-4254500Y-2984500D01*
X-4318000Y-3048000D02*
X-4317783Y-3053247D01*
X-4316018Y-3063742D01*
X-4312326Y-3074237D01*
X-4306298Y-3084732D01*
X-4297076Y-3095112D01*
X-4286581Y-3102800D01*
X-4276086Y-3107718D01*
X-4265591Y-3110524D01*
X-4255096Y-3111497D01*
X-4254500Y-3111500D01*
X-4191000Y-3048000D02*
X-4191217Y-3053247D01*
X-4192982Y-3063742D01*
X-4196674Y-3074237D01*
X-4202702Y-3084732D01*
X-4211924Y-3095112D01*
X-4222419Y-3102800D01*
X-4232914Y-3107718D01*
X-4243409Y-3110524D01*
X-4253904Y-3111497D01*
X-4254500Y-3111500D01*
X-5048250Y-3101340D02*
X-5064125Y-3116580D01*
X-5111750Y-3116580D01*
X-5143500Y-3086100D01*
X-5143500Y-3055620D01*
X-5111750Y-3025140D01*
X-5064125Y-3025140D01*
X-5048250Y-3040380D01*
X-5016500Y-3025140D02*
X-4921250Y-3025140D01*
X-4968875Y-3025140D02*
X-4968875Y-3116580D01*
X-4873625Y-3025140D02*
X-4810125Y-3025140D01*
X-4841875Y-3025140D02*
X-4841875Y-3116580D01*
X-4873625Y-3116580D02*
X-4810125Y-3116580D01*
X-4762500Y-3116580D02*
X-4762500Y-3025140D01*
X-4667250Y-3116580D01*
X-4667250Y-3025140D01*
X-4603750Y-3055620D02*
X-4572000Y-3025140D01*
X-4572000Y-3116580D01*
X-4127500Y-3302000D02*
X-4127927Y-3291591D01*
X-4131399Y-3270772D01*
X-4138655Y-3249953D01*
X-4150483Y-3229134D01*
X-4168580Y-3208476D01*
X-4189399Y-3192955D01*
X-4210218Y-3182970D01*
X-4231037Y-3177186D01*
X-4251856Y-3175028D01*
X-4254500Y-3175000D01*
X-4381500Y-3302000D02*
X-4381073Y-3291591D01*
X-4377601Y-3270772D01*
X-4370345Y-3249953D01*
X-4358517Y-3229134D01*
X-4340420Y-3208476D01*
X-4319601Y-3192955D01*
X-4298782Y-3182970D01*
X-4277963Y-3177186D01*
X-4257144Y-3175028D01*
X-4254500Y-3175000D01*
X-4381500Y-3302000D02*
X-4381073Y-3312409D01*
X-4377601Y-3333228D01*
X-4370345Y-3354047D01*
X-4358517Y-3374866D01*
X-4340420Y-3395524D01*
X-4319601Y-3411045D01*
X-4298782Y-3421030D01*
X-4277963Y-3426814D01*
X-4257144Y-3428972D01*
X-4254500Y-3429000D01*
X-4127500Y-3302000D02*
X-4127927Y-3312409D01*
X-4131399Y-3333228D01*
X-4138655Y-3354047D01*
X-4150483Y-3374866D01*
X-4168580Y-3395524D01*
X-4189399Y-3411045D01*
X-4210218Y-3421030D01*
X-4231037Y-3426814D01*
X-4251856Y-3428972D01*
X-4254500Y-3429000D01*
X-4191000Y-3302000D02*
X-4191217Y-3296753D01*
X-4192982Y-3286258D01*
X-4196674Y-3275763D01*
X-4202702Y-3265268D01*
X-4211924Y-3254888D01*
X-4222419Y-3247200D01*
X-4232914Y-3242282D01*
X-4243409Y-3239476D01*
X-4253904Y-3238503D01*
X-4254500Y-3238500D01*
X-4318000Y-3302000D02*
X-4317783Y-3296753D01*
X-4316018Y-3286258D01*
X-4312326Y-3275763D01*
X-4306298Y-3265268D01*
X-4297076Y-3254888D01*
X-4286581Y-3247200D01*
X-4276086Y-3242282D01*
X-4265591Y-3239476D01*
X-4255096Y-3238503D01*
X-4254500Y-3238500D01*
X-4318000Y-3302000D02*
X-4317783Y-3307247D01*
X-4316018Y-3317742D01*
X-4312326Y-3328237D01*
X-4306298Y-3338732D01*
X-4297076Y-3349112D01*
X-4286581Y-3356800D01*
X-4276086Y-3361718D01*
X-4265591Y-3364524D01*
X-4255096Y-3365497D01*
X-4254500Y-3365500D01*
X-4191000Y-3302000D02*
X-4191217Y-3307247D01*
X-4192982Y-3317742D01*
X-4196674Y-3328237D01*
X-4202702Y-3338732D01*
X-4211924Y-3349112D01*
X-4222419Y-3356800D01*
X-4232914Y-3361718D01*
X-4243409Y-3364524D01*
X-4253904Y-3365497D01*
X-4254500Y-3365500D01*
X-4984750Y-3355340D02*
X-5000625Y-3370580D01*
X-5048250Y-3370580D01*
X-5080000Y-3340100D01*
X-5080000Y-3309620D01*
X-5048250Y-3279140D01*
X-5000625Y-3279140D01*
X-4984750Y-3294380D01*
X-4953000Y-3279140D02*
X-4857750Y-3279140D01*
X-4905375Y-3279140D02*
X-4905375Y-3370580D01*
X-4810125Y-3279140D02*
X-4746625Y-3279140D01*
X-4778375Y-3279140D02*
X-4778375Y-3370580D01*
X-4810125Y-3370580D02*
X-4746625Y-3370580D01*
X-4699000Y-3370580D02*
X-4699000Y-3279140D01*
X-4603750Y-3370580D01*
X-4603750Y-3279140D01*
X-4556125Y-3294380D02*
X-4540250Y-3279140D01*
X-4492625Y-3279140D01*
X-4476750Y-3294380D01*
X-4476750Y-3309620D01*
X-4492625Y-3324860D01*
X-4540250Y-3324860D01*
X-4556125Y-3340100D01*
X-4556125Y-3370580D01*
X-4476750Y-3370580D01*
X+3873500Y+2095500D02*
X+3873073Y+2105909D01*
X+3869601Y+2126728D01*
X+3862345Y+2147547D01*
X+3850517Y+2168366D01*
X+3832420Y+2189024D01*
X+3811601Y+2204545D01*
X+3790782Y+2214530D01*
X+3769963Y+2220314D01*
X+3749144Y+2222472D01*
X+3746500Y+2222500D01*
X+3619500Y+2095500D02*
X+3619927Y+2105909D01*
X+3623399Y+2126728D01*
X+3630655Y+2147547D01*
X+3642483Y+2168366D01*
X+3660580Y+2189024D01*
X+3681399Y+2204545D01*
X+3702218Y+2214530D01*
X+3723037Y+2220314D01*
X+3743856Y+2222472D01*
X+3746500Y+2222500D01*
X+3619500Y+2095500D02*
X+3619927Y+2085091D01*
X+3623399Y+2064272D01*
X+3630655Y+2043453D01*
X+3642483Y+2022634D01*
X+3660580Y+2001976D01*
X+3681399Y+1986455D01*
X+3702218Y+1976470D01*
X+3723037Y+1970686D01*
X+3743856Y+1968528D01*
X+3746500Y+1968500D01*
X+3873500Y+2095500D02*
X+3873073Y+2085091D01*
X+3869601Y+2064272D01*
X+3862345Y+2043453D01*
X+3850517Y+2022634D01*
X+3832420Y+2001976D01*
X+3811601Y+1986455D01*
X+3790782Y+1976470D01*
X+3769963Y+1970686D01*
X+3749144Y+1968528D01*
X+3746500Y+1968500D01*
X+3810000Y+2095500D02*
X+3809783Y+2100747D01*
X+3808018Y+2111242D01*
X+3804326Y+2121737D01*
X+3798298Y+2132232D01*
X+3789076Y+2142612D01*
X+3778581Y+2150300D01*
X+3768086Y+2155218D01*
X+3757591Y+2158024D01*
X+3747096Y+2158997D01*
X+3746500Y+2159000D01*
X+3683000Y+2095500D02*
X+3683217Y+2100747D01*
X+3684982Y+2111242D01*
X+3688674Y+2121737D01*
X+3694702Y+2132232D01*
X+3703924Y+2142612D01*
X+3714419Y+2150300D01*
X+3724914Y+2155218D01*
X+3735409Y+2158024D01*
X+3745904Y+2158997D01*
X+3746500Y+2159000D01*
X+3683000Y+2095500D02*
X+3683217Y+2090253D01*
X+3684982Y+2079758D01*
X+3688674Y+2069263D01*
X+3694702Y+2058768D01*
X+3703924Y+2048388D01*
X+3714419Y+2040700D01*
X+3724914Y+2035782D01*
X+3735409Y+2032976D01*
X+3745904Y+2032003D01*
X+3746500Y+2032000D01*
X+3810000Y+2095500D02*
X+3809783Y+2090253D01*
X+3808018Y+2079758D01*
X+3804326Y+2069263D01*
X+3798298Y+2058768D01*
X+3789076Y+2048388D01*
X+3778581Y+2040700D01*
X+3768086Y+2035782D01*
X+3757591Y+2032976D01*
X+3747096Y+2032003D01*
X+3746500Y+2032000D01*
X+3545840Y+2286000D02*
X+3561080Y+2301875D01*
X+3561080Y+2365375D01*
X+3545840Y+2381250D01*
X+3530600Y+2381250D01*
X+3515360Y+2365375D01*
X+3515360Y+2301875D01*
X+3500120Y+2286000D01*
X+3484880Y+2286000D01*
X+3469640Y+2301875D01*
X+3469640Y+2365375D01*
X+3484880Y+2381250D01*
X+3500120Y+2444750D02*
X+3469640Y+2476500D01*
X+3561080Y+2476500D01*
X+3530600Y+2603500D02*
X+3530600Y+2635250D01*
X+3561080Y+2635250D01*
X+3561080Y+2571750D01*
X+3530600Y+2540000D01*
X+3500120Y+2540000D01*
X+3469640Y+2571750D01*
X+3469640Y+2619375D01*
X+3484880Y+2635250D01*
X+3576320Y+2667000D02*
X+3576320Y+2762250D01*
X+3500120Y+2825750D02*
X+3469640Y+2857500D01*
X+3561080Y+2857500D01*
X+3545840Y+2921000D02*
X+3484880Y+2921000D01*
X+3469640Y+2936875D01*
X+3469640Y+3000375D01*
X+3484880Y+3016250D01*
X+3545840Y+3016250D01*
X+3561080Y+3000375D01*
X+3561080Y+2936875D01*
X+3545840Y+2921000D01*
X+3561080Y+2921000D02*
X+3469640Y+3016250D01*
X+3469640Y+3048000D02*
X+3515360Y+3048000D01*
X+3561080Y+3095625D01*
X+3515360Y+3143250D01*
X+3469640Y+3143250D01*
X+2730500Y-3175000D02*
X+2730073Y-3164591D01*
X+2726601Y-3143772D01*
X+2719345Y-3122953D01*
X+2707517Y-3102134D01*
X+2689420Y-3081476D01*
X+2668601Y-3065955D01*
X+2647782Y-3055970D01*
X+2626963Y-3050186D01*
X+2606144Y-3048028D01*
X+2603500Y-3048000D01*
X+2476500Y-3175000D02*
X+2476927Y-3164591D01*
X+2480399Y-3143772D01*
X+2487655Y-3122953D01*
X+2499483Y-3102134D01*
X+2517580Y-3081476D01*
X+2538399Y-3065955D01*
X+2559218Y-3055970D01*
X+2580037Y-3050186D01*
X+2600856Y-3048028D01*
X+2603500Y-3048000D01*
X+2476500Y-3175000D02*
X+2476927Y-3185409D01*
X+2480399Y-3206228D01*
X+2487655Y-3227047D01*
X+2499483Y-3247866D01*
X+2517580Y-3268524D01*
X+2538399Y-3284045D01*
X+2559218Y-3294030D01*
X+2580037Y-3299814D01*
X+2600856Y-3301972D01*
X+2603500Y-3302000D01*
X+2730500Y-3175000D02*
X+2730073Y-3185409D01*
X+2726601Y-3206228D01*
X+2719345Y-3227047D01*
X+2707517Y-3247866D01*
X+2689420Y-3268524D01*
X+2668601Y-3284045D01*
X+2647782Y-3294030D01*
X+2626963Y-3299814D01*
X+2606144Y-3301972D01*
X+2603500Y-3302000D01*
X+2667000Y-3175000D02*
X+2666783Y-3169753D01*
X+2665018Y-3159258D01*
X+2661326Y-3148763D01*
X+2655298Y-3138268D01*
X+2646076Y-3127888D01*
X+2635581Y-3120200D01*
X+2625086Y-3115282D01*
X+2614591Y-3112476D01*
X+2604096Y-3111503D01*
X+2603500Y-3111500D01*
X+2540000Y-3175000D02*
X+2540217Y-3169753D01*
X+2541982Y-3159258D01*
X+2545674Y-3148763D01*
X+2551702Y-3138268D01*
X+2560924Y-3127888D01*
X+2571419Y-3120200D01*
X+2581914Y-3115282D01*
X+2592409Y-3112476D01*
X+2602904Y-3111503D01*
X+2603500Y-3111500D01*
X+2540000Y-3175000D02*
X+2540217Y-3180247D01*
X+2541982Y-3190742D01*
X+2545674Y-3201237D01*
X+2551702Y-3211732D01*
X+2560924Y-3222112D01*
X+2571419Y-3229800D01*
X+2581914Y-3234718D01*
X+2592409Y-3237524D01*
X+2602904Y-3238497D01*
X+2603500Y-3238500D01*
X+2667000Y-3175000D02*
X+2666783Y-3180247D01*
X+2665018Y-3190742D01*
X+2661326Y-3201237D01*
X+2655298Y-3211732D01*
X+2646076Y-3222112D01*
X+2635581Y-3229800D01*
X+2625086Y-3234718D01*
X+2614591Y-3237524D01*
X+2604096Y-3238497D01*
X+2603500Y-3238500D01*
X+1651000Y-3164840D02*
X+1666875Y-3180080D01*
X+1730375Y-3180080D01*
X+1746250Y-3164840D01*
X+1746250Y-3149600D01*
X+1730375Y-3134360D01*
X+1666875Y-3134360D01*
X+1651000Y-3119120D01*
X+1651000Y-3103880D01*
X+1666875Y-3088640D01*
X+1730375Y-3088640D01*
X+1746250Y-3103880D01*
X+1809750Y-3119120D02*
X+1841500Y-3088640D01*
X+1841500Y-3180080D01*
X+1905000Y-3119120D02*
X+1936750Y-3088640D01*
X+1968500Y-3088640D01*
X+2000250Y-3119120D01*
X+2000250Y-3149600D01*
X+1968500Y-3180080D01*
X+1936750Y-3180080D01*
X+1905000Y-3149600D01*
X+1905000Y-3119120D01*
X+2032000Y-3195320D02*
X+2127250Y-3195320D01*
X+2254250Y-3088640D02*
X+2174875Y-3088640D01*
X+2174875Y-3119120D01*
X+2238375Y-3119120D01*
X+2254250Y-3134360D01*
X+2254250Y-3164840D01*
X+2238375Y-3180080D01*
X+2190750Y-3180080D01*
X+2174875Y-3164840D01*
X+2286000Y-3088640D02*
X+2286000Y-3134360D01*
X+2333625Y-3180080D01*
X+2381250Y-3134360D01*
X+2381250Y-3088640D01*
X+3873500Y+1841500D02*
X+3873073Y+1851909D01*
X+3869601Y+1872728D01*
X+3862345Y+1893547D01*
X+3850517Y+1914366D01*
X+3832420Y+1935024D01*
X+3811601Y+1950545D01*
X+3790782Y+1960530D01*
X+3769963Y+1966314D01*
X+3749144Y+1968472D01*
X+3746500Y+1968500D01*
X+3619500Y+1841500D02*
X+3619927Y+1851909D01*
X+3623399Y+1872728D01*
X+3630655Y+1893547D01*
X+3642483Y+1914366D01*
X+3660580Y+1935024D01*
X+3681399Y+1950545D01*
X+3702218Y+1960530D01*
X+3723037Y+1966314D01*
X+3743856Y+1968472D01*
X+3746500Y+1968500D01*
X+3619500Y+1841500D02*
X+3619927Y+1831091D01*
X+3623399Y+1810272D01*
X+3630655Y+1789453D01*
X+3642483Y+1768634D01*
X+3660580Y+1747976D01*
X+3681399Y+1732455D01*
X+3702218Y+1722470D01*
X+3723037Y+1716686D01*
X+3743856Y+1714528D01*
X+3746500Y+1714500D01*
X+3873500Y+1841500D02*
X+3873073Y+1831091D01*
X+3869601Y+1810272D01*
X+3862345Y+1789453D01*
X+3850517Y+1768634D01*
X+3832420Y+1747976D01*
X+3811601Y+1732455D01*
X+3790782Y+1722470D01*
X+3769963Y+1716686D01*
X+3749144Y+1714528D01*
X+3746500Y+1714500D01*
X+3810000Y+1841500D02*
X+3809783Y+1846747D01*
X+3808018Y+1857242D01*
X+3804326Y+1867737D01*
X+3798298Y+1878232D01*
X+3789076Y+1888612D01*
X+3778581Y+1896300D01*
X+3768086Y+1901218D01*
X+3757591Y+1904024D01*
X+3747096Y+1904997D01*
X+3746500Y+1905000D01*
X+3683000Y+1841500D02*
X+3683217Y+1846747D01*
X+3684982Y+1857242D01*
X+3688674Y+1867737D01*
X+3694702Y+1878232D01*
X+3703924Y+1888612D01*
X+3714419Y+1896300D01*
X+3724914Y+1901218D01*
X+3735409Y+1904024D01*
X+3745904Y+1904997D01*
X+3746500Y+1905000D01*
X+3683000Y+1841500D02*
X+3683217Y+1836253D01*
X+3684982Y+1825758D01*
X+3688674Y+1815263D01*
X+3694702Y+1804768D01*
X+3703924Y+1794388D01*
X+3714419Y+1786700D01*
X+3724914Y+1781782D01*
X+3735409Y+1778976D01*
X+3745904Y+1778003D01*
X+3746500Y+1778000D01*
X+3810000Y+1841500D02*
X+3809783Y+1836253D01*
X+3808018Y+1825758D01*
X+3804326Y+1815263D01*
X+3798298Y+1804768D01*
X+3789076Y+1794388D01*
X+3778581Y+1786700D01*
X+3768086Y+1781782D01*
X+3757591Y+1778976D01*
X+3747096Y+1778003D01*
X+3746500Y+1778000D01*
X+3355340Y+2286000D02*
X+3370580Y+2301875D01*
X+3370580Y+2365375D01*
X+3355340Y+2381250D01*
X+3340100Y+2381250D01*
X+3324860Y+2365375D01*
X+3324860Y+2301875D01*
X+3309620Y+2286000D01*
X+3294380Y+2286000D01*
X+3279140Y+2301875D01*
X+3279140Y+2365375D01*
X+3294380Y+2381250D01*
X+3309620Y+2444750D02*
X+3279140Y+2476500D01*
X+3370580Y+2476500D01*
X+3385820Y+2540000D02*
X+3385820Y+2635250D01*
X+3309620Y+2698750D02*
X+3279140Y+2730500D01*
X+3370580Y+2730500D01*
X+3355340Y+2794000D02*
X+3294380Y+2794000D01*
X+3279140Y+2809875D01*
X+3279140Y+2873375D01*
X+3294380Y+2889250D01*
X+3355340Y+2889250D01*
X+3370580Y+2873375D01*
X+3370580Y+2809875D01*
X+3355340Y+2794000D01*
X+3370580Y+2794000D02*
X+3279140Y+2889250D01*
X+3279140Y+2921000D02*
X+3324860Y+2921000D01*
X+3370580Y+2968625D01*
X+3324860Y+3016250D01*
X+3279140Y+3016250D01*
X+4127500Y+2095500D02*
X+4127073Y+2105909D01*
X+4123601Y+2126728D01*
X+4116345Y+2147547D01*
X+4104517Y+2168366D01*
X+4086420Y+2189024D01*
X+4065601Y+2204545D01*
X+4044782Y+2214530D01*
X+4023963Y+2220314D01*
X+4003144Y+2222472D01*
X+4000500Y+2222500D01*
X+3873500Y+2095500D02*
X+3873927Y+2105909D01*
X+3877399Y+2126728D01*
X+3884655Y+2147547D01*
X+3896483Y+2168366D01*
X+3914580Y+2189024D01*
X+3935399Y+2204545D01*
X+3956218Y+2214530D01*
X+3977037Y+2220314D01*
X+3997856Y+2222472D01*
X+4000500Y+2222500D01*
X+3873500Y+2095500D02*
X+3873927Y+2085091D01*
X+3877399Y+2064272D01*
X+3884655Y+2043453D01*
X+3896483Y+2022634D01*
X+3914580Y+2001976D01*
X+3935399Y+1986455D01*
X+3956218Y+1976470D01*
X+3977037Y+1970686D01*
X+3997856Y+1968528D01*
X+4000500Y+1968500D01*
X+4127500Y+2095500D02*
X+4127073Y+2085091D01*
X+4123601Y+2064272D01*
X+4116345Y+2043453D01*
X+4104517Y+2022634D01*
X+4086420Y+2001976D01*
X+4065601Y+1986455D01*
X+4044782Y+1976470D01*
X+4023963Y+1970686D01*
X+4003144Y+1968528D01*
X+4000500Y+1968500D01*
X+4064000Y+2095500D02*
X+4063783Y+2100747D01*
X+4062018Y+2111242D01*
X+4058326Y+2121737D01*
X+4052298Y+2132232D01*
X+4043076Y+2142612D01*
X+4032581Y+2150300D01*
X+4022086Y+2155218D01*
X+4011591Y+2158024D01*
X+4001096Y+2158997D01*
X+4000500Y+2159000D01*
X+3937000Y+2095500D02*
X+3937217Y+2100747D01*
X+3938982Y+2111242D01*
X+3942674Y+2121737D01*
X+3948702Y+2132232D01*
X+3957924Y+2142612D01*
X+3968419Y+2150300D01*
X+3978914Y+2155218D01*
X+3989409Y+2158024D01*
X+3999904Y+2158997D01*
X+4000500Y+2159000D01*
X+3937000Y+2095500D02*
X+3937217Y+2090253D01*
X+3938982Y+2079758D01*
X+3942674Y+2069263D01*
X+3948702Y+2058768D01*
X+3957924Y+2048388D01*
X+3968419Y+2040700D01*
X+3978914Y+2035782D01*
X+3989409Y+2032976D01*
X+3999904Y+2032003D01*
X+4000500Y+2032000D01*
X+4064000Y+2095500D02*
X+4063783Y+2090253D01*
X+4062018Y+2079758D01*
X+4058326Y+2069263D01*
X+4052298Y+2058768D01*
X+4043076Y+2048388D01*
X+4032581Y+2040700D01*
X+4022086Y+2035782D01*
X+4011591Y+2032976D01*
X+4001096Y+2032003D01*
X+4000500Y+2032000D01*
X+3926840Y+2286000D02*
X+3942080Y+2301875D01*
X+3942080Y+2365375D01*
X+3926840Y+2381250D01*
X+3911600Y+2381250D01*
X+3896360Y+2365375D01*
X+3896360Y+2301875D01*
X+3881120Y+2286000D01*
X+3865880Y+2286000D01*
X+3850640Y+2301875D01*
X+3850640Y+2365375D01*
X+3865880Y+2381250D01*
X+3865880Y+2428875D02*
X+3850640Y+2444750D01*
X+3850640Y+2492375D01*
X+3865880Y+2508250D01*
X+3881120Y+2508250D01*
X+3896360Y+2492375D01*
X+3896360Y+2444750D01*
X+3911600Y+2428875D01*
X+3942080Y+2428875D01*
X+3942080Y+2508250D01*
X+3911600Y+2603500D02*
X+3911600Y+2635250D01*
X+3942080Y+2635250D01*
X+3942080Y+2571750D01*
X+3911600Y+2540000D01*
X+3881120Y+2540000D01*
X+3850640Y+2571750D01*
X+3850640Y+2619375D01*
X+3865880Y+2635250D01*
X+3957320Y+2667000D02*
X+3957320Y+2762250D01*
X+3881120Y+2825750D02*
X+3850640Y+2857500D01*
X+3942080Y+2857500D01*
X+3926840Y+2921000D02*
X+3865880Y+2921000D01*
X+3850640Y+2936875D01*
X+3850640Y+3000375D01*
X+3865880Y+3016250D01*
X+3926840Y+3016250D01*
X+3942080Y+3000375D01*
X+3942080Y+2936875D01*
X+3926840Y+2921000D01*
X+3942080Y+2921000D02*
X+3850640Y+3016250D01*
X+3850640Y+3048000D02*
X+3896360Y+3048000D01*
X+3942080Y+3095625D01*
X+3896360Y+3143250D01*
X+3850640Y+3143250D01*
X+2730500Y-3429000D02*
X+2730073Y-3418591D01*
X+2726601Y-3397772D01*
X+2719345Y-3376953D01*
X+2707517Y-3356134D01*
X+2689420Y-3335476D01*
X+2668601Y-3319955D01*
X+2647782Y-3309970D01*
X+2626963Y-3304186D01*
X+2606144Y-3302028D01*
X+2603500Y-3302000D01*
X+2476500Y-3429000D02*
X+2476927Y-3418591D01*
X+2480399Y-3397772D01*
X+2487655Y-3376953D01*
X+2499483Y-3356134D01*
X+2517580Y-3335476D01*
X+2538399Y-3319955D01*
X+2559218Y-3309970D01*
X+2580037Y-3304186D01*
X+2600856Y-3302028D01*
X+2603500Y-3302000D01*
X+2476500Y-3429000D02*
X+2476927Y-3439409D01*
X+2480399Y-3460228D01*
X+2487655Y-3481047D01*
X+2499483Y-3501866D01*
X+2517580Y-3522524D01*
X+2538399Y-3538045D01*
X+2559218Y-3548030D01*
X+2580037Y-3553814D01*
X+2600856Y-3555972D01*
X+2603500Y-3556000D01*
X+2730500Y-3429000D02*
X+2730073Y-3439409D01*
X+2726601Y-3460228D01*
X+2719345Y-3481047D01*
X+2707517Y-3501866D01*
X+2689420Y-3522524D01*
X+2668601Y-3538045D01*
X+2647782Y-3548030D01*
X+2626963Y-3553814D01*
X+2606144Y-3555972D01*
X+2603500Y-3556000D01*
X+2667000Y-3429000D02*
X+2666783Y-3423753D01*
X+2665018Y-3413258D01*
X+2661326Y-3402763D01*
X+2655298Y-3392268D01*
X+2646076Y-3381888D01*
X+2635581Y-3374200D01*
X+2625086Y-3369282D01*
X+2614591Y-3366476D01*
X+2604096Y-3365503D01*
X+2603500Y-3365500D01*
X+2540000Y-3429000D02*
X+2540217Y-3423753D01*
X+2541982Y-3413258D01*
X+2545674Y-3402763D01*
X+2551702Y-3392268D01*
X+2560924Y-3381888D01*
X+2571419Y-3374200D01*
X+2581914Y-3369282D01*
X+2592409Y-3366476D01*
X+2602904Y-3365503D01*
X+2603500Y-3365500D01*
X+2540000Y-3429000D02*
X+2540217Y-3434247D01*
X+2541982Y-3444742D01*
X+2545674Y-3455237D01*
X+2551702Y-3465732D01*
X+2560924Y-3476112D01*
X+2571419Y-3483800D01*
X+2581914Y-3488718D01*
X+2592409Y-3491524D01*
X+2602904Y-3492497D01*
X+2603500Y-3492500D01*
X+2667000Y-3429000D02*
X+2666783Y-3434247D01*
X+2665018Y-3444742D01*
X+2661326Y-3455237D01*
X+2655298Y-3465732D01*
X+2646076Y-3476112D01*
X+2635581Y-3483800D01*
X+2625086Y-3488718D01*
X+2614591Y-3491524D01*
X+2604096Y-3492497D01*
X+2603500Y-3492500D01*
X+1651000Y-3418840D02*
X+1666875Y-3434080D01*
X+1730375Y-3434080D01*
X+1746250Y-3418840D01*
X+1746250Y-3403600D01*
X+1730375Y-3388360D01*
X+1666875Y-3388360D01*
X+1651000Y-3373120D01*
X+1651000Y-3357880D01*
X+1666875Y-3342640D01*
X+1730375Y-3342640D01*
X+1746250Y-3357880D01*
X+1793875Y-3357880D02*
X+1809750Y-3342640D01*
X+1857375Y-3342640D01*
X+1873250Y-3357880D01*
X+1873250Y-3373120D01*
X+1857375Y-3388360D01*
X+1809750Y-3388360D01*
X+1793875Y-3403600D01*
X+1793875Y-3434080D01*
X+1873250Y-3434080D01*
X+1905000Y-3373120D02*
X+1936750Y-3342640D01*
X+1968500Y-3342640D01*
X+2000250Y-3373120D01*
X+2000250Y-3403600D01*
X+1968500Y-3434080D01*
X+1936750Y-3434080D01*
X+1905000Y-3403600D01*
X+1905000Y-3373120D01*
X+2032000Y-3449320D02*
X+2127250Y-3449320D01*
X+2254250Y-3342640D02*
X+2174875Y-3342640D01*
X+2174875Y-3373120D01*
X+2238375Y-3373120D01*
X+2254250Y-3388360D01*
X+2254250Y-3418840D01*
X+2238375Y-3434080D01*
X+2190750Y-3434080D01*
X+2174875Y-3418840D01*
X+2286000Y-3342640D02*
X+2286000Y-3388360D01*
X+2333625Y-3434080D01*
X+2381250Y-3388360D01*
X+2381250Y-3342640D01*
X+4127500Y+1841500D02*
X+4127073Y+1851909D01*
X+4123601Y+1872728D01*
X+4116345Y+1893547D01*
X+4104517Y+1914366D01*
X+4086420Y+1935024D01*
X+4065601Y+1950545D01*
X+4044782Y+1960530D01*
X+4023963Y+1966314D01*
X+4003144Y+1968472D01*
X+4000500Y+1968500D01*
X+3873500Y+1841500D02*
X+3873927Y+1851909D01*
X+3877399Y+1872728D01*
X+3884655Y+1893547D01*
X+3896483Y+1914366D01*
X+3914580Y+1935024D01*
X+3935399Y+1950545D01*
X+3956218Y+1960530D01*
X+3977037Y+1966314D01*
X+3997856Y+1968472D01*
X+4000500Y+1968500D01*
X+3873500Y+1841500D02*
X+3873927Y+1831091D01*
X+3877399Y+1810272D01*
X+3884655Y+1789453D01*
X+3896483Y+1768634D01*
X+3914580Y+1747976D01*
X+3935399Y+1732455D01*
X+3956218Y+1722470D01*
X+3977037Y+1716686D01*
X+3997856Y+1714528D01*
X+4000500Y+1714500D01*
X+4127500Y+1841500D02*
X+4127073Y+1831091D01*
X+4123601Y+1810272D01*
X+4116345Y+1789453D01*
X+4104517Y+1768634D01*
X+4086420Y+1747976D01*
X+4065601Y+1732455D01*
X+4044782Y+1722470D01*
X+4023963Y+1716686D01*
X+4003144Y+1714528D01*
X+4000500Y+1714500D01*
X+4064000Y+1841500D02*
X+4063783Y+1846747D01*
X+4062018Y+1857242D01*
X+4058326Y+1867737D01*
X+4052298Y+1878232D01*
X+4043076Y+1888612D01*
X+4032581Y+1896300D01*
X+4022086Y+1901218D01*
X+4011591Y+1904024D01*
X+4001096Y+1904997D01*
X+4000500Y+1905000D01*
X+3937000Y+1841500D02*
X+3937217Y+1846747D01*
X+3938982Y+1857242D01*
X+3942674Y+1867737D01*
X+3948702Y+1878232D01*
X+3957924Y+1888612D01*
X+3968419Y+1896300D01*
X+3978914Y+1901218D01*
X+3989409Y+1904024D01*
X+3999904Y+1904997D01*
X+4000500Y+1905000D01*
X+3937000Y+1841500D02*
X+3937217Y+1836253D01*
X+3938982Y+1825758D01*
X+3942674Y+1815263D01*
X+3948702Y+1804768D01*
X+3957924Y+1794388D01*
X+3968419Y+1786700D01*
X+3978914Y+1781782D01*
X+3989409Y+1778976D01*
X+3999904Y+1778003D01*
X+4000500Y+1778000D01*
X+4064000Y+1841500D02*
X+4063783Y+1836253D01*
X+4062018Y+1825758D01*
X+4058326Y+1815263D01*
X+4052298Y+1804768D01*
X+4043076Y+1794388D01*
X+4032581Y+1786700D01*
X+4022086Y+1781782D01*
X+4011591Y+1778976D01*
X+4001096Y+1778003D01*
X+4000500Y+1778000D01*
X+3736340Y+2286000D02*
X+3751580Y+2301875D01*
X+3751580Y+2365375D01*
X+3736340Y+2381250D01*
X+3721100Y+2381250D01*
X+3705860Y+2365375D01*
X+3705860Y+2301875D01*
X+3690620Y+2286000D01*
X+3675380Y+2286000D01*
X+3660140Y+2301875D01*
X+3660140Y+2365375D01*
X+3675380Y+2381250D01*
X+3675380Y+2428875D02*
X+3660140Y+2444750D01*
X+3660140Y+2492375D01*
X+3675380Y+2508250D01*
X+3690620Y+2508250D01*
X+3705860Y+2492375D01*
X+3705860Y+2444750D01*
X+3721100Y+2428875D01*
X+3751580Y+2428875D01*
X+3751580Y+2508250D01*
X+3766820Y+2540000D02*
X+3766820Y+2635250D01*
X+3690620Y+2698750D02*
X+3660140Y+2730500D01*
X+3751580Y+2730500D01*
X+3736340Y+2794000D02*
X+3675380Y+2794000D01*
X+3660140Y+2809875D01*
X+3660140Y+2873375D01*
X+3675380Y+2889250D01*
X+3736340Y+2889250D01*
X+3751580Y+2873375D01*
X+3751580Y+2809875D01*
X+3736340Y+2794000D01*
X+3751580Y+2794000D02*
X+3660140Y+2889250D01*
X+3660140Y+2921000D02*
X+3705860Y+2921000D01*
X+3751580Y+2968625D01*
X+3705860Y+3016250D01*
X+3660140Y+3016250D01*
X+4381500Y+2095500D02*
X+4381073Y+2105909D01*
X+4377601Y+2126728D01*
X+4370345Y+2147547D01*
X+4358517Y+2168366D01*
X+4340420Y+2189024D01*
X+4319601Y+2204545D01*
X+4298782Y+2214530D01*
X+4277963Y+2220314D01*
X+4257144Y+2222472D01*
X+4254500Y+2222500D01*
X+4127500Y+2095500D02*
X+4127927Y+2105909D01*
X+4131399Y+2126728D01*
X+4138655Y+2147547D01*
X+4150483Y+2168366D01*
X+4168580Y+2189024D01*
X+4189399Y+2204545D01*
X+4210218Y+2214530D01*
X+4231037Y+2220314D01*
X+4251856Y+2222472D01*
X+4254500Y+2222500D01*
X+4127500Y+2095500D02*
X+4127927Y+2085091D01*
X+4131399Y+2064272D01*
X+4138655Y+2043453D01*
X+4150483Y+2022634D01*
X+4168580Y+2001976D01*
X+4189399Y+1986455D01*
X+4210218Y+1976470D01*
X+4231037Y+1970686D01*
X+4251856Y+1968528D01*
X+4254500Y+1968500D01*
X+4381500Y+2095500D02*
X+4381073Y+2085091D01*
X+4377601Y+2064272D01*
X+4370345Y+2043453D01*
X+4358517Y+2022634D01*
X+4340420Y+2001976D01*
X+4319601Y+1986455D01*
X+4298782Y+1976470D01*
X+4277963Y+1970686D01*
X+4257144Y+1968528D01*
X+4254500Y+1968500D01*
X+4318000Y+2095500D02*
X+4317783Y+2100747D01*
X+4316018Y+2111242D01*
X+4312326Y+2121737D01*
X+4306298Y+2132232D01*
X+4297076Y+2142612D01*
X+4286581Y+2150300D01*
X+4276086Y+2155218D01*
X+4265591Y+2158024D01*
X+4255096Y+2158997D01*
X+4254500Y+2159000D01*
X+4191000Y+2095500D02*
X+4191217Y+2100747D01*
X+4192982Y+2111242D01*
X+4196674Y+2121737D01*
X+4202702Y+2132232D01*
X+4211924Y+2142612D01*
X+4222419Y+2150300D01*
X+4232914Y+2155218D01*
X+4243409Y+2158024D01*
X+4253904Y+2158997D01*
X+4254500Y+2159000D01*
X+4191000Y+2095500D02*
X+4191217Y+2090253D01*
X+4192982Y+2079758D01*
X+4196674Y+2069263D01*
X+4202702Y+2058768D01*
X+4211924Y+2048388D01*
X+4222419Y+2040700D01*
X+4232914Y+2035782D01*
X+4243409Y+2032976D01*
X+4253904Y+2032003D01*
X+4254500Y+2032000D01*
X+4318000Y+2095500D02*
X+4317783Y+2090253D01*
X+4316018Y+2079758D01*
X+4312326Y+2069263D01*
X+4306298Y+2058768D01*
X+4297076Y+2048388D01*
X+4286581Y+2040700D01*
X+4276086Y+2035782D01*
X+4265591Y+2032976D01*
X+4255096Y+2032003D01*
X+4254500Y+2032000D01*
X+4325620Y+2286000D02*
X+4340860Y+2301875D01*
X+4340860Y+2365375D01*
X+4325620Y+2381250D01*
X+4310380Y+2381250D01*
X+4295140Y+2365375D01*
X+4295140Y+2301875D01*
X+4279900Y+2286000D01*
X+4264660Y+2286000D01*
X+4249420Y+2301875D01*
X+4249420Y+2365375D01*
X+4264660Y+2381250D01*
X+4264660Y+2428875D02*
X+4249420Y+2444750D01*
X+4249420Y+2492375D01*
X+4264660Y+2508250D01*
X+4279900Y+2508250D01*
X+4295140Y+2492375D01*
X+4310380Y+2508250D01*
X+4325620Y+2508250D01*
X+4340860Y+2492375D01*
X+4340860Y+2444750D01*
X+4325620Y+2428875D01*
X+4295140Y+2460625D02*
X+4295140Y+2492375D01*
X+4310380Y+2603500D02*
X+4310380Y+2635250D01*
X+4340860Y+2635250D01*
X+4340860Y+2571750D01*
X+4310380Y+2540000D01*
X+4279900Y+2540000D01*
X+4249420Y+2571750D01*
X+4249420Y+2619375D01*
X+4264660Y+2635250D01*
X+4356100Y+2667000D02*
X+4356100Y+2762250D01*
X+4279900Y+2825750D02*
X+4249420Y+2857500D01*
X+4340860Y+2857500D01*
X+4325620Y+2921000D02*
X+4264660Y+2921000D01*
X+4249420Y+2936875D01*
X+4249420Y+3000375D01*
X+4264660Y+3016250D01*
X+4325620Y+3016250D01*
X+4340860Y+3000375D01*
X+4340860Y+2936875D01*
X+4325620Y+2921000D01*
X+4340860Y+2921000D02*
X+4249420Y+3016250D01*
X+4249420Y+3048000D02*
X+4295140Y+3048000D01*
X+4340860Y+3095625D01*
X+4295140Y+3143250D01*
X+4249420Y+3143250D01*
X+2730500Y-3683000D02*
X+2730073Y-3672591D01*
X+2726601Y-3651772D01*
X+2719345Y-3630953D01*
X+2707517Y-3610134D01*
X+2689420Y-3589476D01*
X+2668601Y-3573955D01*
X+2647782Y-3563970D01*
X+2626963Y-3558186D01*
X+2606144Y-3556028D01*
X+2603500Y-3556000D01*
X+2476500Y-3683000D02*
X+2476927Y-3672591D01*
X+2480399Y-3651772D01*
X+2487655Y-3630953D01*
X+2499483Y-3610134D01*
X+2517580Y-3589476D01*
X+2538399Y-3573955D01*
X+2559218Y-3563970D01*
X+2580037Y-3558186D01*
X+2600856Y-3556028D01*
X+2603500Y-3556000D01*
X+2476500Y-3683000D02*
X+2476927Y-3693409D01*
X+2480399Y-3714228D01*
X+2487655Y-3735047D01*
X+2499483Y-3755866D01*
X+2517580Y-3776524D01*
X+2538399Y-3792045D01*
X+2559218Y-3802030D01*
X+2580037Y-3807814D01*
X+2600856Y-3809972D01*
X+2603500Y-3810000D01*
X+2730500Y-3683000D02*
X+2730073Y-3693409D01*
X+2726601Y-3714228D01*
X+2719345Y-3735047D01*
X+2707517Y-3755866D01*
X+2689420Y-3776524D01*
X+2668601Y-3792045D01*
X+2647782Y-3802030D01*
X+2626963Y-3807814D01*
X+2606144Y-3809972D01*
X+2603500Y-3810000D01*
X+2667000Y-3683000D02*
X+2666783Y-3677753D01*
X+2665018Y-3667258D01*
X+2661326Y-3656763D01*
X+2655298Y-3646268D01*
X+2646076Y-3635888D01*
X+2635581Y-3628200D01*
X+2625086Y-3623282D01*
X+2614591Y-3620476D01*
X+2604096Y-3619503D01*
X+2603500Y-3619500D01*
X+2540000Y-3683000D02*
X+2540217Y-3677753D01*
X+2541982Y-3667258D01*
X+2545674Y-3656763D01*
X+2551702Y-3646268D01*
X+2560924Y-3635888D01*
X+2571419Y-3628200D01*
X+2581914Y-3623282D01*
X+2592409Y-3620476D01*
X+2602904Y-3619503D01*
X+2603500Y-3619500D01*
X+2540000Y-3683000D02*
X+2540217Y-3688247D01*
X+2541982Y-3698742D01*
X+2545674Y-3709237D01*
X+2551702Y-3719732D01*
X+2560924Y-3730112D01*
X+2571419Y-3737800D01*
X+2581914Y-3742718D01*
X+2592409Y-3745524D01*
X+2602904Y-3746497D01*
X+2603500Y-3746500D01*
X+2667000Y-3683000D02*
X+2666783Y-3688247D01*
X+2665018Y-3698742D01*
X+2661326Y-3709237D01*
X+2655298Y-3719732D01*
X+2646076Y-3730112D01*
X+2635581Y-3737800D01*
X+2625086Y-3742718D01*
X+2614591Y-3745524D01*
X+2604096Y-3746497D01*
X+2603500Y-3746500D01*
X+1651000Y-3736340D02*
X+1666875Y-3751580D01*
X+1730375Y-3751580D01*
X+1746250Y-3736340D01*
X+1746250Y-3721100D01*
X+1730375Y-3705860D01*
X+1666875Y-3705860D01*
X+1651000Y-3690620D01*
X+1651000Y-3675380D01*
X+1666875Y-3660140D01*
X+1730375Y-3660140D01*
X+1746250Y-3675380D01*
X+1793875Y-3675380D02*
X+1809750Y-3660140D01*
X+1857375Y-3660140D01*
X+1873250Y-3675380D01*
X+1873250Y-3690620D01*
X+1857375Y-3705860D01*
X+1873250Y-3721100D01*
X+1873250Y-3736340D01*
X+1857375Y-3751580D01*
X+1809750Y-3751580D01*
X+1793875Y-3736340D01*
X+1825625Y-3705860D02*
X+1857375Y-3705860D01*
X+1905000Y-3690620D02*
X+1936750Y-3660140D01*
X+1968500Y-3660140D01*
X+2000250Y-3690620D01*
X+2000250Y-3721100D01*
X+1968500Y-3751580D01*
X+1936750Y-3751580D01*
X+1905000Y-3721100D01*
X+1905000Y-3690620D01*
X+2032000Y-3766820D02*
X+2127250Y-3766820D01*
X+2254250Y-3660140D02*
X+2174875Y-3660140D01*
X+2174875Y-3690620D01*
X+2238375Y-3690620D01*
X+2254250Y-3705860D01*
X+2254250Y-3736340D01*
X+2238375Y-3751580D01*
X+2190750Y-3751580D01*
X+2174875Y-3736340D01*
X+2286000Y-3660140D02*
X+2286000Y-3705860D01*
X+2333625Y-3751580D01*
X+2381250Y-3705860D01*
X+2381250Y-3660140D01*
X+4381500Y+1841500D02*
X+4381073Y+1851909D01*
X+4377601Y+1872728D01*
X+4370345Y+1893547D01*
X+4358517Y+1914366D01*
X+4340420Y+1935024D01*
X+4319601Y+1950545D01*
X+4298782Y+1960530D01*
X+4277963Y+1966314D01*
X+4257144Y+1968472D01*
X+4254500Y+1968500D01*
X+4127500Y+1841500D02*
X+4127927Y+1851909D01*
X+4131399Y+1872728D01*
X+4138655Y+1893547D01*
X+4150483Y+1914366D01*
X+4168580Y+1935024D01*
X+4189399Y+1950545D01*
X+4210218Y+1960530D01*
X+4231037Y+1966314D01*
X+4251856Y+1968472D01*
X+4254500Y+1968500D01*
X+4127500Y+1841500D02*
X+4127927Y+1831091D01*
X+4131399Y+1810272D01*
X+4138655Y+1789453D01*
X+4150483Y+1768634D01*
X+4168580Y+1747976D01*
X+4189399Y+1732455D01*
X+4210218Y+1722470D01*
X+4231037Y+1716686D01*
X+4251856Y+1714528D01*
X+4254500Y+1714500D01*
X+4381500Y+1841500D02*
X+4381073Y+1831091D01*
X+4377601Y+1810272D01*
X+4370345Y+1789453D01*
X+4358517Y+1768634D01*
X+4340420Y+1747976D01*
X+4319601Y+1732455D01*
X+4298782Y+1722470D01*
X+4277963Y+1716686D01*
X+4257144Y+1714528D01*
X+4254500Y+1714500D01*
X+4318000Y+1841500D02*
X+4317783Y+1846747D01*
X+4316018Y+1857242D01*
X+4312326Y+1867737D01*
X+4306298Y+1878232D01*
X+4297076Y+1888612D01*
X+4286581Y+1896300D01*
X+4276086Y+1901218D01*
X+4265591Y+1904024D01*
X+4255096Y+1904997D01*
X+4254500Y+1905000D01*
X+4191000Y+1841500D02*
X+4191217Y+1846747D01*
X+4192982Y+1857242D01*
X+4196674Y+1867737D01*
X+4202702Y+1878232D01*
X+4211924Y+1888612D01*
X+4222419Y+1896300D01*
X+4232914Y+1901218D01*
X+4243409Y+1904024D01*
X+4253904Y+1904997D01*
X+4254500Y+1905000D01*
X+4191000Y+1841500D02*
X+4191217Y+1836253D01*
X+4192982Y+1825758D01*
X+4196674Y+1815263D01*
X+4202702Y+1804768D01*
X+4211924Y+1794388D01*
X+4222419Y+1786700D01*
X+4232914Y+1781782D01*
X+4243409Y+1778976D01*
X+4253904Y+1778003D01*
X+4254500Y+1778000D01*
X+4318000Y+1841500D02*
X+4317783Y+1836253D01*
X+4316018Y+1825758D01*
X+4312326Y+1815263D01*
X+4306298Y+1804768D01*
X+4297076Y+1794388D01*
X+4286581Y+1786700D01*
X+4276086Y+1781782D01*
X+4265591Y+1778976D01*
X+4255096Y+1778003D01*
X+4254500Y+1778000D01*
X+4117340Y+2286000D02*
X+4132580Y+2301875D01*
X+4132580Y+2365375D01*
X+4117340Y+2381250D01*
X+4102100Y+2381250D01*
X+4086860Y+2365375D01*
X+4086860Y+2301875D01*
X+4071620Y+2286000D01*
X+4056380Y+2286000D01*
X+4041140Y+2301875D01*
X+4041140Y+2365375D01*
X+4056380Y+2381250D01*
X+4056380Y+2428875D02*
X+4041140Y+2444750D01*
X+4041140Y+2492375D01*
X+4056380Y+2508250D01*
X+4071620Y+2508250D01*
X+4086860Y+2492375D01*
X+4102100Y+2508250D01*
X+4117340Y+2508250D01*
X+4132580Y+2492375D01*
X+4132580Y+2444750D01*
X+4117340Y+2428875D01*
X+4086860Y+2460625D02*
X+4086860Y+2492375D01*
X+4147820Y+2540000D02*
X+4147820Y+2635250D01*
X+4071620Y+2698750D02*
X+4041140Y+2730500D01*
X+4132580Y+2730500D01*
X+4117340Y+2794000D02*
X+4056380Y+2794000D01*
X+4041140Y+2809875D01*
X+4041140Y+2873375D01*
X+4056380Y+2889250D01*
X+4117340Y+2889250D01*
X+4132580Y+2873375D01*
X+4132580Y+2809875D01*
X+4117340Y+2794000D01*
X+4132580Y+2794000D02*
X+4041140Y+2889250D01*
X+4041140Y+2921000D02*
X+4086860Y+2921000D01*
X+4132580Y+2968625D01*
X+4086860Y+3016250D01*
X+4041140Y+3016250D01*
D38*
X-4916000Y-2444500D02*
X-4916000Y-2554500D01*
X-4736000Y-2444500D02*
X-4736000Y-2554500D01*
X-4477000Y-2693500D02*
X-4377000Y-2693500D01*
X-4477000Y-2513500D02*
X-4377000Y-2513500D01*
X-5170000Y-2444500D02*
X-5170000Y-2544500D01*
X-4990000Y-2444500D02*
X-4990000Y-2544500D01*
D39*
X-5016500Y-3302000D02*
X-5016927Y-3291591D01*
X-5020399Y-3270772D01*
X-5027655Y-3249953D01*
X-5039483Y-3229134D01*
X-5057580Y-3208476D01*
X-5078399Y-3192955D01*
X-5099218Y-3182970D01*
X-5120037Y-3177186D01*
X-5140856Y-3175028D01*
X-5143500Y-3175000D01*
X-5270500Y-3302000D02*
X-5270073Y-3291591D01*
X-5266601Y-3270772D01*
X-5259345Y-3249953D01*
X-5247517Y-3229134D01*
X-5229420Y-3208476D01*
X-5208601Y-3192955D01*
X-5187782Y-3182970D01*
X-5166963Y-3177186D01*
X-5146144Y-3175028D01*
X-5143500Y-3175000D01*
X-5270500Y-3302000D02*
X-5270073Y-3312409D01*
X-5266601Y-3333228D01*
X-5259345Y-3354047D01*
X-5247517Y-3374866D01*
X-5229420Y-3395524D01*
X-5208601Y-3411045D01*
X-5187782Y-3421030D01*
X-5166963Y-3426814D01*
X-5146144Y-3428972D01*
X-5143500Y-3429000D01*
X-5016500Y-3302000D02*
X-5016927Y-3312409D01*
X-5020399Y-3333228D01*
X-5027655Y-3354047D01*
X-5039483Y-3374866D01*
X-5057580Y-3395524D01*
X-5078399Y-3411045D01*
X-5099218Y-3421030D01*
X-5120037Y-3426814D01*
X-5140856Y-3428972D01*
X-5143500Y-3429000D01*
X-5080000Y-3302000D02*
X-5080217Y-3296753D01*
X-5081982Y-3286258D01*
X-5085674Y-3275763D01*
X-5091702Y-3265268D01*
X-5100924Y-3254888D01*
X-5111419Y-3247200D01*
X-5121914Y-3242282D01*
X-5132409Y-3239476D01*
X-5142904Y-3238503D01*
X-5143500Y-3238500D01*
X-5207000Y-3302000D02*
X-5206783Y-3296753D01*
X-5205018Y-3286258D01*
X-5201326Y-3275763D01*
X-5195298Y-3265268D01*
X-5186076Y-3254888D01*
X-5175581Y-3247200D01*
X-5165086Y-3242282D01*
X-5154591Y-3239476D01*
X-5144096Y-3238503D01*
X-5143500Y-3238500D01*
X-5207000Y-3302000D02*
X-5206783Y-3307247D01*
X-5205018Y-3317742D01*
X-5201326Y-3328237D01*
X-5195298Y-3338732D01*
X-5186076Y-3349112D01*
X-5175581Y-3356800D01*
X-5165086Y-3361718D01*
X-5154591Y-3364524D01*
X-5144096Y-3365497D01*
X-5143500Y-3365500D01*
X-5080000Y-3302000D02*
X-5080217Y-3307247D01*
X-5081982Y-3317742D01*
X-5085674Y-3328237D01*
X-5091702Y-3338732D01*
X-5100924Y-3349112D01*
X-5111419Y-3356800D01*
X-5121914Y-3361718D01*
X-5132409Y-3364524D01*
X-5142904Y-3365497D01*
X-5143500Y-3365500D01*
X-5715000Y-3233420D02*
X-5715000Y-3279140D01*
X-5667375Y-3324860D01*
X-5619750Y-3279140D01*
X-5619750Y-3233420D01*
X-5492750Y-3233420D02*
X-5572125Y-3233420D01*
X-5572125Y-3263900D01*
X-5508625Y-3263900D01*
X-5492750Y-3279140D01*
X-5492750Y-3309620D01*
X-5508625Y-3324860D01*
X-5556250Y-3324860D01*
X-5572125Y-3309620D01*
X-5461000Y-3279140D02*
X-5365750Y-3279140D01*
X-5413375Y-3248660D02*
X-5413375Y-3309620D01*
X-5016500Y-3556000D02*
X-5016927Y-3545591D01*
X-5020399Y-3524772D01*
X-5027655Y-3503953D01*
X-5039483Y-3483134D01*
X-5057580Y-3462476D01*
X-5078399Y-3446955D01*
X-5099218Y-3436970D01*
X-5120037Y-3431186D01*
X-5140856Y-3429028D01*
X-5143500Y-3429000D01*
X-5270500Y-3556000D02*
X-5270073Y-3545591D01*
X-5266601Y-3524772D01*
X-5259345Y-3503953D01*
X-5247517Y-3483134D01*
X-5229420Y-3462476D01*
X-5208601Y-3446955D01*
X-5187782Y-3436970D01*
X-5166963Y-3431186D01*
X-5146144Y-3429028D01*
X-5143500Y-3429000D01*
X-5270500Y-3556000D02*
X-5270073Y-3566409D01*
X-5266601Y-3587228D01*
X-5259345Y-3608047D01*
X-5247517Y-3628866D01*
X-5229420Y-3649524D01*
X-5208601Y-3665045D01*
X-5187782Y-3675030D01*
X-5166963Y-3680814D01*
X-5146144Y-3682972D01*
X-5143500Y-3683000D01*
X-5016500Y-3556000D02*
X-5016927Y-3566409D01*
X-5020399Y-3587228D01*
X-5027655Y-3608047D01*
X-5039483Y-3628866D01*
X-5057580Y-3649524D01*
X-5078399Y-3665045D01*
X-5099218Y-3675030D01*
X-5120037Y-3680814D01*
X-5140856Y-3682972D01*
X-5143500Y-3683000D01*
X-5080000Y-3556000D02*
X-5080217Y-3550753D01*
X-5081982Y-3540258D01*
X-5085674Y-3529763D01*
X-5091702Y-3519268D01*
X-5100924Y-3508888D01*
X-5111419Y-3501200D01*
X-5121914Y-3496282D01*
X-5132409Y-3493476D01*
X-5142904Y-3492503D01*
X-5143500Y-3492500D01*
X-5207000Y-3556000D02*
X-5206783Y-3550753D01*
X-5205018Y-3540258D01*
X-5201326Y-3529763D01*
X-5195298Y-3519268D01*
X-5186076Y-3508888D01*
X-5175581Y-3501200D01*
X-5165086Y-3496282D01*
X-5154591Y-3493476D01*
X-5144096Y-3492503D01*
X-5143500Y-3492500D01*
X-5207000Y-3556000D02*
X-5206783Y-3561247D01*
X-5205018Y-3571742D01*
X-5201326Y-3582237D01*
X-5195298Y-3592732D01*
X-5186076Y-3603112D01*
X-5175581Y-3610800D01*
X-5165086Y-3615718D01*
X-5154591Y-3618524D01*
X-5144096Y-3619497D01*
X-5143500Y-3619500D01*
X-5080000Y-3556000D02*
X-5080217Y-3561247D01*
X-5081982Y-3571742D01*
X-5085674Y-3582237D01*
X-5091702Y-3592732D01*
X-5100924Y-3603112D01*
X-5111419Y-3610800D01*
X-5121914Y-3615718D01*
X-5132409Y-3618524D01*
X-5142904Y-3619497D01*
X-5143500Y-3619500D01*
X-5715000Y-3550920D02*
X-5715000Y-3596640D01*
X-5667375Y-3642360D01*
X-5619750Y-3596640D01*
X-5619750Y-3550920D01*
X-5492750Y-3550920D02*
X-5572125Y-3550920D01*
X-5572125Y-3581400D01*
X-5508625Y-3581400D01*
X-5492750Y-3596640D01*
X-5492750Y-3627120D01*
X-5508625Y-3642360D01*
X-5556250Y-3642360D01*
X-5572125Y-3627120D01*
X-5445125Y-3596640D02*
X-5365750Y-3596640D01*
M02*
