G04 PROTEUS GERBER X2 FILE*
%TF.GenerationSoftware,Labcenter,Proteus,8.7-SP3-Build25561*%
%TF.CreationDate,2021-05-23T19:19:56+00:00*%
%TF.FileFunction,Paste,Bot*%
%TF.FilePolarity,Positive*%
%TF.Part,Single*%
%TF.SameCoordinates,{bb4e542a-de17-4d2d-b6f0-32913e85bf41}*%
%FSLAX45Y45*%
%MOMM*%
G01*
%TA.AperFunction,Material*%
%ADD99R,0.889000X1.016000*%
%ADD93R,6.985000X6.985000*%
%ADD94R,1.524000X2.540000*%
%TA.AperFunction,Material*%
%ADD90R,2.108200X2.108200*%
%ADD98R,0.889000X0.635000*%
%ADD88R,1.193800X5.308600*%
%ADD91R,1.651000X3.048000*%
%TA.AperFunction,Material*%
%ADD100R,2.032000X0.635000*%
%ADD95R,0.635000X2.032000*%
%TA.AperFunction,Material*%
%ADD92R,3.403600X1.244600*%
%ADD97R,2.540000X1.524000*%
%ADD89R,1.143000X1.803400*%
%ADD96R,1.803400X1.143000*%
%TA.AperFunction,Profile*%
%ADD40C,0.203200*%
%TD.AperFunction*%
D99*
X+8196580Y-1389380D03*
X+8290560Y-1579880D03*
X+8102600Y-1579880D03*
D93*
X+7874000Y+825500D03*
D94*
X+8102600Y+134620D03*
X+7645400Y+134620D03*
D90*
X+7086600Y+1404620D03*
X+7086600Y+954620D03*
D98*
X+8039100Y-1960880D03*
X+8039100Y-1725930D03*
D88*
X+6705600Y+198120D03*
X+7305600Y+198120D03*
D91*
X+6324600Y+914620D03*
X+6324600Y+1359120D03*
D100*
X+6908800Y-1008380D03*
X+6908800Y-1135380D03*
X+6908800Y-1262380D03*
X+6908800Y-1389380D03*
X+6388100Y-1389380D03*
X+6388100Y-1262380D03*
X+6388100Y-1135380D03*
X+6388100Y-1008380D03*
D95*
X+7848600Y-2100580D03*
X+7721600Y-2100580D03*
X+7594600Y-2100580D03*
X+7467600Y-2100580D03*
X+7467600Y-1579880D03*
X+7594600Y-1579880D03*
X+7721600Y-1579880D03*
X+7848600Y-1579880D03*
D92*
X+6324600Y+642620D03*
X+6324600Y+32620D03*
D97*
X+7874000Y-1143000D03*
X+7493000Y-1143000D03*
D89*
X+7848600Y-754380D03*
X+7548600Y-754380D03*
X+6705600Y-2151380D03*
X+6415600Y-2151380D03*
X+6678100Y-1643380D03*
X+6388100Y-1643380D03*
D96*
X+6388100Y-599880D03*
X+6388100Y-309880D03*
X+6896100Y-599880D03*
X+6896100Y-309880D03*
D89*
X+7249600Y-2151380D03*
X+6959600Y-2151380D03*
D96*
X+8255000Y-2095500D03*
X+8255000Y-2385500D03*
D89*
X+7848600Y-2405380D03*
X+7548600Y-2405380D03*
D96*
X+7150100Y-309880D03*
X+7150100Y-609880D03*
X+8102600Y-119380D03*
X+8102600Y-409380D03*
D89*
X+7594600Y-119380D03*
X+7884600Y-119380D03*
X+7848600Y-2659380D03*
X+7558600Y-2659380D03*
D96*
X+6642100Y-309880D03*
X+6642100Y-609880D03*
D89*
X+7023100Y-817880D03*
X+6723100Y-817880D03*
X+7259600Y-1643380D03*
X+6959600Y-1643380D03*
X+7259600Y-1897380D03*
X+6959600Y-1897380D03*
X+6705600Y-1897380D03*
X+6405600Y-1897380D03*
D93*
X-4546600Y+817880D03*
D94*
X-4318000Y+127000D03*
X-4775200Y+127000D03*
D93*
X-3200400Y+817880D03*
D94*
X-2971800Y+127000D03*
X-3429000Y+127000D03*
D99*
X-5173980Y-254000D03*
X-5080000Y-444500D03*
X-5267960Y-444500D03*
X-3840480Y-254000D03*
X-3746500Y-444500D03*
X-3934460Y-444500D03*
X-4508500Y-444500D03*
X-4602480Y-254000D03*
X-4414520Y-254000D03*
X-3175000Y-444500D03*
X-3268980Y-254000D03*
X-3081020Y-254000D03*
D96*
X-4826000Y-154500D03*
X-4826000Y-444500D03*
X-4191000Y-154500D03*
X-4191000Y-444500D03*
X-3492500Y-154500D03*
X-3492500Y-444500D03*
X-2857500Y-154500D03*
X-2857500Y-444500D03*
X+3439000Y-1242500D03*
X+3439000Y-1542500D03*
X+3756500Y-698500D03*
X+3756500Y-998500D03*
X+4264500Y-190500D03*
X+4264500Y-490500D03*
X+2931000Y-1542500D03*
X+2931000Y-1252500D03*
X+3439000Y-998500D03*
X+3439000Y-708500D03*
X+4010500Y-998500D03*
X+4010500Y-708500D03*
X+3185000Y-1542500D03*
X+3185000Y-1252500D03*
X+4010500Y-490500D03*
X+4010500Y-200500D03*
X+4518500Y-490500D03*
X+4518500Y-200500D03*
D89*
X+7311000Y-2413000D03*
X+7021000Y-2413000D03*
D40*
X-7429500Y-4254500D02*
X+8509000Y-4254500D01*
X+8509000Y+2921000D01*
X-7429500Y+2921000D01*
X-7429500Y-4254500D01*
M02*
