G04 PROTEUS GERBER X2 FILE*
%TF.GenerationSoftware,Labcenter,Proteus,8.7-SP3-Build25561*%
%TF.CreationDate,2021-04-27T11:42:45+00:00*%
%TF.FileFunction,Legend,Bot*%
%TF.FilePolarity,Positive*%
%TF.Part,Single*%
%TF.SameCoordinates,{6203c4a4-ae23-4678-9b2e-be1f49d5fe9b}*%
%FSLAX45Y45*%
%MOMM*%
G01*
%TA.AperFunction,Profile*%
%ADD37C,0.203200*%
%TA.AperFunction,Material*%
%ADD39C,0.203200*%
%ADD40C,0.250000*%
%ADD38C,0.200000*%
%ADD41C,0.101600*%
%TD.AperFunction*%
D37*
X-6604000Y-4254500D02*
X+8509000Y-4254500D01*
X+8509000Y+2921000D01*
X-6604000Y+2921000D01*
X-6604000Y-4254500D01*
D39*
X+8051800Y-1424940D02*
X+8140700Y-1424940D01*
X+8158480Y-1536700D02*
X+8229600Y-1536700D01*
X+8051800Y-1424940D02*
X+8051800Y-1516380D01*
X+8341360Y-1518920D02*
X+8341360Y-1424940D01*
X+8255000Y-1424940D01*
X+8191500Y+452120D02*
X+8191500Y+375920D01*
X+7556500Y+375920D01*
X+7556500Y+452120D01*
X+7912100Y+375920D02*
X+7912100Y+325120D01*
X+7835900Y+325120D01*
X+7835900Y+375920D01*
X+8140700Y+375920D02*
X+8140700Y+299720D01*
X+8077200Y+299720D01*
X+8077200Y+375920D01*
X+7607300Y+375920D02*
X+7607300Y+299720D01*
X+7670800Y+299720D01*
X+7670800Y+375920D02*
X+7670800Y+299720D01*
D40*
X+7259100Y+834620D02*
X+7259057Y+835659D01*
X+7258705Y+837738D01*
X+7257968Y+839817D01*
X+7256764Y+841896D01*
X+7254923Y+843946D01*
X+7252844Y+845449D01*
X+7250765Y+846406D01*
X+7248686Y+846945D01*
X+7246607Y+847120D01*
X+7246600Y+847120D01*
X+7234100Y+834620D02*
X+7234143Y+835659D01*
X+7234495Y+837738D01*
X+7235232Y+839817D01*
X+7236436Y+841896D01*
X+7238277Y+843946D01*
X+7240356Y+845449D01*
X+7242435Y+846406D01*
X+7244514Y+846945D01*
X+7246593Y+847120D01*
X+7246600Y+847120D01*
X+7234100Y+834620D02*
X+7234143Y+833581D01*
X+7234495Y+831502D01*
X+7235232Y+829423D01*
X+7236436Y+827344D01*
X+7238277Y+825294D01*
X+7240356Y+823791D01*
X+7242435Y+822834D01*
X+7244514Y+822295D01*
X+7246593Y+822120D01*
X+7246600Y+822120D01*
X+7259100Y+834620D02*
X+7259057Y+833581D01*
X+7258705Y+831502D01*
X+7257968Y+829423D01*
X+7256764Y+827344D01*
X+7254923Y+825294D01*
X+7252844Y+823791D01*
X+7250765Y+822834D01*
X+7248686Y+822295D01*
X+7246607Y+822120D01*
X+7246600Y+822120D01*
D38*
X+7231600Y+899620D02*
X+7276600Y+899620D01*
X+7276600Y+1459620D01*
X+7231600Y+1459620D01*
X+6941600Y+899620D02*
X+6896600Y+899620D01*
X+6896600Y+1459620D01*
X+6941600Y+1459620D01*
D41*
X+7969100Y-1793340D02*
X+8109100Y-1793340D01*
X+7969100Y-1813340D02*
X+8109100Y-1813340D01*
X+7969100Y-1923340D02*
X+8109100Y-1923340D01*
X+8109100Y-1763340D01*
X+7969100Y-1763340D01*
X+7969100Y-1923340D01*
D38*
X+6805600Y+463120D02*
X+7205600Y+463120D01*
X+6805600Y-66880D02*
X+7205600Y-66880D01*
D40*
X+6507100Y+779620D02*
X+6507057Y+780659D01*
X+6506705Y+782738D01*
X+6505968Y+784817D01*
X+6504764Y+786896D01*
X+6502923Y+788946D01*
X+6500844Y+790449D01*
X+6498765Y+791406D01*
X+6496686Y+791945D01*
X+6494607Y+792120D01*
X+6494600Y+792120D01*
X+6482100Y+779620D02*
X+6482143Y+780659D01*
X+6482495Y+782738D01*
X+6483232Y+784817D01*
X+6484436Y+786896D01*
X+6486277Y+788946D01*
X+6488356Y+790449D01*
X+6490435Y+791406D01*
X+6492514Y+791945D01*
X+6494593Y+792120D01*
X+6494600Y+792120D01*
X+6482100Y+779620D02*
X+6482143Y+778581D01*
X+6482495Y+776502D01*
X+6483232Y+774423D01*
X+6484436Y+772344D01*
X+6486277Y+770294D01*
X+6488356Y+768791D01*
X+6490435Y+767834D01*
X+6492514Y+767295D01*
X+6494593Y+767120D01*
X+6494600Y+767120D01*
X+6507100Y+779620D02*
X+6507057Y+778581D01*
X+6506705Y+776502D01*
X+6505968Y+774423D01*
X+6504764Y+772344D01*
X+6502923Y+770294D01*
X+6500844Y+768791D01*
X+6498765Y+767834D01*
X+6496686Y+767295D01*
X+6494607Y+767120D01*
X+6494600Y+767120D01*
D38*
X+6477100Y+844620D02*
X+6499600Y+844620D01*
X+6499600Y+1474620D01*
X+6477100Y+1474620D01*
X+6172100Y+844620D02*
X+6149600Y+844620D01*
X+6149600Y+1474620D01*
X+6172100Y+1474620D01*
D39*
X+6756400Y-975360D02*
X+6675438Y-975360D01*
X+6673356Y-985981D01*
X+6667636Y-994547D01*
X+6659071Y-1000266D01*
X+6648450Y-1002348D01*
X+6621462Y-975360D02*
X+6623544Y-985981D01*
X+6629264Y-994547D01*
X+6637829Y-1000266D01*
X+6648450Y-1002348D01*
X+6621462Y-975360D02*
X+6540500Y-975360D01*
X+6680200Y-1422400D02*
X+6616700Y-1422400D01*
X+6756400Y-1008380D02*
X+6756400Y-1389380D01*
X+6540500Y-1008380D02*
X+6540500Y-1389380D01*
X+6756400Y-1008380D02*
X+6756400Y-975360D01*
X+6540500Y-975360D02*
X+6540500Y-1008380D01*
X+6616700Y-1422400D02*
X+6540500Y-1422400D01*
X+6540500Y-1389380D01*
X+6756400Y-1389380D02*
X+6756400Y-1422400D01*
X+6680200Y-1422400D01*
X+6731000Y-1024636D02*
X+6730965Y-1023791D01*
X+6730678Y-1022100D01*
X+6730079Y-1020409D01*
X+6729099Y-1018718D01*
X+6727599Y-1017050D01*
X+6725908Y-1015830D01*
X+6724217Y-1015054D01*
X+6722526Y-1014617D01*
X+6720840Y-1014476D01*
X+6710680Y-1024636D02*
X+6710715Y-1023791D01*
X+6711002Y-1022100D01*
X+6711601Y-1020409D01*
X+6712581Y-1018718D01*
X+6714081Y-1017050D01*
X+6715772Y-1015830D01*
X+6717463Y-1015054D01*
X+6719154Y-1014617D01*
X+6720840Y-1014476D01*
X+6710680Y-1024636D02*
X+6710715Y-1025481D01*
X+6711002Y-1027172D01*
X+6711601Y-1028863D01*
X+6712581Y-1030554D01*
X+6714081Y-1032222D01*
X+6715772Y-1033442D01*
X+6717463Y-1034218D01*
X+6719154Y-1034655D01*
X+6720840Y-1034796D01*
X+6731000Y-1024636D02*
X+6730965Y-1025481D01*
X+6730678Y-1027172D01*
X+6730079Y-1028863D01*
X+6729099Y-1030554D01*
X+6727599Y-1032222D01*
X+6725908Y-1033442D01*
X+6724217Y-1034218D01*
X+6722526Y-1034655D01*
X+6720840Y-1034796D01*
X+7881620Y-1948180D02*
X+7881620Y-1867218D01*
X+7870999Y-1865136D01*
X+7862433Y-1859416D01*
X+7856714Y-1850851D01*
X+7854632Y-1840230D01*
X+7881620Y-1813242D02*
X+7870999Y-1815324D01*
X+7862433Y-1821044D01*
X+7856714Y-1829609D01*
X+7854632Y-1840230D01*
X+7881620Y-1813242D02*
X+7881620Y-1732280D01*
X+7434580Y-1871980D02*
X+7434580Y-1808480D01*
X+7848600Y-1948180D02*
X+7467600Y-1948180D01*
X+7848600Y-1732280D02*
X+7467600Y-1732280D01*
X+7848600Y-1948180D02*
X+7881620Y-1948180D01*
X+7881620Y-1732280D02*
X+7848600Y-1732280D01*
X+7434580Y-1808480D02*
X+7434580Y-1732280D01*
X+7467600Y-1732280D01*
X+7467600Y-1948180D02*
X+7434580Y-1948180D01*
X+7434580Y-1871980D01*
X+7842504Y-1912620D02*
X+7842469Y-1911775D01*
X+7842182Y-1910084D01*
X+7841583Y-1908393D01*
X+7840603Y-1906702D01*
X+7839103Y-1905034D01*
X+7837412Y-1903814D01*
X+7835721Y-1903038D01*
X+7834030Y-1902601D01*
X+7832344Y-1902460D01*
X+7822184Y-1912620D02*
X+7822219Y-1911775D01*
X+7822506Y-1910084D01*
X+7823105Y-1908393D01*
X+7824085Y-1906702D01*
X+7825585Y-1905034D01*
X+7827276Y-1903814D01*
X+7828967Y-1903038D01*
X+7830658Y-1902601D01*
X+7832344Y-1902460D01*
X+7822184Y-1912620D02*
X+7822219Y-1913465D01*
X+7822506Y-1915156D01*
X+7823105Y-1916847D01*
X+7824085Y-1918538D01*
X+7825585Y-1920206D01*
X+7827276Y-1921426D01*
X+7828967Y-1922202D01*
X+7830658Y-1922639D01*
X+7832344Y-1922780D01*
X+7842504Y-1912620D02*
X+7842469Y-1913465D01*
X+7842182Y-1915156D01*
X+7841583Y-1916847D01*
X+7840603Y-1918538D01*
X+7839103Y-1920206D01*
X+7837412Y-1921426D01*
X+7835721Y-1922202D01*
X+7834030Y-1922639D01*
X+7832344Y-1922780D01*
D38*
X+6494600Y+542620D02*
X+6494600Y+132620D01*
X+6154600Y+542620D02*
X+6154600Y+132620D01*
D40*
X+7966100Y-965380D02*
X+7966057Y-964341D01*
X+7965705Y-962262D01*
X+7964968Y-960183D01*
X+7963764Y-958104D01*
X+7961923Y-956054D01*
X+7959844Y-954551D01*
X+7957765Y-953594D01*
X+7955686Y-953055D01*
X+7953607Y-952880D01*
X+7953600Y-952880D01*
X+7941100Y-965380D02*
X+7941143Y-964341D01*
X+7941495Y-962262D01*
X+7942232Y-960183D01*
X+7943436Y-958104D01*
X+7945277Y-956054D01*
X+7947356Y-954551D01*
X+7949435Y-953594D01*
X+7951514Y-953055D01*
X+7953593Y-952880D01*
X+7953600Y-952880D01*
X+7941100Y-965380D02*
X+7941143Y-966419D01*
X+7941495Y-968498D01*
X+7942232Y-970577D01*
X+7943436Y-972656D01*
X+7945277Y-974706D01*
X+7947356Y-976209D01*
X+7949435Y-977166D01*
X+7951514Y-977705D01*
X+7953593Y-977880D01*
X+7953600Y-977880D01*
X+7966100Y-965380D02*
X+7966057Y-966419D01*
X+7965705Y-968498D01*
X+7964968Y-970577D01*
X+7963764Y-972656D01*
X+7961923Y-974706D01*
X+7959844Y-976209D01*
X+7957765Y-977166D01*
X+7955686Y-977705D01*
X+7953607Y-977880D01*
X+7953600Y-977880D01*
D38*
X+7888600Y-982880D02*
X+7518600Y-982880D01*
X+7888600Y-1287880D02*
X+7518600Y-1287880D01*
X+7753600Y-844380D02*
X+7643600Y-844380D01*
X+7753600Y-664380D02*
X+7643600Y-664380D01*
X+6610600Y-2241380D02*
X+6510600Y-2241380D01*
X+6610600Y-2061380D02*
X+6510600Y-2061380D01*
X+6583100Y-1733380D02*
X+6483100Y-1733380D01*
X+6583100Y-1553380D02*
X+6483100Y-1553380D01*
X+6298100Y-504880D02*
X+6298100Y-404880D01*
X+6478100Y-504880D02*
X+6478100Y-404880D01*
X+6806100Y-504880D02*
X+6806100Y-404880D01*
X+6986100Y-504880D02*
X+6986100Y-404880D01*
X+7154600Y-2241380D02*
X+7054600Y-2241380D01*
X+7154600Y-2061380D02*
X+7054600Y-2061380D01*
X+8192600Y-2337380D02*
X+8192600Y-2437380D01*
X+8012600Y-2337380D02*
X+8012600Y-2437380D01*
X+7753600Y-2495380D02*
X+7643600Y-2495380D01*
X+7753600Y-2315380D02*
X+7643600Y-2315380D01*
X+7240100Y-404880D02*
X+7240100Y-514880D01*
X+7060100Y-404880D02*
X+7060100Y-514880D01*
X+8192600Y-214380D02*
X+8192600Y-314380D01*
X+8012600Y-214380D02*
X+8012600Y-314380D01*
X+7689600Y-29380D02*
X+7789600Y-29380D01*
X+7689600Y-209380D02*
X+7789600Y-209380D01*
X+7753600Y-2749380D02*
X+7653600Y-2749380D01*
X+7753600Y-2569380D02*
X+7653600Y-2569380D01*
X+6732100Y-404880D02*
X+6732100Y-514880D01*
X+6552100Y-404880D02*
X+6552100Y-514880D01*
X+6928100Y-907880D02*
X+6818100Y-907880D01*
X+6928100Y-727880D02*
X+6818100Y-727880D01*
X+7164600Y-1733380D02*
X+7054600Y-1733380D01*
X+7164600Y-1553380D02*
X+7054600Y-1553380D01*
X+7164600Y-1987380D02*
X+7054600Y-1987380D01*
X+7164600Y-1807380D02*
X+7054600Y-1807380D01*
X+6610600Y-1987380D02*
X+6500600Y-1987380D01*
X+6610600Y-1807380D02*
X+6500600Y-1807380D01*
D39*
X-4229100Y+444500D02*
X-4229100Y+368300D01*
X-4864100Y+368300D01*
X-4864100Y+444500D01*
X-4508500Y+368300D02*
X-4508500Y+317500D01*
X-4584700Y+317500D01*
X-4584700Y+368300D01*
X-4279900Y+368300D02*
X-4279900Y+292100D01*
X-4343400Y+292100D01*
X-4343400Y+368300D01*
X-4813300Y+368300D02*
X-4813300Y+292100D01*
X-4749800Y+292100D01*
X-4749800Y+368300D02*
X-4749800Y+292100D01*
X-2882900Y+444500D02*
X-2882900Y+368300D01*
X-3517900Y+368300D01*
X-3517900Y+444500D01*
X-3162300Y+368300D02*
X-3162300Y+317500D01*
X-3238500Y+317500D01*
X-3238500Y+368300D01*
X-2933700Y+368300D02*
X-2933700Y+292100D01*
X-2997200Y+292100D01*
X-2997200Y+368300D01*
X-3467100Y+368300D02*
X-3467100Y+292100D01*
X-3403600Y+292100D01*
X-3403600Y+368300D02*
X-3403600Y+292100D01*
X-5318760Y-289560D02*
X-5229860Y-289560D01*
X-5212080Y-401320D02*
X-5140960Y-401320D01*
X-5318760Y-289560D02*
X-5318760Y-381000D01*
X-5029200Y-383540D02*
X-5029200Y-289560D01*
X-5115560Y-289560D01*
X-3985260Y-289560D02*
X-3896360Y-289560D01*
X-3878580Y-401320D02*
X-3807460Y-401320D01*
X-3985260Y-289560D02*
X-3985260Y-381000D01*
X-3695700Y-383540D02*
X-3695700Y-289560D01*
X-3782060Y-289560D01*
X-4363720Y-408940D02*
X-4452620Y-408940D01*
X-4470400Y-297180D02*
X-4541520Y-297180D01*
X-4363720Y-408940D02*
X-4363720Y-317500D01*
X-4653280Y-314960D02*
X-4653280Y-408940D01*
X-4566920Y-408940D01*
X-3030220Y-408940D02*
X-3119120Y-408940D01*
X-3136900Y-297180D02*
X-3208020Y-297180D01*
X-3030220Y-408940D02*
X-3030220Y-317500D01*
X-3319780Y-314960D02*
X-3319780Y-408940D01*
X-3233420Y-408940D01*
D38*
X-4736000Y-249500D02*
X-4736000Y-349500D01*
X-4916000Y-249500D02*
X-4916000Y-349500D01*
X-4101000Y-249500D02*
X-4101000Y-349500D01*
X-4281000Y-249500D02*
X-4281000Y-349500D01*
X-3402500Y-249500D02*
X-3402500Y-349500D01*
X-3582500Y-249500D02*
X-3582500Y-349500D01*
X-2767500Y-249500D02*
X-2767500Y-349500D01*
X-2947500Y-249500D02*
X-2947500Y-349500D01*
X+3529000Y-1337500D02*
X+3529000Y-1447500D01*
X+3349000Y-1337500D02*
X+3349000Y-1447500D01*
X+3846500Y-793500D02*
X+3846500Y-903500D01*
X+3666500Y-793500D02*
X+3666500Y-903500D01*
X+4354500Y-285500D02*
X+4354500Y-395500D01*
X+4174500Y-285500D02*
X+4174500Y-395500D01*
X+2841000Y-1447500D02*
X+2841000Y-1347500D01*
X+3021000Y-1447500D02*
X+3021000Y-1347500D01*
X+3349000Y-903500D02*
X+3349000Y-803500D01*
X+3529000Y-903500D02*
X+3529000Y-803500D01*
X+3920500Y-903500D02*
X+3920500Y-803500D01*
X+4100500Y-903500D02*
X+4100500Y-803500D01*
X+3095000Y-1447500D02*
X+3095000Y-1347500D01*
X+3275000Y-1447500D02*
X+3275000Y-1347500D01*
X+3920500Y-395500D02*
X+3920500Y-295500D01*
X+4100500Y-395500D02*
X+4100500Y-295500D01*
X+4428500Y-395500D02*
X+4428500Y-295500D01*
X+4608500Y-395500D02*
X+4608500Y-295500D01*
M02*
