G04 PROTEUS RS274X GERBER FILE*
%FSLAX45Y45*%
%MOMM*%
G01*
%ADD41C,0.203200*%
%ADD43C,0.250000*%
%ADD42C,0.200000*%
%ADD44C,0.101600*%
%ADD45C,0.100000*%
D41*
X-7429500Y-4254500D02*
X+8509000Y-4254500D01*
X+8509000Y+2921000D01*
X-7429500Y+2921000D01*
X-7429500Y-4254500D01*
X+8051800Y-1424940D02*
X+8140700Y-1424940D01*
X+8158480Y-1536700D02*
X+8229600Y-1536700D01*
X+8051800Y-1424940D02*
X+8051800Y-1516380D01*
X+8341360Y-1518920D02*
X+8341360Y-1424940D01*
X+8255000Y-1424940D01*
X+8191500Y+452120D02*
X+8191500Y+375920D01*
X+7556500Y+375920D01*
X+7556500Y+452120D01*
X+7912100Y+375920D02*
X+7912100Y+325120D01*
X+7835900Y+325120D01*
X+7835900Y+375920D01*
X+8140700Y+375920D02*
X+8140700Y+299720D01*
X+8077200Y+299720D01*
X+8077200Y+375920D01*
X+7607300Y+375920D02*
X+7607300Y+299720D01*
X+7670800Y+299720D01*
X+7670800Y+375920D02*
X+7670800Y+299720D01*
D43*
X+7259100Y+834620D02*
X+7259057Y+835659D01*
X+7258705Y+837738D01*
X+7257968Y+839817D01*
X+7256764Y+841896D01*
X+7254923Y+843946D01*
X+7252844Y+845449D01*
X+7250765Y+846406D01*
X+7248686Y+846945D01*
X+7246607Y+847120D01*
X+7246600Y+847120D01*
X+7234100Y+834620D02*
X+7234143Y+835659D01*
X+7234495Y+837738D01*
X+7235232Y+839817D01*
X+7236436Y+841896D01*
X+7238277Y+843946D01*
X+7240356Y+845449D01*
X+7242435Y+846406D01*
X+7244514Y+846945D01*
X+7246593Y+847120D01*
X+7246600Y+847120D01*
X+7234100Y+834620D02*
X+7234143Y+833581D01*
X+7234495Y+831502D01*
X+7235232Y+829423D01*
X+7236436Y+827344D01*
X+7238277Y+825294D01*
X+7240356Y+823791D01*
X+7242435Y+822834D01*
X+7244514Y+822295D01*
X+7246593Y+822120D01*
X+7246600Y+822120D01*
X+7259100Y+834620D02*
X+7259057Y+833581D01*
X+7258705Y+831502D01*
X+7257968Y+829423D01*
X+7256764Y+827344D01*
X+7254923Y+825294D01*
X+7252844Y+823791D01*
X+7250765Y+822834D01*
X+7248686Y+822295D01*
X+7246607Y+822120D01*
X+7246600Y+822120D01*
D42*
X+7231600Y+899620D02*
X+7276600Y+899620D01*
X+7276600Y+1459620D01*
X+7231600Y+1459620D01*
X+6941600Y+899620D02*
X+6896600Y+899620D01*
X+6896600Y+1459620D01*
X+6941600Y+1459620D01*
D44*
X+7969100Y-1793340D02*
X+8109100Y-1793340D01*
X+7969100Y-1813340D02*
X+8109100Y-1813340D01*
X+7969100Y-1923340D02*
X+8109100Y-1923340D01*
X+8109100Y-1763340D01*
X+7969100Y-1763340D01*
X+7969100Y-1923340D01*
D42*
X+6805600Y+463120D02*
X+7205600Y+463120D01*
X+6805600Y-66880D02*
X+7205600Y-66880D01*
D41*
X+6642100Y+978120D02*
X+6515100Y+851120D01*
X+6134100Y+851120D01*
X+6007100Y+978120D01*
X+6007100Y+1422620D01*
X+6642100Y+1422620D01*
X+6642100Y+978120D01*
X+6515100Y+914620D02*
X+6515100Y+1041620D01*
X+6578600Y+978120D02*
X+6451600Y+978120D01*
D43*
X+6890100Y-819700D02*
X+6890057Y-818661D01*
X+6889705Y-816582D01*
X+6888968Y-814503D01*
X+6887764Y-812424D01*
X+6885923Y-810374D01*
X+6883844Y-808871D01*
X+6881765Y-807914D01*
X+6879686Y-807375D01*
X+6877607Y-807200D01*
X+6877600Y-807200D01*
X+6865100Y-819700D02*
X+6865143Y-818661D01*
X+6865495Y-816582D01*
X+6866232Y-814503D01*
X+6867436Y-812424D01*
X+6869277Y-810374D01*
X+6871356Y-808871D01*
X+6873435Y-807914D01*
X+6875514Y-807375D01*
X+6877593Y-807200D01*
X+6877600Y-807200D01*
X+6865100Y-819700D02*
X+6865143Y-820739D01*
X+6865495Y-822818D01*
X+6866232Y-824897D01*
X+6867436Y-826976D01*
X+6869277Y-829026D01*
X+6871356Y-830529D01*
X+6873435Y-831486D01*
X+6875514Y-832025D01*
X+6877593Y-832200D01*
X+6877600Y-832200D01*
X+6890100Y-819700D02*
X+6890057Y-820739D01*
X+6889705Y-822818D01*
X+6888968Y-824897D01*
X+6887764Y-826976D01*
X+6885923Y-829026D01*
X+6883844Y-830529D01*
X+6881765Y-831486D01*
X+6879686Y-832025D01*
X+6877607Y-832200D01*
X+6877600Y-832200D01*
D42*
X+6727600Y-1149700D02*
X+6507600Y-1149700D01*
X+6507600Y-839700D01*
X+6727600Y-839700D01*
X+6727600Y-1149700D01*
D45*
X+6727600Y-849700D02*
X+6717600Y-839700D01*
X+6727600Y-859700D02*
X+6707600Y-839700D01*
X+6727600Y-869700D02*
X+6697600Y-839700D01*
X+6727600Y-879700D02*
X+6687600Y-839700D01*
X+6727600Y-889700D02*
X+6677600Y-839700D01*
X+6727600Y-899700D02*
X+6667600Y-839700D01*
X+6727600Y-909700D02*
X+6657600Y-839700D01*
X+6727600Y-919700D02*
X+6647600Y-839700D01*
X+6727600Y-929700D02*
X+6637600Y-839700D01*
D41*
X+7881620Y-1948180D02*
X+7881620Y-1867218D01*
X+7870999Y-1865136D01*
X+7862433Y-1859416D01*
X+7856714Y-1850851D01*
X+7854632Y-1840230D01*
X+7881620Y-1813242D02*
X+7870999Y-1815324D01*
X+7862433Y-1821044D01*
X+7856714Y-1829609D01*
X+7854632Y-1840230D01*
X+7881620Y-1813242D02*
X+7881620Y-1732280D01*
X+7434580Y-1871980D02*
X+7434580Y-1808480D01*
X+7848600Y-1948180D02*
X+7467600Y-1948180D01*
X+7848600Y-1732280D02*
X+7467600Y-1732280D01*
X+7848600Y-1948180D02*
X+7881620Y-1948180D01*
X+7881620Y-1732280D02*
X+7848600Y-1732280D01*
X+7434580Y-1808480D02*
X+7434580Y-1732280D01*
X+7467600Y-1732280D01*
X+7467600Y-1948180D02*
X+7434580Y-1948180D01*
X+7434580Y-1871980D01*
X+7842504Y-1912620D02*
X+7842469Y-1911775D01*
X+7842182Y-1910084D01*
X+7841583Y-1908393D01*
X+7840603Y-1906702D01*
X+7839103Y-1905034D01*
X+7837412Y-1903814D01*
X+7835721Y-1903038D01*
X+7834030Y-1902601D01*
X+7832344Y-1902460D01*
X+7822184Y-1912620D02*
X+7822219Y-1911775D01*
X+7822506Y-1910084D01*
X+7823105Y-1908393D01*
X+7824085Y-1906702D01*
X+7825585Y-1905034D01*
X+7827276Y-1903814D01*
X+7828967Y-1903038D01*
X+7830658Y-1902601D01*
X+7832344Y-1902460D01*
X+7822184Y-1912620D02*
X+7822219Y-1913465D01*
X+7822506Y-1915156D01*
X+7823105Y-1916847D01*
X+7824085Y-1918538D01*
X+7825585Y-1920206D01*
X+7827276Y-1921426D01*
X+7828967Y-1922202D01*
X+7830658Y-1922639D01*
X+7832344Y-1922780D01*
X+7842504Y-1912620D02*
X+7842469Y-1913465D01*
X+7842182Y-1915156D01*
X+7841583Y-1916847D01*
X+7840603Y-1918538D01*
X+7839103Y-1920206D01*
X+7837412Y-1921426D01*
X+7835721Y-1922202D01*
X+7834030Y-1922639D01*
X+7832344Y-1922780D01*
D42*
X+6494600Y+542620D02*
X+6494600Y+132620D01*
X+6154600Y+542620D02*
X+6154600Y+132620D01*
D41*
X+7810500Y-889000D02*
X+7937500Y-1016000D01*
X+7937500Y-1270000D01*
X+7810500Y-1397000D01*
X+7429500Y-1397000D01*
X+7429500Y-889000D01*
X+7810500Y-889000D01*
X+7874000Y-1016000D02*
X+7747000Y-1016000D01*
X+7810500Y-952500D02*
X+7810500Y-1079500D01*
D42*
X+7753600Y-844380D02*
X+7643600Y-844380D01*
X+7753600Y-664380D02*
X+7643600Y-664380D01*
X+6610600Y-2241380D02*
X+6510600Y-2241380D01*
X+6610600Y-2061380D02*
X+6510600Y-2061380D01*
X+6583100Y-1733380D02*
X+6483100Y-1733380D01*
X+6583100Y-1553380D02*
X+6483100Y-1553380D01*
X+6615600Y-504880D02*
X+6615600Y-404880D01*
X+6795600Y-504880D02*
X+6795600Y-404880D01*
X+6120300Y-504880D02*
X+6120300Y-404880D01*
X+6300300Y-504880D02*
X+6300300Y-404880D01*
X+7154600Y-2241380D02*
X+7054600Y-2241380D01*
X+7154600Y-2061380D02*
X+7054600Y-2061380D01*
X+8345000Y-2190500D02*
X+8345000Y-2290500D01*
X+8165000Y-2190500D02*
X+8165000Y-2290500D01*
X+7753600Y-2495380D02*
X+7643600Y-2495380D01*
X+7753600Y-2315380D02*
X+7643600Y-2315380D01*
X+7144000Y-356700D02*
X+7034000Y-356700D01*
X+7144000Y-176700D02*
X+7034000Y-176700D01*
X+8192600Y-214380D02*
X+8192600Y-314380D01*
X+8012600Y-214380D02*
X+8012600Y-314380D01*
X+7689600Y-29380D02*
X+7789600Y-29380D01*
X+7689600Y-209380D02*
X+7789600Y-209380D01*
X+7753600Y-2749380D02*
X+7653600Y-2749380D01*
X+7753600Y-2569380D02*
X+7653600Y-2569380D01*
X+6554300Y-404880D02*
X+6554300Y-514880D01*
X+6374300Y-404880D02*
X+6374300Y-514880D01*
X+6712200Y-1492080D02*
X+6602200Y-1492080D01*
X+6712200Y-1312080D02*
X+6602200Y-1312080D01*
X+7164600Y-1733380D02*
X+7054600Y-1733380D01*
X+7164600Y-1553380D02*
X+7054600Y-1553380D01*
X+7164600Y-1987380D02*
X+7054600Y-1987380D01*
X+7164600Y-1807380D02*
X+7054600Y-1807380D01*
X+6610600Y-1987380D02*
X+6500600Y-1987380D01*
X+6610600Y-1807380D02*
X+6500600Y-1807380D01*
D41*
X-4229100Y+444500D02*
X-4229100Y+368300D01*
X-4864100Y+368300D01*
X-4864100Y+444500D01*
X-4508500Y+368300D02*
X-4508500Y+317500D01*
X-4584700Y+317500D01*
X-4584700Y+368300D01*
X-4279900Y+368300D02*
X-4279900Y+292100D01*
X-4343400Y+292100D01*
X-4343400Y+368300D01*
X-4813300Y+368300D02*
X-4813300Y+292100D01*
X-4749800Y+292100D01*
X-4749800Y+368300D02*
X-4749800Y+292100D01*
X-2882900Y+444500D02*
X-2882900Y+368300D01*
X-3517900Y+368300D01*
X-3517900Y+444500D01*
X-3162300Y+368300D02*
X-3162300Y+317500D01*
X-3238500Y+317500D01*
X-3238500Y+368300D01*
X-2933700Y+368300D02*
X-2933700Y+292100D01*
X-2997200Y+292100D01*
X-2997200Y+368300D01*
X-3467100Y+368300D02*
X-3467100Y+292100D01*
X-3403600Y+292100D01*
X-3403600Y+368300D02*
X-3403600Y+292100D01*
X-5318760Y-289560D02*
X-5229860Y-289560D01*
X-5212080Y-401320D02*
X-5140960Y-401320D01*
X-5318760Y-289560D02*
X-5318760Y-381000D01*
X-5029200Y-383540D02*
X-5029200Y-289560D01*
X-5115560Y-289560D01*
X-3985260Y-289560D02*
X-3896360Y-289560D01*
X-3878580Y-401320D02*
X-3807460Y-401320D01*
X-3985260Y-289560D02*
X-3985260Y-381000D01*
X-3695700Y-383540D02*
X-3695700Y-289560D01*
X-3782060Y-289560D01*
X-4363720Y-408940D02*
X-4452620Y-408940D01*
X-4470400Y-297180D02*
X-4541520Y-297180D01*
X-4363720Y-408940D02*
X-4363720Y-317500D01*
X-4653280Y-314960D02*
X-4653280Y-408940D01*
X-4566920Y-408940D01*
X-3030220Y-408940D02*
X-3119120Y-408940D01*
X-3136900Y-297180D02*
X-3208020Y-297180D01*
X-3030220Y-408940D02*
X-3030220Y-317500D01*
X-3319780Y-314960D02*
X-3319780Y-408940D01*
X-3233420Y-408940D01*
D42*
X-4736000Y-249500D02*
X-4736000Y-349500D01*
X-4916000Y-249500D02*
X-4916000Y-349500D01*
X-4101000Y-249500D02*
X-4101000Y-349500D01*
X-4281000Y-249500D02*
X-4281000Y-349500D01*
X-3402500Y-249500D02*
X-3402500Y-349500D01*
X-3582500Y-249500D02*
X-3582500Y-349500D01*
X-2767500Y-249500D02*
X-2767500Y-349500D01*
X-2947500Y-249500D02*
X-2947500Y-349500D01*
X+3529000Y-1337500D02*
X+3529000Y-1447500D01*
X+3349000Y-1337500D02*
X+3349000Y-1447500D01*
X+3846500Y-793500D02*
X+3846500Y-903500D01*
X+3666500Y-793500D02*
X+3666500Y-903500D01*
X+4354500Y-285500D02*
X+4354500Y-395500D01*
X+4174500Y-285500D02*
X+4174500Y-395500D01*
X+2841000Y-1447500D02*
X+2841000Y-1347500D01*
X+3021000Y-1447500D02*
X+3021000Y-1347500D01*
X+3349000Y-903500D02*
X+3349000Y-803500D01*
X+3529000Y-903500D02*
X+3529000Y-803500D01*
X+3920500Y-903500D02*
X+3920500Y-803500D01*
X+4100500Y-903500D02*
X+4100500Y-803500D01*
X+3095000Y-1447500D02*
X+3095000Y-1347500D01*
X+3275000Y-1447500D02*
X+3275000Y-1347500D01*
X+3920500Y-395500D02*
X+3920500Y-295500D01*
X+4100500Y-395500D02*
X+4100500Y-295500D01*
X+4428500Y-395500D02*
X+4428500Y-295500D01*
X+4608500Y-395500D02*
X+4608500Y-295500D01*
X+7216000Y-2503000D02*
X+7116000Y-2503000D01*
X+7216000Y-2323000D02*
X+7116000Y-2323000D01*
D41*
X+7420000Y-2282520D02*
X+7420000Y-2191080D01*
X+7340625Y-2191080D01*
X+7324750Y-2206320D01*
X+7324750Y-2221560D01*
X+7340625Y-2236800D01*
X+7420000Y-2236800D01*
X+7340625Y-2236800D02*
X+7324750Y-2252040D01*
X+7324750Y-2282520D01*
X+7293000Y-2191080D02*
X+7293000Y-2236800D01*
X+7245375Y-2282520D01*
X+7197750Y-2236800D01*
X+7197750Y-2191080D01*
X+7150125Y-2206320D02*
X+7134250Y-2191080D01*
X+7086625Y-2191080D01*
X+7070750Y-2206320D01*
X+7070750Y-2221560D01*
X+7086625Y-2236800D01*
X+7070750Y-2252040D01*
X+7070750Y-2267280D01*
X+7086625Y-2282520D01*
X+7134250Y-2282520D01*
X+7150125Y-2267280D01*
X+7118375Y-2236800D02*
X+7086625Y-2236800D01*
X+7007250Y-2221560D02*
X+6975500Y-2191080D01*
X+6975500Y-2282520D01*
X-7010400Y-1689100D02*
X-7086600Y-1689100D01*
X-7162800Y-1641475D01*
X-7086600Y-1593850D01*
X-7010400Y-1593850D01*
X-7061200Y-1546225D02*
X-7061200Y-1482725D01*
X-7086600Y-1466850D01*
X-7162800Y-1466850D01*
X-7162800Y-1546225D01*
X-7137400Y-1562100D01*
X-7112000Y-1546225D01*
X-7112000Y-1466850D01*
X-7010400Y-1387475D02*
X-7162800Y-1387475D01*
X-7061200Y-1308100D02*
X-7162800Y-1260475D01*
X-7061200Y-1212850D01*
X-7112000Y-1181100D02*
X-7112000Y-1085850D01*
X-7086600Y-1085850D01*
X-7061200Y-1101725D01*
X-7061200Y-1165225D01*
X-7086600Y-1181100D01*
X-7137400Y-1181100D01*
X-7162800Y-1165225D01*
X-7162800Y-1101725D01*
X-7162800Y-1054100D02*
X-7010400Y-1054100D01*
X-7010400Y-990600D01*
X-7061200Y-958850D01*
X-7112000Y-958850D01*
X-7162800Y-990600D01*
X-7162800Y-1054100D01*
X-7162800Y-927100D02*
X-7061200Y-927100D01*
X-7086600Y-927100D02*
X-7061200Y-911225D01*
X-7061200Y-847725D01*
X-7086600Y-831850D01*
X-7061200Y-752475D02*
X-7162800Y-752475D01*
X-7010400Y-752475D02*
X-7010400Y-752475D01*
X-7061200Y-673100D02*
X-7162800Y-625475D01*
X-7061200Y-577850D01*
X-7112000Y-546100D02*
X-7112000Y-450850D01*
X-7086600Y-450850D01*
X-7061200Y-466725D01*
X-7061200Y-530225D01*
X-7086600Y-546100D01*
X-7137400Y-546100D01*
X-7162800Y-530225D01*
X-7162800Y-466725D01*
X-7162800Y-419100D02*
X-7061200Y-419100D01*
X-7086600Y-419100D02*
X-7061200Y-403225D01*
X-7061200Y-339725D01*
X-7086600Y-323850D01*
X-7188200Y-292100D02*
X-7188200Y-196850D01*
X-7162800Y-165100D02*
X-7010400Y-165100D01*
X-7010400Y-85725D01*
X-7035800Y-69850D01*
X-7061200Y-69850D01*
X-7086600Y-85725D01*
X-7086600Y-165100D01*
X-7137400Y+57150D02*
X-7162800Y+41275D01*
X-7162800Y-6350D01*
X-7112000Y-38100D01*
X-7061200Y-38100D01*
X-7010400Y-6350D01*
X-7010400Y+41275D01*
X-7035800Y+57150D01*
X-7162800Y+88900D02*
X-7010400Y+88900D01*
X-7010400Y+168275D01*
X-7035800Y+184150D01*
X-7061200Y+184150D01*
X-7086600Y+168275D01*
X-7112000Y+184150D01*
X-7137400Y+184150D01*
X-7162800Y+168275D01*
X-7162800Y+88900D01*
X-7086600Y+88900D02*
X-7086600Y+168275D01*
X-7035800Y+231775D02*
X-7010400Y+247650D01*
X-7010400Y+295275D01*
X-7035800Y+311150D01*
X-7061200Y+311150D01*
X-7086600Y+295275D01*
X-7086600Y+247650D01*
X-7112000Y+231775D01*
X-7162800Y+231775D01*
X-7162800Y+311150D01*
X-7188200Y+342900D02*
X-7188200Y+438150D01*
X-7061200Y+469900D02*
X-7162800Y+517525D01*
X-7061200Y+565150D01*
X-7137400Y+596900D02*
X-7035800Y+596900D01*
X-7010400Y+612775D01*
X-7010400Y+676275D01*
X-7035800Y+692150D01*
X-7137400Y+692150D01*
X-7162800Y+676275D01*
X-7162800Y+612775D01*
X-7137400Y+596900D01*
X-7162800Y+596900D02*
X-7010400Y+692150D01*
X-7137400Y+771525D02*
X-7137400Y+787400D01*
X-7162800Y+787400D01*
X-7162800Y+771525D01*
X-7137400Y+771525D01*
X-7010400Y+946150D02*
X-7010400Y+866775D01*
X-7061200Y+866775D01*
X-7061200Y+930275D01*
X-7086600Y+946150D01*
X-7137400Y+946150D01*
X-7162800Y+930275D01*
X-7162800Y+882650D01*
X-7137400Y+866775D01*
X-7188200Y+977900D02*
X-7188200Y+1073150D01*
X-7162800Y+1104900D02*
X-7061200Y+1104900D01*
X-7010400Y+1136650D01*
X-7010400Y+1168400D01*
X-7061200Y+1200150D01*
X-7162800Y+1200150D01*
X-7112000Y+1104900D02*
X-7112000Y+1200150D01*
X-7010400Y+1231900D02*
X-7010400Y+1327150D01*
X-7010400Y+1279525D02*
X-7162800Y+1279525D01*
M02*
