G04 PROTEUS RS274X GERBER FILE*
%FSLAX45Y45*%
%MOMM*%
G01*
%ADD19C,1.016000*%
%ADD70C,2.032000*%
%ADD71C,1.270000*%
%ADD20C,0.762000*%
%ADD21C,1.524000*%
%ADD23C,3.810000*%
%ADD24C,2.540000*%
%ADD25R,2.032000X2.032000*%
%ADD36C,7.620000*%
%ADD41C,0.203200*%
D19*
X-3379970Y-639428D03*
X-3374955Y-1215192D03*
X-3238500Y-1905000D03*
D70*
X-635000Y+1841500D03*
X+1651000Y+1841500D03*
X+3383781Y+2028052D03*
D71*
X-4989352Y+736133D03*
X-3302000Y-63500D03*
X+8255000Y-2603500D03*
X+6032500Y-2095500D03*
X+3746500Y-2095500D03*
X+1460500Y-2095500D03*
X-889000Y-2095500D03*
X-3111500Y-2095500D03*
X-3492500Y-1905000D03*
X-3873500Y-1031366D03*
D20*
X-5080000Y-63500D03*
X+4749800Y+647700D03*
D70*
X+5765800Y+2654300D03*
D21*
X+6578600Y+1587500D03*
D70*
X+4779148Y+2286000D03*
D20*
X+5235080Y-3871250D03*
D23*
X-7048500Y-2476500D03*
X-7048500Y-2921000D03*
D24*
X-2095500Y+1841500D03*
X-1651000Y+1841500D03*
D25*
X-2921000Y-3556000D03*
X-2921000Y-3048000D03*
X-2921000Y-3302000D03*
D24*
X+901700Y+1841500D03*
D25*
X-762000Y-3556000D03*
X-762000Y-3302000D03*
X-762000Y-3048000D03*
X+1587500Y-3302000D03*
X+1587500Y-3556000D03*
X+1587500Y-3048000D03*
D24*
X+2857500Y+1841500D03*
D25*
X+3937000Y-3556000D03*
X+5753100Y-3556000D03*
X+3937000Y-3048000D03*
X+5753100Y-3048000D03*
X+3937000Y-3302000D03*
X+5753100Y-3302000D03*
D24*
X+5207000Y+1841500D03*
X+6756400Y+1841500D03*
D25*
X+7112000Y-3302000D03*
X+7112000Y-3556000D03*
X+7112000Y-3048000D03*
D24*
X+6311900Y+1841500D03*
D25*
X-4254500Y-3556000D03*
D36*
X-6921500Y-3746500D03*
X-6921500Y+2413000D03*
X+8001000Y+2413000D03*
X+8001000Y-3746500D03*
D24*
X-4191000Y+1841500D03*
X-4635500Y+1841500D03*
X-2921000Y+1841500D03*
X-3365500Y+1841500D03*
D25*
X-4254500Y-3048000D03*
X-4254500Y-3302000D03*
X+3746500Y+2095500D03*
X+2603500Y-3175000D03*
X+3746500Y+1841500D03*
X+4000500Y+2095500D03*
X+2603500Y-3429000D03*
X+4000500Y+1841500D03*
X+4254500Y+2095500D03*
X+2603500Y-3683000D03*
X+4254500Y+1841500D03*
X-5143500Y-3048000D03*
X-5143500Y-3302000D03*
X-5143500Y-3556000D03*
D24*
X+469900Y+1841500D03*
X+2413000Y+1841500D03*
X+4762500Y+1841500D03*
D41*
X-7429500Y-4254500D02*
X+8509000Y-4254500D01*
X+8509000Y+2921000D01*
X-7429500Y+2921000D01*
X-7429500Y-4254500D01*
M02*
