G04 PROTEUS RS274X GERBER FILE*
%FSLAX45Y45*%
%MOMM*%
G01*
%ADD41C,0.203200*%
%ADD105C,0.406400*%
%ADD121C,0.072390*%
%ADD97C,2.794000*%
%ADD112C,0.157050*%
%ADD84C,0.050000*%
%ADD91C,0.843280*%
%ADD122C,0.130000*%
%ADD103C,0.355600*%
%ADD115C,0.057150*%
%ADD85C,1.828800*%
%ADD86C,0.184350*%
%ADD93C,1.219200*%
%ADD111C,0.158110*%
%ADD107C,0.342900*%
%ADD123C,0.122500*%
%ADD99C,0.571500*%
%ADD114C,0.175890*%
%ADD95C,1.120140*%
%ADD11C,1.016000*%
%ADD113C,0.127000*%
%ADD89C,0.721360*%
%ADD110C,0.082770*%
%ADD109C,0.080270*%
%ADD106C,0.096520*%
D41*
X-7429500Y-4254500D02*
X+8509000Y-4254500D01*
X+8509000Y+2921000D01*
X-7429500Y+2921000D01*
X-7429500Y-4254500D01*
X+8041640Y-1630680D02*
X+8351520Y-1630680D01*
X+8351520Y-1338580D01*
X+8041640Y-1338580D01*
X+8041640Y-1630680D01*
D105*
X+8196580Y-1389380D02*
X+8196580Y-1389380D01*
D121*
X+8326882Y-1512951D02*
X+8310595Y-1498473D01*
X+8294307Y-1498473D01*
X+8278019Y-1512951D01*
X+8278019Y-1527429D01*
X+8294307Y-1541907D01*
X+8310595Y-1541907D01*
X+8326882Y-1527429D01*
X+8326882Y-1512951D01*
X+8294307Y-1527429D02*
X+8278019Y-1541907D01*
X+8261731Y-1498473D02*
X+8261731Y-1520190D01*
X+8237300Y-1541907D01*
X+8212868Y-1520190D01*
X+8212868Y-1498473D01*
X+8180293Y-1512951D02*
X+8164005Y-1498473D01*
X+8164005Y-1541907D01*
X+8115142Y-1512951D02*
X+8098854Y-1498473D01*
X+8098854Y-1541907D01*
D41*
X+7524750Y+7620D02*
X+8223250Y+7620D01*
X+8223250Y+1174750D01*
X+7524750Y+1174750D01*
X+7524750Y+7620D01*
D97*
X+7874000Y+825500D02*
X+7874000Y+825500D01*
D112*
X+8156702Y+362416D02*
X+8121365Y+393827D01*
X+8086027Y+393827D01*
X+8050689Y+362416D01*
X+8050689Y+331004D01*
X+8086027Y+299593D01*
X+8121365Y+299593D01*
X+8156702Y+331004D01*
X+8156702Y+362416D01*
X+8086027Y+331004D02*
X+8050689Y+299593D01*
X+8015351Y+393827D02*
X+8015351Y+346710D01*
X+7962345Y+299593D01*
X+7909338Y+346710D01*
X+7909338Y+393827D01*
X+7838663Y+362416D02*
X+7803325Y+393827D01*
X+7803325Y+299593D01*
X+7714981Y+378121D02*
X+7697312Y+393827D01*
X+7644305Y+393827D01*
X+7626636Y+378121D01*
X+7626636Y+362416D01*
X+7644305Y+346710D01*
X+7697312Y+346710D01*
X+7714981Y+331004D01*
X+7714981Y+299593D01*
X+7626636Y+299593D01*
D84*
X+6871600Y+824620D02*
X+6871600Y+1534620D01*
X+7301600Y+1534620D01*
X+7301600Y+824620D01*
X+6871600Y+824620D01*
X+7136600Y+1179620D02*
X+7036600Y+1179620D01*
X+7086600Y+1229620D02*
X+7086600Y+1129620D01*
D91*
X+7086600Y+954620D02*
X+7086600Y+954620D01*
D122*
X+7125602Y+1500958D02*
X+7047599Y+1500958D01*
X+7047599Y+1442457D01*
X+7073600Y+1413206D01*
X+7099601Y+1413206D01*
X+7125602Y+1442457D01*
X+7125602Y+1500958D01*
X+7047599Y+1383955D02*
X+7086600Y+1383955D01*
X+7125602Y+1340079D01*
X+7086600Y+1296203D01*
X+7047599Y+1296203D01*
X+7073600Y+1237702D02*
X+7047599Y+1208451D01*
X+7125602Y+1208451D01*
X+7073600Y+1120699D02*
X+7047599Y+1091448D01*
X+7125602Y+1091448D01*
D41*
X+7964020Y-1992630D02*
X+8114180Y-1992630D01*
X+8114180Y-1694180D01*
X+7964020Y-1694180D01*
X+7964020Y-1992630D01*
D103*
X+8039100Y-1725930D02*
X+8039100Y-1725930D01*
D115*
X+8056245Y-1765300D02*
X+8021955Y-1765300D01*
X+8021955Y-1791017D01*
X+8033385Y-1803876D01*
X+8044815Y-1803876D01*
X+8056245Y-1791017D01*
X+8056245Y-1765300D01*
X+8021955Y-1816735D02*
X+8039100Y-1816735D01*
X+8056245Y-1836023D01*
X+8039100Y-1855311D01*
X+8021955Y-1855311D01*
X+8033385Y-1881028D02*
X+8021955Y-1893887D01*
X+8056245Y-1893887D01*
X+8027670Y-1926034D02*
X+8021955Y-1932463D01*
X+8021955Y-1951751D01*
X+8027670Y-1958181D01*
X+8033385Y-1958181D01*
X+8039100Y-1951751D01*
X+8039100Y-1932463D01*
X+8044815Y-1926034D01*
X+8056245Y-1926034D01*
X+8056245Y-1958181D01*
D84*
X+6620600Y+488120D02*
X+7390600Y+488120D01*
X+7390600Y-91880D01*
X+6620600Y-91880D01*
X+6620600Y+488120D01*
X+7005600Y+148120D02*
X+7005600Y+248120D01*
X+7055600Y+198120D02*
X+6955600Y+198120D01*
D85*
X+6705600Y+198120D02*
X+6705600Y+198120D01*
D86*
X+7343950Y+253426D02*
X+7343950Y+142813D01*
X+7219510Y+142813D01*
X+7178030Y+253426D02*
X+7178030Y+198120D01*
X+7115810Y+142813D01*
X+7053590Y+198120D01*
X+7053590Y+253426D01*
X+6887670Y+234991D02*
X+6908410Y+253426D01*
X+6970630Y+253426D01*
X+6991370Y+234991D01*
X+6991370Y+161248D01*
X+6970630Y+142813D01*
X+6908410Y+142813D01*
X+6887670Y+161248D01*
X+6887670Y+179684D01*
X+6908410Y+198120D01*
X+6991370Y+198120D01*
D41*
X+5996940Y+762220D02*
X+6652260Y+762220D01*
X+6652260Y+1511520D01*
X+5996940Y+1511520D01*
X+5996940Y+762220D01*
D93*
X+6324600Y+914620D02*
X+6324600Y+914620D01*
D111*
X+6502479Y+1211927D02*
X+6520267Y+1196116D01*
X+6573631Y+1196116D01*
X+6609206Y+1227739D01*
X+6609206Y+1259362D01*
X+6573631Y+1290985D01*
X+6520267Y+1290985D01*
X+6502479Y+1275173D01*
X+6466903Y+1290985D02*
X+6466903Y+1243550D01*
X+6413540Y+1196116D01*
X+6360176Y+1243550D01*
X+6360176Y+1290985D01*
X+6217873Y+1275173D02*
X+6235661Y+1290985D01*
X+6289025Y+1290985D01*
X+6306813Y+1275173D01*
X+6306813Y+1211927D01*
X+6289025Y+1196116D01*
X+6235661Y+1196116D01*
X+6217873Y+1211927D01*
X+6217873Y+1227739D01*
X+6235661Y+1243550D01*
X+6306813Y+1243550D01*
X+6075570Y+1290985D02*
X+6164510Y+1290985D01*
X+6164510Y+1259362D01*
X+6093358Y+1259362D01*
X+6075570Y+1243550D01*
X+6075570Y+1211927D01*
X+6093358Y+1196116D01*
X+6146722Y+1196116D01*
X+6164510Y+1211927D01*
D84*
X+6927600Y-1174700D02*
X+6307600Y-1174700D01*
X+6307600Y-814700D01*
X+6927600Y-814700D01*
X+6927600Y-1174700D01*
X+6617600Y-944700D02*
X+6617600Y-1044700D01*
X+6567600Y-994700D02*
X+6667600Y-994700D01*
D107*
X+6832600Y-897200D02*
X+6832600Y-897200D01*
D123*
X+6780792Y-957948D02*
X+6780792Y-1019202D01*
X+6767010Y-1031453D01*
X+6711882Y-1031453D01*
X+6698100Y-1019202D01*
X+6698100Y-957948D01*
X+6670535Y-957948D02*
X+6670535Y-994700D01*
X+6629189Y-1031453D01*
X+6587843Y-994700D01*
X+6587843Y-957948D01*
X+6532714Y-982450D02*
X+6505150Y-957948D01*
X+6505150Y-1031453D01*
X+6422457Y-982450D02*
X+6394893Y-957948D01*
X+6394893Y-1031453D01*
D41*
X+7424420Y-2202180D02*
X+7891780Y-2202180D01*
X+7891780Y-1478280D01*
X+7424420Y-1478280D01*
X+7424420Y-2202180D01*
D99*
X+7848600Y-2100580D02*
X+7848600Y-2100580D01*
D114*
X+7569454Y-1523620D02*
X+7657402Y-1523620D01*
X+7674991Y-1543408D01*
X+7674991Y-1622560D01*
X+7657402Y-1642348D01*
X+7569454Y-1642348D01*
X+7569454Y-1681925D02*
X+7622223Y-1681925D01*
X+7674991Y-1741289D01*
X+7622223Y-1800653D01*
X+7569454Y-1800653D01*
X+7604633Y-1879806D02*
X+7569454Y-1919382D01*
X+7674991Y-1919382D01*
X+7587044Y-2018323D02*
X+7569454Y-2038111D01*
X+7569454Y-2097475D01*
X+7587044Y-2117263D01*
X+7604633Y-2117263D01*
X+7622223Y-2097475D01*
X+7622223Y-2038111D01*
X+7639812Y-2018323D01*
X+7674991Y-2018323D01*
X+7674991Y-2117263D01*
D84*
X+6519600Y+732620D02*
X+6519600Y-57380D01*
X+6129600Y-57380D01*
X+6129600Y+732620D01*
X+6519600Y+732620D01*
X+6274600Y+337620D02*
X+6374600Y+337620D01*
X+6324600Y+287620D02*
X+6324600Y+387620D01*
D95*
X+6324600Y+642620D02*
X+6324600Y+642620D01*
D112*
X+6371563Y+545143D02*
X+6277637Y+545143D01*
X+6277637Y+457088D01*
X+6293291Y+439477D01*
X+6308946Y+439477D01*
X+6324600Y+457088D01*
X+6324600Y+545143D01*
X+6324600Y+457088D02*
X+6340254Y+439477D01*
X+6371563Y+439477D01*
X+6277637Y+404255D02*
X+6324600Y+404255D01*
X+6371563Y+351422D01*
X+6324600Y+298589D01*
X+6277637Y+298589D01*
X+6277637Y+245756D02*
X+6277637Y+157701D01*
X+6293291Y+157701D01*
X+6371563Y+245756D01*
X+6293291Y+104868D02*
X+6277637Y+87257D01*
X+6277637Y+34424D01*
X+6293291Y+16813D01*
X+6308946Y+16813D01*
X+6324600Y+34424D01*
X+6324600Y+87257D01*
X+6340254Y+104868D01*
X+6371563Y+104868D01*
X+6371563Y+16813D01*
D41*
X+7340600Y-1407160D02*
X+8026400Y-1407160D01*
X+8026400Y-878840D01*
X+7340600Y-878840D01*
X+7340600Y-1407160D01*
D11*
X+7874000Y-1143000D02*
X+7874000Y-1143000D01*
D113*
X+7607300Y-1000125D02*
X+7620000Y-985837D01*
X+7620000Y-942975D01*
X+7594600Y-914400D01*
X+7569200Y-914400D01*
X+7543800Y-942975D01*
X+7543800Y-985837D01*
X+7556500Y-1000125D01*
X+7543800Y-1028700D02*
X+7581900Y-1028700D01*
X+7620000Y-1071562D01*
X+7581900Y-1114425D01*
X+7543800Y-1114425D01*
X+7556500Y-1228725D02*
X+7543800Y-1214437D01*
X+7543800Y-1171575D01*
X+7556500Y-1157287D01*
X+7607300Y-1157287D01*
X+7620000Y-1171575D01*
X+7620000Y-1214437D01*
X+7607300Y-1228725D01*
X+7594600Y-1228725D01*
X+7581900Y-1214437D01*
X+7581900Y-1157287D01*
X+7556500Y-1343025D02*
X+7543800Y-1328737D01*
X+7543800Y-1285875D01*
X+7556500Y-1271587D01*
X+7607300Y-1271587D01*
X+7620000Y-1285875D01*
X+7620000Y-1328737D01*
X+7607300Y-1343025D01*
X+7594600Y-1343025D01*
X+7581900Y-1328737D01*
X+7581900Y-1271587D01*
D84*
X+7933600Y-869380D02*
X+7463600Y-869380D01*
X+7463600Y-639380D01*
X+7933600Y-639380D01*
X+7933600Y-869380D01*
X+7698600Y-704380D02*
X+7698600Y-804380D01*
X+7648600Y-754380D02*
X+7748600Y-754380D01*
D89*
X+7848600Y-754380D02*
X+7848600Y-754380D01*
D110*
X+7729941Y-770936D02*
X+7739254Y-779214D01*
X+7767191Y-779214D01*
X+7785816Y-762658D01*
X+7785816Y-746103D01*
X+7767191Y-729547D01*
X+7739254Y-729547D01*
X+7729941Y-737825D01*
X+7711316Y-729547D02*
X+7711316Y-754380D01*
X+7683379Y-779214D01*
X+7655441Y-754380D01*
X+7655441Y-729547D01*
X+7580941Y-737825D02*
X+7590254Y-729547D01*
X+7618191Y-729547D01*
X+7627504Y-737825D01*
X+7627504Y-770936D01*
X+7618191Y-779214D01*
X+7590254Y-779214D01*
X+7580941Y-770936D01*
X+7580941Y-762658D01*
X+7590254Y-754380D01*
X+7627504Y-754380D01*
X+7553004Y-737825D02*
X+7543691Y-729547D01*
X+7515754Y-729547D01*
X+7506441Y-737825D01*
X+7506441Y-746103D01*
X+7515754Y-754380D01*
X+7506441Y-762658D01*
X+7506441Y-770936D01*
X+7515754Y-779214D01*
X+7543691Y-779214D01*
X+7553004Y-770936D01*
X+7534379Y-754380D02*
X+7515754Y-754380D01*
D84*
X+6790600Y-2266380D02*
X+6330600Y-2266380D01*
X+6330600Y-2036380D01*
X+6790600Y-2036380D01*
X+6790600Y-2266380D01*
X+6560600Y-2101380D02*
X+6560600Y-2201380D01*
X+6510600Y-2151380D02*
X+6610600Y-2151380D01*
D89*
X+6705600Y-2151380D02*
X+6705600Y-2151380D01*
D109*
X+6643316Y-2175464D02*
X+6643316Y-2127297D01*
X+6598160Y-2127297D01*
X+6589129Y-2135325D01*
X+6589129Y-2143353D01*
X+6598160Y-2151380D01*
X+6643316Y-2151380D01*
X+6598160Y-2151380D02*
X+6589129Y-2159408D01*
X+6589129Y-2175464D01*
X+6571066Y-2127297D02*
X+6571066Y-2151380D01*
X+6543973Y-2175464D01*
X+6516879Y-2151380D01*
X+6516879Y-2127297D01*
X+6444629Y-2135325D02*
X+6453660Y-2127297D01*
X+6480754Y-2127297D01*
X+6489785Y-2135325D01*
X+6489785Y-2167436D01*
X+6480754Y-2175464D01*
X+6453660Y-2175464D01*
X+6444629Y-2167436D01*
X+6444629Y-2159408D01*
X+6453660Y-2151380D01*
X+6489785Y-2151380D01*
X+6408504Y-2143353D02*
X+6390441Y-2127297D01*
X+6390441Y-2175464D01*
D84*
X+6763100Y-1758380D02*
X+6303100Y-1758380D01*
X+6303100Y-1528380D01*
X+6763100Y-1528380D01*
X+6763100Y-1758380D01*
X+6533100Y-1593380D02*
X+6533100Y-1693380D01*
X+6483100Y-1643380D02*
X+6583100Y-1643380D01*
D89*
X+6678100Y-1643380D02*
X+6678100Y-1643380D01*
D109*
X+6615816Y-1667464D02*
X+6615816Y-1619297D01*
X+6570660Y-1619297D01*
X+6561629Y-1627325D01*
X+6561629Y-1635353D01*
X+6570660Y-1643380D01*
X+6615816Y-1643380D01*
X+6570660Y-1643380D02*
X+6561629Y-1651408D01*
X+6561629Y-1667464D01*
X+6543566Y-1619297D02*
X+6543566Y-1643380D01*
X+6516473Y-1667464D01*
X+6489379Y-1643380D01*
X+6489379Y-1619297D01*
X+6417129Y-1627325D02*
X+6426160Y-1619297D01*
X+6453254Y-1619297D01*
X+6462285Y-1627325D01*
X+6462285Y-1659436D01*
X+6453254Y-1667464D01*
X+6426160Y-1667464D01*
X+6417129Y-1659436D01*
X+6417129Y-1651408D01*
X+6426160Y-1643380D01*
X+6462285Y-1643380D01*
X+6390035Y-1627325D02*
X+6381004Y-1619297D01*
X+6353910Y-1619297D01*
X+6344879Y-1627325D01*
X+6344879Y-1635353D01*
X+6353910Y-1643380D01*
X+6381004Y-1643380D01*
X+6390035Y-1651408D01*
X+6390035Y-1667464D01*
X+6344879Y-1667464D01*
D84*
X+6590600Y-684880D02*
X+6590600Y-224880D01*
X+6820600Y-224880D01*
X+6820600Y-684880D01*
X+6590600Y-684880D01*
X+6755600Y-454880D02*
X+6655600Y-454880D01*
X+6705600Y-404880D02*
X+6705600Y-504880D01*
D89*
X+6705600Y-599880D02*
X+6705600Y-599880D01*
D109*
X+6729684Y-248596D02*
X+6681517Y-248596D01*
X+6681517Y-293752D01*
X+6689545Y-302783D01*
X+6697573Y-302783D01*
X+6705600Y-293752D01*
X+6705600Y-248596D01*
X+6705600Y-293752D02*
X+6713628Y-302783D01*
X+6729684Y-302783D01*
X+6681517Y-320846D02*
X+6705600Y-320846D01*
X+6729684Y-347939D01*
X+6705600Y-375033D01*
X+6681517Y-375033D01*
X+6689545Y-447283D02*
X+6681517Y-438252D01*
X+6681517Y-411158D01*
X+6689545Y-402127D01*
X+6721656Y-402127D01*
X+6729684Y-411158D01*
X+6729684Y-438252D01*
X+6721656Y-447283D01*
X+6713628Y-447283D01*
X+6705600Y-438252D01*
X+6705600Y-402127D01*
X+6689545Y-474377D02*
X+6681517Y-483408D01*
X+6681517Y-510502D01*
X+6689545Y-519533D01*
X+6697573Y-519533D01*
X+6705600Y-510502D01*
X+6713628Y-519533D01*
X+6721656Y-519533D01*
X+6729684Y-510502D01*
X+6729684Y-483408D01*
X+6721656Y-474377D01*
X+6705600Y-492439D02*
X+6705600Y-510502D01*
D84*
X+6095300Y-684880D02*
X+6095300Y-224880D01*
X+6325300Y-224880D01*
X+6325300Y-684880D01*
X+6095300Y-684880D01*
X+6260300Y-454880D02*
X+6160300Y-454880D01*
X+6210300Y-404880D02*
X+6210300Y-504880D01*
D89*
X+6210300Y-599880D02*
X+6210300Y-599880D01*
D109*
X+6234384Y-248596D02*
X+6186217Y-248596D01*
X+6186217Y-293752D01*
X+6194245Y-302783D01*
X+6202273Y-302783D01*
X+6210300Y-293752D01*
X+6210300Y-248596D01*
X+6210300Y-293752D02*
X+6218328Y-302783D01*
X+6234384Y-302783D01*
X+6186217Y-320846D02*
X+6210300Y-320846D01*
X+6234384Y-347939D01*
X+6210300Y-375033D01*
X+6186217Y-375033D01*
X+6194245Y-447283D02*
X+6186217Y-438252D01*
X+6186217Y-411158D01*
X+6194245Y-402127D01*
X+6226356Y-402127D01*
X+6234384Y-411158D01*
X+6234384Y-438252D01*
X+6226356Y-447283D01*
X+6218328Y-447283D01*
X+6210300Y-438252D01*
X+6210300Y-402127D01*
X+6218328Y-519533D02*
X+6218328Y-465346D01*
X+6186217Y-501471D01*
X+6234384Y-501471D01*
D84*
X+7334600Y-2266380D02*
X+6874600Y-2266380D01*
X+6874600Y-2036380D01*
X+7334600Y-2036380D01*
X+7334600Y-2266380D01*
X+7104600Y-2101380D02*
X+7104600Y-2201380D01*
X+7054600Y-2151380D02*
X+7154600Y-2151380D01*
D89*
X+7249600Y-2151380D02*
X+7249600Y-2151380D01*
D109*
X+7187316Y-2175464D02*
X+7187316Y-2127297D01*
X+7142160Y-2127297D01*
X+7133129Y-2135325D01*
X+7133129Y-2143353D01*
X+7142160Y-2151380D01*
X+7187316Y-2151380D01*
X+7142160Y-2151380D02*
X+7133129Y-2159408D01*
X+7133129Y-2175464D01*
X+7115066Y-2127297D02*
X+7115066Y-2151380D01*
X+7087973Y-2175464D01*
X+7060879Y-2151380D01*
X+7060879Y-2127297D01*
X+6988629Y-2135325D02*
X+6997660Y-2127297D01*
X+7024754Y-2127297D01*
X+7033785Y-2135325D01*
X+7033785Y-2167436D01*
X+7024754Y-2175464D01*
X+6997660Y-2175464D01*
X+6988629Y-2167436D01*
X+6988629Y-2159408D01*
X+6997660Y-2151380D01*
X+7033785Y-2151380D01*
X+6916379Y-2127297D02*
X+6961535Y-2127297D01*
X+6961535Y-2143353D01*
X+6925410Y-2143353D01*
X+6916379Y-2151380D01*
X+6916379Y-2167436D01*
X+6925410Y-2175464D01*
X+6952504Y-2175464D01*
X+6961535Y-2167436D01*
D84*
X+8370000Y-2010500D02*
X+8370000Y-2470500D01*
X+8140000Y-2470500D01*
X+8140000Y-2010500D01*
X+8370000Y-2010500D01*
X+8205000Y-2240500D02*
X+8305000Y-2240500D01*
X+8255000Y-2290500D02*
X+8255000Y-2190500D01*
D89*
X+8255000Y-2095500D02*
X+8255000Y-2095500D01*
D109*
X+8279084Y-2157784D02*
X+8230917Y-2157784D01*
X+8230917Y-2202940D01*
X+8238945Y-2211971D01*
X+8246973Y-2211971D01*
X+8255000Y-2202940D01*
X+8255000Y-2157784D01*
X+8255000Y-2202940D02*
X+8263028Y-2211971D01*
X+8279084Y-2211971D01*
X+8230917Y-2230034D02*
X+8255000Y-2230034D01*
X+8279084Y-2257127D01*
X+8255000Y-2284221D01*
X+8230917Y-2284221D01*
X+8238945Y-2356471D02*
X+8230917Y-2347440D01*
X+8230917Y-2320346D01*
X+8238945Y-2311315D01*
X+8271056Y-2311315D01*
X+8279084Y-2320346D01*
X+8279084Y-2347440D01*
X+8271056Y-2356471D01*
X+8263028Y-2356471D01*
X+8255000Y-2347440D01*
X+8255000Y-2311315D01*
X+8255000Y-2392596D02*
X+8246973Y-2383565D01*
X+8238945Y-2383565D01*
X+8230917Y-2392596D01*
X+8230917Y-2419690D01*
X+8238945Y-2428721D01*
X+8246973Y-2428721D01*
X+8255000Y-2419690D01*
X+8255000Y-2392596D01*
X+8263028Y-2383565D01*
X+8271056Y-2383565D01*
X+8279084Y-2392596D01*
X+8279084Y-2419690D01*
X+8271056Y-2428721D01*
X+8263028Y-2428721D01*
X+8255000Y-2419690D01*
D84*
X+7933600Y-2520380D02*
X+7463600Y-2520380D01*
X+7463600Y-2290380D01*
X+7933600Y-2290380D01*
X+7933600Y-2520380D01*
X+7698600Y-2355380D02*
X+7698600Y-2455380D01*
X+7648600Y-2405380D02*
X+7748600Y-2405380D01*
D89*
X+7848600Y-2405380D02*
X+7848600Y-2405380D01*
D110*
X+7729941Y-2421936D02*
X+7739254Y-2430214D01*
X+7767191Y-2430214D01*
X+7785816Y-2413658D01*
X+7785816Y-2397103D01*
X+7767191Y-2380547D01*
X+7739254Y-2380547D01*
X+7729941Y-2388825D01*
X+7711316Y-2380547D02*
X+7711316Y-2405380D01*
X+7683379Y-2430214D01*
X+7655441Y-2405380D01*
X+7655441Y-2380547D01*
X+7580941Y-2388825D02*
X+7590254Y-2380547D01*
X+7618191Y-2380547D01*
X+7627504Y-2388825D01*
X+7627504Y-2421936D01*
X+7618191Y-2430214D01*
X+7590254Y-2430214D01*
X+7580941Y-2421936D01*
X+7580941Y-2413658D01*
X+7590254Y-2405380D01*
X+7627504Y-2405380D01*
X+7553004Y-2388825D02*
X+7543691Y-2380547D01*
X+7515754Y-2380547D01*
X+7506441Y-2388825D01*
X+7506441Y-2397103D01*
X+7515754Y-2405380D01*
X+7543691Y-2405380D01*
X+7553004Y-2413658D01*
X+7553004Y-2430214D01*
X+7506441Y-2430214D01*
D84*
X+7324000Y-381700D02*
X+6854000Y-381700D01*
X+6854000Y-151700D01*
X+7324000Y-151700D01*
X+7324000Y-381700D01*
X+7089000Y-216700D02*
X+7089000Y-316700D01*
X+7039000Y-266700D02*
X+7139000Y-266700D01*
D89*
X+7239000Y-266700D02*
X+7239000Y-266700D01*
D110*
X+7120341Y-283256D02*
X+7129654Y-291534D01*
X+7157591Y-291534D01*
X+7176216Y-274978D01*
X+7176216Y-258423D01*
X+7157591Y-241867D01*
X+7129654Y-241867D01*
X+7120341Y-250145D01*
X+7101716Y-241867D02*
X+7101716Y-266700D01*
X+7073779Y-291534D01*
X+7045841Y-266700D01*
X+7045841Y-241867D01*
X+6971341Y-250145D02*
X+6980654Y-241867D01*
X+7008591Y-241867D01*
X+7017904Y-250145D01*
X+7017904Y-283256D01*
X+7008591Y-291534D01*
X+6980654Y-291534D01*
X+6971341Y-283256D01*
X+6971341Y-274978D01*
X+6980654Y-266700D01*
X+7017904Y-266700D01*
X+6896841Y-274978D02*
X+6952716Y-274978D01*
X+6915466Y-241867D01*
X+6915466Y-291534D01*
D84*
X+8217600Y-34380D02*
X+8217600Y-494380D01*
X+7987600Y-494380D01*
X+7987600Y-34380D01*
X+8217600Y-34380D01*
X+8052600Y-264380D02*
X+8152600Y-264380D01*
X+8102600Y-314380D02*
X+8102600Y-214380D01*
D89*
X+8102600Y-119380D02*
X+8102600Y-119380D01*
D109*
X+8126684Y-181664D02*
X+8078517Y-181664D01*
X+8078517Y-226820D01*
X+8086545Y-235851D01*
X+8094573Y-235851D01*
X+8102600Y-226820D01*
X+8102600Y-181664D01*
X+8102600Y-226820D02*
X+8110628Y-235851D01*
X+8126684Y-235851D01*
X+8078517Y-253914D02*
X+8102600Y-253914D01*
X+8126684Y-281007D01*
X+8102600Y-308101D01*
X+8078517Y-308101D01*
X+8086545Y-380351D02*
X+8078517Y-371320D01*
X+8078517Y-344226D01*
X+8086545Y-335195D01*
X+8118656Y-335195D01*
X+8126684Y-344226D01*
X+8126684Y-371320D01*
X+8118656Y-380351D01*
X+8110628Y-380351D01*
X+8102600Y-371320D01*
X+8102600Y-335195D01*
X+8094573Y-452601D02*
X+8102600Y-443570D01*
X+8102600Y-416476D01*
X+8094573Y-407445D01*
X+8086545Y-407445D01*
X+8078517Y-416476D01*
X+8078517Y-443570D01*
X+8086545Y-452601D01*
X+8118656Y-452601D01*
X+8126684Y-443570D01*
X+8126684Y-416476D01*
D84*
X+7509600Y-4380D02*
X+7969600Y-4380D01*
X+7969600Y-234380D01*
X+7509600Y-234380D01*
X+7509600Y-4380D01*
X+7739600Y-169380D02*
X+7739600Y-69380D01*
X+7789600Y-119380D02*
X+7689600Y-119380D01*
D89*
X+7594600Y-119380D02*
X+7594600Y-119380D01*
D109*
X+7945884Y-143464D02*
X+7945884Y-95297D01*
X+7900728Y-95297D01*
X+7891697Y-103325D01*
X+7891697Y-111353D01*
X+7900728Y-119380D01*
X+7945884Y-119380D01*
X+7900728Y-119380D02*
X+7891697Y-127408D01*
X+7891697Y-143464D01*
X+7873634Y-95297D02*
X+7873634Y-119380D01*
X+7846541Y-143464D01*
X+7819447Y-119380D01*
X+7819447Y-95297D01*
X+7792353Y-95297D02*
X+7747197Y-95297D01*
X+7747197Y-103325D01*
X+7792353Y-143464D01*
X+7729134Y-135436D02*
X+7729134Y-103325D01*
X+7720103Y-95297D01*
X+7683978Y-95297D01*
X+7674947Y-103325D01*
X+7674947Y-135436D01*
X+7683978Y-143464D01*
X+7720103Y-143464D01*
X+7729134Y-135436D01*
X+7729134Y-143464D02*
X+7674947Y-95297D01*
D84*
X+7933600Y-2774380D02*
X+7473600Y-2774380D01*
X+7473600Y-2544380D01*
X+7933600Y-2544380D01*
X+7933600Y-2774380D01*
X+7703600Y-2609380D02*
X+7703600Y-2709380D01*
X+7653600Y-2659380D02*
X+7753600Y-2659380D01*
D89*
X+7848600Y-2659380D02*
X+7848600Y-2659380D01*
D109*
X+7786316Y-2683464D02*
X+7786316Y-2635297D01*
X+7741160Y-2635297D01*
X+7732129Y-2643325D01*
X+7732129Y-2651353D01*
X+7741160Y-2659380D01*
X+7786316Y-2659380D01*
X+7741160Y-2659380D02*
X+7732129Y-2667408D01*
X+7732129Y-2683464D01*
X+7714066Y-2635297D02*
X+7714066Y-2659380D01*
X+7686973Y-2683464D01*
X+7659879Y-2659380D01*
X+7659879Y-2635297D01*
X+7632785Y-2635297D02*
X+7587629Y-2635297D01*
X+7587629Y-2643325D01*
X+7632785Y-2683464D01*
X+7551504Y-2651353D02*
X+7533441Y-2635297D01*
X+7533441Y-2683464D01*
D84*
X+6579300Y-224880D02*
X+6579300Y-694880D01*
X+6349300Y-694880D01*
X+6349300Y-224880D01*
X+6579300Y-224880D01*
X+6414300Y-459880D02*
X+6514300Y-459880D01*
X+6464300Y-509880D02*
X+6464300Y-409880D01*
D89*
X+6464300Y-309880D02*
X+6464300Y-309880D01*
D110*
X+6480856Y-428539D02*
X+6489134Y-419226D01*
X+6489134Y-391289D01*
X+6472578Y-372664D01*
X+6456023Y-372664D01*
X+6439467Y-391289D01*
X+6439467Y-419226D01*
X+6447745Y-428539D01*
X+6439467Y-447164D02*
X+6464300Y-447164D01*
X+6489134Y-475101D01*
X+6464300Y-503039D01*
X+6439467Y-503039D01*
X+6439467Y-577539D02*
X+6439467Y-530976D01*
X+6456023Y-530976D01*
X+6456023Y-568226D01*
X+6464300Y-577539D01*
X+6480856Y-577539D01*
X+6489134Y-568226D01*
X+6489134Y-540289D01*
X+6480856Y-530976D01*
X+6456023Y-652039D02*
X+6464300Y-642726D01*
X+6464300Y-614789D01*
X+6456023Y-605476D01*
X+6447745Y-605476D01*
X+6439467Y-614789D01*
X+6439467Y-642726D01*
X+6447745Y-652039D01*
X+6480856Y-652039D01*
X+6489134Y-642726D01*
X+6489134Y-614789D01*
D84*
X+6892200Y-1517080D02*
X+6422200Y-1517080D01*
X+6422200Y-1287080D01*
X+6892200Y-1287080D01*
X+6892200Y-1517080D01*
X+6657200Y-1352080D02*
X+6657200Y-1452080D01*
X+6607200Y-1402080D02*
X+6707200Y-1402080D01*
D89*
X+6807200Y-1402080D02*
X+6807200Y-1402080D01*
D110*
X+6688541Y-1418636D02*
X+6697854Y-1426914D01*
X+6725791Y-1426914D01*
X+6744416Y-1410358D01*
X+6744416Y-1393803D01*
X+6725791Y-1377247D01*
X+6697854Y-1377247D01*
X+6688541Y-1385525D01*
X+6669916Y-1377247D02*
X+6669916Y-1402080D01*
X+6641979Y-1426914D01*
X+6614041Y-1402080D01*
X+6614041Y-1377247D01*
X+6539541Y-1377247D02*
X+6586104Y-1377247D01*
X+6586104Y-1393803D01*
X+6548854Y-1393803D01*
X+6539541Y-1402080D01*
X+6539541Y-1418636D01*
X+6548854Y-1426914D01*
X+6576791Y-1426914D01*
X+6586104Y-1418636D01*
X+6511604Y-1377247D02*
X+6465041Y-1377247D01*
X+6465041Y-1385525D01*
X+6511604Y-1426914D01*
D84*
X+7344600Y-1758380D02*
X+6874600Y-1758380D01*
X+6874600Y-1528380D01*
X+7344600Y-1528380D01*
X+7344600Y-1758380D01*
X+7109600Y-1593380D02*
X+7109600Y-1693380D01*
X+7059600Y-1643380D02*
X+7159600Y-1643380D01*
D89*
X+7259600Y-1643380D02*
X+7259600Y-1643380D01*
D110*
X+7140941Y-1659936D02*
X+7150254Y-1668214D01*
X+7178191Y-1668214D01*
X+7196816Y-1651658D01*
X+7196816Y-1635103D01*
X+7178191Y-1618547D01*
X+7150254Y-1618547D01*
X+7140941Y-1626825D01*
X+7122316Y-1618547D02*
X+7122316Y-1643380D01*
X+7094379Y-1668214D01*
X+7066441Y-1643380D01*
X+7066441Y-1618547D01*
X+6991941Y-1626825D02*
X+7001254Y-1618547D01*
X+7029191Y-1618547D01*
X+7038504Y-1626825D01*
X+7038504Y-1659936D01*
X+7029191Y-1668214D01*
X+7001254Y-1668214D01*
X+6991941Y-1659936D01*
X+6991941Y-1651658D01*
X+7001254Y-1643380D01*
X+7038504Y-1643380D01*
X+6973316Y-1659936D02*
X+6973316Y-1626825D01*
X+6964004Y-1618547D01*
X+6926754Y-1618547D01*
X+6917441Y-1626825D01*
X+6917441Y-1659936D01*
X+6926754Y-1668214D01*
X+6964004Y-1668214D01*
X+6973316Y-1659936D01*
X+6973316Y-1668214D02*
X+6917441Y-1618547D01*
D84*
X+7344600Y-2012380D02*
X+6874600Y-2012380D01*
X+6874600Y-1782380D01*
X+7344600Y-1782380D01*
X+7344600Y-2012380D01*
X+7109600Y-1847380D02*
X+7109600Y-1947380D01*
X+7059600Y-1897380D02*
X+7159600Y-1897380D01*
D89*
X+7259600Y-1897380D02*
X+7259600Y-1897380D01*
D110*
X+7140941Y-1913936D02*
X+7150254Y-1922214D01*
X+7178191Y-1922214D01*
X+7196816Y-1905658D01*
X+7196816Y-1889103D01*
X+7178191Y-1872547D01*
X+7150254Y-1872547D01*
X+7140941Y-1880825D01*
X+7122316Y-1872547D02*
X+7122316Y-1897380D01*
X+7094379Y-1922214D01*
X+7066441Y-1897380D01*
X+7066441Y-1872547D01*
X+6991941Y-1872547D02*
X+7038504Y-1872547D01*
X+7038504Y-1889103D01*
X+7001254Y-1889103D01*
X+6991941Y-1897380D01*
X+6991941Y-1913936D01*
X+7001254Y-1922214D01*
X+7029191Y-1922214D01*
X+7038504Y-1913936D01*
X+6917441Y-1880825D02*
X+6926754Y-1872547D01*
X+6954691Y-1872547D01*
X+6964004Y-1880825D01*
X+6964004Y-1913936D01*
X+6954691Y-1922214D01*
X+6926754Y-1922214D01*
X+6917441Y-1913936D01*
X+6917441Y-1905658D01*
X+6926754Y-1897380D01*
X+6964004Y-1897380D01*
D84*
X+6790600Y-2012380D02*
X+6320600Y-2012380D01*
X+6320600Y-1782380D01*
X+6790600Y-1782380D01*
X+6790600Y-2012380D01*
X+6555600Y-1847380D02*
X+6555600Y-1947380D01*
X+6505600Y-1897380D02*
X+6605600Y-1897380D01*
D89*
X+6705600Y-1897380D02*
X+6705600Y-1897380D01*
D110*
X+6586941Y-1913936D02*
X+6596254Y-1922214D01*
X+6624191Y-1922214D01*
X+6642816Y-1905658D01*
X+6642816Y-1889103D01*
X+6624191Y-1872547D01*
X+6596254Y-1872547D01*
X+6586941Y-1880825D01*
X+6568316Y-1872547D02*
X+6568316Y-1897380D01*
X+6540379Y-1922214D01*
X+6512441Y-1897380D01*
X+6512441Y-1872547D01*
X+6437941Y-1872547D02*
X+6484504Y-1872547D01*
X+6484504Y-1889103D01*
X+6447254Y-1889103D01*
X+6437941Y-1897380D01*
X+6437941Y-1913936D01*
X+6447254Y-1922214D01*
X+6475191Y-1922214D01*
X+6484504Y-1913936D01*
X+6400691Y-1897380D02*
X+6410004Y-1889103D01*
X+6410004Y-1880825D01*
X+6400691Y-1872547D01*
X+6372754Y-1872547D01*
X+6363441Y-1880825D01*
X+6363441Y-1889103D01*
X+6372754Y-1897380D01*
X+6400691Y-1897380D01*
X+6410004Y-1905658D01*
X+6410004Y-1913936D01*
X+6400691Y-1922214D01*
X+6372754Y-1922214D01*
X+6363441Y-1913936D01*
X+6363441Y-1905658D01*
X+6372754Y-1897380D01*
D41*
X-4895850Y+0D02*
X-4197350Y+0D01*
X-4197350Y+1167130D01*
X-4895850Y+1167130D01*
X-4895850Y+0D01*
D97*
X-4546600Y+817880D02*
X-4546600Y+817880D01*
D112*
X-4263898Y+354796D02*
X-4299235Y+386207D01*
X-4334573Y+386207D01*
X-4369911Y+354796D01*
X-4369911Y+323384D01*
X-4334573Y+291973D01*
X-4299235Y+291973D01*
X-4263898Y+323384D01*
X-4263898Y+354796D01*
X-4334573Y+323384D02*
X-4369911Y+291973D01*
X-4405249Y+386207D02*
X-4405249Y+339090D01*
X-4458255Y+291973D01*
X-4511262Y+339090D01*
X-4511262Y+386207D01*
X-4581937Y+354796D02*
X-4617275Y+386207D01*
X-4617275Y+291973D01*
X-4705619Y+370501D02*
X-4723288Y+386207D01*
X-4776295Y+386207D01*
X-4793964Y+370501D01*
X-4793964Y+354796D01*
X-4776295Y+339090D01*
X-4793964Y+323384D01*
X-4793964Y+307679D01*
X-4776295Y+291973D01*
X-4723288Y+291973D01*
X-4705619Y+307679D01*
X-4740957Y+339090D02*
X-4776295Y+339090D01*
D41*
X-3549650Y+0D02*
X-2851150Y+0D01*
X-2851150Y+1167130D01*
X-3549650Y+1167130D01*
X-3549650Y+0D01*
D97*
X-3200400Y+817880D02*
X-3200400Y+817880D01*
D112*
X-2917698Y+354796D02*
X-2953035Y+386207D01*
X-2988373Y+386207D01*
X-3023711Y+354796D01*
X-3023711Y+323384D01*
X-2988373Y+291973D01*
X-2953035Y+291973D01*
X-2917698Y+323384D01*
X-2917698Y+354796D01*
X-2988373Y+323384D02*
X-3023711Y+291973D01*
X-3059049Y+386207D02*
X-3059049Y+339090D01*
X-3112055Y+291973D01*
X-3165062Y+339090D01*
X-3165062Y+386207D01*
X-3235737Y+354796D02*
X-3271075Y+386207D01*
X-3271075Y+291973D01*
X-3447764Y+386207D02*
X-3359419Y+386207D01*
X-3359419Y+354796D01*
X-3430095Y+354796D01*
X-3447764Y+339090D01*
X-3447764Y+307679D01*
X-3430095Y+291973D01*
X-3377088Y+291973D01*
X-3359419Y+307679D01*
D41*
X-5328920Y-495300D02*
X-5019040Y-495300D01*
X-5019040Y-203200D01*
X-5328920Y-203200D01*
X-5328920Y-495300D01*
D105*
X-5173980Y-254000D02*
X-5173980Y-254000D01*
D106*
X-5087112Y-375158D02*
X-5108829Y-355854D01*
X-5130546Y-355854D01*
X-5152263Y-375158D01*
X-5152263Y-394462D01*
X-5130546Y-413766D01*
X-5108829Y-413766D01*
X-5087112Y-394462D01*
X-5087112Y-375158D01*
X-5130546Y-394462D02*
X-5152263Y-413766D01*
X-5195697Y-375158D02*
X-5217414Y-355854D01*
X-5217414Y-413766D01*
D41*
X-3995420Y-495300D02*
X-3685540Y-495300D01*
X-3685540Y-203200D01*
X-3995420Y-203200D01*
X-3995420Y-495300D01*
D105*
X-3840480Y-254000D02*
X-3840480Y-254000D01*
D106*
X-3753612Y-375158D02*
X-3775329Y-355854D01*
X-3797046Y-355854D01*
X-3818763Y-375158D01*
X-3818763Y-394462D01*
X-3797046Y-413766D01*
X-3775329Y-413766D01*
X-3753612Y-394462D01*
X-3753612Y-375158D01*
X-3797046Y-394462D02*
X-3818763Y-413766D01*
X-3851338Y-365506D02*
X-3862197Y-355854D01*
X-3894772Y-355854D01*
X-3905631Y-365506D01*
X-3905631Y-375158D01*
X-3894772Y-384810D01*
X-3905631Y-394462D01*
X-3905631Y-404114D01*
X-3894772Y-413766D01*
X-3862197Y-413766D01*
X-3851338Y-404114D01*
X-3873055Y-384810D02*
X-3894772Y-384810D01*
D41*
X-4663440Y-495300D02*
X-4353560Y-495300D01*
X-4353560Y-203200D01*
X-4663440Y-203200D01*
X-4663440Y-495300D01*
D105*
X-4508500Y-444500D02*
X-4508500Y-444500D01*
D121*
X-4378198Y-306451D02*
X-4394485Y-291973D01*
X-4410773Y-291973D01*
X-4427061Y-306451D01*
X-4427061Y-320929D01*
X-4410773Y-335407D01*
X-4394485Y-335407D01*
X-4378198Y-320929D01*
X-4378198Y-306451D01*
X-4410773Y-320929D02*
X-4427061Y-335407D01*
X-4443349Y-291973D02*
X-4443349Y-313690D01*
X-4467780Y-335407D01*
X-4492212Y-313690D01*
X-4492212Y-291973D01*
X-4524787Y-306451D02*
X-4541075Y-291973D01*
X-4541075Y-335407D01*
X-4622514Y-320929D02*
X-4573651Y-320929D01*
X-4606226Y-291973D01*
X-4606226Y-335407D01*
D41*
X-3329940Y-495300D02*
X-3020060Y-495300D01*
X-3020060Y-203200D01*
X-3329940Y-203200D01*
X-3329940Y-495300D01*
D105*
X-3175000Y-444500D02*
X-3175000Y-444500D01*
D121*
X-3044698Y-306451D02*
X-3060985Y-291973D01*
X-3077273Y-291973D01*
X-3093561Y-306451D01*
X-3093561Y-320929D01*
X-3077273Y-335407D01*
X-3060985Y-335407D01*
X-3044698Y-320929D01*
X-3044698Y-306451D01*
X-3077273Y-320929D02*
X-3093561Y-335407D01*
X-3109849Y-291973D02*
X-3109849Y-313690D01*
X-3134280Y-335407D01*
X-3158712Y-313690D01*
X-3158712Y-291973D01*
X-3191287Y-306451D02*
X-3207575Y-291973D01*
X-3207575Y-335407D01*
X-3289014Y-299212D02*
X-3280870Y-291973D01*
X-3256438Y-291973D01*
X-3248294Y-299212D01*
X-3248294Y-328168D01*
X-3256438Y-335407D01*
X-3280870Y-335407D01*
X-3289014Y-328168D01*
X-3289014Y-320929D01*
X-3280870Y-313690D01*
X-3248294Y-313690D01*
D84*
X-4711000Y-69500D02*
X-4711000Y-529500D01*
X-4941000Y-529500D01*
X-4941000Y-69500D01*
X-4711000Y-69500D01*
X-4876000Y-299500D02*
X-4776000Y-299500D01*
X-4826000Y-349500D02*
X-4826000Y-249500D01*
D89*
X-4826000Y-154500D02*
X-4826000Y-154500D01*
D109*
X-4801916Y-216784D02*
X-4850083Y-216784D01*
X-4850083Y-261940D01*
X-4842055Y-270971D01*
X-4834027Y-270971D01*
X-4826000Y-261940D01*
X-4826000Y-216784D01*
X-4826000Y-261940D02*
X-4817972Y-270971D01*
X-4801916Y-270971D01*
X-4850083Y-289034D02*
X-4826000Y-289034D01*
X-4801916Y-316127D01*
X-4826000Y-343221D01*
X-4850083Y-343221D01*
X-4850083Y-370315D02*
X-4850083Y-415471D01*
X-4842055Y-415471D01*
X-4801916Y-370315D01*
X-4842055Y-487721D02*
X-4850083Y-478690D01*
X-4850083Y-451596D01*
X-4842055Y-442565D01*
X-4809944Y-442565D01*
X-4801916Y-451596D01*
X-4801916Y-478690D01*
X-4809944Y-487721D01*
X-4817972Y-487721D01*
X-4826000Y-478690D01*
X-4826000Y-442565D01*
D84*
X-4076000Y-69500D02*
X-4076000Y-529500D01*
X-4306000Y-529500D01*
X-4306000Y-69500D01*
X-4076000Y-69500D01*
X-4241000Y-299500D02*
X-4141000Y-299500D01*
X-4191000Y-349500D02*
X-4191000Y-249500D01*
D89*
X-4191000Y-154500D02*
X-4191000Y-154500D01*
D109*
X-4166916Y-216784D02*
X-4215083Y-216784D01*
X-4215083Y-261940D01*
X-4207055Y-270971D01*
X-4199027Y-270971D01*
X-4191000Y-261940D01*
X-4191000Y-216784D01*
X-4191000Y-261940D02*
X-4182972Y-270971D01*
X-4166916Y-270971D01*
X-4215083Y-289034D02*
X-4191000Y-289034D01*
X-4166916Y-316127D01*
X-4191000Y-343221D01*
X-4215083Y-343221D01*
X-4215083Y-370315D02*
X-4215083Y-415471D01*
X-4207055Y-415471D01*
X-4166916Y-370315D01*
X-4215083Y-442565D02*
X-4215083Y-487721D01*
X-4207055Y-487721D01*
X-4166916Y-442565D01*
D84*
X-3377500Y-69500D02*
X-3377500Y-529500D01*
X-3607500Y-529500D01*
X-3607500Y-69500D01*
X-3377500Y-69500D01*
X-3542500Y-299500D02*
X-3442500Y-299500D01*
X-3492500Y-349500D02*
X-3492500Y-249500D01*
D89*
X-3492500Y-154500D02*
X-3492500Y-154500D01*
D109*
X-3468416Y-216784D02*
X-3516583Y-216784D01*
X-3516583Y-261940D01*
X-3508555Y-270971D01*
X-3500527Y-270971D01*
X-3492500Y-261940D01*
X-3492500Y-216784D01*
X-3492500Y-261940D02*
X-3484472Y-270971D01*
X-3468416Y-270971D01*
X-3516583Y-289034D02*
X-3492500Y-289034D01*
X-3468416Y-316127D01*
X-3492500Y-343221D01*
X-3516583Y-343221D01*
X-3492500Y-379346D02*
X-3500527Y-370315D01*
X-3508555Y-370315D01*
X-3516583Y-379346D01*
X-3516583Y-406440D01*
X-3508555Y-415471D01*
X-3500527Y-415471D01*
X-3492500Y-406440D01*
X-3492500Y-379346D01*
X-3484472Y-370315D01*
X-3476444Y-370315D01*
X-3468416Y-379346D01*
X-3468416Y-406440D01*
X-3476444Y-415471D01*
X-3484472Y-415471D01*
X-3492500Y-406440D01*
X-3476444Y-433534D02*
X-3508555Y-433534D01*
X-3516583Y-442565D01*
X-3516583Y-478690D01*
X-3508555Y-487721D01*
X-3476444Y-487721D01*
X-3468416Y-478690D01*
X-3468416Y-442565D01*
X-3476444Y-433534D01*
X-3468416Y-433534D02*
X-3516583Y-487721D01*
D84*
X-2742500Y-69500D02*
X-2742500Y-529500D01*
X-2972500Y-529500D01*
X-2972500Y-69500D01*
X-2742500Y-69500D01*
X-2907500Y-299500D02*
X-2807500Y-299500D01*
X-2857500Y-349500D02*
X-2857500Y-249500D01*
D89*
X-2857500Y-154500D02*
X-2857500Y-154500D01*
D109*
X-2833416Y-216784D02*
X-2881583Y-216784D01*
X-2881583Y-261940D01*
X-2873555Y-270971D01*
X-2865527Y-270971D01*
X-2857500Y-261940D01*
X-2857500Y-216784D01*
X-2857500Y-261940D02*
X-2849472Y-270971D01*
X-2833416Y-270971D01*
X-2881583Y-289034D02*
X-2857500Y-289034D01*
X-2833416Y-316127D01*
X-2857500Y-343221D01*
X-2881583Y-343221D01*
X-2857500Y-379346D02*
X-2865527Y-370315D01*
X-2873555Y-370315D01*
X-2881583Y-379346D01*
X-2881583Y-406440D01*
X-2873555Y-415471D01*
X-2865527Y-415471D01*
X-2857500Y-406440D01*
X-2857500Y-379346D01*
X-2849472Y-370315D01*
X-2841444Y-370315D01*
X-2833416Y-379346D01*
X-2833416Y-406440D01*
X-2841444Y-415471D01*
X-2849472Y-415471D01*
X-2857500Y-406440D01*
X-2865527Y-451596D02*
X-2881583Y-469659D01*
X-2833416Y-469659D01*
D84*
X+3554000Y-1157500D02*
X+3554000Y-1627500D01*
X+3324000Y-1627500D01*
X+3324000Y-1157500D01*
X+3554000Y-1157500D01*
X+3389000Y-1392500D02*
X+3489000Y-1392500D01*
X+3439000Y-1442500D02*
X+3439000Y-1342500D01*
D89*
X+3439000Y-1242500D02*
X+3439000Y-1242500D01*
D110*
X+3455556Y-1361159D02*
X+3463834Y-1351846D01*
X+3463834Y-1323909D01*
X+3447278Y-1305284D01*
X+3430723Y-1305284D01*
X+3414167Y-1323909D01*
X+3414167Y-1351846D01*
X+3422445Y-1361159D01*
X+3414167Y-1379784D02*
X+3439000Y-1379784D01*
X+3463834Y-1407721D01*
X+3439000Y-1435659D01*
X+3414167Y-1435659D01*
X+3422445Y-1510159D02*
X+3414167Y-1500846D01*
X+3414167Y-1472909D01*
X+3422445Y-1463596D01*
X+3455556Y-1463596D01*
X+3463834Y-1472909D01*
X+3463834Y-1500846D01*
X+3455556Y-1510159D01*
X+3447278Y-1510159D01*
X+3439000Y-1500846D01*
X+3439000Y-1463596D01*
X+3414167Y-1538096D02*
X+3414167Y-1584659D01*
X+3422445Y-1584659D01*
X+3463834Y-1538096D01*
D84*
X+3871500Y-613500D02*
X+3871500Y-1083500D01*
X+3641500Y-1083500D01*
X+3641500Y-613500D01*
X+3871500Y-613500D01*
X+3706500Y-848500D02*
X+3806500Y-848500D01*
X+3756500Y-898500D02*
X+3756500Y-798500D01*
D89*
X+3756500Y-698500D02*
X+3756500Y-698500D01*
D110*
X+3773056Y-817159D02*
X+3781334Y-807846D01*
X+3781334Y-779909D01*
X+3764778Y-761284D01*
X+3748223Y-761284D01*
X+3731667Y-779909D01*
X+3731667Y-807846D01*
X+3739945Y-817159D01*
X+3731667Y-835784D02*
X+3756500Y-835784D01*
X+3781334Y-863721D01*
X+3756500Y-891659D01*
X+3731667Y-891659D01*
X+3739945Y-966159D02*
X+3731667Y-956846D01*
X+3731667Y-928909D01*
X+3739945Y-919596D01*
X+3773056Y-919596D01*
X+3781334Y-928909D01*
X+3781334Y-956846D01*
X+3773056Y-966159D01*
X+3764778Y-966159D01*
X+3756500Y-956846D01*
X+3756500Y-919596D01*
X+3756500Y-1003409D02*
X+3748223Y-994096D01*
X+3739945Y-994096D01*
X+3731667Y-1003409D01*
X+3731667Y-1031346D01*
X+3739945Y-1040659D01*
X+3748223Y-1040659D01*
X+3756500Y-1031346D01*
X+3756500Y-1003409D01*
X+3764778Y-994096D01*
X+3773056Y-994096D01*
X+3781334Y-1003409D01*
X+3781334Y-1031346D01*
X+3773056Y-1040659D01*
X+3764778Y-1040659D01*
X+3756500Y-1031346D01*
D84*
X+4379500Y-105500D02*
X+4379500Y-575500D01*
X+4149500Y-575500D01*
X+4149500Y-105500D01*
X+4379500Y-105500D01*
X+4214500Y-340500D02*
X+4314500Y-340500D01*
X+4264500Y-390500D02*
X+4264500Y-290500D01*
D89*
X+4264500Y-190500D02*
X+4264500Y-190500D01*
D110*
X+4281056Y-309159D02*
X+4289334Y-299846D01*
X+4289334Y-271909D01*
X+4272778Y-253284D01*
X+4256223Y-253284D01*
X+4239667Y-271909D01*
X+4239667Y-299846D01*
X+4247945Y-309159D01*
X+4239667Y-327784D02*
X+4264500Y-327784D01*
X+4289334Y-355721D01*
X+4264500Y-383659D01*
X+4239667Y-383659D01*
X+4247945Y-458159D02*
X+4239667Y-448846D01*
X+4239667Y-420909D01*
X+4247945Y-411596D01*
X+4281056Y-411596D01*
X+4289334Y-420909D01*
X+4289334Y-448846D01*
X+4281056Y-458159D01*
X+4272778Y-458159D01*
X+4264500Y-448846D01*
X+4264500Y-411596D01*
X+4256223Y-532659D02*
X+4264500Y-523346D01*
X+4264500Y-495409D01*
X+4256223Y-486096D01*
X+4247945Y-486096D01*
X+4239667Y-495409D01*
X+4239667Y-523346D01*
X+4247945Y-532659D01*
X+4281056Y-532659D01*
X+4289334Y-523346D01*
X+4289334Y-495409D01*
D84*
X+2816000Y-1627500D02*
X+2816000Y-1167500D01*
X+3046000Y-1167500D01*
X+3046000Y-1627500D01*
X+2816000Y-1627500D01*
X+2981000Y-1397500D02*
X+2881000Y-1397500D01*
X+2931000Y-1347500D02*
X+2931000Y-1447500D01*
D89*
X+2931000Y-1542500D02*
X+2931000Y-1542500D01*
D109*
X+2955084Y-1191216D02*
X+2906917Y-1191216D01*
X+2906917Y-1236372D01*
X+2914945Y-1245403D01*
X+2922973Y-1245403D01*
X+2931000Y-1236372D01*
X+2931000Y-1191216D01*
X+2931000Y-1236372D02*
X+2939028Y-1245403D01*
X+2955084Y-1245403D01*
X+2906917Y-1263466D02*
X+2931000Y-1263466D01*
X+2955084Y-1290559D01*
X+2931000Y-1317653D01*
X+2906917Y-1317653D01*
X+2906917Y-1344747D02*
X+2906917Y-1389903D01*
X+2914945Y-1389903D01*
X+2955084Y-1344747D01*
X+2914945Y-1416997D02*
X+2906917Y-1426028D01*
X+2906917Y-1453122D01*
X+2914945Y-1462153D01*
X+2922973Y-1462153D01*
X+2931000Y-1453122D01*
X+2939028Y-1462153D01*
X+2947056Y-1462153D01*
X+2955084Y-1453122D01*
X+2955084Y-1426028D01*
X+2947056Y-1416997D01*
X+2931000Y-1435059D02*
X+2931000Y-1453122D01*
D84*
X+3324000Y-1083500D02*
X+3324000Y-623500D01*
X+3554000Y-623500D01*
X+3554000Y-1083500D01*
X+3324000Y-1083500D01*
X+3489000Y-853500D02*
X+3389000Y-853500D01*
X+3439000Y-803500D02*
X+3439000Y-903500D01*
D89*
X+3439000Y-998500D02*
X+3439000Y-998500D01*
D109*
X+3463084Y-647216D02*
X+3414917Y-647216D01*
X+3414917Y-692372D01*
X+3422945Y-701403D01*
X+3430973Y-701403D01*
X+3439000Y-692372D01*
X+3439000Y-647216D01*
X+3439000Y-692372D02*
X+3447028Y-701403D01*
X+3463084Y-701403D01*
X+3414917Y-719466D02*
X+3439000Y-719466D01*
X+3463084Y-746559D01*
X+3439000Y-773653D01*
X+3414917Y-773653D01*
X+3414917Y-800747D02*
X+3414917Y-845903D01*
X+3422945Y-845903D01*
X+3463084Y-800747D01*
X+3447028Y-918153D02*
X+3447028Y-863966D01*
X+3414917Y-900091D01*
X+3463084Y-900091D01*
D84*
X+3895500Y-1083500D02*
X+3895500Y-623500D01*
X+4125500Y-623500D01*
X+4125500Y-1083500D01*
X+3895500Y-1083500D01*
X+4060500Y-853500D02*
X+3960500Y-853500D01*
X+4010500Y-803500D02*
X+4010500Y-903500D01*
D89*
X+4010500Y-998500D02*
X+4010500Y-998500D01*
D109*
X+4034584Y-647216D02*
X+3986417Y-647216D01*
X+3986417Y-692372D01*
X+3994445Y-701403D01*
X+4002473Y-701403D01*
X+4010500Y-692372D01*
X+4010500Y-647216D01*
X+4010500Y-692372D02*
X+4018528Y-701403D01*
X+4034584Y-701403D01*
X+3986417Y-719466D02*
X+4010500Y-719466D01*
X+4034584Y-746559D01*
X+4010500Y-773653D01*
X+3986417Y-773653D01*
X+3986417Y-800747D02*
X+3986417Y-845903D01*
X+3994445Y-845903D01*
X+4034584Y-800747D01*
X+3986417Y-918153D02*
X+3986417Y-872997D01*
X+4002473Y-872997D01*
X+4002473Y-909122D01*
X+4010500Y-918153D01*
X+4026556Y-918153D01*
X+4034584Y-909122D01*
X+4034584Y-882028D01*
X+4026556Y-872997D01*
D84*
X+3070000Y-1627500D02*
X+3070000Y-1167500D01*
X+3300000Y-1167500D01*
X+3300000Y-1627500D01*
X+3070000Y-1627500D01*
X+3235000Y-1397500D02*
X+3135000Y-1397500D01*
X+3185000Y-1347500D02*
X+3185000Y-1447500D01*
D89*
X+3185000Y-1542500D02*
X+3185000Y-1542500D01*
D109*
X+3209084Y-1191216D02*
X+3160917Y-1191216D01*
X+3160917Y-1236372D01*
X+3168945Y-1245403D01*
X+3176973Y-1245403D01*
X+3185000Y-1236372D01*
X+3185000Y-1191216D01*
X+3185000Y-1236372D02*
X+3193028Y-1245403D01*
X+3209084Y-1245403D01*
X+3160917Y-1263466D02*
X+3185000Y-1263466D01*
X+3209084Y-1290559D01*
X+3185000Y-1317653D01*
X+3160917Y-1317653D01*
X+3160917Y-1344747D02*
X+3160917Y-1389903D01*
X+3168945Y-1389903D01*
X+3209084Y-1344747D01*
X+3185000Y-1426028D02*
X+3176973Y-1416997D01*
X+3168945Y-1416997D01*
X+3160917Y-1426028D01*
X+3160917Y-1453122D01*
X+3168945Y-1462153D01*
X+3176973Y-1462153D01*
X+3185000Y-1453122D01*
X+3185000Y-1426028D01*
X+3193028Y-1416997D01*
X+3201056Y-1416997D01*
X+3209084Y-1426028D01*
X+3209084Y-1453122D01*
X+3201056Y-1462153D01*
X+3193028Y-1462153D01*
X+3185000Y-1453122D01*
D84*
X+3895500Y-575500D02*
X+3895500Y-115500D01*
X+4125500Y-115500D01*
X+4125500Y-575500D01*
X+3895500Y-575500D01*
X+4060500Y-345500D02*
X+3960500Y-345500D01*
X+4010500Y-295500D02*
X+4010500Y-395500D01*
D89*
X+4010500Y-490500D02*
X+4010500Y-490500D01*
D109*
X+4034584Y-139216D02*
X+3986417Y-139216D01*
X+3986417Y-184372D01*
X+3994445Y-193403D01*
X+4002473Y-193403D01*
X+4010500Y-184372D01*
X+4010500Y-139216D01*
X+4010500Y-184372D02*
X+4018528Y-193403D01*
X+4034584Y-193403D01*
X+3986417Y-211466D02*
X+4010500Y-211466D01*
X+4034584Y-238559D01*
X+4010500Y-265653D01*
X+3986417Y-265653D01*
X+3986417Y-292747D02*
X+3986417Y-337903D01*
X+3994445Y-337903D01*
X+4034584Y-292747D01*
X+4002473Y-410153D02*
X+4010500Y-401122D01*
X+4010500Y-374028D01*
X+4002473Y-364997D01*
X+3994445Y-364997D01*
X+3986417Y-374028D01*
X+3986417Y-401122D01*
X+3994445Y-410153D01*
X+4026556Y-410153D01*
X+4034584Y-401122D01*
X+4034584Y-374028D01*
D84*
X+4403500Y-575500D02*
X+4403500Y-115500D01*
X+4633500Y-115500D01*
X+4633500Y-575500D01*
X+4403500Y-575500D01*
X+4568500Y-345500D02*
X+4468500Y-345500D01*
X+4518500Y-295500D02*
X+4518500Y-395500D01*
D89*
X+4518500Y-490500D02*
X+4518500Y-490500D01*
D109*
X+4542584Y-139216D02*
X+4494417Y-139216D01*
X+4494417Y-184372D01*
X+4502445Y-193403D01*
X+4510473Y-193403D01*
X+4518500Y-184372D01*
X+4518500Y-139216D01*
X+4518500Y-184372D02*
X+4526528Y-193403D01*
X+4542584Y-193403D01*
X+4494417Y-211466D02*
X+4518500Y-211466D01*
X+4542584Y-238559D01*
X+4518500Y-265653D01*
X+4494417Y-265653D01*
X+4518500Y-301778D02*
X+4510473Y-292747D01*
X+4502445Y-292747D01*
X+4494417Y-301778D01*
X+4494417Y-328872D01*
X+4502445Y-337903D01*
X+4510473Y-337903D01*
X+4518500Y-328872D01*
X+4518500Y-301778D01*
X+4526528Y-292747D01*
X+4534556Y-292747D01*
X+4542584Y-301778D01*
X+4542584Y-328872D01*
X+4534556Y-337903D01*
X+4526528Y-337903D01*
X+4518500Y-328872D01*
X+4502445Y-364997D02*
X+4494417Y-374028D01*
X+4494417Y-401122D01*
X+4502445Y-410153D01*
X+4510473Y-410153D01*
X+4518500Y-401122D01*
X+4518500Y-374028D01*
X+4526528Y-364997D01*
X+4542584Y-364997D01*
X+4542584Y-410153D01*
D84*
X+7396000Y-2528000D02*
X+6936000Y-2528000D01*
X+6936000Y-2298000D01*
X+7396000Y-2298000D01*
X+7396000Y-2528000D01*
X+7166000Y-2363000D02*
X+7166000Y-2463000D01*
X+7116000Y-2413000D02*
X+7216000Y-2413000D01*
D89*
X+7311000Y-2413000D02*
X+7311000Y-2413000D01*
D109*
X+7248716Y-2437084D02*
X+7248716Y-2388917D01*
X+7203560Y-2388917D01*
X+7194529Y-2396945D01*
X+7194529Y-2404973D01*
X+7203560Y-2413000D01*
X+7248716Y-2413000D01*
X+7203560Y-2413000D02*
X+7194529Y-2421028D01*
X+7194529Y-2437084D01*
X+7176466Y-2388917D02*
X+7176466Y-2413000D01*
X+7149373Y-2437084D01*
X+7122279Y-2413000D01*
X+7122279Y-2388917D01*
X+7095185Y-2396945D02*
X+7086154Y-2388917D01*
X+7059060Y-2388917D01*
X+7050029Y-2396945D01*
X+7050029Y-2404973D01*
X+7059060Y-2413000D01*
X+7050029Y-2421028D01*
X+7050029Y-2429056D01*
X+7059060Y-2437084D01*
X+7086154Y-2437084D01*
X+7095185Y-2429056D01*
X+7077123Y-2413000D02*
X+7059060Y-2413000D01*
X+7013904Y-2404973D02*
X+6995841Y-2388917D01*
X+6995841Y-2437084D01*
M02*
