G04 PROTEUS RS274X GERBER FILE*
%FSLAX45Y45*%
%MOMM*%
G01*
%ADD11C,1.016000*%
%ADD10C,0.508000*%
%ADD14C,0.762000*%
%ADD12C,1.270000*%
%ADD15C,2.032000*%
%ADD41C,1.524000*%
%ADD16C,2.540000*%
%ADD18C,0.381000*%
%ADD19C,0.304800*%
%ADD70C,1.270000*%
%ADD71C,0.762000*%
%ADD20C,2.032000*%
%ADD13C,0.254000*%
%ADD22C,3.810000*%
%ADD23C,2.540000*%
%ADD24R,2.286000X2.286000*%
%ADD33R,0.889000X1.016000*%
%ADD72R,6.985000X6.985000*%
%ADD73R,1.524000X2.540000*%
%ADD27R,2.108200X2.108200*%
%ADD32R,0.889000X0.635000*%
%ADD21R,1.193800X5.308600*%
%ADD28R,1.651000X3.048000*%
%ADD34R,1.778000X0.381000*%
%ADD30R,0.635000X2.032000*%
%ADD29R,3.403600X1.244600*%
%ADD31R,2.540000X1.524000*%
%ADD25R,1.143000X1.803400*%
%ADD26R,1.803400X1.143000*%
%ADD35C,7.620000*%
%ADD40C,0.203200*%
G36*
X+8448040Y-4193540D02*
X-6712345Y-4193540D01*
X-6502401Y-3983596D01*
X-6502401Y-3636404D01*
X-6747904Y-3390901D01*
X-7095096Y-3390901D01*
X-7340599Y-3636404D01*
X-7340599Y-3983596D01*
X-7130655Y-4193540D01*
X-7368540Y-4193540D01*
X-7368540Y+2860040D01*
X+8448040Y+2860040D01*
X+8448040Y-4193540D01*
G37*
%LPC*%
G36*
X-6819901Y-2381811D02*
X-6819901Y-2571189D01*
X-6947462Y-2698750D01*
X-6819901Y-2826311D01*
X-6819901Y-3015689D01*
X-6953811Y-3149599D01*
X-7143189Y-3149599D01*
X-7277099Y-3015689D01*
X-7277099Y-2826311D01*
X-7149538Y-2698750D01*
X-7277099Y-2571189D01*
X-7277099Y-2381811D01*
X-7143189Y-2247901D01*
X-6953811Y-2247901D01*
X-6819901Y-2381811D01*
G37*
G36*
X+6375399Y-3200399D02*
X+6375399Y-3708399D01*
X+6070601Y-3708399D01*
X+6070601Y-2895601D01*
X+6375399Y-2895601D01*
X+6375399Y-3200399D01*
G37*
G36*
X+4787901Y+1773114D02*
X+4787901Y+1909886D01*
X+4884614Y+2006599D01*
X+5021386Y+2006599D01*
X+5118099Y+1909886D01*
X+5118099Y+1773114D01*
X+5021386Y+1676401D01*
X+4884614Y+1676401D01*
X+4787901Y+1773114D01*
G37*
G36*
X+6997701Y+1773114D02*
X+6997701Y+1909886D01*
X+7094414Y+2006599D01*
X+7231186Y+2006599D01*
X+7327899Y+1909886D01*
X+7327899Y+1773114D01*
X+7231186Y+1676401D01*
X+7094414Y+1676401D01*
X+6997701Y+1773114D01*
G37*
G36*
X+7230109Y+936833D02*
X+7394499Y+772443D01*
X+7394499Y+501649D01*
X+7403389Y+501649D01*
X+7403389Y+226053D01*
X+7405923Y+223519D01*
X+7531101Y+223519D01*
X+7531101Y+299719D01*
X+7759699Y+299719D01*
X+7759699Y-30479D01*
X+7689849Y-30479D01*
X+7689849Y-247649D01*
X+7605749Y-247649D01*
X+7605749Y-626111D01*
X+7643849Y-626111D01*
X+7643849Y-882649D01*
X+7612099Y-882649D01*
X+7612099Y-1028701D01*
X+7645153Y-1028701D01*
X+7645153Y-568754D01*
X+7861676Y-352231D01*
X+7974331Y-352231D01*
X+7974331Y-314131D01*
X+8230869Y-314131D01*
X+8230869Y-447849D01*
X+8260079Y-477059D01*
X+8260079Y-1300481D01*
X+8279129Y-1300481D01*
X+8279129Y-1478279D01*
X+8114031Y-1478279D01*
X+8114031Y-1300481D01*
X+8133081Y-1300481D01*
X+8133081Y-529661D01*
X+8108049Y-504629D01*
X+7974331Y-504629D01*
X+7974331Y-466529D01*
X+7909018Y-466529D01*
X+7759451Y-616096D01*
X+7759451Y-626111D01*
X+7943849Y-626111D01*
X+7943849Y-882649D01*
X+7912099Y-882649D01*
X+7912099Y-1028701D01*
X+8039099Y-1028701D01*
X+8039099Y-1257299D01*
X+7912099Y-1257299D01*
X+7912099Y-1440181D01*
X+7918449Y-1440181D01*
X+7918449Y-1662431D01*
X+7956551Y-1662431D01*
X+7956551Y-1656081D01*
X+8020051Y-1656081D01*
X+8020051Y-1490981D01*
X+8185149Y-1490981D01*
X+8185149Y-1668779D01*
X+8121649Y-1668779D01*
X+8121649Y-1795779D01*
X+7956551Y-1795779D01*
X+7956551Y-1789429D01*
X+7848106Y-1789429D01*
X+7784392Y-1725715D01*
X+7784392Y-1719579D01*
X+7397751Y-1719579D01*
X+7397751Y-1440181D01*
X+7531101Y-1440181D01*
X+7531102Y-1270902D01*
X+7517499Y-1257299D01*
X+7327901Y-1257299D01*
X+7327901Y-1028701D01*
X+7485101Y-1028701D01*
X+7485101Y-882649D01*
X+7453351Y-882649D01*
X+7453351Y-626111D01*
X+7491451Y-626111D01*
X+7491451Y-136629D01*
X+7499351Y-128729D01*
X+7499351Y+8889D01*
X+7531101Y+8889D01*
X+7531101Y+45721D01*
X+7403389Y+45721D01*
X+7403389Y-105409D01*
X+7207811Y-105409D01*
X+7207811Y+501649D01*
X+7216701Y+501649D01*
X+7216701Y+698797D01*
X+7104387Y+811111D01*
X+6943091Y+811111D01*
X+6943091Y+1098129D01*
X+7230109Y+1098129D01*
X+7230109Y+936833D01*
G37*
G36*
X+5581986Y+2716093D02*
X+6680629Y+2716093D01*
X+6983723Y+2412999D01*
X+7212323Y+2412999D01*
X+7962899Y+1662423D01*
X+7962899Y+1212849D01*
X+8261349Y+1212849D01*
X+8261349Y+438151D01*
X+7486651Y+438151D01*
X+7486651Y+1212849D01*
X+7785101Y+1212849D01*
X+7785101Y+1588777D01*
X+7138677Y+2235201D01*
X+6910077Y+2235201D01*
X+6606983Y+2538295D01*
X+5581986Y+2538295D01*
X+5562599Y+2518908D01*
X+5562599Y+2070099D01*
X+5682535Y+2070099D01*
X+5720635Y+2108199D01*
X+5836365Y+2108199D01*
X+5894471Y+2050093D01*
X+6095803Y+2251425D01*
X+6620755Y+2251425D01*
X+6807199Y+2064981D01*
X+6807199Y+1986086D01*
X+6883399Y+1909886D01*
X+6883399Y+1773114D01*
X+6786686Y+1676401D01*
X+6649914Y+1676401D01*
X+6553201Y+1773114D01*
X+6553201Y+1909886D01*
X+6629401Y+1986086D01*
X+6629401Y+1991335D01*
X+6547109Y+2073627D01*
X+6169449Y+2073627D01*
X+6066925Y+1971103D01*
X+6066925Y+416017D01*
X+6349993Y+132949D01*
X+6532879Y+132949D01*
X+6532879Y-67709D01*
X+6280149Y-67709D01*
X+6280149Y-211651D01*
X+6351269Y-211651D01*
X+6351269Y-214631D01*
X+6661152Y-214631D01*
X+6661152Y-105409D01*
X+6607811Y-105409D01*
X+6607811Y+487687D01*
X+6541777Y+553721D01*
X+6532879Y+553721D01*
X+6532879Y+542291D01*
X+6116321Y+542291D01*
X+6116321Y+742949D01*
X+6203951Y+742949D01*
X+6203951Y+1105119D01*
X+6445249Y+1105119D01*
X+6445249Y+742949D01*
X+6532879Y+742949D01*
X+6532879Y+731519D01*
X+6615423Y+731519D01*
X+6794499Y+552443D01*
X+6794499Y+501649D01*
X+6803389Y+501649D01*
X+6803389Y-105409D01*
X+6775448Y-105409D01*
X+6775448Y-214631D01*
X+6826251Y-214631D01*
X+6826251Y-151131D01*
X+7016749Y-151131D01*
X+7016749Y-405077D01*
X+7094426Y-405077D01*
X+7182368Y-493019D01*
X+7182368Y-848652D01*
X+7059500Y-971520D01*
X+6972299Y-971520D01*
X+6972299Y-1166549D01*
X+6718301Y-1166549D01*
X+6718301Y-894262D01*
X+6641014Y-971549D01*
X+6542299Y-971549D01*
X+6542299Y-987251D01*
X+6636217Y-987251D01*
X+6698111Y-1049145D01*
X+6698111Y-1320531D01*
X+6631169Y-1387473D01*
X+6627849Y-1391183D01*
X+6627849Y-1515111D01*
X+6737351Y-1515111D01*
X+6737351Y-1281431D01*
X+6927849Y-1281431D01*
X+6927849Y-1515111D01*
X+7054849Y-1515111D01*
X+7054849Y-1579881D01*
X+7101841Y-1579881D01*
X+7164351Y-1642391D01*
X+7164351Y-1515111D01*
X+7354849Y-1515111D01*
X+7354849Y-2025649D01*
X+7344849Y-2025649D01*
X+7344849Y-2279649D01*
X+7310505Y-2279649D01*
X+7310505Y-2284731D01*
X+7453351Y-2284731D01*
X+7453351Y-2277111D01*
X+7643849Y-2277111D01*
X+7643849Y-2531111D01*
X+7653849Y-2531111D01*
X+7653849Y-2787649D01*
X+7622099Y-2787649D01*
X+7622099Y-3008701D01*
X+7265301Y-3365499D01*
X+7264399Y-3365499D01*
X+7264399Y-3708399D01*
X+6959601Y-3708399D01*
X+6959601Y-3610405D01*
X+6804497Y-3455302D01*
X+6804497Y-3018412D01*
X+6792701Y-3030208D01*
X+6708533Y-3030208D01*
X+6649018Y-2970693D01*
X+6649018Y-2916760D01*
X+6485436Y-2753178D01*
X+6485436Y-2279649D01*
X+6320351Y-2279649D01*
X+6320351Y-2025649D01*
X+6310351Y-2025649D01*
X+6310351Y-1771649D01*
X+6292851Y-1771649D01*
X+6292851Y-1515111D01*
X+6358151Y-1515111D01*
X+6358151Y-1166549D01*
X+6288301Y-1166549D01*
X+6288301Y-857251D01*
X+6593672Y-857251D01*
X+6642262Y-808661D01*
X+6642262Y-695129D01*
X+6592569Y-695129D01*
X+6592569Y-705129D01*
X+6336031Y-705129D01*
X+6336031Y-692149D01*
X+6094731Y-692149D01*
X+6094731Y-501651D01*
X+6165851Y-501651D01*
X+6165851Y-452023D01*
X+6212797Y-405077D01*
X+6336031Y-405077D01*
X+6336031Y-402149D01*
X+6094731Y-402149D01*
X+6094731Y-211651D01*
X+6165851Y-211651D01*
X+6165851Y-67709D01*
X+6116321Y-67709D01*
X+6116321Y+115177D01*
X+5889127Y+342371D01*
X+5889127Y+1881563D01*
X+5836365Y+1828801D01*
X+5720635Y+1828801D01*
X+5682535Y+1866901D01*
X+5549899Y+1866901D01*
X+5549899Y+1212849D01*
X+5848349Y+1212849D01*
X+5848349Y+438151D01*
X+5073651Y+438151D01*
X+5073651Y+1212849D01*
X+5372101Y+1212849D01*
X+5372101Y+1913716D01*
X+5359401Y+1926416D01*
X+5359401Y+2487495D01*
X+3352799Y+2487495D01*
X+3352799Y+2235199D01*
X+3423365Y+2235199D01*
X+3505199Y+2153365D01*
X+3505199Y+2043421D01*
X+3709677Y+2247899D01*
X+4367776Y+2247899D01*
X+4584699Y+2030976D01*
X+4584699Y+1986086D01*
X+4660899Y+1909886D01*
X+4660899Y+1773114D01*
X+4564186Y+1676401D01*
X+4427414Y+1676401D01*
X+4330701Y+1773114D01*
X+4330701Y+1909886D01*
X+4392523Y+1971708D01*
X+4294130Y+2070101D01*
X+3783323Y+2070101D01*
X+3631006Y+1917784D01*
X+3631006Y+438936D01*
X+3936993Y+132949D01*
X+4119879Y+132949D01*
X+4119879Y-67709D01*
X+3842509Y-67709D01*
X+3790949Y-119269D01*
X+3790949Y-196851D01*
X+3862069Y-196851D01*
X+3862069Y-209551D01*
X+4184651Y-209551D01*
X+4184651Y-105409D01*
X+4131311Y-105409D01*
X+4131311Y+501649D01*
X+4140201Y+501649D01*
X+4140201Y+542297D01*
X+4128777Y+553721D01*
X+4119879Y+553721D01*
X+4119879Y+542291D01*
X+3703321Y+542291D01*
X+3703321Y+742949D01*
X+3790951Y+742949D01*
X+3790951Y+1105119D01*
X+4032249Y+1105119D01*
X+4032249Y+742949D01*
X+4119879Y+742949D01*
X+4119879Y+731519D01*
X+4202423Y+731519D01*
X+4317999Y+615943D01*
X+4317999Y+501649D01*
X+4326889Y+501649D01*
X+4326889Y-105409D01*
X+4298949Y-105409D01*
X+4298949Y-209551D01*
X+4349751Y-209551D01*
X+4349751Y-125731D01*
X+4540249Y-125731D01*
X+4540249Y-382269D01*
X+4357369Y-382269D01*
X+4357369Y-395268D01*
X+4567754Y-395268D01*
X+4700193Y-527707D01*
X+4700193Y-831614D01*
X+4583808Y-947999D01*
X+4474949Y-947999D01*
X+4474949Y-1142999D01*
X+4220951Y-1142999D01*
X+4220951Y-833701D01*
X+4536466Y-833701D01*
X+4585895Y-784272D01*
X+4585895Y-575049D01*
X+4520412Y-509566D01*
X+4357369Y-509566D01*
X+4357369Y-690049D01*
X+4190728Y-690049D01*
X+4190728Y-897588D01*
X+4140317Y-947999D01*
X+4044949Y-947999D01*
X+4044949Y-963701D01*
X+4125045Y-963701D01*
X+4190798Y-1029454D01*
X+4190798Y-1351022D01*
X+4146549Y-1395271D01*
X+4146549Y-1515111D01*
X+4256051Y-1515111D01*
X+4256051Y-1281431D01*
X+4446549Y-1281431D01*
X+4446549Y-1537969D01*
X+4306849Y-1537969D01*
X+4306849Y-1771649D01*
X+4296849Y-1771649D01*
X+4296849Y-2087881D01*
X+4478851Y-2087881D01*
X+4478851Y-2025649D01*
X+4468851Y-2025649D01*
X+4468851Y-1515111D01*
X+4659349Y-1515111D01*
X+4659349Y-1579881D01*
X+4694178Y-1579881D01*
X+4768851Y-1654554D01*
X+4768851Y-1515111D01*
X+4959349Y-1515111D01*
X+4959349Y-2279649D01*
X+4847690Y-2279649D01*
X+4847690Y-2386699D01*
X+4857751Y-2396760D01*
X+4857751Y-2284731D01*
X+5040351Y-2284731D01*
X+5040351Y-2277111D01*
X+5230849Y-2277111D01*
X+5230849Y-2531111D01*
X+5240849Y-2531111D01*
X+5240849Y-2787649D01*
X+5209099Y-2787649D01*
X+5209099Y-3085199D01*
X+5308601Y-3184701D01*
X+5308601Y-2895601D01*
X+5587099Y-2895601D01*
X+5651501Y-2831199D01*
X+5651502Y-2627629D01*
X+5561331Y-2627629D01*
X+5561331Y-2468879D01*
X+5530849Y-2468879D01*
X+5530849Y-2787649D01*
X+5340351Y-2787649D01*
X+5340351Y-2730499D01*
X+5307699Y-2730499D01*
X+5245101Y-2667901D01*
X+5245101Y-2240279D01*
X+4984751Y-2240279D01*
X+4984751Y-1960881D01*
X+5379132Y-1960881D01*
X+5442632Y-1897381D01*
X+5543551Y-1897381D01*
X+5543551Y-1891031D01*
X+5708649Y-1891031D01*
X+5708649Y-2030729D01*
X+5543551Y-2030729D01*
X+5543551Y-2024379D01*
X+5505449Y-2024379D01*
X+5505449Y-2240279D01*
X+5499099Y-2240279D01*
X+5499099Y-2277111D01*
X+5530849Y-2277111D01*
X+5530849Y-2341881D01*
X+5842001Y-2341881D01*
X+5842001Y-2196198D01*
X+5930901Y-2107299D01*
X+5930901Y-2090879D01*
X+5817869Y-2203911D01*
X+5817869Y-2337629D01*
X+5561331Y-2337629D01*
X+5561331Y-2147131D01*
X+5695049Y-2147131D01*
X+5814061Y-2028119D01*
X+5814061Y-1668779D01*
X+5795011Y-1668779D01*
X+5795011Y-1490981D01*
X+5960109Y-1490981D01*
X+5960109Y-1668779D01*
X+5941059Y-1668779D01*
X+5941059Y-2043258D01*
X+5990416Y-1993901D01*
X+6074584Y-1993901D01*
X+6134099Y-2053416D01*
X+6134099Y-2137584D01*
X+6074584Y-2197099D01*
X+6020701Y-2197099D01*
X+5968999Y-2248801D01*
X+5968999Y-2934601D01*
X+5841999Y-3061601D01*
X+5841999Y-3987801D01*
X+5873939Y-3987801D01*
X+5874478Y-3987262D01*
X+7080541Y-3987699D01*
X+7325803Y-3742437D01*
X+7325803Y-3424937D01*
X+7905939Y-2844801D01*
X+8141318Y-2844801D01*
X+8154020Y-2832099D01*
X+8085916Y-2832099D01*
X+8026401Y-2772584D01*
X+8026401Y-2688416D01*
X+8064501Y-2650316D01*
X+8064501Y-2635249D01*
X+7999731Y-2635249D01*
X+7999731Y-2468879D01*
X+7943849Y-2468879D01*
X+7943849Y-2787649D01*
X+7753351Y-2787649D01*
X+7753351Y-2714592D01*
X+7718398Y-2714592D01*
X+7658101Y-2654295D01*
X+7658101Y-2240279D01*
X+7397751Y-2240279D01*
X+7397751Y-1960881D01*
X+7795271Y-1960881D01*
X+7858771Y-1897381D01*
X+7956551Y-1897381D01*
X+7956551Y-1891031D01*
X+8121649Y-1891031D01*
X+8121649Y-2030729D01*
X+7956551Y-2030729D01*
X+7956551Y-2024379D01*
X+7918449Y-2024379D01*
X+7918449Y-2240279D01*
X+7912099Y-2240279D01*
X+7912099Y-2277111D01*
X+7943849Y-2277111D01*
X+7943849Y-2341881D01*
X+7999731Y-2341881D01*
X+7999731Y-2154751D01*
X+8133449Y-2154751D01*
X+8227061Y-2061139D01*
X+8227061Y-1668779D01*
X+8208011Y-1668779D01*
X+8208011Y-1490981D01*
X+8373109Y-1490981D01*
X+8373109Y-1668779D01*
X+8354059Y-1668779D01*
X+8354059Y-2113741D01*
X+8256269Y-2211531D01*
X+8256269Y-2341881D01*
X+8307791Y-2341881D01*
X+8363378Y-2397468D01*
X+8363378Y-2644752D01*
X+8376078Y-2657452D01*
X+8376078Y-2825561D01*
X+8204440Y-2997199D01*
X+7969061Y-2997199D01*
X+7478201Y-3488059D01*
X+7478201Y-3805559D01*
X+7143643Y-4140117D01*
X+7112065Y-4140106D01*
X+5937580Y-4139680D01*
X+5937061Y-4140199D01*
X-3797816Y-4140199D01*
X-3881495Y-4056520D01*
X-3881495Y-2958582D01*
X-3836859Y-2913946D01*
X-3836857Y-2913946D01*
X-3774250Y-2851339D01*
X-3774250Y-2851337D01*
X-3729614Y-2806701D01*
X-3729612Y-2806701D01*
X-3723968Y-2801057D01*
X-3624465Y-2801057D01*
X-3624465Y-2618753D01*
X-3754019Y-2489199D01*
X-3808731Y-2489199D01*
X-3808731Y-2635249D01*
X-3860801Y-2635249D01*
X-3860801Y-2926167D01*
X-3905437Y-2970803D01*
X-3905439Y-2970803D01*
X-4060605Y-3125969D01*
X-4165601Y-3125969D01*
X-4165601Y-3708399D01*
X-4470399Y-3708399D01*
X-4470399Y-3617903D01*
X-4690897Y-3617903D01*
X-4853499Y-3455302D01*
X-4853499Y-2792801D01*
X-5016499Y-2629802D01*
X-5016499Y-2604769D01*
X-5175249Y-2604769D01*
X-5175249Y-2348231D01*
X-5016499Y-2348231D01*
X-5016499Y-2287269D01*
X-5175249Y-2287269D01*
X-5175249Y-2222499D01*
X-5266251Y-2222499D01*
X-5266251Y-2287269D01*
X-5416551Y-2287269D01*
X-5416551Y-3753220D01*
X-5406182Y-3763589D01*
X-5359399Y-3763589D01*
X-5359399Y-2895601D01*
X-5054601Y-2895601D01*
X-5054601Y-3962399D01*
X-5359399Y-3962399D01*
X-5359399Y-3877887D01*
X-5453524Y-3877887D01*
X-5530849Y-3800562D01*
X-5530849Y-1537969D01*
X-5556251Y-1537969D01*
X-5556251Y-2287269D01*
X-5746749Y-2287269D01*
X-5746749Y-1522731D01*
X-5719549Y-1522731D01*
X-5719549Y-1188949D01*
X-5789399Y-1188949D01*
X-5789399Y-879651D01*
X-5534612Y-879651D01*
X-5534612Y-690049D01*
X-5624831Y-690049D01*
X-5624831Y-700049D01*
X-5881369Y-700049D01*
X-5881369Y-690049D01*
X-6135369Y-690049D01*
X-6135369Y-499551D01*
X-6060403Y-499551D01*
X-6060403Y-492343D01*
X-5998380Y-430320D01*
X-5810249Y-430320D01*
X-5810249Y-400049D01*
X-6135369Y-400049D01*
X-6135369Y-209551D01*
X-6064249Y-209551D01*
X-6064249Y-75329D01*
X-6113779Y-75329D01*
X-6113779Y+35715D01*
X-6589117Y+511053D01*
X-6589117Y+1597578D01*
X-6141996Y+2044699D01*
X-5173786Y+2044699D01*
X-5148386Y+2070099D01*
X-5011614Y+2070099D01*
X-4914901Y+1973386D01*
X-4914901Y+1836614D01*
X-5011614Y+1739901D01*
X-5148386Y+1739901D01*
X-5173786Y+1765301D01*
X-6026266Y+1765301D01*
X-6309719Y+1481848D01*
X-6309719Y+626783D01*
X-5808265Y+125329D01*
X-5697221Y+125329D01*
X-5697221Y-75329D01*
X-5808265Y-75329D01*
X-5847635Y-114699D01*
X-5949951Y-114699D01*
X-5949951Y-209551D01*
X-5562599Y-209551D01*
X-5562599Y-113029D01*
X-5587289Y-113029D01*
X-5587289Y+478467D01*
X-5654923Y+546101D01*
X-5697221Y+546101D01*
X-5697221Y+534671D01*
X-6113779Y+534671D01*
X-6113779Y+735329D01*
X-5994399Y+735329D01*
X-5994399Y+780001D01*
X-6026149Y+780001D01*
X-6026149Y+1160999D01*
X-5784851Y+1160999D01*
X-5784851Y+780001D01*
X-5816601Y+780001D01*
X-5816601Y+735329D01*
X-5697221Y+735329D01*
X-5697221Y+723899D01*
X-5677415Y+723899D01*
X-5666169Y+735145D01*
X-5592523Y+735145D01*
X-5400601Y+543223D01*
X-5400601Y+494029D01*
X-5391711Y+494029D01*
X-5391711Y-113029D01*
X-5435601Y-113029D01*
X-5435601Y-209551D01*
X-5370831Y-209551D01*
X-5370831Y-266701D01*
X-5365749Y-266701D01*
X-5365749Y-201931D01*
X-5175251Y-201931D01*
X-5175251Y-430320D01*
X-5120024Y-430320D01*
X-4974487Y-575857D01*
X-4974487Y-916489D01*
X-5051947Y-993949D01*
X-5105401Y-993949D01*
X-5105401Y-1188949D01*
X-5359399Y-1188949D01*
X-5359399Y-879651D01*
X-5099289Y-879651D01*
X-5088785Y-869147D01*
X-5088785Y-623199D01*
X-5167366Y-544618D01*
X-5370831Y-544618D01*
X-5370831Y-690049D01*
X-5420314Y-690049D01*
X-5420314Y-944029D01*
X-5470234Y-993949D01*
X-5535401Y-993949D01*
X-5535401Y-1008071D01*
X-5495682Y-1008071D01*
X-5416551Y-1087202D01*
X-5416551Y-1281431D01*
X-5378451Y-1281431D01*
X-5378451Y-1522731D01*
X-5268949Y-1522731D01*
X-5268949Y-1281431D01*
X-5078451Y-1281431D01*
X-5078451Y-1522731D01*
X-4984751Y-1522731D01*
X-4984751Y-1587501D01*
X-4970601Y-1587501D01*
X-4889501Y-1668601D01*
X-4889501Y-2095501D01*
X-4885249Y-2095501D01*
X-4885249Y-2030731D01*
X-4875249Y-2030731D01*
X-4875249Y-1522731D01*
X-4684751Y-1522731D01*
X-4684751Y-2033269D01*
X-4694751Y-2033269D01*
X-4694751Y-2287269D01*
X-4885249Y-2287269D01*
X-4885249Y-2222499D01*
X-4889501Y-2222499D01*
X-4889501Y-2577199D01*
X-4885249Y-2581451D01*
X-4885249Y-2348231D01*
X-4694751Y-2348231D01*
X-4694751Y-2604769D01*
X-4861931Y-2604769D01*
X-4726501Y-2740198D01*
X-4726501Y-3402699D01*
X-4638295Y-3490905D01*
X-4470399Y-3490905D01*
X-4470399Y-3357997D01*
X-4564547Y-3357997D01*
X-4699156Y-3223389D01*
X-4699156Y-2795355D01*
X-4661958Y-2758158D01*
X-4576249Y-2672449D01*
X-4576249Y-2541269D01*
X-4586249Y-2541269D01*
X-4586249Y-2284731D01*
X-4395751Y-2284731D01*
X-4395751Y-2538731D01*
X-4385751Y-2538731D01*
X-4385751Y-2795269D01*
X-4519469Y-2795269D01*
X-4572158Y-2847958D01*
X-4572158Y-3170786D01*
X-4511945Y-3230999D01*
X-4470399Y-3230999D01*
X-4470399Y-2895601D01*
X-4165601Y-2895601D01*
X-4165601Y-2973571D01*
X-4123727Y-2973571D01*
X-4013199Y-2863043D01*
X-4013199Y-2635249D01*
X-4065269Y-2635249D01*
X-4065269Y-2489199D01*
X-4095751Y-2489199D01*
X-4095751Y-2795269D01*
X-4286249Y-2795269D01*
X-4286249Y-2730499D01*
X-4317790Y-2730499D01*
X-4380882Y-2667407D01*
X-4380882Y-2247899D01*
X-4641849Y-2247899D01*
X-4641849Y-1968501D01*
X-4255096Y-1968501D01*
X-4255096Y-1952033D01*
X-4189014Y-1885951D01*
X-4083049Y-1885951D01*
X-4083049Y-1879601D01*
X-3917951Y-1879601D01*
X-3917951Y-2019299D01*
X-4083049Y-2019299D01*
X-4083049Y-2012949D01*
X-4121151Y-2012949D01*
X-4121151Y-2247899D01*
X-4127501Y-2247899D01*
X-4127501Y-2284731D01*
X-4095751Y-2284731D01*
X-4095751Y-2336801D01*
X-4065269Y-2336801D01*
X-4065269Y-2154751D01*
X-3985128Y-2154751D01*
X-3963301Y-2132925D01*
X-3812539Y-1982163D01*
X-3812539Y-1612899D01*
X-3831589Y-1612899D01*
X-3831589Y-1435101D01*
X-3670299Y-1435101D01*
X-3670299Y-905553D01*
X-3735088Y-840764D01*
X-3753049Y-840764D01*
X-3812564Y-781249D01*
X-3812564Y-697081D01*
X-3753049Y-637566D01*
X-3668881Y-637566D01*
X-3609366Y-697081D01*
X-3609366Y-715042D01*
X-3492501Y-831907D01*
X-3492501Y-2244046D01*
X-3224028Y-2512520D01*
X-3216418Y-2504910D01*
X-3208656Y-2504910D01*
X-3208656Y-1530349D01*
X-3232151Y-1530349D01*
X-3232151Y-2279649D01*
X-3422649Y-2279649D01*
X-3422649Y-1515111D01*
X-3384549Y-1515111D01*
X-3384549Y-1099563D01*
X-3376399Y-1091413D01*
X-3376399Y-854251D01*
X-3081371Y-854251D01*
X-3079749Y-852629D01*
X-3079749Y-659129D01*
X-3392169Y-659129D01*
X-3392169Y-654049D01*
X-3646169Y-654049D01*
X-3646169Y-463551D01*
X-3575049Y-463551D01*
X-3575049Y-424901D01*
X-3514197Y-364049D01*
X-3646169Y-364049D01*
X-3646169Y-173551D01*
X-3575049Y-173551D01*
X-3575049Y-81765D01*
X-3535679Y-42395D01*
X-3535679Y+115177D01*
X-3644901Y+224399D01*
X-3644901Y+148416D01*
X-3704416Y+88901D01*
X-3788584Y+88901D01*
X-3848099Y+148416D01*
X-3848099Y+232584D01*
X-3840472Y+240212D01*
X-4030791Y+430531D01*
X-4641849Y+430531D01*
X-4641849Y+1205229D01*
X-4343399Y+1205229D01*
X-4343399Y+1801037D01*
X-4429059Y+1886697D01*
X-4429059Y+2023469D01*
X-4394199Y+2058329D01*
X-4394199Y+2667044D01*
X-4377075Y+2684168D01*
X-4377075Y+2685059D01*
X-4295241Y+2766893D01*
X+5531186Y+2766893D01*
X+5581986Y+2716093D01*
G37*
G36*
X+8216899Y-24131D02*
X+8230869Y-24131D01*
X+8230869Y-214629D01*
X+7979849Y-214629D01*
X+7979849Y-247649D01*
X+7789351Y-247649D01*
X+7789351Y+8889D01*
X+7979849Y+8889D01*
X+7979849Y-24131D01*
X+7988301Y-24131D01*
X+7988301Y+299719D01*
X+8216899Y+299719D01*
X+8216899Y-24131D01*
G37*
G36*
X+4817109Y+936833D02*
X+4917999Y+835943D01*
X+4917999Y+501649D01*
X+4926889Y+501649D01*
X+4926889Y+226053D01*
X+4929423Y+223519D01*
X+5118101Y+223519D01*
X+5118101Y+299719D01*
X+5346699Y+299719D01*
X+5346699Y+8889D01*
X+5530849Y+8889D01*
X+5530849Y-55881D01*
X+5561331Y-55881D01*
X+5561331Y-24131D01*
X+5575301Y-24131D01*
X+5575301Y+299719D01*
X+5803899Y+299719D01*
X+5803899Y-24131D01*
X+5817869Y-24131D01*
X+5817869Y-214629D01*
X+5561331Y-214629D01*
X+5561331Y-182879D01*
X+5530849Y-182879D01*
X+5530849Y-247649D01*
X+5340351Y-247649D01*
X+5340351Y-30479D01*
X+5245099Y-30479D01*
X+5245099Y-438994D01*
X+5336178Y-347915D01*
X+5561331Y-347915D01*
X+5561331Y-314131D01*
X+5817869Y-314131D01*
X+5817869Y-447849D01*
X+5847079Y-477059D01*
X+5847079Y-1300481D01*
X+5866129Y-1300481D01*
X+5866129Y-1478279D01*
X+5701031Y-1478279D01*
X+5701031Y-1300481D01*
X+5720081Y-1300481D01*
X+5720081Y-529661D01*
X+5695049Y-504629D01*
X+5561331Y-504629D01*
X+5561331Y-474913D01*
X+5388780Y-474913D01*
X+5333999Y-529694D01*
X+5333999Y-1028701D01*
X+5397501Y-1028701D01*
X+5397501Y-882649D01*
X+5340351Y-882649D01*
X+5340351Y-626111D01*
X+5530849Y-626111D01*
X+5530849Y-882649D01*
X+5524499Y-882649D01*
X+5524499Y-1028701D01*
X+5626099Y-1028701D01*
X+5626099Y-1257299D01*
X+5524499Y-1257299D01*
X+5524499Y-1606181D01*
X+5505765Y-1624915D01*
X+5505765Y-1662432D01*
X+5543551Y-1662432D01*
X+5543551Y-1656081D01*
X+5607051Y-1656081D01*
X+5607051Y-1490981D01*
X+5772149Y-1490981D01*
X+5772149Y-1668779D01*
X+5708649Y-1668779D01*
X+5708649Y-1795779D01*
X+5543551Y-1795779D01*
X+5543551Y-1789428D01*
X+5447680Y-1789428D01*
X+5378767Y-1720515D01*
X+5378767Y-1719579D01*
X+4984751Y-1719579D01*
X+4984751Y-1440181D01*
X+5118101Y-1440181D01*
X+5118101Y-1407024D01*
X+5051984Y-1340907D01*
X+5051984Y-1257299D01*
X+4914901Y-1257299D01*
X+4914901Y-1028701D01*
X+5016501Y-1028701D01*
X+5016501Y-783679D01*
X+5040351Y-759829D01*
X+5040351Y-626111D01*
X+5118101Y-626111D01*
X+5118101Y-247649D01*
X+5050351Y-247649D01*
X+5050351Y+8889D01*
X+5118101Y+8889D01*
X+5118101Y+45721D01*
X+4926889Y+45721D01*
X+4926889Y-105409D01*
X+4731311Y-105409D01*
X+4731311Y+501649D01*
X+4740201Y+501649D01*
X+4740201Y+762297D01*
X+4691387Y+811111D01*
X+4530091Y+811111D01*
X+4530091Y+1098129D01*
X+4817109Y+1098129D01*
X+4817109Y+936833D01*
G37*
G36*
X+7230109Y+1261111D02*
X+6943091Y+1261111D01*
X+6943091Y+1548129D01*
X+7230109Y+1548129D01*
X+7230109Y+1261111D01*
G37*
G36*
X+4817109Y+1261111D02*
X+4530091Y+1261111D01*
X+4530091Y+1548129D01*
X+4817109Y+1548129D01*
X+4817109Y+1261111D01*
G37*
G36*
X+6445249Y+1168621D02*
X+6203951Y+1168621D01*
X+6203951Y+1549619D01*
X+6445249Y+1549619D01*
X+6445249Y+1168621D01*
G37*
G36*
X+4032249Y+1168621D02*
X+3790951Y+1168621D01*
X+3790951Y+1549619D01*
X+4032249Y+1549619D01*
X+4032249Y+1168621D01*
G37*
G36*
X+7126251Y-151131D02*
X+7316749Y-151131D01*
X+7316749Y-407669D01*
X+7126251Y-407669D01*
X+7126251Y-151131D01*
G37*
G36*
X+4649751Y-125731D02*
X+4840249Y-125731D01*
X+4840249Y-382269D01*
X+4649751Y-382269D01*
X+4649751Y-125731D01*
G37*
G36*
X-3911601Y-38099D02*
X-3937001Y-38099D01*
X-3937001Y-95251D01*
X-3872231Y-95251D01*
X-3872231Y-285749D01*
X-4123251Y-285749D01*
X-4123251Y-318769D01*
X-4313749Y-318769D01*
X-4313749Y-62231D01*
X-4123251Y-62231D01*
X-4123251Y-95251D01*
X-4063999Y-95251D01*
X-4063999Y-38099D01*
X-4140199Y-38099D01*
X-4140199Y+292099D01*
X-3911601Y+292099D01*
X-3911601Y-38099D01*
G37*
G36*
X-4936491Y+970863D02*
X-4930880Y+963007D01*
X-4800601Y+832728D01*
X-4800601Y+494029D01*
X-4791711Y+494029D01*
X-4791711Y+218433D01*
X-4789177Y+215899D01*
X-4597399Y+215899D01*
X-4597399Y+292099D01*
X-4368801Y+292099D01*
X-4368801Y-38099D01*
X-4419601Y-38099D01*
X-4419601Y-62231D01*
X-4413251Y-62231D01*
X-4413251Y-318769D01*
X-4427501Y-318769D01*
X-4427501Y-633731D01*
X-4395751Y-633731D01*
X-4395751Y-890269D01*
X-4417502Y-890269D01*
X-4417502Y-1042811D01*
X-4395609Y-1042811D01*
X-4395609Y-540103D01*
X-4272507Y-417001D01*
X-4128769Y-417001D01*
X-4128769Y-385251D01*
X-3872231Y-385251D01*
X-3872231Y-575749D01*
X-3873501Y-575749D01*
X-3873501Y-1213219D01*
X-3842119Y-1244601D01*
X-3760471Y-1244601D01*
X-3760471Y-1422399D01*
X-3925569Y-1422399D01*
X-3925569Y-1340751D01*
X-3994911Y-1271409D01*
X-4078111Y-1271409D01*
X-4078111Y-1613801D01*
X-4115309Y-1650999D01*
X-4121151Y-1650999D01*
X-4121151Y-1651001D01*
X-4083049Y-1651001D01*
X-4083049Y-1644651D01*
X-3917951Y-1644651D01*
X-3917951Y-1784349D01*
X-4083049Y-1784349D01*
X-4083049Y-1777999D01*
X-4222551Y-1777999D01*
X-4260413Y-1740137D01*
X-4260413Y-1727199D01*
X-4641849Y-1727199D01*
X-4641849Y-1447801D01*
X-4508499Y-1447801D01*
X-4508499Y-1271409D01*
X-4687709Y-1271409D01*
X-4687709Y-1042811D01*
X-4544498Y-1042811D01*
X-4544498Y-890269D01*
X-4586249Y-890269D01*
X-4586249Y-633731D01*
X-4554499Y-633731D01*
X-4554499Y-318769D01*
X-4603749Y-318769D01*
X-4603749Y-62231D01*
X-4546599Y-62231D01*
X-4546599Y-38099D01*
X-4597399Y-38099D01*
X-4597399Y+38101D01*
X-4791711Y+38101D01*
X-4791711Y-113029D01*
X-4987289Y-113029D01*
X-4987289Y+494029D01*
X-4978399Y+494029D01*
X-4978399Y+759082D01*
X-5065586Y+846269D01*
X-5082389Y+866991D01*
X-5223509Y+866991D01*
X-5223509Y+1154009D01*
X-4936491Y+1154009D01*
X-4936491Y+970863D01*
G37*
G36*
X-4936491Y+1316991D02*
X-5223509Y+1316991D01*
X-5223509Y+1604009D01*
X-4936491Y+1604009D01*
X-4936491Y+1316991D01*
G37*
G36*
X-3854451Y-1612899D02*
X-4019549Y-1612899D01*
X-4019549Y-1435101D01*
X-3854451Y-1435101D01*
X-3854451Y-1612899D01*
G37*
G36*
X-5784851Y+1224501D02*
X-6026149Y+1224501D01*
X-6026149Y+1605499D01*
X-5784851Y+1605499D01*
X-5784851Y+1224501D01*
G37*
G36*
X-5065749Y-201931D02*
X-4875251Y-201931D01*
X-4875251Y-458469D01*
X-5065749Y-458469D01*
X-5065749Y-201931D01*
G37*
G36*
X-7340599Y+2239404D02*
X-7340599Y+2586596D01*
X-7095096Y+2832099D01*
X-6747904Y+2832099D01*
X-6502401Y+2586596D01*
X-6502401Y+2239404D01*
X-6747904Y+1993901D01*
X-7095096Y+1993901D01*
X-7340599Y+2239404D01*
G37*
G36*
X+7581901Y+2239404D02*
X+7581901Y+2586596D01*
X+7827404Y+2832099D01*
X+8174596Y+2832099D01*
X+8420099Y+2586596D01*
X+8420099Y+2239404D01*
X+8174596Y+1993901D01*
X+7827404Y+1993901D01*
X+7581901Y+2239404D01*
G37*
G36*
X+7581901Y-3920096D02*
X+7581901Y-3572904D01*
X+7827404Y-3327401D01*
X+8174596Y-3327401D01*
X+8420099Y-3572904D01*
X+8420099Y-3920096D01*
X+8174596Y-4165599D01*
X+7827404Y-4165599D01*
X+7581901Y-3920096D01*
G37*
G36*
X-4800599Y+1836614D02*
X-4800599Y+1973386D01*
X-4703886Y+2070099D01*
X-4567114Y+2070099D01*
X-4470401Y+1973386D01*
X-4470401Y+1836614D01*
X-4567114Y+1739901D01*
X-4703886Y+1739901D01*
X-4800599Y+1836614D01*
G37*
G36*
X+4096246Y+1629227D02*
X+4096246Y+1660791D01*
X+4118564Y+1683109D01*
X+4150128Y+1683109D01*
X+4172446Y+1660791D01*
X+4172446Y+1629227D01*
X+4150128Y+1606909D01*
X+4118564Y+1606909D01*
X+4096246Y+1629227D01*
G37*
G36*
X+6399056Y+1691247D02*
X+6399056Y+1722811D01*
X+6421374Y+1745129D01*
X+6452938Y+1745129D01*
X+6475256Y+1722811D01*
X+6475256Y+1691247D01*
X+6452938Y+1668929D01*
X+6421374Y+1668929D01*
X+6399056Y+1691247D01*
G37*
G36*
X-4673600Y-2492282D02*
X-4673600Y-2460718D01*
X-4651282Y-2438400D01*
X-4619718Y-2438400D01*
X-4597400Y-2460718D01*
X-4597400Y-2492282D01*
X-4619718Y-2514600D01*
X-4651282Y-2514600D01*
X-4673600Y-2492282D01*
G37*
G36*
X-5432660Y+702904D02*
X-5432660Y+734468D01*
X-5410342Y+756786D01*
X-5378778Y+756786D01*
X-5356460Y+734468D01*
X-5356460Y+702904D01*
X-5378778Y+680586D01*
X-5410342Y+680586D01*
X-5432660Y+702904D01*
G37*
%LPD*%
G36*
X+3124201Y+2095500D02*
X+3124201Y+2048156D01*
X+3149601Y+2022756D01*
X+3149601Y+1672471D01*
X+2959101Y+1481971D01*
X+2959101Y+1212849D01*
X+2660651Y+1212849D01*
X+2660651Y+438151D01*
X+3435349Y+438151D01*
X+3435349Y+1212849D01*
X+3136899Y+1212849D01*
X+3136899Y+1408325D01*
X+3327399Y+1598825D01*
X+3327399Y+1955801D01*
X+3423365Y+1955801D01*
X+3453208Y+1985644D01*
X+3453208Y+365290D01*
X+3703321Y+115177D01*
X+3703321Y-45257D01*
X+3676651Y-71927D01*
X+3676651Y-196851D01*
X+3605531Y-196851D01*
X+3605531Y-387349D01*
X+3846831Y-387349D01*
X+3846831Y-395268D01*
X+3718950Y-395268D01*
X+3676652Y-437566D01*
X+3676652Y-486851D01*
X+3605531Y-486851D01*
X+3605531Y-677349D01*
X+3846831Y-677349D01*
X+3846831Y-700049D01*
X+4076430Y-700049D01*
X+4076430Y-833701D01*
X+3790951Y-833701D01*
X+3790951Y-1142999D01*
X+3854451Y-1142999D01*
X+3854451Y-1515111D01*
X+3816351Y-1515111D01*
X+3816351Y-2279649D01*
X+4006849Y-2279649D01*
X+4006849Y-1537969D01*
X+4006851Y-1537969D01*
X+4006851Y-2438540D01*
X+4592798Y-3024487D01*
X+4592798Y-3087350D01*
X+4652313Y-3146865D01*
X+4736481Y-3146865D01*
X+4762501Y-3120845D01*
X+4762501Y-3455301D01*
X+4926699Y-3619499D01*
X+5308601Y-3619499D01*
X+5308601Y-3708399D01*
X+5613399Y-3708399D01*
X+5613399Y-3048901D01*
X+5778499Y-2883802D01*
X+5778498Y-2627629D01*
X+5817869Y-2627629D01*
X+5817869Y-2468879D01*
X+5842001Y-2468879D01*
X+5842001Y-2881999D01*
X+5715001Y-3008999D01*
X+5715001Y-3987801D01*
X+3492499Y-3987801D01*
X+3492499Y-3346263D01*
X+3505199Y-3333563D01*
X+3505199Y-3270437D01*
X+3492499Y-3257737D01*
X+3492499Y-2925774D01*
X+3490767Y-2924042D01*
X+3490767Y-2767698D01*
X+3490766Y-2623687D01*
X+3490767Y-2427072D01*
X+3405576Y-2341881D01*
X+3404869Y-2341881D01*
X+3404869Y-2239911D01*
X+3528059Y-2116721D01*
X+3528059Y-1668779D01*
X+3547109Y-1668779D01*
X+3547109Y-1490981D01*
X+3382011Y-1490981D01*
X+3382011Y-1668779D01*
X+3401061Y-1668779D01*
X+3401061Y-2064119D01*
X+3282049Y-2183131D01*
X+3148331Y-2183131D01*
X+3148331Y-2341881D01*
X+3117849Y-2341881D01*
X+3117849Y-2277111D01*
X+3086099Y-2277111D01*
X+3086099Y-2240279D01*
X+3092449Y-2240279D01*
X+3092449Y-2024379D01*
X+3130551Y-2024379D01*
X+3130551Y-2030729D01*
X+3295649Y-2030729D01*
X+3295649Y-1891031D01*
X+3130551Y-1891031D01*
X+3130551Y-1897381D01*
X+3034448Y-1897381D01*
X+2970948Y-1960881D01*
X+2571751Y-1960881D01*
X+2571751Y-2240279D01*
X+2832101Y-2240279D01*
X+2832101Y-2655854D01*
X+2899126Y-2722879D01*
X+2927351Y-2722879D01*
X+2927351Y-2787649D01*
X+3117849Y-2787649D01*
X+3117849Y-2468879D01*
X+3352973Y-2468879D01*
X+3357225Y-2473131D01*
X+3148331Y-2473131D01*
X+3148331Y-2663629D01*
X+3213101Y-2663629D01*
X+3213101Y-2847566D01*
X+3136899Y-2923768D01*
X+3136899Y-2895601D01*
X+2832101Y-2895601D01*
X+2832101Y-3235792D01*
X+2817592Y-3235792D01*
X+2793999Y-3212199D01*
X+2793999Y-2787649D01*
X+2827849Y-2787649D01*
X+2827849Y-2531111D01*
X+2817849Y-2531111D01*
X+2817849Y-2277111D01*
X+2627351Y-2277111D01*
X+2627351Y-2284731D01*
X+2444751Y-2284731D01*
X+2444751Y-2541269D01*
X+2635249Y-2541269D01*
X+2635249Y-2533649D01*
X+2637351Y-2533649D01*
X+2637351Y-2787649D01*
X+2667001Y-2787649D01*
X+2667001Y-3264802D01*
X+2764990Y-3362790D01*
X+2832101Y-3362790D01*
X+2832101Y-3483789D01*
X+2552842Y-3483789D01*
X+2423599Y-3354546D01*
X+2423599Y-2386698D01*
X+2423598Y-2279649D01*
X+2455349Y-2279649D01*
X+2455349Y-2025649D01*
X+2465349Y-2025649D01*
X+2465349Y-1515111D01*
X+2274851Y-1515111D01*
X+2274851Y-1668573D01*
X+2186159Y-1579881D01*
X+2165349Y-1579881D01*
X+2165349Y-1515111D01*
X+2033549Y-1515111D01*
X+2033549Y-1286511D01*
X+1843051Y-1286511D01*
X+1843051Y-1515111D01*
X+1733549Y-1515111D01*
X+1733549Y-1393513D01*
X+1737413Y-1388955D01*
X+1758949Y-1367419D01*
X+1758949Y-1043129D01*
X+1698571Y-982751D01*
X+1625599Y-982751D01*
X+1625599Y-963239D01*
X+1714684Y-963239D01*
X+1801601Y-876322D01*
X+1801601Y-1162049D01*
X+2055599Y-1162049D01*
X+2055599Y-963239D01*
X+2155564Y-963239D01*
X+2262844Y-855959D01*
X+2262844Y-578587D01*
X+2262843Y-524703D01*
X+2109096Y-370956D01*
X+1602739Y-370956D01*
X+1602739Y-346429D01*
X+1670331Y-346429D01*
X+1670331Y-356429D01*
X+1926869Y-356429D01*
X+1926869Y-314519D01*
X+1931671Y-314519D01*
X+1931671Y-369569D01*
X+2122169Y-369569D01*
X+2122169Y-113031D01*
X+1931671Y-113031D01*
X+1931671Y-207841D01*
X+1926869Y-207841D01*
X+1926869Y-165931D01*
X+1879599Y-165931D01*
X+1879599Y-105409D01*
X+1913889Y-105409D01*
X+1913889Y+501649D01*
X+1904999Y+501649D01*
X+1904999Y+615943D01*
X+1789423Y+731519D01*
X+1706879Y+731519D01*
X+1706879Y+742949D01*
X+1619249Y+742949D01*
X+1619249Y+1105119D01*
X+1377951Y+1105119D01*
X+1377951Y+742949D01*
X+1290321Y+742949D01*
X+1290321Y+542291D01*
X+1706879Y+542291D01*
X+1706879Y+553721D01*
X+1715777Y+553721D01*
X+1727201Y+542297D01*
X+1727201Y+501649D01*
X+1718311Y+501649D01*
X+1718311Y-105409D01*
X+1752601Y-105409D01*
X+1752601Y-146699D01*
X+1735101Y-164199D01*
X+1735101Y-165931D01*
X+1677669Y-165931D01*
X+1677669Y-155931D01*
X+1436369Y-155931D01*
X+1436369Y-153231D01*
X+1371599Y-153231D01*
X+1371599Y-143039D01*
X+1446929Y-67709D01*
X+1706879Y-67709D01*
X+1706879Y+132949D01*
X+1523993Y+132949D01*
X+1246011Y+410931D01*
X+1246011Y+1928916D01*
X+1399466Y+2082371D01*
X+2061437Y+2082371D01*
X+2133601Y+2010207D01*
X+2133601Y+1986086D01*
X+2057401Y+1909886D01*
X+2057401Y+1773114D01*
X+2154114Y+1676401D01*
X+2290886Y+1676401D01*
X+2387599Y+1773114D01*
X+2387599Y+1909886D01*
X+2311399Y+1986086D01*
X+2311399Y+2083853D01*
X+2135083Y+2260169D01*
X+1325820Y+2260169D01*
X+1068213Y+2002562D01*
X+1068213Y+337285D01*
X+1290321Y+115177D01*
X+1290321Y-44717D01*
X+1244601Y-90437D01*
X+1244601Y-153231D01*
X+1179831Y-153231D01*
X+1179831Y-343729D01*
X+1421131Y-343729D01*
X+1421131Y-346429D01*
X+1496061Y-346429D01*
X+1496061Y-370956D01*
X+1310193Y-370956D01*
X+1260514Y-420635D01*
X+1260514Y-443231D01*
X+1179831Y-443231D01*
X+1179831Y-633729D01*
X+1421131Y-633729D01*
X+1421131Y-646429D01*
X+1713046Y-646429D01*
X+1713046Y-814013D01*
X+1670498Y-856561D01*
X+1625599Y-856561D01*
X+1625599Y-852751D01*
X+1371601Y-852751D01*
X+1371601Y-1162049D01*
X+1441451Y-1162049D01*
X+1441451Y-1515111D01*
X+1403351Y-1515111D01*
X+1403351Y-2279649D01*
X+1581151Y-2279649D01*
X+1581151Y-2546936D01*
X+1528293Y-2599796D01*
X+1508663Y-2619424D01*
X+1471466Y-2656621D01*
X+1471466Y-2665602D01*
X+1450272Y-2686796D01*
X+1441292Y-2686796D01*
X+1320608Y-2807480D01*
X+1287166Y-2807183D01*
X+1248584Y-2768601D01*
X+1164416Y-2768601D01*
X+1104901Y-2828116D01*
X+1104901Y-2912284D01*
X+1164416Y-2971799D01*
X+1248584Y-2971799D01*
X+1286024Y-2934359D01*
X+1372788Y-2934900D01*
X+1531092Y-2776596D01*
X+1531092Y-2767616D01*
X+1552286Y-2746422D01*
X+1561268Y-2746422D01*
X+1598465Y-2709225D01*
X+1598465Y-2709223D01*
X+1618094Y-2689596D01*
X+1696193Y-2611496D01*
X+1696193Y-2558892D01*
X+1695449Y-2558148D01*
X+1695449Y-2279649D01*
X+1883849Y-2279649D01*
X+1883849Y-2214879D01*
X+1974851Y-2214879D01*
X+1974851Y-2279649D01*
X+2165349Y-2279649D01*
X+2165349Y-2130432D01*
X+2245511Y-2210594D01*
X+2264851Y-2210594D01*
X+2264851Y-2279649D01*
X+2296602Y-2279649D01*
X+2296602Y-2284731D01*
X+2154751Y-2284731D01*
X+2154751Y-2541269D01*
X+2296601Y-2541269D01*
X+2296601Y-3407148D01*
X+2500240Y-3610787D01*
X+2832101Y-3610787D01*
X+2832101Y-3708399D01*
X+3136899Y-3708399D01*
X+3136899Y-3103368D01*
X+3340099Y-2900169D01*
X+3340099Y-2663629D01*
X+3363769Y-2663629D01*
X+3363769Y-2976644D01*
X+3365501Y-2978376D01*
X+3365501Y-3257737D01*
X+3352801Y-3270437D01*
X+3352801Y-3333563D01*
X+3365501Y-3346263D01*
X+3365501Y-3987801D01*
X+1079499Y-3987801D01*
X+1079499Y-2514599D01*
X+1121584Y-2514599D01*
X+1181099Y-2455084D01*
X+1181099Y-2370916D01*
X+1121584Y-2311401D01*
X+1037416Y-2311401D01*
X+1006936Y-2341881D01*
X+704849Y-2341881D01*
X+704849Y-2277111D01*
X+673099Y-2277111D01*
X+673099Y-2240279D01*
X+679449Y-2240279D01*
X+679449Y-2024379D01*
X+717551Y-2024379D01*
X+717551Y-2030729D01*
X+882649Y-2030729D01*
X+882649Y-1891031D01*
X+717551Y-1891031D01*
X+717551Y-1897381D01*
X+600252Y-1897381D01*
X+546381Y-1951252D01*
X+546381Y-1960881D01*
X+158751Y-1960881D01*
X+158751Y-2240279D01*
X+419101Y-2240279D01*
X+419101Y-2660751D01*
X+479817Y-2721467D01*
X+514351Y-2721467D01*
X+514351Y-2787649D01*
X+704849Y-2787649D01*
X+704849Y-2468879D01*
X+735331Y-2468879D01*
X+735331Y-2627629D01*
X+800101Y-2627629D01*
X+800102Y-2721976D01*
X+800101Y-2885271D01*
X+723899Y-2961473D01*
X+723899Y-2895601D01*
X+419101Y-2895601D01*
X+419101Y-3184701D01*
X+383099Y-3148699D01*
X+383099Y-2787649D01*
X+414849Y-2787649D01*
X+414849Y-2531111D01*
X+404849Y-2531111D01*
X+404849Y-2277111D01*
X+214351Y-2277111D01*
X+214351Y-2284731D01*
X+31751Y-2284731D01*
X+31751Y-2541269D01*
X+222249Y-2541269D01*
X+222249Y-2533649D01*
X+224351Y-2533649D01*
X+224351Y-2787649D01*
X+256101Y-2787649D01*
X+256101Y-3201302D01*
X+293299Y-3238499D01*
X+419101Y-3364301D01*
X+419101Y-3492502D01*
X+412750Y-3492502D01*
X+280301Y-3492501D01*
X+10176Y-3222376D01*
X+10177Y-2279649D01*
X+105849Y-2279649D01*
X+105849Y-2025649D01*
X+115849Y-2025649D01*
X+115849Y-1515111D01*
X-74649Y-1515111D01*
X-74649Y-1660956D01*
X-155724Y-1579881D01*
X-184151Y-1579881D01*
X-184151Y-1515111D01*
X-366751Y-1515111D01*
X-366751Y-1273811D01*
X-557249Y-1273811D01*
X-557249Y-1515111D01*
X-666751Y-1515111D01*
X-666751Y-1387651D01*
X-647963Y-1368863D01*
X-647963Y-1062418D01*
X-713429Y-996952D01*
X-772901Y-996952D01*
X-772901Y-981249D01*
X-705335Y-981249D01*
X-624348Y-900262D01*
X-624348Y-707829D01*
X-455931Y-707829D01*
X-455931Y-535678D01*
X-327539Y-535678D01*
X-274354Y-588863D01*
X-274354Y-857656D01*
X-283649Y-866951D01*
X-596899Y-866951D01*
X-596899Y-1176249D01*
X-342901Y-1176249D01*
X-342901Y-981249D01*
X-236307Y-981249D01*
X-160056Y-904998D01*
X-160056Y-541521D01*
X-280197Y-421380D01*
X-762898Y-421380D01*
X-762898Y-418879D01*
X-696181Y-418879D01*
X-696181Y-417829D01*
X-476529Y-417829D01*
X-476529Y-420369D01*
X-286031Y-420369D01*
X-286031Y-163831D01*
X-476529Y-163831D01*
X-476529Y-227331D01*
X-520701Y-227331D01*
X-520701Y-105409D01*
X-499111Y-105409D01*
X-499111Y+501649D01*
X-508001Y+501649D01*
X-508001Y+615943D01*
X-623577Y+731519D01*
X-706121Y+731519D01*
X-706121Y+742949D01*
X-793751Y+742949D01*
X-793751Y+1105119D01*
X-1035049Y+1105119D01*
X-1035049Y+742949D01*
X-1098581Y+742949D01*
X-1098581Y+1870938D01*
X-988318Y+1981201D01*
X-240023Y+1981201D01*
X-179604Y+1920782D01*
X-190499Y+1909886D01*
X-190499Y+1773114D01*
X-93786Y+1676401D01*
X+42986Y+1676401D01*
X+139699Y+1773114D01*
X+139699Y+1909886D01*
X+42986Y+2006599D01*
X-13977Y+2006599D01*
X-166377Y+2158999D01*
X-1061964Y+2158999D01*
X-1276379Y+1944584D01*
X-1276379Y+74839D01*
X-1145261Y-56279D01*
X-1122679Y-56279D01*
X-1122679Y-67709D01*
X-1113840Y-67709D01*
X-1130299Y-84168D01*
X-1130299Y-227331D01*
X-1195069Y-227331D01*
X-1195069Y-417829D01*
X-952719Y-417829D01*
X-952719Y-418879D01*
X-877196Y-418879D01*
X-877196Y-421380D01*
X-1067933Y-421380D01*
X-1118627Y-472074D01*
X-1118627Y-517331D01*
X-1195069Y-517331D01*
X-1195069Y-707829D01*
X-952719Y-707829D01*
X-952719Y-718879D01*
X-738646Y-718879D01*
X-738646Y-852920D01*
X-752677Y-866951D01*
X-1026899Y-866951D01*
X-1026899Y-1176249D01*
X-957049Y-1176249D01*
X-957049Y-1515111D01*
X-1009649Y-1515111D01*
X-1009649Y-2279649D01*
X-819151Y-2279649D01*
X-819151Y-1530349D01*
X-819149Y-1530349D01*
X-819149Y-2561094D01*
X-1187347Y-2929292D01*
X-1173195Y-2990950D01*
X-1155699Y-2997917D01*
X-1155699Y-3013884D01*
X-1096184Y-3073399D01*
X-1012016Y-3073399D01*
X-952501Y-3013884D01*
X-952501Y-2929716D01*
X-989316Y-2892901D01*
X-704851Y-2608436D01*
X-704851Y-2279649D01*
X-529151Y-2279649D01*
X-529151Y-2214879D01*
X-374649Y-2214879D01*
X-374649Y-2279649D01*
X-184151Y-2279649D01*
X-184151Y-2129817D01*
X-116821Y-2197147D01*
X-116821Y-2284731D01*
X-258249Y-2284731D01*
X-258249Y-2541269D01*
X-116821Y-2541269D01*
X-116820Y-3274980D01*
X+227698Y-3619499D01*
X+419101Y-3619498D01*
X+419101Y-3708399D01*
X+723899Y-3708399D01*
X+723899Y-3111499D01*
X+753473Y-3111499D01*
X+927099Y-2937874D01*
X+927098Y-2721976D01*
X+927099Y-2627629D01*
X+952501Y-2627629D01*
X+952501Y-3987801D01*
X-1206501Y-3987801D01*
X-1206501Y-2493184D01*
X-1168401Y-2455084D01*
X-1168401Y-2370916D01*
X-1227916Y-2311401D01*
X-1312084Y-2311401D01*
X-1342564Y-2341881D01*
X-1421131Y-2341881D01*
X-1421131Y-2239911D01*
X-1297941Y-2116721D01*
X-1297941Y-1668779D01*
X-1278891Y-1668779D01*
X-1278891Y-1490981D01*
X-1443989Y-1490981D01*
X-1443989Y-1668779D01*
X-1424939Y-1668779D01*
X-1424939Y-2064119D01*
X-1543951Y-2183131D01*
X-1677669Y-2183131D01*
X-1677669Y-2341881D01*
X-1708151Y-2341881D01*
X-1708151Y-2277111D01*
X-1739901Y-2277111D01*
X-1739901Y-2240279D01*
X-1733551Y-2240279D01*
X-1733551Y-2044331D01*
X-1713599Y-2024379D01*
X-1695449Y-2024379D01*
X-1695449Y-2030729D01*
X-1530351Y-2030729D01*
X-1530351Y-1891031D01*
X-1695449Y-1891031D01*
X-1695449Y-1897381D01*
X-1766201Y-1897381D01*
X-1829701Y-1960881D01*
X-2254249Y-1960881D01*
X-2254249Y-2240279D01*
X-1993899Y-2240279D01*
X-1993898Y-2653546D01*
X-1924893Y-2722551D01*
X-1898649Y-2722551D01*
X-1898649Y-2787649D01*
X-1708151Y-2787649D01*
X-1708151Y-2468879D01*
X-1357804Y-2468879D01*
X-1333499Y-2493184D01*
X-1333499Y-3987801D01*
X-3729097Y-3987801D01*
X-3729097Y-3021706D01*
X-3666490Y-2959099D01*
X-3610784Y-2959099D01*
X-3585384Y-2984499D01*
X-3501216Y-2984499D01*
X-3441701Y-2924984D01*
X-3441701Y-2840816D01*
X-3472067Y-2810450D01*
X-3472067Y-2555629D01*
X-3516703Y-2510993D01*
X-3516705Y-2510993D01*
X-3646259Y-2381439D01*
X-3646259Y-2381437D01*
X-3690895Y-2336801D01*
X-3808731Y-2336801D01*
X-3808731Y-2157955D01*
X-3685541Y-2034766D01*
X-3685541Y-1612899D01*
X-3670299Y-1612899D01*
X-3670299Y-2317692D01*
X-3397662Y-2590329D01*
X-3397662Y-3484546D01*
X-3603642Y-3690526D01*
X-3621603Y-3690526D01*
X-3681118Y-3750041D01*
X-3681118Y-3834209D01*
X-3621603Y-3893724D01*
X-3537435Y-3893724D01*
X-3477920Y-3834209D01*
X-3477920Y-3816248D01*
X-3248734Y-3587062D01*
X-3248734Y-3803551D01*
X-3276599Y-3831416D01*
X-3276599Y-3915584D01*
X-3217084Y-3975099D01*
X-3132916Y-3975099D01*
X-3073401Y-3915584D01*
X-3073401Y-3831416D01*
X-3096336Y-3808481D01*
X-3096336Y-2573408D01*
X-3094358Y-2571430D01*
X-3094358Y-2279649D01*
X-2942151Y-2279649D01*
X-2942151Y-2214879D01*
X-2787649Y-2214879D01*
X-2787649Y-2279649D01*
X-2597151Y-2279649D01*
X-2597151Y-1748206D01*
X-2589207Y-1756150D01*
X-2589207Y-2090373D01*
X-2528200Y-2151380D01*
X-2531462Y-2154642D01*
X-2531462Y-2284731D01*
X-2671249Y-2284731D01*
X-2671249Y-2541269D01*
X-2531462Y-2541269D01*
X-2531462Y-3392180D01*
X-2305537Y-3618105D01*
X-1930399Y-3618105D01*
X-1930399Y-3708399D01*
X-1625601Y-3708399D01*
X-1625601Y-3023501D01*
X-1485901Y-2883802D01*
X-1485901Y-2663629D01*
X-1421131Y-2663629D01*
X-1421131Y-2473131D01*
X-1677669Y-2473131D01*
X-1677669Y-2663629D01*
X-1612899Y-2663629D01*
X-1612899Y-2831199D01*
X-1677301Y-2895601D01*
X-1930399Y-2895601D01*
X-1930399Y-3238501D01*
X-1940099Y-3238501D01*
X-2029901Y-3148699D01*
X-2029901Y-2787649D01*
X-1998151Y-2787649D01*
X-1998151Y-2531111D01*
X-2008151Y-2531111D01*
X-2008151Y-2277111D01*
X-2198649Y-2277111D01*
X-2198649Y-2284731D01*
X-2381249Y-2284731D01*
X-2381249Y-2541269D01*
X-2190751Y-2541269D01*
X-2190751Y-2533649D01*
X-2188649Y-2533649D01*
X-2188649Y-2787649D01*
X-2156899Y-2787649D01*
X-2156899Y-3201302D01*
X-2119701Y-3238499D01*
X-1992701Y-3365499D01*
X-1930399Y-3365499D01*
X-1930399Y-3491107D01*
X-2252935Y-3491107D01*
X-2404464Y-3339578D01*
X-2404464Y-2279649D01*
X-2307151Y-2279649D01*
X-2307151Y-2025649D01*
X-2297151Y-2025649D01*
X-2297151Y-1515111D01*
X-2487649Y-1515111D01*
X-2487649Y-1678108D01*
X-2585876Y-1579881D01*
X-2590834Y-1579881D01*
X-2590834Y-1579010D01*
X-2597151Y-1572693D01*
X-2597151Y-1515111D01*
X-2762251Y-1515111D01*
X-2762251Y-1273811D01*
X-2952749Y-1273811D01*
X-2952749Y-1515111D01*
X-3062251Y-1515111D01*
X-3062251Y-1380967D01*
X-3058373Y-1376375D01*
X-3003551Y-1321553D01*
X-3003551Y-1043129D01*
X-3062429Y-984251D01*
X-3122401Y-984251D01*
X-3122401Y-968549D01*
X-3034029Y-968549D01*
X-2965451Y-899971D01*
X-2965451Y-659129D01*
X-2881631Y-659129D01*
X-2881631Y-468631D01*
X-3389631Y-468631D01*
X-3389631Y-466252D01*
X-2834533Y-466252D01*
X-2660611Y-640174D01*
X-2660611Y-854251D01*
X-2946399Y-854251D01*
X-2946399Y-1163549D01*
X-2692401Y-1163549D01*
X-2692401Y-968549D01*
X-2592749Y-968549D01*
X-2546313Y-922113D01*
X-2546313Y-592832D01*
X-2731476Y-407669D01*
X-2635251Y-407669D01*
X-2635251Y-151131D01*
X-2825749Y-151131D01*
X-2825749Y-216731D01*
X-2881631Y-216731D01*
X-2881631Y-178631D01*
X-2894598Y-178631D01*
X-2894598Y-66533D01*
X-2894620Y-65728D01*
X-2902615Y+222901D01*
X-2912111Y+232138D01*
X-2912111Y+501649D01*
X-2921001Y+501649D01*
X-2921001Y+615943D01*
X-3036577Y+731519D01*
X-3119121Y+731519D01*
X-3119121Y+742949D01*
X-3206751Y+742949D01*
X-3206751Y+1105119D01*
X-3448049Y+1105119D01*
X-3448049Y+742949D01*
X-3535679Y+742949D01*
X-3535679Y+542291D01*
X-3119121Y+542291D01*
X-3119121Y+553721D01*
X-3110223Y+553721D01*
X-3098799Y+542297D01*
X-3098799Y+501649D01*
X-3107689Y+501649D01*
X-3107689Y-105409D01*
X-3008896Y-105409D01*
X-3008896Y-178631D01*
X-3135631Y-178631D01*
X-3135631Y-168631D01*
X-3392169Y-168631D01*
X-3392169Y-173551D01*
X-3460751Y-173551D01*
X-3460751Y-129107D01*
X-3399353Y-67709D01*
X-3119121Y-67709D01*
X-3119121Y+132949D01*
X-3302007Y+132949D01*
X-3559130Y+390072D01*
X-3559130Y+1934846D01*
X-3439418Y+2054558D01*
X-2454915Y+2054558D01*
X-2374321Y+1973964D01*
X-2438399Y+1909886D01*
X-2438399Y+1773114D01*
X-2341686Y+1676401D01*
X-2204914Y+1676401D01*
X-2108201Y+1773114D01*
X-2108201Y+1909886D01*
X-2184401Y+1986086D01*
X-2184401Y+2035488D01*
X-2381269Y+2232356D01*
X-3513064Y+2232356D01*
X-3736928Y+2008492D01*
X-3736928Y+352188D01*
X-3867151Y+482411D01*
X-3867151Y+1205229D01*
X-4165601Y+1205229D01*
X-4165601Y+1819959D01*
X-4089402Y+1896158D01*
X-4089402Y+2032930D01*
X-4114801Y+2058329D01*
X-4114801Y+2487495D01*
X-1511299Y+2487495D01*
X-1511299Y+2048156D01*
X-1485899Y+2022756D01*
X-1485899Y+1687823D01*
X-1866899Y+1306823D01*
X-1866899Y+1212849D01*
X-2165349Y+1212849D01*
X-2165349Y+438151D01*
X-1390651Y+438151D01*
X-1390651Y+1212849D01*
X-1689101Y+1212849D01*
X-1689101Y+1233177D01*
X-1308101Y+1614177D01*
X-1308101Y+1955801D01*
X-1275635Y+1955801D01*
X-1193801Y+2037635D01*
X-1193801Y+2153365D01*
X-1275635Y+2235199D01*
X-1282701Y+2235199D01*
X-1282701Y+2487495D01*
X+755213Y+2487495D01*
X+755213Y+2048156D01*
X+780613Y+2022756D01*
X+780613Y+1647282D01*
X+546101Y+1412770D01*
X+546101Y+1212849D01*
X+247651Y+1212849D01*
X+247651Y+438151D01*
X+1022349Y+438151D01*
X+1022349Y+1212849D01*
X+723899Y+1212849D01*
X+723899Y+1339124D01*
X+958411Y+1573636D01*
X+958411Y+1955801D01*
X+1010365Y+1955801D01*
X+1092199Y+2037635D01*
X+1092199Y+2153365D01*
X+1010365Y+2235199D01*
X+983811Y+2235199D01*
X+983811Y+2487495D01*
X+3124201Y+2487495D01*
X+3124201Y+2095500D01*
G37*
%LPC*%
G36*
X-1993899Y+1773114D02*
X-1993899Y+1909886D01*
X-1897186Y+2006599D01*
X-1760414Y+2006599D01*
X-1663701Y+1909886D01*
X-1663701Y+1773114D01*
X-1760414Y+1676401D01*
X-1897186Y+1676401D01*
X-1993899Y+1773114D01*
G37*
G36*
X-2768601Y-3200399D02*
X-2768601Y-3708399D01*
X-3073399Y-3708399D01*
X-3073399Y-2895601D01*
X-2768601Y-2895601D01*
X-2768601Y-3200399D01*
G37*
G36*
X+266701Y+1773114D02*
X+266701Y+1909886D01*
X+363414Y+2006599D01*
X+500186Y+2006599D01*
X+596899Y+1909886D01*
X+596899Y+1773114D01*
X+500186Y+1676401D01*
X+363414Y+1676401D01*
X+266701Y+1773114D01*
G37*
G36*
X-609601Y-3200399D02*
X-609601Y-3708399D01*
X-914399Y-3708399D01*
X-914399Y-2895601D01*
X-609601Y-2895601D01*
X-609601Y-3200399D01*
G37*
G36*
X+1739899Y-3200399D02*
X+1739899Y-3708399D01*
X+1435101Y-3708399D01*
X+1435101Y-2895601D01*
X+1739899Y-2895601D01*
X+1739899Y-3200399D01*
G37*
G36*
X+2514601Y+1773114D02*
X+2514601Y+1909886D01*
X+2611314Y+2006599D01*
X+2748086Y+2006599D01*
X+2844799Y+1909886D01*
X+2844799Y+1773114D01*
X+2748086Y+1676401D01*
X+2611314Y+1676401D01*
X+2514601Y+1773114D01*
G37*
G36*
X+4089399Y-3200399D02*
X+4089399Y-3708399D01*
X+3784601Y-3708399D01*
X+3784601Y-2895601D01*
X+4089399Y-2895601D01*
X+4089399Y-3200399D01*
G37*
G36*
X+2404109Y+936833D02*
X+2504999Y+835943D01*
X+2504999Y+501649D01*
X+2513889Y+501649D01*
X+2513889Y+226053D01*
X+2516423Y+223519D01*
X+2705101Y+223519D01*
X+2705101Y+299719D01*
X+2933699Y+299719D01*
X+2933699Y-30479D01*
X+2832099Y-30479D01*
X+2832099Y-54611D01*
X+2863849Y-54611D01*
X+2863849Y-311149D01*
X+2832099Y-311149D01*
X+2832099Y-1028701D01*
X+2867767Y-1028701D01*
X+2867767Y-980529D01*
X+2835062Y-947824D01*
X+2835062Y-539113D01*
X+2964793Y-409382D01*
X+2991095Y-409382D01*
X+3148331Y-409381D01*
X+3148331Y-377631D01*
X+3404869Y-377631D01*
X+3404869Y-511349D01*
X+3434079Y-540559D01*
X+3434079Y-1300481D01*
X+3453129Y-1300481D01*
X+3453129Y-1478279D01*
X+3288031Y-1478279D01*
X+3288031Y-1300481D01*
X+3307081Y-1300481D01*
X+3307081Y-593161D01*
X+3282049Y-568129D01*
X+3148331Y-568129D01*
X+3148331Y-536379D01*
X+3017397Y-536378D01*
X+2962060Y-591715D01*
X+2962060Y-626111D01*
X+3117849Y-626111D01*
X+3117849Y-759829D01*
X+3174998Y-816978D01*
X+3174998Y-843280D01*
X+3174999Y-1028701D01*
X+3276599Y-1028701D01*
X+3276599Y-1257299D01*
X+3087001Y-1257299D01*
X+3086099Y-1258201D01*
X+3086099Y-1440181D01*
X+3092449Y-1440181D01*
X+3092449Y-1662431D01*
X+3130551Y-1662431D01*
X+3130551Y-1656081D01*
X+3194051Y-1656081D01*
X+3194051Y-1490981D01*
X+3359149Y-1490981D01*
X+3359149Y-1668779D01*
X+3295649Y-1668779D01*
X+3295649Y-1795779D01*
X+3130551Y-1795779D01*
X+3130551Y-1789429D01*
X+3015349Y-1789429D01*
X+2959101Y-1733181D01*
X+2959101Y-1719579D01*
X+2571751Y-1719579D01*
X+2571751Y-1440181D01*
X+2705101Y-1440181D01*
X+2705101Y-1257299D01*
X+2565401Y-1257299D01*
X+2565401Y-1028701D01*
X+2705101Y-1028701D01*
X+2705101Y-882649D01*
X+2627351Y-882649D01*
X+2627351Y-626111D01*
X+2705101Y-626111D01*
X+2705101Y-311149D01*
X+2673351Y-311149D01*
X+2673351Y-54611D01*
X+2705101Y-54611D01*
X+2705101Y+45721D01*
X+2513889Y+45721D01*
X+2513889Y-105409D01*
X+2318311Y-105409D01*
X+2318311Y+501649D01*
X+2327201Y+501649D01*
X+2327201Y+762297D01*
X+2278387Y+811111D01*
X+2117091Y+811111D01*
X+2117091Y+1098129D01*
X+2404109Y+1098129D01*
X+2404109Y+936833D01*
G37*
G36*
X+3390899Y-30479D02*
X+3340098Y-30479D01*
X+3340099Y-87631D01*
X+3404869Y-87631D01*
X+3404869Y-278129D01*
X+3153849Y-278129D01*
X+3153849Y-311149D01*
X+2963351Y-311149D01*
X+2963351Y-54611D01*
X+3153849Y-54611D01*
X+3153849Y-87631D01*
X+3213101Y-87631D01*
X+3213102Y-30479D01*
X+3162301Y-30479D01*
X+3162301Y+299719D01*
X+3390899Y+299719D01*
X+3390899Y-30479D01*
G37*
G36*
X-8891Y+936833D02*
X+91999Y+835943D01*
X+91999Y+501649D01*
X+100889Y+501649D01*
X+100889Y+226053D01*
X+103423Y+223519D01*
X+292101Y+223519D01*
X+292101Y+299719D01*
X+520699Y+299719D01*
X+520699Y-30479D01*
X+419099Y-30479D01*
X+419099Y-54611D01*
X+450849Y-54611D01*
X+450849Y-311149D01*
X+419099Y-311149D01*
X+419099Y-493871D01*
X+528952Y-384018D01*
X+735331Y-384018D01*
X+735331Y-377631D01*
X+991869Y-377631D01*
X+991869Y-568129D01*
X+927099Y-568129D01*
X+927099Y-1269099D01*
X+958481Y-1300481D01*
X+1040129Y-1300481D01*
X+1040129Y-1478279D01*
X+875031Y-1478279D01*
X+875031Y-1396631D01*
X+800101Y-1321701D01*
X+800101Y-568129D01*
X+735331Y-568129D01*
X+735331Y-511016D01*
X+581554Y-511016D01*
X+510771Y-581799D01*
X+510771Y-1028701D01*
X+546101Y-1028701D01*
X+546101Y-882649D01*
X+514351Y-882649D01*
X+514351Y-626111D01*
X+704849Y-626111D01*
X+704849Y-882649D01*
X+673099Y-882649D01*
X+673099Y-1028701D01*
X+800099Y-1028701D01*
X+800099Y-1257299D01*
X+673099Y-1257299D01*
X+673099Y-1440181D01*
X+679449Y-1440181D01*
X+679449Y-1662431D01*
X+717551Y-1662431D01*
X+717551Y-1656081D01*
X+781051Y-1656081D01*
X+781051Y-1490981D01*
X+946149Y-1490981D01*
X+946149Y-1668779D01*
X+882649Y-1668779D01*
X+882649Y-1795779D01*
X+717551Y-1795779D01*
X+717551Y-1789429D01*
X+602349Y-1789429D01*
X+546101Y-1733181D01*
X+546101Y-1719579D01*
X+158751Y-1719579D01*
X+158751Y-1440181D01*
X+282641Y-1440181D01*
X+238443Y-1395983D01*
X+238443Y-1257299D01*
X+88901Y-1257299D01*
X+88901Y-1028701D01*
X+246101Y-1028701D01*
X+246101Y-882649D01*
X+214351Y-882649D01*
X+214351Y-626111D01*
X+292101Y-626111D01*
X+292101Y-311149D01*
X+260351Y-311149D01*
X+260351Y-54611D01*
X+292101Y-54611D01*
X+292101Y+45721D01*
X+100889Y+45721D01*
X+100889Y-105409D01*
X-94689Y-105409D01*
X-94689Y+501649D01*
X-85799Y+501649D01*
X-85799Y+762297D01*
X-134613Y+811111D01*
X-295909Y+811111D01*
X-295909Y+1098129D01*
X-8891Y+1098129D01*
X-8891Y+936833D01*
G37*
G36*
X+1134109Y-1668779D02*
X+1115059Y-1668779D01*
X+1115059Y-2080721D01*
X+991869Y-2203911D01*
X+991869Y-2337629D01*
X+735331Y-2337629D01*
X+735331Y-2147131D01*
X+869049Y-2147131D01*
X+988061Y-2028119D01*
X+988061Y-1668779D01*
X+969011Y-1668779D01*
X+969011Y-1490981D01*
X+1134109Y-1490981D01*
X+1134109Y-1668779D01*
G37*
G36*
X+977899Y-30479D02*
X+927098Y-30479D01*
X+927099Y-87631D01*
X+991869Y-87631D01*
X+991869Y-278129D01*
X+740849Y-278129D01*
X+740849Y-311149D01*
X+550351Y-311149D01*
X+550351Y-54611D01*
X+740849Y-54611D01*
X+740849Y-87631D01*
X+800101Y-87631D01*
X+800102Y-30479D01*
X+749301Y-30479D01*
X+749301Y+299719D01*
X+977899Y+299719D01*
X+977899Y-30479D01*
G37*
G36*
X-2421891Y+937137D02*
X-2397129Y+912446D01*
X-2321001Y+836318D01*
X-2321001Y+501649D01*
X-2312111Y+501649D01*
X-2312111Y+223519D01*
X-2120899Y+223519D01*
X-2120899Y+299719D01*
X-1892301Y+299719D01*
X-1892301Y-30479D01*
X-1993901Y-30479D01*
X-1993901Y-54611D01*
X-1962151Y-54611D01*
X-1962151Y-311149D01*
X-2039901Y-311149D01*
X-2039901Y-626111D01*
X-2031999Y-626111D01*
X-2031999Y-535476D01*
X-1884367Y-387844D01*
X-1677669Y-387844D01*
X-1677669Y-341631D01*
X-1421131Y-341631D01*
X-1421131Y-532129D01*
X-1485901Y-532129D01*
X-1485901Y-1269099D01*
X-1454519Y-1300481D01*
X-1372871Y-1300481D01*
X-1372871Y-1478279D01*
X-1537969Y-1478279D01*
X-1537969Y-1396631D01*
X-1612899Y-1321701D01*
X-1612899Y-532129D01*
X-1677669Y-532129D01*
X-1677669Y-514842D01*
X-1831765Y-514842D01*
X-1905001Y-588078D01*
X-1905001Y-1028701D01*
X-1866899Y-1028701D01*
X-1866899Y-882649D01*
X-1898649Y-882649D01*
X-1898649Y-626111D01*
X-1708151Y-626111D01*
X-1708151Y-882649D01*
X-1739901Y-882649D01*
X-1739901Y-1028701D01*
X-1612901Y-1028701D01*
X-1612901Y-1257299D01*
X-1739901Y-1257299D01*
X-1739901Y-1440181D01*
X-1733551Y-1440181D01*
X-1733551Y-1662431D01*
X-1695449Y-1662431D01*
X-1695449Y-1656081D01*
X-1631949Y-1656081D01*
X-1631949Y-1490981D01*
X-1466851Y-1490981D01*
X-1466851Y-1668779D01*
X-1530351Y-1668779D01*
X-1530351Y-1795779D01*
X-1695449Y-1795779D01*
X-1695449Y-1789429D01*
X-1810651Y-1789429D01*
X-1866899Y-1733181D01*
X-1866899Y-1719579D01*
X-2254249Y-1719579D01*
X-2254249Y-1440181D01*
X-2125155Y-1440181D01*
X-2222498Y-1342838D01*
X-2222498Y-1257299D01*
X-2324099Y-1257299D01*
X-2324099Y-1028701D01*
X-2166899Y-1028701D01*
X-2166899Y-882649D01*
X-2198649Y-882649D01*
X-2198649Y-626111D01*
X-2166899Y-626111D01*
X-2166899Y-202579D01*
X-2152649Y-188329D01*
X-2152649Y-54611D01*
X-2120899Y-54611D01*
X-2120899Y+45721D01*
X-2312111Y+45721D01*
X-2312111Y-105409D01*
X-2507689Y-105409D01*
X-2507689Y+501649D01*
X-2498799Y+501649D01*
X-2498799Y+762672D01*
X-2522851Y+786724D01*
X-2547353Y+811111D01*
X-2708909Y+811111D01*
X-2708909Y+1098129D01*
X-2421891Y+1098129D01*
X-2421891Y+937137D01*
G37*
G36*
X-1435101Y-30479D02*
X-1485901Y-30479D01*
X-1485901Y-51631D01*
X-1421131Y-51631D01*
X-1421131Y-242129D01*
X-1554849Y-242129D01*
X-1559099Y-246379D01*
X-1672151Y-246379D01*
X-1672151Y-311149D01*
X-1862649Y-311149D01*
X-1862649Y-54611D01*
X-1677669Y-54611D01*
X-1677669Y-51631D01*
X-1612899Y-51631D01*
X-1612899Y-30479D01*
X-1663699Y-30479D01*
X-1663699Y+299719D01*
X-1435101Y+299719D01*
X-1435101Y-30479D01*
G37*
G36*
X+2404109Y+1261111D02*
X+2117091Y+1261111D01*
X+2117091Y+1548129D01*
X+2404109Y+1548129D01*
X+2404109Y+1261111D01*
G37*
G36*
X-8891Y+1261111D02*
X-295909Y+1261111D01*
X-295909Y+1548129D01*
X-8891Y+1548129D01*
X-8891Y+1261111D01*
G37*
G36*
X-2421891Y+1261111D02*
X-2708909Y+1261111D01*
X-2708909Y+1548129D01*
X-2421891Y+1548129D01*
X-2421891Y+1261111D01*
G37*
G36*
X+1619249Y+1168621D02*
X+1377951Y+1168621D01*
X+1377951Y+1549619D01*
X+1619249Y+1549619D01*
X+1619249Y+1168621D01*
G37*
G36*
X-793751Y+1168621D02*
X-1035049Y+1168621D01*
X-1035049Y+1549619D01*
X-793751Y+1549619D01*
X-793751Y+1168621D01*
G37*
G36*
X-3206751Y+1168621D02*
X-3448049Y+1168621D01*
X-3448049Y+1549619D01*
X-3206751Y+1549619D01*
X-3206751Y+1168621D01*
G37*
G36*
X+2231671Y-113031D02*
X+2422169Y-113031D01*
X+2422169Y-369569D01*
X+2231671Y-369569D01*
X+2231671Y-113031D01*
G37*
G36*
X-176529Y-163831D02*
X+13969Y-163831D01*
X+13969Y-420369D01*
X-176529Y-420369D01*
X-176529Y-163831D01*
G37*
G36*
X-2525749Y-151131D02*
X-2335251Y-151131D01*
X-2335251Y-407669D01*
X-2525749Y-407669D01*
X-2525749Y-151131D01*
G37*
G36*
X-3022600Y+1571718D02*
X-3022600Y+1603282D01*
X-3000282Y+1625600D01*
X-2968718Y+1625600D01*
X-2946400Y+1603282D01*
X-2946400Y+1571718D01*
X-2968718Y+1549400D01*
X-3000282Y+1549400D01*
X-3022600Y+1571718D01*
G37*
G36*
X-609600Y+1635218D02*
X-609600Y+1666782D01*
X-587282Y+1689100D01*
X-555718Y+1689100D01*
X-533400Y+1666782D01*
X-533400Y+1635218D01*
X-555718Y+1612900D01*
X-587282Y+1612900D01*
X-609600Y+1635218D01*
G37*
G36*
X+1676400Y+1635218D02*
X+1676400Y+1666782D01*
X+1698718Y+1689100D01*
X+1730282Y+1689100D01*
X+1752600Y+1666782D01*
X+1752600Y+1635218D01*
X+1730282Y+1612900D01*
X+1698718Y+1612900D01*
X+1676400Y+1635218D01*
G37*
%LPD*%
G36*
X+1703351Y-2023111D02*
X+1695449Y-2023111D01*
X+1695449Y-1771649D01*
X+1703351Y-1771649D01*
X+1703351Y-2023111D01*
G37*
G36*
X+6864351Y-1771649D02*
X+6864351Y-2087881D01*
X+6800849Y-2087881D01*
X+6800849Y-1769111D01*
X+6773349Y-1769111D01*
X+6773349Y-1537969D01*
X+6864351Y-1537969D01*
X+6864351Y-1771649D01*
G37*
G36*
X+1974851Y-1771649D02*
X+1974851Y-2087881D01*
X+1883849Y-2087881D01*
X+1883849Y-2025649D01*
X+1893849Y-2025649D01*
X+1893849Y-1769111D01*
X+1883849Y-1769111D01*
X+1883849Y-1543049D01*
X+1974851Y-1543049D01*
X+1974851Y-1771649D01*
G37*
G36*
X-374649Y-1771649D02*
X-374649Y-2087881D01*
X-529151Y-2087881D01*
X-529151Y-2025649D01*
X-519151Y-2025649D01*
X-519151Y-1769111D01*
X-529151Y-1769111D01*
X-529151Y-1530349D01*
X-374649Y-1530349D01*
X-374649Y-1771649D01*
G37*
G36*
X-2787649Y-1771649D02*
X-2787649Y-2087881D01*
X-2942151Y-2087881D01*
X-2942151Y-1771649D01*
X-2932151Y-1771649D01*
X-2932151Y-1530349D01*
X-2787649Y-1530349D01*
X-2787649Y-1771649D01*
G37*
G36*
X-5175249Y-1779269D02*
X-5175249Y-2095501D01*
X-5266251Y-2095501D01*
X-5266251Y-1779269D01*
X-5256251Y-1779269D01*
X-5256251Y-1537969D01*
X-5175249Y-1537969D01*
X-5175249Y-1779269D01*
G37*
G36*
X+6610351Y-2025649D02*
X+6610351Y-2279649D01*
X+6800849Y-2279649D01*
X+6800849Y-2214879D01*
X+6864351Y-2214879D01*
X+6864351Y-2279649D01*
X+7054849Y-2279649D01*
X+7054849Y-2158759D01*
X+7110970Y-2214879D01*
X+7154351Y-2214879D01*
X+7154351Y-2279649D01*
X+7183507Y-2279649D01*
X+7183507Y-2349501D01*
X+7171249Y-2349501D01*
X+7171249Y-2284731D01*
X+6980751Y-2284731D01*
X+6980751Y-2541269D01*
X+7152635Y-2541269D01*
X+6829798Y-2864106D01*
X+6792701Y-2827010D01*
X+6720908Y-2827010D01*
X+6599734Y-2705836D01*
X+6599734Y-1771649D01*
X+6610351Y-1771649D01*
X+6610351Y-2025649D01*
G37*
G36*
X+7463351Y-2787649D02*
X+7495101Y-2787649D01*
X+7495101Y-2956099D01*
X+7264399Y-3186801D01*
X+7264399Y-2895601D01*
X+6977903Y-2895601D01*
X+7310505Y-2562999D01*
X+7310505Y-2541269D01*
X+7461249Y-2541269D01*
X+7461249Y-2533649D01*
X+7463351Y-2533649D01*
X+7463351Y-2787649D01*
G37*
G36*
X+5050351Y-2787649D02*
X+5082101Y-2787649D01*
X+5082101Y-3137802D01*
X+5119299Y-3174999D01*
X+5308601Y-3364301D01*
X+5308601Y-3492501D01*
X+4979301Y-3492501D01*
X+4889499Y-3402699D01*
X+4889499Y-2541269D01*
X+5048249Y-2541269D01*
X+5048249Y-2533649D01*
X+5050351Y-2533649D01*
X+5050351Y-2787649D01*
G37*
D11*
X-2409900Y+198120D02*
X-2409900Y+799495D01*
X-2459990Y+849585D01*
X-2565400Y+954620D01*
X-2006600Y+134620D02*
X-2370717Y+134620D01*
X-2401897Y+165800D01*
X-2409900Y+198120D01*
X-3009900Y+198120D02*
X-3009900Y+579120D01*
X-3073400Y+642620D01*
X-3327400Y+642620D01*
X-3327400Y+914620D01*
X+3100Y+198120D02*
X+3100Y+799120D01*
X-152400Y+954620D01*
X-914400Y+642620D02*
X-914400Y+914620D01*
X-596900Y+198120D02*
X-596900Y+579120D01*
X-660400Y+642620D01*
X-872385Y+642620D01*
X-876606Y+638399D01*
X-914400Y+642620D01*
X+2819400Y+134620D02*
X+2479600Y+134620D01*
X+2416100Y+198120D01*
X+2416100Y+799120D01*
X+2260600Y+954620D01*
X+1816100Y+198120D02*
X+1816100Y+579120D01*
X+1752600Y+642620D01*
X+1538849Y+642620D01*
X+1533895Y+637666D01*
X+1498600Y+642620D01*
X+1498600Y+914620D02*
X+1498600Y+642620D01*
X+7305600Y+198120D02*
X+7305600Y+735620D01*
X+7086600Y+954620D01*
X+7645400Y+134620D02*
X+7369100Y+134620D01*
X+7305600Y+198120D01*
X+6324600Y+642620D02*
X+6324600Y+914620D01*
X+6705600Y+198120D02*
X+6705600Y+515620D01*
X+6578600Y+642620D01*
X+6324600Y+642620D01*
X+5232400Y+134620D02*
X+4892600Y+134620D01*
X+4829100Y+198120D01*
X+4829100Y+799120D01*
X+4673600Y+954620D01*
X+3911600Y+914620D02*
X+3911600Y+642620D01*
X+4229100Y+198120D02*
X+4229100Y+579120D01*
X+4165600Y+642620D01*
X+3911600Y+642620D01*
D10*
X-3327400Y-1643380D02*
X-3327400Y-1897380D01*
X-3327400Y-2151380D01*
X-3037400Y-1897380D02*
X-3037400Y-1653380D01*
X-3027400Y-1643380D01*
X-2692400Y-2151380D02*
X-2692400Y-1897380D01*
X-3037400Y-2151380D02*
X-2692400Y-2151380D01*
X-2184400Y-2100580D02*
X-2184400Y-2405380D01*
X-2103400Y-2405380D01*
X-1930400Y-2100580D02*
X-1930400Y-2627244D01*
X-1898592Y-2659052D01*
X-1803728Y-2659052D01*
X-1803400Y-2659380D01*
X-1803400Y-2405380D02*
X-1803400Y-2100580D01*
X-1803400Y-2024380D01*
X-1739900Y-1960880D01*
X-1612900Y-1960880D01*
X-1361440Y-1579880D02*
X-1361440Y-2090420D01*
X-1549400Y-2278380D01*
X-2392400Y-1833880D02*
X-2392400Y-1897380D01*
X-2392400Y-1833880D02*
X-2392400Y-1643380D01*
X-2184400Y-2100580D02*
X-2184400Y-1833431D01*
X-1549400Y-1579880D02*
X-1485900Y-1643380D01*
X-1485900Y-1706880D01*
X-1485900Y-1812443D01*
X-1506888Y-1833431D01*
X-2184400Y-1833431D01*
X-2391951Y-1833431D01*
X-2392400Y-1833880D01*
X-2057400Y-182880D02*
X-2057400Y-144753D01*
X-2057400Y+83820D01*
X-2006600Y+134620D01*
X-1803400Y-1643380D02*
X-1803400Y-1579880D01*
X-1612900Y-1725930D02*
X-1784350Y-1725930D01*
X-1803400Y-1706880D01*
X-1803400Y-1643380D01*
X-1767400Y-182880D02*
X-1585400Y-182880D01*
X-1549400Y-146880D01*
X-1549400Y+134620D01*
X-1549400Y-436880D02*
X-1549400Y-1295400D01*
X-1455420Y-1389380D01*
X-914400Y-2151380D02*
X-914400Y-1897380D01*
D11*
X-498191Y+1404620D02*
X-152400Y+1404620D01*
D10*
X+20600Y-1897380D02*
X+20600Y-1643380D01*
X+228600Y-2100580D02*
X+228600Y-1833880D01*
X+863600Y-1579880D02*
X+927100Y-1643380D01*
X+927100Y-1833880D01*
X+228600Y-1833880D01*
X+77750Y-1833880D01*
X+20600Y-1897380D01*
X+1051560Y-1579880D02*
X+1051560Y-2054420D01*
X+863600Y-2242380D01*
X+800100Y-1725930D02*
X+628650Y-1725930D01*
X+609600Y-1706880D01*
X+609600Y-1579880D01*
X+355600Y-182880D02*
X+355600Y+116926D01*
X+373294Y+134620D01*
X+406400Y+134620D01*
D11*
X+373294Y+134620D02*
X+66600Y+134620D01*
X+3100Y+198120D01*
D10*
X+645600Y-182880D02*
X+863600Y-182880D01*
X+863600Y+134620D01*
X+863600Y-472880D02*
X+863600Y-1295400D01*
X+957580Y-1389380D01*
X+309600Y-754380D02*
X+355600Y-754380D01*
X+355600Y-182880D01*
X+482600Y-2100580D02*
X+482600Y-2634450D01*
X+506118Y-2657968D01*
X+608188Y-2657968D01*
X+609600Y-2659380D01*
X+609600Y-2405380D02*
X+609600Y-2142112D01*
X+609600Y-2100580D01*
X+800100Y-1960880D02*
X+626553Y-1960880D01*
X+609880Y-1977553D01*
X+609880Y-2141832D01*
X+609600Y-2142112D01*
X+608476Y-2143236D01*
X+609600Y-2100580D01*
X+228600Y-2100580D02*
X+228600Y-2405380D01*
X+309600Y-2405380D01*
X-624400Y-2151380D02*
X-279400Y-2151380D01*
X-279400Y-1897380D01*
X+3022600Y-2405380D02*
X+3022600Y-2100580D01*
X+2895600Y-2100580D02*
X+2895600Y-2629553D01*
X+2925427Y-2659380D01*
X+3022600Y-2659380D01*
X+1788600Y-2151380D02*
X+2070100Y-2151380D01*
X+2070100Y-1897380D01*
X+1498600Y-2151380D02*
X+1498600Y-1897380D01*
X+1498600Y-1643380D01*
X+1788600Y-1643380D02*
X+1788600Y-1887380D01*
X+1798600Y-1897380D01*
X+2370100Y-1643380D02*
X+2370100Y-1897380D01*
X+2070100Y-1643380D02*
X+2159858Y-1643380D01*
X+2214411Y-1697933D01*
X+2214411Y-2089694D01*
X+2271812Y-2147095D01*
X+2355815Y-2147095D01*
X+2360100Y-2151380D01*
X+3058600Y-182880D02*
X+3276600Y-182880D01*
X+3276600Y+134620D01*
X+2768600Y-182880D02*
X+2768600Y+83820D01*
X+2819400Y+134620D01*
X+2722600Y-754380D02*
X+2754277Y-754380D01*
X+2768600Y-768703D01*
X+3370580Y-1389380D02*
X+3370580Y-566860D01*
X+3276600Y-472880D01*
X+3213100Y-1725930D02*
X+3041650Y-1725930D01*
X+3022600Y-1706880D01*
X+3022600Y-1579880D01*
X+3213100Y-1960880D02*
X+3060749Y-1960880D01*
X+3022649Y-1998980D01*
X+3022600Y-2100580D01*
X+3464560Y-1579880D02*
X+3464560Y-2090420D01*
X+3276600Y-2278380D01*
X+2641600Y-2100580D02*
X+2641600Y-1833880D01*
X+3276600Y-1579880D02*
X+3340100Y-1643380D01*
X+3340100Y-1833880D01*
X+2641600Y-1833880D01*
X+2427250Y-1833880D01*
X+2370100Y-1897380D01*
X+2641600Y-2100580D02*
X+2641600Y-2391269D01*
X+2655711Y-2405380D01*
X+2722600Y-2405380D02*
X+2655711Y-2405380D01*
X+3911600Y-2151380D02*
X+3911600Y-1897380D01*
X+3911600Y-1643380D01*
X+4864100Y-1897380D02*
X+4864100Y-1643380D01*
X+4574100Y-2151380D02*
X+4574100Y-1907380D01*
X+4564100Y-1897380D01*
X+4201600Y-2151380D02*
X+4574100Y-2151380D01*
X+5054600Y-2100580D02*
X+5054600Y-2405380D01*
X+5135600Y-2405380D01*
X+5626100Y-1960880D02*
X+5468933Y-1960880D01*
X+5431156Y-1998657D01*
X+5431156Y-2096136D01*
X+5435600Y-2100580D01*
X+5626100Y-1725930D02*
X+5473982Y-1725930D01*
X+5442266Y-1694214D01*
X+5442266Y-1586546D01*
X+5435600Y-1579880D01*
X+5145600Y-119380D02*
X+5168231Y-119380D01*
X+5181600Y-132749D01*
X+5181600Y+52180D01*
X+5219478Y+90058D01*
X+5232400Y+134620D01*
X+5135600Y-754380D02*
X+5181600Y-754380D01*
X+5181600Y-132749D01*
X+5054600Y-2100580D02*
X+5054600Y-1842839D01*
X+5045641Y-1833880D01*
X+5689600Y-1579880D02*
X+5753100Y-1643380D01*
X+5753100Y-1833880D01*
X+5045641Y-1833880D01*
X+4921250Y-1833880D01*
X+4864100Y-1897380D01*
X+5435600Y-2100580D02*
X+5435600Y-2405380D01*
X+5877560Y-1579880D02*
X+5877560Y-2054420D01*
X+5689600Y-2242380D01*
X+5783580Y-1389380D02*
X+5783580Y-503360D01*
X+5689600Y-409380D01*
X+5689600Y-119380D02*
X+5435600Y-119380D01*
X+5689600Y+134620D02*
X+5689600Y-119380D01*
X+7884600Y-119380D02*
X+8102600Y-119380D01*
X+8102600Y+134620D01*
X+8196580Y-1389380D02*
X+8196580Y-503360D01*
X+8159750Y-466530D01*
X+8102600Y-409380D01*
X+8039100Y-1725930D02*
X+7874407Y-1725930D01*
X+7847891Y-1699414D01*
X+7847891Y-1580589D01*
X+7848600Y-1579880D01*
X+7259600Y-1643380D02*
X+7259600Y-1897380D01*
X+7467600Y-2100580D02*
X+7467600Y-1833880D01*
X+8102600Y-1579880D02*
X+8166100Y-1643380D01*
X+8166100Y-1833880D01*
X+7467600Y-1833880D01*
X+7278892Y-1833880D01*
X+7265528Y-1847244D01*
X+7259600Y-1897380D01*
X+6959600Y-1897380D02*
X+6959600Y-2151380D01*
X+6705600Y-2151380D01*
X+6388100Y-1643380D02*
X+6415600Y-1643380D01*
X+6415600Y-2151380D02*
X+6415600Y-1987550D01*
X+6405600Y-1897380D01*
X+6415600Y-1987550D02*
X+6415600Y-1643380D01*
X+7467600Y-2100580D02*
X+7467600Y-2399087D01*
X+7461307Y-2405380D01*
X+7548600Y-2405380D01*
X+7721600Y-2100580D02*
X+7721600Y-2627994D01*
X+7744699Y-2651093D01*
X+7840313Y-2651093D01*
X+7848600Y-2659380D01*
X+7848600Y-2405380D02*
X+7848600Y-2100580D01*
X+7847891Y-2099871D01*
X+7848600Y-2100580D01*
X+8039100Y-1960880D02*
X+7885072Y-1960880D01*
X+7847891Y-1998061D01*
X+7847891Y-2099871D01*
D11*
X-2984500Y+1404620D02*
X-2984500Y+1587500D01*
X-2984500Y+1404620D02*
X-2882900Y+1404620D01*
X+1714500Y+1404620D02*
X+1714500Y+1651000D01*
X+1714500Y+1404620D02*
X+1928628Y+1404620D01*
X-571500Y+1404620D02*
X-571500Y+1651000D01*
X-762000Y+1404620D02*
X-571500Y+1404620D01*
X-498191Y+1404620D01*
X+4191000Y+1404620D02*
X+4191000Y+1588355D01*
X+4134346Y+1645009D01*
X+4308522Y+1404620D02*
X+4191000Y+1404620D01*
X+6747149Y+1404620D02*
X+6477000Y+1404620D01*
X+5461000Y+1905000D02*
X+5461000Y+1968500D01*
X+5461000Y+825500D02*
X+5461000Y+1905000D01*
D10*
X+609600Y-2405380D02*
X+1071880Y-2405380D01*
X+1079500Y-2413000D01*
D11*
X-5905500Y+635000D02*
X-5905500Y+970500D01*
X-5489500Y+190500D02*
X-5489500Y+506400D01*
X-5629346Y+646246D01*
X-5640592Y+635000D01*
X-5905500Y+635000D01*
X-5080000Y+1460500D02*
X-5418666Y+1460500D01*
X-4483100Y+127000D02*
X-4826000Y+127000D01*
X-4889500Y+190500D01*
X-4889500Y+795905D01*
X-4998685Y+905090D01*
X-5080000Y+1010500D01*
D10*
X-4218500Y-190500D02*
X-4000500Y-190500D01*
X-4000500Y+101600D01*
X-4025900Y+127000D01*
X-4000500Y-1714500D02*
X-4196250Y-1714500D01*
X-4196914Y-1713836D01*
X-4196914Y-1593414D01*
X-4191000Y-1587500D01*
X-5080000Y-2159000D02*
X-5080000Y-1905000D01*
X-5080000Y-2159000D02*
X-5375548Y-2159000D01*
X-5390444Y-2144104D01*
X-5361500Y-2159000D01*
X-5651500Y-1651000D02*
X-5651500Y-1905000D01*
X-5651500Y-2159000D01*
X-4508500Y-1833535D02*
X-4564035Y-1833535D01*
X-4775422Y-1833535D01*
X-4780000Y-1828957D01*
X-4780000Y-1905000D01*
X-4564035Y-1833535D02*
X-4572000Y-1841500D01*
X-4572000Y-2108200D01*
X-4191000Y-2667000D02*
X-4291489Y-2667000D01*
X-4317383Y-2641106D01*
X-4317383Y-2108817D01*
X-4318000Y-2108200D01*
X-4000500Y-1949450D02*
X-4162713Y-1949450D01*
X-4191597Y-1978334D01*
X-4191597Y-2107603D01*
X-4191000Y-2108200D01*
X-4191000Y-2413000D01*
X-4491000Y-762000D02*
X-4481000Y-772000D01*
X-3843020Y-1333500D02*
X-3937000Y-1239520D01*
X-3937000Y-544000D01*
X-4000500Y-480500D01*
X+5308600Y-2100580D02*
X+5308600Y-2641600D01*
X+5334000Y-2667000D01*
X+5427980Y-2667000D01*
X+5435600Y-2659380D01*
X-1803400Y-2405380D02*
X-1397000Y-2405380D01*
X-1277620Y-2405380D01*
X-1270000Y-2413000D01*
X+1534966Y-2682923D02*
X+1534965Y-2682923D01*
X+1591792Y-2626097D01*
X+1632694Y-2585194D01*
X+6959600Y-1643380D02*
X+7075540Y-1643380D01*
X+7104260Y-1672100D01*
X+7104260Y-2118369D01*
X+7134677Y-2148786D02*
X+7156505Y-2148786D01*
X+4706877Y-2100157D02*
X+4751322Y-2144602D01*
X+4564100Y-1643380D02*
X+4667877Y-1643380D01*
X+4706877Y-1682380D01*
X+4706877Y-2100157D01*
X-121650Y-2102517D02*
X-104801Y-2119366D01*
X-72787Y-2151380D01*
X-279400Y-1643380D02*
X-182025Y-1643380D01*
X-152540Y-1672865D01*
X-121650Y-1703755D01*
X-121650Y-1773960D01*
X-121650Y-2102517D01*
X-72787Y-2151380D02*
X+10600Y-2151380D01*
X-2501900Y-2087880D02*
X-2525708Y-2064072D01*
X-2525708Y-1729849D01*
X-2612177Y-1643380D01*
X-2692400Y-1643380D01*
X-2402400Y-2151380D02*
X-2438400Y-2151380D01*
X-2501900Y-2087880D01*
X+4751322Y-2144602D02*
X+4784191Y-2144602D01*
X+4857322Y-2144602D01*
X+4864100Y-2151380D01*
X+7104260Y-2118369D02*
X+7134677Y-2148786D01*
X+7137271Y-2151380D01*
X+7159099Y-2151380D01*
X+7156505Y-2148786D01*
X+5905500Y-2222500D02*
X+6032500Y-2095500D01*
X+5435600Y-2405380D02*
X+5899754Y-2405380D01*
X+5905500Y-2399634D01*
X+5905500Y-2222500D01*
D14*
X+1016000Y-4064000D02*
X-1270000Y-4064000D01*
D10*
X+1016000Y-4064000D02*
X+1016000Y-2476500D01*
X+1079500Y-2413000D01*
X-1270000Y-2413000D02*
X-1270000Y-4064000D01*
D14*
X+3429000Y-4064000D02*
X+1016000Y-4064000D01*
D10*
X-4491000Y-2413000D02*
X-4572000Y-2332000D01*
X-4572000Y-2108200D01*
X-3937000Y-2196424D02*
X-3749040Y-2008464D01*
X-3749040Y-1966574D01*
X-3749040Y-1905000D01*
X-3749040Y-1524000D02*
X-3749040Y-1905000D01*
X-3937000Y-2196424D02*
X-3937000Y-2250000D01*
X-3866816Y-1626026D02*
X-3866816Y-1795896D01*
X-3904455Y-1833535D01*
X-3937000Y-1524000D02*
X-3937000Y-1555842D01*
X-3866816Y-1626026D01*
X-3904455Y-1833535D02*
X-4508500Y-1833535D01*
D14*
X-1270000Y-4064000D02*
X-3048000Y-4064000D01*
D10*
X+3365500Y-2405380D02*
X+3379274Y-2405380D01*
X+3427268Y-2453374D01*
X+3022600Y-2405380D02*
X+3365500Y-2405380D01*
X+3427268Y-2794000D02*
X+3427268Y-2453374D01*
X+7048500Y-3556000D02*
X+7048500Y-3556000D01*
X+8299879Y-2603500D02*
X+8299879Y-2684771D01*
X+8299879Y-2689015D01*
X+7848600Y-2405380D02*
X+8281490Y-2405380D01*
X+8299879Y-2423769D01*
X+8299879Y-2603500D01*
X+8299879Y-2684771D02*
X+8302001Y-2686893D01*
X+8299879Y-2689015D01*
D14*
X+5778500Y-4064000D02*
X+3429000Y-4064000D01*
D10*
X+8290560Y-1579880D02*
X+8290560Y-2087440D01*
X+8128000Y-2250000D01*
X+8128000Y-2730500D02*
X+8128000Y-2540000D01*
X+6923852Y-2859852D02*
X+6956191Y-2827513D01*
X+7176675Y-2607029D01*
X+7247006Y-2153974D02*
X+7247006Y-2151380D01*
X+7247006Y-2148786D01*
X+7156505Y-2148786D02*
X+7247006Y-2148786D01*
X+7249600Y-2151380D01*
X+7247006Y-2151380D01*
X+7159099Y-2151380D01*
X+7249600Y-2151380D02*
X+7247006Y-2153974D01*
X+3429000Y-3302000D02*
X+3429000Y-3375698D01*
X+3429000Y-4064000D02*
X+3429000Y-3375698D01*
X+3429000Y-3302000D02*
X+3429000Y-2952075D01*
X+3427268Y-2950343D01*
X+3427268Y-2794000D01*
D11*
X+5469273Y+2623146D02*
X+5473321Y+2627194D01*
D12*
X+5469273Y+2623146D02*
X+5461000Y+2614873D01*
X+5461000Y+2349500D01*
X+5461000Y+2159000D01*
X+5461000Y+1968500D01*
X+5778500Y+1968500D01*
D10*
X-1778000Y+825500D02*
X-1778000Y+1169939D01*
X-1778000Y+1169940D01*
X-1778000Y+825500D02*
X-1778000Y+1169940D01*
D15*
X+865669Y+2627194D02*
X-1407200Y+2627194D01*
X+5473321Y+2627194D02*
X+3238500Y+2627194D01*
X+865669Y+2627194D01*
D11*
X+3365500Y+2095500D02*
X+3238500Y+2095500D01*
X+3048000Y+825500D02*
X+3048000Y+1445148D01*
X+3146175Y+1543323D01*
X+3238500Y+1635648D01*
X+3238500Y+2095500D01*
D41*
X+3238500Y+2627194D01*
D11*
X+952500Y+2095500D02*
X+869512Y+2095500D01*
X+635000Y+825500D02*
X+635000Y+1375947D01*
X+869512Y+1610459D01*
X+869512Y+2095500D01*
D41*
X+869512Y+2623351D01*
X+865669Y+2627194D01*
D11*
X-1333500Y+2095500D02*
X-1397000Y+2095500D01*
X-1778000Y+1169940D02*
X-1778000Y+1270000D01*
X-1397000Y+1651000D01*
X-1397000Y+2095500D01*
D41*
X-1397000Y+2616994D01*
X-1407200Y+2627194D01*
D11*
X+6477000Y+1404620D02*
X+6477000Y+1667185D01*
X+6437156Y+1707029D01*
D14*
X-3172535Y-2706741D02*
X-3172535Y-3871035D01*
X-3175000Y-3873500D01*
X-4254500Y+817880D02*
X-4254500Y+762000D01*
X-3746500Y+254000D01*
X-3746500Y+190500D01*
D10*
X+7366000Y-2413000D02*
X+7453687Y-2413000D01*
X+7461307Y-2405380D01*
X+7076000Y-2413000D02*
X+7236105Y-2413000D01*
X+7247006Y-2402099D01*
X+7176675Y-2607029D02*
X+7247006Y-2536698D01*
X+7247006Y-2402099D01*
X+7247006Y-2153974D01*
X+4663000Y-2413000D02*
X+4784191Y-2413000D01*
X+4784191Y-2144602D02*
X+4784191Y-2413000D01*
X+4953000Y-2413000D02*
X+5127980Y-2413000D01*
X+5135600Y-2405380D01*
X+2540000Y-2413000D02*
X+2714980Y-2413000D01*
X+2722600Y-2405380D01*
X+2250000Y-2413000D02*
X+2360100Y-2413000D01*
X+2360100Y-2151380D02*
X+2360100Y-2413000D01*
X-163000Y-2413000D02*
X-53421Y-2413000D01*
X-53322Y-2413099D01*
X-53322Y-2215302D01*
X+10600Y-2151380D01*
X+127000Y-2413000D02*
X+301980Y-2413000D01*
X+309600Y-2405380D01*
X-2286000Y-2413000D02*
X-2192020Y-2413000D01*
X-2184400Y-2405380D01*
X-2576000Y-2413000D02*
X-2467963Y-2413000D01*
X-2438400Y-2151380D02*
X-2467963Y-2180943D01*
X-2467963Y-2413000D01*
X-5080000Y-1651000D02*
X-4996902Y-1651000D01*
X-4953000Y-1694902D01*
X-4953000Y-2101772D01*
X-4953000Y-2159000D02*
X-4790000Y-2159000D01*
X-4953000Y-2101772D02*
X-4953000Y-2159000D01*
X-4953000Y-2222500D02*
X-4953000Y-2286000D01*
X-4953000Y-2349500D01*
X-4953000Y-2381123D01*
X-4957590Y-2385713D01*
X-4953000Y-2159000D02*
X-4953000Y-2222500D01*
X-5080000Y-2476500D02*
X-4960283Y-2476500D01*
X-4953000Y-2469217D01*
X-4953000Y-2381123D02*
X-4953000Y-2469217D01*
X-4953000Y-2603500D01*
X-4889500Y-2667000D02*
X-4803130Y-2753370D01*
X-4790000Y-2766500D01*
X-4790000Y-2825941D01*
X-4953000Y-2603500D02*
X-4889500Y-2667000D01*
X-4790000Y-2476500D02*
X-4635500Y-2476500D01*
X-4554500Y-2476500D01*
X-4491000Y-2413000D01*
X-2692400Y-1643380D02*
X-2654332Y-1605312D01*
X-4318000Y-1587500D02*
X-4318000Y-1384300D01*
X-4332110Y-1370190D01*
X-4332110Y-566404D01*
X-4246206Y-480500D01*
X-4000500Y-480500D01*
X-4141610Y-1157110D02*
X-4141610Y-762000D01*
X-4191000Y-762000D01*
X-4191000Y-1587500D02*
X-4141610Y-1587500D01*
X-4141610Y-1157110D01*
X-4445000Y-1587500D02*
X-4445000Y-1234720D01*
X-4522610Y-1157110D01*
X-4491000Y-762000D02*
X-4491000Y-208000D01*
X-4508500Y-190500D01*
X-4483100Y+127000D02*
X-4483100Y-165100D01*
X-4508500Y-190500D01*
X-4522610Y-1157110D02*
X-4481000Y-1115500D01*
X-4481000Y-852170D01*
X-4491000Y-762000D01*
X-1930400Y-1579880D02*
X-1930400Y-1371600D01*
X-1968500Y-1333500D01*
X-1968500Y-561777D01*
X-1858066Y-451343D01*
X-1563863Y-451343D01*
X-1549400Y-436880D01*
X-2103400Y-754380D02*
X-2103400Y-1087400D01*
X-2159000Y-1143000D01*
X-2103400Y-754380D02*
X-2103400Y-228880D01*
X-2057400Y-182880D01*
X-1803400Y-754380D02*
X-1803400Y-1117600D01*
X-1778000Y-1143000D01*
X-1803400Y-1579880D02*
X-1803400Y-1168400D01*
X-1778000Y-1143000D01*
X-2057400Y-1579880D02*
X-2057400Y-1418136D01*
X-2102105Y-1373431D01*
X-2159000Y-1316536D01*
X-2159000Y-1143000D01*
X+482600Y-1579880D02*
X+482600Y-1376422D01*
X+447272Y-1341094D01*
X+447272Y-555498D01*
X+555253Y-447517D01*
X+838237Y-447517D01*
X+863600Y-472880D01*
X+609600Y-754380D02*
X+609600Y-1117600D01*
X+635000Y-1143000D01*
X+609600Y-1579880D02*
X+609600Y-1168400D01*
X+635000Y-1143000D01*
X+309600Y-754380D02*
X+309600Y-1087400D01*
X+254000Y-1143000D01*
X+355600Y-1579880D02*
X+355600Y-1423340D01*
X+301942Y-1369682D01*
X+301942Y-1190942D01*
X+254000Y-1143000D01*
X+2768600Y-754380D02*
X+2768600Y-768703D01*
X+2768600Y-1104900D01*
X+2730500Y-1143000D01*
X+2768600Y-754380D02*
X+2768600Y-182880D01*
X+2895600Y-1579880D02*
X+2895600Y-1365985D01*
X+2931265Y-1330320D01*
X+2931265Y-954227D01*
X+2898561Y-921523D01*
X+2898561Y-565414D01*
X+2913096Y-550879D01*
X+2991095Y-472880D01*
X+3276600Y-472880D01*
X+3022600Y-754380D02*
X+3111500Y-843280D01*
X+3111500Y-1143000D01*
X+3022600Y-1579880D02*
X+3022600Y-1231900D01*
X+3111500Y-1143000D01*
X+2768600Y-1579880D02*
X+2768600Y-1181100D01*
X+2730500Y-1143000D01*
X+7848600Y-1579880D02*
X+7848600Y-1168400D01*
X+7874000Y-1143000D01*
X+7848600Y-754380D02*
X+7848600Y-1117600D01*
X+7874000Y-1143000D01*
X+7548600Y-754380D02*
X+7548600Y-1087400D01*
X+7493000Y-1143000D01*
X+7594600Y-1579880D02*
X+7594600Y-1244600D01*
X+7493000Y-1143000D01*
X+5435600Y-1579880D02*
X+5461000Y-1579880D01*
X+5461000Y-1143000D01*
X+5461000Y-754380D01*
X+5435600Y-754380D01*
X+5308600Y-1579880D02*
X+5308600Y-1371600D01*
X+5270500Y-1333500D01*
X+5270500Y-503393D01*
X+5362479Y-411414D01*
X+5687566Y-411414D01*
X+5689600Y-409380D01*
X+5080000Y-1143000D02*
X+5080000Y-809980D01*
X+5135600Y-754380D01*
X+5181600Y-1579880D02*
X+5181600Y-1380723D01*
X+5115483Y-1314606D01*
X+5115483Y-1178483D01*
X+5080000Y-1143000D01*
D11*
X-2882900Y+1404620D02*
X-2565400Y+1404620D01*
X-5905500Y+1415000D02*
X-5860000Y+1460500D01*
X-5818751Y+1460500D01*
X-5418666Y+1460500D02*
X-5818751Y+1460500D01*
X-5860000Y+1460500D02*
X-5905500Y+1460500D01*
X-4254500Y+2609179D02*
X-4209015Y+2609179D01*
X-4191000Y+2627194D01*
D15*
X-1407200Y+2627194D02*
X-4191000Y+2627194D01*
X-4237376Y+2627194D01*
D41*
X-4254500Y+2609179D02*
X-4254500Y+2610070D01*
X-4237376Y+2627194D01*
D11*
X-3327400Y+1359120D02*
X-3302000Y+1384520D01*
X-3302000Y+1404620D01*
X-3327400Y+1404620D02*
X-3302000Y+1404620D01*
X-2984500Y+1404620D01*
X-762000Y+1404620D02*
X-868900Y+1404620D01*
X-914400Y+1359120D01*
X-914400Y+1404620D02*
X-868900Y+1404620D01*
X+1651000Y+1404620D02*
X+1544100Y+1404620D01*
X+1498600Y+1359120D01*
X+1498600Y+1404620D02*
X+1544100Y+1404620D01*
X+1651000Y+1404620D02*
X+1714500Y+1404620D01*
X+4064000Y+1404620D02*
X+3957100Y+1404620D01*
X+3911600Y+1359120D01*
X+4191000Y+1404620D02*
X+4064000Y+1404620D01*
X+3957100Y+1404620D02*
X+3911600Y+1404620D01*
X+6413500Y+1404620D02*
X+6374962Y+1404620D01*
X+6370100Y+1404620D01*
X+6360208Y+1394728D01*
X+6324600Y+1359120D01*
X+6477000Y+1404620D02*
X+6413500Y+1404620D01*
X+6374962Y+1404620D02*
X+6364013Y+1393671D01*
X+6360208Y+1394728D01*
X+6324600Y+1404620D01*
X+6794500Y+1404620D02*
X+7086600Y+1404620D01*
X+7091474Y+1404620D01*
X+7115614Y+1380480D01*
X+6747149Y+1404620D02*
X+6794500Y+1404620D01*
D16*
X-4263961Y+1955083D02*
X-4254500Y+1964544D01*
D15*
X-4254500Y+1968500D01*
X-4254500Y+2141093D01*
D11*
X-4254500Y+817880D02*
X-4254500Y+1964544D01*
D15*
X-4254500Y+2141093D02*
X-4254500Y+2609179D01*
D11*
X-5418666Y+1460500D02*
X-5394560Y+1436394D01*
X-5394560Y+718686D01*
D15*
X-5969000Y+1905000D02*
X-5778500Y+1905000D01*
X-5905500Y+25000D02*
X-6449418Y+568918D01*
X-6449418Y+1539713D01*
X-6084131Y+1905000D01*
X-5969000Y+1905000D01*
X-5080000Y+1460500D02*
X-4679289Y+1460500D01*
X-4621653Y+1518136D01*
X-4621653Y+1891153D01*
X-4635500Y+1905000D01*
D14*
X-3937000Y-2540000D02*
X-3937000Y-2857500D01*
X-3937000Y-2894604D01*
X-4092166Y-3049770D01*
X-4316230Y-3049770D01*
X-4318000Y-3048000D01*
D10*
X-4481000Y-2667000D02*
X-4635657Y-2821657D01*
X-4635657Y-3197087D01*
X-4538246Y-3294498D01*
X-4325502Y-3294498D01*
X-4318000Y-3302000D01*
X-4790000Y-3429000D02*
X-4664596Y-3554404D01*
X-4610817Y-3554404D01*
X-4319596Y-3554404D01*
X-4318000Y-3556000D01*
X-4790000Y-2825941D02*
X-4790000Y-3429000D01*
X-1549400Y-2857500D02*
X-1739900Y-3048000D01*
X-1778000Y-3048000D01*
X-1549400Y-2568380D02*
X-1549400Y-2857500D01*
X-2093400Y-3175000D02*
X-1966400Y-3302000D01*
X-1778000Y-3302000D01*
X-2093400Y-3175000D02*
X-2093400Y-2659380D01*
X-2159000Y-3554606D02*
X-2033394Y-3554606D01*
X-1779394Y-3554606D01*
X-1778000Y-3556000D01*
X-2467963Y-2413000D02*
X-2467963Y-2861681D01*
X-2467963Y-3365879D01*
X-2279236Y-3554606D01*
X-2159000Y-3554606D01*
X+571500Y-3048000D02*
X+727172Y-3048000D01*
X+863600Y-2911572D01*
X+863600Y-2532380D02*
X+863600Y-2911572D01*
X+319600Y-3175000D02*
X+446600Y-3302000D01*
X+571500Y-3302000D01*
X+319600Y-2659380D02*
X+319600Y-3175000D01*
X+127000Y-3429000D02*
X+254000Y-3556000D01*
X+571500Y-3556000D01*
X+127000Y-3429000D02*
X-53322Y-3248678D01*
X-53322Y-2413099D01*
X+2984500Y-3048000D02*
X+3102467Y-3048000D01*
X+3276600Y-2873867D01*
X+3276600Y-2568380D02*
X+3276600Y-2873867D01*
X+2730500Y-3238500D02*
X+2791291Y-3299291D01*
X+2941930Y-3299291D01*
X+2981791Y-3299291D01*
X+2984500Y-3302000D01*
X+2730500Y-3238500D02*
X+2730500Y-2661480D01*
X+2732600Y-2659380D01*
X+2603500Y-3547288D02*
X+2721788Y-3547288D01*
X+2975788Y-3547288D01*
X+2984500Y-3556000D01*
X+2360100Y-2413000D02*
X+2360100Y-3380847D01*
X+2526541Y-3547288D01*
X+2603500Y-3547288D01*
X+5715000Y-2857500D02*
X+5524500Y-3048000D01*
X+5461000Y-3048000D01*
X+5689600Y-2532380D02*
X+5715000Y-2557780D01*
X+5715000Y-2857500D01*
X+5145600Y-3111500D02*
X+5336100Y-3302000D01*
X+5461000Y-3302000D01*
X+5145600Y-2659380D02*
X+5145600Y-3111500D01*
X+6867996Y-3429000D02*
X+6994996Y-3556000D01*
X+7048500Y-3556000D01*
X+7112000Y-3556000D01*
X+6923852Y-2859852D02*
X+6867996Y-2915708D01*
X+6867996Y-3429000D01*
X+7558600Y-2659380D02*
X+7558600Y-2982400D01*
X+7239000Y-3302000D01*
X+7112000Y-3302000D01*
D18*
X-5232400Y-1028700D02*
X-5232400Y-1001800D01*
D10*
X-5232400Y-1034687D02*
X-5218682Y-1034687D01*
X-5212695Y-1028700D01*
X-5361500Y-1905000D02*
X-5361500Y-1661000D01*
X-5351500Y-1651000D01*
D18*
X-5232400Y-1066800D02*
X-5232400Y-1034687D01*
X-5232400Y-1028700D01*
D10*
X-5212695Y-1028700D01*
X-914400Y-1897380D02*
X-914400Y-1646996D01*
D18*
X+4347950Y-1020850D02*
X+4347950Y-981074D01*
D15*
X-5778500Y+1905000D02*
X-5080000Y+1905000D01*
D11*
X-2273300Y+1841500D02*
X-2273300Y+1998665D01*
X-2418092Y+2143457D01*
X-3476241Y+2143457D01*
X-3648029Y+1971669D01*
X-3648029Y+353249D01*
X-3327400Y+32620D01*
X-914400Y+32620D02*
X-1108438Y+32620D01*
X-1187480Y+111662D01*
X-1187480Y+1907761D01*
X-1025141Y+2070100D01*
X-203200Y+2070100D01*
X-37978Y+1904878D01*
X-37978Y+1854078D01*
X-25400Y+1841500D01*
X+1498600Y+32620D02*
X+1157112Y+374108D01*
X+1157112Y+1965739D01*
X+1362643Y+2171270D01*
X+2098260Y+2171270D01*
X+2222500Y+2047030D01*
X+2222500Y+1841500D01*
X+6324600Y+32620D02*
X+5978026Y+379194D01*
X+5978026Y+2007926D01*
X+6132626Y+2162526D01*
X+6583932Y+2162526D01*
X+6718300Y+2028158D01*
X+6718300Y+1841500D01*
X+7874000Y+825500D02*
X+7874000Y+1625600D01*
X+7175500Y+2324100D01*
X+6946900Y+2324100D01*
X+6643806Y+2627194D01*
X+5473321Y+2627194D01*
D10*
X+1534965Y-2682923D02*
X+1534966Y-2682923D01*
X+5778500Y-4064000D02*
X+5778500Y-3035300D01*
X+5905500Y-2908300D01*
X+5905500Y-2399634D01*
D14*
X+8299879Y-2689015D02*
X+8299879Y-2794000D01*
X+8172879Y-2921000D01*
X+7937500Y-2921000D01*
X+7402002Y-3456498D01*
X+7402002Y-3773998D01*
X+7112092Y-4063908D01*
X+5906029Y-4063471D01*
X+5905500Y-4064000D01*
X+5778500Y-4064000D01*
D10*
X+4784191Y-2413000D02*
X+4826000Y-2454809D01*
X+4826000Y-3429000D01*
X+4953000Y-3556000D01*
X+5461000Y-3556000D01*
D19*
X-3184856Y-2581108D02*
X-3184856Y-2609577D01*
X-3172535Y-2621898D01*
D14*
X-3172535Y-2593429D02*
X-3172535Y-2621898D01*
X-3172535Y-2706741D01*
X-3184856Y-2581108D02*
X-3172535Y-2593429D01*
D18*
X+7721600Y-1579880D02*
X+7721600Y-1260985D01*
X+7702302Y-1241687D01*
X+7702302Y-592425D01*
X+7703371Y-591356D01*
X+7885347Y-409380D01*
X+8102600Y-409380D01*
X+6845300Y-979400D02*
X+6845300Y-1044400D01*
X+6426200Y-977801D02*
X+6416899Y-977801D01*
X+6415300Y-979400D02*
X+6416899Y-977801D01*
X+6843752Y-977852D02*
X+6827261Y-977852D01*
X+6827210Y-977801D01*
X+6845300Y-979400D01*
X+6827210Y-977801D02*
X+6843701Y-977801D01*
X+6843752Y-977852D01*
X+6845300Y-979400D01*
X+7259600Y-1643380D02*
X+7259600Y-1492867D01*
X+7548600Y-754380D02*
X+7548600Y-160300D01*
X+7594600Y-114300D01*
X+7594600Y-119380D01*
D10*
X+7594600Y-114300D02*
X+7594600Y+83820D01*
X+7645400Y+134620D01*
D18*
X+7259600Y-1442952D02*
X+7259600Y-1469751D01*
X+7259600Y-1492867D01*
D11*
X+3911600Y+32620D02*
X+3902510Y+41710D01*
X+3542107Y+402113D01*
X+3542107Y+1954607D01*
X+3746500Y+2159000D01*
X+4330953Y+2159000D01*
X+4495800Y+1994153D01*
X+4495800Y+1841500D01*
D18*
X+4351042Y-955850D02*
X+4352565Y-954327D01*
X+4347950Y-955850D01*
X+4241293Y-604800D02*
X+4229100Y-594800D01*
X+4219100Y-604800D02*
X+4229100Y-594800D01*
X+4241293Y-604800D02*
X+4239100Y-604800D01*
X+4229100Y-594800D01*
X+4219100Y-604800D02*
X+4239100Y-604800D01*
X-3517900Y-268800D02*
X-3517900Y-105436D01*
X-3379844Y+32620D01*
X-3327400Y+32620D01*
X-3249400Y-911400D02*
X-3057700Y-911400D01*
X-3022600Y-876300D01*
X-3022600Y-576580D01*
X-3009900Y-563880D01*
X-2819400Y-1041400D02*
X-2819400Y-976400D01*
X-2832100Y-976400D02*
X-2822383Y-976400D01*
X-2819400Y-976400D01*
X-2822383Y-976400D02*
X-2820845Y-974862D01*
X-2819400Y-976400D01*
X-3327400Y-1643380D02*
X-3327400Y-1123234D01*
X-3311221Y-1107055D01*
X-3249400Y-1106400D01*
X-3151507Y-1395311D02*
X-3157500Y-1402080D01*
X-3238500Y-976400D02*
X-3249400Y-976400D01*
X-3238500Y-976400D02*
X-2832100Y-976400D01*
X-3263900Y-263880D02*
X-3263900Y-409103D01*
X-3517900Y-558800D02*
X-3517900Y-448572D01*
X-3478431Y-409103D01*
X-3263900Y-409103D01*
X-3263900Y-563880D02*
X-3060700Y-563880D01*
X-3009900Y-563880D01*
X-2999960Y-263940D02*
X-3009900Y-273880D01*
X-2999960Y-263940D02*
X-2951747Y-215727D01*
X-2951747Y-67310D01*
X-2959100Y+198120D01*
X-3009900Y+198120D01*
X-2392400Y-1193800D02*
X-2392400Y-1114813D01*
X-2392400Y-1193800D02*
X-2392400Y-1355588D01*
X-2819400Y-976400D02*
X-2393900Y-976400D01*
X-2392400Y-977900D01*
X-2392400Y-1114813D02*
X-2392400Y-977900D01*
X-2392400Y-317500D01*
X-2430500Y-279400D01*
X-2819400Y-911400D02*
X-2616420Y-911400D01*
X-2603462Y-898442D01*
X-2603462Y-616503D01*
X-2810862Y-409103D01*
X-2882900Y-409103D01*
X-2899483Y-409103D01*
X-2946400Y-409103D01*
X-3263900Y-409103D02*
X-2946400Y-409103D01*
X-3009900Y-273880D02*
X-2736020Y-273880D01*
X-2730500Y-279400D01*
X-3151507Y-1395311D02*
X-3151507Y-2547759D01*
X-3184856Y-2581108D01*
X-3249400Y-1041400D02*
X-3086100Y-1041400D01*
X-3060700Y-1066800D01*
X-3060700Y-1297882D01*
X-3100350Y-1337532D01*
X-3151507Y-1395311D01*
X-2392400Y-1406388D02*
X-2392400Y-1355588D01*
X-2392400Y-1406388D02*
X-2392400Y-1643380D01*
X-3027400Y-1643380D02*
X-3027400Y-1566900D01*
X-2856983Y-1396483D01*
X-2856983Y-1402080D01*
X-2856983Y-1492250D01*
X-2857500Y-1402080D01*
X-2856983Y-1402080D01*
X-2396708Y-1402080D01*
X-2392400Y-1406388D01*
X-5662400Y-1131800D02*
X-5662400Y-1640100D01*
X-5651500Y-1651000D01*
X-5662400Y-1001800D02*
X-5232400Y-1001800D01*
X-5173700Y-1409700D02*
X-5245100Y-1409700D01*
X-5247628Y-1407172D01*
X-5340076Y-1499619D01*
X-5340076Y-1639576D01*
X-5351500Y-1651000D01*
X-5473700Y-1308100D02*
X-5473700Y-1409700D01*
X-5473700Y-3776891D01*
X-5429853Y-3820738D01*
X-5215089Y-3820738D01*
X-5198569Y-3804218D01*
X-5207000Y-3810000D01*
X-5473700Y-1308100D02*
X-5473700Y-1110873D01*
X-5519353Y-1065220D01*
X-5674604Y-1065220D01*
X-5674639Y-1065255D01*
X-5662400Y-1066800D01*
D10*
X-5270500Y-330200D02*
X-5461000Y-330200D01*
X-5499100Y-292100D01*
X-5499100Y-304800D01*
X-5499100Y-292100D02*
X-5499100Y+180900D01*
X-5489500Y+190500D01*
D18*
X-5232400Y-1001800D02*
X-5230867Y-1000267D01*
X-4960730Y-1000267D01*
X-4959797Y-999334D01*
X-5753100Y-304800D02*
X-5753100Y-478458D01*
X-5744089Y-487469D01*
X-5232400Y-936800D02*
X-5075618Y-936800D01*
X-5031636Y-892818D01*
X-5031636Y-599528D01*
X-5143695Y-487469D01*
X-5744089Y-487469D01*
X-5974709Y-487469D01*
X-6003254Y-516014D01*
X-6003254Y-590954D01*
X-6007100Y-594800D01*
X-5753100Y-604800D02*
X-5496400Y-604800D01*
X-5486400Y-594800D01*
X-5662400Y-936800D02*
X-5493905Y-936800D01*
X-5477463Y-920358D01*
X-5477463Y-603737D01*
X-5486400Y-594800D01*
X-5499100Y-594800D01*
X-6007100Y-304800D02*
X-6007100Y-81002D01*
X-5963328Y-37230D01*
X-5905500Y+25000D01*
D14*
X-4959797Y-340903D02*
X-4959797Y-265502D01*
X-5159802Y-65497D01*
X-5159802Y+483928D01*
X-5394560Y+718686D01*
D18*
X-4959797Y-340903D02*
X-4970500Y-330200D01*
X-4780000Y-1663700D02*
X-4780000Y-1651000D01*
D10*
X-4780000Y-1828957D02*
X-4780000Y-1663700D01*
D18*
X-5105400Y-1395237D02*
X-5073369Y-1395237D01*
X-4846225Y-1395237D02*
X-4809831Y-1431631D01*
X-4780000Y-1651000D02*
X-4780000Y-1461462D01*
X-4809831Y-1431631D01*
X-5105400Y-1395237D02*
X-5159237Y-1395237D01*
X-5173700Y-1409700D01*
X-4959797Y-939800D02*
X-4959797Y-999334D01*
X-4959797Y-1394529D01*
X-4959089Y-1395237D01*
X-4959797Y-939800D02*
X-4959797Y-340903D01*
X-5073369Y-1395237D02*
X-4959089Y-1395237D01*
X-4846225Y-1395237D01*
X-2430500Y-279400D02*
X-2430500Y-249139D01*
X-2597680Y-81959D01*
X-2834041Y+154402D01*
X-2834041Y+1110114D01*
X-2834041Y+1355761D01*
X-2882900Y+1404620D01*
D14*
X-3048000Y-4064000D02*
X-3159628Y-4064000D01*
D11*
X-3579519Y-3792125D02*
X-3308763Y-3521369D01*
X-3308763Y-3060700D01*
X-3710965Y-739165D02*
X-3581400Y-868730D01*
X-3581400Y-1485900D01*
X-3581400Y-2280869D01*
X-3308763Y-2553506D01*
X-3308763Y-3060700D01*
D14*
X-3543300Y-2882900D02*
X-3698051Y-2882900D01*
X-3805296Y-2990145D01*
X-3159628Y-4064000D02*
X-3766255Y-4064000D01*
X-3805296Y-4024959D01*
X-3805296Y-2990145D01*
X-3722458Y-2413000D02*
X-3548266Y-2587192D01*
X-3548266Y-2877256D01*
X-4191000Y-2413000D02*
X-3722458Y-2413000D01*
X-3698051Y-2882900D02*
X-3692407Y-2877256D01*
X-3548266Y-2877256D01*
D10*
X-1066800Y-322580D02*
X-1066800Y-110469D01*
X-985941Y-29610D01*
X-914400Y+32620D01*
X-584200Y-322580D02*
X-584200Y+185420D01*
X-596900Y+198120D01*
X-381280Y-292100D02*
X-553720Y-292100D01*
X-584200Y-322580D01*
X-81280Y-292100D02*
X-81280Y-254000D01*
X-152400Y-182880D01*
X-281940Y-53340D01*
X-287922Y-47358D01*
X-287922Y+651142D01*
X-498191Y+861411D01*
X-498191Y+1404620D01*
X-624400Y-1643380D02*
X-462000Y-1480980D01*
X-462000Y-1402080D01*
D18*
X-899900Y-989100D02*
X-469900Y-989100D01*
X-82780Y-989100D01*
X-81280Y-990600D01*
D10*
X-81280Y-292100D02*
X-81280Y-990600D01*
D18*
X-469900Y-1054100D02*
X-469900Y-989100D01*
X-596874Y-623630D02*
X-595250Y-623630D01*
X-584200Y-612580D01*
X-596874Y-623630D02*
X-584200Y-612580D01*
X-681497Y-736600D02*
X-681497Y-701479D01*
X-681497Y-627933D01*
X-685800Y-623630D01*
X-824450Y-623630D02*
X-685800Y-623630D01*
X-596874Y-623630D01*
X-899900Y-924100D02*
X-729006Y-924100D01*
X-681497Y-876591D01*
X-681497Y-736600D01*
X-824450Y-323630D02*
X-820047Y-328033D01*
X-820047Y-478529D01*
X-469900Y-924100D02*
X-259978Y-924100D01*
X-217205Y-881327D01*
X-217205Y-565192D01*
X-303868Y-478529D01*
X-820047Y-478529D01*
X-1044262Y-478529D01*
X-1061478Y-495745D01*
X-1061478Y-607258D01*
X-1066800Y-612580D01*
X-899900Y-1054100D02*
X-737101Y-1054100D01*
X-705112Y-1086089D01*
X-705112Y-1345192D01*
X-762000Y-1402080D01*
X-899900Y-1119100D02*
X-899900Y-1632496D01*
X-914400Y-1646996D01*
X-914400Y-1643380D01*
X-614400Y-1653380D02*
X-450715Y-1489695D01*
X-450715Y-1402080D01*
X-450715Y-1394297D01*
D10*
X-614400Y-1897380D02*
X-614400Y-1653380D01*
X-624400Y-1643380D01*
X-462000Y-1402080D02*
X-450715Y-1402080D01*
D18*
X-450715Y-1394297D02*
X-124297Y-1394297D01*
X-132080Y-1402080D02*
X-124297Y-1394297D01*
D10*
X-82226Y-1352226D01*
X-81280Y-1351280D01*
X-81280Y-1257300D01*
X-81280Y-990600D02*
X-81280Y-1257300D01*
X-81280Y-1351280D02*
X-81280Y-1353172D01*
X+29473Y-1463925D01*
X+29473Y-1634507D01*
X+20600Y-1643380D01*
X-450715Y-1402080D02*
X-132080Y-1402080D01*
X+1816100Y+198120D02*
X+1816100Y-173000D01*
X+1798600Y-190500D01*
X+1798600Y-261180D01*
D18*
X+1798600Y-551180D02*
X+1798600Y-538480D01*
X+1536700Y-538480D01*
X+1549400Y-551180D01*
D10*
X+1308100Y-248480D02*
X+1308100Y-116738D01*
X+1457458Y+32620D01*
X+1498600Y+32620D01*
D18*
X+1498600Y-1039900D02*
X+1674900Y-1039900D01*
X+1701800Y-1066800D01*
X+1701800Y-1343748D01*
X+1695450Y-1350098D01*
X+1638300Y-1414780D01*
X+1638300Y-2579588D01*
X+1632694Y-2585194D01*
X+1588244Y-2629644D01*
X+1534965Y-2682923D01*
X+1467594Y-2750294D01*
D10*
X+1206500Y-2870200D02*
X+1346676Y-2871212D01*
X+1467594Y-2750294D01*
D18*
X+1788600Y-1643380D02*
X+1938300Y-1493680D01*
X+1938300Y-1414780D01*
X+2364557Y-1414780D01*
X+2368044Y-1418267D01*
X+2368044Y-1641324D01*
X+2370100Y-1643380D01*
X+1917700Y-974900D02*
X+1928600Y-974900D01*
X+2367100Y-974900D01*
X+2370100Y-977900D01*
D19*
X+1498600Y-974900D02*
X+1917700Y-974900D01*
D18*
X+2370100Y-1643380D02*
X+2370100Y-977900D01*
X+2370100Y-284480D01*
X+2326920Y-241300D01*
X+1928600Y-1039900D02*
X+1928600Y-974900D01*
D19*
X+1549400Y-251180D02*
X+1549400Y-424295D01*
X+1574800Y-424295D01*
X+1928600Y-909900D02*
X+2133471Y-909900D01*
X+2209505Y-833866D01*
X+2209505Y-578587D01*
X+2209505Y-546797D01*
X+2087003Y-424295D01*
X+1574800Y-424295D01*
X+1549400Y-424295D02*
X+1332286Y-424295D01*
X+1313853Y-442728D01*
X+1313853Y-532727D01*
X+1308100Y-538480D01*
X+1498600Y-909900D02*
X+1692591Y-909900D01*
X+1759407Y-843084D01*
X+1766385Y-836106D01*
X+1766385Y-608330D01*
X+1798600Y-551180D01*
X+1798600Y-261180D02*
X+2019546Y-261180D01*
X+2029223Y-251503D01*
X+2026920Y-241300D01*
X+2326920Y-241300D02*
X+2198474Y-112854D01*
X+2198474Y-59734D01*
X+2198474Y+544726D01*
X+1955800Y+787400D01*
X+1955800Y+1404620D01*
D11*
X+1928628Y+1404620D02*
X+1955800Y+1404620D01*
X+2260600Y+1404620D01*
D18*
X+1498600Y-1643380D02*
X+1498600Y-1104900D01*
X+4229100Y-304800D02*
X+4228997Y-297890D01*
X+4228997Y-254103D01*
X+4241800Y-241300D01*
X+4241800Y+198120D01*
X+4229100Y+198120D01*
X+3733800Y-292100D02*
X+3733800Y-95598D01*
X+3852327Y+22929D01*
X+3901909Y+22929D01*
X+3911600Y+32620D01*
X+4229100Y-304800D02*
X+4396925Y-304800D01*
X+4437676Y-264049D01*
X+4445000Y-254000D01*
D10*
X+4201600Y-1653380D02*
X+4201600Y-1559400D01*
X+4351300Y-1409700D01*
X+4201600Y-1897380D02*
X+4201600Y-1653380D01*
X+4211600Y-1643380D01*
X+4351300Y-1409700D02*
X+4864100Y-1409700D01*
X+4864100Y-1643380D02*
X+4864100Y-1409700D01*
X+4864100Y-1262380D01*
D18*
X+3917950Y-955850D02*
X+4344858Y-955850D01*
X+4347950Y-958942D01*
X+4347950Y-955850D01*
X+4347950Y-981074D02*
X+4347950Y-958942D01*
X+4351042Y-955850D01*
X+4347950Y-955850D02*
X+4351042Y-955850D01*
X+4742884Y-955850D01*
X+4745000Y-957966D01*
X+4745000Y-254000D02*
X+4745000Y-957966D01*
X+4745000Y-1143280D01*
X+4864100Y-1262380D01*
X+3911600Y-1643380D02*
X+3911600Y-1092200D01*
X+3917950Y-1085850D01*
X+4064000Y-1397000D02*
X+4064000Y-2414869D01*
X+4694397Y-3045266D01*
X+3917950Y-1020850D02*
X+4101374Y-1020850D01*
X+4133649Y-1053125D01*
X+4133649Y-1327351D01*
X+4064000Y-1397000D01*
X+4051300Y-1409700D01*
X+3917950Y-890850D02*
X+4116646Y-890850D01*
X+4133579Y-873917D01*
X+4133579Y-604800D01*
X+3975100Y-604800D02*
X+4133579Y-604800D01*
X+4208500Y-604800D01*
X+4229100Y-584200D01*
X+4229100Y-594800D01*
X+3975100Y-304800D02*
X+3975100Y-444739D01*
X+3967422Y-452417D01*
X+3733800Y-582100D02*
X+3733800Y-461238D01*
X+3742621Y-452417D01*
X+3967422Y-452417D01*
X+4544083Y-452417D01*
X+4577070Y-485404D01*
X+4643044Y-551378D01*
X+4643044Y-807943D01*
X+4560137Y-890850D01*
X+4347950Y-890850D01*
X+4745000Y-254000D02*
X+4600424Y-109424D01*
X+4600424Y-26592D01*
X+4600424Y+541977D01*
X+4372722Y+769679D01*
X+4372722Y+1387998D01*
X+4356100Y+1404620D01*
D11*
X+4673600Y+1404620D02*
X+4356100Y+1404620D01*
X+4308522Y+1404620D01*
D18*
X+6845300Y-979400D02*
X+6415300Y-979400D01*
X+6705600Y-309880D02*
X+6705600Y-254891D01*
X+6718300Y-242191D01*
X+6718300Y+67963D01*
X+6692900Y+38100D01*
X+6705600Y+190500D01*
X+6705600Y+165100D01*
X+6705600Y+198120D01*
X+6223000Y-306900D02*
X+6223000Y-12700D01*
X+6268320Y+32620D01*
X+6324600Y+32620D01*
X+6415300Y-914400D02*
X+6617343Y-914400D01*
X+6638758Y-892985D01*
X+6699411Y-832332D01*
X+6699411Y-657030D01*
X+6705600Y-599880D01*
X+6642100Y-599880D01*
X+6474300Y-599880D01*
X+6464300Y-609880D01*
X+6464300Y-309880D02*
X+6464300Y-449774D01*
X+6460513Y-453561D01*
X+6460513Y-458439D01*
X+6464300Y-462226D01*
X+6223000Y-596900D02*
X+6223000Y-475694D01*
X+6236468Y-462226D01*
X+6464300Y-462226D01*
X+7070755Y-462226D01*
X+7125219Y-516690D01*
X+7125219Y-824981D01*
X+7035829Y-914371D01*
X+6934200Y-914371D01*
X+6845300Y-914400D01*
X+6845300Y-979400D02*
X+7254416Y-979400D01*
X+7259600Y-984584D01*
X+7259600Y-1238496D01*
X+7221500Y-279400D02*
X+7221500Y-338100D01*
X+7239000Y-355600D01*
X+6747149Y+1404620D02*
X+6747149Y+844846D01*
X+6937530Y+654465D01*
X+6937530Y-54130D01*
X+7150100Y-266700D01*
X+7221500Y-338100D01*
X+7239000Y-355600D02*
X+7259600Y-376200D01*
X+7259600Y-984584D01*
X+6705600Y-309880D02*
X+6891020Y-309880D01*
X+6921500Y-279400D01*
X+6542585Y-1398933D02*
X+6542585Y-2729507D01*
X+6741687Y-2928609D01*
X+6750617Y-2928609D01*
X+6415300Y-1044400D02*
X+6612546Y-1044400D01*
X+6640962Y-1072816D01*
X+6640962Y-1296860D01*
X+6589750Y-1348072D01*
X+6542585Y-1398933D01*
X+6532600Y-1409700D01*
X+6678100Y-1663700D02*
X+6678100Y-1643380D01*
X+6678100Y-1564200D01*
X+6832600Y-1409700D01*
D10*
X+6678100Y-1663700D02*
X+6678100Y-1869880D01*
X+6705600Y-1897380D01*
D18*
X+6832600Y-1409700D02*
X+7250985Y-1409700D01*
X+7259600Y-1401085D01*
X+7259600Y-1238496D02*
X+7259600Y-1401085D01*
X+7259600Y-1442952D01*
X+6415300Y-1109400D02*
X+6415300Y-1616180D01*
X+6388100Y-1643380D01*
X-762000Y-1402080D02*
X-762000Y-2584765D01*
X-1124571Y-2947336D01*
X-1054100Y-2971800D01*
D70*
X-1270000Y-2413000D03*
X+6032500Y-2095500D03*
X+1079500Y-2413000D03*
D71*
X+3429000Y-3302000D03*
D70*
X+8128000Y-2730500D03*
D20*
X-2984500Y+1587500D03*
X-571500Y+1651000D03*
X+1714500Y+1651000D03*
X+4134346Y+1645009D03*
X+5778500Y+1968500D03*
X+6437156Y+1707029D03*
X+3365500Y+2095500D03*
X+952500Y+2095500D03*
X-1333500Y+2095500D03*
D70*
X-4635500Y-2476500D03*
X-3175000Y-3873500D03*
X-3746500Y+190500D03*
D20*
X-4263961Y+1955083D03*
D70*
X+1206500Y-2870200D03*
X-5394560Y+718686D03*
X-3710965Y-739165D03*
X-3579519Y-3792125D03*
X-3543300Y-2882900D03*
X+4694397Y-3045266D03*
X+6750617Y-2928609D03*
X-1054100Y-2971800D03*
D13*
X+8448040Y-4193540D02*
X-6712345Y-4193540D01*
X-6502401Y-3983596D01*
X-6502401Y-3636404D01*
X-6747904Y-3390901D01*
X-7095096Y-3390901D01*
X-7340599Y-3636404D01*
X-7340599Y-3983596D01*
X-7130655Y-4193540D01*
X-7368540Y-4193540D01*
X-7368540Y+2860040D01*
X+8448040Y+2860040D01*
X+8448040Y-4193540D01*
X-6819901Y-2381811D02*
X-6819901Y-2571189D01*
X-6947462Y-2698750D01*
X-6819901Y-2826311D01*
X-6819901Y-3015689D01*
X-6953811Y-3149599D01*
X-7143189Y-3149599D01*
X-7277099Y-3015689D01*
X-7277099Y-2826311D01*
X-7149538Y-2698750D01*
X-7277099Y-2571189D01*
X-7277099Y-2381811D01*
X-7143189Y-2247901D01*
X-6953811Y-2247901D01*
X-6819901Y-2381811D01*
X+6375399Y-3200399D02*
X+6375399Y-3708399D01*
X+6070601Y-3708399D01*
X+6070601Y-2895601D01*
X+6375399Y-2895601D01*
X+6375399Y-3200399D01*
X+4787901Y+1773114D02*
X+4787901Y+1909886D01*
X+4884614Y+2006599D01*
X+5021386Y+2006599D01*
X+5118099Y+1909886D01*
X+5118099Y+1773114D01*
X+5021386Y+1676401D01*
X+4884614Y+1676401D01*
X+4787901Y+1773114D01*
X+6997701Y+1773114D02*
X+6997701Y+1909886D01*
X+7094414Y+2006599D01*
X+7231186Y+2006599D01*
X+7327899Y+1909886D01*
X+7327899Y+1773114D01*
X+7231186Y+1676401D01*
X+7094414Y+1676401D01*
X+6997701Y+1773114D01*
X+7230109Y+936833D02*
X+7394499Y+772443D01*
X+7394499Y+501649D01*
X+7403389Y+501649D01*
X+7403389Y+226053D01*
X+7405923Y+223519D01*
X+7531101Y+223519D01*
X+7531101Y+299719D01*
X+7759699Y+299719D01*
X+7759699Y-30479D01*
X+7689849Y-30479D01*
X+7689849Y-247649D01*
X+7605749Y-247649D01*
X+7605749Y-626111D01*
X+7643849Y-626111D01*
X+7643849Y-882649D01*
X+7612099Y-882649D01*
X+7612099Y-1028701D01*
X+7645153Y-1028701D01*
X+7645153Y-568754D01*
X+7861676Y-352231D01*
X+7974331Y-352231D01*
X+7974331Y-314131D01*
X+8230869Y-314131D01*
X+8230869Y-447849D01*
X+8260079Y-477059D01*
X+8260079Y-1300481D01*
X+8279129Y-1300481D01*
X+8279129Y-1478279D01*
X+8114031Y-1478279D01*
X+8114031Y-1300481D01*
X+8133081Y-1300481D01*
X+8133081Y-529661D01*
X+8108049Y-504629D01*
X+7974331Y-504629D01*
X+7974331Y-466529D01*
X+7909018Y-466529D01*
X+7759451Y-616096D01*
X+7759451Y-626111D01*
X+7943849Y-626111D01*
X+7943849Y-882649D01*
X+7912099Y-882649D01*
X+7912099Y-1028701D01*
X+8039099Y-1028701D01*
X+8039099Y-1257299D01*
X+7912099Y-1257299D01*
X+7912099Y-1440181D01*
X+7918449Y-1440181D01*
X+7918449Y-1662431D01*
X+7956551Y-1662431D01*
X+7956551Y-1656081D01*
X+8020051Y-1656081D01*
X+8020051Y-1490981D01*
X+8185149Y-1490981D01*
X+8185149Y-1668779D01*
X+8121649Y-1668779D01*
X+8121649Y-1795779D01*
X+7956551Y-1795779D01*
X+7956551Y-1789429D01*
X+7848106Y-1789429D01*
X+7784392Y-1725715D01*
X+7784392Y-1719579D01*
X+7397751Y-1719579D01*
X+7397751Y-1440181D01*
X+7531101Y-1440181D01*
X+7531102Y-1270902D01*
X+7517499Y-1257299D01*
X+7327901Y-1257299D01*
X+7327901Y-1028701D01*
X+7485101Y-1028701D01*
X+7485101Y-882649D01*
X+7453351Y-882649D01*
X+7453351Y-626111D01*
X+7491451Y-626111D01*
X+7491451Y-136629D01*
X+7499351Y-128729D01*
X+7499351Y+8889D01*
X+7531101Y+8889D01*
X+7531101Y+45721D01*
X+7403389Y+45721D01*
X+7403389Y-105409D01*
X+7207811Y-105409D01*
X+7207811Y+501649D01*
X+7216701Y+501649D01*
X+7216701Y+698797D01*
X+7104387Y+811111D01*
X+6943091Y+811111D01*
X+6943091Y+1098129D01*
X+7230109Y+1098129D01*
X+7230109Y+936833D01*
X+5581986Y+2716093D02*
X+6680629Y+2716093D01*
X+6983723Y+2412999D01*
X+7212323Y+2412999D01*
X+7962899Y+1662423D01*
X+7962899Y+1212849D01*
X+8261349Y+1212849D01*
X+8261349Y+438151D01*
X+7486651Y+438151D01*
X+7486651Y+1212849D01*
X+7785101Y+1212849D01*
X+7785101Y+1588777D01*
X+7138677Y+2235201D01*
X+6910077Y+2235201D01*
X+6606983Y+2538295D01*
X+5581986Y+2538295D01*
X+5562599Y+2518908D01*
X+5562599Y+2070099D01*
X+5682535Y+2070099D01*
X+5720635Y+2108199D01*
X+5836365Y+2108199D01*
X+5894471Y+2050093D01*
X+6095803Y+2251425D01*
X+6620755Y+2251425D01*
X+6807199Y+2064981D01*
X+6807199Y+1986086D01*
X+6883399Y+1909886D01*
X+6883399Y+1773114D01*
X+6786686Y+1676401D01*
X+6649914Y+1676401D01*
X+6553201Y+1773114D01*
X+6553201Y+1909886D01*
X+6629401Y+1986086D01*
X+6629401Y+1991335D01*
X+6547109Y+2073627D01*
X+6169449Y+2073627D01*
X+6066925Y+1971103D01*
X+6066925Y+416017D01*
X+6349993Y+132949D01*
X+6532879Y+132949D01*
X+6532879Y-67709D01*
X+6280149Y-67709D01*
X+6280149Y-211651D01*
X+6351269Y-211651D01*
X+6351269Y-214631D01*
X+6661152Y-214631D01*
X+6661152Y-105409D01*
X+6607811Y-105409D01*
X+6607811Y+487687D01*
X+6541777Y+553721D01*
X+6532879Y+553721D01*
X+6532879Y+542291D01*
X+6116321Y+542291D01*
X+6116321Y+742949D01*
X+6203951Y+742949D01*
X+6203951Y+1105119D01*
X+6445249Y+1105119D01*
X+6445249Y+742949D01*
X+6532879Y+742949D01*
X+6532879Y+731519D01*
X+6615423Y+731519D01*
X+6794499Y+552443D01*
X+6794499Y+501649D01*
X+6803389Y+501649D01*
X+6803389Y-105409D01*
X+6775448Y-105409D01*
X+6775448Y-214631D01*
X+6826251Y-214631D01*
X+6826251Y-151131D01*
X+7016749Y-151131D01*
X+7016749Y-405077D01*
X+7094426Y-405077D01*
X+7182368Y-493019D01*
X+7182368Y-848652D01*
X+7059500Y-971520D01*
X+6972299Y-971520D01*
X+6972299Y-1166549D01*
X+6718301Y-1166549D01*
X+6718301Y-894262D01*
X+6641014Y-971549D01*
X+6542299Y-971549D01*
X+6542299Y-987251D01*
X+6636217Y-987251D01*
X+6698111Y-1049145D01*
X+6698111Y-1320531D01*
X+6631169Y-1387473D01*
X+6627849Y-1391183D01*
X+6627849Y-1515111D01*
X+6737351Y-1515111D01*
X+6737351Y-1281431D01*
X+6927849Y-1281431D01*
X+6927849Y-1515111D01*
X+7054849Y-1515111D01*
X+7054849Y-1579881D01*
X+7101841Y-1579881D01*
X+7164351Y-1642391D01*
X+7164351Y-1515111D01*
X+7354849Y-1515111D01*
X+7354849Y-2025649D01*
X+7344849Y-2025649D01*
X+7344849Y-2279649D01*
X+7310505Y-2279649D01*
X+7310505Y-2284731D01*
X+7453351Y-2284731D01*
X+7453351Y-2277111D01*
X+7643849Y-2277111D01*
X+7643849Y-2531111D01*
X+7653849Y-2531111D01*
X+7653849Y-2787649D01*
X+7622099Y-2787649D01*
X+7622099Y-3008701D01*
X+7265301Y-3365499D01*
X+7264399Y-3365499D01*
X+7264399Y-3708399D01*
X+6959601Y-3708399D01*
X+6959601Y-3610405D01*
X+6804497Y-3455302D01*
X+6804497Y-3018412D01*
X+6792701Y-3030208D01*
X+6708533Y-3030208D01*
X+6649018Y-2970693D01*
X+6649018Y-2916760D01*
X+6485436Y-2753178D01*
X+6485436Y-2279649D01*
X+6320351Y-2279649D01*
X+6320351Y-2025649D01*
X+6310351Y-2025649D01*
X+6310351Y-1771649D01*
X+6292851Y-1771649D01*
X+6292851Y-1515111D01*
X+6358151Y-1515111D01*
X+6358151Y-1166549D01*
X+6288301Y-1166549D01*
X+6288301Y-857251D01*
X+6593672Y-857251D01*
X+6642262Y-808661D01*
X+6642262Y-695129D01*
X+6592569Y-695129D01*
X+6592569Y-705129D01*
X+6336031Y-705129D01*
X+6336031Y-692149D01*
X+6094731Y-692149D01*
X+6094731Y-501651D01*
X+6165851Y-501651D01*
X+6165851Y-452023D01*
X+6212797Y-405077D01*
X+6336031Y-405077D01*
X+6336031Y-402149D01*
X+6094731Y-402149D01*
X+6094731Y-211651D01*
X+6165851Y-211651D01*
X+6165851Y-67709D01*
X+6116321Y-67709D01*
X+6116321Y+115177D01*
X+5889127Y+342371D01*
X+5889127Y+1881563D01*
X+5836365Y+1828801D01*
X+5720635Y+1828801D01*
X+5682535Y+1866901D01*
X+5549899Y+1866901D01*
X+5549899Y+1212849D01*
X+5848349Y+1212849D01*
X+5848349Y+438151D01*
X+5073651Y+438151D01*
X+5073651Y+1212849D01*
X+5372101Y+1212849D01*
X+5372101Y+1913716D01*
X+5359401Y+1926416D01*
X+5359401Y+2487495D01*
X+3352799Y+2487495D01*
X+3352799Y+2235199D01*
X+3423365Y+2235199D01*
X+3505199Y+2153365D01*
X+3505199Y+2043421D01*
X+3709677Y+2247899D01*
X+4367776Y+2247899D01*
X+4584699Y+2030976D01*
X+4584699Y+1986086D01*
X+4660899Y+1909886D01*
X+4660899Y+1773114D01*
X+4564186Y+1676401D01*
X+4427414Y+1676401D01*
X+4330701Y+1773114D01*
X+4330701Y+1909886D01*
X+4392523Y+1971708D01*
X+4294130Y+2070101D01*
X+3783323Y+2070101D01*
X+3631006Y+1917784D01*
X+3631006Y+438936D01*
X+3936993Y+132949D01*
X+4119879Y+132949D01*
X+4119879Y-67709D01*
X+3842509Y-67709D01*
X+3790949Y-119269D01*
X+3790949Y-196851D01*
X+3862069Y-196851D01*
X+3862069Y-209551D01*
X+4184651Y-209551D01*
X+4184651Y-105409D01*
X+4131311Y-105409D01*
X+4131311Y+501649D01*
X+4140201Y+501649D01*
X+4140201Y+542297D01*
X+4128777Y+553721D01*
X+4119879Y+553721D01*
X+4119879Y+542291D01*
X+3703321Y+542291D01*
X+3703321Y+742949D01*
X+3790951Y+742949D01*
X+3790951Y+1105119D01*
X+4032249Y+1105119D01*
X+4032249Y+742949D01*
X+4119879Y+742949D01*
X+4119879Y+731519D01*
X+4202423Y+731519D01*
X+4317999Y+615943D01*
X+4317999Y+501649D01*
X+4326889Y+501649D01*
X+4326889Y-105409D01*
X+4298949Y-105409D01*
X+4298949Y-209551D01*
X+4349751Y-209551D01*
X+4349751Y-125731D01*
X+4540249Y-125731D01*
X+4540249Y-382269D01*
X+4357369Y-382269D01*
X+4357369Y-395268D01*
X+4567754Y-395268D01*
X+4700193Y-527707D01*
X+4700193Y-831614D01*
X+4583808Y-947999D01*
X+4474949Y-947999D01*
X+4474949Y-1142999D01*
X+4220951Y-1142999D01*
X+4220951Y-833701D01*
X+4536466Y-833701D01*
X+4585895Y-784272D01*
X+4585895Y-575049D01*
X+4520412Y-509566D01*
X+4357369Y-509566D01*
X+4357369Y-690049D01*
X+4190728Y-690049D01*
X+4190728Y-897588D01*
X+4140317Y-947999D01*
X+4044949Y-947999D01*
X+4044949Y-963701D01*
X+4125045Y-963701D01*
X+4190798Y-1029454D01*
X+4190798Y-1351022D01*
X+4146549Y-1395271D01*
X+4146549Y-1515111D01*
X+4256051Y-1515111D01*
X+4256051Y-1281431D01*
X+4446549Y-1281431D01*
X+4446549Y-1537969D01*
X+4306849Y-1537969D01*
X+4306849Y-1771649D01*
X+4296849Y-1771649D01*
X+4296849Y-2087881D01*
X+4478851Y-2087881D01*
X+4478851Y-2025649D01*
X+4468851Y-2025649D01*
X+4468851Y-1515111D01*
X+4659349Y-1515111D01*
X+4659349Y-1579881D01*
X+4694178Y-1579881D01*
X+4768851Y-1654554D01*
X+4768851Y-1515111D01*
X+4959349Y-1515111D01*
X+4959349Y-2279649D01*
X+4847690Y-2279649D01*
X+4847690Y-2386699D01*
X+4857751Y-2396760D01*
X+4857751Y-2284731D01*
X+5040351Y-2284731D01*
X+5040351Y-2277111D01*
X+5230849Y-2277111D01*
X+5230849Y-2531111D01*
X+5240849Y-2531111D01*
X+5240849Y-2787649D01*
X+5209099Y-2787649D01*
X+5209099Y-3085199D01*
X+5308601Y-3184701D01*
X+5308601Y-2895601D01*
X+5587099Y-2895601D01*
X+5651501Y-2831199D01*
X+5651502Y-2627629D01*
X+5561331Y-2627629D01*
X+5561331Y-2468879D01*
X+5530849Y-2468879D01*
X+5530849Y-2787649D01*
X+5340351Y-2787649D01*
X+5340351Y-2730499D01*
X+5307699Y-2730499D01*
X+5245101Y-2667901D01*
X+5245101Y-2240279D01*
X+4984751Y-2240279D01*
X+4984751Y-1960881D01*
X+5379132Y-1960881D01*
X+5442632Y-1897381D01*
X+5543551Y-1897381D01*
X+5543551Y-1891031D01*
X+5708649Y-1891031D01*
X+5708649Y-2030729D01*
X+5543551Y-2030729D01*
X+5543551Y-2024379D01*
X+5505449Y-2024379D01*
X+5505449Y-2240279D01*
X+5499099Y-2240279D01*
X+5499099Y-2277111D01*
X+5530849Y-2277111D01*
X+5530849Y-2341881D01*
X+5842001Y-2341881D01*
X+5842001Y-2196198D01*
X+5930901Y-2107299D01*
X+5930901Y-2090879D01*
X+5817869Y-2203911D01*
X+5817869Y-2337629D01*
X+5561331Y-2337629D01*
X+5561331Y-2147131D01*
X+5695049Y-2147131D01*
X+5814061Y-2028119D01*
X+5814061Y-1668779D01*
X+5795011Y-1668779D01*
X+5795011Y-1490981D01*
X+5960109Y-1490981D01*
X+5960109Y-1668779D01*
X+5941059Y-1668779D01*
X+5941059Y-2043258D01*
X+5990416Y-1993901D01*
X+6074584Y-1993901D01*
X+6134099Y-2053416D01*
X+6134099Y-2137584D01*
X+6074584Y-2197099D01*
X+6020701Y-2197099D01*
X+5968999Y-2248801D01*
X+5968999Y-2934601D01*
X+5841999Y-3061601D01*
X+5841999Y-3987801D01*
X+5873939Y-3987801D01*
X+5874478Y-3987262D01*
X+7080541Y-3987699D01*
X+7325803Y-3742437D01*
X+7325803Y-3424937D01*
X+7905939Y-2844801D01*
X+8141318Y-2844801D01*
X+8154020Y-2832099D01*
X+8085916Y-2832099D01*
X+8026401Y-2772584D01*
X+8026401Y-2688416D01*
X+8064501Y-2650316D01*
X+8064501Y-2635249D01*
X+7999731Y-2635249D01*
X+7999731Y-2468879D01*
X+7943849Y-2468879D01*
X+7943849Y-2787649D01*
X+7753351Y-2787649D01*
X+7753351Y-2714592D01*
X+7718398Y-2714592D01*
X+7658101Y-2654295D01*
X+7658101Y-2240279D01*
X+7397751Y-2240279D01*
X+7397751Y-1960881D01*
X+7795271Y-1960881D01*
X+7858771Y-1897381D01*
X+7956551Y-1897381D01*
X+7956551Y-1891031D01*
X+8121649Y-1891031D01*
X+8121649Y-2030729D01*
X+7956551Y-2030729D01*
X+7956551Y-2024379D01*
X+7918449Y-2024379D01*
X+7918449Y-2240279D01*
X+7912099Y-2240279D01*
X+7912099Y-2277111D01*
X+7943849Y-2277111D01*
X+7943849Y-2341881D01*
X+7999731Y-2341881D01*
X+7999731Y-2154751D01*
X+8133449Y-2154751D01*
X+8227061Y-2061139D01*
X+8227061Y-1668779D01*
X+8208011Y-1668779D01*
X+8208011Y-1490981D01*
X+8373109Y-1490981D01*
X+8373109Y-1668779D01*
X+8354059Y-1668779D01*
X+8354059Y-2113741D01*
X+8256269Y-2211531D01*
X+8256269Y-2341881D01*
X+8307791Y-2341881D01*
X+8363378Y-2397468D01*
X+8363378Y-2644752D01*
X+8376078Y-2657452D01*
X+8376078Y-2825561D01*
X+8204440Y-2997199D01*
X+7969061Y-2997199D01*
X+7478201Y-3488059D01*
X+7478201Y-3805559D01*
X+7143643Y-4140117D01*
X+7112065Y-4140106D01*
X+5937580Y-4139680D01*
X+5937061Y-4140199D01*
X-3797816Y-4140199D01*
X-3881495Y-4056520D01*
X-3881495Y-2958582D01*
X-3836859Y-2913946D01*
X-3836857Y-2913946D01*
X-3774250Y-2851339D01*
X-3774250Y-2851337D01*
X-3729614Y-2806701D01*
X-3729612Y-2806701D01*
X-3723968Y-2801057D01*
X-3624465Y-2801057D01*
X-3624465Y-2618753D01*
X-3754019Y-2489199D01*
X-3808731Y-2489199D01*
X-3808731Y-2635249D01*
X-3860801Y-2635249D01*
X-3860801Y-2926167D01*
X-3905437Y-2970803D01*
X-3905439Y-2970803D01*
X-4060605Y-3125969D01*
X-4165601Y-3125969D01*
X-4165601Y-3708399D01*
X-4470399Y-3708399D01*
X-4470399Y-3617903D01*
X-4690897Y-3617903D01*
X-4853499Y-3455302D01*
X-4853499Y-2792801D01*
X-5016499Y-2629802D01*
X-5016499Y-2604769D01*
X-5175249Y-2604769D01*
X-5175249Y-2348231D01*
X-5016499Y-2348231D01*
X-5016499Y-2287269D01*
X-5175249Y-2287269D01*
X-5175249Y-2222499D01*
X-5266251Y-2222499D01*
X-5266251Y-2287269D01*
X-5416551Y-2287269D01*
X-5416551Y-3753220D01*
X-5406182Y-3763589D01*
X-5359399Y-3763589D01*
X-5359399Y-2895601D01*
X-5054601Y-2895601D01*
X-5054601Y-3962399D01*
X-5359399Y-3962399D01*
X-5359399Y-3877887D01*
X-5453524Y-3877887D01*
X-5530849Y-3800562D01*
X-5530849Y-1537969D01*
X-5556251Y-1537969D01*
X-5556251Y-2287269D01*
X-5746749Y-2287269D01*
X-5746749Y-1522731D01*
X-5719549Y-1522731D01*
X-5719549Y-1188949D01*
X-5789399Y-1188949D01*
X-5789399Y-879651D01*
X-5534612Y-879651D01*
X-5534612Y-690049D01*
X-5624831Y-690049D01*
X-5624831Y-700049D01*
X-5881369Y-700049D01*
X-5881369Y-690049D01*
X-6135369Y-690049D01*
X-6135369Y-499551D01*
X-6060403Y-499551D01*
X-6060403Y-492343D01*
X-5998380Y-430320D01*
X-5810249Y-430320D01*
X-5810249Y-400049D01*
X-6135369Y-400049D01*
X-6135369Y-209551D01*
X-6064249Y-209551D01*
X-6064249Y-75329D01*
X-6113779Y-75329D01*
X-6113779Y+35715D01*
X-6589117Y+511053D01*
X-6589117Y+1597578D01*
X-6141996Y+2044699D01*
X-5173786Y+2044699D01*
X-5148386Y+2070099D01*
X-5011614Y+2070099D01*
X-4914901Y+1973386D01*
X-4914901Y+1836614D01*
X-5011614Y+1739901D01*
X-5148386Y+1739901D01*
X-5173786Y+1765301D01*
X-6026266Y+1765301D01*
X-6309719Y+1481848D01*
X-6309719Y+626783D01*
X-5808265Y+125329D01*
X-5697221Y+125329D01*
X-5697221Y-75329D01*
X-5808265Y-75329D01*
X-5847635Y-114699D01*
X-5949951Y-114699D01*
X-5949951Y-209551D01*
X-5562599Y-209551D01*
X-5562599Y-113029D01*
X-5587289Y-113029D01*
X-5587289Y+478467D01*
X-5654923Y+546101D01*
X-5697221Y+546101D01*
X-5697221Y+534671D01*
X-6113779Y+534671D01*
X-6113779Y+735329D01*
X-5994399Y+735329D01*
X-5994399Y+780001D01*
X-6026149Y+780001D01*
X-6026149Y+1160999D01*
X-5784851Y+1160999D01*
X-5784851Y+780001D01*
X-5816601Y+780001D01*
X-5816601Y+735329D01*
X-5697221Y+735329D01*
X-5697221Y+723899D01*
X-5677415Y+723899D01*
X-5666169Y+735145D01*
X-5592523Y+735145D01*
X-5400601Y+543223D01*
X-5400601Y+494029D01*
X-5391711Y+494029D01*
X-5391711Y-113029D01*
X-5435601Y-113029D01*
X-5435601Y-209551D01*
X-5370831Y-209551D01*
X-5370831Y-266701D01*
X-5365749Y-266701D01*
X-5365749Y-201931D01*
X-5175251Y-201931D01*
X-5175251Y-430320D01*
X-5120024Y-430320D01*
X-4974487Y-575857D01*
X-4974487Y-916489D01*
X-5051947Y-993949D01*
X-5105401Y-993949D01*
X-5105401Y-1188949D01*
X-5359399Y-1188949D01*
X-5359399Y-879651D01*
X-5099289Y-879651D01*
X-5088785Y-869147D01*
X-5088785Y-623199D01*
X-5167366Y-544618D01*
X-5370831Y-544618D01*
X-5370831Y-690049D01*
X-5420314Y-690049D01*
X-5420314Y-944029D01*
X-5470234Y-993949D01*
X-5535401Y-993949D01*
X-5535401Y-1008071D01*
X-5495682Y-1008071D01*
X-5416551Y-1087202D01*
X-5416551Y-1281431D01*
X-5378451Y-1281431D01*
X-5378451Y-1522731D01*
X-5268949Y-1522731D01*
X-5268949Y-1281431D01*
X-5078451Y-1281431D01*
X-5078451Y-1522731D01*
X-4984751Y-1522731D01*
X-4984751Y-1587501D01*
X-4970601Y-1587501D01*
X-4889501Y-1668601D01*
X-4889501Y-2095501D01*
X-4885249Y-2095501D01*
X-4885249Y-2030731D01*
X-4875249Y-2030731D01*
X-4875249Y-1522731D01*
X-4684751Y-1522731D01*
X-4684751Y-2033269D01*
X-4694751Y-2033269D01*
X-4694751Y-2287269D01*
X-4885249Y-2287269D01*
X-4885249Y-2222499D01*
X-4889501Y-2222499D01*
X-4889501Y-2577199D01*
X-4885249Y-2581451D01*
X-4885249Y-2348231D01*
X-4694751Y-2348231D01*
X-4694751Y-2604769D01*
X-4861931Y-2604769D01*
X-4726501Y-2740198D01*
X-4726501Y-3402699D01*
X-4638295Y-3490905D01*
X-4470399Y-3490905D01*
X-4470399Y-3357997D01*
X-4564547Y-3357997D01*
X-4699156Y-3223389D01*
X-4699156Y-2795355D01*
X-4661958Y-2758158D01*
X-4576249Y-2672449D01*
X-4576249Y-2541269D01*
X-4586249Y-2541269D01*
X-4586249Y-2284731D01*
X-4395751Y-2284731D01*
X-4395751Y-2538731D01*
X-4385751Y-2538731D01*
X-4385751Y-2795269D01*
X-4519469Y-2795269D01*
X-4572158Y-2847958D01*
X-4572158Y-3170786D01*
X-4511945Y-3230999D01*
X-4470399Y-3230999D01*
X-4470399Y-2895601D01*
X-4165601Y-2895601D01*
X-4165601Y-2973571D01*
X-4123727Y-2973571D01*
X-4013199Y-2863043D01*
X-4013199Y-2635249D01*
X-4065269Y-2635249D01*
X-4065269Y-2489199D01*
X-4095751Y-2489199D01*
X-4095751Y-2795269D01*
X-4286249Y-2795269D01*
X-4286249Y-2730499D01*
X-4317790Y-2730499D01*
X-4380882Y-2667407D01*
X-4380882Y-2247899D01*
X-4641849Y-2247899D01*
X-4641849Y-1968501D01*
X-4255096Y-1968501D01*
X-4255096Y-1952033D01*
X-4189014Y-1885951D01*
X-4083049Y-1885951D01*
X-4083049Y-1879601D01*
X-3917951Y-1879601D01*
X-3917951Y-2019299D01*
X-4083049Y-2019299D01*
X-4083049Y-2012949D01*
X-4121151Y-2012949D01*
X-4121151Y-2247899D01*
X-4127501Y-2247899D01*
X-4127501Y-2284731D01*
X-4095751Y-2284731D01*
X-4095751Y-2336801D01*
X-4065269Y-2336801D01*
X-4065269Y-2154751D01*
X-3985128Y-2154751D01*
X-3963301Y-2132925D01*
X-3812539Y-1982163D01*
X-3812539Y-1612899D01*
X-3831589Y-1612899D01*
X-3831589Y-1435101D01*
X-3670299Y-1435101D01*
X-3670299Y-905553D01*
X-3735088Y-840764D01*
X-3753049Y-840764D01*
X-3812564Y-781249D01*
X-3812564Y-697081D01*
X-3753049Y-637566D01*
X-3668881Y-637566D01*
X-3609366Y-697081D01*
X-3609366Y-715042D01*
X-3492501Y-831907D01*
X-3492501Y-2244046D01*
X-3224028Y-2512520D01*
X-3216418Y-2504910D01*
X-3208656Y-2504910D01*
X-3208656Y-1530349D01*
X-3232151Y-1530349D01*
X-3232151Y-2279649D01*
X-3422649Y-2279649D01*
X-3422649Y-1515111D01*
X-3384549Y-1515111D01*
X-3384549Y-1099563D01*
X-3376399Y-1091413D01*
X-3376399Y-854251D01*
X-3081371Y-854251D01*
X-3079749Y-852629D01*
X-3079749Y-659129D01*
X-3392169Y-659129D01*
X-3392169Y-654049D01*
X-3646169Y-654049D01*
X-3646169Y-463551D01*
X-3575049Y-463551D01*
X-3575049Y-424901D01*
X-3514197Y-364049D01*
X-3646169Y-364049D01*
X-3646169Y-173551D01*
X-3575049Y-173551D01*
X-3575049Y-81765D01*
X-3535679Y-42395D01*
X-3535679Y+115177D01*
X-3644901Y+224399D01*
X-3644901Y+148416D01*
X-3704416Y+88901D01*
X-3788584Y+88901D01*
X-3848099Y+148416D01*
X-3848099Y+232584D01*
X-3840472Y+240212D01*
X-4030791Y+430531D01*
X-4641849Y+430531D01*
X-4641849Y+1205229D01*
X-4343399Y+1205229D01*
X-4343399Y+1801037D01*
X-4429059Y+1886697D01*
X-4429059Y+2023469D01*
X-4394199Y+2058329D01*
X-4394199Y+2667044D01*
X-4377075Y+2684168D01*
X-4377075Y+2685059D01*
X-4295241Y+2766893D01*
X+5531186Y+2766893D01*
X+5581986Y+2716093D01*
X+8216899Y-24131D02*
X+8230869Y-24131D01*
X+8230869Y-214629D01*
X+7979849Y-214629D01*
X+7979849Y-247649D01*
X+7789351Y-247649D01*
X+7789351Y+8889D01*
X+7979849Y+8889D01*
X+7979849Y-24131D01*
X+7988301Y-24131D01*
X+7988301Y+299719D01*
X+8216899Y+299719D01*
X+8216899Y-24131D01*
X+4817109Y+936833D02*
X+4917999Y+835943D01*
X+4917999Y+501649D01*
X+4926889Y+501649D01*
X+4926889Y+226053D01*
X+4929423Y+223519D01*
X+5118101Y+223519D01*
X+5118101Y+299719D01*
X+5346699Y+299719D01*
X+5346699Y+8889D01*
X+5530849Y+8889D01*
X+5530849Y-55881D01*
X+5561331Y-55881D01*
X+5561331Y-24131D01*
X+5575301Y-24131D01*
X+5575301Y+299719D01*
X+5803899Y+299719D01*
X+5803899Y-24131D01*
X+5817869Y-24131D01*
X+5817869Y-214629D01*
X+5561331Y-214629D01*
X+5561331Y-182879D01*
X+5530849Y-182879D01*
X+5530849Y-247649D01*
X+5340351Y-247649D01*
X+5340351Y-30479D01*
X+5245099Y-30479D01*
X+5245099Y-438994D01*
X+5336178Y-347915D01*
X+5561331Y-347915D01*
X+5561331Y-314131D01*
X+5817869Y-314131D01*
X+5817869Y-447849D01*
X+5847079Y-477059D01*
X+5847079Y-1300481D01*
X+5866129Y-1300481D01*
X+5866129Y-1478279D01*
X+5701031Y-1478279D01*
X+5701031Y-1300481D01*
X+5720081Y-1300481D01*
X+5720081Y-529661D01*
X+5695049Y-504629D01*
X+5561331Y-504629D01*
X+5561331Y-474913D01*
X+5388780Y-474913D01*
X+5333999Y-529694D01*
X+5333999Y-1028701D01*
X+5397501Y-1028701D01*
X+5397501Y-882649D01*
X+5340351Y-882649D01*
X+5340351Y-626111D01*
X+5530849Y-626111D01*
X+5530849Y-882649D01*
X+5524499Y-882649D01*
X+5524499Y-1028701D01*
X+5626099Y-1028701D01*
X+5626099Y-1257299D01*
X+5524499Y-1257299D01*
X+5524499Y-1606181D01*
X+5505765Y-1624915D01*
X+5505765Y-1662432D01*
X+5543551Y-1662432D01*
X+5543551Y-1656081D01*
X+5607051Y-1656081D01*
X+5607051Y-1490981D01*
X+5772149Y-1490981D01*
X+5772149Y-1668779D01*
X+5708649Y-1668779D01*
X+5708649Y-1795779D01*
X+5543551Y-1795779D01*
X+5543551Y-1789428D01*
X+5447680Y-1789428D01*
X+5378767Y-1720515D01*
X+5378767Y-1719579D01*
X+4984751Y-1719579D01*
X+4984751Y-1440181D01*
X+5118101Y-1440181D01*
X+5118101Y-1407024D01*
X+5051984Y-1340907D01*
X+5051984Y-1257299D01*
X+4914901Y-1257299D01*
X+4914901Y-1028701D01*
X+5016501Y-1028701D01*
X+5016501Y-783679D01*
X+5040351Y-759829D01*
X+5040351Y-626111D01*
X+5118101Y-626111D01*
X+5118101Y-247649D01*
X+5050351Y-247649D01*
X+5050351Y+8889D01*
X+5118101Y+8889D01*
X+5118101Y+45721D01*
X+4926889Y+45721D01*
X+4926889Y-105409D01*
X+4731311Y-105409D01*
X+4731311Y+501649D01*
X+4740201Y+501649D01*
X+4740201Y+762297D01*
X+4691387Y+811111D01*
X+4530091Y+811111D01*
X+4530091Y+1098129D01*
X+4817109Y+1098129D01*
X+4817109Y+936833D01*
X+7230109Y+1261111D02*
X+6943091Y+1261111D01*
X+6943091Y+1548129D01*
X+7230109Y+1548129D01*
X+7230109Y+1261111D01*
X+4817109Y+1261111D02*
X+4530091Y+1261111D01*
X+4530091Y+1548129D01*
X+4817109Y+1548129D01*
X+4817109Y+1261111D01*
X+6445249Y+1168621D02*
X+6203951Y+1168621D01*
X+6203951Y+1549619D01*
X+6445249Y+1549619D01*
X+6445249Y+1168621D01*
X+4032249Y+1168621D02*
X+3790951Y+1168621D01*
X+3790951Y+1549619D01*
X+4032249Y+1549619D01*
X+4032249Y+1168621D01*
X+7126251Y-151131D02*
X+7316749Y-151131D01*
X+7316749Y-407669D01*
X+7126251Y-407669D01*
X+7126251Y-151131D01*
X+4649751Y-125731D02*
X+4840249Y-125731D01*
X+4840249Y-382269D01*
X+4649751Y-382269D01*
X+4649751Y-125731D01*
X-3911601Y-38099D02*
X-3937001Y-38099D01*
X-3937001Y-95251D01*
X-3872231Y-95251D01*
X-3872231Y-285749D01*
X-4123251Y-285749D01*
X-4123251Y-318769D01*
X-4313749Y-318769D01*
X-4313749Y-62231D01*
X-4123251Y-62231D01*
X-4123251Y-95251D01*
X-4063999Y-95251D01*
X-4063999Y-38099D01*
X-4140199Y-38099D01*
X-4140199Y+292099D01*
X-3911601Y+292099D01*
X-3911601Y-38099D01*
X-4936491Y+970863D02*
X-4930880Y+963007D01*
X-4800601Y+832728D01*
X-4800601Y+494029D01*
X-4791711Y+494029D01*
X-4791711Y+218433D01*
X-4789177Y+215899D01*
X-4597399Y+215899D01*
X-4597399Y+292099D01*
X-4368801Y+292099D01*
X-4368801Y-38099D01*
X-4419601Y-38099D01*
X-4419601Y-62231D01*
X-4413251Y-62231D01*
X-4413251Y-318769D01*
X-4427501Y-318769D01*
X-4427501Y-633731D01*
X-4395751Y-633731D01*
X-4395751Y-890269D01*
X-4417502Y-890269D01*
X-4417502Y-1042811D01*
X-4395609Y-1042811D01*
X-4395609Y-540103D01*
X-4272507Y-417001D01*
X-4128769Y-417001D01*
X-4128769Y-385251D01*
X-3872231Y-385251D01*
X-3872231Y-575749D01*
X-3873501Y-575749D01*
X-3873501Y-1213219D01*
X-3842119Y-1244601D01*
X-3760471Y-1244601D01*
X-3760471Y-1422399D01*
X-3925569Y-1422399D01*
X-3925569Y-1340751D01*
X-3994911Y-1271409D01*
X-4078111Y-1271409D01*
X-4078111Y-1613801D01*
X-4115309Y-1650999D01*
X-4121151Y-1650999D01*
X-4121151Y-1651001D01*
X-4083049Y-1651001D01*
X-4083049Y-1644651D01*
X-3917951Y-1644651D01*
X-3917951Y-1784349D01*
X-4083049Y-1784349D01*
X-4083049Y-1777999D01*
X-4222551Y-1777999D01*
X-4260413Y-1740137D01*
X-4260413Y-1727199D01*
X-4641849Y-1727199D01*
X-4641849Y-1447801D01*
X-4508499Y-1447801D01*
X-4508499Y-1271409D01*
X-4687709Y-1271409D01*
X-4687709Y-1042811D01*
X-4544498Y-1042811D01*
X-4544498Y-890269D01*
X-4586249Y-890269D01*
X-4586249Y-633731D01*
X-4554499Y-633731D01*
X-4554499Y-318769D01*
X-4603749Y-318769D01*
X-4603749Y-62231D01*
X-4546599Y-62231D01*
X-4546599Y-38099D01*
X-4597399Y-38099D01*
X-4597399Y+38101D01*
X-4791711Y+38101D01*
X-4791711Y-113029D01*
X-4987289Y-113029D01*
X-4987289Y+494029D01*
X-4978399Y+494029D01*
X-4978399Y+759082D01*
X-5065586Y+846269D01*
X-5082389Y+866991D01*
X-5223509Y+866991D01*
X-5223509Y+1154009D01*
X-4936491Y+1154009D01*
X-4936491Y+970863D01*
X-4936491Y+1316991D02*
X-5223509Y+1316991D01*
X-5223509Y+1604009D01*
X-4936491Y+1604009D01*
X-4936491Y+1316991D01*
X-3854451Y-1612899D02*
X-4019549Y-1612899D01*
X-4019549Y-1435101D01*
X-3854451Y-1435101D01*
X-3854451Y-1612899D01*
X-5784851Y+1224501D02*
X-6026149Y+1224501D01*
X-6026149Y+1605499D01*
X-5784851Y+1605499D01*
X-5784851Y+1224501D01*
X-5065749Y-201931D02*
X-4875251Y-201931D01*
X-4875251Y-458469D01*
X-5065749Y-458469D01*
X-5065749Y-201931D01*
X-7340599Y+2239404D02*
X-7340599Y+2586596D01*
X-7095096Y+2832099D01*
X-6747904Y+2832099D01*
X-6502401Y+2586596D01*
X-6502401Y+2239404D01*
X-6747904Y+1993901D01*
X-7095096Y+1993901D01*
X-7340599Y+2239404D01*
X+7581901Y+2239404D02*
X+7581901Y+2586596D01*
X+7827404Y+2832099D01*
X+8174596Y+2832099D01*
X+8420099Y+2586596D01*
X+8420099Y+2239404D01*
X+8174596Y+1993901D01*
X+7827404Y+1993901D01*
X+7581901Y+2239404D01*
X+7581901Y-3920096D02*
X+7581901Y-3572904D01*
X+7827404Y-3327401D01*
X+8174596Y-3327401D01*
X+8420099Y-3572904D01*
X+8420099Y-3920096D01*
X+8174596Y-4165599D01*
X+7827404Y-4165599D01*
X+7581901Y-3920096D01*
X-4800599Y+1836614D02*
X-4800599Y+1973386D01*
X-4703886Y+2070099D01*
X-4567114Y+2070099D01*
X-4470401Y+1973386D01*
X-4470401Y+1836614D01*
X-4567114Y+1739901D01*
X-4703886Y+1739901D01*
X-4800599Y+1836614D01*
X+4096246Y+1629227D02*
X+4096246Y+1660791D01*
X+4118564Y+1683109D01*
X+4150128Y+1683109D01*
X+4172446Y+1660791D01*
X+4172446Y+1629227D01*
X+4150128Y+1606909D01*
X+4118564Y+1606909D01*
X+4096246Y+1629227D01*
X+6399056Y+1691247D02*
X+6399056Y+1722811D01*
X+6421374Y+1745129D01*
X+6452938Y+1745129D01*
X+6475256Y+1722811D01*
X+6475256Y+1691247D01*
X+6452938Y+1668929D01*
X+6421374Y+1668929D01*
X+6399056Y+1691247D01*
X-4673600Y-2492282D02*
X-4673600Y-2460718D01*
X-4651282Y-2438400D01*
X-4619718Y-2438400D01*
X-4597400Y-2460718D01*
X-4597400Y-2492282D01*
X-4619718Y-2514600D01*
X-4651282Y-2514600D01*
X-4673600Y-2492282D01*
X-5432660Y+702904D02*
X-5432660Y+734468D01*
X-5410342Y+756786D01*
X-5378778Y+756786D01*
X-5356460Y+734468D01*
X-5356460Y+702904D01*
X-5378778Y+680586D01*
X-5410342Y+680586D01*
X-5432660Y+702904D01*
X+3124201Y+2095500D02*
X+3124201Y+2048156D01*
X+3149601Y+2022756D01*
X+3149601Y+1672471D01*
X+2959101Y+1481971D01*
X+2959101Y+1212849D01*
X+2660651Y+1212849D01*
X+2660651Y+438151D01*
X+3435349Y+438151D01*
X+3435349Y+1212849D01*
X+3136899Y+1212849D01*
X+3136899Y+1408325D01*
X+3327399Y+1598825D01*
X+3327399Y+1955801D01*
X+3423365Y+1955801D01*
X+3453208Y+1985644D01*
X+3453208Y+365290D01*
X+3703321Y+115177D01*
X+3703321Y-45257D01*
X+3676651Y-71927D01*
X+3676651Y-196851D01*
X+3605531Y-196851D01*
X+3605531Y-387349D01*
X+3846831Y-387349D01*
X+3846831Y-395268D01*
X+3718950Y-395268D01*
X+3676652Y-437566D01*
X+3676652Y-486851D01*
X+3605531Y-486851D01*
X+3605531Y-677349D01*
X+3846831Y-677349D01*
X+3846831Y-700049D01*
X+4076430Y-700049D01*
X+4076430Y-833701D01*
X+3790951Y-833701D01*
X+3790951Y-1142999D01*
X+3854451Y-1142999D01*
X+3854451Y-1515111D01*
X+3816351Y-1515111D01*
X+3816351Y-2279649D01*
X+4006849Y-2279649D01*
X+4006849Y-1537969D01*
X+4006851Y-1537969D01*
X+4006851Y-2438540D01*
X+4592798Y-3024487D01*
X+4592798Y-3087350D01*
X+4652313Y-3146865D01*
X+4736481Y-3146865D01*
X+4762501Y-3120845D01*
X+4762501Y-3455301D01*
X+4926699Y-3619499D01*
X+5308601Y-3619499D01*
X+5308601Y-3708399D01*
X+5613399Y-3708399D01*
X+5613399Y-3048901D01*
X+5778499Y-2883802D01*
X+5778498Y-2627629D01*
X+5817869Y-2627629D01*
X+5817869Y-2468879D01*
X+5842001Y-2468879D01*
X+5842001Y-2881999D01*
X+5715001Y-3008999D01*
X+5715001Y-3987801D01*
X+3492499Y-3987801D01*
X+3492499Y-3346263D01*
X+3505199Y-3333563D01*
X+3505199Y-3270437D01*
X+3492499Y-3257737D01*
X+3492499Y-2925774D01*
X+3490767Y-2924042D01*
X+3490767Y-2767698D01*
X+3490766Y-2623687D01*
X+3490767Y-2427072D01*
X+3405576Y-2341881D01*
X+3404869Y-2341881D01*
X+3404869Y-2239911D01*
X+3528059Y-2116721D01*
X+3528059Y-1668779D01*
X+3547109Y-1668779D01*
X+3547109Y-1490981D01*
X+3382011Y-1490981D01*
X+3382011Y-1668779D01*
X+3401061Y-1668779D01*
X+3401061Y-2064119D01*
X+3282049Y-2183131D01*
X+3148331Y-2183131D01*
X+3148331Y-2341881D01*
X+3117849Y-2341881D01*
X+3117849Y-2277111D01*
X+3086099Y-2277111D01*
X+3086099Y-2240279D01*
X+3092449Y-2240279D01*
X+3092449Y-2024379D01*
X+3130551Y-2024379D01*
X+3130551Y-2030729D01*
X+3295649Y-2030729D01*
X+3295649Y-1891031D01*
X+3130551Y-1891031D01*
X+3130551Y-1897381D01*
X+3034448Y-1897381D01*
X+2970948Y-1960881D01*
X+2571751Y-1960881D01*
X+2571751Y-2240279D01*
X+2832101Y-2240279D01*
X+2832101Y-2655854D01*
X+2899126Y-2722879D01*
X+2927351Y-2722879D01*
X+2927351Y-2787649D01*
X+3117849Y-2787649D01*
X+3117849Y-2468879D01*
X+3352973Y-2468879D01*
X+3357225Y-2473131D01*
X+3148331Y-2473131D01*
X+3148331Y-2663629D01*
X+3213101Y-2663629D01*
X+3213101Y-2847566D01*
X+3136899Y-2923768D01*
X+3136899Y-2895601D01*
X+2832101Y-2895601D01*
X+2832101Y-3235792D01*
X+2817592Y-3235792D01*
X+2793999Y-3212199D01*
X+2793999Y-2787649D01*
X+2827849Y-2787649D01*
X+2827849Y-2531111D01*
X+2817849Y-2531111D01*
X+2817849Y-2277111D01*
X+2627351Y-2277111D01*
X+2627351Y-2284731D01*
X+2444751Y-2284731D01*
X+2444751Y-2541269D01*
X+2635249Y-2541269D01*
X+2635249Y-2533649D01*
X+2637351Y-2533649D01*
X+2637351Y-2787649D01*
X+2667001Y-2787649D01*
X+2667001Y-3264802D01*
X+2764990Y-3362790D01*
X+2832101Y-3362790D01*
X+2832101Y-3483789D01*
X+2552842Y-3483789D01*
X+2423599Y-3354546D01*
X+2423599Y-2386698D01*
X+2423598Y-2279649D01*
X+2455349Y-2279649D01*
X+2455349Y-2025649D01*
X+2465349Y-2025649D01*
X+2465349Y-1515111D01*
X+2274851Y-1515111D01*
X+2274851Y-1668573D01*
X+2186159Y-1579881D01*
X+2165349Y-1579881D01*
X+2165349Y-1515111D01*
X+2033549Y-1515111D01*
X+2033549Y-1286511D01*
X+1843051Y-1286511D01*
X+1843051Y-1515111D01*
X+1733549Y-1515111D01*
X+1733549Y-1393513D01*
X+1737413Y-1388955D01*
X+1758949Y-1367419D01*
X+1758949Y-1043129D01*
X+1698571Y-982751D01*
X+1625599Y-982751D01*
X+1625599Y-963239D01*
X+1714684Y-963239D01*
X+1801601Y-876322D01*
X+1801601Y-1162049D01*
X+2055599Y-1162049D01*
X+2055599Y-963239D01*
X+2155564Y-963239D01*
X+2262844Y-855959D01*
X+2262844Y-578587D01*
X+2262843Y-524703D01*
X+2109096Y-370956D01*
X+1602739Y-370956D01*
X+1602739Y-346429D01*
X+1670331Y-346429D01*
X+1670331Y-356429D01*
X+1926869Y-356429D01*
X+1926869Y-314519D01*
X+1931671Y-314519D01*
X+1931671Y-369569D01*
X+2122169Y-369569D01*
X+2122169Y-113031D01*
X+1931671Y-113031D01*
X+1931671Y-207841D01*
X+1926869Y-207841D01*
X+1926869Y-165931D01*
X+1879599Y-165931D01*
X+1879599Y-105409D01*
X+1913889Y-105409D01*
X+1913889Y+501649D01*
X+1904999Y+501649D01*
X+1904999Y+615943D01*
X+1789423Y+731519D01*
X+1706879Y+731519D01*
X+1706879Y+742949D01*
X+1619249Y+742949D01*
X+1619249Y+1105119D01*
X+1377951Y+1105119D01*
X+1377951Y+742949D01*
X+1290321Y+742949D01*
X+1290321Y+542291D01*
X+1706879Y+542291D01*
X+1706879Y+553721D01*
X+1715777Y+553721D01*
X+1727201Y+542297D01*
X+1727201Y+501649D01*
X+1718311Y+501649D01*
X+1718311Y-105409D01*
X+1752601Y-105409D01*
X+1752601Y-146699D01*
X+1735101Y-164199D01*
X+1735101Y-165931D01*
X+1677669Y-165931D01*
X+1677669Y-155931D01*
X+1436369Y-155931D01*
X+1436369Y-153231D01*
X+1371599Y-153231D01*
X+1371599Y-143039D01*
X+1446929Y-67709D01*
X+1706879Y-67709D01*
X+1706879Y+132949D01*
X+1523993Y+132949D01*
X+1246011Y+410931D01*
X+1246011Y+1928916D01*
X+1399466Y+2082371D01*
X+2061437Y+2082371D01*
X+2133601Y+2010207D01*
X+2133601Y+1986086D01*
X+2057401Y+1909886D01*
X+2057401Y+1773114D01*
X+2154114Y+1676401D01*
X+2290886Y+1676401D01*
X+2387599Y+1773114D01*
X+2387599Y+1909886D01*
X+2311399Y+1986086D01*
X+2311399Y+2083853D01*
X+2135083Y+2260169D01*
X+1325820Y+2260169D01*
X+1068213Y+2002562D01*
X+1068213Y+337285D01*
X+1290321Y+115177D01*
X+1290321Y-44717D01*
X+1244601Y-90437D01*
X+1244601Y-153231D01*
X+1179831Y-153231D01*
X+1179831Y-343729D01*
X+1421131Y-343729D01*
X+1421131Y-346429D01*
X+1496061Y-346429D01*
X+1496061Y-370956D01*
X+1310193Y-370956D01*
X+1260514Y-420635D01*
X+1260514Y-443231D01*
X+1179831Y-443231D01*
X+1179831Y-633729D01*
X+1421131Y-633729D01*
X+1421131Y-646429D01*
X+1713046Y-646429D01*
X+1713046Y-814013D01*
X+1670498Y-856561D01*
X+1625599Y-856561D01*
X+1625599Y-852751D01*
X+1371601Y-852751D01*
X+1371601Y-1162049D01*
X+1441451Y-1162049D01*
X+1441451Y-1515111D01*
X+1403351Y-1515111D01*
X+1403351Y-2279649D01*
X+1581151Y-2279649D01*
X+1581151Y-2546936D01*
X+1528293Y-2599796D01*
X+1508663Y-2619424D01*
X+1471466Y-2656621D01*
X+1471466Y-2665602D01*
X+1450272Y-2686796D01*
X+1441292Y-2686796D01*
X+1320608Y-2807480D01*
X+1287166Y-2807183D01*
X+1248584Y-2768601D01*
X+1164416Y-2768601D01*
X+1104901Y-2828116D01*
X+1104901Y-2912284D01*
X+1164416Y-2971799D01*
X+1248584Y-2971799D01*
X+1286024Y-2934359D01*
X+1372788Y-2934900D01*
X+1531092Y-2776596D01*
X+1531092Y-2767616D01*
X+1552286Y-2746422D01*
X+1561268Y-2746422D01*
X+1598465Y-2709225D01*
X+1598465Y-2709223D01*
X+1618094Y-2689596D01*
X+1696193Y-2611496D01*
X+1696193Y-2558892D01*
X+1695449Y-2558148D01*
X+1695449Y-2279649D01*
X+1883849Y-2279649D01*
X+1883849Y-2214879D01*
X+1974851Y-2214879D01*
X+1974851Y-2279649D01*
X+2165349Y-2279649D01*
X+2165349Y-2130432D01*
X+2245511Y-2210594D01*
X+2264851Y-2210594D01*
X+2264851Y-2279649D01*
X+2296602Y-2279649D01*
X+2296602Y-2284731D01*
X+2154751Y-2284731D01*
X+2154751Y-2541269D01*
X+2296601Y-2541269D01*
X+2296601Y-3407148D01*
X+2500240Y-3610787D01*
X+2832101Y-3610787D01*
X+2832101Y-3708399D01*
X+3136899Y-3708399D01*
X+3136899Y-3103368D01*
X+3340099Y-2900169D01*
X+3340099Y-2663629D01*
X+3363769Y-2663629D01*
X+3363769Y-2976644D01*
X+3365501Y-2978376D01*
X+3365501Y-3257737D01*
X+3352801Y-3270437D01*
X+3352801Y-3333563D01*
X+3365501Y-3346263D01*
X+3365501Y-3987801D01*
X+1079499Y-3987801D01*
X+1079499Y-2514599D01*
X+1121584Y-2514599D01*
X+1181099Y-2455084D01*
X+1181099Y-2370916D01*
X+1121584Y-2311401D01*
X+1037416Y-2311401D01*
X+1006936Y-2341881D01*
X+704849Y-2341881D01*
X+704849Y-2277111D01*
X+673099Y-2277111D01*
X+673099Y-2240279D01*
X+679449Y-2240279D01*
X+679449Y-2024379D01*
X+717551Y-2024379D01*
X+717551Y-2030729D01*
X+882649Y-2030729D01*
X+882649Y-1891031D01*
X+717551Y-1891031D01*
X+717551Y-1897381D01*
X+600252Y-1897381D01*
X+546381Y-1951252D01*
X+546381Y-1960881D01*
X+158751Y-1960881D01*
X+158751Y-2240279D01*
X+419101Y-2240279D01*
X+419101Y-2660751D01*
X+479817Y-2721467D01*
X+514351Y-2721467D01*
X+514351Y-2787649D01*
X+704849Y-2787649D01*
X+704849Y-2468879D01*
X+735331Y-2468879D01*
X+735331Y-2627629D01*
X+800101Y-2627629D01*
X+800102Y-2721976D01*
X+800101Y-2885271D01*
X+723899Y-2961473D01*
X+723899Y-2895601D01*
X+419101Y-2895601D01*
X+419101Y-3184701D01*
X+383099Y-3148699D01*
X+383099Y-2787649D01*
X+414849Y-2787649D01*
X+414849Y-2531111D01*
X+404849Y-2531111D01*
X+404849Y-2277111D01*
X+214351Y-2277111D01*
X+214351Y-2284731D01*
X+31751Y-2284731D01*
X+31751Y-2541269D01*
X+222249Y-2541269D01*
X+222249Y-2533649D01*
X+224351Y-2533649D01*
X+224351Y-2787649D01*
X+256101Y-2787649D01*
X+256101Y-3201302D01*
X+293299Y-3238499D01*
X+419101Y-3364301D01*
X+419101Y-3492502D01*
X+412750Y-3492502D01*
X+280301Y-3492501D01*
X+10176Y-3222376D01*
X+10177Y-2279649D01*
X+105849Y-2279649D01*
X+105849Y-2025649D01*
X+115849Y-2025649D01*
X+115849Y-1515111D01*
X-74649Y-1515111D01*
X-74649Y-1660956D01*
X-155724Y-1579881D01*
X-184151Y-1579881D01*
X-184151Y-1515111D01*
X-366751Y-1515111D01*
X-366751Y-1273811D01*
X-557249Y-1273811D01*
X-557249Y-1515111D01*
X-666751Y-1515111D01*
X-666751Y-1387651D01*
X-647963Y-1368863D01*
X-647963Y-1062418D01*
X-713429Y-996952D01*
X-772901Y-996952D01*
X-772901Y-981249D01*
X-705335Y-981249D01*
X-624348Y-900262D01*
X-624348Y-707829D01*
X-455931Y-707829D01*
X-455931Y-535678D01*
X-327539Y-535678D01*
X-274354Y-588863D01*
X-274354Y-857656D01*
X-283649Y-866951D01*
X-596899Y-866951D01*
X-596899Y-1176249D01*
X-342901Y-1176249D01*
X-342901Y-981249D01*
X-236307Y-981249D01*
X-160056Y-904998D01*
X-160056Y-541521D01*
X-280197Y-421380D01*
X-762898Y-421380D01*
X-762898Y-418879D01*
X-696181Y-418879D01*
X-696181Y-417829D01*
X-476529Y-417829D01*
X-476529Y-420369D01*
X-286031Y-420369D01*
X-286031Y-163831D01*
X-476529Y-163831D01*
X-476529Y-227331D01*
X-520701Y-227331D01*
X-520701Y-105409D01*
X-499111Y-105409D01*
X-499111Y+501649D01*
X-508001Y+501649D01*
X-508001Y+615943D01*
X-623577Y+731519D01*
X-706121Y+731519D01*
X-706121Y+742949D01*
X-793751Y+742949D01*
X-793751Y+1105119D01*
X-1035049Y+1105119D01*
X-1035049Y+742949D01*
X-1098581Y+742949D01*
X-1098581Y+1870938D01*
X-988318Y+1981201D01*
X-240023Y+1981201D01*
X-179604Y+1920782D01*
X-190499Y+1909886D01*
X-190499Y+1773114D01*
X-93786Y+1676401D01*
X+42986Y+1676401D01*
X+139699Y+1773114D01*
X+139699Y+1909886D01*
X+42986Y+2006599D01*
X-13977Y+2006599D01*
X-166377Y+2158999D01*
X-1061964Y+2158999D01*
X-1276379Y+1944584D01*
X-1276379Y+74839D01*
X-1145261Y-56279D01*
X-1122679Y-56279D01*
X-1122679Y-67709D01*
X-1113840Y-67709D01*
X-1130299Y-84168D01*
X-1130299Y-227331D01*
X-1195069Y-227331D01*
X-1195069Y-417829D01*
X-952719Y-417829D01*
X-952719Y-418879D01*
X-877196Y-418879D01*
X-877196Y-421380D01*
X-1067933Y-421380D01*
X-1118627Y-472074D01*
X-1118627Y-517331D01*
X-1195069Y-517331D01*
X-1195069Y-707829D01*
X-952719Y-707829D01*
X-952719Y-718879D01*
X-738646Y-718879D01*
X-738646Y-852920D01*
X-752677Y-866951D01*
X-1026899Y-866951D01*
X-1026899Y-1176249D01*
X-957049Y-1176249D01*
X-957049Y-1515111D01*
X-1009649Y-1515111D01*
X-1009649Y-2279649D01*
X-819151Y-2279649D01*
X-819151Y-1530349D01*
X-819149Y-1530349D01*
X-819149Y-2561094D01*
X-1187347Y-2929292D01*
X-1173195Y-2990950D01*
X-1155699Y-2997917D01*
X-1155699Y-3013884D01*
X-1096184Y-3073399D01*
X-1012016Y-3073399D01*
X-952501Y-3013884D01*
X-952501Y-2929716D01*
X-989316Y-2892901D01*
X-704851Y-2608436D01*
X-704851Y-2279649D01*
X-529151Y-2279649D01*
X-529151Y-2214879D01*
X-374649Y-2214879D01*
X-374649Y-2279649D01*
X-184151Y-2279649D01*
X-184151Y-2129817D01*
X-116821Y-2197147D01*
X-116821Y-2284731D01*
X-258249Y-2284731D01*
X-258249Y-2541269D01*
X-116821Y-2541269D01*
X-116820Y-3274980D01*
X+227698Y-3619499D01*
X+419101Y-3619498D01*
X+419101Y-3708399D01*
X+723899Y-3708399D01*
X+723899Y-3111499D01*
X+753473Y-3111499D01*
X+927099Y-2937874D01*
X+927098Y-2721976D01*
X+927099Y-2627629D01*
X+952501Y-2627629D01*
X+952501Y-3987801D01*
X-1206501Y-3987801D01*
X-1206501Y-2493184D01*
X-1168401Y-2455084D01*
X-1168401Y-2370916D01*
X-1227916Y-2311401D01*
X-1312084Y-2311401D01*
X-1342564Y-2341881D01*
X-1421131Y-2341881D01*
X-1421131Y-2239911D01*
X-1297941Y-2116721D01*
X-1297941Y-1668779D01*
X-1278891Y-1668779D01*
X-1278891Y-1490981D01*
X-1443989Y-1490981D01*
X-1443989Y-1668779D01*
X-1424939Y-1668779D01*
X-1424939Y-2064119D01*
X-1543951Y-2183131D01*
X-1677669Y-2183131D01*
X-1677669Y-2341881D01*
X-1708151Y-2341881D01*
X-1708151Y-2277111D01*
X-1739901Y-2277111D01*
X-1739901Y-2240279D01*
X-1733551Y-2240279D01*
X-1733551Y-2044331D01*
X-1713599Y-2024379D01*
X-1695449Y-2024379D01*
X-1695449Y-2030729D01*
X-1530351Y-2030729D01*
X-1530351Y-1891031D01*
X-1695449Y-1891031D01*
X-1695449Y-1897381D01*
X-1766201Y-1897381D01*
X-1829701Y-1960881D01*
X-2254249Y-1960881D01*
X-2254249Y-2240279D01*
X-1993899Y-2240279D01*
X-1993898Y-2653546D01*
X-1924893Y-2722551D01*
X-1898649Y-2722551D01*
X-1898649Y-2787649D01*
X-1708151Y-2787649D01*
X-1708151Y-2468879D01*
X-1357804Y-2468879D01*
X-1333499Y-2493184D01*
X-1333499Y-3987801D01*
X-3729097Y-3987801D01*
X-3729097Y-3021706D01*
X-3666490Y-2959099D01*
X-3610784Y-2959099D01*
X-3585384Y-2984499D01*
X-3501216Y-2984499D01*
X-3441701Y-2924984D01*
X-3441701Y-2840816D01*
X-3472067Y-2810450D01*
X-3472067Y-2555629D01*
X-3516703Y-2510993D01*
X-3516705Y-2510993D01*
X-3646259Y-2381439D01*
X-3646259Y-2381437D01*
X-3690895Y-2336801D01*
X-3808731Y-2336801D01*
X-3808731Y-2157955D01*
X-3685541Y-2034766D01*
X-3685541Y-1612899D01*
X-3670299Y-1612899D01*
X-3670299Y-2317692D01*
X-3397662Y-2590329D01*
X-3397662Y-3484546D01*
X-3603642Y-3690526D01*
X-3621603Y-3690526D01*
X-3681118Y-3750041D01*
X-3681118Y-3834209D01*
X-3621603Y-3893724D01*
X-3537435Y-3893724D01*
X-3477920Y-3834209D01*
X-3477920Y-3816248D01*
X-3248734Y-3587062D01*
X-3248734Y-3803551D01*
X-3276599Y-3831416D01*
X-3276599Y-3915584D01*
X-3217084Y-3975099D01*
X-3132916Y-3975099D01*
X-3073401Y-3915584D01*
X-3073401Y-3831416D01*
X-3096336Y-3808481D01*
X-3096336Y-2573408D01*
X-3094358Y-2571430D01*
X-3094358Y-2279649D01*
X-2942151Y-2279649D01*
X-2942151Y-2214879D01*
X-2787649Y-2214879D01*
X-2787649Y-2279649D01*
X-2597151Y-2279649D01*
X-2597151Y-1748206D01*
X-2589207Y-1756150D01*
X-2589207Y-2090373D01*
X-2528200Y-2151380D01*
X-2531462Y-2154642D01*
X-2531462Y-2284731D01*
X-2671249Y-2284731D01*
X-2671249Y-2541269D01*
X-2531462Y-2541269D01*
X-2531462Y-3392180D01*
X-2305537Y-3618105D01*
X-1930399Y-3618105D01*
X-1930399Y-3708399D01*
X-1625601Y-3708399D01*
X-1625601Y-3023501D01*
X-1485901Y-2883802D01*
X-1485901Y-2663629D01*
X-1421131Y-2663629D01*
X-1421131Y-2473131D01*
X-1677669Y-2473131D01*
X-1677669Y-2663629D01*
X-1612899Y-2663629D01*
X-1612899Y-2831199D01*
X-1677301Y-2895601D01*
X-1930399Y-2895601D01*
X-1930399Y-3238501D01*
X-1940099Y-3238501D01*
X-2029901Y-3148699D01*
X-2029901Y-2787649D01*
X-1998151Y-2787649D01*
X-1998151Y-2531111D01*
X-2008151Y-2531111D01*
X-2008151Y-2277111D01*
X-2198649Y-2277111D01*
X-2198649Y-2284731D01*
X-2381249Y-2284731D01*
X-2381249Y-2541269D01*
X-2190751Y-2541269D01*
X-2190751Y-2533649D01*
X-2188649Y-2533649D01*
X-2188649Y-2787649D01*
X-2156899Y-2787649D01*
X-2156899Y-3201302D01*
X-2119701Y-3238499D01*
X-1992701Y-3365499D01*
X-1930399Y-3365499D01*
X-1930399Y-3491107D01*
X-2252935Y-3491107D01*
X-2404464Y-3339578D01*
X-2404464Y-2279649D01*
X-2307151Y-2279649D01*
X-2307151Y-2025649D01*
X-2297151Y-2025649D01*
X-2297151Y-1515111D01*
X-2487649Y-1515111D01*
X-2487649Y-1678108D01*
X-2585876Y-1579881D01*
X-2590834Y-1579881D01*
X-2590834Y-1579010D01*
X-2597151Y-1572693D01*
X-2597151Y-1515111D01*
X-2762251Y-1515111D01*
X-2762251Y-1273811D01*
X-2952749Y-1273811D01*
X-2952749Y-1515111D01*
X-3062251Y-1515111D01*
X-3062251Y-1380967D01*
X-3058373Y-1376375D01*
X-3003551Y-1321553D01*
X-3003551Y-1043129D01*
X-3062429Y-984251D01*
X-3122401Y-984251D01*
X-3122401Y-968549D01*
X-3034029Y-968549D01*
X-2965451Y-899971D01*
X-2965451Y-659129D01*
X-2881631Y-659129D01*
X-2881631Y-468631D01*
X-3389631Y-468631D01*
X-3389631Y-466252D01*
X-2834533Y-466252D01*
X-2660611Y-640174D01*
X-2660611Y-854251D01*
X-2946399Y-854251D01*
X-2946399Y-1163549D01*
X-2692401Y-1163549D01*
X-2692401Y-968549D01*
X-2592749Y-968549D01*
X-2546313Y-922113D01*
X-2546313Y-592832D01*
X-2731476Y-407669D01*
X-2635251Y-407669D01*
X-2635251Y-151131D01*
X-2825749Y-151131D01*
X-2825749Y-216731D01*
X-2881631Y-216731D01*
X-2881631Y-178631D01*
X-2894598Y-178631D01*
X-2894598Y-66533D01*
X-2894620Y-65728D01*
X-2902615Y+222901D01*
X-2912111Y+232138D01*
X-2912111Y+501649D01*
X-2921001Y+501649D01*
X-2921001Y+615943D01*
X-3036577Y+731519D01*
X-3119121Y+731519D01*
X-3119121Y+742949D01*
X-3206751Y+742949D01*
X-3206751Y+1105119D01*
X-3448049Y+1105119D01*
X-3448049Y+742949D01*
X-3535679Y+742949D01*
X-3535679Y+542291D01*
X-3119121Y+542291D01*
X-3119121Y+553721D01*
X-3110223Y+553721D01*
X-3098799Y+542297D01*
X-3098799Y+501649D01*
X-3107689Y+501649D01*
X-3107689Y-105409D01*
X-3008896Y-105409D01*
X-3008896Y-178631D01*
X-3135631Y-178631D01*
X-3135631Y-168631D01*
X-3392169Y-168631D01*
X-3392169Y-173551D01*
X-3460751Y-173551D01*
X-3460751Y-129107D01*
X-3399353Y-67709D01*
X-3119121Y-67709D01*
X-3119121Y+132949D01*
X-3302007Y+132949D01*
X-3559130Y+390072D01*
X-3559130Y+1934846D01*
X-3439418Y+2054558D01*
X-2454915Y+2054558D01*
X-2374321Y+1973964D01*
X-2438399Y+1909886D01*
X-2438399Y+1773114D01*
X-2341686Y+1676401D01*
X-2204914Y+1676401D01*
X-2108201Y+1773114D01*
X-2108201Y+1909886D01*
X-2184401Y+1986086D01*
X-2184401Y+2035488D01*
X-2381269Y+2232356D01*
X-3513064Y+2232356D01*
X-3736928Y+2008492D01*
X-3736928Y+352188D01*
X-3867151Y+482411D01*
X-3867151Y+1205229D01*
X-4165601Y+1205229D01*
X-4165601Y+1819959D01*
X-4089402Y+1896158D01*
X-4089402Y+2032930D01*
X-4114801Y+2058329D01*
X-4114801Y+2487495D01*
X-1511299Y+2487495D01*
X-1511299Y+2048156D01*
X-1485899Y+2022756D01*
X-1485899Y+1687823D01*
X-1866899Y+1306823D01*
X-1866899Y+1212849D01*
X-2165349Y+1212849D01*
X-2165349Y+438151D01*
X-1390651Y+438151D01*
X-1390651Y+1212849D01*
X-1689101Y+1212849D01*
X-1689101Y+1233177D01*
X-1308101Y+1614177D01*
X-1308101Y+1955801D01*
X-1275635Y+1955801D01*
X-1193801Y+2037635D01*
X-1193801Y+2153365D01*
X-1275635Y+2235199D01*
X-1282701Y+2235199D01*
X-1282701Y+2487495D01*
X+755213Y+2487495D01*
X+755213Y+2048156D01*
X+780613Y+2022756D01*
X+780613Y+1647282D01*
X+546101Y+1412770D01*
X+546101Y+1212849D01*
X+247651Y+1212849D01*
X+247651Y+438151D01*
X+1022349Y+438151D01*
X+1022349Y+1212849D01*
X+723899Y+1212849D01*
X+723899Y+1339124D01*
X+958411Y+1573636D01*
X+958411Y+1955801D01*
X+1010365Y+1955801D01*
X+1092199Y+2037635D01*
X+1092199Y+2153365D01*
X+1010365Y+2235199D01*
X+983811Y+2235199D01*
X+983811Y+2487495D01*
X+3124201Y+2487495D01*
X+3124201Y+2095500D01*
X-1993899Y+1773114D02*
X-1993899Y+1909886D01*
X-1897186Y+2006599D01*
X-1760414Y+2006599D01*
X-1663701Y+1909886D01*
X-1663701Y+1773114D01*
X-1760414Y+1676401D01*
X-1897186Y+1676401D01*
X-1993899Y+1773114D01*
X-2768601Y-3200399D02*
X-2768601Y-3708399D01*
X-3073399Y-3708399D01*
X-3073399Y-2895601D01*
X-2768601Y-2895601D01*
X-2768601Y-3200399D01*
X+266701Y+1773114D02*
X+266701Y+1909886D01*
X+363414Y+2006599D01*
X+500186Y+2006599D01*
X+596899Y+1909886D01*
X+596899Y+1773114D01*
X+500186Y+1676401D01*
X+363414Y+1676401D01*
X+266701Y+1773114D01*
X-609601Y-3200399D02*
X-609601Y-3708399D01*
X-914399Y-3708399D01*
X-914399Y-2895601D01*
X-609601Y-2895601D01*
X-609601Y-3200399D01*
X+1739899Y-3200399D02*
X+1739899Y-3708399D01*
X+1435101Y-3708399D01*
X+1435101Y-2895601D01*
X+1739899Y-2895601D01*
X+1739899Y-3200399D01*
X+2514601Y+1773114D02*
X+2514601Y+1909886D01*
X+2611314Y+2006599D01*
X+2748086Y+2006599D01*
X+2844799Y+1909886D01*
X+2844799Y+1773114D01*
X+2748086Y+1676401D01*
X+2611314Y+1676401D01*
X+2514601Y+1773114D01*
X+4089399Y-3200399D02*
X+4089399Y-3708399D01*
X+3784601Y-3708399D01*
X+3784601Y-2895601D01*
X+4089399Y-2895601D01*
X+4089399Y-3200399D01*
X+2404109Y+936833D02*
X+2504999Y+835943D01*
X+2504999Y+501649D01*
X+2513889Y+501649D01*
X+2513889Y+226053D01*
X+2516423Y+223519D01*
X+2705101Y+223519D01*
X+2705101Y+299719D01*
X+2933699Y+299719D01*
X+2933699Y-30479D01*
X+2832099Y-30479D01*
X+2832099Y-54611D01*
X+2863849Y-54611D01*
X+2863849Y-311149D01*
X+2832099Y-311149D01*
X+2832099Y-1028701D01*
X+2867767Y-1028701D01*
X+2867767Y-980529D01*
X+2835062Y-947824D01*
X+2835062Y-539113D01*
X+2964793Y-409382D01*
X+2991095Y-409382D01*
X+3148331Y-409381D01*
X+3148331Y-377631D01*
X+3404869Y-377631D01*
X+3404869Y-511349D01*
X+3434079Y-540559D01*
X+3434079Y-1300481D01*
X+3453129Y-1300481D01*
X+3453129Y-1478279D01*
X+3288031Y-1478279D01*
X+3288031Y-1300481D01*
X+3307081Y-1300481D01*
X+3307081Y-593161D01*
X+3282049Y-568129D01*
X+3148331Y-568129D01*
X+3148331Y-536379D01*
X+3017397Y-536378D01*
X+2962060Y-591715D01*
X+2962060Y-626111D01*
X+3117849Y-626111D01*
X+3117849Y-759829D01*
X+3174998Y-816978D01*
X+3174998Y-843280D01*
X+3174999Y-1028701D01*
X+3276599Y-1028701D01*
X+3276599Y-1257299D01*
X+3087001Y-1257299D01*
X+3086099Y-1258201D01*
X+3086099Y-1440181D01*
X+3092449Y-1440181D01*
X+3092449Y-1662431D01*
X+3130551Y-1662431D01*
X+3130551Y-1656081D01*
X+3194051Y-1656081D01*
X+3194051Y-1490981D01*
X+3359149Y-1490981D01*
X+3359149Y-1668779D01*
X+3295649Y-1668779D01*
X+3295649Y-1795779D01*
X+3130551Y-1795779D01*
X+3130551Y-1789429D01*
X+3015349Y-1789429D01*
X+2959101Y-1733181D01*
X+2959101Y-1719579D01*
X+2571751Y-1719579D01*
X+2571751Y-1440181D01*
X+2705101Y-1440181D01*
X+2705101Y-1257299D01*
X+2565401Y-1257299D01*
X+2565401Y-1028701D01*
X+2705101Y-1028701D01*
X+2705101Y-882649D01*
X+2627351Y-882649D01*
X+2627351Y-626111D01*
X+2705101Y-626111D01*
X+2705101Y-311149D01*
X+2673351Y-311149D01*
X+2673351Y-54611D01*
X+2705101Y-54611D01*
X+2705101Y+45721D01*
X+2513889Y+45721D01*
X+2513889Y-105409D01*
X+2318311Y-105409D01*
X+2318311Y+501649D01*
X+2327201Y+501649D01*
X+2327201Y+762297D01*
X+2278387Y+811111D01*
X+2117091Y+811111D01*
X+2117091Y+1098129D01*
X+2404109Y+1098129D01*
X+2404109Y+936833D01*
X+3390899Y-30479D02*
X+3340098Y-30479D01*
X+3340099Y-87631D01*
X+3404869Y-87631D01*
X+3404869Y-278129D01*
X+3153849Y-278129D01*
X+3153849Y-311149D01*
X+2963351Y-311149D01*
X+2963351Y-54611D01*
X+3153849Y-54611D01*
X+3153849Y-87631D01*
X+3213101Y-87631D01*
X+3213102Y-30479D01*
X+3162301Y-30479D01*
X+3162301Y+299719D01*
X+3390899Y+299719D01*
X+3390899Y-30479D01*
X-8891Y+936833D02*
X+91999Y+835943D01*
X+91999Y+501649D01*
X+100889Y+501649D01*
X+100889Y+226053D01*
X+103423Y+223519D01*
X+292101Y+223519D01*
X+292101Y+299719D01*
X+520699Y+299719D01*
X+520699Y-30479D01*
X+419099Y-30479D01*
X+419099Y-54611D01*
X+450849Y-54611D01*
X+450849Y-311149D01*
X+419099Y-311149D01*
X+419099Y-493871D01*
X+528952Y-384018D01*
X+735331Y-384018D01*
X+735331Y-377631D01*
X+991869Y-377631D01*
X+991869Y-568129D01*
X+927099Y-568129D01*
X+927099Y-1269099D01*
X+958481Y-1300481D01*
X+1040129Y-1300481D01*
X+1040129Y-1478279D01*
X+875031Y-1478279D01*
X+875031Y-1396631D01*
X+800101Y-1321701D01*
X+800101Y-568129D01*
X+735331Y-568129D01*
X+735331Y-511016D01*
X+581554Y-511016D01*
X+510771Y-581799D01*
X+510771Y-1028701D01*
X+546101Y-1028701D01*
X+546101Y-882649D01*
X+514351Y-882649D01*
X+514351Y-626111D01*
X+704849Y-626111D01*
X+704849Y-882649D01*
X+673099Y-882649D01*
X+673099Y-1028701D01*
X+800099Y-1028701D01*
X+800099Y-1257299D01*
X+673099Y-1257299D01*
X+673099Y-1440181D01*
X+679449Y-1440181D01*
X+679449Y-1662431D01*
X+717551Y-1662431D01*
X+717551Y-1656081D01*
X+781051Y-1656081D01*
X+781051Y-1490981D01*
X+946149Y-1490981D01*
X+946149Y-1668779D01*
X+882649Y-1668779D01*
X+882649Y-1795779D01*
X+717551Y-1795779D01*
X+717551Y-1789429D01*
X+602349Y-1789429D01*
X+546101Y-1733181D01*
X+546101Y-1719579D01*
X+158751Y-1719579D01*
X+158751Y-1440181D01*
X+282641Y-1440181D01*
X+238443Y-1395983D01*
X+238443Y-1257299D01*
X+88901Y-1257299D01*
X+88901Y-1028701D01*
X+246101Y-1028701D01*
X+246101Y-882649D01*
X+214351Y-882649D01*
X+214351Y-626111D01*
X+292101Y-626111D01*
X+292101Y-311149D01*
X+260351Y-311149D01*
X+260351Y-54611D01*
X+292101Y-54611D01*
X+292101Y+45721D01*
X+100889Y+45721D01*
X+100889Y-105409D01*
X-94689Y-105409D01*
X-94689Y+501649D01*
X-85799Y+501649D01*
X-85799Y+762297D01*
X-134613Y+811111D01*
X-295909Y+811111D01*
X-295909Y+1098129D01*
X-8891Y+1098129D01*
X-8891Y+936833D01*
X+1134109Y-1668779D02*
X+1115059Y-1668779D01*
X+1115059Y-2080721D01*
X+991869Y-2203911D01*
X+991869Y-2337629D01*
X+735331Y-2337629D01*
X+735331Y-2147131D01*
X+869049Y-2147131D01*
X+988061Y-2028119D01*
X+988061Y-1668779D01*
X+969011Y-1668779D01*
X+969011Y-1490981D01*
X+1134109Y-1490981D01*
X+1134109Y-1668779D01*
X+977899Y-30479D02*
X+927098Y-30479D01*
X+927099Y-87631D01*
X+991869Y-87631D01*
X+991869Y-278129D01*
X+740849Y-278129D01*
X+740849Y-311149D01*
X+550351Y-311149D01*
X+550351Y-54611D01*
X+740849Y-54611D01*
X+740849Y-87631D01*
X+800101Y-87631D01*
X+800102Y-30479D01*
X+749301Y-30479D01*
X+749301Y+299719D01*
X+977899Y+299719D01*
X+977899Y-30479D01*
X-2421891Y+937137D02*
X-2397129Y+912446D01*
X-2321001Y+836318D01*
X-2321001Y+501649D01*
X-2312111Y+501649D01*
X-2312111Y+223519D01*
X-2120899Y+223519D01*
X-2120899Y+299719D01*
X-1892301Y+299719D01*
X-1892301Y-30479D01*
X-1993901Y-30479D01*
X-1993901Y-54611D01*
X-1962151Y-54611D01*
X-1962151Y-311149D01*
X-2039901Y-311149D01*
X-2039901Y-626111D01*
X-2031999Y-626111D01*
X-2031999Y-535476D01*
X-1884367Y-387844D01*
X-1677669Y-387844D01*
X-1677669Y-341631D01*
X-1421131Y-341631D01*
X-1421131Y-532129D01*
X-1485901Y-532129D01*
X-1485901Y-1269099D01*
X-1454519Y-1300481D01*
X-1372871Y-1300481D01*
X-1372871Y-1478279D01*
X-1537969Y-1478279D01*
X-1537969Y-1396631D01*
X-1612899Y-1321701D01*
X-1612899Y-532129D01*
X-1677669Y-532129D01*
X-1677669Y-514842D01*
X-1831765Y-514842D01*
X-1905001Y-588078D01*
X-1905001Y-1028701D01*
X-1866899Y-1028701D01*
X-1866899Y-882649D01*
X-1898649Y-882649D01*
X-1898649Y-626111D01*
X-1708151Y-626111D01*
X-1708151Y-882649D01*
X-1739901Y-882649D01*
X-1739901Y-1028701D01*
X-1612901Y-1028701D01*
X-1612901Y-1257299D01*
X-1739901Y-1257299D01*
X-1739901Y-1440181D01*
X-1733551Y-1440181D01*
X-1733551Y-1662431D01*
X-1695449Y-1662431D01*
X-1695449Y-1656081D01*
X-1631949Y-1656081D01*
X-1631949Y-1490981D01*
X-1466851Y-1490981D01*
X-1466851Y-1668779D01*
X-1530351Y-1668779D01*
X-1530351Y-1795779D01*
X-1695449Y-1795779D01*
X-1695449Y-1789429D01*
X-1810651Y-1789429D01*
X-1866899Y-1733181D01*
X-1866899Y-1719579D01*
X-2254249Y-1719579D01*
X-2254249Y-1440181D01*
X-2125155Y-1440181D01*
X-2222498Y-1342838D01*
X-2222498Y-1257299D01*
X-2324099Y-1257299D01*
X-2324099Y-1028701D01*
X-2166899Y-1028701D01*
X-2166899Y-882649D01*
X-2198649Y-882649D01*
X-2198649Y-626111D01*
X-2166899Y-626111D01*
X-2166899Y-202579D01*
X-2152649Y-188329D01*
X-2152649Y-54611D01*
X-2120899Y-54611D01*
X-2120899Y+45721D01*
X-2312111Y+45721D01*
X-2312111Y-105409D01*
X-2507689Y-105409D01*
X-2507689Y+501649D01*
X-2498799Y+501649D01*
X-2498799Y+762672D01*
X-2522851Y+786724D01*
X-2547353Y+811111D01*
X-2708909Y+811111D01*
X-2708909Y+1098129D01*
X-2421891Y+1098129D01*
X-2421891Y+937137D01*
X-1435101Y-30479D02*
X-1485901Y-30479D01*
X-1485901Y-51631D01*
X-1421131Y-51631D01*
X-1421131Y-242129D01*
X-1554849Y-242129D01*
X-1559099Y-246379D01*
X-1672151Y-246379D01*
X-1672151Y-311149D01*
X-1862649Y-311149D01*
X-1862649Y-54611D01*
X-1677669Y-54611D01*
X-1677669Y-51631D01*
X-1612899Y-51631D01*
X-1612899Y-30479D01*
X-1663699Y-30479D01*
X-1663699Y+299719D01*
X-1435101Y+299719D01*
X-1435101Y-30479D01*
X+2404109Y+1261111D02*
X+2117091Y+1261111D01*
X+2117091Y+1548129D01*
X+2404109Y+1548129D01*
X+2404109Y+1261111D01*
X-8891Y+1261111D02*
X-295909Y+1261111D01*
X-295909Y+1548129D01*
X-8891Y+1548129D01*
X-8891Y+1261111D01*
X-2421891Y+1261111D02*
X-2708909Y+1261111D01*
X-2708909Y+1548129D01*
X-2421891Y+1548129D01*
X-2421891Y+1261111D01*
X+1619249Y+1168621D02*
X+1377951Y+1168621D01*
X+1377951Y+1549619D01*
X+1619249Y+1549619D01*
X+1619249Y+1168621D01*
X-793751Y+1168621D02*
X-1035049Y+1168621D01*
X-1035049Y+1549619D01*
X-793751Y+1549619D01*
X-793751Y+1168621D01*
X-3206751Y+1168621D02*
X-3448049Y+1168621D01*
X-3448049Y+1549619D01*
X-3206751Y+1549619D01*
X-3206751Y+1168621D01*
X+2231671Y-113031D02*
X+2422169Y-113031D01*
X+2422169Y-369569D01*
X+2231671Y-369569D01*
X+2231671Y-113031D01*
X-176529Y-163831D02*
X+13969Y-163831D01*
X+13969Y-420369D01*
X-176529Y-420369D01*
X-176529Y-163831D01*
X-2525749Y-151131D02*
X-2335251Y-151131D01*
X-2335251Y-407669D01*
X-2525749Y-407669D01*
X-2525749Y-151131D01*
X-3022600Y+1571718D02*
X-3022600Y+1603282D01*
X-3000282Y+1625600D01*
X-2968718Y+1625600D01*
X-2946400Y+1603282D01*
X-2946400Y+1571718D01*
X-2968718Y+1549400D01*
X-3000282Y+1549400D01*
X-3022600Y+1571718D01*
X-609600Y+1635218D02*
X-609600Y+1666782D01*
X-587282Y+1689100D01*
X-555718Y+1689100D01*
X-533400Y+1666782D01*
X-533400Y+1635218D01*
X-555718Y+1612900D01*
X-587282Y+1612900D01*
X-609600Y+1635218D01*
X+1676400Y+1635218D02*
X+1676400Y+1666782D01*
X+1698718Y+1689100D01*
X+1730282Y+1689100D01*
X+1752600Y+1666782D01*
X+1752600Y+1635218D01*
X+1730282Y+1612900D01*
X+1698718Y+1612900D01*
X+1676400Y+1635218D01*
X+1703351Y-2023111D02*
X+1695449Y-2023111D01*
X+1695449Y-1771649D01*
X+1703351Y-1771649D01*
X+1703351Y-2023111D01*
X+6864351Y-1771649D02*
X+6864351Y-2087881D01*
X+6800849Y-2087881D01*
X+6800849Y-1769111D01*
X+6773349Y-1769111D01*
X+6773349Y-1537969D01*
X+6864351Y-1537969D01*
X+6864351Y-1771649D01*
X+1974851Y-1771649D02*
X+1974851Y-2087881D01*
X+1883849Y-2087881D01*
X+1883849Y-2025649D01*
X+1893849Y-2025649D01*
X+1893849Y-1769111D01*
X+1883849Y-1769111D01*
X+1883849Y-1543049D01*
X+1974851Y-1543049D01*
X+1974851Y-1771649D01*
X-374649Y-1771649D02*
X-374649Y-2087881D01*
X-529151Y-2087881D01*
X-529151Y-2025649D01*
X-519151Y-2025649D01*
X-519151Y-1769111D01*
X-529151Y-1769111D01*
X-529151Y-1530349D01*
X-374649Y-1530349D01*
X-374649Y-1771649D01*
X-2787649Y-1771649D02*
X-2787649Y-2087881D01*
X-2942151Y-2087881D01*
X-2942151Y-1771649D01*
X-2932151Y-1771649D01*
X-2932151Y-1530349D01*
X-2787649Y-1530349D01*
X-2787649Y-1771649D01*
X-5175249Y-1779269D02*
X-5175249Y-2095501D01*
X-5266251Y-2095501D01*
X-5266251Y-1779269D01*
X-5256251Y-1779269D01*
X-5256251Y-1537969D01*
X-5175249Y-1537969D01*
X-5175249Y-1779269D01*
X+6610351Y-2025649D02*
X+6610351Y-2279649D01*
X+6800849Y-2279649D01*
X+6800849Y-2214879D01*
X+6864351Y-2214879D01*
X+6864351Y-2279649D01*
X+7054849Y-2279649D01*
X+7054849Y-2158759D01*
X+7110970Y-2214879D01*
X+7154351Y-2214879D01*
X+7154351Y-2279649D01*
X+7183507Y-2279649D01*
X+7183507Y-2349501D01*
X+7171249Y-2349501D01*
X+7171249Y-2284731D01*
X+6980751Y-2284731D01*
X+6980751Y-2541269D01*
X+7152635Y-2541269D01*
X+6829798Y-2864106D01*
X+6792701Y-2827010D01*
X+6720908Y-2827010D01*
X+6599734Y-2705836D01*
X+6599734Y-1771649D01*
X+6610351Y-1771649D01*
X+6610351Y-2025649D01*
X+7463351Y-2787649D02*
X+7495101Y-2787649D01*
X+7495101Y-2956099D01*
X+7264399Y-3186801D01*
X+7264399Y-2895601D01*
X+6977903Y-2895601D01*
X+7310505Y-2562999D01*
X+7310505Y-2541269D01*
X+7461249Y-2541269D01*
X+7461249Y-2533649D01*
X+7463351Y-2533649D01*
X+7463351Y-2787649D01*
X+5050351Y-2787649D02*
X+5082101Y-2787649D01*
X+5082101Y-3137802D01*
X+5119299Y-3174999D01*
X+5308601Y-3364301D01*
X+5308601Y-3492501D01*
X+4979301Y-3492501D01*
X+4889499Y-3402699D01*
X+4889499Y-2541269D01*
X+5048249Y-2541269D01*
X+5048249Y-2533649D01*
X+5050351Y-2533649D01*
X+5050351Y-2787649D01*
X-7277099Y-2921000D02*
X-7048500Y-2921000D01*
X-6819901Y-2921000D02*
X-7048500Y-2921000D01*
X-7048500Y-3149599D02*
X-7048500Y-2921000D01*
X+8185149Y-1579880D02*
X+8102600Y-1579880D01*
X+8020051Y-1579880D02*
X+8102600Y-1579880D01*
X+8102600Y-1490981D02*
X+8102600Y-1579880D01*
X+5772149Y-1579880D02*
X+5689600Y-1579880D01*
X+5607051Y-1579880D02*
X+5689600Y-1579880D01*
X+5689600Y-1490981D02*
X+5689600Y-1579880D01*
X+3359149Y-1579880D02*
X+3276600Y-1579880D01*
X+3194051Y-1579880D02*
X+3276600Y-1579880D01*
X+3276600Y-1490981D02*
X+3276600Y-1579880D01*
X+946149Y-1579880D02*
X+863600Y-1579880D01*
X+781051Y-1579880D02*
X+863600Y-1579880D01*
X+863600Y-1490981D02*
X+863600Y-1579880D01*
X-1466851Y-1579880D02*
X-1549400Y-1579880D01*
X-1631949Y-1579880D02*
X-1549400Y-1579880D01*
X-1549400Y-1490981D02*
X-1549400Y-1579880D01*
X+7230109Y+1404620D02*
X+7086600Y+1404620D01*
X+6943091Y+1404620D02*
X+7086600Y+1404620D01*
X+7086600Y+1548129D02*
X+7086600Y+1404620D01*
X+7086600Y+1261111D02*
X+7086600Y+1404620D01*
X+4817109Y+1404620D02*
X+4673600Y+1404620D01*
X+4530091Y+1404620D02*
X+4673600Y+1404620D01*
X+4673600Y+1548129D02*
X+4673600Y+1404620D01*
X+4673600Y+1261111D02*
X+4673600Y+1404620D01*
X+2404109Y+1404620D02*
X+2260600Y+1404620D01*
X+2117091Y+1404620D02*
X+2260600Y+1404620D01*
X+2260600Y+1548129D02*
X+2260600Y+1404620D01*
X+2260600Y+1261111D02*
X+2260600Y+1404620D01*
X-8891Y+1404620D02*
X-152400Y+1404620D01*
X-295909Y+1404620D02*
X-152400Y+1404620D01*
X-152400Y+1548129D02*
X-152400Y+1404620D01*
X-152400Y+1261111D02*
X-152400Y+1404620D01*
X-2421891Y+1404620D02*
X-2565400Y+1404620D01*
X-2708909Y+1404620D02*
X-2565400Y+1404620D01*
X-2565400Y+1548129D02*
X-2565400Y+1404620D01*
X-2565400Y+1261111D02*
X-2565400Y+1404620D01*
X+6445249Y+1359120D02*
X+6324600Y+1359120D01*
X+6203951Y+1359120D02*
X+6324600Y+1359120D01*
X+6324600Y+1549619D02*
X+6324600Y+1359120D01*
X+6324600Y+1168621D02*
X+6324600Y+1359120D01*
X+4032249Y+1359120D02*
X+3911600Y+1359120D01*
X+3790951Y+1359120D02*
X+3911600Y+1359120D01*
X+3911600Y+1549619D02*
X+3911600Y+1359120D01*
X+3911600Y+1168621D02*
X+3911600Y+1359120D01*
X+1619249Y+1359120D02*
X+1498600Y+1359120D01*
X+1377951Y+1359120D02*
X+1498600Y+1359120D01*
X+1498600Y+1549619D02*
X+1498600Y+1359120D01*
X+1498600Y+1168621D02*
X+1498600Y+1359120D01*
X-793751Y+1359120D02*
X-914400Y+1359120D01*
X-1035049Y+1359120D02*
X-914400Y+1359120D01*
X-914400Y+1549619D02*
X-914400Y+1359120D01*
X-914400Y+1168621D02*
X-914400Y+1359120D01*
X-3206751Y+1359120D02*
X-3327400Y+1359120D01*
X-3448049Y+1359120D02*
X-3327400Y+1359120D01*
X-3327400Y+1549619D02*
X-3327400Y+1359120D01*
X-3327400Y+1168621D02*
X-3327400Y+1359120D01*
X+7397751Y-2100580D02*
X+7467600Y-2100580D01*
X+7467600Y-1960881D02*
X+7467600Y-2100580D01*
X+7467600Y-2240279D02*
X+7467600Y-2100580D01*
X+4984751Y-2100580D02*
X+5054600Y-2100580D01*
X+5054600Y-1960881D02*
X+5054600Y-2100580D01*
X+5054600Y-2240279D02*
X+5054600Y-2100580D01*
X+2571751Y-2100580D02*
X+2641600Y-2100580D01*
X+2641600Y-1960881D02*
X+2641600Y-2100580D01*
X+2641600Y-2240279D02*
X+2641600Y-2100580D01*
X+158751Y-2100580D02*
X+228600Y-2100580D01*
X+228600Y-1960881D02*
X+228600Y-2100580D01*
X+228600Y-2240279D02*
X+228600Y-2100580D01*
X-2254249Y-2100580D02*
X-2184400Y-2100580D01*
X-2184400Y-1960881D02*
X-2184400Y-2100580D01*
X-2184400Y-2240279D02*
X-2184400Y-2100580D01*
X+6773349Y-1643380D02*
X+6678100Y-1643380D01*
X+6678100Y-1515111D02*
X+6678100Y-1643380D01*
X+7643849Y-2405380D02*
X+7548600Y-2405380D01*
X+7548600Y-2277111D02*
X+7548600Y-2405380D01*
X+7126251Y-279400D02*
X+7221500Y-279400D01*
X+7316749Y-279400D02*
X+7221500Y-279400D01*
X+7221500Y-407669D02*
X+7221500Y-279400D01*
X+7221500Y-151131D02*
X+7221500Y-279400D01*
X+6737351Y-1409700D02*
X+6832600Y-1409700D01*
X+6927849Y-1409700D02*
X+6832600Y-1409700D01*
X+6832600Y-1537969D02*
X+6832600Y-1409700D01*
X+6832600Y-1281431D02*
X+6832600Y-1409700D01*
X+7354849Y-1643380D02*
X+7259600Y-1643380D01*
X+7259600Y-1515111D02*
X+7259600Y-1643380D01*
X+7354849Y-1897380D02*
X+7259600Y-1897380D01*
X+6610351Y-1897380D02*
X+6705600Y-1897380D01*
X+6800849Y-1897380D02*
X+6705600Y-1897380D01*
X+4959349Y-1897380D02*
X+4864100Y-1897380D01*
X+4256051Y-1409700D02*
X+4351300Y-1409700D01*
X+4446549Y-1409700D02*
X+4351300Y-1409700D01*
X+4351300Y-1537969D02*
X+4351300Y-1409700D01*
X+4351300Y-1281431D02*
X+4351300Y-1409700D01*
X+4306849Y-1643380D02*
X+4211600Y-1643380D01*
X+4211600Y-1515111D02*
X+4211600Y-1643380D01*
X+4768851Y-1643380D02*
X+4864100Y-1643380D01*
X+4959349Y-1643380D02*
X+4864100Y-1643380D01*
X+4864100Y-1515111D02*
X+4864100Y-1643380D01*
X+5230849Y-2405380D02*
X+5135600Y-2405380D01*
X+5135600Y-2277111D02*
X+5135600Y-2405380D01*
X+4649751Y-254000D02*
X+4745000Y-254000D01*
X+4840249Y-254000D02*
X+4745000Y-254000D01*
X+4745000Y-382269D02*
X+4745000Y-254000D01*
X+4745000Y-125731D02*
X+4745000Y-254000D01*
X+4296849Y-1897380D02*
X+4201600Y-1897380D01*
X+2817849Y-2405380D02*
X+2722600Y-2405380D01*
X+2722600Y-2277111D02*
X+2722600Y-2405380D01*
X+1843051Y-1414780D02*
X+1938300Y-1414780D01*
X+2033549Y-1414780D02*
X+1938300Y-1414780D01*
X+1938300Y-1543049D02*
X+1938300Y-1414780D01*
X+1938300Y-1286511D02*
X+1938300Y-1414780D01*
X-557249Y-1402080D02*
X-462000Y-1402080D01*
X-366751Y-1402080D02*
X-462000Y-1402080D01*
X-462000Y-1530349D02*
X-462000Y-1402080D01*
X-462000Y-1273811D02*
X-462000Y-1402080D01*
X+2231671Y-241300D02*
X+2326920Y-241300D01*
X+2422169Y-241300D02*
X+2326920Y-241300D01*
X+2326920Y-369569D02*
X+2326920Y-241300D01*
X+2326920Y-113031D02*
X+2326920Y-241300D01*
X-176529Y-292100D02*
X-81280Y-292100D01*
X+13969Y-292100D02*
X-81280Y-292100D01*
X-81280Y-420369D02*
X-81280Y-292100D01*
X-81280Y-163831D02*
X-81280Y-292100D01*
X-2525749Y-279400D02*
X-2430500Y-279400D01*
X-2335251Y-279400D02*
X-2430500Y-279400D01*
X-2430500Y-407669D02*
X-2430500Y-279400D01*
X-2430500Y-151131D02*
X-2430500Y-279400D01*
X-2952749Y-1402080D02*
X-2857500Y-1402080D01*
X-2762251Y-1402080D02*
X-2857500Y-1402080D01*
X-2857500Y-1530349D02*
X-2857500Y-1402080D01*
X-2857500Y-1273811D02*
X-2857500Y-1402080D01*
X+1883849Y-1643380D02*
X+1788600Y-1643380D01*
X+1788600Y-1515111D02*
X+1788600Y-1643380D01*
X+2465349Y-1897380D02*
X+2370100Y-1897380D01*
X+1703351Y-1897380D02*
X+1798600Y-1897380D01*
X+1893849Y-1897380D02*
X+1798600Y-1897380D01*
X+2274851Y-1643380D02*
X+2370100Y-1643380D01*
X+2465349Y-1643380D02*
X+2370100Y-1643380D01*
X+2370100Y-1515111D02*
X+2370100Y-1643380D01*
X+404849Y-2405380D02*
X+309600Y-2405380D01*
X+309600Y-2277111D02*
X+309600Y-2405380D01*
X-529151Y-1643380D02*
X-624400Y-1643380D01*
X-624400Y-1515111D02*
X-624400Y-1643380D01*
X+115849Y-1897380D02*
X+20600Y-1897380D01*
X-519151Y-1897380D02*
X-614400Y-1897380D01*
X-74649Y-1643380D02*
X+20600Y-1643380D01*
X+115849Y-1643380D02*
X+20600Y-1643380D01*
X+20600Y-1515111D02*
X+20600Y-1643380D01*
X-2297151Y-1897380D02*
X-2392400Y-1897380D01*
X-2932151Y-1643380D02*
X-3027400Y-1643380D01*
X-3027400Y-1515111D02*
X-3027400Y-1643380D01*
X-2487649Y-1643380D02*
X-2392400Y-1643380D01*
X-2297151Y-1643380D02*
X-2392400Y-1643380D01*
X-2392400Y-1515111D02*
X-2392400Y-1643380D01*
X-2008151Y-2405380D02*
X-2103400Y-2405380D01*
X-2103400Y-2277111D02*
X-2103400Y-2405380D01*
X-2942151Y-1897380D02*
X-3037400Y-1897380D01*
X-4641849Y-2108200D02*
X-4572000Y-2108200D01*
X-4572000Y-1968501D02*
X-4572000Y-2108200D01*
X-4572000Y-2247899D02*
X-4572000Y-2108200D01*
X-4936491Y+1460500D02*
X-5080000Y+1460500D01*
X-5223509Y+1460500D02*
X-5080000Y+1460500D01*
X-5080000Y+1604009D02*
X-5080000Y+1460500D01*
X-5080000Y+1316991D02*
X-5080000Y+1460500D01*
X-3854451Y-1524000D02*
X-3937000Y-1524000D01*
X-4019549Y-1524000D02*
X-3937000Y-1524000D01*
X-3937000Y-1435101D02*
X-3937000Y-1524000D01*
X-3937000Y-1612899D02*
X-3937000Y-1524000D01*
X-5784851Y+1415000D02*
X-5905500Y+1415000D01*
X-6026149Y+1415000D02*
X-5905500Y+1415000D01*
X-5905500Y+1605499D02*
X-5905500Y+1415000D01*
X-5905500Y+1224501D02*
X-5905500Y+1415000D01*
X-4875249Y-1905000D02*
X-4780000Y-1905000D01*
X-4684751Y-1905000D02*
X-4780000Y-1905000D01*
X-5268949Y-1409700D02*
X-5173700Y-1409700D01*
X-5078451Y-1409700D02*
X-5173700Y-1409700D01*
X-5173700Y-1281431D02*
X-5173700Y-1409700D01*
X-5256251Y-1651000D02*
X-5351500Y-1651000D01*
X-5351500Y-1522731D02*
X-5351500Y-1651000D01*
X-4875249Y-1651000D02*
X-4780000Y-1651000D01*
X-4684751Y-1651000D02*
X-4780000Y-1651000D01*
X-4780000Y-1522731D02*
X-4780000Y-1651000D01*
X-4586249Y-2413000D02*
X-4491000Y-2413000D01*
X-4395751Y-2413000D02*
X-4491000Y-2413000D01*
X-4491000Y-2284731D02*
X-4491000Y-2413000D01*
X-5065749Y-330200D02*
X-4970500Y-330200D01*
X-4875251Y-330200D02*
X-4970500Y-330200D01*
X-4970500Y-458469D02*
X-4970500Y-330200D01*
X-4970500Y-201931D02*
X-4970500Y-330200D01*
X-5266251Y-1905000D02*
X-5361500Y-1905000D01*
X-5359399Y-3556000D02*
X-5207000Y-3556000D01*
X-5054601Y-3556000D02*
X-5207000Y-3556000D01*
X-4800599Y+1905000D02*
X-4635500Y+1905000D01*
X-4470401Y+1905000D02*
X-4635500Y+1905000D01*
X-4635500Y+1739901D02*
X-4635500Y+1905000D01*
X-4635500Y+2070099D02*
X-4635500Y+1905000D01*
X+7366000Y-2541269D02*
X+7366000Y-2413000D01*
X+7366000Y-2284731D02*
X+7366000Y-2413000D01*
X+4953000Y-2541269D02*
X+4953000Y-2413000D01*
X+4953000Y-2284731D02*
X+4953000Y-2413000D01*
X+2444751Y-2413000D02*
X+2540000Y-2413000D01*
X+2540000Y-2541269D02*
X+2540000Y-2413000D01*
X+2540000Y-2284731D02*
X+2540000Y-2413000D01*
X+31751Y-2413000D02*
X+127000Y-2413000D01*
X+127000Y-2541269D02*
X+127000Y-2413000D01*
X+127000Y-2284731D02*
X+127000Y-2413000D01*
X-2381249Y-2413000D02*
X-2286000Y-2413000D01*
X-2286000Y-2541269D02*
X-2286000Y-2413000D01*
X-2286000Y-2284731D02*
X-2286000Y-2413000D01*
X-4885249Y-2476500D02*
X-4790000Y-2476500D01*
X-4694751Y-2476500D02*
X-4790000Y-2476500D01*
X-4790000Y-2604769D02*
X-4790000Y-2476500D01*
X-4790000Y-2348231D02*
X-4790000Y-2476500D01*
D22*
X-7048500Y-2476500D03*
X-7048500Y-2921000D03*
D23*
X-1828800Y+1841500D03*
D24*
X-2921000Y-3556000D03*
X-2921000Y-3048000D03*
X-2921000Y-3302000D03*
D23*
X+431800Y+1841500D03*
D24*
X-762000Y-3556000D03*
X-762000Y-3302000D03*
X-762000Y-3048000D03*
X+1587500Y-3302000D03*
X+1587500Y-3556000D03*
X+1587500Y-3048000D03*
D23*
X+2679700Y+1841500D03*
D24*
X+3937000Y-3556000D03*
X+6223000Y-3556000D03*
X+3937000Y-3048000D03*
X+6223000Y-3048000D03*
X+3937000Y-3302000D03*
X+6223000Y-3302000D03*
D23*
X+4953000Y+1841500D03*
X+7162800Y+1841500D03*
D33*
X+8196580Y-1389380D03*
X+8290560Y-1579880D03*
X+8102600Y-1579880D03*
D72*
X+7874000Y+825500D03*
D73*
X+8102600Y+134620D03*
X+7645400Y+134620D03*
D33*
X+5783580Y-1389380D03*
X+5877560Y-1579880D03*
X+5689600Y-1579880D03*
D72*
X+5461000Y+825500D03*
D73*
X+5689600Y+134620D03*
X+5232400Y+134620D03*
D33*
X+3370580Y-1389380D03*
X+3464560Y-1579880D03*
X+3276600Y-1579880D03*
D72*
X+3048000Y+825500D03*
D73*
X+3276600Y+134620D03*
X+2819400Y+134620D03*
D33*
X+957580Y-1389380D03*
X+1051560Y-1579880D03*
X+863600Y-1579880D03*
D72*
X+635000Y+825500D03*
D73*
X+863600Y+134620D03*
X+406400Y+134620D03*
D33*
X-1455420Y-1389380D03*
X-1361440Y-1579880D03*
X-1549400Y-1579880D03*
D72*
X-1778000Y+825500D03*
D73*
X-1549400Y+134620D03*
X-2006600Y+134620D03*
D27*
X+7086600Y+1404620D03*
X+7086600Y+954620D03*
D32*
X+8039100Y-1960880D03*
X+8039100Y-1725930D03*
D27*
X+4673600Y+1404620D03*
X+4673600Y+954620D03*
D32*
X+5626100Y-1960880D03*
X+5626100Y-1725930D03*
D27*
X+2260600Y+1404620D03*
X+2260600Y+954620D03*
D32*
X+3213100Y-1960880D03*
X+3213100Y-1725930D03*
D27*
X-152400Y+1404620D03*
X-152400Y+954620D03*
D32*
X+800100Y-1960880D03*
X+800100Y-1725930D03*
D27*
X-2565400Y+1404620D03*
X-2565400Y+954620D03*
D32*
X-1612900Y-1960880D03*
X-1612900Y-1725930D03*
D21*
X+6705600Y+198120D03*
X+7305600Y+198120D03*
X+4229100Y+198120D03*
X+4829100Y+198120D03*
X+1816100Y+198120D03*
X+2416100Y+198120D03*
X-596900Y+198120D03*
X+3100Y+198120D03*
X-3009900Y+198120D03*
X-2409900Y+198120D03*
D24*
X+7112000Y-3302000D03*
X+5461000Y-3302000D03*
X+2984500Y-3302000D03*
X+571500Y-3302000D03*
X-1778000Y-3302000D03*
X+7112000Y-3556000D03*
X+5461000Y-3556000D03*
X+2984500Y-3556000D03*
X+571500Y-3556000D03*
X-1778000Y-3556000D03*
X+7112000Y-3048000D03*
X+5461000Y-3048000D03*
X+2984500Y-3048000D03*
X+571500Y-3048000D03*
X-1778000Y-3048000D03*
D23*
X+6718300Y+1841500D03*
X+4495800Y+1841500D03*
X+2222500Y+1841500D03*
X-25400Y+1841500D03*
X-2273300Y+1841500D03*
D28*
X+6324600Y+914620D03*
X+6324600Y+1359120D03*
X+3911600Y+914620D03*
X+3911600Y+1359120D03*
X+1498600Y+914620D03*
X+1498600Y+1359120D03*
X-914400Y+914620D03*
X-914400Y+1359120D03*
X-3327400Y+914620D03*
X-3327400Y+1359120D03*
D34*
X+6845300Y-914400D03*
X+6845300Y-979400D03*
X+6845300Y-1044400D03*
X+6845300Y-1109400D03*
X+6415300Y-1109400D03*
X+6415300Y-1044400D03*
X+6415300Y-979400D03*
X+6415300Y-914400D03*
D30*
X+7848600Y-2100580D03*
X+7721600Y-2100580D03*
X+7594600Y-2100580D03*
X+7467600Y-2100580D03*
X+7467600Y-1579880D03*
X+7594600Y-1579880D03*
X+7721600Y-1579880D03*
X+7848600Y-1579880D03*
D34*
X+4347950Y-890850D03*
X+4347950Y-955850D03*
X+4347950Y-1020850D03*
X+4347950Y-1085850D03*
X+3917950Y-1085850D03*
X+3917950Y-1020850D03*
X+3917950Y-955850D03*
X+3917950Y-890850D03*
D30*
X+5435600Y-2100580D03*
X+5308600Y-2100580D03*
X+5181600Y-2100580D03*
X+5054600Y-2100580D03*
X+5054600Y-1579880D03*
X+5181600Y-1579880D03*
X+5308600Y-1579880D03*
X+5435600Y-1579880D03*
D34*
X+1928600Y-909900D03*
X+1928600Y-974900D03*
X+1928600Y-1039900D03*
X+1928600Y-1104900D03*
X+1498600Y-1104900D03*
X+1498600Y-1039900D03*
X+1498600Y-974900D03*
X+1498600Y-909900D03*
D30*
X+3022600Y-2100580D03*
X+2895600Y-2100580D03*
X+2768600Y-2100580D03*
X+2641600Y-2100580D03*
X+2641600Y-1579880D03*
X+2768600Y-1579880D03*
X+2895600Y-1579880D03*
X+3022600Y-1579880D03*
D34*
X-469900Y-924100D03*
X-469900Y-989100D03*
X-469900Y-1054100D03*
X-469900Y-1119100D03*
X-899900Y-1119100D03*
X-899900Y-1054100D03*
X-899900Y-989100D03*
X-899900Y-924100D03*
D30*
X+609600Y-2100580D03*
X+482600Y-2100580D03*
X+355600Y-2100580D03*
X+228600Y-2100580D03*
X+228600Y-1579880D03*
X+355600Y-1579880D03*
X+482600Y-1579880D03*
X+609600Y-1579880D03*
D34*
X-2819400Y-911400D03*
X-2819400Y-976400D03*
X-2819400Y-1041400D03*
X-2819400Y-1106400D03*
X-3249400Y-1106400D03*
X-3249400Y-1041400D03*
X-3249400Y-976400D03*
X-3249400Y-911400D03*
D30*
X-1803400Y-2100580D03*
X-1930400Y-2100580D03*
X-2057400Y-2100580D03*
X-2184400Y-2100580D03*
X-2184400Y-1579880D03*
X-2057400Y-1579880D03*
X-1930400Y-1579880D03*
X-1803400Y-1579880D03*
D29*
X-3327400Y+642620D03*
X-3327400Y+32620D03*
X+6324600Y+642620D03*
X+6324600Y+32620D03*
X+1498600Y+642620D03*
X+1498600Y+32620D03*
X+3911600Y+642620D03*
X+3911600Y+32620D03*
X-914400Y+642620D03*
X-914400Y+32620D03*
D31*
X+7874000Y-1143000D03*
X+7493000Y-1143000D03*
D25*
X+7848600Y-754380D03*
X+7548600Y-754380D03*
D31*
X+5461000Y-1143000D03*
X+5080000Y-1143000D03*
D25*
X+5435600Y-754380D03*
X+5135600Y-754380D03*
D31*
X+3111500Y-1143000D03*
X+2730500Y-1143000D03*
D25*
X+3022600Y-754380D03*
X+2722600Y-754380D03*
D31*
X+635000Y-1143000D03*
X+254000Y-1143000D03*
D25*
X+609600Y-754380D03*
X+309600Y-754380D03*
D31*
X-1778000Y-1143000D03*
X-2159000Y-1143000D03*
D25*
X-1803400Y-754380D03*
X-2103400Y-754380D03*
X+6705600Y-2151380D03*
X+6415600Y-2151380D03*
X+6678100Y-1643380D03*
X+6388100Y-1643380D03*
D26*
X+6705600Y-599880D03*
X+6705600Y-309880D03*
X+6223000Y-596900D03*
X+6223000Y-306900D03*
D25*
X+7249600Y-2151380D03*
X+6959600Y-2151380D03*
D26*
X+8128000Y-2250000D03*
X+8128000Y-2540000D03*
D25*
X+7848600Y-2405380D03*
X+7548600Y-2405380D03*
X+7221500Y-279400D03*
X+6921500Y-279400D03*
D26*
X+8102600Y-119380D03*
X+8102600Y-409380D03*
D25*
X+7594600Y-119380D03*
X+7884600Y-119380D03*
X+7848600Y-2659380D03*
X+7558600Y-2659380D03*
D26*
X+6464300Y-309880D03*
X+6464300Y-609880D03*
D25*
X+6832600Y-1409700D03*
X+6532600Y-1409700D03*
X+7259600Y-1643380D03*
X+6959600Y-1643380D03*
X+7259600Y-1897380D03*
X+6959600Y-1897380D03*
X+6705600Y-1897380D03*
X+6405600Y-1897380D03*
X+4864100Y-1897380D03*
X+4564100Y-1897380D03*
X+4351300Y-1409700D03*
X+4051300Y-1409700D03*
X+4211600Y-1643380D03*
X+3911600Y-1643380D03*
D26*
X+3975100Y-304800D03*
X+3975100Y-604800D03*
D25*
X+4864100Y-1643380D03*
X+4564100Y-1643380D03*
X+5435600Y-2405380D03*
X+5135600Y-2405380D03*
X+5435600Y-2659380D03*
X+5145600Y-2659380D03*
D26*
X+5689600Y-2242380D03*
X+5689600Y-2532380D03*
X+5689600Y-119380D03*
X+5689600Y-409380D03*
D25*
X+5145600Y-119380D03*
X+5435600Y-119380D03*
X+3022600Y-2659380D03*
X+2732600Y-2659380D03*
D26*
X+3276600Y-2278380D03*
X+3276600Y-2568380D03*
X+3276600Y-182880D03*
X+3276600Y-472880D03*
D25*
X+2768600Y-182880D03*
X+3058600Y-182880D03*
D26*
X+4229100Y-594800D03*
X+4229100Y-304800D03*
X+3733800Y-582100D03*
X+3733800Y-292100D03*
D25*
X+4745000Y-254000D03*
X+4445000Y-254000D03*
X+4201600Y-2151380D03*
X+3911600Y-2151380D03*
X+4201600Y-1897380D03*
X+3911600Y-1897380D03*
X+4864100Y-2151380D03*
X+4574100Y-2151380D03*
X+3022600Y-2405380D03*
X+2722600Y-2405380D03*
D26*
X+1308100Y-538480D03*
X+1308100Y-248480D03*
X+1798600Y-551180D03*
X+1798600Y-261180D03*
X-584200Y-612580D03*
X-584200Y-322580D03*
X-1066800Y-612580D03*
X-1066800Y-322580D03*
X+1549400Y-251180D03*
X+1549400Y-551180D03*
X-824450Y-323630D03*
X-824450Y-623630D03*
D25*
X+1938300Y-1414780D03*
X+1638300Y-1414780D03*
X-462000Y-1402080D03*
X-762000Y-1402080D03*
X+2326920Y-241300D03*
X+2026920Y-241300D03*
X-81280Y-292100D03*
X-381280Y-292100D03*
D26*
X-3009900Y-563880D03*
X-3009900Y-273880D03*
X-3517900Y-558800D03*
X-3517900Y-268800D03*
D25*
X-2430500Y-279400D03*
X-2730500Y-279400D03*
D26*
X-3263900Y-263880D03*
X-3263900Y-563880D03*
D25*
X-2857500Y-1402080D03*
X-3157500Y-1402080D03*
X+1788600Y-2151380D03*
X+1498600Y-2151380D03*
X+1788600Y-1643380D03*
X+1498600Y-1643380D03*
X+2360100Y-2151380D03*
X+2070100Y-2151380D03*
X+2370100Y-1897380D03*
X+2070100Y-1897380D03*
X+1798600Y-1897380D03*
X+1498600Y-1897380D03*
X+2370100Y-1643380D03*
X+2070100Y-1643380D03*
X+609600Y-2405380D03*
X+309600Y-2405380D03*
D26*
X+863600Y-2242380D03*
X+863600Y-2532380D03*
D25*
X+609600Y-2659380D03*
X+319600Y-2659380D03*
D26*
X+863600Y-182880D03*
X+863600Y-472880D03*
D25*
X+355600Y-182880D03*
X+645600Y-182880D03*
X+10600Y-2151380D03*
X-279400Y-2151380D03*
X-624400Y-2151380D03*
X-914400Y-2151380D03*
X-624400Y-1643380D03*
X-914400Y-1643380D03*
X+20600Y-1897380D03*
X-279400Y-1897380D03*
X-614400Y-1897380D03*
X-914400Y-1897380D03*
X+20600Y-1643380D03*
X-279400Y-1643380D03*
X-2392400Y-1897380D03*
X-2692400Y-1897380D03*
X-3027400Y-1643380D03*
X-3327400Y-1643380D03*
X-2392400Y-1643380D03*
X-2692400Y-1643380D03*
X-1803400Y-2405380D03*
X-2103400Y-2405380D03*
X-3037400Y-2151380D03*
X-3327400Y-2151380D03*
X-3037400Y-1897380D03*
X-3327400Y-1897380D03*
X-2402400Y-2151380D03*
X-2692400Y-2151380D03*
D26*
X-1549400Y-2278380D03*
X-1549400Y-2568380D03*
X-1549400Y-146880D03*
X-1549400Y-436880D03*
D25*
X-2057400Y-182880D03*
X-1767400Y-182880D03*
X-1803400Y-2659380D03*
X-2093400Y-2659380D03*
D72*
X-4254500Y+817880D03*
D73*
X-4025900Y+127000D03*
X-4483100Y+127000D03*
D29*
X-5905500Y+635000D03*
X-5905500Y+25000D03*
D34*
X-5232400Y-936800D03*
X-5232400Y-1001800D03*
X-5232400Y-1066800D03*
X-5232400Y-1131800D03*
X-5662400Y-1131800D03*
X-5662400Y-1066800D03*
X-5662400Y-1001800D03*
X-5662400Y-936800D03*
D30*
X-4191000Y-2108200D03*
X-4318000Y-2108200D03*
X-4445000Y-2108200D03*
X-4572000Y-2108200D03*
X-4572000Y-1587500D03*
X-4445000Y-1587500D03*
X-4318000Y-1587500D03*
X-4191000Y-1587500D03*
D27*
X-5080000Y+1460500D03*
X-5080000Y+1010500D03*
D32*
X-4000500Y-1949450D03*
X-4000500Y-1714500D03*
D33*
X-3843020Y-1333500D03*
X-3749040Y-1524000D03*
X-3937000Y-1524000D03*
D28*
X-5905500Y+970500D03*
X-5905500Y+1415000D03*
D21*
X-5489500Y+190500D03*
X-4889500Y+190500D03*
D23*
X-5080000Y+1905000D03*
D24*
X-4318000Y-3556000D03*
X-4318000Y-3048000D03*
X-4318000Y-3302000D03*
D25*
X-4780000Y-1905000D03*
X-5080000Y-1905000D03*
X-5173700Y-1409700D03*
X-5473700Y-1409700D03*
X-5351500Y-1651000D03*
X-5651500Y-1651000D03*
D26*
X-5753100Y-304800D03*
X-5753100Y-604800D03*
D25*
X-4780000Y-1651000D03*
X-5080000Y-1651000D03*
X-4191000Y-2413000D03*
X-4491000Y-2413000D03*
X-4191000Y-762000D03*
X-4491000Y-762000D03*
X-4970500Y-330200D03*
X-5270500Y-330200D03*
D31*
X-4141610Y-1157110D03*
X-4522610Y-1157110D03*
D25*
X-5361500Y-2159000D03*
X-5651500Y-2159000D03*
X-5361500Y-1905000D03*
X-5651500Y-1905000D03*
D26*
X-5499100Y-594800D03*
X-5499100Y-304800D03*
X-6007100Y-594800D03*
X-6007100Y-304800D03*
D25*
X-4790000Y-2159000D03*
X-5080000Y-2159000D03*
D26*
X-3937000Y-2250000D03*
X-3937000Y-2540000D03*
X-4000500Y-190500D03*
X-4000500Y-480500D03*
D25*
X-4508500Y-190500D03*
X-4218500Y-190500D03*
X-4191000Y-2667000D03*
X-4481000Y-2667000D03*
D35*
X-6921500Y-3810000D03*
X-6921500Y+2413000D03*
X+8001000Y+2413000D03*
X+8001000Y-3746500D03*
D24*
X-5207000Y-3048000D03*
X-5207000Y-3302000D03*
X-5207000Y-3556000D03*
X-5207000Y-3810000D03*
D23*
X-4635500Y+1905000D03*
D25*
X+7366000Y-2413000D03*
X+7076000Y-2413000D03*
X+4953000Y-2413000D03*
X+4663000Y-2413000D03*
X+2540000Y-2413000D03*
X+2250000Y-2413000D03*
X+127000Y-2413000D03*
X-163000Y-2413000D03*
X-2286000Y-2413000D03*
X-2576000Y-2413000D03*
X-4790000Y-2476500D03*
X-5080000Y-2476500D03*
D40*
X-7429500Y-4254500D02*
X+8509000Y-4254500D01*
X+8509000Y+2921000D01*
X-7429500Y+2921000D01*
X-7429500Y-4254500D01*
M02*
