G04 PROTEUS RS274X GERBER FILE*
%FSLAX45Y45*%
%MOMM*%
G01*
%ADD40C,0.203200*%
%ADD43C,0.250000*%
%ADD42C,0.200000*%
%ADD44C,0.101600*%
%ADD45C,0.100000*%
D40*
X-7429500Y-4254500D02*
X+8509000Y-4254500D01*
X+8509000Y+2921000D01*
X-7429500Y+2921000D01*
X-7429500Y-4254500D01*
X+8051800Y-1424940D02*
X+8140700Y-1424940D01*
X+8158480Y-1536700D02*
X+8229600Y-1536700D01*
X+8051800Y-1424940D02*
X+8051800Y-1516380D01*
X+8341360Y-1518920D02*
X+8341360Y-1424940D01*
X+8255000Y-1424940D01*
X+8191500Y+452120D02*
X+8191500Y+375920D01*
X+7556500Y+375920D01*
X+7556500Y+452120D01*
X+7912100Y+375920D02*
X+7912100Y+325120D01*
X+7835900Y+325120D01*
X+7835900Y+375920D01*
X+8140700Y+375920D02*
X+8140700Y+299720D01*
X+8077200Y+299720D01*
X+8077200Y+375920D01*
X+7607300Y+375920D02*
X+7607300Y+299720D01*
X+7670800Y+299720D01*
X+7670800Y+375920D02*
X+7670800Y+299720D01*
X+5638800Y-1424940D02*
X+5727700Y-1424940D01*
X+5745480Y-1536700D02*
X+5816600Y-1536700D01*
X+5638800Y-1424940D02*
X+5638800Y-1516380D01*
X+5928360Y-1518920D02*
X+5928360Y-1424940D01*
X+5842000Y-1424940D01*
X+5778500Y+452120D02*
X+5778500Y+375920D01*
X+5143500Y+375920D01*
X+5143500Y+452120D01*
X+5499100Y+375920D02*
X+5499100Y+325120D01*
X+5422900Y+325120D01*
X+5422900Y+375920D01*
X+5727700Y+375920D02*
X+5727700Y+299720D01*
X+5664200Y+299720D01*
X+5664200Y+375920D01*
X+5194300Y+375920D02*
X+5194300Y+299720D01*
X+5257800Y+299720D01*
X+5257800Y+375920D02*
X+5257800Y+299720D01*
X+3225800Y-1424940D02*
X+3314700Y-1424940D01*
X+3332480Y-1536700D02*
X+3403600Y-1536700D01*
X+3225800Y-1424940D02*
X+3225800Y-1516380D01*
X+3515360Y-1518920D02*
X+3515360Y-1424940D01*
X+3429000Y-1424940D01*
X+3365500Y+452120D02*
X+3365500Y+375920D01*
X+2730500Y+375920D01*
X+2730500Y+452120D01*
X+3086100Y+375920D02*
X+3086100Y+325120D01*
X+3009900Y+325120D01*
X+3009900Y+375920D01*
X+3314700Y+375920D02*
X+3314700Y+299720D01*
X+3251200Y+299720D01*
X+3251200Y+375920D01*
X+2781300Y+375920D02*
X+2781300Y+299720D01*
X+2844800Y+299720D01*
X+2844800Y+375920D02*
X+2844800Y+299720D01*
X+812800Y-1424940D02*
X+901700Y-1424940D01*
X+919480Y-1536700D02*
X+990600Y-1536700D01*
X+812800Y-1424940D02*
X+812800Y-1516380D01*
X+1102360Y-1518920D02*
X+1102360Y-1424940D01*
X+1016000Y-1424940D01*
X+952500Y+452120D02*
X+952500Y+375920D01*
X+317500Y+375920D01*
X+317500Y+452120D01*
X+673100Y+375920D02*
X+673100Y+325120D01*
X+596900Y+325120D01*
X+596900Y+375920D01*
X+901700Y+375920D02*
X+901700Y+299720D01*
X+838200Y+299720D01*
X+838200Y+375920D01*
X+368300Y+375920D02*
X+368300Y+299720D01*
X+431800Y+299720D01*
X+431800Y+375920D02*
X+431800Y+299720D01*
X-1600200Y-1424940D02*
X-1511300Y-1424940D01*
X-1493520Y-1536700D02*
X-1422400Y-1536700D01*
X-1600200Y-1424940D02*
X-1600200Y-1516380D01*
X-1310640Y-1518920D02*
X-1310640Y-1424940D01*
X-1397000Y-1424940D01*
X-1460500Y+452120D02*
X-1460500Y+375920D01*
X-2095500Y+375920D01*
X-2095500Y+452120D01*
X-1739900Y+375920D02*
X-1739900Y+325120D01*
X-1816100Y+325120D01*
X-1816100Y+375920D01*
X-1511300Y+375920D02*
X-1511300Y+299720D01*
X-1574800Y+299720D01*
X-1574800Y+375920D01*
X-2044700Y+375920D02*
X-2044700Y+299720D01*
X-1981200Y+299720D01*
X-1981200Y+375920D02*
X-1981200Y+299720D01*
D43*
X+7259100Y+834620D02*
X+7259057Y+835659D01*
X+7258705Y+837738D01*
X+7257968Y+839817D01*
X+7256764Y+841896D01*
X+7254923Y+843946D01*
X+7252844Y+845449D01*
X+7250765Y+846406D01*
X+7248686Y+846945D01*
X+7246607Y+847120D01*
X+7246600Y+847120D01*
X+7234100Y+834620D02*
X+7234143Y+835659D01*
X+7234495Y+837738D01*
X+7235232Y+839817D01*
X+7236436Y+841896D01*
X+7238277Y+843946D01*
X+7240356Y+845449D01*
X+7242435Y+846406D01*
X+7244514Y+846945D01*
X+7246593Y+847120D01*
X+7246600Y+847120D01*
X+7234100Y+834620D02*
X+7234143Y+833581D01*
X+7234495Y+831502D01*
X+7235232Y+829423D01*
X+7236436Y+827344D01*
X+7238277Y+825294D01*
X+7240356Y+823791D01*
X+7242435Y+822834D01*
X+7244514Y+822295D01*
X+7246593Y+822120D01*
X+7246600Y+822120D01*
X+7259100Y+834620D02*
X+7259057Y+833581D01*
X+7258705Y+831502D01*
X+7257968Y+829423D01*
X+7256764Y+827344D01*
X+7254923Y+825294D01*
X+7252844Y+823791D01*
X+7250765Y+822834D01*
X+7248686Y+822295D01*
X+7246607Y+822120D01*
X+7246600Y+822120D01*
D42*
X+7231600Y+899620D02*
X+7276600Y+899620D01*
X+7276600Y+1459620D01*
X+7231600Y+1459620D01*
X+6941600Y+899620D02*
X+6896600Y+899620D01*
X+6896600Y+1459620D01*
X+6941600Y+1459620D01*
D44*
X+7969100Y-1793340D02*
X+8109100Y-1793340D01*
X+7969100Y-1813340D02*
X+8109100Y-1813340D01*
X+7969100Y-1923340D02*
X+8109100Y-1923340D01*
X+8109100Y-1763340D01*
X+7969100Y-1763340D01*
X+7969100Y-1923340D01*
D43*
X+4846100Y+834620D02*
X+4846057Y+835659D01*
X+4845705Y+837738D01*
X+4844968Y+839817D01*
X+4843764Y+841896D01*
X+4841923Y+843946D01*
X+4839844Y+845449D01*
X+4837765Y+846406D01*
X+4835686Y+846945D01*
X+4833607Y+847120D01*
X+4833600Y+847120D01*
X+4821100Y+834620D02*
X+4821143Y+835659D01*
X+4821495Y+837738D01*
X+4822232Y+839817D01*
X+4823436Y+841896D01*
X+4825277Y+843946D01*
X+4827356Y+845449D01*
X+4829435Y+846406D01*
X+4831514Y+846945D01*
X+4833593Y+847120D01*
X+4833600Y+847120D01*
X+4821100Y+834620D02*
X+4821143Y+833581D01*
X+4821495Y+831502D01*
X+4822232Y+829423D01*
X+4823436Y+827344D01*
X+4825277Y+825294D01*
X+4827356Y+823791D01*
X+4829435Y+822834D01*
X+4831514Y+822295D01*
X+4833593Y+822120D01*
X+4833600Y+822120D01*
X+4846100Y+834620D02*
X+4846057Y+833581D01*
X+4845705Y+831502D01*
X+4844968Y+829423D01*
X+4843764Y+827344D01*
X+4841923Y+825294D01*
X+4839844Y+823791D01*
X+4837765Y+822834D01*
X+4835686Y+822295D01*
X+4833607Y+822120D01*
X+4833600Y+822120D01*
D42*
X+4818600Y+899620D02*
X+4863600Y+899620D01*
X+4863600Y+1459620D01*
X+4818600Y+1459620D01*
X+4528600Y+899620D02*
X+4483600Y+899620D01*
X+4483600Y+1459620D01*
X+4528600Y+1459620D01*
D44*
X+5556100Y-1793340D02*
X+5696100Y-1793340D01*
X+5556100Y-1813340D02*
X+5696100Y-1813340D01*
X+5556100Y-1923340D02*
X+5696100Y-1923340D01*
X+5696100Y-1763340D01*
X+5556100Y-1763340D01*
X+5556100Y-1923340D01*
D43*
X+2433100Y+834620D02*
X+2433057Y+835659D01*
X+2432705Y+837738D01*
X+2431968Y+839817D01*
X+2430764Y+841896D01*
X+2428923Y+843946D01*
X+2426844Y+845449D01*
X+2424765Y+846406D01*
X+2422686Y+846945D01*
X+2420607Y+847120D01*
X+2420600Y+847120D01*
X+2408100Y+834620D02*
X+2408143Y+835659D01*
X+2408495Y+837738D01*
X+2409232Y+839817D01*
X+2410436Y+841896D01*
X+2412277Y+843946D01*
X+2414356Y+845449D01*
X+2416435Y+846406D01*
X+2418514Y+846945D01*
X+2420593Y+847120D01*
X+2420600Y+847120D01*
X+2408100Y+834620D02*
X+2408143Y+833581D01*
X+2408495Y+831502D01*
X+2409232Y+829423D01*
X+2410436Y+827344D01*
X+2412277Y+825294D01*
X+2414356Y+823791D01*
X+2416435Y+822834D01*
X+2418514Y+822295D01*
X+2420593Y+822120D01*
X+2420600Y+822120D01*
X+2433100Y+834620D02*
X+2433057Y+833581D01*
X+2432705Y+831502D01*
X+2431968Y+829423D01*
X+2430764Y+827344D01*
X+2428923Y+825294D01*
X+2426844Y+823791D01*
X+2424765Y+822834D01*
X+2422686Y+822295D01*
X+2420607Y+822120D01*
X+2420600Y+822120D01*
D42*
X+2405600Y+899620D02*
X+2450600Y+899620D01*
X+2450600Y+1459620D01*
X+2405600Y+1459620D01*
X+2115600Y+899620D02*
X+2070600Y+899620D01*
X+2070600Y+1459620D01*
X+2115600Y+1459620D01*
D44*
X+3143100Y-1793340D02*
X+3283100Y-1793340D01*
X+3143100Y-1813340D02*
X+3283100Y-1813340D01*
X+3143100Y-1923340D02*
X+3283100Y-1923340D01*
X+3283100Y-1763340D01*
X+3143100Y-1763340D01*
X+3143100Y-1923340D01*
D43*
X+20100Y+834620D02*
X+20057Y+835659D01*
X+19705Y+837738D01*
X+18968Y+839817D01*
X+17764Y+841896D01*
X+15923Y+843946D01*
X+13844Y+845449D01*
X+11765Y+846406D01*
X+9686Y+846945D01*
X+7607Y+847120D01*
X+7600Y+847120D01*
X-4900Y+834620D02*
X-4857Y+835659D01*
X-4505Y+837738D01*
X-3768Y+839817D01*
X-2564Y+841896D01*
X-723Y+843946D01*
X+1356Y+845449D01*
X+3435Y+846406D01*
X+5514Y+846945D01*
X+7593Y+847120D01*
X+7600Y+847120D01*
X-4900Y+834620D02*
X-4857Y+833581D01*
X-4505Y+831502D01*
X-3768Y+829423D01*
X-2564Y+827344D01*
X-723Y+825294D01*
X+1356Y+823791D01*
X+3435Y+822834D01*
X+5514Y+822295D01*
X+7593Y+822120D01*
X+7600Y+822120D01*
X+20100Y+834620D02*
X+20057Y+833581D01*
X+19705Y+831502D01*
X+18968Y+829423D01*
X+17764Y+827344D01*
X+15923Y+825294D01*
X+13844Y+823791D01*
X+11765Y+822834D01*
X+9686Y+822295D01*
X+7607Y+822120D01*
X+7600Y+822120D01*
D42*
X-7400Y+899620D02*
X+37600Y+899620D01*
X+37600Y+1459620D01*
X-7400Y+1459620D01*
X-297400Y+899620D02*
X-342400Y+899620D01*
X-342400Y+1459620D01*
X-297400Y+1459620D01*
D44*
X+730100Y-1793340D02*
X+870100Y-1793340D01*
X+730100Y-1813340D02*
X+870100Y-1813340D01*
X+730100Y-1923340D02*
X+870100Y-1923340D01*
X+870100Y-1763340D01*
X+730100Y-1763340D01*
X+730100Y-1923340D01*
D43*
X-2392900Y+834620D02*
X-2392943Y+835659D01*
X-2393295Y+837738D01*
X-2394032Y+839817D01*
X-2395236Y+841896D01*
X-2397077Y+843946D01*
X-2399156Y+845449D01*
X-2401235Y+846406D01*
X-2403314Y+846945D01*
X-2405393Y+847120D01*
X-2405400Y+847120D01*
X-2417900Y+834620D02*
X-2417857Y+835659D01*
X-2417505Y+837738D01*
X-2416768Y+839817D01*
X-2415564Y+841896D01*
X-2413723Y+843946D01*
X-2411644Y+845449D01*
X-2409565Y+846406D01*
X-2407486Y+846945D01*
X-2405407Y+847120D01*
X-2405400Y+847120D01*
X-2417900Y+834620D02*
X-2417857Y+833581D01*
X-2417505Y+831502D01*
X-2416768Y+829423D01*
X-2415564Y+827344D01*
X-2413723Y+825294D01*
X-2411644Y+823791D01*
X-2409565Y+822834D01*
X-2407486Y+822295D01*
X-2405407Y+822120D01*
X-2405400Y+822120D01*
X-2392900Y+834620D02*
X-2392943Y+833581D01*
X-2393295Y+831502D01*
X-2394032Y+829423D01*
X-2395236Y+827344D01*
X-2397077Y+825294D01*
X-2399156Y+823791D01*
X-2401235Y+822834D01*
X-2403314Y+822295D01*
X-2405393Y+822120D01*
X-2405400Y+822120D01*
D42*
X-2420400Y+899620D02*
X-2375400Y+899620D01*
X-2375400Y+1459620D01*
X-2420400Y+1459620D01*
X-2710400Y+899620D02*
X-2755400Y+899620D01*
X-2755400Y+1459620D01*
X-2710400Y+1459620D01*
D44*
X-1682900Y-1793340D02*
X-1542900Y-1793340D01*
X-1682900Y-1813340D02*
X-1542900Y-1813340D01*
X-1682900Y-1923340D02*
X-1542900Y-1923340D01*
X-1542900Y-1763340D01*
X-1682900Y-1763340D01*
X-1682900Y-1923340D01*
D42*
X+6805600Y+463120D02*
X+7205600Y+463120D01*
X+6805600Y-66880D02*
X+7205600Y-66880D01*
X+4329100Y+463120D02*
X+4729100Y+463120D01*
X+4329100Y-66880D02*
X+4729100Y-66880D01*
X+1916100Y+463120D02*
X+2316100Y+463120D01*
X+1916100Y-66880D02*
X+2316100Y-66880D01*
X-496900Y+463120D02*
X-96900Y+463120D01*
X-496900Y-66880D02*
X-96900Y-66880D01*
X-2909900Y+463120D02*
X-2509900Y+463120D01*
X-2909900Y-66880D02*
X-2509900Y-66880D01*
D40*
X+6642100Y+978120D02*
X+6515100Y+851120D01*
X+6134100Y+851120D01*
X+6007100Y+978120D01*
X+6007100Y+1422620D01*
X+6642100Y+1422620D01*
X+6642100Y+978120D01*
X+6515100Y+914620D02*
X+6515100Y+1041620D01*
X+6578600Y+978120D02*
X+6451600Y+978120D01*
X+4229100Y+978120D02*
X+4102100Y+851120D01*
X+3721100Y+851120D01*
X+3594100Y+978120D01*
X+3594100Y+1422620D01*
X+4229100Y+1422620D01*
X+4229100Y+978120D01*
X+4102100Y+914620D02*
X+4102100Y+1041620D01*
X+4165600Y+978120D02*
X+4038600Y+978120D01*
X+1816100Y+978120D02*
X+1689100Y+851120D01*
X+1308100Y+851120D01*
X+1181100Y+978120D01*
X+1181100Y+1422620D01*
X+1816100Y+1422620D01*
X+1816100Y+978120D01*
X+1689100Y+914620D02*
X+1689100Y+1041620D01*
X+1752600Y+978120D02*
X+1625600Y+978120D01*
X-596900Y+978120D02*
X-723900Y+851120D01*
X-1104900Y+851120D01*
X-1231900Y+978120D01*
X-1231900Y+1422620D01*
X-596900Y+1422620D01*
X-596900Y+978120D01*
X-723900Y+914620D02*
X-723900Y+1041620D01*
X-660400Y+978120D02*
X-787400Y+978120D01*
X-3009900Y+978120D02*
X-3136900Y+851120D01*
X-3517900Y+851120D01*
X-3644900Y+978120D01*
X-3644900Y+1422620D01*
X-3009900Y+1422620D01*
X-3009900Y+978120D01*
X-3136900Y+914620D02*
X-3136900Y+1041620D01*
X-3073400Y+978120D02*
X-3200400Y+978120D01*
D43*
X+6902800Y-836900D02*
X+6902757Y-835861D01*
X+6902405Y-833782D01*
X+6901668Y-831703D01*
X+6900464Y-829624D01*
X+6898623Y-827574D01*
X+6896544Y-826071D01*
X+6894465Y-825114D01*
X+6892386Y-824575D01*
X+6890307Y-824400D01*
X+6890300Y-824400D01*
X+6877800Y-836900D02*
X+6877843Y-835861D01*
X+6878195Y-833782D01*
X+6878932Y-831703D01*
X+6880136Y-829624D01*
X+6881977Y-827574D01*
X+6884056Y-826071D01*
X+6886135Y-825114D01*
X+6888214Y-824575D01*
X+6890293Y-824400D01*
X+6890300Y-824400D01*
X+6877800Y-836900D02*
X+6877843Y-837939D01*
X+6878195Y-840018D01*
X+6878932Y-842097D01*
X+6880136Y-844176D01*
X+6881977Y-846226D01*
X+6884056Y-847729D01*
X+6886135Y-848686D01*
X+6888214Y-849225D01*
X+6890293Y-849400D01*
X+6890300Y-849400D01*
X+6902800Y-836900D02*
X+6902757Y-837939D01*
X+6902405Y-840018D01*
X+6901668Y-842097D01*
X+6900464Y-844176D01*
X+6898623Y-846226D01*
X+6896544Y-847729D01*
X+6894465Y-848686D01*
X+6892386Y-849225D01*
X+6890307Y-849400D01*
X+6890300Y-849400D01*
D42*
X+6740300Y-1166900D02*
X+6520300Y-1166900D01*
X+6520300Y-856900D01*
X+6740300Y-856900D01*
X+6740300Y-1166900D01*
D45*
X+6740300Y-866900D02*
X+6730300Y-856900D01*
X+6740300Y-876900D02*
X+6720300Y-856900D01*
X+6740300Y-886900D02*
X+6710300Y-856900D01*
X+6740300Y-896900D02*
X+6700300Y-856900D01*
X+6740300Y-906900D02*
X+6690300Y-856900D01*
X+6740300Y-916900D02*
X+6680300Y-856900D01*
X+6740300Y-926900D02*
X+6670300Y-856900D01*
X+6740300Y-936900D02*
X+6660300Y-856900D01*
X+6740300Y-946900D02*
X+6650300Y-856900D01*
D40*
X+7881620Y-1948180D02*
X+7881620Y-1867218D01*
X+7870999Y-1865136D01*
X+7862433Y-1859416D01*
X+7856714Y-1850851D01*
X+7854632Y-1840230D01*
X+7881620Y-1813242D02*
X+7870999Y-1815324D01*
X+7862433Y-1821044D01*
X+7856714Y-1829609D01*
X+7854632Y-1840230D01*
X+7881620Y-1813242D02*
X+7881620Y-1732280D01*
X+7434580Y-1871980D02*
X+7434580Y-1808480D01*
X+7848600Y-1948180D02*
X+7467600Y-1948180D01*
X+7848600Y-1732280D02*
X+7467600Y-1732280D01*
X+7848600Y-1948180D02*
X+7881620Y-1948180D01*
X+7881620Y-1732280D02*
X+7848600Y-1732280D01*
X+7434580Y-1808480D02*
X+7434580Y-1732280D01*
X+7467600Y-1732280D01*
X+7467600Y-1948180D02*
X+7434580Y-1948180D01*
X+7434580Y-1871980D01*
X+7842504Y-1912620D02*
X+7842469Y-1911775D01*
X+7842182Y-1910084D01*
X+7841583Y-1908393D01*
X+7840603Y-1906702D01*
X+7839103Y-1905034D01*
X+7837412Y-1903814D01*
X+7835721Y-1903038D01*
X+7834030Y-1902601D01*
X+7832344Y-1902460D01*
X+7822184Y-1912620D02*
X+7822219Y-1911775D01*
X+7822506Y-1910084D01*
X+7823105Y-1908393D01*
X+7824085Y-1906702D01*
X+7825585Y-1905034D01*
X+7827276Y-1903814D01*
X+7828967Y-1903038D01*
X+7830658Y-1902601D01*
X+7832344Y-1902460D01*
X+7822184Y-1912620D02*
X+7822219Y-1913465D01*
X+7822506Y-1915156D01*
X+7823105Y-1916847D01*
X+7824085Y-1918538D01*
X+7825585Y-1920206D01*
X+7827276Y-1921426D01*
X+7828967Y-1922202D01*
X+7830658Y-1922639D01*
X+7832344Y-1922780D01*
X+7842504Y-1912620D02*
X+7842469Y-1913465D01*
X+7842182Y-1915156D01*
X+7841583Y-1916847D01*
X+7840603Y-1918538D01*
X+7839103Y-1920206D01*
X+7837412Y-1921426D01*
X+7835721Y-1922202D01*
X+7834030Y-1922639D01*
X+7832344Y-1922780D01*
D43*
X+4405450Y-813350D02*
X+4405407Y-812311D01*
X+4405055Y-810232D01*
X+4404318Y-808153D01*
X+4403114Y-806074D01*
X+4401273Y-804024D01*
X+4399194Y-802521D01*
X+4397115Y-801564D01*
X+4395036Y-801025D01*
X+4392957Y-800850D01*
X+4392950Y-800850D01*
X+4380450Y-813350D02*
X+4380493Y-812311D01*
X+4380845Y-810232D01*
X+4381582Y-808153D01*
X+4382786Y-806074D01*
X+4384627Y-804024D01*
X+4386706Y-802521D01*
X+4388785Y-801564D01*
X+4390864Y-801025D01*
X+4392943Y-800850D01*
X+4392950Y-800850D01*
X+4380450Y-813350D02*
X+4380493Y-814389D01*
X+4380845Y-816468D01*
X+4381582Y-818547D01*
X+4382786Y-820626D01*
X+4384627Y-822676D01*
X+4386706Y-824179D01*
X+4388785Y-825136D01*
X+4390864Y-825675D01*
X+4392943Y-825850D01*
X+4392950Y-825850D01*
X+4405450Y-813350D02*
X+4405407Y-814389D01*
X+4405055Y-816468D01*
X+4404318Y-818547D01*
X+4403114Y-820626D01*
X+4401273Y-822676D01*
X+4399194Y-824179D01*
X+4397115Y-825136D01*
X+4395036Y-825675D01*
X+4392957Y-825850D01*
X+4392950Y-825850D01*
D42*
X+4242950Y-1143350D02*
X+4022950Y-1143350D01*
X+4022950Y-833350D01*
X+4242950Y-833350D01*
X+4242950Y-1143350D01*
D45*
X+4242950Y-843350D02*
X+4232950Y-833350D01*
X+4242950Y-853350D02*
X+4222950Y-833350D01*
X+4242950Y-863350D02*
X+4212950Y-833350D01*
X+4242950Y-873350D02*
X+4202950Y-833350D01*
X+4242950Y-883350D02*
X+4192950Y-833350D01*
X+4242950Y-893350D02*
X+4182950Y-833350D01*
X+4242950Y-903350D02*
X+4172950Y-833350D01*
X+4242950Y-913350D02*
X+4162950Y-833350D01*
X+4242950Y-923350D02*
X+4152950Y-833350D01*
D40*
X+5468620Y-1948180D02*
X+5468620Y-1867218D01*
X+5457999Y-1865136D01*
X+5449433Y-1859416D01*
X+5443714Y-1850851D01*
X+5441632Y-1840230D01*
X+5468620Y-1813242D02*
X+5457999Y-1815324D01*
X+5449433Y-1821044D01*
X+5443714Y-1829609D01*
X+5441632Y-1840230D01*
X+5468620Y-1813242D02*
X+5468620Y-1732280D01*
X+5021580Y-1871980D02*
X+5021580Y-1808480D01*
X+5435600Y-1948180D02*
X+5054600Y-1948180D01*
X+5435600Y-1732280D02*
X+5054600Y-1732280D01*
X+5435600Y-1948180D02*
X+5468620Y-1948180D01*
X+5468620Y-1732280D02*
X+5435600Y-1732280D01*
X+5021580Y-1808480D02*
X+5021580Y-1732280D01*
X+5054600Y-1732280D01*
X+5054600Y-1948180D02*
X+5021580Y-1948180D01*
X+5021580Y-1871980D01*
X+5429504Y-1912620D02*
X+5429469Y-1911775D01*
X+5429182Y-1910084D01*
X+5428583Y-1908393D01*
X+5427603Y-1906702D01*
X+5426103Y-1905034D01*
X+5424412Y-1903814D01*
X+5422721Y-1903038D01*
X+5421030Y-1902601D01*
X+5419344Y-1902460D01*
X+5409184Y-1912620D02*
X+5409219Y-1911775D01*
X+5409506Y-1910084D01*
X+5410105Y-1908393D01*
X+5411085Y-1906702D01*
X+5412585Y-1905034D01*
X+5414276Y-1903814D01*
X+5415967Y-1903038D01*
X+5417658Y-1902601D01*
X+5419344Y-1902460D01*
X+5409184Y-1912620D02*
X+5409219Y-1913465D01*
X+5409506Y-1915156D01*
X+5410105Y-1916847D01*
X+5411085Y-1918538D01*
X+5412585Y-1920206D01*
X+5414276Y-1921426D01*
X+5415967Y-1922202D01*
X+5417658Y-1922639D01*
X+5419344Y-1922780D01*
X+5429504Y-1912620D02*
X+5429469Y-1913465D01*
X+5429182Y-1915156D01*
X+5428583Y-1916847D01*
X+5427603Y-1918538D01*
X+5426103Y-1920206D01*
X+5424412Y-1921426D01*
X+5422721Y-1922202D01*
X+5421030Y-1922639D01*
X+5419344Y-1922780D01*
D43*
X+1986100Y-832400D02*
X+1986057Y-831361D01*
X+1985705Y-829282D01*
X+1984968Y-827203D01*
X+1983764Y-825124D01*
X+1981923Y-823074D01*
X+1979844Y-821571D01*
X+1977765Y-820614D01*
X+1975686Y-820075D01*
X+1973607Y-819900D01*
X+1973600Y-819900D01*
X+1961100Y-832400D02*
X+1961143Y-831361D01*
X+1961495Y-829282D01*
X+1962232Y-827203D01*
X+1963436Y-825124D01*
X+1965277Y-823074D01*
X+1967356Y-821571D01*
X+1969435Y-820614D01*
X+1971514Y-820075D01*
X+1973593Y-819900D01*
X+1973600Y-819900D01*
X+1961100Y-832400D02*
X+1961143Y-833439D01*
X+1961495Y-835518D01*
X+1962232Y-837597D01*
X+1963436Y-839676D01*
X+1965277Y-841726D01*
X+1967356Y-843229D01*
X+1969435Y-844186D01*
X+1971514Y-844725D01*
X+1973593Y-844900D01*
X+1973600Y-844900D01*
X+1986100Y-832400D02*
X+1986057Y-833439D01*
X+1985705Y-835518D01*
X+1984968Y-837597D01*
X+1983764Y-839676D01*
X+1981923Y-841726D01*
X+1979844Y-843229D01*
X+1977765Y-844186D01*
X+1975686Y-844725D01*
X+1973607Y-844900D01*
X+1973600Y-844900D01*
D42*
X+1823600Y-1162400D02*
X+1603600Y-1162400D01*
X+1603600Y-852400D01*
X+1823600Y-852400D01*
X+1823600Y-1162400D01*
D45*
X+1823600Y-862400D02*
X+1813600Y-852400D01*
X+1823600Y-872400D02*
X+1803600Y-852400D01*
X+1823600Y-882400D02*
X+1793600Y-852400D01*
X+1823600Y-892400D02*
X+1783600Y-852400D01*
X+1823600Y-902400D02*
X+1773600Y-852400D01*
X+1823600Y-912400D02*
X+1763600Y-852400D01*
X+1823600Y-922400D02*
X+1753600Y-852400D01*
X+1823600Y-932400D02*
X+1743600Y-852400D01*
X+1823600Y-942400D02*
X+1733600Y-852400D01*
D40*
X+3055620Y-1948180D02*
X+3055620Y-1867218D01*
X+3044999Y-1865136D01*
X+3036433Y-1859416D01*
X+3030714Y-1850851D01*
X+3028632Y-1840230D01*
X+3055620Y-1813242D02*
X+3044999Y-1815324D01*
X+3036433Y-1821044D01*
X+3030714Y-1829609D01*
X+3028632Y-1840230D01*
X+3055620Y-1813242D02*
X+3055620Y-1732280D01*
X+2608580Y-1871980D02*
X+2608580Y-1808480D01*
X+3022600Y-1948180D02*
X+2641600Y-1948180D01*
X+3022600Y-1732280D02*
X+2641600Y-1732280D01*
X+3022600Y-1948180D02*
X+3055620Y-1948180D01*
X+3055620Y-1732280D02*
X+3022600Y-1732280D01*
X+2608580Y-1808480D02*
X+2608580Y-1732280D01*
X+2641600Y-1732280D01*
X+2641600Y-1948180D02*
X+2608580Y-1948180D01*
X+2608580Y-1871980D01*
X+3016504Y-1912620D02*
X+3016469Y-1911775D01*
X+3016182Y-1910084D01*
X+3015583Y-1908393D01*
X+3014603Y-1906702D01*
X+3013103Y-1905034D01*
X+3011412Y-1903814D01*
X+3009721Y-1903038D01*
X+3008030Y-1902601D01*
X+3006344Y-1902460D01*
X+2996184Y-1912620D02*
X+2996219Y-1911775D01*
X+2996506Y-1910084D01*
X+2997105Y-1908393D01*
X+2998085Y-1906702D01*
X+2999585Y-1905034D01*
X+3001276Y-1903814D01*
X+3002967Y-1903038D01*
X+3004658Y-1902601D01*
X+3006344Y-1902460D01*
X+2996184Y-1912620D02*
X+2996219Y-1913465D01*
X+2996506Y-1915156D01*
X+2997105Y-1916847D01*
X+2998085Y-1918538D01*
X+2999585Y-1920206D01*
X+3001276Y-1921426D01*
X+3002967Y-1922202D01*
X+3004658Y-1922639D01*
X+3006344Y-1922780D01*
X+3016504Y-1912620D02*
X+3016469Y-1913465D01*
X+3016182Y-1915156D01*
X+3015583Y-1916847D01*
X+3014603Y-1918538D01*
X+3013103Y-1920206D01*
X+3011412Y-1921426D01*
X+3009721Y-1922202D01*
X+3008030Y-1922639D01*
X+3006344Y-1922780D01*
D43*
X-412400Y-846600D02*
X-412443Y-845561D01*
X-412795Y-843482D01*
X-413532Y-841403D01*
X-414736Y-839324D01*
X-416577Y-837274D01*
X-418656Y-835771D01*
X-420735Y-834814D01*
X-422814Y-834275D01*
X-424893Y-834100D01*
X-424900Y-834100D01*
X-437400Y-846600D02*
X-437357Y-845561D01*
X-437005Y-843482D01*
X-436268Y-841403D01*
X-435064Y-839324D01*
X-433223Y-837274D01*
X-431144Y-835771D01*
X-429065Y-834814D01*
X-426986Y-834275D01*
X-424907Y-834100D01*
X-424900Y-834100D01*
X-437400Y-846600D02*
X-437357Y-847639D01*
X-437005Y-849718D01*
X-436268Y-851797D01*
X-435064Y-853876D01*
X-433223Y-855926D01*
X-431144Y-857429D01*
X-429065Y-858386D01*
X-426986Y-858925D01*
X-424907Y-859100D01*
X-424900Y-859100D01*
X-412400Y-846600D02*
X-412443Y-847639D01*
X-412795Y-849718D01*
X-413532Y-851797D01*
X-414736Y-853876D01*
X-416577Y-855926D01*
X-418656Y-857429D01*
X-420735Y-858386D01*
X-422814Y-858925D01*
X-424893Y-859100D01*
X-424900Y-859100D01*
D42*
X-574900Y-1176600D02*
X-794900Y-1176600D01*
X-794900Y-866600D01*
X-574900Y-866600D01*
X-574900Y-1176600D01*
D45*
X-574900Y-876600D02*
X-584900Y-866600D01*
X-574900Y-886600D02*
X-594900Y-866600D01*
X-574900Y-896600D02*
X-604900Y-866600D01*
X-574900Y-906600D02*
X-614900Y-866600D01*
X-574900Y-916600D02*
X-624900Y-866600D01*
X-574900Y-926600D02*
X-634900Y-866600D01*
X-574900Y-936600D02*
X-644900Y-866600D01*
X-574900Y-946600D02*
X-654900Y-866600D01*
X-574900Y-956600D02*
X-664900Y-866600D01*
D40*
X+642620Y-1948180D02*
X+642620Y-1867218D01*
X+631999Y-1865136D01*
X+623433Y-1859416D01*
X+617714Y-1850851D01*
X+615632Y-1840230D01*
X+642620Y-1813242D02*
X+631999Y-1815324D01*
X+623433Y-1821044D01*
X+617714Y-1829609D01*
X+615632Y-1840230D01*
X+642620Y-1813242D02*
X+642620Y-1732280D01*
X+195580Y-1871980D02*
X+195580Y-1808480D01*
X+609600Y-1948180D02*
X+228600Y-1948180D01*
X+609600Y-1732280D02*
X+228600Y-1732280D01*
X+609600Y-1948180D02*
X+642620Y-1948180D01*
X+642620Y-1732280D02*
X+609600Y-1732280D01*
X+195580Y-1808480D02*
X+195580Y-1732280D01*
X+228600Y-1732280D01*
X+228600Y-1948180D02*
X+195580Y-1948180D01*
X+195580Y-1871980D01*
X+603504Y-1912620D02*
X+603469Y-1911775D01*
X+603182Y-1910084D01*
X+602583Y-1908393D01*
X+601603Y-1906702D01*
X+600103Y-1905034D01*
X+598412Y-1903814D01*
X+596721Y-1903038D01*
X+595030Y-1902601D01*
X+593344Y-1902460D01*
X+583184Y-1912620D02*
X+583219Y-1911775D01*
X+583506Y-1910084D01*
X+584105Y-1908393D01*
X+585085Y-1906702D01*
X+586585Y-1905034D01*
X+588276Y-1903814D01*
X+589967Y-1903038D01*
X+591658Y-1902601D01*
X+593344Y-1902460D01*
X+583184Y-1912620D02*
X+583219Y-1913465D01*
X+583506Y-1915156D01*
X+584105Y-1916847D01*
X+585085Y-1918538D01*
X+586585Y-1920206D01*
X+588276Y-1921426D01*
X+589967Y-1922202D01*
X+591658Y-1922639D01*
X+593344Y-1922780D01*
X+603504Y-1912620D02*
X+603469Y-1913465D01*
X+603182Y-1915156D01*
X+602583Y-1916847D01*
X+601603Y-1918538D01*
X+600103Y-1920206D01*
X+598412Y-1921426D01*
X+596721Y-1922202D01*
X+595030Y-1922639D01*
X+593344Y-1922780D01*
D43*
X-2761900Y-833900D02*
X-2761943Y-832861D01*
X-2762295Y-830782D01*
X-2763032Y-828703D01*
X-2764236Y-826624D01*
X-2766077Y-824574D01*
X-2768156Y-823071D01*
X-2770235Y-822114D01*
X-2772314Y-821575D01*
X-2774393Y-821400D01*
X-2774400Y-821400D01*
X-2786900Y-833900D02*
X-2786857Y-832861D01*
X-2786505Y-830782D01*
X-2785768Y-828703D01*
X-2784564Y-826624D01*
X-2782723Y-824574D01*
X-2780644Y-823071D01*
X-2778565Y-822114D01*
X-2776486Y-821575D01*
X-2774407Y-821400D01*
X-2774400Y-821400D01*
X-2786900Y-833900D02*
X-2786857Y-834939D01*
X-2786505Y-837018D01*
X-2785768Y-839097D01*
X-2784564Y-841176D01*
X-2782723Y-843226D01*
X-2780644Y-844729D01*
X-2778565Y-845686D01*
X-2776486Y-846225D01*
X-2774407Y-846400D01*
X-2774400Y-846400D01*
X-2761900Y-833900D02*
X-2761943Y-834939D01*
X-2762295Y-837018D01*
X-2763032Y-839097D01*
X-2764236Y-841176D01*
X-2766077Y-843226D01*
X-2768156Y-844729D01*
X-2770235Y-845686D01*
X-2772314Y-846225D01*
X-2774393Y-846400D01*
X-2774400Y-846400D01*
D42*
X-2924400Y-1163900D02*
X-3144400Y-1163900D01*
X-3144400Y-853900D01*
X-2924400Y-853900D01*
X-2924400Y-1163900D01*
D45*
X-2924400Y-863900D02*
X-2934400Y-853900D01*
X-2924400Y-873900D02*
X-2944400Y-853900D01*
X-2924400Y-883900D02*
X-2954400Y-853900D01*
X-2924400Y-893900D02*
X-2964400Y-853900D01*
X-2924400Y-903900D02*
X-2974400Y-853900D01*
X-2924400Y-913900D02*
X-2984400Y-853900D01*
X-2924400Y-923900D02*
X-2994400Y-853900D01*
X-2924400Y-933900D02*
X-3004400Y-853900D01*
X-2924400Y-943900D02*
X-3014400Y-853900D01*
D40*
X-1770380Y-1948180D02*
X-1770380Y-1867218D01*
X-1781001Y-1865136D01*
X-1789567Y-1859416D01*
X-1795286Y-1850851D01*
X-1797368Y-1840230D01*
X-1770380Y-1813242D02*
X-1781001Y-1815324D01*
X-1789567Y-1821044D01*
X-1795286Y-1829609D01*
X-1797368Y-1840230D01*
X-1770380Y-1813242D02*
X-1770380Y-1732280D01*
X-2217420Y-1871980D02*
X-2217420Y-1808480D01*
X-1803400Y-1948180D02*
X-2184400Y-1948180D01*
X-1803400Y-1732280D02*
X-2184400Y-1732280D01*
X-1803400Y-1948180D02*
X-1770380Y-1948180D01*
X-1770380Y-1732280D02*
X-1803400Y-1732280D01*
X-2217420Y-1808480D02*
X-2217420Y-1732280D01*
X-2184400Y-1732280D01*
X-2184400Y-1948180D02*
X-2217420Y-1948180D01*
X-2217420Y-1871980D01*
X-1809496Y-1912620D02*
X-1809531Y-1911775D01*
X-1809818Y-1910084D01*
X-1810417Y-1908393D01*
X-1811397Y-1906702D01*
X-1812897Y-1905034D01*
X-1814588Y-1903814D01*
X-1816279Y-1903038D01*
X-1817970Y-1902601D01*
X-1819656Y-1902460D01*
X-1829816Y-1912620D02*
X-1829781Y-1911775D01*
X-1829494Y-1910084D01*
X-1828895Y-1908393D01*
X-1827915Y-1906702D01*
X-1826415Y-1905034D01*
X-1824724Y-1903814D01*
X-1823033Y-1903038D01*
X-1821342Y-1902601D01*
X-1819656Y-1902460D01*
X-1829816Y-1912620D02*
X-1829781Y-1913465D01*
X-1829494Y-1915156D01*
X-1828895Y-1916847D01*
X-1827915Y-1918538D01*
X-1826415Y-1920206D01*
X-1824724Y-1921426D01*
X-1823033Y-1922202D01*
X-1821342Y-1922639D01*
X-1819656Y-1922780D01*
X-1809496Y-1912620D02*
X-1809531Y-1913465D01*
X-1809818Y-1915156D01*
X-1810417Y-1916847D01*
X-1811397Y-1918538D01*
X-1812897Y-1920206D01*
X-1814588Y-1921426D01*
X-1816279Y-1922202D01*
X-1817970Y-1922639D01*
X-1819656Y-1922780D01*
D42*
X-3157400Y+542620D02*
X-3157400Y+132620D01*
X-3497400Y+542620D02*
X-3497400Y+132620D01*
X+6494600Y+542620D02*
X+6494600Y+132620D01*
X+6154600Y+542620D02*
X+6154600Y+132620D01*
X+1668600Y+542620D02*
X+1668600Y+132620D01*
X+1328600Y+542620D02*
X+1328600Y+132620D01*
X+4081600Y+542620D02*
X+4081600Y+132620D01*
X+3741600Y+542620D02*
X+3741600Y+132620D01*
X-744400Y+542620D02*
X-744400Y+132620D01*
X-1084400Y+542620D02*
X-1084400Y+132620D01*
D40*
X+7810500Y-889000D02*
X+7937500Y-1016000D01*
X+7937500Y-1270000D01*
X+7810500Y-1397000D01*
X+7429500Y-1397000D01*
X+7429500Y-889000D01*
X+7810500Y-889000D01*
X+7874000Y-1016000D02*
X+7747000Y-1016000D01*
X+7810500Y-952500D02*
X+7810500Y-1079500D01*
D42*
X+7753600Y-844380D02*
X+7643600Y-844380D01*
X+7753600Y-664380D02*
X+7643600Y-664380D01*
D40*
X+5397500Y-889000D02*
X+5524500Y-1016000D01*
X+5524500Y-1270000D01*
X+5397500Y-1397000D01*
X+5016500Y-1397000D01*
X+5016500Y-889000D01*
X+5397500Y-889000D01*
X+5461000Y-1016000D02*
X+5334000Y-1016000D01*
X+5397500Y-952500D02*
X+5397500Y-1079500D01*
D42*
X+5340600Y-844380D02*
X+5230600Y-844380D01*
X+5340600Y-664380D02*
X+5230600Y-664380D01*
D40*
X+3048000Y-889000D02*
X+3175000Y-1016000D01*
X+3175000Y-1270000D01*
X+3048000Y-1397000D01*
X+2667000Y-1397000D01*
X+2667000Y-889000D01*
X+3048000Y-889000D01*
X+3111500Y-1016000D02*
X+2984500Y-1016000D01*
X+3048000Y-952500D02*
X+3048000Y-1079500D01*
D42*
X+2927600Y-844380D02*
X+2817600Y-844380D01*
X+2927600Y-664380D02*
X+2817600Y-664380D01*
D40*
X+571500Y-889000D02*
X+698500Y-1016000D01*
X+698500Y-1270000D01*
X+571500Y-1397000D01*
X+190500Y-1397000D01*
X+190500Y-889000D01*
X+571500Y-889000D01*
X+635000Y-1016000D02*
X+508000Y-1016000D01*
X+571500Y-952500D02*
X+571500Y-1079500D01*
D42*
X+514600Y-844380D02*
X+404600Y-844380D01*
X+514600Y-664380D02*
X+404600Y-664380D01*
D40*
X-1841500Y-889000D02*
X-1714500Y-1016000D01*
X-1714500Y-1270000D01*
X-1841500Y-1397000D01*
X-2222500Y-1397000D01*
X-2222500Y-889000D01*
X-1841500Y-889000D01*
X-1778000Y-1016000D02*
X-1905000Y-1016000D01*
X-1841500Y-952500D02*
X-1841500Y-1079500D01*
D42*
X-1898400Y-844380D02*
X-2008400Y-844380D01*
X-1898400Y-664380D02*
X-2008400Y-664380D01*
X+6610600Y-2241380D02*
X+6510600Y-2241380D01*
X+6610600Y-2061380D02*
X+6510600Y-2061380D01*
X+6583100Y-1733380D02*
X+6483100Y-1733380D01*
X+6583100Y-1553380D02*
X+6483100Y-1553380D01*
X+6615600Y-504880D02*
X+6615600Y-404880D01*
X+6795600Y-504880D02*
X+6795600Y-404880D01*
X+6133000Y-501900D02*
X+6133000Y-401900D01*
X+6313000Y-501900D02*
X+6313000Y-401900D01*
X+7154600Y-2241380D02*
X+7054600Y-2241380D01*
X+7154600Y-2061380D02*
X+7054600Y-2061380D01*
X+8218000Y-2345000D02*
X+8218000Y-2445000D01*
X+8038000Y-2345000D02*
X+8038000Y-2445000D01*
X+7753600Y-2495380D02*
X+7643600Y-2495380D01*
X+7753600Y-2315380D02*
X+7643600Y-2315380D01*
X+7126500Y-369400D02*
X+7016500Y-369400D01*
X+7126500Y-189400D02*
X+7016500Y-189400D01*
X+8192600Y-214380D02*
X+8192600Y-314380D01*
X+8012600Y-214380D02*
X+8012600Y-314380D01*
X+7689600Y-29380D02*
X+7789600Y-29380D01*
X+7689600Y-209380D02*
X+7789600Y-209380D01*
X+7753600Y-2749380D02*
X+7653600Y-2749380D01*
X+7753600Y-2569380D02*
X+7653600Y-2569380D01*
X+6554300Y-404880D02*
X+6554300Y-514880D01*
X+6374300Y-404880D02*
X+6374300Y-514880D01*
X+6737600Y-1499700D02*
X+6627600Y-1499700D01*
X+6737600Y-1319700D02*
X+6627600Y-1319700D01*
X+7164600Y-1733380D02*
X+7054600Y-1733380D01*
X+7164600Y-1553380D02*
X+7054600Y-1553380D01*
X+7164600Y-1987380D02*
X+7054600Y-1987380D01*
X+7164600Y-1807380D02*
X+7054600Y-1807380D01*
X+6610600Y-1987380D02*
X+6500600Y-1987380D01*
X+6610600Y-1807380D02*
X+6500600Y-1807380D01*
X+4769100Y-1987380D02*
X+4659100Y-1987380D01*
X+4769100Y-1807380D02*
X+4659100Y-1807380D01*
X+4256300Y-1499700D02*
X+4146300Y-1499700D01*
X+4256300Y-1319700D02*
X+4146300Y-1319700D01*
X+4116600Y-1733380D02*
X+4006600Y-1733380D01*
X+4116600Y-1553380D02*
X+4006600Y-1553380D01*
X+4065100Y-399800D02*
X+4065100Y-509800D01*
X+3885100Y-399800D02*
X+3885100Y-509800D01*
X+4769100Y-1733380D02*
X+4659100Y-1733380D01*
X+4769100Y-1553380D02*
X+4659100Y-1553380D01*
X+5340600Y-2495380D02*
X+5230600Y-2495380D01*
X+5340600Y-2315380D02*
X+5230600Y-2315380D01*
X+5340600Y-2749380D02*
X+5240600Y-2749380D01*
X+5340600Y-2569380D02*
X+5240600Y-2569380D01*
X+5779600Y-2337380D02*
X+5779600Y-2437380D01*
X+5599600Y-2337380D02*
X+5599600Y-2437380D01*
X+5779600Y-214380D02*
X+5779600Y-314380D01*
X+5599600Y-214380D02*
X+5599600Y-314380D01*
X+5240600Y-29380D02*
X+5340600Y-29380D01*
X+5240600Y-209380D02*
X+5340600Y-209380D01*
X+2927600Y-2749380D02*
X+2827600Y-2749380D01*
X+2927600Y-2569380D02*
X+2827600Y-2569380D01*
X+3366600Y-2373380D02*
X+3366600Y-2473380D01*
X+3186600Y-2373380D02*
X+3186600Y-2473380D01*
X+3366600Y-277880D02*
X+3366600Y-377880D01*
X+3186600Y-277880D02*
X+3186600Y-377880D01*
X+2863600Y-92880D02*
X+2963600Y-92880D01*
X+2863600Y-272880D02*
X+2963600Y-272880D01*
X+4139100Y-499800D02*
X+4139100Y-399800D01*
X+4319100Y-499800D02*
X+4319100Y-399800D01*
X+3643800Y-487100D02*
X+3643800Y-387100D01*
X+3823800Y-487100D02*
X+3823800Y-387100D01*
X+4650000Y-344000D02*
X+4540000Y-344000D01*
X+4650000Y-164000D02*
X+4540000Y-164000D01*
X+4106600Y-2241380D02*
X+4006600Y-2241380D01*
X+4106600Y-2061380D02*
X+4006600Y-2061380D01*
X+4106600Y-1987380D02*
X+4006600Y-1987380D01*
X+4106600Y-1807380D02*
X+4006600Y-1807380D01*
X+4769100Y-2241380D02*
X+4669100Y-2241380D01*
X+4769100Y-2061380D02*
X+4669100Y-2061380D01*
X+2927600Y-2495380D02*
X+2817600Y-2495380D01*
X+2927600Y-2315380D02*
X+2817600Y-2315380D01*
X+1218100Y-443480D02*
X+1218100Y-343480D01*
X+1398100Y-443480D02*
X+1398100Y-343480D01*
X+1708600Y-456180D02*
X+1708600Y-356180D01*
X+1888600Y-456180D02*
X+1888600Y-356180D01*
X-674200Y-517580D02*
X-674200Y-417580D01*
X-494200Y-517580D02*
X-494200Y-417580D01*
X-1156800Y-517580D02*
X-1156800Y-417580D01*
X-976800Y-517580D02*
X-976800Y-417580D01*
X+1639400Y-346180D02*
X+1639400Y-456180D01*
X+1459400Y-346180D02*
X+1459400Y-456180D01*
X-734450Y-418630D02*
X-734450Y-528630D01*
X-914450Y-418630D02*
X-914450Y-528630D01*
X+1843300Y-1504780D02*
X+1733300Y-1504780D01*
X+1843300Y-1324780D02*
X+1733300Y-1324780D01*
X-557000Y-1492080D02*
X-667000Y-1492080D01*
X-557000Y-1312080D02*
X-667000Y-1312080D01*
X+2231920Y-331300D02*
X+2121920Y-331300D01*
X+2231920Y-151300D02*
X+2121920Y-151300D01*
X-176280Y-382100D02*
X-286280Y-382100D01*
X-176280Y-202100D02*
X-286280Y-202100D01*
X-3099900Y-468880D02*
X-3099900Y-368880D01*
X-2919900Y-468880D02*
X-2919900Y-368880D01*
X-3607900Y-463800D02*
X-3607900Y-363800D01*
X-3427900Y-463800D02*
X-3427900Y-363800D01*
X-2525500Y-369400D02*
X-2635500Y-369400D01*
X-2525500Y-189400D02*
X-2635500Y-189400D01*
X-3173900Y-358880D02*
X-3173900Y-468880D01*
X-3353900Y-358880D02*
X-3353900Y-468880D01*
X-2952500Y-1492080D02*
X-3062500Y-1492080D01*
X-2952500Y-1312080D02*
X-3062500Y-1312080D01*
X+1693600Y-2241380D02*
X+1593600Y-2241380D01*
X+1693600Y-2061380D02*
X+1593600Y-2061380D01*
X+1693600Y-1733380D02*
X+1593600Y-1733380D01*
X+1693600Y-1553380D02*
X+1593600Y-1553380D01*
X+2265100Y-2241380D02*
X+2165100Y-2241380D01*
X+2265100Y-2061380D02*
X+2165100Y-2061380D01*
X+2275100Y-1987380D02*
X+2165100Y-1987380D01*
X+2275100Y-1807380D02*
X+2165100Y-1807380D01*
X+1703600Y-1987380D02*
X+1593600Y-1987380D01*
X+1703600Y-1807380D02*
X+1593600Y-1807380D01*
X+2275100Y-1733380D02*
X+2165100Y-1733380D01*
X+2275100Y-1553380D02*
X+2165100Y-1553380D01*
X+514600Y-2495380D02*
X+404600Y-2495380D01*
X+514600Y-2315380D02*
X+404600Y-2315380D01*
X+953600Y-2337380D02*
X+953600Y-2437380D01*
X+773600Y-2337380D02*
X+773600Y-2437380D01*
X+514600Y-2749380D02*
X+414600Y-2749380D01*
X+514600Y-2569380D02*
X+414600Y-2569380D01*
X+953600Y-277880D02*
X+953600Y-377880D01*
X+773600Y-277880D02*
X+773600Y-377880D01*
X+450600Y-92880D02*
X+550600Y-92880D01*
X+450600Y-272880D02*
X+550600Y-272880D01*
X-84400Y-2241380D02*
X-184400Y-2241380D01*
X-84400Y-2061380D02*
X-184400Y-2061380D01*
X-719400Y-2241380D02*
X-819400Y-2241380D01*
X-719400Y-2061380D02*
X-819400Y-2061380D01*
X-719400Y-1733380D02*
X-819400Y-1733380D01*
X-719400Y-1553380D02*
X-819400Y-1553380D01*
X-74400Y-1987380D02*
X-184400Y-1987380D01*
X-74400Y-1807380D02*
X-184400Y-1807380D01*
X-709400Y-1987380D02*
X-819400Y-1987380D01*
X-709400Y-1807380D02*
X-819400Y-1807380D01*
X-74400Y-1733380D02*
X-184400Y-1733380D01*
X-74400Y-1553380D02*
X-184400Y-1553380D01*
X-2487400Y-1987380D02*
X-2597400Y-1987380D01*
X-2487400Y-1807380D02*
X-2597400Y-1807380D01*
X-3122400Y-1733380D02*
X-3232400Y-1733380D01*
X-3122400Y-1553380D02*
X-3232400Y-1553380D01*
X-2487400Y-1733380D02*
X-2597400Y-1733380D01*
X-2487400Y-1553380D02*
X-2597400Y-1553380D01*
X-1898400Y-2495380D02*
X-2008400Y-2495380D01*
X-1898400Y-2315380D02*
X-2008400Y-2315380D01*
X-3132400Y-2241380D02*
X-3232400Y-2241380D01*
X-3132400Y-2061380D02*
X-3232400Y-2061380D01*
X-3132400Y-1987380D02*
X-3232400Y-1987380D01*
X-3132400Y-1807380D02*
X-3232400Y-1807380D01*
X-2497400Y-2241380D02*
X-2597400Y-2241380D01*
X-2497400Y-2061380D02*
X-2597400Y-2061380D01*
X-1459400Y-2373380D02*
X-1459400Y-2473380D01*
X-1639400Y-2373380D02*
X-1639400Y-2473380D01*
X-1459400Y-241880D02*
X-1459400Y-341880D01*
X-1639400Y-241880D02*
X-1639400Y-341880D01*
X-1962400Y-92880D02*
X-1862400Y-92880D01*
X-1962400Y-272880D02*
X-1862400Y-272880D01*
X-1898400Y-2749380D02*
X-1998400Y-2749380D01*
X-1898400Y-2569380D02*
X-1998400Y-2569380D01*
D40*
X-3937000Y+444500D02*
X-3937000Y+368300D01*
X-4572000Y+368300D01*
X-4572000Y+444500D01*
X-4216400Y+368300D02*
X-4216400Y+317500D01*
X-4292600Y+317500D01*
X-4292600Y+368300D01*
X-3987800Y+368300D02*
X-3987800Y+292100D01*
X-4051300Y+292100D01*
X-4051300Y+368300D01*
X-4521200Y+368300D02*
X-4521200Y+292100D01*
X-4457700Y+292100D01*
X-4457700Y+368300D02*
X-4457700Y+292100D01*
D42*
X-5735500Y+535000D02*
X-5735500Y+125000D01*
X-6075500Y+535000D02*
X-6075500Y+125000D01*
D43*
X-5174900Y-859300D02*
X-5174943Y-858261D01*
X-5175295Y-856182D01*
X-5176032Y-854103D01*
X-5177236Y-852024D01*
X-5179077Y-849974D01*
X-5181156Y-848471D01*
X-5183235Y-847514D01*
X-5185314Y-846975D01*
X-5187393Y-846800D01*
X-5187400Y-846800D01*
X-5199900Y-859300D02*
X-5199857Y-858261D01*
X-5199505Y-856182D01*
X-5198768Y-854103D01*
X-5197564Y-852024D01*
X-5195723Y-849974D01*
X-5193644Y-848471D01*
X-5191565Y-847514D01*
X-5189486Y-846975D01*
X-5187407Y-846800D01*
X-5187400Y-846800D01*
X-5199900Y-859300D02*
X-5199857Y-860339D01*
X-5199505Y-862418D01*
X-5198768Y-864497D01*
X-5197564Y-866576D01*
X-5195723Y-868626D01*
X-5193644Y-870129D01*
X-5191565Y-871086D01*
X-5189486Y-871625D01*
X-5187407Y-871800D01*
X-5187400Y-871800D01*
X-5174900Y-859300D02*
X-5174943Y-860339D01*
X-5175295Y-862418D01*
X-5176032Y-864497D01*
X-5177236Y-866576D01*
X-5179077Y-868626D01*
X-5181156Y-870129D01*
X-5183235Y-871086D01*
X-5185314Y-871625D01*
X-5187393Y-871800D01*
X-5187400Y-871800D01*
D42*
X-5337400Y-1189300D02*
X-5557400Y-1189300D01*
X-5557400Y-879300D01*
X-5337400Y-879300D01*
X-5337400Y-1189300D01*
D45*
X-5337400Y-889300D02*
X-5347400Y-879300D01*
X-5337400Y-899300D02*
X-5357400Y-879300D01*
X-5337400Y-909300D02*
X-5367400Y-879300D01*
X-5337400Y-919300D02*
X-5377400Y-879300D01*
X-5337400Y-929300D02*
X-5387400Y-879300D01*
X-5337400Y-939300D02*
X-5397400Y-879300D01*
X-5337400Y-949300D02*
X-5407400Y-879300D01*
X-5337400Y-959300D02*
X-5417400Y-879300D01*
X-5337400Y-969300D02*
X-5427400Y-879300D01*
D40*
X-4157980Y-1955800D02*
X-4157980Y-1874838D01*
X-4168601Y-1872756D01*
X-4177167Y-1867036D01*
X-4182886Y-1858471D01*
X-4184968Y-1847850D01*
X-4157980Y-1820862D02*
X-4168601Y-1822944D01*
X-4177167Y-1828664D01*
X-4182886Y-1837229D01*
X-4184968Y-1847850D01*
X-4157980Y-1820862D02*
X-4157980Y-1739900D01*
X-4605020Y-1879600D02*
X-4605020Y-1816100D01*
X-4191000Y-1955800D02*
X-4572000Y-1955800D01*
X-4191000Y-1739900D02*
X-4572000Y-1739900D01*
X-4191000Y-1955800D02*
X-4157980Y-1955800D01*
X-4157980Y-1739900D02*
X-4191000Y-1739900D01*
X-4605020Y-1816100D02*
X-4605020Y-1739900D01*
X-4572000Y-1739900D01*
X-4572000Y-1955800D02*
X-4605020Y-1955800D01*
X-4605020Y-1879600D01*
X-4197096Y-1920240D02*
X-4197131Y-1919395D01*
X-4197418Y-1917704D01*
X-4198017Y-1916013D01*
X-4198997Y-1914322D01*
X-4200497Y-1912654D01*
X-4202188Y-1911434D01*
X-4203879Y-1910658D01*
X-4205570Y-1910221D01*
X-4207256Y-1910080D01*
X-4217416Y-1920240D02*
X-4217381Y-1919395D01*
X-4217094Y-1917704D01*
X-4216495Y-1916013D01*
X-4215515Y-1914322D01*
X-4214015Y-1912654D01*
X-4212324Y-1911434D01*
X-4210633Y-1910658D01*
X-4208942Y-1910221D01*
X-4207256Y-1910080D01*
X-4217416Y-1920240D02*
X-4217381Y-1921085D01*
X-4217094Y-1922776D01*
X-4216495Y-1924467D01*
X-4215515Y-1926158D01*
X-4214015Y-1927826D01*
X-4212324Y-1929046D01*
X-4210633Y-1929822D01*
X-4208942Y-1930259D01*
X-4207256Y-1930400D01*
X-4197096Y-1920240D02*
X-4197131Y-1921085D01*
X-4197418Y-1922776D01*
X-4198017Y-1924467D01*
X-4198997Y-1926158D01*
X-4200497Y-1927826D01*
X-4202188Y-1929046D01*
X-4203879Y-1929822D01*
X-4205570Y-1930259D01*
X-4207256Y-1930400D01*
D43*
X-4907500Y+890500D02*
X-4907543Y+891539D01*
X-4907895Y+893618D01*
X-4908632Y+895697D01*
X-4909836Y+897776D01*
X-4911677Y+899826D01*
X-4913756Y+901329D01*
X-4915835Y+902286D01*
X-4917914Y+902825D01*
X-4919993Y+903000D01*
X-4920000Y+903000D01*
X-4932500Y+890500D02*
X-4932457Y+891539D01*
X-4932105Y+893618D01*
X-4931368Y+895697D01*
X-4930164Y+897776D01*
X-4928323Y+899826D01*
X-4926244Y+901329D01*
X-4924165Y+902286D01*
X-4922086Y+902825D01*
X-4920007Y+903000D01*
X-4920000Y+903000D01*
X-4932500Y+890500D02*
X-4932457Y+889461D01*
X-4932105Y+887382D01*
X-4931368Y+885303D01*
X-4930164Y+883224D01*
X-4928323Y+881174D01*
X-4926244Y+879671D01*
X-4924165Y+878714D01*
X-4922086Y+878175D01*
X-4920007Y+878000D01*
X-4920000Y+878000D01*
X-4907500Y+890500D02*
X-4907543Y+889461D01*
X-4907895Y+887382D01*
X-4908632Y+885303D01*
X-4909836Y+883224D01*
X-4911677Y+881174D01*
X-4913756Y+879671D01*
X-4915835Y+878714D01*
X-4917914Y+878175D01*
X-4919993Y+878000D01*
X-4920000Y+878000D01*
D42*
X-4935000Y+955500D02*
X-4890000Y+955500D01*
X-4890000Y+1515500D01*
X-4935000Y+1515500D01*
X-5225000Y+955500D02*
X-5270000Y+955500D01*
X-5270000Y+1515500D01*
X-5225000Y+1515500D01*
D44*
X-4070500Y-1781910D02*
X-3930500Y-1781910D01*
X-4070500Y-1801910D02*
X-3930500Y-1801910D01*
X-4070500Y-1911910D02*
X-3930500Y-1911910D01*
X-3930500Y-1751910D01*
X-4070500Y-1751910D01*
X-4070500Y-1911910D01*
D40*
X-3987800Y-1369060D02*
X-3898900Y-1369060D01*
X-3881120Y-1480820D02*
X-3810000Y-1480820D01*
X-3987800Y-1369060D02*
X-3987800Y-1460500D01*
X-3698240Y-1463040D02*
X-3698240Y-1369060D01*
X-3784600Y-1369060D01*
X-5588000Y+1034000D02*
X-5715000Y+907000D01*
X-6096000Y+907000D01*
X-6223000Y+1034000D01*
X-6223000Y+1478500D01*
X-5588000Y+1478500D01*
X-5588000Y+1034000D01*
X-5715000Y+970500D02*
X-5715000Y+1097500D01*
X-5651500Y+1034000D02*
X-5778500Y+1034000D01*
D42*
X-5389500Y+455500D02*
X-4989500Y+455500D01*
X-5389500Y-74500D02*
X-4989500Y-74500D01*
D40*
X-3381375Y-3487420D02*
X-3444875Y-3487420D01*
X-3413125Y-3487420D02*
X-3413125Y-3578860D01*
X-3381375Y-3578860D02*
X-3444875Y-3578860D01*
X-3492500Y-3578860D02*
X-3492500Y-3487420D01*
X-3587750Y-3487420D01*
X-3492500Y-3533140D02*
X-3556000Y-3533140D01*
X-3619500Y-3578860D02*
X-3619500Y-3487420D01*
X-3698875Y-3487420D01*
X-3714750Y-3502660D01*
X-3714750Y-3517900D01*
X-3698875Y-3533140D01*
X-3714750Y-3548380D01*
X-3714750Y-3563620D01*
X-3698875Y-3578860D01*
X-3619500Y-3578860D01*
X-3619500Y-3533140D02*
X-3698875Y-3533140D01*
X-3778250Y-3517900D02*
X-3810000Y-3487420D01*
X-3810000Y-3578860D01*
X-3905250Y-3517900D02*
X-3937000Y-3487420D01*
X-3937000Y-3578860D01*
X-3470275Y-2966720D02*
X-3533775Y-2966720D01*
X-3502025Y-2966720D02*
X-3502025Y-3058160D01*
X-3470275Y-3058160D02*
X-3533775Y-3058160D01*
X-3581400Y-3058160D02*
X-3581400Y-2966720D01*
X-3676650Y-3058160D01*
X-3676650Y-2966720D01*
X-3708400Y-3058160D02*
X-3708400Y-2966720D01*
X-3803650Y-2966720D02*
X-3803650Y-3058160D01*
X-3708400Y-3012440D02*
X-3803650Y-3012440D01*
X-3867150Y-2997200D02*
X-3898900Y-2966720D01*
X-3898900Y-3058160D01*
X-3994150Y-2997200D02*
X-4025900Y-2966720D01*
X-4025900Y-3058160D01*
X-3416300Y-3344449D02*
X-3416300Y-3253009D01*
X-3495675Y-3253009D01*
X-3511550Y-3268249D01*
X-3511550Y-3283489D01*
X-3495675Y-3298729D01*
X-3416300Y-3298729D01*
X-3543300Y-3253009D02*
X-3543300Y-3344449D01*
X-3590925Y-3298729D01*
X-3638550Y-3344449D01*
X-3638550Y-3253009D01*
X-3670300Y-3344449D02*
X-3670300Y-3253009D01*
X-3717925Y-3298729D01*
X-3765550Y-3253009D01*
X-3765550Y-3344449D01*
X-3829050Y-3283489D02*
X-3860800Y-3253009D01*
X-3860800Y-3344449D01*
X-3956050Y-3283489D02*
X-3987800Y-3253009D01*
X-3987800Y-3344449D01*
D42*
X-4875000Y-1995000D02*
X-4985000Y-1995000D01*
X-4875000Y-1815000D02*
X-4985000Y-1815000D01*
X-5268700Y-1499700D02*
X-5378700Y-1499700D01*
X-5268700Y-1319700D02*
X-5378700Y-1319700D01*
X-5446500Y-1741000D02*
X-5556500Y-1741000D01*
X-5446500Y-1561000D02*
X-5556500Y-1561000D01*
X-5663100Y-399800D02*
X-5663100Y-509800D01*
X-5843100Y-399800D02*
X-5843100Y-509800D01*
X-4875000Y-1741000D02*
X-4985000Y-1741000D01*
X-4875000Y-1561000D02*
X-4985000Y-1561000D01*
X-4286000Y-2503000D02*
X-4396000Y-2503000D01*
X-4286000Y-2323000D02*
X-4396000Y-2323000D01*
X-4286000Y-852000D02*
X-4396000Y-852000D01*
X-4286000Y-672000D02*
X-4396000Y-672000D01*
X-5065500Y-420200D02*
X-5175500Y-420200D01*
X-5065500Y-240200D02*
X-5175500Y-240200D01*
D40*
X-4205110Y-903110D02*
X-4078110Y-1030110D01*
X-4078110Y-1284110D01*
X-4205110Y-1411110D01*
X-4586110Y-1411110D01*
X-4586110Y-903110D01*
X-4205110Y-903110D01*
X-4141610Y-1030110D02*
X-4268610Y-1030110D01*
X-4205110Y-966610D02*
X-4205110Y-1093610D01*
D42*
X-5456500Y-2249000D02*
X-5556500Y-2249000D01*
X-5456500Y-2069000D02*
X-5556500Y-2069000D01*
X-5456500Y-1995000D02*
X-5556500Y-1995000D01*
X-5456500Y-1815000D02*
X-5556500Y-1815000D01*
X-5589100Y-499800D02*
X-5589100Y-399800D01*
X-5409100Y-499800D02*
X-5409100Y-399800D01*
X-6097100Y-499800D02*
X-6097100Y-399800D01*
X-5917100Y-499800D02*
X-5917100Y-399800D01*
X-4885000Y-2249000D02*
X-4985000Y-2249000D01*
X-4885000Y-2069000D02*
X-4985000Y-2069000D01*
X-3847000Y-2345000D02*
X-3847000Y-2445000D01*
X-4027000Y-2345000D02*
X-4027000Y-2445000D01*
X-3910500Y-285500D02*
X-3910500Y-385500D01*
X-4090500Y-285500D02*
X-4090500Y-385500D01*
X-4413500Y-100500D02*
X-4313500Y-100500D01*
X-4413500Y-280500D02*
X-4313500Y-280500D01*
X-4286000Y-2757000D02*
X-4386000Y-2757000D01*
X-4286000Y-2577000D02*
X-4386000Y-2577000D01*
X+7271000Y-2503000D02*
X+7171000Y-2503000D01*
X+7271000Y-2323000D02*
X+7171000Y-2323000D01*
D40*
X+7475000Y-2282520D02*
X+7475000Y-2191080D01*
X+7395625Y-2191080D01*
X+7379750Y-2206320D01*
X+7379750Y-2221560D01*
X+7395625Y-2236800D01*
X+7475000Y-2236800D01*
X+7395625Y-2236800D02*
X+7379750Y-2252040D01*
X+7379750Y-2282520D01*
X+7348000Y-2191080D02*
X+7348000Y-2236800D01*
X+7300375Y-2282520D01*
X+7252750Y-2236800D01*
X+7252750Y-2191080D01*
X+7125750Y-2252040D02*
X+7221000Y-2252040D01*
X+7157500Y-2191080D01*
X+7157500Y-2282520D01*
X+7078125Y-2206320D02*
X+7062250Y-2191080D01*
X+7014625Y-2191080D01*
X+6998750Y-2206320D01*
X+6998750Y-2221560D01*
X+7014625Y-2236800D01*
X+6998750Y-2252040D01*
X+6998750Y-2267280D01*
X+7014625Y-2282520D01*
X+7062250Y-2282520D01*
X+7078125Y-2267280D01*
X+7046375Y-2236800D02*
X+7014625Y-2236800D01*
D42*
X+4858000Y-2503000D02*
X+4758000Y-2503000D01*
X+4858000Y-2323000D02*
X+4758000Y-2323000D01*
D40*
X+5062000Y-2282520D02*
X+5062000Y-2191080D01*
X+4982625Y-2191080D01*
X+4966750Y-2206320D01*
X+4966750Y-2221560D01*
X+4982625Y-2236800D01*
X+5062000Y-2236800D01*
X+4982625Y-2236800D02*
X+4966750Y-2252040D01*
X+4966750Y-2282520D01*
X+4935000Y-2191080D02*
X+4935000Y-2236800D01*
X+4887375Y-2282520D01*
X+4839750Y-2236800D01*
X+4839750Y-2191080D01*
X+4712750Y-2191080D02*
X+4792125Y-2191080D01*
X+4792125Y-2221560D01*
X+4728625Y-2221560D01*
X+4712750Y-2236800D01*
X+4712750Y-2267280D01*
X+4728625Y-2282520D01*
X+4776250Y-2282520D01*
X+4792125Y-2267280D01*
X+4585750Y-2252040D02*
X+4681000Y-2252040D01*
X+4617500Y-2191080D01*
X+4617500Y-2282520D01*
D42*
X+2445000Y-2503000D02*
X+2345000Y-2503000D01*
X+2445000Y-2323000D02*
X+2345000Y-2323000D01*
D40*
X+2649000Y-2282520D02*
X+2649000Y-2191080D01*
X+2569625Y-2191080D01*
X+2553750Y-2206320D01*
X+2553750Y-2221560D01*
X+2569625Y-2236800D01*
X+2649000Y-2236800D01*
X+2569625Y-2236800D02*
X+2553750Y-2252040D01*
X+2553750Y-2282520D01*
X+2522000Y-2191080D02*
X+2522000Y-2236800D01*
X+2474375Y-2282520D01*
X+2426750Y-2236800D01*
X+2426750Y-2191080D01*
X+2299750Y-2191080D02*
X+2379125Y-2191080D01*
X+2379125Y-2221560D01*
X+2315625Y-2221560D01*
X+2299750Y-2236800D01*
X+2299750Y-2267280D01*
X+2315625Y-2282520D01*
X+2363250Y-2282520D01*
X+2379125Y-2267280D01*
X+2172750Y-2191080D02*
X+2252125Y-2191080D01*
X+2252125Y-2221560D01*
X+2188625Y-2221560D01*
X+2172750Y-2236800D01*
X+2172750Y-2267280D01*
X+2188625Y-2282520D01*
X+2236250Y-2282520D01*
X+2252125Y-2267280D01*
D42*
X+32000Y-2503000D02*
X-68000Y-2503000D01*
X+32000Y-2323000D02*
X-68000Y-2323000D01*
D40*
X+236000Y-2282520D02*
X+236000Y-2191080D01*
X+156625Y-2191080D01*
X+140750Y-2206320D01*
X+140750Y-2221560D01*
X+156625Y-2236800D01*
X+236000Y-2236800D01*
X+156625Y-2236800D02*
X+140750Y-2252040D01*
X+140750Y-2282520D01*
X+109000Y-2191080D02*
X+109000Y-2236800D01*
X+61375Y-2282520D01*
X+13750Y-2236800D01*
X+13750Y-2191080D01*
X-113250Y-2206320D02*
X-97375Y-2191080D01*
X-49750Y-2191080D01*
X-33875Y-2206320D01*
X-33875Y-2267280D01*
X-49750Y-2282520D01*
X-97375Y-2282520D01*
X-113250Y-2267280D01*
X-113250Y-2252040D01*
X-97375Y-2236800D01*
X-33875Y-2236800D01*
X-240250Y-2206320D02*
X-224375Y-2191080D01*
X-176750Y-2191080D01*
X-160875Y-2206320D01*
X-160875Y-2267280D01*
X-176750Y-2282520D01*
X-224375Y-2282520D01*
X-240250Y-2267280D01*
X-240250Y-2252040D01*
X-224375Y-2236800D01*
X-160875Y-2236800D01*
D42*
X-2381000Y-2503000D02*
X-2481000Y-2503000D01*
X-2381000Y-2323000D02*
X-2481000Y-2323000D01*
D40*
X-2177000Y-2282520D02*
X-2177000Y-2191080D01*
X-2256375Y-2191080D01*
X-2272250Y-2206320D01*
X-2272250Y-2221560D01*
X-2256375Y-2236800D01*
X-2177000Y-2236800D01*
X-2256375Y-2236800D02*
X-2272250Y-2252040D01*
X-2272250Y-2282520D01*
X-2304000Y-2191080D02*
X-2304000Y-2236800D01*
X-2351625Y-2282520D01*
X-2399250Y-2236800D01*
X-2399250Y-2191080D01*
X-2526250Y-2206320D02*
X-2510375Y-2191080D01*
X-2462750Y-2191080D01*
X-2446875Y-2206320D01*
X-2446875Y-2267280D01*
X-2462750Y-2282520D01*
X-2510375Y-2282520D01*
X-2526250Y-2267280D01*
X-2526250Y-2252040D01*
X-2510375Y-2236800D01*
X-2446875Y-2236800D01*
X-2573875Y-2191080D02*
X-2653250Y-2191080D01*
X-2653250Y-2206320D01*
X-2573875Y-2282520D01*
D42*
X-4885000Y-2566500D02*
X-4985000Y-2566500D01*
X-4885000Y-2386500D02*
X-4985000Y-2386500D01*
D40*
X-4681000Y-2346020D02*
X-4681000Y-2254580D01*
X-4760375Y-2254580D01*
X-4776250Y-2269820D01*
X-4776250Y-2285060D01*
X-4760375Y-2300300D01*
X-4681000Y-2300300D01*
X-4760375Y-2300300D02*
X-4776250Y-2315540D01*
X-4776250Y-2346020D01*
X-4808000Y-2254580D02*
X-4808000Y-2300300D01*
X-4855625Y-2346020D01*
X-4903250Y-2300300D01*
X-4903250Y-2254580D01*
X-4950875Y-2254580D02*
X-5030250Y-2254580D01*
X-5030250Y-2269820D01*
X-4950875Y-2346020D01*
X-5093750Y-2300300D02*
X-5077875Y-2285060D01*
X-5077875Y-2269820D01*
X-5093750Y-2254580D01*
X-5141375Y-2254580D01*
X-5157250Y-2269820D01*
X-5157250Y-2285060D01*
X-5141375Y-2300300D01*
X-5093750Y-2300300D01*
X-5077875Y-2315540D01*
X-5077875Y-2330780D01*
X-5093750Y-2346020D01*
X-5141375Y-2346020D01*
X-5157250Y-2330780D01*
X-5157250Y-2315540D01*
X-5141375Y-2300300D01*
X-6946900Y-1739900D02*
X-7023100Y-1739900D01*
X-7099300Y-1692275D01*
X-7023100Y-1644650D01*
X-6946900Y-1644650D01*
X-6997700Y-1597025D02*
X-6997700Y-1533525D01*
X-7023100Y-1517650D01*
X-7099300Y-1517650D01*
X-7099300Y-1597025D01*
X-7073900Y-1612900D01*
X-7048500Y-1597025D01*
X-7048500Y-1517650D01*
X-6946900Y-1438275D02*
X-7099300Y-1438275D01*
X-6997700Y-1358900D02*
X-7099300Y-1311275D01*
X-6997700Y-1263650D01*
X-7048500Y-1231900D02*
X-7048500Y-1136650D01*
X-7023100Y-1136650D01*
X-6997700Y-1152525D01*
X-6997700Y-1216025D01*
X-7023100Y-1231900D01*
X-7073900Y-1231900D01*
X-7099300Y-1216025D01*
X-7099300Y-1152525D01*
X-7099300Y-1104900D02*
X-6946900Y-1104900D01*
X-6946900Y-1041400D01*
X-6997700Y-1009650D01*
X-7048500Y-1009650D01*
X-7099300Y-1041400D01*
X-7099300Y-1104900D01*
X-7099300Y-977900D02*
X-6997700Y-977900D01*
X-7023100Y-977900D02*
X-6997700Y-962025D01*
X-6997700Y-898525D01*
X-7023100Y-882650D01*
X-6997700Y-803275D02*
X-7099300Y-803275D01*
X-6946900Y-803275D02*
X-6946900Y-803275D01*
X-6997700Y-723900D02*
X-7099300Y-676275D01*
X-6997700Y-628650D01*
X-7048500Y-596900D02*
X-7048500Y-501650D01*
X-7023100Y-501650D01*
X-6997700Y-517525D01*
X-6997700Y-581025D01*
X-7023100Y-596900D01*
X-7073900Y-596900D01*
X-7099300Y-581025D01*
X-7099300Y-517525D01*
X-7099300Y-469900D02*
X-6997700Y-469900D01*
X-7023100Y-469900D02*
X-6997700Y-454025D01*
X-6997700Y-390525D01*
X-7023100Y-374650D01*
X-7124700Y-342900D02*
X-7124700Y-247650D01*
X-7099300Y-215900D02*
X-6946900Y-215900D01*
X-6946900Y-136525D01*
X-6972300Y-120650D01*
X-6997700Y-120650D01*
X-7023100Y-136525D01*
X-7023100Y-215900D01*
X-7073900Y+6350D02*
X-7099300Y-9525D01*
X-7099300Y-57150D01*
X-7048500Y-88900D01*
X-6997700Y-88900D01*
X-6946900Y-57150D01*
X-6946900Y-9525D01*
X-6972300Y+6350D01*
X-7099300Y+38100D02*
X-6946900Y+38100D01*
X-6946900Y+117475D01*
X-6972300Y+133350D01*
X-6997700Y+133350D01*
X-7023100Y+117475D01*
X-7048500Y+133350D01*
X-7073900Y+133350D01*
X-7099300Y+117475D01*
X-7099300Y+38100D01*
X-7023100Y+38100D02*
X-7023100Y+117475D01*
X-6997700Y+196850D02*
X-6946900Y+228600D01*
X-7099300Y+228600D01*
X-7124700Y+292100D02*
X-7124700Y+387350D01*
X-6997700Y+419100D02*
X-7099300Y+466725D01*
X-6997700Y+514350D01*
X-7073900Y+546100D02*
X-6972300Y+546100D01*
X-6946900Y+561975D01*
X-6946900Y+625475D01*
X-6972300Y+641350D01*
X-7073900Y+641350D01*
X-7099300Y+625475D01*
X-7099300Y+561975D01*
X-7073900Y+546100D01*
X-7099300Y+546100D02*
X-6946900Y+641350D01*
X-7073900Y+720725D02*
X-7073900Y+736600D01*
X-7099300Y+736600D01*
X-7099300Y+720725D01*
X-7073900Y+720725D01*
X-6946900Y+895350D02*
X-6946900Y+815975D01*
X-6997700Y+815975D01*
X-6997700Y+879475D01*
X-7023100Y+895350D01*
X-7073900Y+895350D01*
X-7099300Y+879475D01*
X-7099300Y+831850D01*
X-7073900Y+815975D01*
X-7124700Y+927100D02*
X-7124700Y+1022350D01*
X-7099300Y+1054100D02*
X-6997700Y+1054100D01*
X-6946900Y+1085850D01*
X-6946900Y+1117600D01*
X-6997700Y+1149350D01*
X-7099300Y+1149350D01*
X-7048500Y+1054100D02*
X-7048500Y+1149350D01*
X-6946900Y+1181100D02*
X-6946900Y+1276350D01*
X-6946900Y+1228725D02*
X-7099300Y+1228725D01*
M02*
