M48
METRIC,TZ
T01C0.5080
T02C0.3810
T03C1.5240
T04C1.1430
T05C1.2700
T06C4.0640
%
T01
X-12700Y-24130
X+60325Y-20955
X+10795Y-24130
X+81280Y-27305
X-29845Y+15875
X-5715Y+16510
X+17145Y+16510
X+41343Y+16450
X+57785Y+19685
X+64372Y+17070
X+33655Y+20955
X+9525Y+20955
X-13335Y+20955
X-46355Y-24765
X-31750Y-38735
X-37465Y+1905
X-42640Y+19551
X+12065Y-28702
X-53946Y+7187
X-37110Y-7392
X-35795Y-37921
X-35433Y-28829
X+46944Y-30453
X+67506Y-29286
X-10541Y-29718
T02
X+34290Y-33020
T03
X-70485Y-24765
X-70485Y-29210
T04
X-18288Y+18415
X+4318Y+18415
X+26797Y+18415
X+49530Y+18415
X+71628Y+18415
X+67183Y+18415
X+44958Y+18415
X+22225Y+18415
X-254Y+18415
X-22733Y+18415
X-50800Y+19050
X-46355Y+19050
T05
X-29210Y-35560
X-29210Y-30480
X-29210Y-33020
X-7620Y-35560
X-7620Y-33020
X-7620Y-30480
X+15875Y-33020
X+15875Y-35560
X+15875Y-30480
X+39370Y-35560
X+62230Y-35560
X+39370Y-30480
X+62230Y-30480
X+39370Y-33020
X+62230Y-33020
X+71120Y-33020
X+54610Y-33020
X+29845Y-33020
X+5715Y-33020
X-17780Y-33020
X+71120Y-35560
X+54610Y-35560
X+29845Y-35560
X+5715Y-35560
X-17780Y-35560
X+71120Y-30480
X+54610Y-30480
X+29845Y-30480
X+5715Y-30480
X-17780Y-30480
X-43180Y-35560
X-43180Y-30480
X-43180Y-33020
X-52070Y-30480
X-52070Y-33020
X-52070Y-35560
X-52070Y-38100
T06
X-69215Y-38100
X-69215Y+24130
X+80010Y+24130
X+80010Y-37465
M30
