G04 PROTEUS RS274X GERBER FILE*
%FSLAX45Y45*%
%MOMM*%
G01*
%ADD40C,0.203200*%
%ADD86C,0.050000*%
%ADD87C,1.074420*%
%ADD88C,0.196920*%
%ADD89C,0.036280*%
%ADD90C,0.063500*%
%ADD91C,0.721360*%
%ADD92C,0.110370*%
%ADD93C,0.843280*%
%ADD94C,0.173330*%
%ADD95C,1.219200*%
%ADD96C,0.210650*%
%ADD97C,1.120140*%
%ADD98C,0.208720*%
%ADD99C,2.794000*%
%ADD100C,0.206070*%
%ADD101C,0.571500*%
%ADD102C,0.234520*%
%ADD103C,0.107030*%
%ADD11C,1.016000*%
%ADD104C,0.169330*%
%ADD105C,0.355600*%
%ADD106C,0.076200*%
%ADD107C,0.406400*%
%ADD108C,0.096520*%
%ADD109C,0.342900*%
%ADD110C,0.163340*%
%ADD111C,0.080270*%
%ADD112C,0.082770*%
%ADD113C,0.158110*%
%ADD114C,0.156540*%
%ADD115C,0.127000*%
%ADD116C,0.175890*%
%ADD117C,0.057150*%
%ADD118C,0.050800*%
%ADD119C,0.025400*%
%ADD120C,0.084660*%
%ADD41C,1.524000*%
%ADD121C,0.275330*%
%ADD122C,4.572000*%
%ADD123C,0.309200*%
D40*
X-7429500Y-4254500D02*
X+8509000Y-4254500D01*
X+8509000Y+2921000D01*
X-7429500Y+2921000D01*
X-7429500Y-4254500D01*
D86*
X-1693000Y+480500D02*
X-2463000Y+480500D01*
X-2463000Y-99500D01*
X-1693000Y-99500D01*
X-1693000Y+480500D01*
X-2078000Y+140500D02*
X-2078000Y+240500D01*
X-2128000Y+190500D02*
X-2028000Y+190500D01*
D87*
X-1778000Y+190500D02*
X-1778000Y+190500D01*
D88*
X-2414464Y+249579D02*
X-2414464Y+131421D01*
X-2281537Y+131421D01*
X-2237228Y+249579D02*
X-2237228Y+190500D01*
X-2170765Y+131421D01*
X-2104301Y+190500D01*
X-2104301Y+249579D01*
X-2015683Y+210193D02*
X-1971374Y+249579D01*
X-1971374Y+131421D01*
D40*
X-7185660Y-2613660D02*
X-6911340Y-2613660D01*
X-6911340Y-2339340D01*
X-7185660Y-2339340D01*
X-7185660Y-2613660D01*
D89*
X-7162796Y-2465614D02*
X-7162796Y-2476500D01*
X-7150550Y-2487385D01*
X-7138304Y-2476500D01*
X-7138304Y-2465614D01*
X-7126058Y-2465614D02*
X-7109730Y-2465614D01*
X-7117894Y-2465614D02*
X-7117894Y-2487385D01*
X-7126058Y-2487385D02*
X-7109730Y-2487385D01*
X-7097484Y-2487385D02*
X-7097484Y-2465614D01*
X-7072992Y-2487385D01*
X-7072992Y-2465614D01*
X-7064828Y-2491014D02*
X-7040336Y-2491014D01*
X-7028090Y-2469243D02*
X-7024008Y-2465614D01*
X-7011762Y-2465614D01*
X-7007680Y-2469243D01*
X-7007680Y-2472871D01*
X-7011762Y-2476500D01*
X-7024008Y-2476500D01*
X-7028090Y-2480128D01*
X-7028090Y-2487385D01*
X-7007680Y-2487385D01*
X-6975024Y-2480128D02*
X-6999516Y-2480128D01*
X-6983188Y-2465614D01*
X-6983188Y-2487385D01*
X-6966860Y-2465614D02*
X-6966860Y-2476500D01*
X-6954614Y-2487385D01*
X-6942368Y-2476500D01*
X-6942368Y-2465614D01*
D40*
X-7185660Y-3058160D02*
X-6911340Y-3058160D01*
X-6911340Y-2783840D01*
X-7185660Y-2783840D01*
X-7185660Y-3058160D01*
D89*
X-7162796Y-2910114D02*
X-7162796Y-2921000D01*
X-7150550Y-2931885D01*
X-7138304Y-2921000D01*
X-7138304Y-2910114D01*
X-7126058Y-2910114D02*
X-7109730Y-2910114D01*
X-7117894Y-2910114D02*
X-7117894Y-2931885D01*
X-7126058Y-2931885D02*
X-7109730Y-2931885D01*
X-7097484Y-2931885D02*
X-7097484Y-2910114D01*
X-7072992Y-2931885D01*
X-7072992Y-2910114D01*
X-7064828Y-2935514D02*
X-7040336Y-2935514D01*
X-7015844Y-2924628D02*
X-7007680Y-2924628D01*
X-7007680Y-2931885D01*
X-7024008Y-2931885D01*
X-7032172Y-2924628D01*
X-7032172Y-2917371D01*
X-7024008Y-2910114D01*
X-7011762Y-2910114D01*
X-7007680Y-2913743D01*
X-6999516Y-2931885D02*
X-6999516Y-2910114D01*
X-6975024Y-2931885D01*
X-6975024Y-2910114D01*
X-6966860Y-2931885D02*
X-6966860Y-2910114D01*
X-6950532Y-2910114D01*
X-6942368Y-2917371D01*
X-6942368Y-2924628D01*
X-6950532Y-2931885D01*
X-6966860Y-2931885D01*
D40*
X-1965960Y+1704340D02*
X-1691640Y+1704340D01*
X-1691640Y+1978660D01*
X-1965960Y+1978660D01*
X-1965960Y+1704340D01*
D90*
X-1847850Y+1727200D02*
X-1828800Y+1727200D01*
X-1809750Y+1748631D01*
X-1828800Y+1770062D01*
X-1847850Y+1770062D01*
X-1835150Y+1798637D02*
X-1847850Y+1812925D01*
X-1809750Y+1812925D01*
X-1809750Y+1841500D02*
X-1847850Y+1841500D01*
X-1847850Y+1884362D02*
X-1809750Y+1884362D01*
X-1828800Y+1841500D02*
X-1828800Y+1884362D01*
X-1816100Y+1898650D02*
X-1809750Y+1905793D01*
X-1809750Y+1934368D01*
X-1816100Y+1941512D01*
X-1822450Y+1941512D01*
X-1828800Y+1934368D01*
X-1828800Y+1905793D01*
X-1835150Y+1898650D01*
X-1841500Y+1898650D01*
X-1847850Y+1905793D01*
X-1847850Y+1934368D01*
X-1841500Y+1941512D01*
D40*
X-3058160Y-3693160D02*
X-2783840Y-3693160D01*
X-2783840Y-3418840D01*
X-3058160Y-3418840D01*
X-3058160Y-3693160D01*
D90*
X-3028157Y-3536950D02*
X-2999582Y-3536950D01*
X-3013869Y-3536950D02*
X-3013869Y-3575050D01*
X-3028157Y-3575050D02*
X-2999582Y-3575050D01*
X-2978150Y-3575050D02*
X-2978150Y-3536950D01*
X-2935288Y-3536950D01*
X-2978150Y-3556000D02*
X-2949575Y-3556000D01*
X-2921000Y-3575050D02*
X-2921000Y-3536950D01*
X-2885282Y-3536950D01*
X-2878138Y-3543300D01*
X-2878138Y-3549650D01*
X-2885282Y-3556000D01*
X-2878138Y-3562350D01*
X-2878138Y-3568700D01*
X-2885282Y-3575050D01*
X-2921000Y-3575050D01*
X-2921000Y-3556000D02*
X-2885282Y-3556000D01*
X-2849563Y-3549650D02*
X-2835275Y-3536950D01*
X-2835275Y-3575050D01*
D40*
X-3058160Y-3185160D02*
X-2783840Y-3185160D01*
X-2783840Y-2910840D01*
X-3058160Y-2910840D01*
X-3058160Y-3185160D01*
D90*
X-3028157Y-3028950D02*
X-2999582Y-3028950D01*
X-3013869Y-3028950D02*
X-3013869Y-3067050D01*
X-3028157Y-3067050D02*
X-2999582Y-3067050D01*
X-2978150Y-3067050D02*
X-2978150Y-3028950D01*
X-2935288Y-3067050D01*
X-2935288Y-3028950D01*
X-2921000Y-3067050D02*
X-2921000Y-3028950D01*
X-2878138Y-3028950D02*
X-2878138Y-3067050D01*
X-2921000Y-3048000D02*
X-2878138Y-3048000D01*
X-2849563Y-3041650D02*
X-2835275Y-3028950D01*
X-2835275Y-3067050D01*
D40*
X-3058160Y-3439160D02*
X-2783840Y-3439160D01*
X-2783840Y-3164840D01*
X-3058160Y-3164840D01*
X-3058160Y-3439160D01*
D90*
X-3035300Y-3321050D02*
X-3035300Y-3282950D01*
X-2999582Y-3282950D01*
X-2992438Y-3289300D01*
X-2992438Y-3295650D01*
X-2999582Y-3302000D01*
X-3035300Y-3302000D01*
X-2978150Y-3282950D02*
X-2978150Y-3321050D01*
X-2956719Y-3302000D01*
X-2935288Y-3321050D01*
X-2935288Y-3282950D01*
X-2921000Y-3321050D02*
X-2921000Y-3282950D01*
X-2899569Y-3302000D01*
X-2878138Y-3282950D01*
X-2878138Y-3321050D01*
X-2849563Y-3295650D02*
X-2835275Y-3282950D01*
X-2835275Y-3321050D01*
D86*
X-4202620Y-407100D02*
X-3732620Y-407100D01*
X-3732620Y-177100D01*
X-4202620Y-177100D01*
X-4202620Y-407100D01*
X-3967620Y-242100D02*
X-3967620Y-342100D01*
X-3917620Y-292100D02*
X-4017620Y-292100D01*
D91*
X-4117620Y-292100D02*
X-4117620Y-292100D01*
D92*
X-3980336Y-314174D02*
X-3992752Y-325211D01*
X-4030002Y-325211D01*
X-4054835Y-303137D01*
X-4054835Y-281063D01*
X-4030002Y-258989D01*
X-3992752Y-258989D01*
X-3980336Y-270026D01*
X-3955502Y-325211D02*
X-3955502Y-281063D01*
X-3930669Y-258989D01*
X-3905836Y-258989D01*
X-3881003Y-281063D01*
X-3881003Y-325211D01*
X-3955502Y-303137D02*
X-3881003Y-303137D01*
X-3831336Y-281063D02*
X-3806503Y-258989D01*
X-3806503Y-325211D01*
D86*
X-5075620Y-1413600D02*
X-5075620Y-1883600D01*
X-4845620Y-1883600D01*
X-4845620Y-1413600D01*
X-5075620Y-1413600D01*
X-4910620Y-1648600D02*
X-5010620Y-1648600D01*
X-4960620Y-1698600D02*
X-4960620Y-1598600D01*
D91*
X-4960620Y-1498600D02*
X-4960620Y-1498600D01*
D92*
X-4938546Y-1784884D02*
X-4927509Y-1797300D01*
X-4927509Y-1834550D01*
X-4949583Y-1859383D01*
X-4971657Y-1859383D01*
X-4993731Y-1834550D01*
X-4993731Y-1797300D01*
X-4982694Y-1784884D01*
X-4927509Y-1760050D02*
X-4971657Y-1760050D01*
X-4993731Y-1735217D01*
X-4993731Y-1710384D01*
X-4971657Y-1685551D01*
X-4927509Y-1685551D01*
X-4949583Y-1760050D02*
X-4949583Y-1685551D01*
X-4982694Y-1648301D02*
X-4993731Y-1635884D01*
X-4993731Y-1598634D01*
X-4982694Y-1586218D01*
X-4971657Y-1586218D01*
X-4960620Y-1598634D01*
X-4960620Y-1635884D01*
X-4949583Y-1648301D01*
X-4927509Y-1648301D01*
X-4927509Y-1586218D01*
D86*
X-1880500Y+759000D02*
X-1880500Y+1469000D01*
X-2310500Y+1469000D01*
X-2310500Y+759000D01*
X-1880500Y+759000D01*
X-2145500Y+1114000D02*
X-2045500Y+1114000D01*
X-2095500Y+1164000D02*
X-2095500Y+1064000D01*
D93*
X-2095500Y+889000D02*
X-2095500Y+889000D01*
D94*
X-2043498Y+967326D02*
X-2147501Y+967326D01*
X-2147501Y+1045328D01*
X-2112833Y+1084329D01*
X-2078166Y+1084329D01*
X-2043498Y+1045328D01*
X-2043498Y+967326D01*
X-2147501Y+1123330D02*
X-2095500Y+1123330D01*
X-2043498Y+1181831D01*
X-2095500Y+1240333D01*
X-2147501Y+1240333D01*
X-2130167Y+1298834D02*
X-2147501Y+1318335D01*
X-2147501Y+1376836D01*
X-2130167Y+1396337D01*
X-2112833Y+1396337D01*
X-2095500Y+1376836D01*
X-2095500Y+1318335D01*
X-2078166Y+1298834D01*
X-2043498Y+1298834D01*
X-2043498Y+1396337D01*
D40*
X-1788160Y+736600D02*
X-1132840Y+736600D01*
X-1132840Y+1485900D01*
X-1788160Y+1485900D01*
X-1788160Y+736600D01*
D95*
X-1460500Y+889000D02*
X-1460500Y+889000D01*
D96*
X-1602689Y+1175800D02*
X-1626387Y+1154735D01*
X-1697481Y+1154735D01*
X-1744877Y+1196865D01*
X-1744877Y+1238995D01*
X-1697481Y+1281125D01*
X-1626387Y+1281125D01*
X-1602689Y+1260060D01*
X-1555292Y+1281125D02*
X-1555292Y+1217930D01*
X-1484198Y+1154735D01*
X-1413104Y+1217930D01*
X-1413104Y+1281125D01*
X-1223519Y+1196865D02*
X-1365707Y+1196865D01*
X-1270915Y+1281125D01*
X-1270915Y+1154735D01*
D86*
X-1655500Y+700000D02*
X-1655500Y-90000D01*
X-1265500Y-90000D01*
X-1265500Y+700000D01*
X-1655500Y+700000D01*
X-1410500Y+305000D02*
X-1510500Y+305000D01*
X-1460500Y+255000D02*
X-1460500Y+355000D01*
D97*
X-1460500Y+610000D02*
X-1460500Y+610000D01*
D98*
X-1397882Y-51029D02*
X-1523117Y-51029D01*
X-1523117Y+66377D01*
X-1502244Y+89859D01*
X-1481372Y+89859D01*
X-1460500Y+66377D01*
X-1460500Y-51029D01*
X-1460500Y+66377D02*
X-1439627Y+89859D01*
X-1397882Y+89859D01*
X-1523117Y+136822D02*
X-1460500Y+136822D01*
X-1397882Y+207266D01*
X-1460500Y+277710D01*
X-1523117Y+277710D01*
X-1523117Y+465561D02*
X-1523117Y+348154D01*
X-1481372Y+348154D01*
X-1481372Y+442079D01*
X-1460500Y+465561D01*
X-1418755Y+465561D01*
X-1397882Y+442079D01*
X-1397882Y+371635D01*
X-1418755Y+348154D01*
D40*
X-3244850Y+0D02*
X-2546350Y+0D01*
X-2546350Y+1167130D01*
X-3244850Y+1167130D01*
X-3244850Y+0D01*
D99*
X-2895600Y+817880D02*
X-2895600Y+817880D01*
D100*
X-3173805Y+359697D02*
X-3127438Y+400913D01*
X-3081070Y+400913D01*
X-3034703Y+359697D01*
X-3034703Y+318482D01*
X-3081070Y+277266D01*
X-3127438Y+277266D01*
X-3173805Y+318482D01*
X-3173805Y+359697D01*
X-3081070Y+318482D02*
X-3034703Y+277266D01*
X-2988335Y+400913D02*
X-2988335Y+339090D01*
X-2918784Y+277266D01*
X-2849233Y+339090D01*
X-2849233Y+400913D01*
X-2756498Y+359697D02*
X-2710130Y+400913D01*
X-2710130Y+277266D01*
D40*
X-2964180Y-2209800D02*
X-2496820Y-2209800D01*
X-2496820Y-1485900D01*
X-2964180Y-1485900D01*
X-2964180Y-2209800D01*
D101*
X-2921000Y-2108200D02*
X-2921000Y-2108200D01*
D102*
X-2764980Y-2164459D02*
X-2647717Y-2164459D01*
X-2624265Y-2138075D01*
X-2624265Y-2032539D01*
X-2647717Y-2006155D01*
X-2764980Y-2006155D01*
X-2764980Y-1953386D02*
X-2694623Y-1953386D01*
X-2624265Y-1874234D01*
X-2694623Y-1795082D01*
X-2764980Y-1795082D01*
X-2718075Y-1689545D02*
X-2764980Y-1636777D01*
X-2624265Y-1636777D01*
D86*
X-2582000Y-139000D02*
X-3042000Y-139000D01*
X-3042000Y-369000D01*
X-2582000Y-369000D01*
X-2582000Y-139000D01*
X-2812000Y-304000D02*
X-2812000Y-204000D01*
X-2862000Y-254000D02*
X-2762000Y-254000D01*
D91*
X-2667000Y-254000D02*
X-2667000Y-254000D01*
D103*
X-3018283Y-286111D02*
X-3018283Y-221889D01*
X-2958075Y-221889D01*
X-2946034Y-232593D01*
X-2946034Y-243296D01*
X-2958075Y-254000D01*
X-3018283Y-254000D01*
X-2958075Y-254000D02*
X-2946034Y-264704D01*
X-2946034Y-286111D01*
X-2921950Y-221889D02*
X-2921950Y-254000D01*
X-2885826Y-286111D01*
X-2849701Y-254000D01*
X-2849701Y-221889D01*
X-2813576Y-232593D02*
X-2801534Y-221889D01*
X-2765409Y-221889D01*
X-2753368Y-232593D01*
X-2753368Y-243296D01*
X-2765409Y-254000D01*
X-2753368Y-264704D01*
X-2753368Y-275407D01*
X-2765409Y-286111D01*
X-2801534Y-286111D01*
X-2813576Y-275407D01*
X-2789493Y-254000D02*
X-2765409Y-254000D01*
D86*
X-3290000Y-169000D02*
X-3290000Y-629000D01*
X-3060000Y-629000D01*
X-3060000Y-169000D01*
X-3290000Y-169000D01*
X-3125000Y-399000D02*
X-3225000Y-399000D01*
X-3175000Y-449000D02*
X-3175000Y-349000D01*
D91*
X-3175000Y-254000D02*
X-3175000Y-254000D01*
D103*
X-3142889Y-605283D02*
X-3207111Y-605283D01*
X-3207111Y-545075D01*
X-3196407Y-533034D01*
X-3185704Y-533034D01*
X-3175000Y-545075D01*
X-3175000Y-605283D01*
X-3175000Y-545075D02*
X-3164296Y-533034D01*
X-3142889Y-533034D01*
X-3207111Y-508950D02*
X-3175000Y-508950D01*
X-3142889Y-472826D01*
X-3175000Y-436701D01*
X-3207111Y-436701D01*
X-3196407Y-400576D02*
X-3207111Y-388534D01*
X-3207111Y-352409D01*
X-3196407Y-340368D01*
X-3185704Y-340368D01*
X-3175000Y-352409D01*
X-3175000Y-388534D01*
X-3164296Y-400576D01*
X-3142889Y-400576D01*
X-3142889Y-340368D01*
D86*
X-3052000Y-883350D02*
X-2582000Y-883350D01*
X-2582000Y-653350D01*
X-3052000Y-653350D01*
X-3052000Y-883350D01*
X-2817000Y-718350D02*
X-2817000Y-818350D01*
X-2767000Y-768350D02*
X-2867000Y-768350D01*
D91*
X-2967000Y-768350D02*
X-2967000Y-768350D01*
D92*
X-2829716Y-790424D02*
X-2842132Y-801461D01*
X-2879382Y-801461D01*
X-2904215Y-779387D01*
X-2904215Y-757313D01*
X-2879382Y-735239D01*
X-2842132Y-735239D01*
X-2829716Y-746276D01*
X-2804882Y-735239D02*
X-2804882Y-768350D01*
X-2767633Y-801461D01*
X-2730383Y-768350D01*
X-2730383Y-735239D01*
X-2693133Y-746276D02*
X-2680716Y-735239D01*
X-2643466Y-735239D01*
X-2631050Y-746276D01*
X-2631050Y-757313D01*
X-2643466Y-768350D01*
X-2631050Y-779387D01*
X-2631050Y-790424D01*
X-2643466Y-801461D01*
X-2680716Y-801461D01*
X-2693133Y-790424D01*
X-2668300Y-768350D02*
X-2643466Y-768350D01*
D40*
X-3136900Y-1407160D02*
X-2451100Y-1407160D01*
X-2451100Y-878840D01*
X-3136900Y-878840D01*
X-3136900Y-1407160D01*
D11*
X-2984500Y-1143000D02*
X-2984500Y-1143000D01*
D104*
X-2658533Y-1257299D02*
X-2641600Y-1276349D01*
X-2641600Y-1333499D01*
X-2675467Y-1371598D01*
X-2709333Y-1371598D01*
X-2743200Y-1333499D01*
X-2743200Y-1276349D01*
X-2726267Y-1257299D01*
X-2743200Y-1219199D02*
X-2692400Y-1219199D01*
X-2641600Y-1162050D01*
X-2692400Y-1104900D01*
X-2743200Y-1104900D01*
X-2726267Y-1047751D02*
X-2743200Y-1028701D01*
X-2743200Y-971551D01*
X-2726267Y-952501D01*
X-2709333Y-952501D01*
X-2692400Y-971551D01*
X-2692400Y-1028701D01*
X-2675467Y-1047751D01*
X-2641600Y-1047751D01*
X-2641600Y-952501D01*
D40*
X-3186580Y-2000250D02*
X-3036420Y-2000250D01*
X-3036420Y-1701800D01*
X-3186580Y-1701800D01*
X-3186580Y-2000250D01*
D105*
X-3111500Y-1733550D02*
X-3111500Y-1733550D01*
D106*
X-3088640Y-1978660D02*
X-3134360Y-1978660D01*
X-3134360Y-1944370D01*
X-3119120Y-1927225D01*
X-3103880Y-1927225D01*
X-3088640Y-1944370D01*
X-3088640Y-1978660D01*
X-3134360Y-1910080D02*
X-3111500Y-1910080D01*
X-3088640Y-1884363D01*
X-3111500Y-1858645D01*
X-3134360Y-1858645D01*
X-3119120Y-1824355D02*
X-3134360Y-1807210D01*
X-3088640Y-1807210D01*
D86*
X-3006000Y-2528000D02*
X-2536000Y-2528000D01*
X-2536000Y-2298000D01*
X-3006000Y-2298000D01*
X-3006000Y-2528000D01*
X-2771000Y-2363000D02*
X-2771000Y-2463000D01*
X-2721000Y-2413000D02*
X-2821000Y-2413000D01*
D91*
X-2921000Y-2413000D02*
X-2921000Y-2413000D01*
D92*
X-2783716Y-2435074D02*
X-2796132Y-2446111D01*
X-2833382Y-2446111D01*
X-2858215Y-2424037D01*
X-2858215Y-2401963D01*
X-2833382Y-2379889D01*
X-2796132Y-2379889D01*
X-2783716Y-2390926D01*
X-2758882Y-2379889D02*
X-2758882Y-2413000D01*
X-2721633Y-2446111D01*
X-2684383Y-2413000D01*
X-2684383Y-2379889D01*
X-2634716Y-2401963D02*
X-2609883Y-2379889D01*
X-2609883Y-2446111D01*
D86*
X-2978500Y-2782000D02*
X-2518500Y-2782000D01*
X-2518500Y-2552000D01*
X-2978500Y-2552000D01*
X-2978500Y-2782000D01*
X-2748500Y-2617000D02*
X-2748500Y-2717000D01*
X-2698500Y-2667000D02*
X-2798500Y-2667000D01*
D91*
X-2893500Y-2667000D02*
X-2893500Y-2667000D01*
D103*
X-2831215Y-2699111D02*
X-2831215Y-2634889D01*
X-2771007Y-2634889D01*
X-2758966Y-2645593D01*
X-2758966Y-2656296D01*
X-2771007Y-2667000D01*
X-2831215Y-2667000D01*
X-2771007Y-2667000D02*
X-2758966Y-2677704D01*
X-2758966Y-2699111D01*
X-2734882Y-2634889D02*
X-2734882Y-2667000D01*
X-2698758Y-2699111D01*
X-2662633Y-2667000D01*
X-2662633Y-2634889D01*
X-2614466Y-2656296D02*
X-2590383Y-2634889D01*
X-2590383Y-2699111D01*
D40*
X-3398520Y-1638300D02*
X-3088640Y-1638300D01*
X-3088640Y-1346200D01*
X-3398520Y-1346200D01*
X-3398520Y-1638300D01*
D107*
X-3243580Y-1397000D02*
X-3243580Y-1397000D01*
D108*
X-3373882Y-1518158D02*
X-3352165Y-1498854D01*
X-3330448Y-1498854D01*
X-3308731Y-1518158D01*
X-3308731Y-1537462D01*
X-3330448Y-1556766D01*
X-3352165Y-1556766D01*
X-3373882Y-1537462D01*
X-3373882Y-1518158D01*
X-3330448Y-1537462D02*
X-3308731Y-1556766D01*
X-3287014Y-1498854D02*
X-3287014Y-1527810D01*
X-3254439Y-1556766D01*
X-3221863Y-1527810D01*
X-3221863Y-1498854D01*
X-3189288Y-1508506D02*
X-3178429Y-1498854D01*
X-3145854Y-1498854D01*
X-3134995Y-1508506D01*
X-3134995Y-1518158D01*
X-3145854Y-1527810D01*
X-3178429Y-1527810D01*
X-3189288Y-1537462D01*
X-3189288Y-1556766D01*
X-3134995Y-1556766D01*
D86*
X-3226500Y-2201000D02*
X-3226500Y-2661000D01*
X-2996500Y-2661000D01*
X-2996500Y-2201000D01*
X-3226500Y-2201000D01*
X-3061500Y-2431000D02*
X-3161500Y-2431000D01*
X-3111500Y-2481000D02*
X-3111500Y-2381000D01*
D91*
X-3111500Y-2286000D02*
X-3111500Y-2286000D01*
D103*
X-3079389Y-2637283D02*
X-3143611Y-2637283D01*
X-3143611Y-2577075D01*
X-3132907Y-2565034D01*
X-3122204Y-2565034D01*
X-3111500Y-2577075D01*
X-3111500Y-2637283D01*
X-3111500Y-2577075D02*
X-3100796Y-2565034D01*
X-3079389Y-2565034D01*
X-3143611Y-2540950D02*
X-3111500Y-2540950D01*
X-3079389Y-2504826D01*
X-3111500Y-2468701D01*
X-3143611Y-2468701D01*
X-3100796Y-2372368D02*
X-3100796Y-2444617D01*
X-3143611Y-2396451D01*
X-3079389Y-2396451D01*
D86*
X-1675700Y-605700D02*
X-1675700Y-145700D01*
X-1905700Y-145700D01*
X-1905700Y-605700D01*
X-1675700Y-605700D01*
X-1840700Y-375700D02*
X-1740700Y-375700D01*
X-1790700Y-325700D02*
X-1790700Y-425700D01*
D91*
X-1790700Y-520700D02*
X-1790700Y-520700D01*
D103*
X-1758589Y-458415D02*
X-1822811Y-458415D01*
X-1822811Y-398207D01*
X-1812107Y-386166D01*
X-1801404Y-386166D01*
X-1790700Y-398207D01*
X-1790700Y-458415D01*
X-1790700Y-398207D02*
X-1779996Y-386166D01*
X-1758589Y-386166D01*
X-1822811Y-362082D02*
X-1790700Y-362082D01*
X-1758589Y-325958D01*
X-1790700Y-289833D01*
X-1822811Y-289833D01*
X-1822811Y-253708D02*
X-1822811Y-193500D01*
X-1812107Y-193500D01*
X-1758589Y-253708D01*
D86*
X-1167700Y-616300D02*
X-1167700Y-156300D01*
X-1397700Y-156300D01*
X-1397700Y-616300D01*
X-1167700Y-616300D01*
X-1332700Y-386300D02*
X-1232700Y-386300D01*
X-1282700Y-336300D02*
X-1282700Y-436300D01*
D91*
X-1282700Y-531300D02*
X-1282700Y-531300D01*
D103*
X-1250589Y-469015D02*
X-1314811Y-469015D01*
X-1314811Y-408807D01*
X-1304107Y-396766D01*
X-1293404Y-396766D01*
X-1282700Y-408807D01*
X-1282700Y-469015D01*
X-1282700Y-408807D02*
X-1271996Y-396766D01*
X-1250589Y-396766D01*
X-1314811Y-372682D02*
X-1282700Y-372682D01*
X-1250589Y-336558D01*
X-1282700Y-300433D01*
X-1314811Y-300433D01*
X-1304107Y-204100D02*
X-1314811Y-216141D01*
X-1314811Y-252266D01*
X-1304107Y-264308D01*
X-1261293Y-264308D01*
X-1250589Y-252266D01*
X-1250589Y-216141D01*
X-1261293Y-204100D01*
X-1271996Y-204100D01*
X-1282700Y-216141D01*
X-1282700Y-264308D01*
D86*
X-1643800Y-148400D02*
X-1643800Y-618400D01*
X-1413800Y-618400D01*
X-1413800Y-148400D01*
X-1643800Y-148400D01*
X-1478800Y-383400D02*
X-1578800Y-383400D01*
X-1528800Y-433400D02*
X-1528800Y-333400D01*
D91*
X-1528800Y-233400D02*
X-1528800Y-233400D01*
D92*
X-1506726Y-519684D02*
X-1495689Y-532100D01*
X-1495689Y-569350D01*
X-1517763Y-594183D01*
X-1539837Y-594183D01*
X-1561911Y-569350D01*
X-1561911Y-532100D01*
X-1550874Y-519684D01*
X-1561911Y-494850D02*
X-1528800Y-494850D01*
X-1495689Y-457601D01*
X-1528800Y-420351D01*
X-1561911Y-420351D01*
X-1550874Y-321018D02*
X-1561911Y-333434D01*
X-1561911Y-370684D01*
X-1550874Y-383101D01*
X-1506726Y-383101D01*
X-1495689Y-370684D01*
X-1495689Y-333434D01*
X-1506726Y-321018D01*
X-1517763Y-321018D01*
X-1528800Y-333434D01*
X-1528800Y-383101D01*
D86*
X-2095250Y-1203100D02*
X-1475250Y-1203100D01*
X-1475250Y-843100D01*
X-2095250Y-843100D01*
X-2095250Y-1203100D01*
X-1785250Y-973100D02*
X-1785250Y-1073100D01*
X-1735250Y-1023100D02*
X-1835250Y-1023100D01*
D109*
X-2000250Y-925600D02*
X-2000250Y-925600D01*
D110*
X-1948443Y-974096D02*
X-1948443Y-1055769D01*
X-1930067Y-1072103D01*
X-1856562Y-1072103D01*
X-1838186Y-1055769D01*
X-1838186Y-974096D01*
X-1801433Y-974096D02*
X-1801433Y-1023100D01*
X-1746305Y-1072103D01*
X-1691176Y-1023100D01*
X-1691176Y-974096D01*
X-1636047Y-990431D02*
X-1617671Y-974096D01*
X-1562542Y-974096D01*
X-1544166Y-990431D01*
X-1544166Y-1006765D01*
X-1562542Y-1023100D01*
X-1617671Y-1023100D01*
X-1636047Y-1039434D01*
X-1636047Y-1072103D01*
X-1544166Y-1072103D01*
D86*
X-2099500Y-1524700D02*
X-1629500Y-1524700D01*
X-1629500Y-1294700D01*
X-2099500Y-1294700D01*
X-2099500Y-1524700D01*
X-1864500Y-1359700D02*
X-1864500Y-1459700D01*
X-1814500Y-1409700D02*
X-1914500Y-1409700D01*
D91*
X-2014500Y-1409700D02*
X-2014500Y-1409700D01*
D92*
X-1877216Y-1431774D02*
X-1889632Y-1442811D01*
X-1926882Y-1442811D01*
X-1951715Y-1420737D01*
X-1951715Y-1398663D01*
X-1926882Y-1376589D01*
X-1889632Y-1376589D01*
X-1877216Y-1387626D01*
X-1852382Y-1376589D02*
X-1852382Y-1409700D01*
X-1815133Y-1442811D01*
X-1777883Y-1409700D01*
X-1777883Y-1376589D01*
X-1740633Y-1376589D02*
X-1678550Y-1376589D01*
X-1678550Y-1387626D01*
X-1740633Y-1442811D01*
D86*
X-1926500Y-2274000D02*
X-1466500Y-2274000D01*
X-1466500Y-2044000D01*
X-1926500Y-2044000D01*
X-1926500Y-2274000D01*
X-1696500Y-2109000D02*
X-1696500Y-2209000D01*
X-1646500Y-2159000D02*
X-1746500Y-2159000D01*
D91*
X-1841500Y-2159000D02*
X-1841500Y-2159000D01*
D111*
X-1779216Y-2183084D02*
X-1779216Y-2134917D01*
X-1734060Y-2134917D01*
X-1725029Y-2142945D01*
X-1725029Y-2150973D01*
X-1734060Y-2159000D01*
X-1779216Y-2159000D01*
X-1734060Y-2159000D02*
X-1725029Y-2167028D01*
X-1725029Y-2183084D01*
X-1706966Y-2134917D02*
X-1706966Y-2159000D01*
X-1679873Y-2183084D01*
X-1652779Y-2159000D01*
X-1652779Y-2134917D01*
X-1616654Y-2150973D02*
X-1598591Y-2134917D01*
X-1598591Y-2183084D01*
X-1544404Y-2150973D02*
X-1526341Y-2134917D01*
X-1526341Y-2183084D01*
D86*
X-1926500Y-1766000D02*
X-1466500Y-1766000D01*
X-1466500Y-1536000D01*
X-1926500Y-1536000D01*
X-1926500Y-1766000D01*
X-1696500Y-1601000D02*
X-1696500Y-1701000D01*
X-1646500Y-1651000D02*
X-1746500Y-1651000D01*
D91*
X-1841500Y-1651000D02*
X-1841500Y-1651000D01*
D111*
X-1779216Y-1675084D02*
X-1779216Y-1626917D01*
X-1734060Y-1626917D01*
X-1725029Y-1634945D01*
X-1725029Y-1642973D01*
X-1734060Y-1651000D01*
X-1779216Y-1651000D01*
X-1734060Y-1651000D02*
X-1725029Y-1659028D01*
X-1725029Y-1675084D01*
X-1706966Y-1626917D02*
X-1706966Y-1651000D01*
X-1679873Y-1675084D01*
X-1652779Y-1651000D01*
X-1652779Y-1626917D01*
X-1616654Y-1642973D02*
X-1598591Y-1626917D01*
X-1598591Y-1675084D01*
X-1562466Y-1667056D02*
X-1562466Y-1634945D01*
X-1553435Y-1626917D01*
X-1517310Y-1626917D01*
X-1508279Y-1634945D01*
X-1508279Y-1667056D01*
X-1517310Y-1675084D01*
X-1553435Y-1675084D01*
X-1562466Y-1667056D01*
X-1562466Y-1675084D02*
X-1508279Y-1626917D01*
D86*
X-2434500Y-2274000D02*
X-1974500Y-2274000D01*
X-1974500Y-2044000D01*
X-2434500Y-2044000D01*
X-2434500Y-2274000D01*
X-2204500Y-2109000D02*
X-2204500Y-2209000D01*
X-2154500Y-2159000D02*
X-2254500Y-2159000D01*
D91*
X-2349500Y-2159000D02*
X-2349500Y-2159000D01*
D111*
X-2287216Y-2183084D02*
X-2287216Y-2134917D01*
X-2242060Y-2134917D01*
X-2233029Y-2142945D01*
X-2233029Y-2150973D01*
X-2242060Y-2159000D01*
X-2287216Y-2159000D01*
X-2242060Y-2159000D02*
X-2233029Y-2167028D01*
X-2233029Y-2183084D01*
X-2214966Y-2134917D02*
X-2214966Y-2159000D01*
X-2187873Y-2183084D01*
X-2160779Y-2159000D01*
X-2160779Y-2134917D01*
X-2124654Y-2150973D02*
X-2106591Y-2134917D01*
X-2106591Y-2183084D01*
X-2061435Y-2142945D02*
X-2052404Y-2134917D01*
X-2025310Y-2134917D01*
X-2016279Y-2142945D01*
X-2016279Y-2150973D01*
X-2025310Y-2159000D01*
X-2052404Y-2159000D01*
X-2061435Y-2167028D01*
X-2061435Y-2183084D01*
X-2016279Y-2183084D01*
D86*
X-2434500Y-1766000D02*
X-1964500Y-1766000D01*
X-1964500Y-1536000D01*
X-2434500Y-1536000D01*
X-2434500Y-1766000D01*
X-2199500Y-1601000D02*
X-2199500Y-1701000D01*
X-2149500Y-1651000D02*
X-2249500Y-1651000D01*
D91*
X-2349500Y-1651000D02*
X-2349500Y-1651000D01*
D112*
X-2230841Y-1667556D02*
X-2240154Y-1675834D01*
X-2268091Y-1675834D01*
X-2286716Y-1659278D01*
X-2286716Y-1642723D01*
X-2268091Y-1626167D01*
X-2240154Y-1626167D01*
X-2230841Y-1634445D01*
X-2212216Y-1626167D02*
X-2212216Y-1651000D01*
X-2184279Y-1675834D01*
X-2156341Y-1651000D01*
X-2156341Y-1626167D01*
X-2119091Y-1642723D02*
X-2100466Y-1626167D01*
X-2100466Y-1675834D01*
X-2063216Y-1667556D02*
X-2063216Y-1634445D01*
X-2053904Y-1626167D01*
X-2016654Y-1626167D01*
X-2007341Y-1634445D01*
X-2007341Y-1667556D01*
X-2016654Y-1675834D01*
X-2053904Y-1675834D01*
X-2063216Y-1667556D01*
X-2063216Y-1675834D02*
X-2007341Y-1626167D01*
D86*
X-2434500Y-2020000D02*
X-1964500Y-2020000D01*
X-1964500Y-1790000D01*
X-2434500Y-1790000D01*
X-2434500Y-2020000D01*
X-2199500Y-1855000D02*
X-2199500Y-1955000D01*
X-2149500Y-1905000D02*
X-2249500Y-1905000D01*
D91*
X-2349500Y-1905000D02*
X-2349500Y-1905000D01*
D92*
X-2212216Y-1927074D02*
X-2224632Y-1938111D01*
X-2261882Y-1938111D01*
X-2286715Y-1916037D01*
X-2286715Y-1893963D01*
X-2261882Y-1871889D01*
X-2224632Y-1871889D01*
X-2212216Y-1882926D01*
X-2187382Y-1871889D02*
X-2187382Y-1905000D01*
X-2150133Y-1938111D01*
X-2112883Y-1905000D01*
X-2112883Y-1871889D01*
X-2013550Y-1893963D02*
X-2025966Y-1905000D01*
X-2063216Y-1905000D01*
X-2075633Y-1893963D01*
X-2075633Y-1882926D01*
X-2063216Y-1871889D01*
X-2025966Y-1871889D01*
X-2013550Y-1882926D01*
X-2013550Y-1927074D01*
X-2025966Y-1938111D01*
X-2063216Y-1938111D01*
D86*
X-1926500Y-2020000D02*
X-1456500Y-2020000D01*
X-1456500Y-1790000D01*
X-1926500Y-1790000D01*
X-1926500Y-2020000D01*
X-1691500Y-1855000D02*
X-1691500Y-1955000D01*
X-1641500Y-1905000D02*
X-1741500Y-1905000D01*
D91*
X-1841500Y-1905000D02*
X-1841500Y-1905000D01*
D92*
X-1704216Y-1927074D02*
X-1716632Y-1938111D01*
X-1753882Y-1938111D01*
X-1778715Y-1916037D01*
X-1778715Y-1893963D01*
X-1753882Y-1871889D01*
X-1716632Y-1871889D01*
X-1704216Y-1882926D01*
X-1679382Y-1871889D02*
X-1679382Y-1905000D01*
X-1642133Y-1938111D01*
X-1604883Y-1905000D01*
X-1604883Y-1871889D01*
X-1555216Y-1905000D02*
X-1567633Y-1893963D01*
X-1567633Y-1882926D01*
X-1555216Y-1871889D01*
X-1517966Y-1871889D01*
X-1505550Y-1882926D01*
X-1505550Y-1893963D01*
X-1517966Y-1905000D01*
X-1555216Y-1905000D01*
X-1567633Y-1916037D01*
X-1567633Y-1927074D01*
X-1555216Y-1938111D01*
X-1517966Y-1938111D01*
X-1505550Y-1927074D01*
X-1505550Y-1916037D01*
X-1517966Y-1905000D01*
D86*
X-2391600Y-369000D02*
X-1921600Y-369000D01*
X-1921600Y-139000D01*
X-2391600Y-139000D01*
X-2391600Y-369000D01*
X-2156600Y-204000D02*
X-2156600Y-304000D01*
X-2106600Y-254000D02*
X-2206600Y-254000D01*
D91*
X-2306600Y-254000D02*
X-2306600Y-254000D01*
D92*
X-2169316Y-276074D02*
X-2181732Y-287111D01*
X-2218982Y-287111D01*
X-2243815Y-265037D01*
X-2243815Y-242963D01*
X-2218982Y-220889D01*
X-2181732Y-220889D01*
X-2169316Y-231926D01*
X-2144482Y-220889D02*
X-2144482Y-254000D01*
X-2107233Y-287111D01*
X-2069983Y-254000D01*
X-2069983Y-220889D01*
X-1970650Y-220889D02*
X-2032733Y-220889D01*
X-2032733Y-242963D01*
X-1983066Y-242963D01*
X-1970650Y-254000D01*
X-1970650Y-276074D01*
X-1983066Y-287111D01*
X-2020316Y-287111D01*
X-2032733Y-276074D01*
D40*
X-984250Y+0D02*
X-285750Y+0D01*
X-285750Y+1167130D01*
X-984250Y+1167130D01*
X-984250Y+0D01*
D99*
X-635000Y+817880D02*
X-635000Y+817880D01*
D100*
X-913205Y+359697D02*
X-866838Y+400913D01*
X-820470Y+400913D01*
X-774103Y+359697D01*
X-774103Y+318482D01*
X-820470Y+277266D01*
X-866838Y+277266D01*
X-913205Y+318482D01*
X-913205Y+359697D01*
X-820470Y+318482D02*
X-774103Y+277266D01*
X-727735Y+400913D02*
X-727735Y+339090D01*
X-658184Y+277266D01*
X-588633Y+339090D01*
X-588633Y+400913D01*
X-403163Y+318482D02*
X-542265Y+318482D01*
X-449530Y+400913D01*
X-449530Y+277266D01*
D86*
X+593000Y+480500D02*
X-177000Y+480500D01*
X-177000Y-99500D01*
X+593000Y-99500D01*
X+593000Y+480500D01*
X+208000Y+140500D02*
X+208000Y+240500D01*
X+158000Y+190500D02*
X+258000Y+190500D01*
D87*
X+508000Y+190500D02*
X+508000Y+190500D01*
D88*
X-128464Y+249579D02*
X-128464Y+131421D01*
X+4463Y+131421D01*
X+48772Y+249579D02*
X+48772Y+190500D01*
X+115235Y+131421D01*
X+181699Y+190500D01*
X+181699Y+249579D01*
X+248162Y+229886D02*
X+270317Y+249579D01*
X+336780Y+249579D01*
X+358935Y+229886D01*
X+358935Y+210193D01*
X+336780Y+190500D01*
X+270317Y+190500D01*
X+248162Y+170807D01*
X+248162Y+131421D01*
X+358935Y+131421D01*
D86*
X+342000Y+817000D02*
X+342000Y+1527000D01*
X-88000Y+1527000D01*
X-88000Y+817000D01*
X+342000Y+817000D01*
X+77000Y+1172000D02*
X+177000Y+1172000D01*
X+127000Y+1222000D02*
X+127000Y+1122000D01*
D93*
X+127000Y+947000D02*
X+127000Y+947000D01*
D94*
X+179002Y+1025326D02*
X+74999Y+1025326D01*
X+74999Y+1103328D01*
X+109667Y+1142329D01*
X+144334Y+1142329D01*
X+179002Y+1103328D01*
X+179002Y+1025326D01*
X+74999Y+1181330D02*
X+127000Y+1181330D01*
X+179002Y+1239831D01*
X+127000Y+1298333D01*
X+74999Y+1298333D01*
X+92333Y+1356834D02*
X+74999Y+1376335D01*
X+74999Y+1434836D01*
X+92333Y+1454337D01*
X+109667Y+1454337D01*
X+127000Y+1434836D01*
X+144334Y+1454337D01*
X+161668Y+1454337D01*
X+179002Y+1434836D01*
X+179002Y+1376335D01*
X+161668Y+1356834D01*
X+127000Y+1395835D02*
X+127000Y+1434836D01*
D40*
X+497840Y+754600D02*
X+1153160Y+754600D01*
X+1153160Y+1503900D01*
X+497840Y+1503900D01*
X+497840Y+754600D01*
D95*
X+825500Y+907000D02*
X+825500Y+907000D01*
D113*
X+647621Y+1204307D02*
X+629833Y+1188496D01*
X+576469Y+1188496D01*
X+540894Y+1220119D01*
X+540894Y+1251742D01*
X+576469Y+1283365D01*
X+629833Y+1283365D01*
X+647621Y+1267553D01*
X+683197Y+1283365D02*
X+683197Y+1235930D01*
X+736560Y+1188496D01*
X+789924Y+1235930D01*
X+789924Y+1283365D01*
X+843287Y+1267553D02*
X+861075Y+1283365D01*
X+914439Y+1283365D01*
X+932227Y+1267553D01*
X+932227Y+1251742D01*
X+914439Y+1235930D01*
X+861075Y+1235930D01*
X+843287Y+1220119D01*
X+843287Y+1188496D01*
X+932227Y+1188496D01*
X+1003378Y+1251742D02*
X+1038954Y+1283365D01*
X+1038954Y+1188496D01*
D86*
X+630500Y+700000D02*
X+630500Y-90000D01*
X+1020500Y-90000D01*
X+1020500Y+700000D01*
X+630500Y+700000D01*
X+875500Y+305000D02*
X+775500Y+305000D01*
X+825500Y+255000D02*
X+825500Y+355000D01*
D97*
X+825500Y+610000D02*
X+825500Y+610000D01*
D114*
X+872463Y-51029D02*
X+778537Y-51029D01*
X+778537Y+37026D01*
X+794191Y+54637D01*
X+809846Y+54637D01*
X+825500Y+37026D01*
X+825500Y-51029D01*
X+825500Y+37026D02*
X+841154Y+54637D01*
X+872463Y+54637D01*
X+778537Y+89859D02*
X+825500Y+89859D01*
X+872463Y+142692D01*
X+825500Y+195525D01*
X+778537Y+195525D01*
X+794191Y+248358D02*
X+778537Y+265969D01*
X+778537Y+318802D01*
X+794191Y+336413D01*
X+809846Y+336413D01*
X+825500Y+318802D01*
X+825500Y+265969D01*
X+841154Y+248358D01*
X+872463Y+248358D01*
X+872463Y+336413D01*
X+841154Y+477301D02*
X+841154Y+371635D01*
X+778537Y+442079D01*
X+872463Y+442079D01*
D86*
X+224300Y-1188900D02*
X+844300Y-1188900D01*
X+844300Y-828900D01*
X+224300Y-828900D01*
X+224300Y-1188900D01*
X+534300Y-958900D02*
X+534300Y-1058900D01*
X+584300Y-1008900D02*
X+484300Y-1008900D01*
D109*
X+319300Y-911400D02*
X+319300Y-911400D01*
D110*
X+371107Y-959896D02*
X+371107Y-1041569D01*
X+389483Y-1057903D01*
X+462988Y-1057903D01*
X+481364Y-1041569D01*
X+481364Y-959896D01*
X+518117Y-959896D02*
X+518117Y-1008900D01*
X+573245Y-1057903D01*
X+628374Y-1008900D01*
X+628374Y-959896D01*
X+683503Y-976231D02*
X+701879Y-959896D01*
X+757008Y-959896D01*
X+775384Y-976231D01*
X+775384Y-992565D01*
X+757008Y-1008900D01*
X+775384Y-1025234D01*
X+775384Y-1041569D01*
X+757008Y-1057903D01*
X+701879Y-1057903D01*
X+683503Y-1041569D01*
X+720255Y-1008900D02*
X+757008Y-1008900D01*
D86*
X-1004000Y-169000D02*
X-1004000Y-629000D01*
X-774000Y-629000D01*
X-774000Y-169000D01*
X-1004000Y-169000D01*
X-839000Y-399000D02*
X-939000Y-399000D01*
X-889000Y-449000D02*
X-889000Y-349000D01*
D91*
X-889000Y-254000D02*
X-889000Y-254000D01*
D111*
X-864916Y-605284D02*
X-913083Y-605284D01*
X-913083Y-560128D01*
X-905055Y-551097D01*
X-897027Y-551097D01*
X-889000Y-560128D01*
X-889000Y-605284D01*
X-889000Y-560128D02*
X-880972Y-551097D01*
X-864916Y-551097D01*
X-913083Y-533034D02*
X-889000Y-533034D01*
X-864916Y-505941D01*
X-889000Y-478847D01*
X-913083Y-478847D01*
X-905055Y-451753D02*
X-913083Y-442722D01*
X-913083Y-415628D01*
X-905055Y-406597D01*
X-897027Y-406597D01*
X-889000Y-415628D01*
X-889000Y-442722D01*
X-880972Y-451753D01*
X-864916Y-451753D01*
X-864916Y-406597D01*
X-897027Y-370472D02*
X-913083Y-352409D01*
X-864916Y-352409D01*
D86*
X-323500Y-139000D02*
X-783500Y-139000D01*
X-783500Y-369000D01*
X-323500Y-369000D01*
X-323500Y-139000D01*
X-553500Y-304000D02*
X-553500Y-204000D01*
X-603500Y-254000D02*
X-503500Y-254000D01*
D91*
X-408500Y-254000D02*
X-408500Y-254000D01*
D111*
X-759784Y-278084D02*
X-759784Y-229917D01*
X-714628Y-229917D01*
X-705597Y-237945D01*
X-705597Y-245973D01*
X-714628Y-254000D01*
X-759784Y-254000D01*
X-714628Y-254000D02*
X-705597Y-262028D01*
X-705597Y-278084D01*
X-687534Y-229917D02*
X-687534Y-254000D01*
X-660441Y-278084D01*
X-633347Y-254000D01*
X-633347Y-229917D01*
X-606253Y-237945D02*
X-597222Y-229917D01*
X-570128Y-229917D01*
X-561097Y-237945D01*
X-561097Y-245973D01*
X-570128Y-254000D01*
X-597222Y-254000D01*
X-606253Y-262028D01*
X-606253Y-278084D01*
X-561097Y-278084D01*
X-534003Y-237945D02*
X-524972Y-229917D01*
X-497878Y-229917D01*
X-488847Y-237945D01*
X-488847Y-245973D01*
X-497878Y-254000D01*
X-524972Y-254000D01*
X-534003Y-262028D01*
X-534003Y-278084D01*
X-488847Y-278084D01*
D86*
X-783500Y-877000D02*
X-313500Y-877000D01*
X-313500Y-647000D01*
X-783500Y-647000D01*
X-783500Y-877000D01*
X-548500Y-712000D02*
X-548500Y-812000D01*
X-498500Y-762000D02*
X-598500Y-762000D01*
D91*
X-698500Y-762000D02*
X-698500Y-762000D01*
D112*
X-579841Y-778556D02*
X-589154Y-786834D01*
X-617091Y-786834D01*
X-635716Y-770278D01*
X-635716Y-753723D01*
X-617091Y-737167D01*
X-589154Y-737167D01*
X-579841Y-745445D01*
X-561216Y-737167D02*
X-561216Y-762000D01*
X-533279Y-786834D01*
X-505341Y-762000D01*
X-505341Y-737167D01*
X-468091Y-753723D02*
X-449466Y-737167D01*
X-449466Y-786834D01*
X-356341Y-753723D02*
X-365654Y-762000D01*
X-393591Y-762000D01*
X-402904Y-753723D01*
X-402904Y-745445D01*
X-393591Y-737167D01*
X-365654Y-737167D01*
X-356341Y-745445D01*
X-356341Y-778556D01*
X-365654Y-786834D01*
X-393591Y-786834D01*
D40*
X-914400Y-1407160D02*
X-228600Y-1407160D01*
X-228600Y-878840D01*
X-914400Y-878840D01*
X-914400Y-1407160D01*
D11*
X-762000Y-1143000D02*
X-762000Y-1143000D01*
D115*
X-444500Y-1285875D02*
X-431800Y-1300163D01*
X-431800Y-1343025D01*
X-457200Y-1371600D01*
X-482600Y-1371600D01*
X-508000Y-1343025D01*
X-508000Y-1300163D01*
X-495300Y-1285875D01*
X-508000Y-1257300D02*
X-469900Y-1257300D01*
X-431800Y-1214438D01*
X-469900Y-1171575D01*
X-508000Y-1171575D01*
X-495300Y-1128713D02*
X-508000Y-1114425D01*
X-508000Y-1071563D01*
X-495300Y-1057275D01*
X-482600Y-1057275D01*
X-469900Y-1071563D01*
X-469900Y-1114425D01*
X-457200Y-1128713D01*
X-431800Y-1128713D01*
X-431800Y-1057275D01*
X-495300Y-1014413D02*
X-508000Y-1000125D01*
X-508000Y-957263D01*
X-495300Y-942975D01*
X-482600Y-942975D01*
X-469900Y-957263D01*
X-469900Y-1000125D01*
X-457200Y-1014413D01*
X-431800Y-1014413D01*
X-431800Y-942975D01*
D40*
X-1201420Y-1638300D02*
X-891540Y-1638300D01*
X-891540Y-1346200D01*
X-1201420Y-1346200D01*
X-1201420Y-1638300D01*
D107*
X-1046480Y-1397000D02*
X-1046480Y-1397000D01*
D108*
X-1176782Y-1518158D02*
X-1155065Y-1498854D01*
X-1133348Y-1498854D01*
X-1111631Y-1518158D01*
X-1111631Y-1537462D01*
X-1133348Y-1556766D01*
X-1155065Y-1556766D01*
X-1176782Y-1537462D01*
X-1176782Y-1518158D01*
X-1133348Y-1537462D02*
X-1111631Y-1556766D01*
X-1089914Y-1498854D02*
X-1089914Y-1527810D01*
X-1057339Y-1556766D01*
X-1024763Y-1527810D01*
X-1024763Y-1498854D01*
X-992188Y-1508506D02*
X-981329Y-1498854D01*
X-948754Y-1498854D01*
X-937895Y-1508506D01*
X-937895Y-1518158D01*
X-948754Y-1527810D01*
X-937895Y-1537462D01*
X-937895Y-1547114D01*
X-948754Y-1556766D01*
X-981329Y-1556766D01*
X-992188Y-1547114D01*
X-970471Y-1527810D02*
X-948754Y-1527810D01*
D40*
X-964080Y-2000250D02*
X-813920Y-2000250D01*
X-813920Y-1701800D01*
X-964080Y-1701800D01*
X-964080Y-2000250D01*
D105*
X-889000Y-1733550D02*
X-889000Y-1733550D01*
D106*
X-866140Y-1978660D02*
X-911860Y-1978660D01*
X-911860Y-1944370D01*
X-896620Y-1927225D01*
X-881380Y-1927225D01*
X-866140Y-1944370D01*
X-866140Y-1978660D01*
X-911860Y-1910080D02*
X-889000Y-1910080D01*
X-866140Y-1884363D01*
X-889000Y-1858645D01*
X-911860Y-1858645D01*
X-881380Y-1790065D02*
X-881380Y-1841500D01*
X-911860Y-1807210D01*
X-866140Y-1807210D01*
D40*
X-741680Y-2209800D02*
X-274320Y-2209800D01*
X-274320Y-1485900D01*
X-741680Y-1485900D01*
X-741680Y-2209800D01*
D101*
X-698500Y-2108200D02*
X-698500Y-2108200D01*
D102*
X-542480Y-2164459D02*
X-425217Y-2164459D01*
X-401765Y-2138075D01*
X-401765Y-2032539D01*
X-425217Y-2006155D01*
X-542480Y-2006155D01*
X-542480Y-1953386D02*
X-472123Y-1953386D01*
X-401765Y-1874234D01*
X-472123Y-1795082D01*
X-542480Y-1795082D01*
X-448670Y-1584009D02*
X-448670Y-1742313D01*
X-542480Y-1636777D01*
X-401765Y-1636777D01*
D86*
X-1004000Y-2228500D02*
X-1004000Y-2688500D01*
X-774000Y-2688500D01*
X-774000Y-2228500D01*
X-1004000Y-2228500D01*
X-839000Y-2458500D02*
X-939000Y-2458500D01*
X-889000Y-2508500D02*
X-889000Y-2408500D01*
D91*
X-889000Y-2313500D02*
X-889000Y-2313500D01*
D111*
X-864916Y-2664784D02*
X-913083Y-2664784D01*
X-913083Y-2619628D01*
X-905055Y-2610597D01*
X-897027Y-2610597D01*
X-889000Y-2619628D01*
X-889000Y-2664784D01*
X-889000Y-2619628D02*
X-880972Y-2610597D01*
X-864916Y-2610597D01*
X-913083Y-2592534D02*
X-889000Y-2592534D01*
X-864916Y-2565441D01*
X-889000Y-2538347D01*
X-913083Y-2538347D01*
X-905055Y-2511253D02*
X-913083Y-2502222D01*
X-913083Y-2475128D01*
X-905055Y-2466097D01*
X-897027Y-2466097D01*
X-889000Y-2475128D01*
X-889000Y-2502222D01*
X-880972Y-2511253D01*
X-864916Y-2511253D01*
X-864916Y-2466097D01*
X-872944Y-2448034D02*
X-905055Y-2448034D01*
X-913083Y-2439003D01*
X-913083Y-2402878D01*
X-905055Y-2393847D01*
X-872944Y-2393847D01*
X-864916Y-2402878D01*
X-864916Y-2439003D01*
X-872944Y-2448034D01*
X-864916Y-2448034D02*
X-913083Y-2393847D01*
D86*
X-756000Y-2782000D02*
X-296000Y-2782000D01*
X-296000Y-2552000D01*
X-756000Y-2552000D01*
X-756000Y-2782000D01*
X-526000Y-2617000D02*
X-526000Y-2717000D01*
X-476000Y-2667000D02*
X-576000Y-2667000D01*
D91*
X-671000Y-2667000D02*
X-671000Y-2667000D01*
D111*
X-608716Y-2691084D02*
X-608716Y-2642917D01*
X-563560Y-2642917D01*
X-554529Y-2650945D01*
X-554529Y-2658973D01*
X-563560Y-2667000D01*
X-608716Y-2667000D01*
X-563560Y-2667000D02*
X-554529Y-2675028D01*
X-554529Y-2691084D01*
X-536466Y-2642917D02*
X-536466Y-2667000D01*
X-509373Y-2691084D01*
X-482279Y-2667000D01*
X-482279Y-2642917D01*
X-455185Y-2650945D02*
X-446154Y-2642917D01*
X-419060Y-2642917D01*
X-410029Y-2650945D01*
X-410029Y-2658973D01*
X-419060Y-2667000D01*
X-446154Y-2667000D01*
X-455185Y-2675028D01*
X-455185Y-2691084D01*
X-410029Y-2691084D01*
X-382935Y-2650945D02*
X-373904Y-2642917D01*
X-346810Y-2642917D01*
X-337779Y-2650945D01*
X-337779Y-2658973D01*
X-346810Y-2667000D01*
X-337779Y-2675028D01*
X-337779Y-2683056D01*
X-346810Y-2691084D01*
X-373904Y-2691084D01*
X-382935Y-2683056D01*
X-364873Y-2667000D02*
X-346810Y-2667000D01*
D86*
X-766000Y-2528000D02*
X-296000Y-2528000D01*
X-296000Y-2298000D01*
X-766000Y-2298000D01*
X-766000Y-2528000D01*
X-531000Y-2363000D02*
X-531000Y-2463000D01*
X-481000Y-2413000D02*
X-581000Y-2413000D01*
D91*
X-681000Y-2413000D02*
X-681000Y-2413000D01*
D112*
X-562341Y-2429556D02*
X-571654Y-2437834D01*
X-599591Y-2437834D01*
X-618216Y-2421278D01*
X-618216Y-2404723D01*
X-599591Y-2388167D01*
X-571654Y-2388167D01*
X-562341Y-2396445D01*
X-543716Y-2388167D02*
X-543716Y-2413000D01*
X-515779Y-2437834D01*
X-487841Y-2413000D01*
X-487841Y-2388167D01*
X-450591Y-2404723D02*
X-431966Y-2388167D01*
X-431966Y-2437834D01*
X-376091Y-2413000D02*
X-385404Y-2404723D01*
X-385404Y-2396445D01*
X-376091Y-2388167D01*
X-348154Y-2388167D01*
X-338841Y-2396445D01*
X-338841Y-2404723D01*
X-348154Y-2413000D01*
X-376091Y-2413000D01*
X-385404Y-2421278D01*
X-385404Y-2429556D01*
X-376091Y-2437834D01*
X-348154Y-2437834D01*
X-338841Y-2429556D01*
X-338841Y-2421278D01*
X-348154Y-2413000D01*
D86*
X-95600Y-419800D02*
X+374400Y-419800D01*
X+374400Y-189800D01*
X-95600Y-189800D01*
X-95600Y-419800D01*
X+139400Y-254800D02*
X+139400Y-354800D01*
X+189400Y-304800D02*
X+89400Y-304800D01*
D91*
X-10600Y-304800D02*
X-10600Y-304800D01*
D112*
X+108059Y-321356D02*
X+98746Y-329634D01*
X+70809Y-329634D01*
X+52184Y-313078D01*
X+52184Y-296523D01*
X+70809Y-279967D01*
X+98746Y-279967D01*
X+108059Y-288245D01*
X+126684Y-279967D02*
X+126684Y-304800D01*
X+154621Y-329634D01*
X+182559Y-304800D01*
X+182559Y-279967D01*
X+210496Y-288245D02*
X+219809Y-279967D01*
X+247746Y-279967D01*
X+257059Y-288245D01*
X+257059Y-296523D01*
X+247746Y-304800D01*
X+219809Y-304800D01*
X+210496Y-313078D01*
X+210496Y-329634D01*
X+257059Y-329634D01*
X+275684Y-321356D02*
X+275684Y-288245D01*
X+284996Y-279967D01*
X+322246Y-279967D01*
X+331559Y-288245D01*
X+331559Y-321356D01*
X+322246Y-329634D01*
X+284996Y-329634D01*
X+275684Y-321356D01*
X+275684Y-329634D02*
X+331559Y-279967D01*
D86*
X+621600Y-247300D02*
X+621600Y-717300D01*
X+851600Y-717300D01*
X+851600Y-247300D01*
X+621600Y-247300D01*
X+786600Y-482300D02*
X+686600Y-482300D01*
X+736600Y-532300D02*
X+736600Y-432300D01*
D91*
X+736600Y-332300D02*
X+736600Y-332300D01*
D112*
X+753156Y-637209D02*
X+761434Y-646522D01*
X+761434Y-674459D01*
X+744878Y-693084D01*
X+728323Y-693084D01*
X+711767Y-674459D01*
X+711767Y-646522D01*
X+720045Y-637209D01*
X+711767Y-618584D02*
X+736600Y-618584D01*
X+761434Y-590647D01*
X+736600Y-562709D01*
X+711767Y-562709D01*
X+728323Y-525459D02*
X+711767Y-506834D01*
X+761434Y-506834D01*
X+711767Y-413709D02*
X+711767Y-460272D01*
X+728323Y-460272D01*
X+728323Y-423022D01*
X+736600Y-413709D01*
X+753156Y-413709D01*
X+761434Y-423022D01*
X+761434Y-450959D01*
X+753156Y-460272D01*
D86*
X+610300Y-707300D02*
X+610300Y-247300D01*
X+380300Y-247300D01*
X+380300Y-707300D01*
X+610300Y-707300D01*
X+445300Y-477300D02*
X+545300Y-477300D01*
X+495300Y-427300D02*
X+495300Y-527300D01*
D91*
X+495300Y-622300D02*
X+495300Y-622300D01*
D111*
X+519384Y-560016D02*
X+471217Y-560016D01*
X+471217Y-514860D01*
X+479245Y-505829D01*
X+487273Y-505829D01*
X+495300Y-514860D01*
X+495300Y-560016D01*
X+495300Y-514860D02*
X+503328Y-505829D01*
X+519384Y-505829D01*
X+471217Y-487766D02*
X+495300Y-487766D01*
X+519384Y-460673D01*
X+495300Y-433579D01*
X+471217Y-433579D01*
X+487273Y-397454D02*
X+471217Y-379391D01*
X+519384Y-379391D01*
X+471217Y-289079D02*
X+471217Y-334235D01*
X+487273Y-334235D01*
X+487273Y-298110D01*
X+495300Y-289079D01*
X+511356Y-289079D01*
X+519384Y-298110D01*
X+519384Y-325204D01*
X+511356Y-334235D01*
D86*
X+1092900Y-707300D02*
X+1092900Y-247300D01*
X+862900Y-247300D01*
X+862900Y-707300D01*
X+1092900Y-707300D01*
X+927900Y-477300D02*
X+1027900Y-477300D01*
X+977900Y-427300D02*
X+977900Y-527300D01*
D91*
X+977900Y-622300D02*
X+977900Y-622300D01*
D111*
X+1001984Y-560016D02*
X+953817Y-560016D01*
X+953817Y-514860D01*
X+961845Y-505829D01*
X+969873Y-505829D01*
X+977900Y-514860D01*
X+977900Y-560016D01*
X+977900Y-514860D02*
X+985928Y-505829D01*
X+1001984Y-505829D01*
X+953817Y-487766D02*
X+977900Y-487766D01*
X+1001984Y-460673D01*
X+977900Y-433579D01*
X+953817Y-433579D01*
X+969873Y-397454D02*
X+953817Y-379391D01*
X+1001984Y-379391D01*
X+961845Y-289079D02*
X+953817Y-298110D01*
X+953817Y-325204D01*
X+961845Y-334235D01*
X+993956Y-334235D01*
X+1001984Y-325204D01*
X+1001984Y-298110D01*
X+993956Y-289079D01*
X+985928Y-289079D01*
X+977900Y-298110D01*
X+977900Y-334235D01*
D86*
X+211900Y-1524700D02*
X+681900Y-1524700D01*
X+681900Y-1294700D01*
X+211900Y-1294700D01*
X+211900Y-1524700D01*
X+446900Y-1359700D02*
X+446900Y-1459700D01*
X+496900Y-1409700D02*
X+396900Y-1409700D01*
D91*
X+296900Y-1409700D02*
X+296900Y-1409700D01*
D112*
X+415559Y-1426256D02*
X+406246Y-1434534D01*
X+378309Y-1434534D01*
X+359684Y-1417978D01*
X+359684Y-1401423D01*
X+378309Y-1384867D01*
X+406246Y-1384867D01*
X+415559Y-1393145D01*
X+434184Y-1384867D02*
X+434184Y-1409700D01*
X+462121Y-1434534D01*
X+490059Y-1409700D01*
X+490059Y-1384867D01*
X+527309Y-1401423D02*
X+545934Y-1384867D01*
X+545934Y-1434534D01*
X+592496Y-1393145D02*
X+601809Y-1384867D01*
X+629746Y-1384867D01*
X+639059Y-1393145D01*
X+639059Y-1401423D01*
X+629746Y-1409700D01*
X+639059Y-1417978D01*
X+639059Y-1426256D01*
X+629746Y-1434534D01*
X+601809Y-1434534D01*
X+592496Y-1426256D01*
X+611121Y-1409700D02*
X+629746Y-1409700D01*
D86*
X-148500Y-1766000D02*
X+321500Y-1766000D01*
X+321500Y-1536000D01*
X-148500Y-1536000D01*
X-148500Y-1766000D01*
X+86500Y-1601000D02*
X+86500Y-1701000D01*
X+136500Y-1651000D02*
X+36500Y-1651000D01*
D91*
X-63500Y-1651000D02*
X-63500Y-1651000D01*
D112*
X+55159Y-1667556D02*
X+45846Y-1675834D01*
X+17909Y-1675834D01*
X-716Y-1659278D01*
X-716Y-1642723D01*
X+17909Y-1626167D01*
X+45846Y-1626167D01*
X+55159Y-1634445D01*
X+73784Y-1626167D02*
X+73784Y-1651000D01*
X+101721Y-1675834D01*
X+129659Y-1651000D01*
X+129659Y-1626167D01*
X+166909Y-1642723D02*
X+185534Y-1626167D01*
X+185534Y-1675834D01*
X+278659Y-1634445D02*
X+269346Y-1626167D01*
X+241409Y-1626167D01*
X+232096Y-1634445D01*
X+232096Y-1667556D01*
X+241409Y-1675834D01*
X+269346Y-1675834D01*
X+278659Y-1667556D01*
X+278659Y-1659278D01*
X+269346Y-1651000D01*
X+232096Y-1651000D01*
D86*
X-148500Y-2020000D02*
X+321500Y-2020000D01*
X+321500Y-1790000D01*
X-148500Y-1790000D01*
X-148500Y-2020000D01*
X+86500Y-1855000D02*
X+86500Y-1955000D01*
X+136500Y-1905000D02*
X+36500Y-1905000D01*
D91*
X-63500Y-1905000D02*
X-63500Y-1905000D01*
D112*
X+55159Y-1921556D02*
X+45846Y-1929834D01*
X+17909Y-1929834D01*
X-716Y-1913278D01*
X-716Y-1896723D01*
X+17909Y-1880167D01*
X+45846Y-1880167D01*
X+55159Y-1888445D01*
X+73784Y-1880167D02*
X+73784Y-1905000D01*
X+101721Y-1929834D01*
X+129659Y-1905000D01*
X+129659Y-1880167D01*
X+166909Y-1896723D02*
X+185534Y-1880167D01*
X+185534Y-1929834D01*
X+232096Y-1888445D02*
X+241409Y-1880167D01*
X+269346Y-1880167D01*
X+278659Y-1888445D01*
X+278659Y-1896723D01*
X+269346Y-1905000D01*
X+241409Y-1905000D01*
X+232096Y-1913278D01*
X+232096Y-1929834D01*
X+278659Y-1929834D01*
D86*
X-148500Y-2274000D02*
X+311500Y-2274000D01*
X+311500Y-2044000D01*
X-148500Y-2044000D01*
X-148500Y-2274000D01*
X+81500Y-2109000D02*
X+81500Y-2209000D01*
X+131500Y-2159000D02*
X+31500Y-2159000D01*
D91*
X-63500Y-2159000D02*
X-63500Y-2159000D01*
D111*
X-1216Y-2183084D02*
X-1216Y-2134917D01*
X+43940Y-2134917D01*
X+52971Y-2142945D01*
X+52971Y-2150973D01*
X+43940Y-2159000D01*
X-1216Y-2159000D01*
X+43940Y-2159000D02*
X+52971Y-2167028D01*
X+52971Y-2183084D01*
X+71034Y-2134917D02*
X+71034Y-2159000D01*
X+98127Y-2183084D01*
X+125221Y-2159000D01*
X+125221Y-2134917D01*
X+161346Y-2150973D02*
X+179409Y-2134917D01*
X+179409Y-2183084D01*
X+224565Y-2134917D02*
X+269721Y-2134917D01*
X+269721Y-2142945D01*
X+224565Y-2183084D01*
D86*
X+359500Y-1766000D02*
X+819500Y-1766000D01*
X+819500Y-1536000D01*
X+359500Y-1536000D01*
X+359500Y-1766000D01*
X+589500Y-1601000D02*
X+589500Y-1701000D01*
X+639500Y-1651000D02*
X+539500Y-1651000D01*
D91*
X+444500Y-1651000D02*
X+444500Y-1651000D01*
D111*
X+506784Y-1675084D02*
X+506784Y-1626917D01*
X+551940Y-1626917D01*
X+560971Y-1634945D01*
X+560971Y-1642973D01*
X+551940Y-1651000D01*
X+506784Y-1651000D01*
X+551940Y-1651000D02*
X+560971Y-1659028D01*
X+560971Y-1675084D01*
X+579034Y-1626917D02*
X+579034Y-1651000D01*
X+606127Y-1675084D01*
X+633221Y-1651000D01*
X+633221Y-1626917D01*
X+669346Y-1642973D02*
X+687409Y-1626917D01*
X+687409Y-1675084D01*
X+777721Y-1659028D02*
X+723534Y-1659028D01*
X+759659Y-1626917D01*
X+759659Y-1675084D01*
D86*
X+359500Y-2274000D02*
X+819500Y-2274000D01*
X+819500Y-2044000D01*
X+359500Y-2044000D01*
X+359500Y-2274000D01*
X+589500Y-2109000D02*
X+589500Y-2209000D01*
X+639500Y-2159000D02*
X+539500Y-2159000D01*
D91*
X+444500Y-2159000D02*
X+444500Y-2159000D01*
D111*
X+506784Y-2183084D02*
X+506784Y-2134917D01*
X+551940Y-2134917D01*
X+560971Y-2142945D01*
X+560971Y-2150973D01*
X+551940Y-2159000D01*
X+506784Y-2159000D01*
X+551940Y-2159000D02*
X+560971Y-2167028D01*
X+560971Y-2183084D01*
X+579034Y-2134917D02*
X+579034Y-2159000D01*
X+606127Y-2183084D01*
X+633221Y-2159000D01*
X+633221Y-2134917D01*
X+669346Y-2150973D02*
X+687409Y-2134917D01*
X+687409Y-2183084D01*
X+732565Y-2142945D02*
X+741596Y-2134917D01*
X+768690Y-2134917D01*
X+777721Y-2142945D01*
X+777721Y-2150973D01*
X+768690Y-2159000D01*
X+777721Y-2167028D01*
X+777721Y-2175056D01*
X+768690Y-2183084D01*
X+741596Y-2183084D01*
X+732565Y-2175056D01*
X+750627Y-2159000D02*
X+768690Y-2159000D01*
D86*
X+359500Y-2020000D02*
X+829500Y-2020000D01*
X+829500Y-1790000D01*
X+359500Y-1790000D01*
X+359500Y-2020000D01*
X+594500Y-1855000D02*
X+594500Y-1955000D01*
X+644500Y-1905000D02*
X+544500Y-1905000D01*
D91*
X+444500Y-1905000D02*
X+444500Y-1905000D01*
D112*
X+563159Y-1921556D02*
X+553846Y-1929834D01*
X+525909Y-1929834D01*
X+507284Y-1913278D01*
X+507284Y-1896723D01*
X+525909Y-1880167D01*
X+553846Y-1880167D01*
X+563159Y-1888445D01*
X+581784Y-1880167D02*
X+581784Y-1905000D01*
X+609721Y-1929834D01*
X+637659Y-1905000D01*
X+637659Y-1880167D01*
X+674909Y-1896723D02*
X+693534Y-1880167D01*
X+693534Y-1929834D01*
X+786659Y-1913278D02*
X+730784Y-1913278D01*
X+768034Y-1880167D01*
X+768034Y-1929834D01*
D40*
X+294640Y+1704340D02*
X+568960Y+1704340D01*
X+568960Y+1978660D01*
X+294640Y+1978660D01*
X+294640Y+1704340D01*
D90*
X+412750Y+1727200D02*
X+431800Y+1727200D01*
X+450850Y+1748631D01*
X+431800Y+1770062D01*
X+412750Y+1770062D01*
X+419100Y+1791493D02*
X+412750Y+1798637D01*
X+412750Y+1820068D01*
X+419100Y+1827212D01*
X+425450Y+1827212D01*
X+431800Y+1820068D01*
X+431800Y+1798637D01*
X+438150Y+1791493D01*
X+450850Y+1791493D01*
X+450850Y+1827212D01*
X+450850Y+1841500D02*
X+412750Y+1841500D01*
X+412750Y+1884362D02*
X+450850Y+1884362D01*
X+431800Y+1841500D02*
X+431800Y+1884362D01*
X+444500Y+1898650D02*
X+450850Y+1905793D01*
X+450850Y+1934368D01*
X+444500Y+1941512D01*
X+438150Y+1941512D01*
X+431800Y+1934368D01*
X+431800Y+1905793D01*
X+425450Y+1898650D01*
X+419100Y+1898650D01*
X+412750Y+1905793D01*
X+412750Y+1934368D01*
X+419100Y+1941512D01*
D40*
X-899160Y-3693160D02*
X-624840Y-3693160D01*
X-624840Y-3418840D01*
X-899160Y-3418840D01*
X-899160Y-3693160D01*
D90*
X-869157Y-3536950D02*
X-840582Y-3536950D01*
X-854869Y-3536950D02*
X-854869Y-3575050D01*
X-869157Y-3575050D02*
X-840582Y-3575050D01*
X-819150Y-3575050D02*
X-819150Y-3536950D01*
X-776288Y-3536950D01*
X-819150Y-3556000D02*
X-790575Y-3556000D01*
X-762000Y-3575050D02*
X-762000Y-3536950D01*
X-726282Y-3536950D01*
X-719138Y-3543300D01*
X-719138Y-3549650D01*
X-726282Y-3556000D01*
X-719138Y-3562350D01*
X-719138Y-3568700D01*
X-726282Y-3575050D01*
X-762000Y-3575050D01*
X-762000Y-3556000D02*
X-726282Y-3556000D01*
X-697707Y-3543300D02*
X-690563Y-3536950D01*
X-669132Y-3536950D01*
X-661988Y-3543300D01*
X-661988Y-3549650D01*
X-669132Y-3556000D01*
X-690563Y-3556000D01*
X-697707Y-3562350D01*
X-697707Y-3575050D01*
X-661988Y-3575050D01*
D40*
X-899160Y-3439160D02*
X-624840Y-3439160D01*
X-624840Y-3164840D01*
X-899160Y-3164840D01*
X-899160Y-3439160D01*
D90*
X-876300Y-3321050D02*
X-876300Y-3282950D01*
X-840582Y-3282950D01*
X-833438Y-3289300D01*
X-833438Y-3295650D01*
X-840582Y-3302000D01*
X-876300Y-3302000D01*
X-819150Y-3282950D02*
X-819150Y-3321050D01*
X-797719Y-3302000D01*
X-776288Y-3321050D01*
X-776288Y-3282950D01*
X-762000Y-3321050D02*
X-762000Y-3282950D01*
X-740569Y-3302000D01*
X-719138Y-3282950D01*
X-719138Y-3321050D01*
X-697707Y-3289300D02*
X-690563Y-3282950D01*
X-669132Y-3282950D01*
X-661988Y-3289300D01*
X-661988Y-3295650D01*
X-669132Y-3302000D01*
X-690563Y-3302000D01*
X-697707Y-3308350D01*
X-697707Y-3321050D01*
X-661988Y-3321050D01*
D40*
X-899160Y-3185160D02*
X-624840Y-3185160D01*
X-624840Y-2910840D01*
X-899160Y-2910840D01*
X-899160Y-3185160D01*
D90*
X-869157Y-3028950D02*
X-840582Y-3028950D01*
X-854869Y-3028950D02*
X-854869Y-3067050D01*
X-869157Y-3067050D02*
X-840582Y-3067050D01*
X-819150Y-3067050D02*
X-819150Y-3028950D01*
X-776288Y-3067050D01*
X-776288Y-3028950D01*
X-762000Y-3067050D02*
X-762000Y-3028950D01*
X-719138Y-3028950D02*
X-719138Y-3067050D01*
X-762000Y-3048000D02*
X-719138Y-3048000D01*
X-697707Y-3035300D02*
X-690563Y-3028950D01*
X-669132Y-3028950D01*
X-661988Y-3035300D01*
X-661988Y-3041650D01*
X-669132Y-3048000D01*
X-690563Y-3048000D01*
X-697707Y-3054350D01*
X-697707Y-3067050D01*
X-661988Y-3067050D01*
D40*
X+2783840Y+736600D02*
X+3439160Y+736600D01*
X+3439160Y+1485900D01*
X+2783840Y+1485900D01*
X+2783840Y+736600D01*
D95*
X+3111500Y+889000D02*
X+3111500Y+889000D01*
D113*
X+2933621Y+1186307D02*
X+2915833Y+1170496D01*
X+2862469Y+1170496D01*
X+2826894Y+1202119D01*
X+2826894Y+1233742D01*
X+2862469Y+1265365D01*
X+2915833Y+1265365D01*
X+2933621Y+1249553D01*
X+2969197Y+1265365D02*
X+2969197Y+1217930D01*
X+3022560Y+1170496D01*
X+3075924Y+1217930D01*
X+3075924Y+1265365D01*
X+3129287Y+1249553D02*
X+3147075Y+1265365D01*
X+3200439Y+1265365D01*
X+3218227Y+1249553D01*
X+3218227Y+1233742D01*
X+3200439Y+1217930D01*
X+3218227Y+1202119D01*
X+3218227Y+1186307D01*
X+3200439Y+1170496D01*
X+3147075Y+1170496D01*
X+3129287Y+1186307D01*
X+3164863Y+1217930D02*
X+3200439Y+1217930D01*
X+3271590Y+1249553D02*
X+3289378Y+1265365D01*
X+3342742Y+1265365D01*
X+3360530Y+1249553D01*
X+3360530Y+1233742D01*
X+3342742Y+1217930D01*
X+3289378Y+1217930D01*
X+3271590Y+1202119D01*
X+3271590Y+1170496D01*
X+3360530Y+1170496D01*
D86*
X+2628000Y+817000D02*
X+2628000Y+1527000D01*
X+2198000Y+1527000D01*
X+2198000Y+817000D01*
X+2628000Y+817000D01*
X+2363000Y+1172000D02*
X+2463000Y+1172000D01*
X+2413000Y+1222000D02*
X+2413000Y+1122000D01*
D93*
X+2413000Y+947000D02*
X+2413000Y+947000D01*
D94*
X+2465002Y+1025326D02*
X+2360999Y+1025326D01*
X+2360999Y+1103328D01*
X+2395667Y+1142329D01*
X+2430334Y+1142329D01*
X+2465002Y+1103328D01*
X+2465002Y+1025326D01*
X+2360999Y+1181330D02*
X+2413000Y+1181330D01*
X+2465002Y+1239831D01*
X+2413000Y+1298333D01*
X+2360999Y+1298333D01*
X+2360999Y+1454337D02*
X+2360999Y+1356834D01*
X+2395667Y+1356834D01*
X+2395667Y+1434836D01*
X+2413000Y+1454337D01*
X+2447668Y+1454337D01*
X+2465002Y+1434836D01*
X+2465002Y+1376335D01*
X+2447668Y+1356834D01*
D40*
X+1321920Y-2000250D02*
X+1472080Y-2000250D01*
X+1472080Y-1701800D01*
X+1321920Y-1701800D01*
X+1321920Y-2000250D01*
D105*
X+1397000Y-1733550D02*
X+1397000Y-1733550D01*
D106*
X+1419860Y-1978660D02*
X+1374140Y-1978660D01*
X+1374140Y-1944370D01*
X+1389380Y-1927225D01*
X+1404620Y-1927225D01*
X+1419860Y-1944370D01*
X+1419860Y-1978660D01*
X+1374140Y-1910080D02*
X+1397000Y-1910080D01*
X+1419860Y-1884363D01*
X+1397000Y-1858645D01*
X+1374140Y-1858645D01*
X+1381760Y-1790065D02*
X+1374140Y-1798638D01*
X+1374140Y-1824355D01*
X+1381760Y-1832928D01*
X+1412240Y-1832928D01*
X+1419860Y-1824355D01*
X+1419860Y-1798638D01*
X+1412240Y-1790065D01*
X+1404620Y-1790065D01*
X+1397000Y-1798638D01*
X+1397000Y-1832928D01*
D86*
X+2879000Y+480500D02*
X+2109000Y+480500D01*
X+2109000Y-99500D01*
X+2879000Y-99500D01*
X+2879000Y+480500D01*
X+2494000Y+140500D02*
X+2494000Y+240500D01*
X+2444000Y+190500D02*
X+2544000Y+190500D01*
D87*
X+2794000Y+190500D02*
X+2794000Y+190500D01*
D88*
X+2157536Y+249579D02*
X+2157536Y+131421D01*
X+2290463Y+131421D01*
X+2334772Y+249579D02*
X+2334772Y+190500D01*
X+2401235Y+131421D01*
X+2467699Y+190500D01*
X+2467699Y+249579D01*
X+2534162Y+229886D02*
X+2556317Y+249579D01*
X+2622780Y+249579D01*
X+2644935Y+229886D01*
X+2644935Y+210193D01*
X+2622780Y+190500D01*
X+2644935Y+170807D01*
X+2644935Y+151114D01*
X+2622780Y+131421D01*
X+2556317Y+131421D01*
X+2534162Y+151114D01*
X+2578471Y+190500D02*
X+2622780Y+190500D01*
D40*
X+1084580Y-1638300D02*
X+1394460Y-1638300D01*
X+1394460Y-1346200D01*
X+1084580Y-1346200D01*
X+1084580Y-1638300D01*
D107*
X+1239520Y-1397000D02*
X+1239520Y-1397000D01*
D108*
X+1109218Y-1518158D02*
X+1130935Y-1498854D01*
X+1152652Y-1498854D01*
X+1174369Y-1518158D01*
X+1174369Y-1537462D01*
X+1152652Y-1556766D01*
X+1130935Y-1556766D01*
X+1109218Y-1537462D01*
X+1109218Y-1518158D01*
X+1152652Y-1537462D02*
X+1174369Y-1556766D01*
X+1196086Y-1498854D02*
X+1196086Y-1527810D01*
X+1228661Y-1556766D01*
X+1261237Y-1527810D01*
X+1261237Y-1498854D01*
X+1348105Y-1498854D02*
X+1293812Y-1498854D01*
X+1293812Y-1518158D01*
X+1337246Y-1518158D01*
X+1348105Y-1527810D01*
X+1348105Y-1547114D01*
X+1337246Y-1556766D01*
X+1304671Y-1556766D01*
X+1293812Y-1547114D01*
D40*
X+1301750Y+0D02*
X+2000250Y+0D01*
X+2000250Y+1167130D01*
X+1301750Y+1167130D01*
X+1301750Y+0D01*
D99*
X+1651000Y+817880D02*
X+1651000Y+817880D01*
D100*
X+1372795Y+359697D02*
X+1419162Y+400913D01*
X+1465530Y+400913D01*
X+1511897Y+359697D01*
X+1511897Y+318482D01*
X+1465530Y+277266D01*
X+1419162Y+277266D01*
X+1372795Y+318482D01*
X+1372795Y+359697D01*
X+1465530Y+318482D02*
X+1511897Y+277266D01*
X+1558265Y+400913D02*
X+1558265Y+339090D01*
X+1627816Y+277266D01*
X+1697367Y+339090D01*
X+1697367Y+400913D01*
X+1882837Y+380305D02*
X+1859653Y+400913D01*
X+1790102Y+400913D01*
X+1766918Y+380305D01*
X+1766918Y+297874D01*
X+1790102Y+277266D01*
X+1859653Y+277266D01*
X+1882837Y+297874D01*
X+1882837Y+318482D01*
X+1859653Y+339090D01*
X+1766918Y+339090D01*
D40*
X+1450340Y-3439160D02*
X+1724660Y-3439160D01*
X+1724660Y-3164840D01*
X+1450340Y-3164840D01*
X+1450340Y-3439160D01*
D90*
X+1473200Y-3321050D02*
X+1473200Y-3282950D01*
X+1508918Y-3282950D01*
X+1516062Y-3289300D01*
X+1516062Y-3295650D01*
X+1508918Y-3302000D01*
X+1473200Y-3302000D01*
X+1530350Y-3282950D02*
X+1530350Y-3321050D01*
X+1551781Y-3302000D01*
X+1573212Y-3321050D01*
X+1573212Y-3282950D01*
X+1587500Y-3321050D02*
X+1587500Y-3282950D01*
X+1608931Y-3302000D01*
X+1630362Y-3282950D01*
X+1630362Y-3321050D01*
X+1651793Y-3289300D02*
X+1658937Y-3282950D01*
X+1680368Y-3282950D01*
X+1687512Y-3289300D01*
X+1687512Y-3295650D01*
X+1680368Y-3302000D01*
X+1687512Y-3308350D01*
X+1687512Y-3314700D01*
X+1680368Y-3321050D01*
X+1658937Y-3321050D01*
X+1651793Y-3314700D01*
X+1666081Y-3302000D02*
X+1680368Y-3302000D01*
D40*
X+1450340Y-3693160D02*
X+1724660Y-3693160D01*
X+1724660Y-3418840D01*
X+1450340Y-3418840D01*
X+1450340Y-3693160D01*
D90*
X+1480343Y-3536950D02*
X+1508918Y-3536950D01*
X+1494631Y-3536950D02*
X+1494631Y-3575050D01*
X+1480343Y-3575050D02*
X+1508918Y-3575050D01*
X+1530350Y-3575050D02*
X+1530350Y-3536950D01*
X+1573212Y-3536950D01*
X+1530350Y-3556000D02*
X+1558925Y-3556000D01*
X+1587500Y-3575050D02*
X+1587500Y-3536950D01*
X+1623218Y-3536950D01*
X+1630362Y-3543300D01*
X+1630362Y-3549650D01*
X+1623218Y-3556000D01*
X+1630362Y-3562350D01*
X+1630362Y-3568700D01*
X+1623218Y-3575050D01*
X+1587500Y-3575050D01*
X+1587500Y-3556000D02*
X+1623218Y-3556000D01*
X+1651793Y-3543300D02*
X+1658937Y-3536950D01*
X+1680368Y-3536950D01*
X+1687512Y-3543300D01*
X+1687512Y-3549650D01*
X+1680368Y-3556000D01*
X+1687512Y-3562350D01*
X+1687512Y-3568700D01*
X+1680368Y-3575050D01*
X+1658937Y-3575050D01*
X+1651793Y-3568700D01*
X+1666081Y-3556000D02*
X+1680368Y-3556000D01*
D40*
X+1450340Y-3185160D02*
X+1724660Y-3185160D01*
X+1724660Y-2910840D01*
X+1450340Y-2910840D01*
X+1450340Y-3185160D01*
D90*
X+1480343Y-3028950D02*
X+1508918Y-3028950D01*
X+1494631Y-3028950D02*
X+1494631Y-3067050D01*
X+1480343Y-3067050D02*
X+1508918Y-3067050D01*
X+1530350Y-3067050D02*
X+1530350Y-3028950D01*
X+1573212Y-3067050D01*
X+1573212Y-3028950D01*
X+1587500Y-3067050D02*
X+1587500Y-3028950D01*
X+1630362Y-3028950D02*
X+1630362Y-3067050D01*
X+1587500Y-3048000D02*
X+1630362Y-3048000D01*
X+1651793Y-3035300D02*
X+1658937Y-3028950D01*
X+1680368Y-3028950D01*
X+1687512Y-3035300D01*
X+1687512Y-3041650D01*
X+1680368Y-3048000D01*
X+1687512Y-3054350D01*
X+1687512Y-3060700D01*
X+1680368Y-3067050D01*
X+1658937Y-3067050D01*
X+1651793Y-3060700D01*
X+1666081Y-3048000D02*
X+1680368Y-3048000D01*
D86*
X+2497600Y-1187400D02*
X+3117600Y-1187400D01*
X+3117600Y-827400D01*
X+2497600Y-827400D01*
X+2497600Y-1187400D01*
X+2807600Y-957400D02*
X+2807600Y-1057400D01*
X+2857600Y-1007400D02*
X+2757600Y-1007400D01*
D109*
X+2592600Y-909900D02*
X+2592600Y-909900D01*
D110*
X+2644407Y-958396D02*
X+2644407Y-1040069D01*
X+2662783Y-1056403D01*
X+2736288Y-1056403D01*
X+2754664Y-1040069D01*
X+2754664Y-958396D01*
X+2791417Y-958396D02*
X+2791417Y-1007400D01*
X+2846545Y-1056403D01*
X+2901674Y-1007400D01*
X+2901674Y-958396D01*
X+3048684Y-958396D02*
X+2956803Y-958396D01*
X+2956803Y-991065D01*
X+3030308Y-991065D01*
X+3048684Y-1007400D01*
X+3048684Y-1040069D01*
X+3030308Y-1056403D01*
X+2975179Y-1056403D01*
X+2956803Y-1040069D01*
D40*
X+1544320Y-2209800D02*
X+2011680Y-2209800D01*
X+2011680Y-1485900D01*
X+1544320Y-1485900D01*
X+1544320Y-2209800D01*
D101*
X+1587500Y-2108200D02*
X+1587500Y-2108200D01*
D102*
X+1743520Y-2164459D02*
X+1860783Y-2164459D01*
X+1884235Y-2138075D01*
X+1884235Y-2032539D01*
X+1860783Y-2006155D01*
X+1743520Y-2006155D01*
X+1743520Y-1953386D02*
X+1813877Y-1953386D01*
X+1884235Y-1874234D01*
X+1813877Y-1795082D01*
X+1743520Y-1795082D01*
X+1766972Y-1584009D02*
X+1743520Y-1610393D01*
X+1743520Y-1689545D01*
X+1766972Y-1715929D01*
X+1860783Y-1715929D01*
X+1884235Y-1689545D01*
X+1884235Y-1610393D01*
X+1860783Y-1584009D01*
X+1837330Y-1584009D01*
X+1813877Y-1610393D01*
X+1813877Y-1715929D01*
D86*
X+2916500Y+700000D02*
X+2916500Y-90000D01*
X+3306500Y-90000D01*
X+3306500Y+700000D01*
X+2916500Y+700000D01*
X+3161500Y+305000D02*
X+3061500Y+305000D01*
X+3111500Y+255000D02*
X+3111500Y+355000D01*
D97*
X+3111500Y+610000D02*
X+3111500Y+610000D01*
D114*
X+3158463Y-51029D02*
X+3064537Y-51029D01*
X+3064537Y+37026D01*
X+3080191Y+54637D01*
X+3095846Y+54637D01*
X+3111500Y+37026D01*
X+3111500Y-51029D01*
X+3111500Y+37026D02*
X+3127154Y+54637D01*
X+3158463Y+54637D01*
X+3064537Y+89859D02*
X+3111500Y+89859D01*
X+3158463Y+142692D01*
X+3111500Y+195525D01*
X+3064537Y+195525D01*
X+3080191Y+248358D02*
X+3064537Y+265969D01*
X+3064537Y+318802D01*
X+3080191Y+336413D01*
X+3095846Y+336413D01*
X+3111500Y+318802D01*
X+3127154Y+336413D01*
X+3142809Y+336413D01*
X+3158463Y+318802D01*
X+3158463Y+265969D01*
X+3142809Y+248358D01*
X+3111500Y+283580D02*
X+3111500Y+318802D01*
X+3080191Y+477301D02*
X+3064537Y+459690D01*
X+3064537Y+406857D01*
X+3080191Y+389246D01*
X+3142809Y+389246D01*
X+3158463Y+406857D01*
X+3158463Y+459690D01*
X+3142809Y+477301D01*
X+3127154Y+477301D01*
X+3111500Y+459690D01*
X+3111500Y+389246D01*
D40*
X+2542540Y+1704340D02*
X+2816860Y+1704340D01*
X+2816860Y+1978660D01*
X+2542540Y+1978660D01*
X+2542540Y+1704340D01*
D90*
X+2660650Y+1727200D02*
X+2679700Y+1727200D01*
X+2698750Y+1748631D01*
X+2679700Y+1770062D01*
X+2660650Y+1770062D01*
X+2667000Y+1791493D02*
X+2660650Y+1798637D01*
X+2660650Y+1820068D01*
X+2667000Y+1827212D01*
X+2673350Y+1827212D01*
X+2679700Y+1820068D01*
X+2686050Y+1827212D01*
X+2692400Y+1827212D01*
X+2698750Y+1820068D01*
X+2698750Y+1798637D01*
X+2692400Y+1791493D01*
X+2679700Y+1805781D02*
X+2679700Y+1820068D01*
X+2698750Y+1841500D02*
X+2660650Y+1841500D01*
X+2660650Y+1884362D02*
X+2698750Y+1884362D01*
X+2679700Y+1841500D02*
X+2679700Y+1884362D01*
X+2692400Y+1898650D02*
X+2698750Y+1905793D01*
X+2698750Y+1934368D01*
X+2692400Y+1941512D01*
X+2686050Y+1941512D01*
X+2679700Y+1934368D01*
X+2679700Y+1905793D01*
X+2673350Y+1898650D01*
X+2667000Y+1898650D01*
X+2660650Y+1905793D01*
X+2660650Y+1934368D01*
X+2667000Y+1941512D01*
D86*
X+1502500Y-877000D02*
X+1972500Y-877000D01*
X+1972500Y-647000D01*
X+1502500Y-647000D01*
X+1502500Y-877000D01*
X+1737500Y-712000D02*
X+1737500Y-812000D01*
X+1787500Y-762000D02*
X+1687500Y-762000D01*
D91*
X+1587500Y-762000D02*
X+1587500Y-762000D01*
D112*
X+1706159Y-778556D02*
X+1696846Y-786834D01*
X+1668909Y-786834D01*
X+1650284Y-770278D01*
X+1650284Y-753723D01*
X+1668909Y-737167D01*
X+1696846Y-737167D01*
X+1706159Y-745445D01*
X+1724784Y-737167D02*
X+1724784Y-762000D01*
X+1752721Y-786834D01*
X+1780659Y-762000D01*
X+1780659Y-737167D01*
X+1808596Y-745445D02*
X+1817909Y-737167D01*
X+1845846Y-737167D01*
X+1855159Y-745445D01*
X+1855159Y-753723D01*
X+1845846Y-762000D01*
X+1855159Y-770278D01*
X+1855159Y-778556D01*
X+1845846Y-786834D01*
X+1817909Y-786834D01*
X+1808596Y-778556D01*
X+1827221Y-762000D02*
X+1845846Y-762000D01*
X+1873784Y-778556D02*
X+1873784Y-745445D01*
X+1883096Y-737167D01*
X+1920346Y-737167D01*
X+1929659Y-745445D01*
X+1929659Y-778556D01*
X+1920346Y-786834D01*
X+1883096Y-786834D01*
X+1873784Y-778556D01*
X+1873784Y-786834D02*
X+1929659Y-737167D01*
D40*
X+1371600Y-1407160D02*
X+2057400Y-1407160D01*
X+2057400Y-878840D01*
X+1371600Y-878840D01*
X+1371600Y-1407160D01*
D11*
X+1524000Y-1143000D02*
X+1524000Y-1143000D01*
D115*
X+1841500Y-1285875D02*
X+1854200Y-1300163D01*
X+1854200Y-1343025D01*
X+1828800Y-1371600D01*
X+1803400Y-1371600D01*
X+1778000Y-1343025D01*
X+1778000Y-1300163D01*
X+1790700Y-1285875D01*
X+1778000Y-1257300D02*
X+1816100Y-1257300D01*
X+1854200Y-1214438D01*
X+1816100Y-1171575D01*
X+1778000Y-1171575D01*
X+1790700Y-1128713D02*
X+1778000Y-1114425D01*
X+1778000Y-1071563D01*
X+1790700Y-1057275D01*
X+1803400Y-1057275D01*
X+1816100Y-1071563D01*
X+1828800Y-1057275D01*
X+1841500Y-1057275D01*
X+1854200Y-1071563D01*
X+1854200Y-1114425D01*
X+1841500Y-1128713D01*
X+1816100Y-1100138D02*
X+1816100Y-1071563D01*
X+1790700Y-1014413D02*
X+1778000Y-1000125D01*
X+1778000Y-957263D01*
X+1790700Y-942975D01*
X+1803400Y-942975D01*
X+1816100Y-957263D01*
X+1828800Y-942975D01*
X+1841500Y-942975D01*
X+1854200Y-957263D01*
X+1854200Y-1000125D01*
X+1841500Y-1014413D01*
X+1816100Y-985838D02*
X+1816100Y-957263D01*
D86*
X+1282000Y-169000D02*
X+1282000Y-629000D01*
X+1512000Y-629000D01*
X+1512000Y-169000D01*
X+1282000Y-169000D01*
X+1447000Y-399000D02*
X+1347000Y-399000D01*
X+1397000Y-449000D02*
X+1397000Y-349000D01*
D91*
X+1397000Y-254000D02*
X+1397000Y-254000D01*
D111*
X+1421084Y-605284D02*
X+1372917Y-605284D01*
X+1372917Y-560128D01*
X+1380945Y-551097D01*
X+1388973Y-551097D01*
X+1397000Y-560128D01*
X+1397000Y-605284D01*
X+1397000Y-560128D02*
X+1405028Y-551097D01*
X+1421084Y-551097D01*
X+1372917Y-533034D02*
X+1397000Y-533034D01*
X+1421084Y-505941D01*
X+1397000Y-478847D01*
X+1372917Y-478847D01*
X+1380945Y-451753D02*
X+1372917Y-442722D01*
X+1372917Y-415628D01*
X+1380945Y-406597D01*
X+1388973Y-406597D01*
X+1397000Y-415628D01*
X+1405028Y-406597D01*
X+1413056Y-406597D01*
X+1421084Y-415628D01*
X+1421084Y-442722D01*
X+1413056Y-451753D01*
X+1397000Y-433691D02*
X+1397000Y-415628D01*
X+1380945Y-379503D02*
X+1372917Y-370472D01*
X+1372917Y-343378D01*
X+1380945Y-334347D01*
X+1388973Y-334347D01*
X+1397000Y-343378D01*
X+1405028Y-334347D01*
X+1413056Y-334347D01*
X+1421084Y-343378D01*
X+1421084Y-370472D01*
X+1413056Y-379503D01*
X+1397000Y-361441D02*
X+1397000Y-343378D01*
D86*
X+1962500Y-139000D02*
X+1502500Y-139000D01*
X+1502500Y-369000D01*
X+1962500Y-369000D01*
X+1962500Y-139000D01*
X+1732500Y-304000D02*
X+1732500Y-204000D01*
X+1682500Y-254000D02*
X+1782500Y-254000D01*
D91*
X+1877500Y-254000D02*
X+1877500Y-254000D01*
D111*
X+1526216Y-278084D02*
X+1526216Y-229917D01*
X+1571372Y-229917D01*
X+1580403Y-237945D01*
X+1580403Y-245973D01*
X+1571372Y-254000D01*
X+1526216Y-254000D01*
X+1571372Y-254000D02*
X+1580403Y-262028D01*
X+1580403Y-278084D01*
X+1598466Y-229917D02*
X+1598466Y-254000D01*
X+1625559Y-278084D01*
X+1652653Y-254000D01*
X+1652653Y-229917D01*
X+1679747Y-237945D02*
X+1688778Y-229917D01*
X+1715872Y-229917D01*
X+1724903Y-237945D01*
X+1724903Y-245973D01*
X+1715872Y-254000D01*
X+1724903Y-262028D01*
X+1724903Y-270056D01*
X+1715872Y-278084D01*
X+1688778Y-278084D01*
X+1679747Y-270056D01*
X+1697809Y-254000D02*
X+1715872Y-254000D01*
X+1797153Y-262028D02*
X+1742966Y-262028D01*
X+1779091Y-229917D01*
X+1779091Y-278084D01*
D86*
X+1502500Y-2782000D02*
X+1962500Y-2782000D01*
X+1962500Y-2552000D01*
X+1502500Y-2552000D01*
X+1502500Y-2782000D01*
X+1732500Y-2617000D02*
X+1732500Y-2717000D01*
X+1782500Y-2667000D02*
X+1682500Y-2667000D01*
D91*
X+1587500Y-2667000D02*
X+1587500Y-2667000D01*
D111*
X+1649784Y-2691084D02*
X+1649784Y-2642917D01*
X+1694940Y-2642917D01*
X+1703971Y-2650945D01*
X+1703971Y-2658973D01*
X+1694940Y-2667000D01*
X+1649784Y-2667000D01*
X+1694940Y-2667000D02*
X+1703971Y-2675028D01*
X+1703971Y-2691084D01*
X+1722034Y-2642917D02*
X+1722034Y-2667000D01*
X+1749127Y-2691084D01*
X+1776221Y-2667000D01*
X+1776221Y-2642917D01*
X+1803315Y-2650945D02*
X+1812346Y-2642917D01*
X+1839440Y-2642917D01*
X+1848471Y-2650945D01*
X+1848471Y-2658973D01*
X+1839440Y-2667000D01*
X+1848471Y-2675028D01*
X+1848471Y-2683056D01*
X+1839440Y-2691084D01*
X+1812346Y-2691084D01*
X+1803315Y-2683056D01*
X+1821377Y-2667000D02*
X+1839440Y-2667000D01*
X+1920721Y-2642917D02*
X+1875565Y-2642917D01*
X+1875565Y-2658973D01*
X+1911690Y-2658973D01*
X+1920721Y-2667000D01*
X+1920721Y-2683056D01*
X+1911690Y-2691084D01*
X+1884596Y-2691084D01*
X+1875565Y-2683056D01*
D86*
X+1218500Y-2201000D02*
X+1218500Y-2661000D01*
X+1448500Y-2661000D01*
X+1448500Y-2201000D01*
X+1218500Y-2201000D01*
X+1383500Y-2431000D02*
X+1283500Y-2431000D01*
X+1333500Y-2481000D02*
X+1333500Y-2381000D01*
D91*
X+1333500Y-2286000D02*
X+1333500Y-2286000D01*
D111*
X+1357584Y-2637284D02*
X+1309417Y-2637284D01*
X+1309417Y-2592128D01*
X+1317445Y-2583097D01*
X+1325473Y-2583097D01*
X+1333500Y-2592128D01*
X+1333500Y-2637284D01*
X+1333500Y-2592128D02*
X+1341528Y-2583097D01*
X+1357584Y-2583097D01*
X+1309417Y-2565034D02*
X+1333500Y-2565034D01*
X+1357584Y-2537941D01*
X+1333500Y-2510847D01*
X+1309417Y-2510847D01*
X+1317445Y-2483753D02*
X+1309417Y-2474722D01*
X+1309417Y-2447628D01*
X+1317445Y-2438597D01*
X+1325473Y-2438597D01*
X+1333500Y-2447628D01*
X+1341528Y-2438597D01*
X+1349556Y-2438597D01*
X+1357584Y-2447628D01*
X+1357584Y-2474722D01*
X+1349556Y-2483753D01*
X+1333500Y-2465691D02*
X+1333500Y-2447628D01*
X+1317445Y-2411503D02*
X+1309417Y-2402472D01*
X+1309417Y-2375378D01*
X+1317445Y-2366347D01*
X+1325473Y-2366347D01*
X+1333500Y-2375378D01*
X+1333500Y-2402472D01*
X+1341528Y-2411503D01*
X+1357584Y-2411503D01*
X+1357584Y-2366347D01*
D86*
X+1502500Y-2528000D02*
X+1972500Y-2528000D01*
X+1972500Y-2298000D01*
X+1502500Y-2298000D01*
X+1502500Y-2528000D01*
X+1737500Y-2363000D02*
X+1737500Y-2463000D01*
X+1787500Y-2413000D02*
X+1687500Y-2413000D01*
D91*
X+1587500Y-2413000D02*
X+1587500Y-2413000D01*
D112*
X+1706159Y-2429556D02*
X+1696846Y-2437834D01*
X+1668909Y-2437834D01*
X+1650284Y-2421278D01*
X+1650284Y-2404723D01*
X+1668909Y-2388167D01*
X+1696846Y-2388167D01*
X+1706159Y-2396445D01*
X+1724784Y-2388167D02*
X+1724784Y-2413000D01*
X+1752721Y-2437834D01*
X+1780659Y-2413000D01*
X+1780659Y-2388167D01*
X+1808596Y-2396445D02*
X+1817909Y-2388167D01*
X+1845846Y-2388167D01*
X+1855159Y-2396445D01*
X+1855159Y-2404723D01*
X+1845846Y-2413000D01*
X+1817909Y-2413000D01*
X+1808596Y-2421278D01*
X+1808596Y-2437834D01*
X+1855159Y-2437834D01*
X+1929659Y-2404723D02*
X+1920346Y-2413000D01*
X+1892409Y-2413000D01*
X+1883096Y-2404723D01*
X+1883096Y-2396445D01*
X+1892409Y-2388167D01*
X+1920346Y-2388167D01*
X+1929659Y-2396445D01*
X+1929659Y-2429556D01*
X+1920346Y-2437834D01*
X+1892409Y-2437834D01*
D86*
X+2188300Y-394400D02*
X+2658300Y-394400D01*
X+2658300Y-164400D01*
X+2188300Y-164400D01*
X+2188300Y-394400D01*
X+2423300Y-229400D02*
X+2423300Y-329400D01*
X+2473300Y-279400D02*
X+2373300Y-279400D01*
D91*
X+2273300Y-279400D02*
X+2273300Y-279400D01*
D112*
X+2391959Y-295956D02*
X+2382646Y-304234D01*
X+2354709Y-304234D01*
X+2336084Y-287678D01*
X+2336084Y-271123D01*
X+2354709Y-254567D01*
X+2382646Y-254567D01*
X+2391959Y-262845D01*
X+2410584Y-254567D02*
X+2410584Y-279400D01*
X+2438521Y-304234D01*
X+2466459Y-279400D01*
X+2466459Y-254567D01*
X+2494396Y-262845D02*
X+2503709Y-254567D01*
X+2531646Y-254567D01*
X+2540959Y-262845D01*
X+2540959Y-271123D01*
X+2531646Y-279400D01*
X+2540959Y-287678D01*
X+2540959Y-295956D01*
X+2531646Y-304234D01*
X+2503709Y-304234D01*
X+2494396Y-295956D01*
X+2513021Y-279400D02*
X+2531646Y-279400D01*
X+2578209Y-271123D02*
X+2596834Y-254567D01*
X+2596834Y-304234D01*
D86*
X+3417000Y-692500D02*
X+3417000Y-232500D01*
X+3187000Y-232500D01*
X+3187000Y-692500D01*
X+3417000Y-692500D01*
X+3252000Y-462500D02*
X+3352000Y-462500D01*
X+3302000Y-412500D02*
X+3302000Y-512500D01*
D91*
X+3302000Y-607500D02*
X+3302000Y-607500D01*
D111*
X+3326084Y-545216D02*
X+3277917Y-545216D01*
X+3277917Y-500060D01*
X+3285945Y-491029D01*
X+3293973Y-491029D01*
X+3302000Y-500060D01*
X+3302000Y-545216D01*
X+3302000Y-500060D02*
X+3310028Y-491029D01*
X+3326084Y-491029D01*
X+3277917Y-472966D02*
X+3302000Y-472966D01*
X+3326084Y-445873D01*
X+3302000Y-418779D01*
X+3277917Y-418779D01*
X+3285945Y-391685D02*
X+3277917Y-382654D01*
X+3277917Y-355560D01*
X+3285945Y-346529D01*
X+3293973Y-346529D01*
X+3302000Y-355560D01*
X+3302000Y-382654D01*
X+3310028Y-391685D01*
X+3326084Y-391685D01*
X+3326084Y-346529D01*
X+3302000Y-310404D02*
X+3293973Y-319435D01*
X+3285945Y-319435D01*
X+3277917Y-310404D01*
X+3277917Y-283310D01*
X+3285945Y-274279D01*
X+3293973Y-274279D01*
X+3302000Y-283310D01*
X+3302000Y-310404D01*
X+3310028Y-319435D01*
X+3318056Y-319435D01*
X+3326084Y-310404D01*
X+3326084Y-283310D01*
X+3318056Y-274279D01*
X+3310028Y-274279D01*
X+3302000Y-283310D01*
D86*
X+2896300Y-692500D02*
X+2896300Y-232500D01*
X+2666300Y-232500D01*
X+2666300Y-692500D01*
X+2896300Y-692500D01*
X+2731300Y-462500D02*
X+2831300Y-462500D01*
X+2781300Y-412500D02*
X+2781300Y-512500D01*
D91*
X+2781300Y-607500D02*
X+2781300Y-607500D01*
D111*
X+2805384Y-545216D02*
X+2757217Y-545216D01*
X+2757217Y-500060D01*
X+2765245Y-491029D01*
X+2773273Y-491029D01*
X+2781300Y-500060D01*
X+2781300Y-545216D01*
X+2781300Y-500060D02*
X+2789328Y-491029D01*
X+2805384Y-491029D01*
X+2757217Y-472966D02*
X+2781300Y-472966D01*
X+2805384Y-445873D01*
X+2781300Y-418779D01*
X+2757217Y-418779D01*
X+2765245Y-391685D02*
X+2757217Y-382654D01*
X+2757217Y-355560D01*
X+2765245Y-346529D01*
X+2773273Y-346529D01*
X+2781300Y-355560D01*
X+2781300Y-382654D01*
X+2789328Y-391685D01*
X+2805384Y-391685D01*
X+2805384Y-346529D01*
X+2757217Y-319435D02*
X+2757217Y-274279D01*
X+2765245Y-274279D01*
X+2805384Y-319435D01*
D86*
X+2915360Y-224740D02*
X+2915360Y-694740D01*
X+3145360Y-694740D01*
X+3145360Y-224740D01*
X+2915360Y-224740D01*
X+3080360Y-459740D02*
X+2980360Y-459740D01*
X+3030360Y-509740D02*
X+3030360Y-409740D01*
D91*
X+3030360Y-309740D02*
X+3030360Y-309740D01*
D112*
X+3046916Y-614649D02*
X+3055194Y-623962D01*
X+3055194Y-651899D01*
X+3038638Y-670524D01*
X+3022083Y-670524D01*
X+3005527Y-651899D01*
X+3005527Y-623962D01*
X+3013805Y-614649D01*
X+3005527Y-596024D02*
X+3030360Y-596024D01*
X+3055194Y-568087D01*
X+3030360Y-540149D01*
X+3005527Y-540149D01*
X+3013805Y-512212D02*
X+3005527Y-502899D01*
X+3005527Y-474962D01*
X+3013805Y-465649D01*
X+3022083Y-465649D01*
X+3030360Y-474962D01*
X+3030360Y-502899D01*
X+3038638Y-512212D01*
X+3055194Y-512212D01*
X+3055194Y-465649D01*
X+3013805Y-391149D02*
X+3005527Y-400462D01*
X+3005527Y-428399D01*
X+3013805Y-437712D01*
X+3046916Y-437712D01*
X+3055194Y-428399D01*
X+3055194Y-400462D01*
X+3046916Y-391149D01*
X+3038638Y-391149D01*
X+3030360Y-400462D01*
X+3030360Y-437712D01*
D86*
X+2485200Y-1512000D02*
X+2955200Y-1512000D01*
X+2955200Y-1282000D01*
X+2485200Y-1282000D01*
X+2485200Y-1512000D01*
X+2720200Y-1347000D02*
X+2720200Y-1447000D01*
X+2770200Y-1397000D02*
X+2670200Y-1397000D01*
D91*
X+2570200Y-1397000D02*
X+2570200Y-1397000D01*
D112*
X+2688859Y-1413556D02*
X+2679546Y-1421834D01*
X+2651609Y-1421834D01*
X+2632984Y-1405278D01*
X+2632984Y-1388723D01*
X+2651609Y-1372167D01*
X+2679546Y-1372167D01*
X+2688859Y-1380445D01*
X+2707484Y-1372167D02*
X+2707484Y-1397000D01*
X+2735421Y-1421834D01*
X+2763359Y-1397000D01*
X+2763359Y-1372167D01*
X+2791296Y-1380445D02*
X+2800609Y-1372167D01*
X+2828546Y-1372167D01*
X+2837859Y-1380445D01*
X+2837859Y-1388723D01*
X+2828546Y-1397000D01*
X+2800609Y-1397000D01*
X+2791296Y-1405278D01*
X+2791296Y-1421834D01*
X+2837859Y-1421834D01*
X+2912359Y-1405278D02*
X+2856484Y-1405278D01*
X+2893734Y-1372167D01*
X+2893734Y-1421834D01*
D86*
X+2645500Y-2274000D02*
X+3105500Y-2274000D01*
X+3105500Y-2044000D01*
X+2645500Y-2044000D01*
X+2645500Y-2274000D01*
X+2875500Y-2109000D02*
X+2875500Y-2209000D01*
X+2925500Y-2159000D02*
X+2825500Y-2159000D01*
D91*
X+2730500Y-2159000D02*
X+2730500Y-2159000D01*
D111*
X+2792784Y-2183084D02*
X+2792784Y-2134917D01*
X+2837940Y-2134917D01*
X+2846971Y-2142945D01*
X+2846971Y-2150973D01*
X+2837940Y-2159000D01*
X+2792784Y-2159000D01*
X+2837940Y-2159000D02*
X+2846971Y-2167028D01*
X+2846971Y-2183084D01*
X+2865034Y-2134917D02*
X+2865034Y-2159000D01*
X+2892127Y-2183084D01*
X+2919221Y-2159000D01*
X+2919221Y-2134917D01*
X+2946315Y-2142945D02*
X+2955346Y-2134917D01*
X+2982440Y-2134917D01*
X+2991471Y-2142945D01*
X+2991471Y-2150973D01*
X+2982440Y-2159000D01*
X+2955346Y-2159000D01*
X+2946315Y-2167028D01*
X+2946315Y-2183084D01*
X+2991471Y-2183084D01*
X+3063721Y-2134917D02*
X+3018565Y-2134917D01*
X+3018565Y-2150973D01*
X+3054690Y-2150973D01*
X+3063721Y-2159000D01*
X+3063721Y-2175056D01*
X+3054690Y-2183084D01*
X+3027596Y-2183084D01*
X+3018565Y-2175056D01*
D86*
X+2645500Y-1766000D02*
X+3105500Y-1766000D01*
X+3105500Y-1536000D01*
X+2645500Y-1536000D01*
X+2645500Y-1766000D01*
X+2875500Y-1601000D02*
X+2875500Y-1701000D01*
X+2925500Y-1651000D02*
X+2825500Y-1651000D01*
D91*
X+2730500Y-1651000D02*
X+2730500Y-1651000D01*
D111*
X+2792784Y-1675084D02*
X+2792784Y-1626917D01*
X+2837940Y-1626917D01*
X+2846971Y-1634945D01*
X+2846971Y-1642973D01*
X+2837940Y-1651000D01*
X+2792784Y-1651000D01*
X+2837940Y-1651000D02*
X+2846971Y-1659028D01*
X+2846971Y-1675084D01*
X+2865034Y-1626917D02*
X+2865034Y-1651000D01*
X+2892127Y-1675084D01*
X+2919221Y-1651000D01*
X+2919221Y-1626917D01*
X+2946315Y-1634945D02*
X+2955346Y-1626917D01*
X+2982440Y-1626917D01*
X+2991471Y-1634945D01*
X+2991471Y-1642973D01*
X+2982440Y-1651000D01*
X+2955346Y-1651000D01*
X+2946315Y-1659028D01*
X+2946315Y-1675084D01*
X+2991471Y-1675084D01*
X+3063721Y-1634945D02*
X+3054690Y-1626917D01*
X+3027596Y-1626917D01*
X+3018565Y-1634945D01*
X+3018565Y-1667056D01*
X+3027596Y-1675084D01*
X+3054690Y-1675084D01*
X+3063721Y-1667056D01*
X+3063721Y-1659028D01*
X+3054690Y-1651000D01*
X+3018565Y-1651000D01*
D86*
X+2165000Y-2274000D02*
X+2625000Y-2274000D01*
X+2625000Y-2044000D01*
X+2165000Y-2044000D01*
X+2165000Y-2274000D01*
X+2395000Y-2109000D02*
X+2395000Y-2209000D01*
X+2445000Y-2159000D02*
X+2345000Y-2159000D01*
D91*
X+2250000Y-2159000D02*
X+2250000Y-2159000D01*
D111*
X+2312284Y-2183084D02*
X+2312284Y-2134917D01*
X+2357440Y-2134917D01*
X+2366471Y-2142945D01*
X+2366471Y-2150973D01*
X+2357440Y-2159000D01*
X+2312284Y-2159000D01*
X+2357440Y-2159000D02*
X+2366471Y-2167028D01*
X+2366471Y-2183084D01*
X+2384534Y-2134917D02*
X+2384534Y-2159000D01*
X+2411627Y-2183084D01*
X+2438721Y-2159000D01*
X+2438721Y-2134917D01*
X+2465815Y-2142945D02*
X+2474846Y-2134917D01*
X+2501940Y-2134917D01*
X+2510971Y-2142945D01*
X+2510971Y-2150973D01*
X+2501940Y-2159000D01*
X+2474846Y-2159000D01*
X+2465815Y-2167028D01*
X+2465815Y-2183084D01*
X+2510971Y-2183084D01*
X+2583221Y-2150973D02*
X+2574190Y-2159000D01*
X+2547096Y-2159000D01*
X+2538065Y-2150973D01*
X+2538065Y-2142945D01*
X+2547096Y-2134917D01*
X+2574190Y-2134917D01*
X+2583221Y-2142945D01*
X+2583221Y-2175056D01*
X+2574190Y-2183084D01*
X+2547096Y-2183084D01*
D86*
X+2155000Y-2020000D02*
X+2625000Y-2020000D01*
X+2625000Y-1790000D01*
X+2155000Y-1790000D01*
X+2155000Y-2020000D01*
X+2390000Y-1855000D02*
X+2390000Y-1955000D01*
X+2440000Y-1905000D02*
X+2340000Y-1905000D01*
D91*
X+2240000Y-1905000D02*
X+2240000Y-1905000D01*
D112*
X+2358659Y-1921556D02*
X+2349346Y-1929834D01*
X+2321409Y-1929834D01*
X+2302784Y-1913278D01*
X+2302784Y-1896723D01*
X+2321409Y-1880167D01*
X+2349346Y-1880167D01*
X+2358659Y-1888445D01*
X+2377284Y-1880167D02*
X+2377284Y-1905000D01*
X+2405221Y-1929834D01*
X+2433159Y-1905000D01*
X+2433159Y-1880167D01*
X+2461096Y-1888445D02*
X+2470409Y-1880167D01*
X+2498346Y-1880167D01*
X+2507659Y-1888445D01*
X+2507659Y-1896723D01*
X+2498346Y-1905000D01*
X+2470409Y-1905000D01*
X+2461096Y-1913278D01*
X+2461096Y-1929834D01*
X+2507659Y-1929834D01*
X+2535596Y-1888445D02*
X+2544909Y-1880167D01*
X+2572846Y-1880167D01*
X+2582159Y-1888445D01*
X+2582159Y-1896723D01*
X+2572846Y-1905000D01*
X+2582159Y-1913278D01*
X+2582159Y-1921556D01*
X+2572846Y-1929834D01*
X+2544909Y-1929834D01*
X+2535596Y-1921556D01*
X+2554221Y-1905000D02*
X+2572846Y-1905000D01*
D86*
X+2645500Y-2020000D02*
X+3115500Y-2020000D01*
X+3115500Y-1790000D01*
X+2645500Y-1790000D01*
X+2645500Y-2020000D01*
X+2880500Y-1855000D02*
X+2880500Y-1955000D01*
X+2930500Y-1905000D02*
X+2830500Y-1905000D01*
D91*
X+2730500Y-1905000D02*
X+2730500Y-1905000D01*
D112*
X+2849159Y-1921556D02*
X+2839846Y-1929834D01*
X+2811909Y-1929834D01*
X+2793284Y-1913278D01*
X+2793284Y-1896723D01*
X+2811909Y-1880167D01*
X+2839846Y-1880167D01*
X+2849159Y-1888445D01*
X+2867784Y-1880167D02*
X+2867784Y-1905000D01*
X+2895721Y-1929834D01*
X+2923659Y-1905000D01*
X+2923659Y-1880167D01*
X+2951596Y-1888445D02*
X+2960909Y-1880167D01*
X+2988846Y-1880167D01*
X+2998159Y-1888445D01*
X+2998159Y-1896723D01*
X+2988846Y-1905000D01*
X+2960909Y-1905000D01*
X+2951596Y-1913278D01*
X+2951596Y-1929834D01*
X+2998159Y-1929834D01*
X+3072659Y-1880167D02*
X+3026096Y-1880167D01*
X+3026096Y-1896723D01*
X+3063346Y-1896723D01*
X+3072659Y-1905000D01*
X+3072659Y-1921556D01*
X+3063346Y-1929834D01*
X+3035409Y-1929834D01*
X+3026096Y-1921556D01*
D86*
X+2155000Y-1766000D02*
X+2625000Y-1766000D01*
X+2625000Y-1536000D01*
X+2155000Y-1536000D01*
X+2155000Y-1766000D01*
X+2390000Y-1601000D02*
X+2390000Y-1701000D01*
X+2440000Y-1651000D02*
X+2340000Y-1651000D01*
D91*
X+2240000Y-1651000D02*
X+2240000Y-1651000D01*
D112*
X+2358659Y-1667556D02*
X+2349346Y-1675834D01*
X+2321409Y-1675834D01*
X+2302784Y-1659278D01*
X+2302784Y-1642723D01*
X+2321409Y-1626167D01*
X+2349346Y-1626167D01*
X+2358659Y-1634445D01*
X+2377284Y-1626167D02*
X+2377284Y-1651000D01*
X+2405221Y-1675834D01*
X+2433159Y-1651000D01*
X+2433159Y-1626167D01*
X+2461096Y-1634445D02*
X+2470409Y-1626167D01*
X+2498346Y-1626167D01*
X+2507659Y-1634445D01*
X+2507659Y-1642723D01*
X+2498346Y-1651000D01*
X+2470409Y-1651000D01*
X+2461096Y-1659278D01*
X+2461096Y-1675834D01*
X+2507659Y-1675834D01*
X+2535596Y-1626167D02*
X+2582159Y-1626167D01*
X+2582159Y-1634445D01*
X+2535596Y-1675834D01*
D40*
X+5133340Y+736600D02*
X+5788660Y+736600D01*
X+5788660Y+1485900D01*
X+5133340Y+1485900D01*
X+5133340Y+736600D01*
D95*
X+5461000Y+889000D02*
X+5461000Y+889000D01*
D113*
X+5283121Y+1186307D02*
X+5265333Y+1170496D01*
X+5211969Y+1170496D01*
X+5176394Y+1202119D01*
X+5176394Y+1233742D01*
X+5211969Y+1265365D01*
X+5265333Y+1265365D01*
X+5283121Y+1249553D01*
X+5318697Y+1265365D02*
X+5318697Y+1217930D01*
X+5372060Y+1170496D01*
X+5425424Y+1217930D01*
X+5425424Y+1265365D01*
X+5567727Y+1202119D02*
X+5461000Y+1202119D01*
X+5532151Y+1265365D01*
X+5532151Y+1170496D01*
X+5621090Y+1249553D02*
X+5638878Y+1265365D01*
X+5692242Y+1265365D01*
X+5710030Y+1249553D01*
X+5710030Y+1233742D01*
X+5692242Y+1217930D01*
X+5710030Y+1202119D01*
X+5710030Y+1186307D01*
X+5692242Y+1170496D01*
X+5638878Y+1170496D01*
X+5621090Y+1186307D01*
X+5656666Y+1217930D02*
X+5692242Y+1217930D01*
D86*
X+4977500Y+817000D02*
X+4977500Y+1527000D01*
X+4547500Y+1527000D01*
X+4547500Y+817000D01*
X+4977500Y+817000D01*
X+4712500Y+1172000D02*
X+4812500Y+1172000D01*
X+4762500Y+1222000D02*
X+4762500Y+1122000D01*
D93*
X+4762500Y+947000D02*
X+4762500Y+947000D01*
D94*
X+4814502Y+1025326D02*
X+4710499Y+1025326D01*
X+4710499Y+1103328D01*
X+4745167Y+1142329D01*
X+4779834Y+1142329D01*
X+4814502Y+1103328D01*
X+4814502Y+1025326D01*
X+4710499Y+1181330D02*
X+4762500Y+1181330D01*
X+4814502Y+1239831D01*
X+4762500Y+1298333D01*
X+4710499Y+1298333D01*
X+4710499Y+1356834D02*
X+4710499Y+1454337D01*
X+4727833Y+1454337D01*
X+4814502Y+1356834D01*
D40*
X+3607920Y-2000250D02*
X+3758080Y-2000250D01*
X+3758080Y-1701800D01*
X+3607920Y-1701800D01*
X+3607920Y-2000250D01*
D105*
X+3683000Y-1733550D02*
X+3683000Y-1733550D01*
D106*
X+3705860Y-1978660D02*
X+3660140Y-1978660D01*
X+3660140Y-1944370D01*
X+3675380Y-1927225D01*
X+3690620Y-1927225D01*
X+3705860Y-1944370D01*
X+3705860Y-1978660D01*
X+3660140Y-1910080D02*
X+3683000Y-1910080D01*
X+3705860Y-1884363D01*
X+3683000Y-1858645D01*
X+3660140Y-1858645D01*
X+3683000Y-1824355D02*
X+3675380Y-1832928D01*
X+3667760Y-1832928D01*
X+3660140Y-1824355D01*
X+3660140Y-1798638D01*
X+3667760Y-1790065D01*
X+3675380Y-1790065D01*
X+3683000Y-1798638D01*
X+3683000Y-1824355D01*
X+3690620Y-1832928D01*
X+3698240Y-1832928D01*
X+3705860Y-1824355D01*
X+3705860Y-1798638D01*
X+3698240Y-1790065D01*
X+3690620Y-1790065D01*
X+3683000Y-1798638D01*
D40*
X+3799840Y-3693160D02*
X+4074160Y-3693160D01*
X+4074160Y-3418840D01*
X+3799840Y-3418840D01*
X+3799840Y-3693160D01*
D90*
X+3829843Y-3536950D02*
X+3858418Y-3536950D01*
X+3844131Y-3536950D02*
X+3844131Y-3575050D01*
X+3829843Y-3575050D02*
X+3858418Y-3575050D01*
X+3879850Y-3575050D02*
X+3879850Y-3536950D01*
X+3922712Y-3536950D01*
X+3879850Y-3556000D02*
X+3908425Y-3556000D01*
X+3937000Y-3575050D02*
X+3937000Y-3536950D01*
X+3972718Y-3536950D01*
X+3979862Y-3543300D01*
X+3979862Y-3549650D01*
X+3972718Y-3556000D01*
X+3979862Y-3562350D01*
X+3979862Y-3568700D01*
X+3972718Y-3575050D01*
X+3937000Y-3575050D01*
X+3937000Y-3556000D02*
X+3972718Y-3556000D01*
X+4037012Y-3562350D02*
X+3994150Y-3562350D01*
X+4022725Y-3536950D01*
X+4022725Y-3575050D01*
D40*
X+6085840Y-3693160D02*
X+6360160Y-3693160D01*
X+6360160Y-3418840D01*
X+6085840Y-3418840D01*
X+6085840Y-3693160D01*
D90*
X+6115843Y-3536950D02*
X+6144418Y-3536950D01*
X+6130131Y-3536950D02*
X+6130131Y-3575050D01*
X+6115843Y-3575050D02*
X+6144418Y-3575050D01*
X+6165850Y-3575050D02*
X+6165850Y-3536950D01*
X+6208712Y-3536950D01*
X+6165850Y-3556000D02*
X+6194425Y-3556000D01*
X+6223000Y-3575050D02*
X+6223000Y-3536950D01*
X+6258718Y-3536950D01*
X+6265862Y-3543300D01*
X+6265862Y-3549650D01*
X+6258718Y-3556000D01*
X+6265862Y-3562350D01*
X+6265862Y-3568700D01*
X+6258718Y-3575050D01*
X+6223000Y-3575050D01*
X+6223000Y-3556000D02*
X+6258718Y-3556000D01*
X+6323012Y-3536950D02*
X+6287293Y-3536950D01*
X+6287293Y-3549650D01*
X+6315868Y-3549650D01*
X+6323012Y-3556000D01*
X+6323012Y-3568700D01*
X+6315868Y-3575050D01*
X+6294437Y-3575050D01*
X+6287293Y-3568700D01*
D40*
X+3799840Y-3185160D02*
X+4074160Y-3185160D01*
X+4074160Y-2910840D01*
X+3799840Y-2910840D01*
X+3799840Y-3185160D01*
D90*
X+3829843Y-3028950D02*
X+3858418Y-3028950D01*
X+3844131Y-3028950D02*
X+3844131Y-3067050D01*
X+3829843Y-3067050D02*
X+3858418Y-3067050D01*
X+3879850Y-3067050D02*
X+3879850Y-3028950D01*
X+3922712Y-3067050D01*
X+3922712Y-3028950D01*
X+3937000Y-3067050D02*
X+3937000Y-3028950D01*
X+3979862Y-3028950D02*
X+3979862Y-3067050D01*
X+3937000Y-3048000D02*
X+3979862Y-3048000D01*
X+4037012Y-3054350D02*
X+3994150Y-3054350D01*
X+4022725Y-3028950D01*
X+4022725Y-3067050D01*
D40*
X+6085840Y-3185160D02*
X+6360160Y-3185160D01*
X+6360160Y-2910840D01*
X+6085840Y-2910840D01*
X+6085840Y-3185160D01*
D90*
X+6115843Y-3028950D02*
X+6144418Y-3028950D01*
X+6130131Y-3028950D02*
X+6130131Y-3067050D01*
X+6115843Y-3067050D02*
X+6144418Y-3067050D01*
X+6165850Y-3067050D02*
X+6165850Y-3028950D01*
X+6208712Y-3067050D01*
X+6208712Y-3028950D01*
X+6223000Y-3067050D02*
X+6223000Y-3028950D01*
X+6265862Y-3028950D02*
X+6265862Y-3067050D01*
X+6223000Y-3048000D02*
X+6265862Y-3048000D01*
X+6323012Y-3028950D02*
X+6287293Y-3028950D01*
X+6287293Y-3041650D01*
X+6315868Y-3041650D01*
X+6323012Y-3048000D01*
X+6323012Y-3060700D01*
X+6315868Y-3067050D01*
X+6294437Y-3067050D01*
X+6287293Y-3060700D01*
D86*
X+5165000Y+480500D02*
X+4395000Y+480500D01*
X+4395000Y-99500D01*
X+5165000Y-99500D01*
X+5165000Y+480500D01*
X+4780000Y+140500D02*
X+4780000Y+240500D01*
X+4730000Y+190500D02*
X+4830000Y+190500D01*
D87*
X+5080000Y+190500D02*
X+5080000Y+190500D01*
D88*
X+4443536Y+249579D02*
X+4443536Y+131421D01*
X+4576463Y+131421D01*
X+4620772Y+249579D02*
X+4620772Y+190500D01*
X+4687235Y+131421D01*
X+4753699Y+190500D01*
X+4753699Y+249579D01*
X+4930935Y+170807D02*
X+4798008Y+170807D01*
X+4886626Y+249579D01*
X+4886626Y+131421D01*
D40*
X+3799840Y-3439160D02*
X+4074160Y-3439160D01*
X+4074160Y-3164840D01*
X+3799840Y-3164840D01*
X+3799840Y-3439160D01*
D90*
X+3822700Y-3321050D02*
X+3822700Y-3282950D01*
X+3858418Y-3282950D01*
X+3865562Y-3289300D01*
X+3865562Y-3295650D01*
X+3858418Y-3302000D01*
X+3822700Y-3302000D01*
X+3879850Y-3282950D02*
X+3879850Y-3321050D01*
X+3901281Y-3302000D01*
X+3922712Y-3321050D01*
X+3922712Y-3282950D01*
X+3937000Y-3321050D02*
X+3937000Y-3282950D01*
X+3958431Y-3302000D01*
X+3979862Y-3282950D01*
X+3979862Y-3321050D01*
X+4037012Y-3308350D02*
X+3994150Y-3308350D01*
X+4022725Y-3282950D01*
X+4022725Y-3321050D01*
D40*
X+6085840Y-3439160D02*
X+6360160Y-3439160D01*
X+6360160Y-3164840D01*
X+6085840Y-3164840D01*
X+6085840Y-3439160D01*
D90*
X+6108700Y-3321050D02*
X+6108700Y-3282950D01*
X+6144418Y-3282950D01*
X+6151562Y-3289300D01*
X+6151562Y-3295650D01*
X+6144418Y-3302000D01*
X+6108700Y-3302000D01*
X+6165850Y-3282950D02*
X+6165850Y-3321050D01*
X+6187281Y-3302000D01*
X+6208712Y-3321050D01*
X+6208712Y-3282950D01*
X+6223000Y-3321050D02*
X+6223000Y-3282950D01*
X+6244431Y-3302000D01*
X+6265862Y-3282950D01*
X+6265862Y-3321050D01*
X+6323012Y-3282950D02*
X+6287293Y-3282950D01*
X+6287293Y-3295650D01*
X+6315868Y-3295650D01*
X+6323012Y-3302000D01*
X+6323012Y-3314700D01*
X+6315868Y-3321050D01*
X+6294437Y-3321050D01*
X+6287293Y-3314700D01*
D40*
X+3370580Y-1638300D02*
X+3680460Y-1638300D01*
X+3680460Y-1346200D01*
X+3370580Y-1346200D01*
X+3370580Y-1638300D01*
D107*
X+3525520Y-1397000D02*
X+3525520Y-1397000D01*
D108*
X+3395218Y-1518158D02*
X+3416935Y-1498854D01*
X+3438652Y-1498854D01*
X+3460369Y-1518158D01*
X+3460369Y-1537462D01*
X+3438652Y-1556766D01*
X+3416935Y-1556766D01*
X+3395218Y-1537462D01*
X+3395218Y-1518158D01*
X+3438652Y-1537462D02*
X+3460369Y-1556766D01*
X+3482086Y-1498854D02*
X+3482086Y-1527810D01*
X+3514661Y-1556766D01*
X+3547237Y-1527810D01*
X+3547237Y-1498854D01*
X+3579812Y-1498854D02*
X+3634105Y-1498854D01*
X+3634105Y-1508506D01*
X+3579812Y-1556766D01*
D40*
X+3587750Y+7620D02*
X+4286250Y+7620D01*
X+4286250Y+1174750D01*
X+3587750Y+1174750D01*
X+3587750Y+7620D01*
D99*
X+3937000Y+825500D02*
X+3937000Y+825500D01*
D100*
X+3658795Y+367317D02*
X+3705162Y+408533D01*
X+3751530Y+408533D01*
X+3797897Y+367317D01*
X+3797897Y+326102D01*
X+3751530Y+284886D01*
X+3705162Y+284886D01*
X+3658795Y+326102D01*
X+3658795Y+367317D01*
X+3751530Y+326102D02*
X+3797897Y+284886D01*
X+3844265Y+408533D02*
X+3844265Y+346710D01*
X+3913816Y+284886D01*
X+3983367Y+346710D01*
X+3983367Y+408533D01*
X+4076102Y+346710D02*
X+4052918Y+367317D01*
X+4052918Y+387925D01*
X+4076102Y+408533D01*
X+4145653Y+408533D01*
X+4168837Y+387925D01*
X+4168837Y+367317D01*
X+4145653Y+346710D01*
X+4076102Y+346710D01*
X+4052918Y+326102D01*
X+4052918Y+305494D01*
X+4076102Y+284886D01*
X+4145653Y+284886D01*
X+4168837Y+305494D01*
X+4168837Y+326102D01*
X+4145653Y+346710D01*
D40*
X+5720080Y-1638300D02*
X+6029960Y-1638300D01*
X+6029960Y-1346200D01*
X+5720080Y-1346200D01*
X+5720080Y-1638300D01*
D107*
X+5875020Y-1397000D02*
X+5875020Y-1397000D01*
D108*
X+5744718Y-1518158D02*
X+5766435Y-1498854D01*
X+5788152Y-1498854D01*
X+5809869Y-1518158D01*
X+5809869Y-1537462D01*
X+5788152Y-1556766D01*
X+5766435Y-1556766D01*
X+5744718Y-1537462D01*
X+5744718Y-1518158D01*
X+5788152Y-1537462D02*
X+5809869Y-1556766D01*
X+5831586Y-1498854D02*
X+5831586Y-1527810D01*
X+5864161Y-1556766D01*
X+5896737Y-1527810D01*
X+5896737Y-1498854D01*
X+5983605Y-1518158D02*
X+5972746Y-1527810D01*
X+5940171Y-1527810D01*
X+5929312Y-1518158D01*
X+5929312Y-1508506D01*
X+5940171Y-1498854D01*
X+5972746Y-1498854D01*
X+5983605Y-1508506D01*
X+5983605Y-1547114D01*
X+5972746Y-1556766D01*
X+5940171Y-1556766D01*
D40*
X+5911850Y+0D02*
X+6610350Y+0D01*
X+6610350Y+1167130D01*
X+5911850Y+1167130D01*
X+5911850Y+0D01*
D99*
X+6261100Y+817880D02*
X+6261100Y+817880D01*
D114*
X+5978398Y+354796D02*
X+6013735Y+386207D01*
X+6049073Y+386207D01*
X+6084411Y+354796D01*
X+6084411Y+323384D01*
X+6049073Y+291973D01*
X+6013735Y+291973D01*
X+5978398Y+323384D01*
X+5978398Y+354796D01*
X+6049073Y+323384D02*
X+6084411Y+291973D01*
X+6119749Y+386207D02*
X+6119749Y+339090D01*
X+6172755Y+291973D01*
X+6225762Y+339090D01*
X+6225762Y+386207D01*
X+6296437Y+354796D02*
X+6331775Y+386207D01*
X+6331775Y+291973D01*
X+6402451Y+307679D02*
X+6402451Y+370501D01*
X+6420119Y+386207D01*
X+6490795Y+386207D01*
X+6508464Y+370501D01*
X+6508464Y+307679D01*
X+6490795Y+291973D01*
X+6420119Y+291973D01*
X+6402451Y+307679D01*
X+6402451Y+291973D02*
X+6508464Y+386207D01*
D40*
X+4815840Y+1704340D02*
X+5090160Y+1704340D01*
X+5090160Y+1978660D01*
X+4815840Y+1978660D01*
X+4815840Y+1704340D01*
D90*
X+4933950Y+1727200D02*
X+4953000Y+1727200D01*
X+4972050Y+1748631D01*
X+4953000Y+1770062D01*
X+4933950Y+1770062D01*
X+4959350Y+1827212D02*
X+4959350Y+1784350D01*
X+4933950Y+1812925D01*
X+4972050Y+1812925D01*
X+4972050Y+1841500D02*
X+4933950Y+1841500D01*
X+4933950Y+1884362D02*
X+4972050Y+1884362D01*
X+4953000Y+1841500D02*
X+4953000Y+1884362D01*
X+4965700Y+1898650D02*
X+4972050Y+1905793D01*
X+4972050Y+1934368D01*
X+4965700Y+1941512D01*
X+4959350Y+1941512D01*
X+4953000Y+1934368D01*
X+4953000Y+1905793D01*
X+4946650Y+1898650D01*
X+4940300Y+1898650D01*
X+4933950Y+1905793D01*
X+4933950Y+1934368D01*
X+4940300Y+1941512D01*
D40*
X+7025640Y+1704340D02*
X+7299960Y+1704340D01*
X+7299960Y+1978660D01*
X+7025640Y+1978660D01*
X+7025640Y+1704340D01*
D90*
X+7143750Y+1727200D02*
X+7162800Y+1727200D01*
X+7181850Y+1748631D01*
X+7162800Y+1770062D01*
X+7143750Y+1770062D01*
X+7143750Y+1827212D02*
X+7143750Y+1791493D01*
X+7156450Y+1791493D01*
X+7156450Y+1820068D01*
X+7162800Y+1827212D01*
X+7175500Y+1827212D01*
X+7181850Y+1820068D01*
X+7181850Y+1798637D01*
X+7175500Y+1791493D01*
X+7181850Y+1841500D02*
X+7143750Y+1841500D01*
X+7143750Y+1884362D02*
X+7181850Y+1884362D01*
X+7162800Y+1841500D02*
X+7162800Y+1884362D01*
X+7175500Y+1898650D02*
X+7181850Y+1905793D01*
X+7181850Y+1934368D01*
X+7175500Y+1941512D01*
X+7169150Y+1941512D01*
X+7162800Y+1934368D01*
X+7162800Y+1905793D01*
X+7156450Y+1898650D01*
X+7150100Y+1898650D01*
X+7143750Y+1905793D01*
X+7143750Y+1934368D01*
X+7150100Y+1941512D01*
D86*
X+5202500Y+700000D02*
X+5202500Y-90000D01*
X+5592500Y-90000D01*
X+5592500Y+700000D01*
X+5202500Y+700000D01*
X+5447500Y+305000D02*
X+5347500Y+305000D01*
X+5397500Y+255000D02*
X+5397500Y+355000D01*
D97*
X+5397500Y+610000D02*
X+5397500Y+610000D01*
D114*
X+5444463Y-51029D02*
X+5350537Y-51029D01*
X+5350537Y+37026D01*
X+5366191Y+54637D01*
X+5381846Y+54637D01*
X+5397500Y+37026D01*
X+5397500Y-51029D01*
X+5397500Y+37026D02*
X+5413154Y+54637D01*
X+5444463Y+54637D01*
X+5350537Y+89859D02*
X+5397500Y+89859D01*
X+5444463Y+142692D01*
X+5397500Y+195525D01*
X+5350537Y+195525D01*
X+5413154Y+336413D02*
X+5413154Y+230747D01*
X+5350537Y+301191D01*
X+5444463Y+301191D01*
X+5397500Y+406857D02*
X+5381846Y+389246D01*
X+5366191Y+389246D01*
X+5350537Y+406857D01*
X+5350537Y+459690D01*
X+5366191Y+477301D01*
X+5381846Y+477301D01*
X+5397500Y+459690D01*
X+5397500Y+406857D01*
X+5413154Y+389246D01*
X+5428809Y+389246D01*
X+5444463Y+406857D01*
X+5444463Y+459690D01*
X+5428809Y+477301D01*
X+5413154Y+477301D01*
X+5397500Y+459690D01*
D86*
X+7615500Y+725000D02*
X+7615500Y-65000D01*
X+8005500Y-65000D01*
X+8005500Y+725000D01*
X+7615500Y+725000D01*
X+7860500Y+330000D02*
X+7760500Y+330000D01*
X+7810500Y+280000D02*
X+7810500Y+380000D01*
D97*
X+7810500Y+635000D02*
X+7810500Y+635000D01*
D114*
X+7857463Y-26029D02*
X+7763537Y-26029D01*
X+7763537Y+62026D01*
X+7779191Y+79637D01*
X+7794846Y+79637D01*
X+7810500Y+62026D01*
X+7810500Y-26029D01*
X+7810500Y+62026D02*
X+7826154Y+79637D01*
X+7857463Y+79637D01*
X+7763537Y+114859D02*
X+7810500Y+114859D01*
X+7857463Y+167692D01*
X+7810500Y+220525D01*
X+7763537Y+220525D01*
X+7779191Y+361413D02*
X+7763537Y+343802D01*
X+7763537Y+290969D01*
X+7779191Y+273358D01*
X+7841809Y+273358D01*
X+7857463Y+290969D01*
X+7857463Y+343802D01*
X+7841809Y+361413D01*
X+7826154Y+361413D01*
X+7810500Y+343802D01*
X+7810500Y+273358D01*
X+7841809Y+396635D02*
X+7779191Y+396635D01*
X+7763537Y+414246D01*
X+7763537Y+484690D01*
X+7779191Y+502301D01*
X+7841809Y+502301D01*
X+7857463Y+484690D01*
X+7857463Y+414246D01*
X+7841809Y+396635D01*
X+7857463Y+396635D02*
X+7763537Y+502301D01*
D86*
X+4745500Y-1204600D02*
X+5365500Y-1204600D01*
X+5365500Y-844600D01*
X+4745500Y-844600D01*
X+4745500Y-1204600D01*
X+5055500Y-974600D02*
X+5055500Y-1074600D01*
X+5105500Y-1024600D02*
X+5005500Y-1024600D01*
D109*
X+4840500Y-927100D02*
X+4840500Y-927100D01*
D110*
X+4892307Y-975596D02*
X+4892307Y-1057269D01*
X+4910683Y-1073603D01*
X+4984188Y-1073603D01*
X+5002564Y-1057269D01*
X+5002564Y-975596D01*
X+5039317Y-975596D02*
X+5039317Y-1024600D01*
X+5094445Y-1073603D01*
X+5149574Y-1024600D01*
X+5149574Y-975596D01*
X+5204703Y-975596D02*
X+5296584Y-975596D01*
X+5296584Y-991931D01*
X+5204703Y-1073603D01*
D40*
X+3830320Y-2209800D02*
X+4297680Y-2209800D01*
X+4297680Y-1485900D01*
X+3830320Y-1485900D01*
X+3830320Y-2209800D01*
D101*
X+3873500Y-2108200D02*
X+3873500Y-2108200D01*
D102*
X+4029520Y-2164459D02*
X+4146783Y-2164459D01*
X+4170235Y-2138075D01*
X+4170235Y-2032539D01*
X+4146783Y-2006155D01*
X+4029520Y-2006155D01*
X+4029520Y-1953386D02*
X+4099877Y-1953386D01*
X+4170235Y-1874234D01*
X+4099877Y-1795082D01*
X+4029520Y-1795082D01*
X+4099877Y-1689545D02*
X+4076425Y-1715929D01*
X+4052972Y-1715929D01*
X+4029520Y-1689545D01*
X+4029520Y-1610393D01*
X+4052972Y-1584009D01*
X+4076425Y-1584009D01*
X+4099877Y-1610393D01*
X+4099877Y-1689545D01*
X+4123330Y-1715929D01*
X+4146783Y-1715929D01*
X+4170235Y-1689545D01*
X+4170235Y-1610393D01*
X+4146783Y-1584009D01*
X+4123330Y-1584009D01*
X+4099877Y-1610393D01*
D86*
X+7183900Y-1204600D02*
X+7803900Y-1204600D01*
X+7803900Y-844600D01*
X+7183900Y-844600D01*
X+7183900Y-1204600D01*
X+7493900Y-974600D02*
X+7493900Y-1074600D01*
X+7543900Y-1024600D02*
X+7443900Y-1024600D01*
D109*
X+7278900Y-927100D02*
X+7278900Y-927100D01*
D110*
X+7330707Y-975596D02*
X+7330707Y-1057269D01*
X+7349083Y-1073603D01*
X+7422588Y-1073603D01*
X+7440964Y-1057269D01*
X+7440964Y-975596D01*
X+7477717Y-975596D02*
X+7477717Y-1024600D01*
X+7532845Y-1073603D01*
X+7587974Y-1024600D01*
X+7587974Y-975596D01*
X+7734984Y-1008265D02*
X+7716608Y-1024600D01*
X+7661479Y-1024600D01*
X+7643103Y-1008265D01*
X+7643103Y-991931D01*
X+7661479Y-975596D01*
X+7716608Y-975596D01*
X+7734984Y-991931D01*
X+7734984Y-1057269D01*
X+7716608Y-1073603D01*
X+7661479Y-1073603D01*
D40*
X+6179820Y-2209800D02*
X+6647180Y-2209800D01*
X+6647180Y-1485900D01*
X+6179820Y-1485900D01*
X+6179820Y-2209800D01*
D101*
X+6223000Y-2108200D02*
X+6223000Y-2108200D01*
D116*
X+6396608Y-2164460D02*
X+6484556Y-2164460D01*
X+6502145Y-2144672D01*
X+6502145Y-2065520D01*
X+6484556Y-2045732D01*
X+6396608Y-2045732D01*
X+6396608Y-2006155D02*
X+6449377Y-2006155D01*
X+6502145Y-1946791D01*
X+6449377Y-1887427D01*
X+6396608Y-1887427D01*
X+6431787Y-1808274D02*
X+6396608Y-1768698D01*
X+6502145Y-1768698D01*
X+6484556Y-1689545D02*
X+6414198Y-1689545D01*
X+6396608Y-1669757D01*
X+6396608Y-1590605D01*
X+6414198Y-1570817D01*
X+6484556Y-1570817D01*
X+6502145Y-1590605D01*
X+6502145Y-1669757D01*
X+6484556Y-1689545D01*
X+6502145Y-1689545D02*
X+6396608Y-1570817D01*
D86*
X+3788500Y-2528000D02*
X+4258500Y-2528000D01*
X+4258500Y-2298000D01*
X+3788500Y-2298000D01*
X+3788500Y-2528000D01*
X+4023500Y-2363000D02*
X+4023500Y-2463000D01*
X+4073500Y-2413000D02*
X+3973500Y-2413000D01*
D91*
X+3873500Y-2413000D02*
X+3873500Y-2413000D01*
D112*
X+3992159Y-2429556D02*
X+3982846Y-2437834D01*
X+3954909Y-2437834D01*
X+3936284Y-2421278D01*
X+3936284Y-2404723D01*
X+3954909Y-2388167D01*
X+3982846Y-2388167D01*
X+3992159Y-2396445D01*
X+4010784Y-2388167D02*
X+4010784Y-2413000D01*
X+4038721Y-2437834D01*
X+4066659Y-2413000D01*
X+4066659Y-2388167D01*
X+4141159Y-2421278D02*
X+4085284Y-2421278D01*
X+4122534Y-2388167D01*
X+4122534Y-2437834D01*
X+4159784Y-2429556D02*
X+4159784Y-2396445D01*
X+4169096Y-2388167D01*
X+4206346Y-2388167D01*
X+4215659Y-2396445D01*
X+4215659Y-2429556D01*
X+4206346Y-2437834D01*
X+4169096Y-2437834D01*
X+4159784Y-2429556D01*
X+4159784Y-2437834D02*
X+4215659Y-2388167D01*
D86*
X+3788500Y-877000D02*
X+4258500Y-877000D01*
X+4258500Y-647000D01*
X+3788500Y-647000D01*
X+3788500Y-877000D01*
X+4023500Y-712000D02*
X+4023500Y-812000D01*
X+4073500Y-762000D02*
X+3973500Y-762000D01*
D91*
X+3873500Y-762000D02*
X+3873500Y-762000D01*
D112*
X+3992159Y-778556D02*
X+3982846Y-786834D01*
X+3954909Y-786834D01*
X+3936284Y-770278D01*
X+3936284Y-753723D01*
X+3954909Y-737167D01*
X+3982846Y-737167D01*
X+3992159Y-745445D01*
X+4010784Y-737167D02*
X+4010784Y-762000D01*
X+4038721Y-786834D01*
X+4066659Y-762000D01*
X+4066659Y-737167D01*
X+4141159Y-770278D02*
X+4085284Y-770278D01*
X+4122534Y-737167D01*
X+4122534Y-786834D01*
X+4178409Y-753723D02*
X+4197034Y-737167D01*
X+4197034Y-786834D01*
D40*
X+3657600Y-1407160D02*
X+4343400Y-1407160D01*
X+4343400Y-878840D01*
X+3657600Y-878840D01*
X+3657600Y-1407160D01*
D11*
X+3810000Y-1143000D02*
X+3810000Y-1143000D01*
D115*
X+4127500Y-1285875D02*
X+4140200Y-1300163D01*
X+4140200Y-1343025D01*
X+4114800Y-1371600D01*
X+4089400Y-1371600D01*
X+4064000Y-1343025D01*
X+4064000Y-1300163D01*
X+4076700Y-1285875D01*
X+4064000Y-1257300D02*
X+4102100Y-1257300D01*
X+4140200Y-1214438D01*
X+4102100Y-1171575D01*
X+4064000Y-1171575D01*
X+4114800Y-1057275D02*
X+4114800Y-1143000D01*
X+4064000Y-1085850D01*
X+4140200Y-1085850D01*
X+4114800Y-942975D02*
X+4114800Y-1028700D01*
X+4064000Y-971550D01*
X+4140200Y-971550D01*
D86*
X+3504500Y-2201000D02*
X+3504500Y-2661000D01*
X+3734500Y-2661000D01*
X+3734500Y-2201000D01*
X+3504500Y-2201000D01*
X+3669500Y-2431000D02*
X+3569500Y-2431000D01*
X+3619500Y-2481000D02*
X+3619500Y-2381000D01*
D91*
X+3619500Y-2286000D02*
X+3619500Y-2286000D01*
D111*
X+3643584Y-2637284D02*
X+3595417Y-2637284D01*
X+3595417Y-2592128D01*
X+3603445Y-2583097D01*
X+3611473Y-2583097D01*
X+3619500Y-2592128D01*
X+3619500Y-2637284D01*
X+3619500Y-2592128D02*
X+3627528Y-2583097D01*
X+3643584Y-2583097D01*
X+3595417Y-2565034D02*
X+3619500Y-2565034D01*
X+3643584Y-2537941D01*
X+3619500Y-2510847D01*
X+3595417Y-2510847D01*
X+3627528Y-2438597D02*
X+3627528Y-2492784D01*
X+3595417Y-2456659D01*
X+3643584Y-2456659D01*
X+3627528Y-2366347D02*
X+3627528Y-2420534D01*
X+3595417Y-2384409D01*
X+3643584Y-2384409D01*
D86*
X+3568000Y-169000D02*
X+3568000Y-629000D01*
X+3798000Y-629000D01*
X+3798000Y-169000D01*
X+3568000Y-169000D01*
X+3733000Y-399000D02*
X+3633000Y-399000D01*
X+3683000Y-449000D02*
X+3683000Y-349000D01*
D91*
X+3683000Y-254000D02*
X+3683000Y-254000D01*
D111*
X+3707084Y-605284D02*
X+3658917Y-605284D01*
X+3658917Y-560128D01*
X+3666945Y-551097D01*
X+3674973Y-551097D01*
X+3683000Y-560128D01*
X+3683000Y-605284D01*
X+3683000Y-560128D02*
X+3691028Y-551097D01*
X+3707084Y-551097D01*
X+3658917Y-533034D02*
X+3683000Y-533034D01*
X+3707084Y-505941D01*
X+3683000Y-478847D01*
X+3658917Y-478847D01*
X+3691028Y-406597D02*
X+3691028Y-460784D01*
X+3658917Y-424659D01*
X+3707084Y-424659D01*
X+3658917Y-334347D02*
X+3658917Y-379503D01*
X+3674973Y-379503D01*
X+3674973Y-343378D01*
X+3683000Y-334347D01*
X+3699056Y-334347D01*
X+3707084Y-343378D01*
X+3707084Y-370472D01*
X+3699056Y-379503D01*
D86*
X+4248500Y-139000D02*
X+3788500Y-139000D01*
X+3788500Y-369000D01*
X+4248500Y-369000D01*
X+4248500Y-139000D01*
X+4018500Y-304000D02*
X+4018500Y-204000D01*
X+3968500Y-254000D02*
X+4068500Y-254000D01*
D91*
X+4163500Y-254000D02*
X+4163500Y-254000D01*
D111*
X+3812216Y-278084D02*
X+3812216Y-229917D01*
X+3857372Y-229917D01*
X+3866403Y-237945D01*
X+3866403Y-245973D01*
X+3857372Y-254000D01*
X+3812216Y-254000D01*
X+3857372Y-254000D02*
X+3866403Y-262028D01*
X+3866403Y-278084D01*
X+3884466Y-229917D02*
X+3884466Y-254000D01*
X+3911559Y-278084D01*
X+3938653Y-254000D01*
X+3938653Y-229917D01*
X+4010903Y-262028D02*
X+3956716Y-262028D01*
X+3992841Y-229917D01*
X+3992841Y-278084D01*
X+4083153Y-237945D02*
X+4074122Y-229917D01*
X+4047028Y-229917D01*
X+4037997Y-237945D01*
X+4037997Y-270056D01*
X+4047028Y-278084D01*
X+4074122Y-278084D01*
X+4083153Y-270056D01*
X+4083153Y-262028D01*
X+4074122Y-254000D01*
X+4037997Y-254000D01*
D86*
X+3788500Y-2782000D02*
X+4248500Y-2782000D01*
X+4248500Y-2552000D01*
X+3788500Y-2552000D01*
X+3788500Y-2782000D01*
X+4018500Y-2617000D02*
X+4018500Y-2717000D01*
X+4068500Y-2667000D02*
X+3968500Y-2667000D01*
D91*
X+3873500Y-2667000D02*
X+3873500Y-2667000D01*
D111*
X+3935784Y-2691084D02*
X+3935784Y-2642917D01*
X+3980940Y-2642917D01*
X+3989971Y-2650945D01*
X+3989971Y-2658973D01*
X+3980940Y-2667000D01*
X+3935784Y-2667000D01*
X+3980940Y-2667000D02*
X+3989971Y-2675028D01*
X+3989971Y-2691084D01*
X+4008034Y-2642917D02*
X+4008034Y-2667000D01*
X+4035127Y-2691084D01*
X+4062221Y-2667000D01*
X+4062221Y-2642917D01*
X+4134471Y-2675028D02*
X+4080284Y-2675028D01*
X+4116409Y-2642917D01*
X+4116409Y-2691084D01*
X+4161565Y-2642917D02*
X+4206721Y-2642917D01*
X+4206721Y-2650945D01*
X+4161565Y-2691084D01*
D86*
X+5131500Y-705200D02*
X+5131500Y-245200D01*
X+4901500Y-245200D01*
X+4901500Y-705200D01*
X+5131500Y-705200D01*
X+4966500Y-475200D02*
X+5066500Y-475200D01*
X+5016500Y-425200D02*
X+5016500Y-525200D01*
D91*
X+5016500Y-620200D02*
X+5016500Y-620200D01*
D111*
X+5040584Y-557916D02*
X+4992417Y-557916D01*
X+4992417Y-512760D01*
X+5000445Y-503729D01*
X+5008473Y-503729D01*
X+5016500Y-512760D01*
X+5016500Y-557916D01*
X+5016500Y-512760D02*
X+5024528Y-503729D01*
X+5040584Y-503729D01*
X+4992417Y-485666D02*
X+5016500Y-485666D01*
X+5040584Y-458573D01*
X+5016500Y-431479D01*
X+4992417Y-431479D01*
X+5000445Y-404385D02*
X+4992417Y-395354D01*
X+4992417Y-368260D01*
X+5000445Y-359229D01*
X+5008473Y-359229D01*
X+5016500Y-368260D01*
X+5024528Y-359229D01*
X+5032556Y-359229D01*
X+5040584Y-368260D01*
X+5040584Y-395354D01*
X+5032556Y-404385D01*
X+5016500Y-386323D02*
X+5016500Y-368260D01*
X+5008473Y-286979D02*
X+5016500Y-296010D01*
X+5016500Y-323104D01*
X+5008473Y-332135D01*
X+5000445Y-332135D01*
X+4992417Y-323104D01*
X+4992417Y-296010D01*
X+5000445Y-286979D01*
X+5032556Y-286979D01*
X+5040584Y-296010D01*
X+5040584Y-323104D01*
D86*
X+5639500Y-705200D02*
X+5639500Y-245200D01*
X+5409500Y-245200D01*
X+5409500Y-705200D01*
X+5639500Y-705200D01*
X+5474500Y-475200D02*
X+5574500Y-475200D01*
X+5524500Y-425200D02*
X+5524500Y-525200D01*
D91*
X+5524500Y-620200D02*
X+5524500Y-620200D01*
D111*
X+5548584Y-557916D02*
X+5500417Y-557916D01*
X+5500417Y-512760D01*
X+5508445Y-503729D01*
X+5516473Y-503729D01*
X+5524500Y-512760D01*
X+5524500Y-557916D01*
X+5524500Y-512760D02*
X+5532528Y-503729D01*
X+5548584Y-503729D01*
X+5500417Y-485666D02*
X+5524500Y-485666D01*
X+5548584Y-458573D01*
X+5524500Y-431479D01*
X+5500417Y-431479D01*
X+5532528Y-359229D02*
X+5532528Y-413416D01*
X+5500417Y-377291D01*
X+5548584Y-377291D01*
X+5540556Y-341166D02*
X+5508445Y-341166D01*
X+5500417Y-332135D01*
X+5500417Y-296010D01*
X+5508445Y-286979D01*
X+5540556Y-286979D01*
X+5548584Y-296010D01*
X+5548584Y-332135D01*
X+5540556Y-341166D01*
X+5548584Y-341166D02*
X+5500417Y-286979D01*
D86*
X+4423500Y-2274000D02*
X+4883500Y-2274000D01*
X+4883500Y-2044000D01*
X+4423500Y-2044000D01*
X+4423500Y-2274000D01*
X+4653500Y-2109000D02*
X+4653500Y-2209000D01*
X+4703500Y-2159000D02*
X+4603500Y-2159000D01*
D91*
X+4508500Y-2159000D02*
X+4508500Y-2159000D01*
D111*
X+4570784Y-2183084D02*
X+4570784Y-2134917D01*
X+4615940Y-2134917D01*
X+4624971Y-2142945D01*
X+4624971Y-2150973D01*
X+4615940Y-2159000D01*
X+4570784Y-2159000D01*
X+4615940Y-2159000D02*
X+4624971Y-2167028D01*
X+4624971Y-2183084D01*
X+4643034Y-2134917D02*
X+4643034Y-2159000D01*
X+4670127Y-2183084D01*
X+4697221Y-2159000D01*
X+4697221Y-2134917D01*
X+4769471Y-2167028D02*
X+4715284Y-2167028D01*
X+4751409Y-2134917D01*
X+4751409Y-2183084D01*
X+4805596Y-2150973D02*
X+4823659Y-2134917D01*
X+4823659Y-2183084D01*
D86*
X+4776280Y-1537400D02*
X+5246280Y-1537400D01*
X+5246280Y-1307400D01*
X+4776280Y-1307400D01*
X+4776280Y-1537400D01*
X+5011280Y-1372400D02*
X+5011280Y-1472400D01*
X+5061280Y-1422400D02*
X+4961280Y-1422400D01*
D91*
X+4861280Y-1422400D02*
X+4861280Y-1422400D01*
D112*
X+4979939Y-1438956D02*
X+4970626Y-1447234D01*
X+4942689Y-1447234D01*
X+4924064Y-1430678D01*
X+4924064Y-1414123D01*
X+4942689Y-1397567D01*
X+4970626Y-1397567D01*
X+4979939Y-1405845D01*
X+4998564Y-1397567D02*
X+4998564Y-1422400D01*
X+5026501Y-1447234D01*
X+5054439Y-1422400D01*
X+5054439Y-1397567D01*
X+5082376Y-1405845D02*
X+5091689Y-1397567D01*
X+5119626Y-1397567D01*
X+5128939Y-1405845D01*
X+5128939Y-1414123D01*
X+5119626Y-1422400D01*
X+5128939Y-1430678D01*
X+5128939Y-1438956D01*
X+5119626Y-1447234D01*
X+5091689Y-1447234D01*
X+5082376Y-1438956D01*
X+5101001Y-1422400D02*
X+5119626Y-1422400D01*
X+5203439Y-1397567D02*
X+5156876Y-1397567D01*
X+5156876Y-1414123D01*
X+5194126Y-1414123D01*
X+5203439Y-1422400D01*
X+5203439Y-1438956D01*
X+5194126Y-1447234D01*
X+5166189Y-1447234D01*
X+5156876Y-1438956D01*
D86*
X+5155500Y-245200D02*
X+5155500Y-715200D01*
X+5385500Y-715200D01*
X+5385500Y-245200D01*
X+5155500Y-245200D01*
X+5320500Y-480200D02*
X+5220500Y-480200D01*
X+5270500Y-530200D02*
X+5270500Y-430200D01*
D91*
X+5270500Y-330200D02*
X+5270500Y-330200D01*
D112*
X+5287056Y-635109D02*
X+5295334Y-644422D01*
X+5295334Y-672359D01*
X+5278778Y-690984D01*
X+5262223Y-690984D01*
X+5245667Y-672359D01*
X+5245667Y-644422D01*
X+5253945Y-635109D01*
X+5245667Y-616484D02*
X+5270500Y-616484D01*
X+5295334Y-588547D01*
X+5270500Y-560609D01*
X+5245667Y-560609D01*
X+5253945Y-532672D02*
X+5245667Y-523359D01*
X+5245667Y-495422D01*
X+5253945Y-486109D01*
X+5262223Y-486109D01*
X+5270500Y-495422D01*
X+5278778Y-486109D01*
X+5287056Y-486109D01*
X+5295334Y-495422D01*
X+5295334Y-523359D01*
X+5287056Y-532672D01*
X+5270500Y-514047D02*
X+5270500Y-495422D01*
X+5245667Y-458172D02*
X+5245667Y-411609D01*
X+5253945Y-411609D01*
X+5295334Y-458172D01*
D86*
X+4415600Y-419800D02*
X+4885600Y-419800D01*
X+4885600Y-189800D01*
X+4415600Y-189800D01*
X+4415600Y-419800D01*
X+4650600Y-254800D02*
X+4650600Y-354800D01*
X+4700600Y-304800D02*
X+4600600Y-304800D01*
D91*
X+4500600Y-304800D02*
X+4500600Y-304800D01*
D112*
X+4619259Y-321356D02*
X+4609946Y-329634D01*
X+4582009Y-329634D01*
X+4563384Y-313078D01*
X+4563384Y-296523D01*
X+4582009Y-279967D01*
X+4609946Y-279967D01*
X+4619259Y-288245D01*
X+4637884Y-279967D02*
X+4637884Y-304800D01*
X+4665821Y-329634D01*
X+4693759Y-304800D01*
X+4693759Y-279967D01*
X+4768259Y-313078D02*
X+4712384Y-313078D01*
X+4749634Y-279967D01*
X+4749634Y-329634D01*
X+4796196Y-288245D02*
X+4805509Y-279967D01*
X+4833446Y-279967D01*
X+4842759Y-288245D01*
X+4842759Y-296523D01*
X+4833446Y-304800D01*
X+4805509Y-304800D01*
X+4796196Y-313078D01*
X+4796196Y-329634D01*
X+4842759Y-329634D01*
D86*
X+4895500Y-2274000D02*
X+5355500Y-2274000D01*
X+5355500Y-2044000D01*
X+4895500Y-2044000D01*
X+4895500Y-2274000D01*
X+5125500Y-2109000D02*
X+5125500Y-2209000D01*
X+5175500Y-2159000D02*
X+5075500Y-2159000D01*
D91*
X+4980500Y-2159000D02*
X+4980500Y-2159000D01*
D111*
X+5042784Y-2183084D02*
X+5042784Y-2134917D01*
X+5087940Y-2134917D01*
X+5096971Y-2142945D01*
X+5096971Y-2150973D01*
X+5087940Y-2159000D01*
X+5042784Y-2159000D01*
X+5087940Y-2159000D02*
X+5096971Y-2167028D01*
X+5096971Y-2183084D01*
X+5115034Y-2134917D02*
X+5115034Y-2159000D01*
X+5142127Y-2183084D01*
X+5169221Y-2159000D01*
X+5169221Y-2134917D01*
X+5196315Y-2142945D02*
X+5205346Y-2134917D01*
X+5232440Y-2134917D01*
X+5241471Y-2142945D01*
X+5241471Y-2150973D01*
X+5232440Y-2159000D01*
X+5241471Y-2167028D01*
X+5241471Y-2175056D01*
X+5232440Y-2183084D01*
X+5205346Y-2183084D01*
X+5196315Y-2175056D01*
X+5214377Y-2159000D02*
X+5232440Y-2159000D01*
X+5268565Y-2134917D02*
X+5313721Y-2134917D01*
X+5313721Y-2142945D01*
X+5268565Y-2183084D01*
D86*
X+4895500Y-1766000D02*
X+5355500Y-1766000D01*
X+5355500Y-1536000D01*
X+4895500Y-1536000D01*
X+4895500Y-1766000D01*
X+5125500Y-1601000D02*
X+5125500Y-1701000D01*
X+5175500Y-1651000D02*
X+5075500Y-1651000D01*
D91*
X+4980500Y-1651000D02*
X+4980500Y-1651000D01*
D111*
X+5042784Y-1675084D02*
X+5042784Y-1626917D01*
X+5087940Y-1626917D01*
X+5096971Y-1634945D01*
X+5096971Y-1642973D01*
X+5087940Y-1651000D01*
X+5042784Y-1651000D01*
X+5087940Y-1651000D02*
X+5096971Y-1659028D01*
X+5096971Y-1675084D01*
X+5115034Y-1626917D02*
X+5115034Y-1651000D01*
X+5142127Y-1675084D01*
X+5169221Y-1651000D01*
X+5169221Y-1626917D01*
X+5196315Y-1634945D02*
X+5205346Y-1626917D01*
X+5232440Y-1626917D01*
X+5241471Y-1634945D01*
X+5241471Y-1642973D01*
X+5232440Y-1651000D01*
X+5241471Y-1659028D01*
X+5241471Y-1667056D01*
X+5232440Y-1675084D01*
X+5205346Y-1675084D01*
X+5196315Y-1667056D01*
X+5214377Y-1651000D02*
X+5232440Y-1651000D01*
X+5277596Y-1651000D02*
X+5268565Y-1642973D01*
X+5268565Y-1634945D01*
X+5277596Y-1626917D01*
X+5304690Y-1626917D01*
X+5313721Y-1634945D01*
X+5313721Y-1642973D01*
X+5304690Y-1651000D01*
X+5277596Y-1651000D01*
X+5268565Y-1659028D01*
X+5268565Y-1667056D01*
X+5277596Y-1675084D01*
X+5304690Y-1675084D01*
X+5313721Y-1667056D01*
X+5313721Y-1659028D01*
X+5304690Y-1651000D01*
D86*
X+7308500Y-2274000D02*
X+7768500Y-2274000D01*
X+7768500Y-2044000D01*
X+7308500Y-2044000D01*
X+7308500Y-2274000D01*
X+7538500Y-2109000D02*
X+7538500Y-2209000D01*
X+7588500Y-2159000D02*
X+7488500Y-2159000D01*
D91*
X+7393500Y-2159000D02*
X+7393500Y-2159000D01*
D111*
X+7455784Y-2183084D02*
X+7455784Y-2134917D01*
X+7500940Y-2134917D01*
X+7509971Y-2142945D01*
X+7509971Y-2150973D01*
X+7500940Y-2159000D01*
X+7455784Y-2159000D01*
X+7500940Y-2159000D02*
X+7509971Y-2167028D01*
X+7509971Y-2183084D01*
X+7528034Y-2134917D02*
X+7528034Y-2159000D01*
X+7555127Y-2183084D01*
X+7582221Y-2159000D01*
X+7582221Y-2134917D01*
X+7654471Y-2167028D02*
X+7600284Y-2167028D01*
X+7636409Y-2134917D01*
X+7636409Y-2183084D01*
X+7726721Y-2150973D02*
X+7717690Y-2159000D01*
X+7690596Y-2159000D01*
X+7681565Y-2150973D01*
X+7681565Y-2142945D01*
X+7690596Y-2134917D01*
X+7717690Y-2134917D01*
X+7726721Y-2142945D01*
X+7726721Y-2175056D01*
X+7717690Y-2183084D01*
X+7690596Y-2183084D01*
D86*
X+4423500Y-2020000D02*
X+4893500Y-2020000D01*
X+4893500Y-1790000D01*
X+4423500Y-1790000D01*
X+4423500Y-2020000D01*
X+4658500Y-1855000D02*
X+4658500Y-1955000D01*
X+4708500Y-1905000D02*
X+4608500Y-1905000D01*
D91*
X+4508500Y-1905000D02*
X+4508500Y-1905000D01*
D112*
X+4627159Y-1921556D02*
X+4617846Y-1929834D01*
X+4589909Y-1929834D01*
X+4571284Y-1913278D01*
X+4571284Y-1896723D01*
X+4589909Y-1880167D01*
X+4617846Y-1880167D01*
X+4627159Y-1888445D01*
X+4645784Y-1880167D02*
X+4645784Y-1905000D01*
X+4673721Y-1929834D01*
X+4701659Y-1905000D01*
X+4701659Y-1880167D01*
X+4729596Y-1888445D02*
X+4738909Y-1880167D01*
X+4766846Y-1880167D01*
X+4776159Y-1888445D01*
X+4776159Y-1896723D01*
X+4766846Y-1905000D01*
X+4776159Y-1913278D01*
X+4776159Y-1921556D01*
X+4766846Y-1929834D01*
X+4738909Y-1929834D01*
X+4729596Y-1921556D01*
X+4748221Y-1905000D02*
X+4766846Y-1905000D01*
X+4850659Y-1913278D02*
X+4794784Y-1913278D01*
X+4832034Y-1880167D01*
X+4832034Y-1929834D01*
D86*
X+4885500Y-2020000D02*
X+5355500Y-2020000D01*
X+5355500Y-1790000D01*
X+4885500Y-1790000D01*
X+4885500Y-2020000D01*
X+5120500Y-1855000D02*
X+5120500Y-1955000D01*
X+5170500Y-1905000D02*
X+5070500Y-1905000D01*
D91*
X+4970500Y-1905000D02*
X+4970500Y-1905000D01*
D112*
X+5089159Y-1921556D02*
X+5079846Y-1929834D01*
X+5051909Y-1929834D01*
X+5033284Y-1913278D01*
X+5033284Y-1896723D01*
X+5051909Y-1880167D01*
X+5079846Y-1880167D01*
X+5089159Y-1888445D01*
X+5107784Y-1880167D02*
X+5107784Y-1905000D01*
X+5135721Y-1929834D01*
X+5163659Y-1905000D01*
X+5163659Y-1880167D01*
X+5191596Y-1888445D02*
X+5200909Y-1880167D01*
X+5228846Y-1880167D01*
X+5238159Y-1888445D01*
X+5238159Y-1896723D01*
X+5228846Y-1905000D01*
X+5238159Y-1913278D01*
X+5238159Y-1921556D01*
X+5228846Y-1929834D01*
X+5200909Y-1929834D01*
X+5191596Y-1921556D01*
X+5210221Y-1905000D02*
X+5228846Y-1905000D01*
X+5312659Y-1888445D02*
X+5303346Y-1880167D01*
X+5275409Y-1880167D01*
X+5266096Y-1888445D01*
X+5266096Y-1921556D01*
X+5275409Y-1929834D01*
X+5303346Y-1929834D01*
X+5312659Y-1921556D01*
X+5312659Y-1913278D01*
X+5303346Y-1905000D01*
X+5266096Y-1905000D01*
D86*
X+4423500Y-1766000D02*
X+4893500Y-1766000D01*
X+4893500Y-1536000D01*
X+4423500Y-1536000D01*
X+4423500Y-1766000D01*
X+4658500Y-1601000D02*
X+4658500Y-1701000D01*
X+4708500Y-1651000D02*
X+4608500Y-1651000D01*
D91*
X+4508500Y-1651000D02*
X+4508500Y-1651000D01*
D112*
X+4627159Y-1667556D02*
X+4617846Y-1675834D01*
X+4589909Y-1675834D01*
X+4571284Y-1659278D01*
X+4571284Y-1642723D01*
X+4589909Y-1626167D01*
X+4617846Y-1626167D01*
X+4627159Y-1634445D01*
X+4645784Y-1626167D02*
X+4645784Y-1651000D01*
X+4673721Y-1675834D01*
X+4701659Y-1651000D01*
X+4701659Y-1626167D01*
X+4729596Y-1634445D02*
X+4738909Y-1626167D01*
X+4766846Y-1626167D01*
X+4776159Y-1634445D01*
X+4776159Y-1642723D01*
X+4766846Y-1651000D01*
X+4776159Y-1659278D01*
X+4776159Y-1667556D01*
X+4766846Y-1675834D01*
X+4738909Y-1675834D01*
X+4729596Y-1667556D01*
X+4748221Y-1651000D02*
X+4766846Y-1651000D01*
X+4813409Y-1651000D02*
X+4804096Y-1642723D01*
X+4804096Y-1634445D01*
X+4813409Y-1626167D01*
X+4841346Y-1626167D01*
X+4850659Y-1634445D01*
X+4850659Y-1642723D01*
X+4841346Y-1651000D01*
X+4813409Y-1651000D01*
X+4804096Y-1659278D01*
X+4804096Y-1667556D01*
X+4813409Y-1675834D01*
X+4841346Y-1675834D01*
X+4850659Y-1667556D01*
X+4850659Y-1659278D01*
X+4841346Y-1651000D01*
D40*
X+7482840Y+754600D02*
X+8138160Y+754600D01*
X+8138160Y+1503900D01*
X+7482840Y+1503900D01*
X+7482840Y+754600D01*
D95*
X+7810500Y+907000D02*
X+7810500Y+907000D01*
D113*
X+7632621Y+1204307D02*
X+7614833Y+1188496D01*
X+7561469Y+1188496D01*
X+7525894Y+1220119D01*
X+7525894Y+1251742D01*
X+7561469Y+1283365D01*
X+7614833Y+1283365D01*
X+7632621Y+1267553D01*
X+7668197Y+1283365D02*
X+7668197Y+1235930D01*
X+7721560Y+1188496D01*
X+7774924Y+1235930D01*
X+7774924Y+1283365D01*
X+7917227Y+1283365D02*
X+7828287Y+1283365D01*
X+7828287Y+1251742D01*
X+7899439Y+1251742D01*
X+7917227Y+1235930D01*
X+7917227Y+1204307D01*
X+7899439Y+1188496D01*
X+7846075Y+1188496D01*
X+7828287Y+1204307D01*
X+8059530Y+1220119D02*
X+7952803Y+1220119D01*
X+8023954Y+1283365D01*
X+8023954Y+1188496D01*
D86*
X+7263500Y+817000D02*
X+7263500Y+1527000D01*
X+6833500Y+1527000D01*
X+6833500Y+817000D01*
X+7263500Y+817000D01*
X+6998500Y+1172000D02*
X+7098500Y+1172000D01*
X+7048500Y+1222000D02*
X+7048500Y+1122000D01*
D93*
X+7048500Y+947000D02*
X+7048500Y+947000D01*
D94*
X+7100502Y+1025326D02*
X+6996499Y+1025326D01*
X+6996499Y+1103328D01*
X+7031167Y+1142329D01*
X+7065834Y+1142329D01*
X+7100502Y+1103328D01*
X+7100502Y+1025326D01*
X+6996499Y+1181330D02*
X+7048500Y+1181330D01*
X+7100502Y+1239831D01*
X+7048500Y+1298333D01*
X+6996499Y+1298333D01*
X+7031167Y+1454337D02*
X+7048500Y+1434836D01*
X+7048500Y+1376335D01*
X+7031167Y+1356834D01*
X+7013833Y+1356834D01*
X+6996499Y+1376335D01*
X+6996499Y+1434836D01*
X+7013833Y+1454337D01*
X+7083168Y+1454337D01*
X+7100502Y+1434836D01*
X+7100502Y+1376335D01*
D40*
X+5957420Y-2000250D02*
X+6107580Y-2000250D01*
X+6107580Y-1701800D01*
X+5957420Y-1701800D01*
X+5957420Y-2000250D01*
D105*
X+6032500Y-1733550D02*
X+6032500Y-1733550D01*
D117*
X+6049645Y-1978660D02*
X+6015355Y-1978660D01*
X+6015355Y-1952943D01*
X+6026785Y-1940084D01*
X+6038215Y-1940084D01*
X+6049645Y-1952943D01*
X+6049645Y-1978660D01*
X+6015355Y-1927225D02*
X+6032500Y-1927225D01*
X+6049645Y-1907937D01*
X+6032500Y-1888649D01*
X+6015355Y-1888649D01*
X+6026785Y-1862932D02*
X+6015355Y-1850073D01*
X+6049645Y-1850073D01*
X+6043930Y-1824355D02*
X+6021070Y-1824355D01*
X+6015355Y-1817926D01*
X+6015355Y-1792209D01*
X+6021070Y-1785779D01*
X+6043930Y-1785779D01*
X+6049645Y-1792209D01*
X+6049645Y-1817926D01*
X+6043930Y-1824355D01*
X+6049645Y-1824355D02*
X+6015355Y-1785779D01*
D86*
X+7514500Y+480500D02*
X+6744500Y+480500D01*
X+6744500Y-99500D01*
X+7514500Y-99500D01*
X+7514500Y+480500D01*
X+7129500Y+140500D02*
X+7129500Y+240500D01*
X+7079500Y+190500D02*
X+7179500Y+190500D01*
D87*
X+7429500Y+190500D02*
X+7429500Y+190500D01*
D88*
X+6793036Y+249579D02*
X+6793036Y+131421D01*
X+6925963Y+131421D01*
X+6970272Y+249579D02*
X+6970272Y+190500D01*
X+7036735Y+131421D01*
X+7103199Y+190500D01*
X+7103199Y+249579D01*
X+7280435Y+249579D02*
X+7169662Y+249579D01*
X+7169662Y+210193D01*
X+7258280Y+210193D01*
X+7280435Y+190500D01*
X+7280435Y+151114D01*
X+7258280Y+131421D01*
X+7191817Y+131421D01*
X+7169662Y+151114D01*
D86*
X+6773000Y-2020000D02*
X+7243000Y-2020000D01*
X+7243000Y-1790000D01*
X+6773000Y-1790000D01*
X+6773000Y-2020000D01*
X+7008000Y-1855000D02*
X+7008000Y-1955000D01*
X+7058000Y-1905000D02*
X+6958000Y-1905000D01*
D91*
X+6858000Y-1905000D02*
X+6858000Y-1905000D01*
D112*
X+6976659Y-1921556D02*
X+6967346Y-1929834D01*
X+6939409Y-1929834D01*
X+6920784Y-1913278D01*
X+6920784Y-1896723D01*
X+6939409Y-1880167D01*
X+6967346Y-1880167D01*
X+6976659Y-1888445D01*
X+6995284Y-1880167D02*
X+6995284Y-1905000D01*
X+7023221Y-1929834D01*
X+7051159Y-1905000D01*
X+7051159Y-1880167D01*
X+7125659Y-1913278D02*
X+7069784Y-1913278D01*
X+7107034Y-1880167D01*
X+7107034Y-1929834D01*
X+7200159Y-1880167D02*
X+7153596Y-1880167D01*
X+7153596Y-1896723D01*
X+7190846Y-1896723D01*
X+7200159Y-1905000D01*
X+7200159Y-1921556D01*
X+7190846Y-1929834D01*
X+7162909Y-1929834D01*
X+7153596Y-1921556D01*
D86*
X+6138000Y-877000D02*
X+6608000Y-877000D01*
X+6608000Y-647000D01*
X+6138000Y-647000D01*
X+6138000Y-877000D01*
X+6373000Y-712000D02*
X+6373000Y-812000D01*
X+6423000Y-762000D02*
X+6323000Y-762000D01*
D91*
X+6223000Y-762000D02*
X+6223000Y-762000D01*
D112*
X+6341659Y-778556D02*
X+6332346Y-786834D01*
X+6304409Y-786834D01*
X+6285784Y-770278D01*
X+6285784Y-753723D01*
X+6304409Y-737167D01*
X+6332346Y-737167D01*
X+6341659Y-745445D01*
X+6360284Y-737167D02*
X+6360284Y-762000D01*
X+6388221Y-786834D01*
X+6416159Y-762000D01*
X+6416159Y-737167D01*
X+6490659Y-737167D02*
X+6444096Y-737167D01*
X+6444096Y-753723D01*
X+6481346Y-753723D01*
X+6490659Y-762000D01*
X+6490659Y-778556D01*
X+6481346Y-786834D01*
X+6453409Y-786834D01*
X+6444096Y-778556D01*
X+6518596Y-745445D02*
X+6527909Y-737167D01*
X+6555846Y-737167D01*
X+6565159Y-745445D01*
X+6565159Y-753723D01*
X+6555846Y-762000D01*
X+6527909Y-762000D01*
X+6518596Y-770278D01*
X+6518596Y-786834D01*
X+6565159Y-786834D01*
D40*
X+6007100Y-1399540D02*
X+6692900Y-1399540D01*
X+6692900Y-871220D01*
X+6007100Y-871220D01*
X+6007100Y-1399540D01*
D11*
X+6159500Y-1135380D02*
X+6159500Y-1135380D01*
D115*
X+6477000Y-1278255D02*
X+6489700Y-1292543D01*
X+6489700Y-1335405D01*
X+6464300Y-1363980D01*
X+6438900Y-1363980D01*
X+6413500Y-1335405D01*
X+6413500Y-1292543D01*
X+6426200Y-1278255D01*
X+6413500Y-1249680D02*
X+6451600Y-1249680D01*
X+6489700Y-1206818D01*
X+6451600Y-1163955D01*
X+6413500Y-1163955D01*
X+6413500Y-1049655D02*
X+6413500Y-1121093D01*
X+6438900Y-1121093D01*
X+6438900Y-1063943D01*
X+6451600Y-1049655D01*
X+6477000Y-1049655D01*
X+6489700Y-1063943D01*
X+6489700Y-1106805D01*
X+6477000Y-1121093D01*
X+6413500Y-935355D02*
X+6413500Y-1006793D01*
X+6438900Y-1006793D01*
X+6438900Y-949643D01*
X+6451600Y-935355D01*
X+6477000Y-935355D01*
X+6489700Y-949643D01*
X+6489700Y-992505D01*
X+6477000Y-1006793D01*
D86*
X+5854000Y-169000D02*
X+5854000Y-629000D01*
X+6084000Y-629000D01*
X+6084000Y-169000D01*
X+5854000Y-169000D01*
X+6019000Y-399000D02*
X+5919000Y-399000D01*
X+5969000Y-449000D02*
X+5969000Y-349000D01*
D91*
X+5969000Y-254000D02*
X+5969000Y-254000D01*
D111*
X+5993084Y-605284D02*
X+5944917Y-605284D01*
X+5944917Y-560128D01*
X+5952945Y-551097D01*
X+5960973Y-551097D01*
X+5969000Y-560128D01*
X+5969000Y-605284D01*
X+5969000Y-560128D02*
X+5977028Y-551097D01*
X+5993084Y-551097D01*
X+5944917Y-533034D02*
X+5969000Y-533034D01*
X+5993084Y-505941D01*
X+5969000Y-478847D01*
X+5944917Y-478847D01*
X+5944917Y-406597D02*
X+5944917Y-451753D01*
X+5960973Y-451753D01*
X+5960973Y-415628D01*
X+5969000Y-406597D01*
X+5985056Y-406597D01*
X+5993084Y-415628D01*
X+5993084Y-442722D01*
X+5985056Y-451753D01*
X+5944917Y-379503D02*
X+5944917Y-334347D01*
X+5952945Y-334347D01*
X+5993084Y-379503D01*
D86*
X+6562000Y-139000D02*
X+6102000Y-139000D01*
X+6102000Y-369000D01*
X+6562000Y-369000D01*
X+6562000Y-139000D01*
X+6332000Y-304000D02*
X+6332000Y-204000D01*
X+6282000Y-254000D02*
X+6382000Y-254000D01*
D91*
X+6477000Y-254000D02*
X+6477000Y-254000D01*
D111*
X+6125716Y-278084D02*
X+6125716Y-229917D01*
X+6170872Y-229917D01*
X+6179903Y-237945D01*
X+6179903Y-245973D01*
X+6170872Y-254000D01*
X+6125716Y-254000D01*
X+6170872Y-254000D02*
X+6179903Y-262028D01*
X+6179903Y-278084D01*
X+6197966Y-229917D02*
X+6197966Y-254000D01*
X+6225059Y-278084D01*
X+6252153Y-254000D01*
X+6252153Y-229917D01*
X+6324403Y-229917D02*
X+6279247Y-229917D01*
X+6279247Y-245973D01*
X+6315372Y-245973D01*
X+6324403Y-254000D01*
X+6324403Y-270056D01*
X+6315372Y-278084D01*
X+6288278Y-278084D01*
X+6279247Y-270056D01*
X+6360528Y-254000D02*
X+6351497Y-245973D01*
X+6351497Y-237945D01*
X+6360528Y-229917D01*
X+6387622Y-229917D01*
X+6396653Y-237945D01*
X+6396653Y-245973D01*
X+6387622Y-254000D01*
X+6360528Y-254000D01*
X+6351497Y-262028D01*
X+6351497Y-270056D01*
X+6360528Y-278084D01*
X+6387622Y-278084D01*
X+6396653Y-270056D01*
X+6396653Y-262028D01*
X+6387622Y-254000D01*
D86*
X+5663500Y-2201000D02*
X+5663500Y-2661000D01*
X+5893500Y-2661000D01*
X+5893500Y-2201000D01*
X+5663500Y-2201000D01*
X+5828500Y-2431000D02*
X+5728500Y-2431000D01*
X+5778500Y-2481000D02*
X+5778500Y-2381000D01*
D91*
X+5778500Y-2286000D02*
X+5778500Y-2286000D01*
D111*
X+5802584Y-2637284D02*
X+5754417Y-2637284D01*
X+5754417Y-2592128D01*
X+5762445Y-2583097D01*
X+5770473Y-2583097D01*
X+5778500Y-2592128D01*
X+5778500Y-2637284D01*
X+5778500Y-2592128D02*
X+5786528Y-2583097D01*
X+5802584Y-2583097D01*
X+5754417Y-2565034D02*
X+5778500Y-2565034D01*
X+5802584Y-2537941D01*
X+5778500Y-2510847D01*
X+5754417Y-2510847D01*
X+5754417Y-2438597D02*
X+5754417Y-2483753D01*
X+5770473Y-2483753D01*
X+5770473Y-2447628D01*
X+5778500Y-2438597D01*
X+5794556Y-2438597D01*
X+5802584Y-2447628D01*
X+5802584Y-2474722D01*
X+5794556Y-2483753D01*
X+5762445Y-2366347D02*
X+5754417Y-2375378D01*
X+5754417Y-2402472D01*
X+5762445Y-2411503D01*
X+5794556Y-2411503D01*
X+5802584Y-2402472D01*
X+5802584Y-2375378D01*
X+5794556Y-2366347D01*
X+5786528Y-2366347D01*
X+5778500Y-2375378D01*
X+5778500Y-2411503D01*
D86*
X+6138000Y-2782000D02*
X+6598000Y-2782000D01*
X+6598000Y-2552000D01*
X+6138000Y-2552000D01*
X+6138000Y-2782000D01*
X+6368000Y-2617000D02*
X+6368000Y-2717000D01*
X+6418000Y-2667000D02*
X+6318000Y-2667000D01*
D91*
X+6223000Y-2667000D02*
X+6223000Y-2667000D01*
D111*
X+6285284Y-2691084D02*
X+6285284Y-2642917D01*
X+6330440Y-2642917D01*
X+6339471Y-2650945D01*
X+6339471Y-2658973D01*
X+6330440Y-2667000D01*
X+6285284Y-2667000D01*
X+6330440Y-2667000D02*
X+6339471Y-2675028D01*
X+6339471Y-2691084D01*
X+6357534Y-2642917D02*
X+6357534Y-2667000D01*
X+6384627Y-2691084D01*
X+6411721Y-2667000D01*
X+6411721Y-2642917D01*
X+6483971Y-2642917D02*
X+6438815Y-2642917D01*
X+6438815Y-2658973D01*
X+6474940Y-2658973D01*
X+6483971Y-2667000D01*
X+6483971Y-2683056D01*
X+6474940Y-2691084D01*
X+6447846Y-2691084D01*
X+6438815Y-2683056D01*
X+6556221Y-2658973D02*
X+6547190Y-2667000D01*
X+6520096Y-2667000D01*
X+6511065Y-2658973D01*
X+6511065Y-2650945D01*
X+6520096Y-2642917D01*
X+6547190Y-2642917D01*
X+6556221Y-2650945D01*
X+6556221Y-2683056D01*
X+6547190Y-2691084D01*
X+6520096Y-2691084D01*
D86*
X+6138000Y-2528000D02*
X+6608000Y-2528000D01*
X+6608000Y-2298000D01*
X+6138000Y-2298000D01*
X+6138000Y-2528000D01*
X+6373000Y-2363000D02*
X+6373000Y-2463000D01*
X+6423000Y-2413000D02*
X+6323000Y-2413000D01*
D91*
X+6223000Y-2413000D02*
X+6223000Y-2413000D01*
D112*
X+6341659Y-2429556D02*
X+6332346Y-2437834D01*
X+6304409Y-2437834D01*
X+6285784Y-2421278D01*
X+6285784Y-2404723D01*
X+6304409Y-2388167D01*
X+6332346Y-2388167D01*
X+6341659Y-2396445D01*
X+6360284Y-2388167D02*
X+6360284Y-2413000D01*
X+6388221Y-2437834D01*
X+6416159Y-2413000D01*
X+6416159Y-2388167D01*
X+6490659Y-2388167D02*
X+6444096Y-2388167D01*
X+6444096Y-2404723D01*
X+6481346Y-2404723D01*
X+6490659Y-2413000D01*
X+6490659Y-2429556D01*
X+6481346Y-2437834D01*
X+6453409Y-2437834D01*
X+6444096Y-2429556D01*
X+6527909Y-2404723D02*
X+6546534Y-2388167D01*
X+6546534Y-2437834D01*
D86*
X+7154000Y-1537400D02*
X+7624000Y-1537400D01*
X+7624000Y-1307400D01*
X+7154000Y-1307400D01*
X+7154000Y-1537400D01*
X+7389000Y-1372400D02*
X+7389000Y-1472400D01*
X+7439000Y-1422400D02*
X+7339000Y-1422400D01*
D91*
X+7239000Y-1422400D02*
X+7239000Y-1422400D01*
D112*
X+7357659Y-1438956D02*
X+7348346Y-1447234D01*
X+7320409Y-1447234D01*
X+7301784Y-1430678D01*
X+7301784Y-1414123D01*
X+7320409Y-1397567D01*
X+7348346Y-1397567D01*
X+7357659Y-1405845D01*
X+7376284Y-1397567D02*
X+7376284Y-1422400D01*
X+7404221Y-1447234D01*
X+7432159Y-1422400D01*
X+7432159Y-1397567D01*
X+7506659Y-1430678D02*
X+7450784Y-1430678D01*
X+7488034Y-1397567D01*
X+7488034Y-1447234D01*
X+7581159Y-1405845D02*
X+7571846Y-1397567D01*
X+7543909Y-1397567D01*
X+7534596Y-1405845D01*
X+7534596Y-1438956D01*
X+7543909Y-1447234D01*
X+7571846Y-1447234D01*
X+7581159Y-1438956D01*
X+7581159Y-1430678D01*
X+7571846Y-1422400D01*
X+7534596Y-1422400D01*
D86*
X+7298500Y-1766000D02*
X+7768500Y-1766000D01*
X+7768500Y-1536000D01*
X+7298500Y-1536000D01*
X+7298500Y-1766000D01*
X+7533500Y-1601000D02*
X+7533500Y-1701000D01*
X+7583500Y-1651000D02*
X+7483500Y-1651000D01*
D91*
X+7383500Y-1651000D02*
X+7383500Y-1651000D01*
D112*
X+7502159Y-1667556D02*
X+7492846Y-1675834D01*
X+7464909Y-1675834D01*
X+7446284Y-1659278D01*
X+7446284Y-1642723D01*
X+7464909Y-1626167D01*
X+7492846Y-1626167D01*
X+7502159Y-1634445D01*
X+7520784Y-1626167D02*
X+7520784Y-1651000D01*
X+7548721Y-1675834D01*
X+7576659Y-1651000D01*
X+7576659Y-1626167D01*
X+7651159Y-1659278D02*
X+7595284Y-1659278D01*
X+7632534Y-1626167D01*
X+7632534Y-1675834D01*
X+7679096Y-1626167D02*
X+7725659Y-1626167D01*
X+7725659Y-1634445D01*
X+7679096Y-1675834D01*
D86*
X+7543100Y-237300D02*
X+7543100Y-707300D01*
X+7773100Y-707300D01*
X+7773100Y-237300D01*
X+7543100Y-237300D01*
X+7708100Y-472300D02*
X+7608100Y-472300D01*
X+7658100Y-522300D02*
X+7658100Y-422300D01*
D91*
X+7658100Y-322300D02*
X+7658100Y-322300D01*
D112*
X+7674656Y-627209D02*
X+7682934Y-636522D01*
X+7682934Y-664459D01*
X+7666378Y-683084D01*
X+7649823Y-683084D01*
X+7633267Y-664459D01*
X+7633267Y-636522D01*
X+7641545Y-627209D01*
X+7633267Y-608584D02*
X+7658100Y-608584D01*
X+7682934Y-580647D01*
X+7658100Y-552709D01*
X+7633267Y-552709D01*
X+7666378Y-478209D02*
X+7666378Y-534084D01*
X+7633267Y-496834D01*
X+7682934Y-496834D01*
X+7658100Y-440959D02*
X+7649823Y-450272D01*
X+7641545Y-450272D01*
X+7633267Y-440959D01*
X+7633267Y-413022D01*
X+7641545Y-403709D01*
X+7649823Y-403709D01*
X+7658100Y-413022D01*
X+7658100Y-440959D01*
X+7666378Y-450272D01*
X+7674656Y-450272D01*
X+7682934Y-440959D01*
X+7682934Y-413022D01*
X+7674656Y-403709D01*
X+7666378Y-403709D01*
X+7658100Y-413022D01*
D86*
X+6790500Y-1766000D02*
X+7260500Y-1766000D01*
X+7260500Y-1536000D01*
X+6790500Y-1536000D01*
X+6790500Y-1766000D01*
X+7025500Y-1601000D02*
X+7025500Y-1701000D01*
X+7075500Y-1651000D02*
X+6975500Y-1651000D01*
D91*
X+6875500Y-1651000D02*
X+6875500Y-1651000D01*
D112*
X+6994159Y-1667556D02*
X+6984846Y-1675834D01*
X+6956909Y-1675834D01*
X+6938284Y-1659278D01*
X+6938284Y-1642723D01*
X+6956909Y-1626167D01*
X+6984846Y-1626167D01*
X+6994159Y-1634445D01*
X+7012784Y-1626167D02*
X+7012784Y-1651000D01*
X+7040721Y-1675834D01*
X+7068659Y-1651000D01*
X+7068659Y-1626167D01*
X+7143159Y-1659278D02*
X+7087284Y-1659278D01*
X+7124534Y-1626167D01*
X+7124534Y-1675834D01*
X+7217659Y-1642723D02*
X+7208346Y-1651000D01*
X+7180409Y-1651000D01*
X+7171096Y-1642723D01*
X+7171096Y-1634445D01*
X+7180409Y-1626167D01*
X+7208346Y-1626167D01*
X+7217659Y-1634445D01*
X+7217659Y-1667556D01*
X+7208346Y-1675834D01*
X+7180409Y-1675834D01*
D86*
X+6811100Y-394400D02*
X+7281100Y-394400D01*
X+7281100Y-164400D01*
X+6811100Y-164400D01*
X+6811100Y-394400D01*
X+7046100Y-229400D02*
X+7046100Y-329400D01*
X+7096100Y-279400D02*
X+6996100Y-279400D01*
D91*
X+6896100Y-279400D02*
X+6896100Y-279400D01*
D112*
X+7014759Y-295956D02*
X+7005446Y-304234D01*
X+6977509Y-304234D01*
X+6958884Y-287678D01*
X+6958884Y-271123D01*
X+6977509Y-254567D01*
X+7005446Y-254567D01*
X+7014759Y-262845D01*
X+7033384Y-254567D02*
X+7033384Y-279400D01*
X+7061321Y-304234D01*
X+7089259Y-279400D01*
X+7089259Y-254567D01*
X+7163759Y-254567D02*
X+7117196Y-254567D01*
X+7117196Y-271123D01*
X+7154446Y-271123D01*
X+7163759Y-279400D01*
X+7163759Y-295956D01*
X+7154446Y-304234D01*
X+7126509Y-304234D01*
X+7117196Y-295956D01*
X+7191696Y-262845D02*
X+7201009Y-254567D01*
X+7228946Y-254567D01*
X+7238259Y-262845D01*
X+7238259Y-271123D01*
X+7228946Y-279400D01*
X+7238259Y-287678D01*
X+7238259Y-295956D01*
X+7228946Y-304234D01*
X+7201009Y-304234D01*
X+7191696Y-295956D01*
X+7210321Y-279400D02*
X+7228946Y-279400D01*
D86*
X+7308500Y-2020000D02*
X+7768500Y-2020000D01*
X+7768500Y-1790000D01*
X+7308500Y-1790000D01*
X+7308500Y-2020000D01*
X+7538500Y-1855000D02*
X+7538500Y-1955000D01*
X+7588500Y-1905000D02*
X+7488500Y-1905000D01*
D91*
X+7393500Y-1905000D02*
X+7393500Y-1905000D01*
D111*
X+7455784Y-1929084D02*
X+7455784Y-1880917D01*
X+7500940Y-1880917D01*
X+7509971Y-1888945D01*
X+7509971Y-1896973D01*
X+7500940Y-1905000D01*
X+7455784Y-1905000D01*
X+7500940Y-1905000D02*
X+7509971Y-1913028D01*
X+7509971Y-1929084D01*
X+7528034Y-1880917D02*
X+7528034Y-1905000D01*
X+7555127Y-1929084D01*
X+7582221Y-1905000D01*
X+7582221Y-1880917D01*
X+7654471Y-1880917D02*
X+7609315Y-1880917D01*
X+7609315Y-1896973D01*
X+7645440Y-1896973D01*
X+7654471Y-1905000D01*
X+7654471Y-1921056D01*
X+7645440Y-1929084D01*
X+7618346Y-1929084D01*
X+7609315Y-1921056D01*
X+7672534Y-1921056D02*
X+7672534Y-1888945D01*
X+7681565Y-1880917D01*
X+7717690Y-1880917D01*
X+7726721Y-1888945D01*
X+7726721Y-1921056D01*
X+7717690Y-1929084D01*
X+7681565Y-1929084D01*
X+7672534Y-1921056D01*
X+7672534Y-1929084D02*
X+7726721Y-1880917D01*
D86*
X+7519100Y-694600D02*
X+7519100Y-234600D01*
X+7289100Y-234600D01*
X+7289100Y-694600D01*
X+7519100Y-694600D01*
X+7354100Y-464600D02*
X+7454100Y-464600D01*
X+7404100Y-414600D02*
X+7404100Y-514600D01*
D91*
X+7404100Y-609600D02*
X+7404100Y-609600D01*
D111*
X+7428184Y-547316D02*
X+7380017Y-547316D01*
X+7380017Y-502160D01*
X+7388045Y-493129D01*
X+7396073Y-493129D01*
X+7404100Y-502160D01*
X+7404100Y-547316D01*
X+7404100Y-502160D02*
X+7412128Y-493129D01*
X+7428184Y-493129D01*
X+7380017Y-475066D02*
X+7404100Y-475066D01*
X+7428184Y-447973D01*
X+7404100Y-420879D01*
X+7380017Y-420879D01*
X+7380017Y-348629D02*
X+7380017Y-393785D01*
X+7396073Y-393785D01*
X+7396073Y-357660D01*
X+7404100Y-348629D01*
X+7420156Y-348629D01*
X+7428184Y-357660D01*
X+7428184Y-384754D01*
X+7420156Y-393785D01*
X+7396073Y-312504D02*
X+7380017Y-294441D01*
X+7428184Y-294441D01*
D86*
X+8027100Y-694600D02*
X+8027100Y-234600D01*
X+7797100Y-234600D01*
X+7797100Y-694600D01*
X+8027100Y-694600D01*
X+7862100Y-464600D02*
X+7962100Y-464600D01*
X+7912100Y-414600D02*
X+7912100Y-514600D01*
D91*
X+7912100Y-609600D02*
X+7912100Y-609600D01*
D111*
X+7936184Y-547316D02*
X+7888017Y-547316D01*
X+7888017Y-502160D01*
X+7896045Y-493129D01*
X+7904073Y-493129D01*
X+7912100Y-502160D01*
X+7912100Y-547316D01*
X+7912100Y-502160D02*
X+7920128Y-493129D01*
X+7936184Y-493129D01*
X+7888017Y-475066D02*
X+7912100Y-475066D01*
X+7936184Y-447973D01*
X+7912100Y-420879D01*
X+7888017Y-420879D01*
X+7888017Y-348629D02*
X+7888017Y-393785D01*
X+7904073Y-393785D01*
X+7904073Y-357660D01*
X+7912100Y-348629D01*
X+7928156Y-348629D01*
X+7936184Y-357660D01*
X+7936184Y-384754D01*
X+7928156Y-393785D01*
X+7896045Y-321535D02*
X+7888017Y-312504D01*
X+7888017Y-285410D01*
X+7896045Y-276379D01*
X+7904073Y-276379D01*
X+7912100Y-285410D01*
X+7912100Y-312504D01*
X+7920128Y-321535D01*
X+7936184Y-321535D01*
X+7936184Y-276379D01*
D86*
X+6773000Y-2274000D02*
X+7233000Y-2274000D01*
X+7233000Y-2044000D01*
X+6773000Y-2044000D01*
X+6773000Y-2274000D01*
X+7003000Y-2109000D02*
X+7003000Y-2209000D01*
X+7053000Y-2159000D02*
X+6953000Y-2159000D01*
D91*
X+6858000Y-2159000D02*
X+6858000Y-2159000D01*
D111*
X+6920284Y-2183084D02*
X+6920284Y-2134917D01*
X+6965440Y-2134917D01*
X+6974471Y-2142945D01*
X+6974471Y-2150973D01*
X+6965440Y-2159000D01*
X+6920284Y-2159000D01*
X+6965440Y-2159000D02*
X+6974471Y-2167028D01*
X+6974471Y-2183084D01*
X+6992534Y-2134917D02*
X+6992534Y-2159000D01*
X+7019627Y-2183084D01*
X+7046721Y-2159000D01*
X+7046721Y-2134917D01*
X+7118971Y-2134917D02*
X+7073815Y-2134917D01*
X+7073815Y-2150973D01*
X+7109940Y-2150973D01*
X+7118971Y-2159000D01*
X+7118971Y-2175056D01*
X+7109940Y-2183084D01*
X+7082846Y-2183084D01*
X+7073815Y-2175056D01*
X+7146065Y-2142945D02*
X+7155096Y-2134917D01*
X+7182190Y-2134917D01*
X+7191221Y-2142945D01*
X+7191221Y-2150973D01*
X+7182190Y-2159000D01*
X+7191221Y-2167028D01*
X+7191221Y-2175056D01*
X+7182190Y-2183084D01*
X+7155096Y-2183084D01*
X+7146065Y-2175056D01*
X+7164127Y-2159000D02*
X+7182190Y-2159000D01*
D40*
X+6974840Y-3439160D02*
X+7249160Y-3439160D01*
X+7249160Y-3164840D01*
X+6974840Y-3164840D01*
X+6974840Y-3439160D01*
D90*
X+6997700Y-3321050D02*
X+6997700Y-3282950D01*
X+7033418Y-3282950D01*
X+7040562Y-3289300D01*
X+7040562Y-3295650D01*
X+7033418Y-3302000D01*
X+6997700Y-3302000D01*
X+7054850Y-3282950D02*
X+7054850Y-3321050D01*
X+7076281Y-3302000D01*
X+7097712Y-3321050D01*
X+7097712Y-3282950D01*
X+7112000Y-3321050D02*
X+7112000Y-3282950D01*
X+7133431Y-3302000D01*
X+7154862Y-3282950D01*
X+7154862Y-3321050D01*
X+7212012Y-3289300D02*
X+7204868Y-3282950D01*
X+7183437Y-3282950D01*
X+7176293Y-3289300D01*
X+7176293Y-3314700D01*
X+7183437Y-3321050D01*
X+7204868Y-3321050D01*
X+7212012Y-3314700D01*
X+7212012Y-3308350D01*
X+7204868Y-3302000D01*
X+7176293Y-3302000D01*
D40*
X+5323840Y-3439160D02*
X+5598160Y-3439160D01*
X+5598160Y-3164840D01*
X+5323840Y-3164840D01*
X+5323840Y-3439160D01*
D90*
X+5346700Y-3321050D02*
X+5346700Y-3282950D01*
X+5382418Y-3282950D01*
X+5389562Y-3289300D01*
X+5389562Y-3295650D01*
X+5382418Y-3302000D01*
X+5346700Y-3302000D01*
X+5403850Y-3282950D02*
X+5403850Y-3321050D01*
X+5425281Y-3302000D01*
X+5446712Y-3321050D01*
X+5446712Y-3282950D01*
X+5461000Y-3321050D02*
X+5461000Y-3282950D01*
X+5482431Y-3302000D01*
X+5503862Y-3282950D01*
X+5503862Y-3321050D01*
X+5525293Y-3282950D02*
X+5561012Y-3282950D01*
X+5561012Y-3289300D01*
X+5525293Y-3321050D01*
D40*
X+2847340Y-3439160D02*
X+3121660Y-3439160D01*
X+3121660Y-3164840D01*
X+2847340Y-3164840D01*
X+2847340Y-3439160D01*
D90*
X+2870200Y-3321050D02*
X+2870200Y-3282950D01*
X+2905918Y-3282950D01*
X+2913062Y-3289300D01*
X+2913062Y-3295650D01*
X+2905918Y-3302000D01*
X+2870200Y-3302000D01*
X+2927350Y-3282950D02*
X+2927350Y-3321050D01*
X+2948781Y-3302000D01*
X+2970212Y-3321050D01*
X+2970212Y-3282950D01*
X+2984500Y-3321050D02*
X+2984500Y-3282950D01*
X+3005931Y-3302000D01*
X+3027362Y-3282950D01*
X+3027362Y-3321050D01*
X+3055937Y-3302000D02*
X+3048793Y-3295650D01*
X+3048793Y-3289300D01*
X+3055937Y-3282950D01*
X+3077368Y-3282950D01*
X+3084512Y-3289300D01*
X+3084512Y-3295650D01*
X+3077368Y-3302000D01*
X+3055937Y-3302000D01*
X+3048793Y-3308350D01*
X+3048793Y-3314700D01*
X+3055937Y-3321050D01*
X+3077368Y-3321050D01*
X+3084512Y-3314700D01*
X+3084512Y-3308350D01*
X+3077368Y-3302000D01*
D40*
X+434340Y-3439160D02*
X+708660Y-3439160D01*
X+708660Y-3164840D01*
X+434340Y-3164840D01*
X+434340Y-3439160D01*
D90*
X+457200Y-3321050D02*
X+457200Y-3282950D01*
X+492918Y-3282950D01*
X+500062Y-3289300D01*
X+500062Y-3295650D01*
X+492918Y-3302000D01*
X+457200Y-3302000D01*
X+514350Y-3282950D02*
X+514350Y-3321050D01*
X+535781Y-3302000D01*
X+557212Y-3321050D01*
X+557212Y-3282950D01*
X+571500Y-3321050D02*
X+571500Y-3282950D01*
X+592931Y-3302000D01*
X+614362Y-3282950D01*
X+614362Y-3321050D01*
X+671512Y-3295650D02*
X+664368Y-3302000D01*
X+642937Y-3302000D01*
X+635793Y-3295650D01*
X+635793Y-3289300D01*
X+642937Y-3282950D01*
X+664368Y-3282950D01*
X+671512Y-3289300D01*
X+671512Y-3314700D01*
X+664368Y-3321050D01*
X+642937Y-3321050D01*
D40*
X-1915160Y-3439160D02*
X-1640840Y-3439160D01*
X-1640840Y-3164840D01*
X-1915160Y-3164840D01*
X-1915160Y-3439160D01*
D118*
X-1892300Y-3317240D02*
X-1892300Y-3286760D01*
X-1863725Y-3286760D01*
X-1858010Y-3291840D01*
X-1858010Y-3296920D01*
X-1863725Y-3302000D01*
X-1892300Y-3302000D01*
X-1846580Y-3286760D02*
X-1846580Y-3317240D01*
X-1829435Y-3302000D01*
X-1812290Y-3317240D01*
X-1812290Y-3286760D01*
X-1800860Y-3317240D02*
X-1800860Y-3286760D01*
X-1783715Y-3302000D01*
X-1766570Y-3286760D01*
X-1766570Y-3317240D01*
X-1743710Y-3296920D02*
X-1732280Y-3286760D01*
X-1732280Y-3317240D01*
X-1709420Y-3312160D02*
X-1709420Y-3291840D01*
X-1703705Y-3286760D01*
X-1680845Y-3286760D01*
X-1675130Y-3291840D01*
X-1675130Y-3312160D01*
X-1680845Y-3317240D01*
X-1703705Y-3317240D01*
X-1709420Y-3312160D01*
X-1709420Y-3317240D02*
X-1675130Y-3286760D01*
D40*
X+6974840Y-3693160D02*
X+7249160Y-3693160D01*
X+7249160Y-3418840D01*
X+6974840Y-3418840D01*
X+6974840Y-3693160D01*
D90*
X+7004843Y-3536950D02*
X+7033418Y-3536950D01*
X+7019131Y-3536950D02*
X+7019131Y-3575050D01*
X+7004843Y-3575050D02*
X+7033418Y-3575050D01*
X+7054850Y-3575050D02*
X+7054850Y-3536950D01*
X+7097712Y-3536950D01*
X+7054850Y-3556000D02*
X+7083425Y-3556000D01*
X+7112000Y-3575050D02*
X+7112000Y-3536950D01*
X+7147718Y-3536950D01*
X+7154862Y-3543300D01*
X+7154862Y-3549650D01*
X+7147718Y-3556000D01*
X+7154862Y-3562350D01*
X+7154862Y-3568700D01*
X+7147718Y-3575050D01*
X+7112000Y-3575050D01*
X+7112000Y-3556000D02*
X+7147718Y-3556000D01*
X+7212012Y-3543300D02*
X+7204868Y-3536950D01*
X+7183437Y-3536950D01*
X+7176293Y-3543300D01*
X+7176293Y-3568700D01*
X+7183437Y-3575050D01*
X+7204868Y-3575050D01*
X+7212012Y-3568700D01*
X+7212012Y-3562350D01*
X+7204868Y-3556000D01*
X+7176293Y-3556000D01*
D40*
X+5323840Y-3693160D02*
X+5598160Y-3693160D01*
X+5598160Y-3418840D01*
X+5323840Y-3418840D01*
X+5323840Y-3693160D01*
D90*
X+5353843Y-3536950D02*
X+5382418Y-3536950D01*
X+5368131Y-3536950D02*
X+5368131Y-3575050D01*
X+5353843Y-3575050D02*
X+5382418Y-3575050D01*
X+5403850Y-3575050D02*
X+5403850Y-3536950D01*
X+5446712Y-3536950D01*
X+5403850Y-3556000D02*
X+5432425Y-3556000D01*
X+5461000Y-3575050D02*
X+5461000Y-3536950D01*
X+5496718Y-3536950D01*
X+5503862Y-3543300D01*
X+5503862Y-3549650D01*
X+5496718Y-3556000D01*
X+5503862Y-3562350D01*
X+5503862Y-3568700D01*
X+5496718Y-3575050D01*
X+5461000Y-3575050D01*
X+5461000Y-3556000D02*
X+5496718Y-3556000D01*
X+5525293Y-3536950D02*
X+5561012Y-3536950D01*
X+5561012Y-3543300D01*
X+5525293Y-3575050D01*
D40*
X+2847340Y-3693160D02*
X+3121660Y-3693160D01*
X+3121660Y-3418840D01*
X+2847340Y-3418840D01*
X+2847340Y-3693160D01*
D90*
X+2877343Y-3536950D02*
X+2905918Y-3536950D01*
X+2891631Y-3536950D02*
X+2891631Y-3575050D01*
X+2877343Y-3575050D02*
X+2905918Y-3575050D01*
X+2927350Y-3575050D02*
X+2927350Y-3536950D01*
X+2970212Y-3536950D01*
X+2927350Y-3556000D02*
X+2955925Y-3556000D01*
X+2984500Y-3575050D02*
X+2984500Y-3536950D01*
X+3020218Y-3536950D01*
X+3027362Y-3543300D01*
X+3027362Y-3549650D01*
X+3020218Y-3556000D01*
X+3027362Y-3562350D01*
X+3027362Y-3568700D01*
X+3020218Y-3575050D01*
X+2984500Y-3575050D01*
X+2984500Y-3556000D02*
X+3020218Y-3556000D01*
X+3055937Y-3556000D02*
X+3048793Y-3549650D01*
X+3048793Y-3543300D01*
X+3055937Y-3536950D01*
X+3077368Y-3536950D01*
X+3084512Y-3543300D01*
X+3084512Y-3549650D01*
X+3077368Y-3556000D01*
X+3055937Y-3556000D01*
X+3048793Y-3562350D01*
X+3048793Y-3568700D01*
X+3055937Y-3575050D01*
X+3077368Y-3575050D01*
X+3084512Y-3568700D01*
X+3084512Y-3562350D01*
X+3077368Y-3556000D01*
D40*
X+434340Y-3693160D02*
X+708660Y-3693160D01*
X+708660Y-3418840D01*
X+434340Y-3418840D01*
X+434340Y-3693160D01*
D90*
X+464343Y-3536950D02*
X+492918Y-3536950D01*
X+478631Y-3536950D02*
X+478631Y-3575050D01*
X+464343Y-3575050D02*
X+492918Y-3575050D01*
X+514350Y-3575050D02*
X+514350Y-3536950D01*
X+557212Y-3536950D01*
X+514350Y-3556000D02*
X+542925Y-3556000D01*
X+571500Y-3575050D02*
X+571500Y-3536950D01*
X+607218Y-3536950D01*
X+614362Y-3543300D01*
X+614362Y-3549650D01*
X+607218Y-3556000D01*
X+614362Y-3562350D01*
X+614362Y-3568700D01*
X+607218Y-3575050D01*
X+571500Y-3575050D01*
X+571500Y-3556000D02*
X+607218Y-3556000D01*
X+671512Y-3549650D02*
X+664368Y-3556000D01*
X+642937Y-3556000D01*
X+635793Y-3549650D01*
X+635793Y-3543300D01*
X+642937Y-3536950D01*
X+664368Y-3536950D01*
X+671512Y-3543300D01*
X+671512Y-3568700D01*
X+664368Y-3575050D01*
X+642937Y-3575050D01*
D40*
X-1915160Y-3693160D02*
X-1640840Y-3693160D01*
X-1640840Y-3418840D01*
X-1915160Y-3418840D01*
X-1915160Y-3693160D01*
D118*
X-1886585Y-3540760D02*
X-1863725Y-3540760D01*
X-1875155Y-3540760D02*
X-1875155Y-3571240D01*
X-1886585Y-3571240D02*
X-1863725Y-3571240D01*
X-1846580Y-3571240D02*
X-1846580Y-3540760D01*
X-1812290Y-3540760D01*
X-1846580Y-3556000D02*
X-1823720Y-3556000D01*
X-1800860Y-3571240D02*
X-1800860Y-3540760D01*
X-1772285Y-3540760D01*
X-1766570Y-3545840D01*
X-1766570Y-3550920D01*
X-1772285Y-3556000D01*
X-1766570Y-3561080D01*
X-1766570Y-3566160D01*
X-1772285Y-3571240D01*
X-1800860Y-3571240D01*
X-1800860Y-3556000D02*
X-1772285Y-3556000D01*
X-1743710Y-3550920D02*
X-1732280Y-3540760D01*
X-1732280Y-3571240D01*
X-1709420Y-3566160D02*
X-1709420Y-3545840D01*
X-1703705Y-3540760D01*
X-1680845Y-3540760D01*
X-1675130Y-3545840D01*
X-1675130Y-3566160D01*
X-1680845Y-3571240D01*
X-1703705Y-3571240D01*
X-1709420Y-3566160D01*
X-1709420Y-3571240D02*
X-1675130Y-3540760D01*
D40*
X+6974840Y-3185160D02*
X+7249160Y-3185160D01*
X+7249160Y-2910840D01*
X+6974840Y-2910840D01*
X+6974840Y-3185160D01*
D90*
X+7004843Y-3028950D02*
X+7033418Y-3028950D01*
X+7019131Y-3028950D02*
X+7019131Y-3067050D01*
X+7004843Y-3067050D02*
X+7033418Y-3067050D01*
X+7054850Y-3067050D02*
X+7054850Y-3028950D01*
X+7097712Y-3067050D01*
X+7097712Y-3028950D01*
X+7112000Y-3067050D02*
X+7112000Y-3028950D01*
X+7154862Y-3028950D02*
X+7154862Y-3067050D01*
X+7112000Y-3048000D02*
X+7154862Y-3048000D01*
X+7212012Y-3035300D02*
X+7204868Y-3028950D01*
X+7183437Y-3028950D01*
X+7176293Y-3035300D01*
X+7176293Y-3060700D01*
X+7183437Y-3067050D01*
X+7204868Y-3067050D01*
X+7212012Y-3060700D01*
X+7212012Y-3054350D01*
X+7204868Y-3048000D01*
X+7176293Y-3048000D01*
D40*
X+5323840Y-3185160D02*
X+5598160Y-3185160D01*
X+5598160Y-2910840D01*
X+5323840Y-2910840D01*
X+5323840Y-3185160D01*
D90*
X+5353843Y-3028950D02*
X+5382418Y-3028950D01*
X+5368131Y-3028950D02*
X+5368131Y-3067050D01*
X+5353843Y-3067050D02*
X+5382418Y-3067050D01*
X+5403850Y-3067050D02*
X+5403850Y-3028950D01*
X+5446712Y-3067050D01*
X+5446712Y-3028950D01*
X+5461000Y-3067050D02*
X+5461000Y-3028950D01*
X+5503862Y-3028950D02*
X+5503862Y-3067050D01*
X+5461000Y-3048000D02*
X+5503862Y-3048000D01*
X+5525293Y-3028950D02*
X+5561012Y-3028950D01*
X+5561012Y-3035300D01*
X+5525293Y-3067050D01*
D40*
X+2847340Y-3185160D02*
X+3121660Y-3185160D01*
X+3121660Y-2910840D01*
X+2847340Y-2910840D01*
X+2847340Y-3185160D01*
D90*
X+2877343Y-3028950D02*
X+2905918Y-3028950D01*
X+2891631Y-3028950D02*
X+2891631Y-3067050D01*
X+2877343Y-3067050D02*
X+2905918Y-3067050D01*
X+2927350Y-3067050D02*
X+2927350Y-3028950D01*
X+2970212Y-3067050D01*
X+2970212Y-3028950D01*
X+2984500Y-3067050D02*
X+2984500Y-3028950D01*
X+3027362Y-3028950D02*
X+3027362Y-3067050D01*
X+2984500Y-3048000D02*
X+3027362Y-3048000D01*
X+3055937Y-3048000D02*
X+3048793Y-3041650D01*
X+3048793Y-3035300D01*
X+3055937Y-3028950D01*
X+3077368Y-3028950D01*
X+3084512Y-3035300D01*
X+3084512Y-3041650D01*
X+3077368Y-3048000D01*
X+3055937Y-3048000D01*
X+3048793Y-3054350D01*
X+3048793Y-3060700D01*
X+3055937Y-3067050D01*
X+3077368Y-3067050D01*
X+3084512Y-3060700D01*
X+3084512Y-3054350D01*
X+3077368Y-3048000D01*
D40*
X+434340Y-3185160D02*
X+708660Y-3185160D01*
X+708660Y-2910840D01*
X+434340Y-2910840D01*
X+434340Y-3185160D01*
D90*
X+464343Y-3028950D02*
X+492918Y-3028950D01*
X+478631Y-3028950D02*
X+478631Y-3067050D01*
X+464343Y-3067050D02*
X+492918Y-3067050D01*
X+514350Y-3067050D02*
X+514350Y-3028950D01*
X+557212Y-3067050D01*
X+557212Y-3028950D01*
X+571500Y-3067050D02*
X+571500Y-3028950D01*
X+614362Y-3028950D02*
X+614362Y-3067050D01*
X+571500Y-3048000D02*
X+614362Y-3048000D01*
X+671512Y-3041650D02*
X+664368Y-3048000D01*
X+642937Y-3048000D01*
X+635793Y-3041650D01*
X+635793Y-3035300D01*
X+642937Y-3028950D01*
X+664368Y-3028950D01*
X+671512Y-3035300D01*
X+671512Y-3060700D01*
X+664368Y-3067050D01*
X+642937Y-3067050D01*
D40*
X-1915160Y-3185160D02*
X-1640840Y-3185160D01*
X-1640840Y-2910840D01*
X-1915160Y-2910840D01*
X-1915160Y-3185160D01*
D118*
X-1886585Y-3032760D02*
X-1863725Y-3032760D01*
X-1875155Y-3032760D02*
X-1875155Y-3063240D01*
X-1886585Y-3063240D02*
X-1863725Y-3063240D01*
X-1846580Y-3063240D02*
X-1846580Y-3032760D01*
X-1812290Y-3063240D01*
X-1812290Y-3032760D01*
X-1800860Y-3063240D02*
X-1800860Y-3032760D01*
X-1766570Y-3032760D02*
X-1766570Y-3063240D01*
X-1800860Y-3048000D02*
X-1766570Y-3048000D01*
X-1743710Y-3042920D02*
X-1732280Y-3032760D01*
X-1732280Y-3063240D01*
X-1709420Y-3058160D02*
X-1709420Y-3037840D01*
X-1703705Y-3032760D01*
X-1680845Y-3032760D01*
X-1675130Y-3037840D01*
X-1675130Y-3058160D01*
X-1680845Y-3063240D01*
X-1703705Y-3063240D01*
X-1709420Y-3058160D01*
X-1709420Y-3063240D02*
X-1675130Y-3032760D01*
D40*
X+6581140Y+1704340D02*
X+6855460Y+1704340D01*
X+6855460Y+1978660D01*
X+6581140Y+1978660D01*
X+6581140Y+1704340D01*
D90*
X+6699250Y+1727200D02*
X+6718300Y+1727200D01*
X+6737350Y+1748631D01*
X+6718300Y+1770062D01*
X+6699250Y+1770062D01*
X+6705600Y+1827212D02*
X+6699250Y+1820068D01*
X+6699250Y+1798637D01*
X+6705600Y+1791493D01*
X+6731000Y+1791493D01*
X+6737350Y+1798637D01*
X+6737350Y+1820068D01*
X+6731000Y+1827212D01*
X+6724650Y+1827212D01*
X+6718300Y+1820068D01*
X+6718300Y+1791493D01*
X+6737350Y+1841500D02*
X+6699250Y+1841500D01*
X+6699250Y+1884362D02*
X+6737350Y+1884362D01*
X+6718300Y+1841500D02*
X+6718300Y+1884362D01*
X+6731000Y+1898650D02*
X+6737350Y+1905793D01*
X+6737350Y+1934368D01*
X+6731000Y+1941512D01*
X+6724650Y+1941512D01*
X+6718300Y+1934368D01*
X+6718300Y+1905793D01*
X+6711950Y+1898650D01*
X+6705600Y+1898650D01*
X+6699250Y+1905793D01*
X+6699250Y+1934368D01*
X+6705600Y+1941512D01*
D40*
X+4358640Y+1704340D02*
X+4632960Y+1704340D01*
X+4632960Y+1978660D01*
X+4358640Y+1978660D01*
X+4358640Y+1704340D01*
D90*
X+4476750Y+1727200D02*
X+4495800Y+1727200D01*
X+4514850Y+1748631D01*
X+4495800Y+1770062D01*
X+4476750Y+1770062D01*
X+4476750Y+1791493D02*
X+4476750Y+1827212D01*
X+4483100Y+1827212D01*
X+4514850Y+1791493D01*
X+4514850Y+1841500D02*
X+4476750Y+1841500D01*
X+4476750Y+1884362D02*
X+4514850Y+1884362D01*
X+4495800Y+1841500D02*
X+4495800Y+1884362D01*
X+4508500Y+1898650D02*
X+4514850Y+1905793D01*
X+4514850Y+1934368D01*
X+4508500Y+1941512D01*
X+4502150Y+1941512D01*
X+4495800Y+1934368D01*
X+4495800Y+1905793D01*
X+4489450Y+1898650D01*
X+4483100Y+1898650D01*
X+4476750Y+1905793D01*
X+4476750Y+1934368D01*
X+4483100Y+1941512D01*
D40*
X+2085340Y+1704340D02*
X+2359660Y+1704340D01*
X+2359660Y+1978660D01*
X+2085340Y+1978660D01*
X+2085340Y+1704340D01*
D90*
X+2203450Y+1727200D02*
X+2222500Y+1727200D01*
X+2241550Y+1748631D01*
X+2222500Y+1770062D01*
X+2203450Y+1770062D01*
X+2222500Y+1798637D02*
X+2216150Y+1791493D01*
X+2209800Y+1791493D01*
X+2203450Y+1798637D01*
X+2203450Y+1820068D01*
X+2209800Y+1827212D01*
X+2216150Y+1827212D01*
X+2222500Y+1820068D01*
X+2222500Y+1798637D01*
X+2228850Y+1791493D01*
X+2235200Y+1791493D01*
X+2241550Y+1798637D01*
X+2241550Y+1820068D01*
X+2235200Y+1827212D01*
X+2228850Y+1827212D01*
X+2222500Y+1820068D01*
X+2241550Y+1841500D02*
X+2203450Y+1841500D01*
X+2203450Y+1884362D02*
X+2241550Y+1884362D01*
X+2222500Y+1841500D02*
X+2222500Y+1884362D01*
X+2235200Y+1898650D02*
X+2241550Y+1905793D01*
X+2241550Y+1934368D01*
X+2235200Y+1941512D01*
X+2228850Y+1941512D01*
X+2222500Y+1934368D01*
X+2222500Y+1905793D01*
X+2216150Y+1898650D01*
X+2209800Y+1898650D01*
X+2203450Y+1905793D01*
X+2203450Y+1934368D01*
X+2209800Y+1941512D01*
D40*
X-162560Y+1704340D02*
X+111760Y+1704340D01*
X+111760Y+1978660D01*
X-162560Y+1978660D01*
X-162560Y+1704340D01*
D90*
X-44450Y+1727200D02*
X-25400Y+1727200D01*
X-6350Y+1748631D01*
X-25400Y+1770062D01*
X-44450Y+1770062D01*
X-31750Y+1827212D02*
X-25400Y+1820068D01*
X-25400Y+1798637D01*
X-31750Y+1791493D01*
X-38100Y+1791493D01*
X-44450Y+1798637D01*
X-44450Y+1820068D01*
X-38100Y+1827212D01*
X-12700Y+1827212D01*
X-6350Y+1820068D01*
X-6350Y+1798637D01*
X-6350Y+1841500D02*
X-44450Y+1841500D01*
X-44450Y+1884362D02*
X-6350Y+1884362D01*
X-25400Y+1841500D02*
X-25400Y+1884362D01*
X-12700Y+1898650D02*
X-6350Y+1905793D01*
X-6350Y+1934368D01*
X-12700Y+1941512D01*
X-19050Y+1941512D01*
X-25400Y+1934368D01*
X-25400Y+1905793D01*
X-31750Y+1898650D01*
X-38100Y+1898650D01*
X-44450Y+1905793D01*
X-44450Y+1934368D01*
X-38100Y+1941512D01*
D40*
X-2410460Y+1704340D02*
X-2136140Y+1704340D01*
X-2136140Y+1978660D01*
X-2410460Y+1978660D01*
X-2410460Y+1704340D01*
D118*
X-2288540Y+1727200D02*
X-2273300Y+1727200D01*
X-2258060Y+1744345D01*
X-2273300Y+1761490D01*
X-2288540Y+1761490D01*
X-2278380Y+1784350D02*
X-2288540Y+1795780D01*
X-2258060Y+1795780D01*
X-2263140Y+1818640D02*
X-2283460Y+1818640D01*
X-2288540Y+1824355D01*
X-2288540Y+1847215D01*
X-2283460Y+1852930D01*
X-2263140Y+1852930D01*
X-2258060Y+1847215D01*
X-2258060Y+1824355D01*
X-2263140Y+1818640D01*
X-2258060Y+1818640D02*
X-2288540Y+1852930D01*
X-2258060Y+1864360D02*
X-2288540Y+1864360D01*
X-2288540Y+1898650D02*
X-2258060Y+1898650D01*
X-2273300Y+1864360D02*
X-2273300Y+1898650D01*
X-2263140Y+1910080D02*
X-2258060Y+1915795D01*
X-2258060Y+1938655D01*
X-2263140Y+1944370D01*
X-2268220Y+1944370D01*
X-2273300Y+1938655D01*
X-2273300Y+1915795D01*
X-2278380Y+1910080D01*
X-2283460Y+1910080D01*
X-2288540Y+1915795D01*
X-2288540Y+1938655D01*
X-2283460Y+1944370D01*
D40*
X-5217160Y+1767840D02*
X-4942840Y+1767840D01*
X-4942840Y+2042160D01*
X-5217160Y+2042160D01*
X-5217160Y+1767840D01*
D118*
X-5095240Y+1790700D02*
X-5080000Y+1790700D01*
X-5064760Y+1807845D01*
X-5080000Y+1824990D01*
X-5095240Y+1824990D01*
X-5085080Y+1847850D02*
X-5095240Y+1859280D01*
X-5064760Y+1859280D01*
X-5085080Y+1893570D02*
X-5095240Y+1905000D01*
X-5064760Y+1905000D01*
X-5064760Y+1927860D02*
X-5095240Y+1927860D01*
X-5095240Y+1962150D02*
X-5064760Y+1962150D01*
X-5080000Y+1927860D02*
X-5080000Y+1962150D01*
X-5069840Y+1973580D02*
X-5064760Y+1979295D01*
X-5064760Y+2002155D01*
X-5069840Y+2007870D01*
X-5074920Y+2007870D01*
X-5080000Y+2002155D01*
X-5080000Y+1979295D01*
X-5085080Y+1973580D01*
X-5090160Y+1973580D01*
X-5095240Y+1979295D01*
X-5095240Y+2002155D01*
X-5090160Y+2007870D01*
D40*
X-4455160Y-3693160D02*
X-4180840Y-3693160D01*
X-4180840Y-3418840D01*
X-4455160Y-3418840D01*
X-4455160Y-3693160D01*
D118*
X-4426585Y-3540760D02*
X-4403725Y-3540760D01*
X-4415155Y-3540760D02*
X-4415155Y-3571240D01*
X-4426585Y-3571240D02*
X-4403725Y-3571240D01*
X-4386580Y-3571240D02*
X-4386580Y-3540760D01*
X-4352290Y-3540760D01*
X-4386580Y-3556000D02*
X-4363720Y-3556000D01*
X-4340860Y-3571240D02*
X-4340860Y-3540760D01*
X-4312285Y-3540760D01*
X-4306570Y-3545840D01*
X-4306570Y-3550920D01*
X-4312285Y-3556000D01*
X-4306570Y-3561080D01*
X-4306570Y-3566160D01*
X-4312285Y-3571240D01*
X-4340860Y-3571240D01*
X-4340860Y-3556000D02*
X-4312285Y-3556000D01*
X-4283710Y-3550920D02*
X-4272280Y-3540760D01*
X-4272280Y-3571240D01*
X-4237990Y-3550920D02*
X-4226560Y-3540760D01*
X-4226560Y-3571240D01*
D40*
X-4455160Y-3185160D02*
X-4180840Y-3185160D01*
X-4180840Y-2910840D01*
X-4455160Y-2910840D01*
X-4455160Y-3185160D01*
D118*
X-4426585Y-3032760D02*
X-4403725Y-3032760D01*
X-4415155Y-3032760D02*
X-4415155Y-3063240D01*
X-4426585Y-3063240D02*
X-4403725Y-3063240D01*
X-4386580Y-3063240D02*
X-4386580Y-3032760D01*
X-4352290Y-3063240D01*
X-4352290Y-3032760D01*
X-4340860Y-3063240D02*
X-4340860Y-3032760D01*
X-4306570Y-3032760D02*
X-4306570Y-3063240D01*
X-4340860Y-3048000D02*
X-4306570Y-3048000D01*
X-4283710Y-3042920D02*
X-4272280Y-3032760D01*
X-4272280Y-3063240D01*
X-4237990Y-3042920D02*
X-4226560Y-3032760D01*
X-4226560Y-3063240D01*
D40*
X-4455160Y-3439160D02*
X-4180840Y-3439160D01*
X-4180840Y-3164840D01*
X-4455160Y-3164840D01*
X-4455160Y-3439160D01*
D118*
X-4432300Y-3317240D02*
X-4432300Y-3286760D01*
X-4403725Y-3286760D01*
X-4398010Y-3291840D01*
X-4398010Y-3296920D01*
X-4403725Y-3302000D01*
X-4432300Y-3302000D01*
X-4386580Y-3286760D02*
X-4386580Y-3317240D01*
X-4369435Y-3302000D01*
X-4352290Y-3317240D01*
X-4352290Y-3286760D01*
X-4340860Y-3317240D02*
X-4340860Y-3286760D01*
X-4323715Y-3302000D01*
X-4306570Y-3286760D01*
X-4306570Y-3317240D01*
X-4283710Y-3296920D02*
X-4272280Y-3286760D01*
X-4272280Y-3317240D01*
X-4237990Y-3296920D02*
X-4226560Y-3286760D01*
X-4226560Y-3317240D01*
D86*
X-4139120Y-1359600D02*
X-3669120Y-1359600D01*
X-3669120Y-1129600D01*
X-4139120Y-1129600D01*
X-4139120Y-1359600D01*
X-3904120Y-1194600D02*
X-3904120Y-1294600D01*
X-3854120Y-1244600D02*
X-3954120Y-1244600D01*
D91*
X-4054120Y-1244600D02*
X-4054120Y-1244600D01*
D92*
X-3916836Y-1266674D02*
X-3929252Y-1277711D01*
X-3966502Y-1277711D01*
X-3991335Y-1255637D01*
X-3991335Y-1233563D01*
X-3966502Y-1211489D01*
X-3929252Y-1211489D01*
X-3916836Y-1222526D01*
X-3892002Y-1277711D02*
X-3892002Y-1233563D01*
X-3867169Y-1211489D01*
X-3842336Y-1211489D01*
X-3817503Y-1233563D01*
X-3817503Y-1277711D01*
X-3892002Y-1255637D02*
X-3817503Y-1255637D01*
X-3718170Y-1255637D02*
X-3792669Y-1255637D01*
X-3743003Y-1211489D01*
X-3743003Y-1277711D01*
D86*
X-4131500Y+647000D02*
X-3661500Y+647000D01*
X-3661500Y+877000D01*
X-4131500Y+877000D01*
X-4131500Y+647000D01*
X-3896500Y+812000D02*
X-3896500Y+712000D01*
X-3846500Y+762000D02*
X-3946500Y+762000D01*
D91*
X-4046500Y+762000D02*
X-4046500Y+762000D01*
D92*
X-3909216Y+739926D02*
X-3921632Y+728889D01*
X-3958882Y+728889D01*
X-3983715Y+750963D01*
X-3983715Y+773037D01*
X-3958882Y+795111D01*
X-3921632Y+795111D01*
X-3909216Y+784074D01*
X-3884382Y+728889D02*
X-3884382Y+773037D01*
X-3859549Y+795111D01*
X-3834716Y+795111D01*
X-3809883Y+773037D01*
X-3809883Y+728889D01*
X-3884382Y+750963D02*
X-3809883Y+750963D01*
X-3710550Y+795111D02*
X-3772633Y+795111D01*
X-3772633Y+773037D01*
X-3722966Y+773037D01*
X-3710550Y+762000D01*
X-3710550Y+739926D01*
X-3722966Y+728889D01*
X-3760216Y+728889D01*
X-3772633Y+739926D01*
D86*
X-4741000Y-2361500D02*
X-5211000Y-2361500D01*
X-5211000Y-2591500D01*
X-4741000Y-2591500D01*
X-4741000Y-2361500D01*
X-4976000Y-2526500D02*
X-4976000Y-2426500D01*
X-5026000Y-2476500D02*
X-4926000Y-2476500D01*
D91*
X-4826000Y-2476500D02*
X-4826000Y-2476500D01*
D112*
X-5130909Y-2493056D02*
X-5140222Y-2501334D01*
X-5168159Y-2501334D01*
X-5186784Y-2484778D01*
X-5186784Y-2468223D01*
X-5168159Y-2451667D01*
X-5140222Y-2451667D01*
X-5130909Y-2459945D01*
X-5112284Y-2451667D02*
X-5112284Y-2476500D01*
X-5084347Y-2501334D01*
X-5056409Y-2476500D01*
X-5056409Y-2451667D01*
X-5019159Y-2468223D02*
X-5000534Y-2451667D01*
X-5000534Y-2501334D01*
X-4944659Y-2468223D02*
X-4926034Y-2451667D01*
X-4926034Y-2501334D01*
D86*
X-4965000Y-1391000D02*
X-4965000Y-931000D01*
X-5195000Y-931000D01*
X-5195000Y-1391000D01*
X-4965000Y-1391000D01*
X-5130000Y-1161000D02*
X-5030000Y-1161000D01*
X-5080000Y-1111000D02*
X-5080000Y-1211000D01*
D91*
X-5080000Y-1306000D02*
X-5080000Y-1306000D01*
D103*
X-5047889Y-1243715D02*
X-5112111Y-1243715D01*
X-5112111Y-1183507D01*
X-5101407Y-1171466D01*
X-5090704Y-1171466D01*
X-5080000Y-1183507D01*
X-5080000Y-1243715D01*
X-5080000Y-1183507D02*
X-5069296Y-1171466D01*
X-5047889Y-1171466D01*
X-5112111Y-1147382D02*
X-5080000Y-1147382D01*
X-5047889Y-1111258D01*
X-5080000Y-1075133D01*
X-5112111Y-1075133D01*
X-5080000Y-1026966D02*
X-5090704Y-1039008D01*
X-5101407Y-1039008D01*
X-5112111Y-1026966D01*
X-5112111Y-990841D01*
X-5101407Y-978800D01*
X-5090704Y-978800D01*
X-5080000Y-990841D01*
X-5080000Y-1026966D01*
X-5069296Y-1039008D01*
X-5058593Y-1039008D01*
X-5047889Y-1026966D01*
X-5047889Y-990841D01*
X-5058593Y-978800D01*
X-5069296Y-978800D01*
X-5080000Y-990841D01*
D86*
X-4741000Y-2615500D02*
X-5201000Y-2615500D01*
X-5201000Y-2845500D01*
X-4741000Y-2845500D01*
X-4741000Y-2615500D01*
X-4971000Y-2780500D02*
X-4971000Y-2680500D01*
X-5021000Y-2730500D02*
X-4921000Y-2730500D01*
D91*
X-4826000Y-2730500D02*
X-4826000Y-2730500D01*
D103*
X-5177283Y-2762611D02*
X-5177283Y-2698389D01*
X-5117075Y-2698389D01*
X-5105034Y-2709093D01*
X-5105034Y-2719796D01*
X-5117075Y-2730500D01*
X-5177283Y-2730500D01*
X-5117075Y-2730500D02*
X-5105034Y-2741204D01*
X-5105034Y-2762611D01*
X-5080950Y-2698389D02*
X-5080950Y-2730500D01*
X-5044826Y-2762611D01*
X-5008701Y-2730500D01*
X-5008701Y-2698389D01*
X-4912368Y-2719796D02*
X-4924409Y-2730500D01*
X-4960534Y-2730500D01*
X-4972576Y-2719796D01*
X-4972576Y-2709093D01*
X-4960534Y-2698389D01*
X-4924409Y-2698389D01*
X-4912368Y-2709093D01*
X-4912368Y-2751907D01*
X-4924409Y-2762611D01*
X-4960534Y-2762611D01*
D40*
X-5344160Y-3185160D02*
X-5069840Y-3185160D01*
X-5069840Y-2910840D01*
X-5344160Y-2910840D01*
X-5344160Y-3185160D01*
D119*
X-5321300Y-3040380D02*
X-5321300Y-3048000D01*
X-5312728Y-3055620D01*
X-5304155Y-3048000D01*
X-5304155Y-3040380D01*
X-5298440Y-3055620D02*
X-5298440Y-3040380D01*
X-5281295Y-3040380D01*
X-5298440Y-3048000D02*
X-5287010Y-3048000D01*
X-5275580Y-3055620D02*
X-5275580Y-3040380D01*
X-5261293Y-3040380D01*
X-5258435Y-3042920D01*
X-5258435Y-3045460D01*
X-5261293Y-3048000D01*
X-5258435Y-3050540D01*
X-5258435Y-3053080D01*
X-5261293Y-3055620D01*
X-5275580Y-3055620D01*
X-5275580Y-3048000D02*
X-5261293Y-3048000D01*
X-5252720Y-3058160D02*
X-5235575Y-3058160D01*
X-5229860Y-3053080D02*
X-5227003Y-3055620D01*
X-5215573Y-3055620D01*
X-5212715Y-3053080D01*
X-5212715Y-3050540D01*
X-5215573Y-3048000D01*
X-5227003Y-3048000D01*
X-5229860Y-3045460D01*
X-5229860Y-3042920D01*
X-5227003Y-3040380D01*
X-5215573Y-3040380D01*
X-5212715Y-3042920D01*
X-5207000Y-3040380D02*
X-5207000Y-3053080D01*
X-5204143Y-3055620D01*
X-5192713Y-3055620D01*
X-5189855Y-3053080D01*
X-5189855Y-3040380D01*
X-5184140Y-3055620D02*
X-5184140Y-3040380D01*
X-5169853Y-3040380D01*
X-5166995Y-3042920D01*
X-5166995Y-3045460D01*
X-5169853Y-3048000D01*
X-5184140Y-3048000D01*
X-5161280Y-3055620D02*
X-5161280Y-3040380D01*
X-5146993Y-3040380D01*
X-5144135Y-3042920D01*
X-5144135Y-3045460D01*
X-5146993Y-3048000D01*
X-5161280Y-3048000D01*
X-5138420Y-3040380D02*
X-5138420Y-3055620D01*
X-5121275Y-3055620D01*
X-5098415Y-3040380D02*
X-5115560Y-3055620D01*
X-5115560Y-3040380D02*
X-5106988Y-3048000D01*
D40*
X-5344160Y-3439160D02*
X-5069840Y-3439160D01*
X-5069840Y-3164840D01*
X-5344160Y-3164840D01*
X-5344160Y-3439160D01*
D120*
X-5321298Y-3276601D02*
X-5321298Y-3302000D01*
X-5292724Y-3327400D01*
X-5264149Y-3302000D01*
X-5264149Y-3276601D01*
X-5187950Y-3276601D02*
X-5235575Y-3276601D01*
X-5235575Y-3293534D01*
X-5197475Y-3293534D01*
X-5187950Y-3302000D01*
X-5187950Y-3318934D01*
X-5197475Y-3327400D01*
X-5226050Y-3327400D01*
X-5235575Y-3318934D01*
X-5168900Y-3302000D02*
X-5111751Y-3302000D01*
X-5140326Y-3285067D02*
X-5140326Y-3318934D01*
D40*
X-5344160Y-3693160D02*
X-5069840Y-3693160D01*
X-5069840Y-3418840D01*
X-5344160Y-3418840D01*
X-5344160Y-3693160D01*
D120*
X-5321298Y-3530601D02*
X-5321298Y-3556000D01*
X-5292724Y-3581400D01*
X-5264149Y-3556000D01*
X-5264149Y-3530601D01*
X-5187950Y-3530601D02*
X-5235575Y-3530601D01*
X-5235575Y-3547534D01*
X-5197475Y-3547534D01*
X-5187950Y-3556000D01*
X-5187950Y-3572934D01*
X-5197475Y-3581400D01*
X-5226050Y-3581400D01*
X-5235575Y-3572934D01*
X-5159376Y-3556000D02*
X-5111751Y-3556000D01*
D40*
X-4770120Y-2076450D02*
X-3602990Y-2076450D01*
X-3602990Y-1377950D01*
X-4770120Y-1377950D01*
X-4770120Y-2076450D01*
D99*
X-3952240Y-1727200D02*
X-3952240Y-1727200D01*
D100*
X-4492853Y-1912670D02*
X-4389814Y-1912670D01*
X-4369206Y-1889487D01*
X-4369206Y-1796752D01*
X-4389814Y-1773568D01*
X-4492853Y-1773568D01*
X-4451637Y-1680833D02*
X-4492853Y-1634465D01*
X-4369206Y-1634465D01*
D40*
X-4794250Y-1111250D02*
X-3627120Y-1111250D01*
X-3627120Y-412750D01*
X-4794250Y-412750D01*
X-4794250Y-1111250D01*
D99*
X-4445000Y-762000D02*
X-4445000Y-762000D01*
D100*
X-4028033Y-947470D02*
X-3924994Y-947470D01*
X-3904386Y-924287D01*
X-3904386Y-831552D01*
X-3924994Y-808368D01*
X-4028033Y-808368D01*
X-4007425Y-738817D02*
X-4028033Y-715633D01*
X-4028033Y-646082D01*
X-4007425Y-622898D01*
X-3986817Y-622898D01*
X-3966210Y-646082D01*
X-3966210Y-715633D01*
X-3945602Y-738817D01*
X-3904386Y-738817D01*
X-3904386Y-622898D01*
D40*
X-4794250Y-158750D02*
X-3627120Y-158750D01*
X-3627120Y+539750D01*
X-4794250Y+539750D01*
X-4794250Y-158750D01*
D99*
X-4445000Y+190500D02*
X-4445000Y+190500D01*
D100*
X-4028033Y+5030D02*
X-3924994Y+5030D01*
X-3904386Y+28213D01*
X-3904386Y+120948D01*
X-3924994Y+144132D01*
X-4028033Y+144132D01*
X-4007425Y+213683D02*
X-4028033Y+236867D01*
X-4028033Y+306418D01*
X-4007425Y+329602D01*
X-3986817Y+329602D01*
X-3966210Y+306418D01*
X-3945602Y+329602D01*
X-3924994Y+329602D01*
X-3904386Y+306418D01*
X-3904386Y+236867D01*
X-3924994Y+213683D01*
X-3966210Y+260051D02*
X-3966210Y+306418D01*
D86*
X-4728120Y-1359600D02*
X-4258120Y-1359600D01*
X-4258120Y-1129600D01*
X-4728120Y-1129600D01*
X-4728120Y-1359600D01*
X-4493120Y-1194600D02*
X-4493120Y-1294600D01*
X-4443120Y-1244600D02*
X-4543120Y-1244600D01*
D91*
X-4643120Y-1244600D02*
X-4643120Y-1244600D01*
D92*
X-4505836Y-1266674D02*
X-4518252Y-1277711D01*
X-4555502Y-1277711D01*
X-4580335Y-1255637D01*
X-4580335Y-1233563D01*
X-4555502Y-1211489D01*
X-4518252Y-1211489D01*
X-4505836Y-1222526D01*
X-4481002Y-1277711D02*
X-4481002Y-1233563D01*
X-4456169Y-1211489D01*
X-4431336Y-1211489D01*
X-4406503Y-1233563D01*
X-4406503Y-1277711D01*
X-4481002Y-1255637D02*
X-4406503Y-1255637D01*
X-4369253Y-1211489D02*
X-4307170Y-1211489D01*
X-4307170Y-1222526D01*
X-4369253Y-1277711D01*
D40*
X-5344160Y-3947160D02*
X-5069840Y-3947160D01*
X-5069840Y-3672840D01*
X-5344160Y-3672840D01*
X-5344160Y-3947160D01*
D90*
X-5314157Y-3797300D02*
X-5307013Y-3790950D01*
X-5285582Y-3790950D01*
X-5278438Y-3797300D01*
X-5278438Y-3803650D01*
X-5285582Y-3810000D01*
X-5278438Y-3816350D01*
X-5278438Y-3822700D01*
X-5285582Y-3829050D01*
X-5307013Y-3829050D01*
X-5314157Y-3822700D01*
X-5299869Y-3810000D02*
X-5285582Y-3810000D01*
X-5264150Y-3790950D02*
X-5264150Y-3810000D01*
X-5242719Y-3829050D01*
X-5221288Y-3810000D01*
X-5221288Y-3790950D01*
X-5199857Y-3797300D02*
X-5192713Y-3790950D01*
X-5171282Y-3790950D01*
X-5164138Y-3797300D01*
X-5164138Y-3803650D01*
X-5171282Y-3810000D01*
X-5164138Y-3816350D01*
X-5164138Y-3822700D01*
X-5171282Y-3829050D01*
X-5192713Y-3829050D01*
X-5199857Y-3822700D01*
X-5185569Y-3810000D02*
X-5171282Y-3810000D01*
X-5149850Y-3810000D02*
X-5106988Y-3810000D01*
X-5128419Y-3797300D02*
X-5128419Y-3822700D01*
D40*
X-4772660Y+1767840D02*
X-4498340Y+1767840D01*
X-4498340Y+2042160D01*
X-4772660Y+2042160D01*
X-4772660Y+1767840D01*
D90*
X-4654550Y+1790700D02*
X-4635500Y+1790700D01*
X-4616450Y+1812131D01*
X-4635500Y+1833562D01*
X-4654550Y+1833562D01*
X-4641850Y+1862137D02*
X-4654550Y+1876425D01*
X-4616450Y+1876425D01*
X-4654550Y+1905000D02*
X-4616450Y+1905000D01*
X-4616450Y+1947862D01*
X-4622800Y+1962150D02*
X-4616450Y+1969293D01*
X-4616450Y+1997868D01*
X-4622800Y+2005012D01*
X-4629150Y+2005012D01*
X-4635500Y+1997868D01*
X-4635500Y+1969293D01*
X-4641850Y+1962150D01*
X-4648200Y+1962150D01*
X-4654550Y+1969293D01*
X-4654550Y+1997868D01*
X-4648200Y+2005012D01*
D86*
X-2498000Y-2528000D02*
X-2038000Y-2528000D01*
X-2038000Y-2298000D01*
X-2498000Y-2298000D01*
X-2498000Y-2528000D01*
X-2268000Y-2363000D02*
X-2268000Y-2463000D01*
X-2218000Y-2413000D02*
X-2318000Y-2413000D01*
D91*
X-2413000Y-2413000D02*
X-2413000Y-2413000D01*
D111*
X-2350716Y-2437084D02*
X-2350716Y-2388917D01*
X-2305560Y-2388917D01*
X-2296529Y-2396945D01*
X-2296529Y-2404973D01*
X-2305560Y-2413000D01*
X-2350716Y-2413000D01*
X-2305560Y-2413000D02*
X-2296529Y-2421028D01*
X-2296529Y-2437084D01*
X-2278466Y-2388917D02*
X-2278466Y-2413000D01*
X-2251373Y-2437084D01*
X-2224279Y-2413000D01*
X-2224279Y-2388917D01*
X-2188154Y-2404973D02*
X-2170091Y-2388917D01*
X-2170091Y-2437084D01*
X-2115904Y-2413000D02*
X-2124935Y-2404973D01*
X-2124935Y-2396945D01*
X-2115904Y-2388917D01*
X-2088810Y-2388917D01*
X-2079779Y-2396945D01*
X-2079779Y-2404973D01*
X-2088810Y-2413000D01*
X-2115904Y-2413000D01*
X-2124935Y-2421028D01*
X-2124935Y-2429056D01*
X-2115904Y-2437084D01*
X-2088810Y-2437084D01*
X-2079779Y-2429056D01*
X-2079779Y-2421028D01*
X-2088810Y-2413000D01*
D86*
X-275500Y-2528000D02*
X+184500Y-2528000D01*
X+184500Y-2298000D01*
X-275500Y-2298000D01*
X-275500Y-2528000D01*
X-45500Y-2363000D02*
X-45500Y-2463000D01*
X+4500Y-2413000D02*
X-95500Y-2413000D01*
D91*
X-190500Y-2413000D02*
X-190500Y-2413000D01*
D111*
X-128216Y-2437084D02*
X-128216Y-2388917D01*
X-83060Y-2388917D01*
X-74029Y-2396945D01*
X-74029Y-2404973D01*
X-83060Y-2413000D01*
X-128216Y-2413000D01*
X-83060Y-2413000D02*
X-74029Y-2421028D01*
X-74029Y-2437084D01*
X-55966Y-2388917D02*
X-55966Y-2413000D01*
X-28873Y-2437084D01*
X-1779Y-2413000D01*
X-1779Y-2388917D01*
X+34346Y-2404973D02*
X+52409Y-2388917D01*
X+52409Y-2437084D01*
X+142721Y-2404973D02*
X+133690Y-2413000D01*
X+106596Y-2413000D01*
X+97565Y-2404973D01*
X+97565Y-2396945D01*
X+106596Y-2388917D01*
X+133690Y-2388917D01*
X+142721Y-2396945D01*
X+142721Y-2429056D01*
X+133690Y-2437084D01*
X+106596Y-2437084D01*
D86*
X+2010500Y-2528000D02*
X+2470500Y-2528000D01*
X+2470500Y-2298000D01*
X+2010500Y-2298000D01*
X+2010500Y-2528000D01*
X+2240500Y-2363000D02*
X+2240500Y-2463000D01*
X+2290500Y-2413000D02*
X+2190500Y-2413000D01*
D91*
X+2095500Y-2413000D02*
X+2095500Y-2413000D01*
D111*
X+2157784Y-2437084D02*
X+2157784Y-2388917D01*
X+2202940Y-2388917D01*
X+2211971Y-2396945D01*
X+2211971Y-2404973D01*
X+2202940Y-2413000D01*
X+2157784Y-2413000D01*
X+2202940Y-2413000D02*
X+2211971Y-2421028D01*
X+2211971Y-2437084D01*
X+2230034Y-2388917D02*
X+2230034Y-2413000D01*
X+2257127Y-2437084D01*
X+2284221Y-2413000D01*
X+2284221Y-2388917D01*
X+2311315Y-2396945D02*
X+2320346Y-2388917D01*
X+2347440Y-2388917D01*
X+2356471Y-2396945D01*
X+2356471Y-2404973D01*
X+2347440Y-2413000D01*
X+2356471Y-2421028D01*
X+2356471Y-2429056D01*
X+2347440Y-2437084D01*
X+2320346Y-2437084D01*
X+2311315Y-2429056D01*
X+2329377Y-2413000D02*
X+2347440Y-2413000D01*
X+2374534Y-2429056D02*
X+2374534Y-2396945D01*
X+2383565Y-2388917D01*
X+2419690Y-2388917D01*
X+2428721Y-2396945D01*
X+2428721Y-2429056D01*
X+2419690Y-2437084D01*
X+2383565Y-2437084D01*
X+2374534Y-2429056D01*
X+2374534Y-2437084D02*
X+2428721Y-2388917D01*
D86*
X+4296500Y-2528000D02*
X+4756500Y-2528000D01*
X+4756500Y-2298000D01*
X+4296500Y-2298000D01*
X+4296500Y-2528000D01*
X+4526500Y-2363000D02*
X+4526500Y-2463000D01*
X+4576500Y-2413000D02*
X+4476500Y-2413000D01*
D91*
X+4381500Y-2413000D02*
X+4381500Y-2413000D01*
D111*
X+4443784Y-2437084D02*
X+4443784Y-2388917D01*
X+4488940Y-2388917D01*
X+4497971Y-2396945D01*
X+4497971Y-2404973D01*
X+4488940Y-2413000D01*
X+4443784Y-2413000D01*
X+4488940Y-2413000D02*
X+4497971Y-2421028D01*
X+4497971Y-2437084D01*
X+4516034Y-2388917D02*
X+4516034Y-2413000D01*
X+4543127Y-2437084D01*
X+4570221Y-2413000D01*
X+4570221Y-2388917D01*
X+4597315Y-2396945D02*
X+4606346Y-2388917D01*
X+4633440Y-2388917D01*
X+4642471Y-2396945D01*
X+4642471Y-2404973D01*
X+4633440Y-2413000D01*
X+4642471Y-2421028D01*
X+4642471Y-2429056D01*
X+4633440Y-2437084D01*
X+4606346Y-2437084D01*
X+4597315Y-2429056D01*
X+4615377Y-2413000D02*
X+4633440Y-2413000D01*
X+4678596Y-2404973D02*
X+4696659Y-2388917D01*
X+4696659Y-2437084D01*
D86*
X+6646000Y-2528000D02*
X+7106000Y-2528000D01*
X+7106000Y-2298000D01*
X+6646000Y-2298000D01*
X+6646000Y-2528000D01*
X+6876000Y-2363000D02*
X+6876000Y-2463000D01*
X+6926000Y-2413000D02*
X+6826000Y-2413000D01*
D91*
X+6731000Y-2413000D02*
X+6731000Y-2413000D01*
D111*
X+6793284Y-2437084D02*
X+6793284Y-2388917D01*
X+6838440Y-2388917D01*
X+6847471Y-2396945D01*
X+6847471Y-2404973D01*
X+6838440Y-2413000D01*
X+6793284Y-2413000D01*
X+6838440Y-2413000D02*
X+6847471Y-2421028D01*
X+6847471Y-2437084D01*
X+6865534Y-2388917D02*
X+6865534Y-2413000D01*
X+6892627Y-2437084D01*
X+6919721Y-2413000D01*
X+6919721Y-2388917D01*
X+6991971Y-2421028D02*
X+6937784Y-2421028D01*
X+6973909Y-2388917D01*
X+6973909Y-2437084D01*
X+7019065Y-2396945D02*
X+7028096Y-2388917D01*
X+7055190Y-2388917D01*
X+7064221Y-2396945D01*
X+7064221Y-2404973D01*
X+7055190Y-2413000D01*
X+7028096Y-2413000D01*
X+7019065Y-2421028D01*
X+7019065Y-2437084D01*
X+7064221Y-2437084D01*
D40*
X-7249160Y-635000D02*
X-6212840Y-635000D01*
X-6212840Y+635000D01*
X-7249160Y+635000D01*
X-7249160Y-635000D01*
D41*
X-6731000Y-444500D02*
X-6731000Y-444500D01*
D121*
X-6792951Y+78282D02*
X-6823926Y+50749D01*
X-6916852Y+50749D01*
X-6978802Y+105816D01*
X-6978802Y+160883D01*
X-6916852Y+215950D01*
X-6823926Y+215950D01*
X-6792951Y+188417D01*
X-6669050Y+160883D02*
X-6607099Y+215950D01*
X-6607099Y+50749D01*
D40*
X-5695950Y-1472080D02*
X-5397500Y-1472080D01*
X-5397500Y-1321920D01*
X-5695950Y-1321920D01*
X-5695950Y-1472080D01*
D105*
X-5664200Y-1397000D02*
X-5664200Y-1397000D01*
D106*
X-5590540Y-1419860D02*
X-5590540Y-1374140D01*
X-5556250Y-1374140D01*
X-5539105Y-1389380D01*
X-5539105Y-1404620D01*
X-5556250Y-1419860D01*
X-5590540Y-1419860D01*
X-5504815Y-1389380D02*
X-5487670Y-1374140D01*
X-5487670Y-1419860D01*
D40*
X-7200900Y-1967716D02*
X-5334000Y-1967716D01*
X-5334000Y-824716D01*
X-7200900Y-824716D01*
X-7200900Y-1967716D01*
D122*
X-6756400Y-1396216D02*
X-6756400Y-1396216D01*
D123*
X-6209181Y-1365296D02*
X-6139611Y-1303456D01*
X-6070041Y-1303456D01*
X-6000471Y-1365296D01*
X-6000471Y-1427137D01*
X-6070041Y-1488977D01*
X-6139611Y-1488977D01*
X-6209181Y-1427137D01*
X-6209181Y-1365296D01*
X-6070041Y-1427137D02*
X-6000471Y-1488977D01*
X-5861330Y-1365296D02*
X-5791760Y-1303456D01*
X-5791760Y-1488977D01*
D86*
X-5276500Y-1853500D02*
X-5736500Y-1853500D01*
X-5736500Y-2083500D01*
X-5276500Y-2083500D01*
X-5276500Y-1853500D01*
X-5506500Y-2018500D02*
X-5506500Y-1918500D01*
X-5556500Y-1968500D02*
X-5456500Y-1968500D01*
D91*
X-5361500Y-1968500D02*
X-5361500Y-1968500D01*
D111*
X-5712784Y-1992584D02*
X-5712784Y-1944417D01*
X-5667628Y-1944417D01*
X-5658597Y-1952445D01*
X-5658597Y-1960473D01*
X-5667628Y-1968500D01*
X-5712784Y-1968500D01*
X-5667628Y-1968500D02*
X-5658597Y-1976528D01*
X-5658597Y-1992584D01*
X-5622472Y-1960473D02*
X-5604409Y-1944417D01*
X-5604409Y-1992584D01*
X-5568284Y-1984556D02*
X-5568284Y-1952445D01*
X-5559253Y-1944417D01*
X-5523128Y-1944417D01*
X-5514097Y-1952445D01*
X-5514097Y-1984556D01*
X-5523128Y-1992584D01*
X-5559253Y-1992584D01*
X-5568284Y-1984556D01*
X-5568284Y-1992584D02*
X-5514097Y-1944417D01*
X-5477972Y-1960473D02*
X-5459909Y-1944417D01*
X-5459909Y-1992584D01*
D40*
X-6223000Y-581660D02*
X-4953000Y-581660D01*
X-4953000Y+454660D01*
X-6223000Y+454660D01*
X-6223000Y-581660D01*
D41*
X-6032500Y-63500D02*
X-6032500Y-63500D01*
D121*
X-5399582Y-125451D02*
X-5372049Y-156426D01*
X-5372049Y-249352D01*
X-5427116Y-311302D01*
X-5482183Y-311302D01*
X-5537250Y-249352D01*
X-5537250Y-156426D01*
X-5509717Y-125451D01*
X-5509717Y-32525D02*
X-5537250Y-1550D01*
X-5537250Y+91376D01*
X-5509717Y+122351D01*
X-5482183Y+122351D01*
X-5454650Y+91376D01*
X-5454650Y-1550D01*
X-5427116Y-32525D01*
X-5372049Y-32525D01*
X-5372049Y+122351D01*
D40*
X-6667500Y+624840D02*
X-5397500Y+624840D01*
X-5397500Y+1661160D01*
X-6667500Y+1661160D01*
X-6667500Y+624840D01*
D41*
X-6477000Y+1143000D02*
X-6477000Y+1143000D01*
D121*
X-5844082Y+1081049D02*
X-5816549Y+1050074D01*
X-5816549Y+957148D01*
X-5871616Y+895198D01*
X-5926683Y+895198D01*
X-5981750Y+957148D01*
X-5981750Y+1050074D01*
X-5954217Y+1081049D01*
X-5954217Y+1173975D02*
X-5981750Y+1204950D01*
X-5981750Y+1297876D01*
X-5954217Y+1328851D01*
X-5926683Y+1328851D01*
X-5899150Y+1297876D01*
X-5871616Y+1328851D01*
X-5844082Y+1328851D01*
X-5816549Y+1297876D01*
X-5816549Y+1204950D01*
X-5844082Y+1173975D01*
X-5899150Y+1235925D02*
X-5899150Y+1297876D01*
M02*
