G04 PROTEUS RS274X GERBER FILE*
%FSLAX45Y45*%
%MOMM*%
G01*
%ADD40C,0.203200*%
%ADD115C,0.127000*%
%ADD90C,0.063500*%
D40*
X-1314901Y-2368099D02*
X-1225099Y-2457901D01*
X-1314901Y-2457901D02*
X-1225099Y-2368099D01*
X+5987599Y-2050599D02*
X+6077401Y-2140401D01*
X+5987599Y-2140401D02*
X+6077401Y-2050599D01*
X+1034599Y-2368099D02*
X+1124401Y-2457901D01*
X+1034599Y-2457901D02*
X+1124401Y-2368099D01*
X+3429000Y-3238500D02*
X+3429000Y-3365500D01*
X+3365500Y-3302000D02*
X+3492500Y-3302000D01*
X+8083099Y-2685599D02*
X+8172901Y-2775401D01*
X+8083099Y-2775401D02*
X+8172901Y-2685599D01*
X-3029401Y+1632401D02*
X-2939599Y+1542599D01*
X-3029401Y+1542599D02*
X-2939599Y+1632401D01*
X-616401Y+1695901D02*
X-526599Y+1606099D01*
X-616401Y+1606099D02*
X-526599Y+1695901D01*
X+1669599Y+1695901D02*
X+1759401Y+1606099D01*
X+1669599Y+1606099D02*
X+1759401Y+1695901D01*
X+4089445Y+1689910D02*
X+4179247Y+1600108D01*
X+4089445Y+1600108D02*
X+4179247Y+1689910D01*
X+5733599Y+2013401D02*
X+5823401Y+1923599D01*
X+5733599Y+1923599D02*
X+5823401Y+2013401D01*
X+6392255Y+1751930D02*
X+6482057Y+1662128D01*
X+6392255Y+1662128D02*
X+6482057Y+1751930D01*
X+3320599Y+2140401D02*
X+3410401Y+2050599D01*
X+3320599Y+2050599D02*
X+3410401Y+2140401D01*
X+907599Y+2140401D02*
X+997401Y+2050599D01*
X+907599Y+2050599D02*
X+997401Y+2140401D01*
X-1378401Y+2140401D02*
X-1288599Y+2050599D01*
X-1378401Y+2050599D02*
X-1288599Y+2140401D01*
X-4680401Y-2431599D02*
X-4590599Y-2521401D01*
X-4680401Y-2521401D02*
X-4590599Y-2431599D01*
X-3219901Y-3828599D02*
X-3130099Y-3918401D01*
X-3219901Y-3918401D02*
X-3130099Y-3828599D01*
X-3791401Y+235401D02*
X-3701599Y+145599D01*
X-3791401Y+145599D02*
X-3701599Y+235401D01*
X-4308862Y+1999984D02*
X-4219060Y+1910182D01*
X-4308862Y+1910182D02*
X-4219060Y+1999984D01*
X+1161599Y-2825299D02*
X+1251401Y-2915101D01*
X+1161599Y-2915101D02*
X+1251401Y-2825299D01*
X-5439461Y+763587D02*
X-5349659Y+673785D01*
X-5439461Y+673785D02*
X-5349659Y+763587D01*
X-3755866Y-694264D02*
X-3666064Y-784066D01*
X-3755866Y-784066D02*
X-3666064Y-694264D01*
X-3624420Y-3747224D02*
X-3534618Y-3837026D01*
X-3624420Y-3837026D02*
X-3534618Y-3747224D01*
X-3588201Y-2837999D02*
X-3498399Y-2927801D01*
X-3588201Y-2927801D02*
X-3498399Y-2837999D01*
X+4649496Y-3000365D02*
X+4739298Y-3090167D01*
X+4649496Y-3090167D02*
X+4739298Y-3000365D01*
X+6705716Y-2883708D02*
X+6795518Y-2973510D01*
X+6705716Y-2973510D02*
X+6795518Y-2883708D01*
X-1099001Y-2926899D02*
X-1009199Y-3016701D01*
X-1099001Y-3016701D02*
X-1009199Y-2926899D01*
X-6985000Y-2476500D02*
X-6985217Y-2471253D01*
X-6986982Y-2460758D01*
X-6990674Y-2450263D01*
X-6996702Y-2439768D01*
X-7005924Y-2429388D01*
X-7016419Y-2421700D01*
X-7026914Y-2416782D01*
X-7037409Y-2413976D01*
X-7047904Y-2413003D01*
X-7048500Y-2413000D01*
X-7112000Y-2476500D02*
X-7111783Y-2471253D01*
X-7110018Y-2460758D01*
X-7106326Y-2450263D01*
X-7100298Y-2439768D01*
X-7091076Y-2429388D01*
X-7080581Y-2421700D01*
X-7070086Y-2416782D01*
X-7059591Y-2413976D01*
X-7049096Y-2413003D01*
X-7048500Y-2413000D01*
X-7112000Y-2476500D02*
X-7111783Y-2481747D01*
X-7110018Y-2492242D01*
X-7106326Y-2502737D01*
X-7100298Y-2513232D01*
X-7091076Y-2523612D01*
X-7080581Y-2531300D01*
X-7070086Y-2536218D01*
X-7059591Y-2539024D01*
X-7049096Y-2539997D01*
X-7048500Y-2540000D01*
X-6985000Y-2476500D02*
X-6985217Y-2481747D01*
X-6986982Y-2492242D01*
X-6990674Y-2502737D01*
X-6996702Y-2513232D01*
X-7005924Y-2523612D01*
X-7016419Y-2531300D01*
X-7026914Y-2536218D01*
X-7037409Y-2539024D01*
X-7047904Y-2539997D01*
X-7048500Y-2540000D01*
X-7093401Y-2431599D02*
X-7003599Y-2521401D01*
X-7093401Y-2521401D02*
X-7003599Y-2431599D01*
X-6985000Y-2921000D02*
X-6985217Y-2915753D01*
X-6986982Y-2905258D01*
X-6990674Y-2894763D01*
X-6996702Y-2884268D01*
X-7005924Y-2873888D01*
X-7016419Y-2866200D01*
X-7026914Y-2861282D01*
X-7037409Y-2858476D01*
X-7047904Y-2857503D01*
X-7048500Y-2857500D01*
X-7112000Y-2921000D02*
X-7111783Y-2915753D01*
X-7110018Y-2905258D01*
X-7106326Y-2894763D01*
X-7100298Y-2884268D01*
X-7091076Y-2873888D01*
X-7080581Y-2866200D01*
X-7070086Y-2861282D01*
X-7059591Y-2858476D01*
X-7049096Y-2857503D01*
X-7048500Y-2857500D01*
X-7112000Y-2921000D02*
X-7111783Y-2926247D01*
X-7110018Y-2936742D01*
X-7106326Y-2947237D01*
X-7100298Y-2957732D01*
X-7091076Y-2968112D01*
X-7080581Y-2975800D01*
X-7070086Y-2980718D01*
X-7059591Y-2983524D01*
X-7049096Y-2984497D01*
X-7048500Y-2984500D01*
X-6985000Y-2921000D02*
X-6985217Y-2926247D01*
X-6986982Y-2936742D01*
X-6990674Y-2947237D01*
X-6996702Y-2957732D01*
X-7005924Y-2968112D01*
X-7016419Y-2975800D01*
X-7026914Y-2980718D01*
X-7037409Y-2983524D01*
X-7047904Y-2984497D01*
X-7048500Y-2984500D01*
X-7093401Y-2876099D02*
X-7003599Y-2965901D01*
X-7093401Y-2965901D02*
X-7003599Y-2876099D01*
X-1765300Y+1841500D02*
X-1765517Y+1846747D01*
X-1767282Y+1857242D01*
X-1770974Y+1867737D01*
X-1777002Y+1878232D01*
X-1786224Y+1888612D01*
X-1796719Y+1896300D01*
X-1807214Y+1901218D01*
X-1817709Y+1904024D01*
X-1828204Y+1904997D01*
X-1828800Y+1905000D01*
X-1892300Y+1841500D02*
X-1892083Y+1846747D01*
X-1890318Y+1857242D01*
X-1886626Y+1867737D01*
X-1880598Y+1878232D01*
X-1871376Y+1888612D01*
X-1860881Y+1896300D01*
X-1850386Y+1901218D01*
X-1839891Y+1904024D01*
X-1829396Y+1904997D01*
X-1828800Y+1905000D01*
X-1892300Y+1841500D02*
X-1892083Y+1836253D01*
X-1890318Y+1825758D01*
X-1886626Y+1815263D01*
X-1880598Y+1804768D01*
X-1871376Y+1794388D01*
X-1860881Y+1786700D01*
X-1850386Y+1781782D01*
X-1839891Y+1778976D01*
X-1829396Y+1778003D01*
X-1828800Y+1778000D01*
X-1765300Y+1841500D02*
X-1765517Y+1836253D01*
X-1767282Y+1825758D01*
X-1770974Y+1815263D01*
X-1777002Y+1804768D01*
X-1786224Y+1794388D01*
X-1796719Y+1786700D01*
X-1807214Y+1781782D01*
X-1817709Y+1778976D01*
X-1828204Y+1778003D01*
X-1828800Y+1778000D01*
X-1828800Y+1905000D02*
X-1828800Y+1778000D01*
X-1892300Y+1841500D02*
X-1765300Y+1841500D01*
X-2921000Y-3492500D02*
X-2921000Y-3619500D01*
X-2984500Y-3556000D02*
X-2857500Y-3556000D01*
X-2965901Y-3511099D02*
X-2876099Y-3600901D01*
X-2965901Y-3600901D02*
X-2876099Y-3511099D01*
X-2921000Y-2984500D02*
X-2921000Y-3111500D01*
X-2984500Y-3048000D02*
X-2857500Y-3048000D01*
X-2965901Y-3003099D02*
X-2876099Y-3092901D01*
X-2965901Y-3092901D02*
X-2876099Y-3003099D01*
X-2921000Y-3238500D02*
X-2921000Y-3365500D01*
X-2984500Y-3302000D02*
X-2857500Y-3302000D01*
X-2965901Y-3257099D02*
X-2876099Y-3346901D01*
X-2965901Y-3346901D02*
X-2876099Y-3257099D01*
X+495300Y+1841500D02*
X+495083Y+1846747D01*
X+493318Y+1857242D01*
X+489626Y+1867737D01*
X+483598Y+1878232D01*
X+474376Y+1888612D01*
X+463881Y+1896300D01*
X+453386Y+1901218D01*
X+442891Y+1904024D01*
X+432396Y+1904997D01*
X+431800Y+1905000D01*
X+368300Y+1841500D02*
X+368517Y+1846747D01*
X+370282Y+1857242D01*
X+373974Y+1867737D01*
X+380002Y+1878232D01*
X+389224Y+1888612D01*
X+399719Y+1896300D01*
X+410214Y+1901218D01*
X+420709Y+1904024D01*
X+431204Y+1904997D01*
X+431800Y+1905000D01*
X+368300Y+1841500D02*
X+368517Y+1836253D01*
X+370282Y+1825758D01*
X+373974Y+1815263D01*
X+380002Y+1804768D01*
X+389224Y+1794388D01*
X+399719Y+1786700D01*
X+410214Y+1781782D01*
X+420709Y+1778976D01*
X+431204Y+1778003D01*
X+431800Y+1778000D01*
X+495300Y+1841500D02*
X+495083Y+1836253D01*
X+493318Y+1825758D01*
X+489626Y+1815263D01*
X+483598Y+1804768D01*
X+474376Y+1794388D01*
X+463881Y+1786700D01*
X+453386Y+1781782D01*
X+442891Y+1778976D01*
X+432396Y+1778003D01*
X+431800Y+1778000D01*
X+431800Y+1905000D02*
X+431800Y+1778000D01*
X+368300Y+1841500D02*
X+495300Y+1841500D01*
X-762000Y-3492500D02*
X-762000Y-3619500D01*
X-825500Y-3556000D02*
X-698500Y-3556000D01*
X-806901Y-3511099D02*
X-717099Y-3600901D01*
X-806901Y-3600901D02*
X-717099Y-3511099D01*
X-762000Y-3238500D02*
X-762000Y-3365500D01*
X-825500Y-3302000D02*
X-698500Y-3302000D01*
X-806901Y-3257099D02*
X-717099Y-3346901D01*
X-806901Y-3346901D02*
X-717099Y-3257099D01*
X-762000Y-2984500D02*
X-762000Y-3111500D01*
X-825500Y-3048000D02*
X-698500Y-3048000D01*
X-806901Y-3003099D02*
X-717099Y-3092901D01*
X-806901Y-3092901D02*
X-717099Y-3003099D01*
X+1587500Y-3238500D02*
X+1587500Y-3365500D01*
X+1524000Y-3302000D02*
X+1651000Y-3302000D01*
X+1542599Y-3257099D02*
X+1632401Y-3346901D01*
X+1542599Y-3346901D02*
X+1632401Y-3257099D01*
X+1587500Y-3492500D02*
X+1587500Y-3619500D01*
X+1524000Y-3556000D02*
X+1651000Y-3556000D01*
X+1542599Y-3511099D02*
X+1632401Y-3600901D01*
X+1542599Y-3600901D02*
X+1632401Y-3511099D01*
X+1587500Y-2984500D02*
X+1587500Y-3111500D01*
X+1524000Y-3048000D02*
X+1651000Y-3048000D01*
X+1542599Y-3003099D02*
X+1632401Y-3092901D01*
X+1542599Y-3092901D02*
X+1632401Y-3003099D01*
X+2743200Y+1841500D02*
X+2742983Y+1846747D01*
X+2741218Y+1857242D01*
X+2737526Y+1867737D01*
X+2731498Y+1878232D01*
X+2722276Y+1888612D01*
X+2711781Y+1896300D01*
X+2701286Y+1901218D01*
X+2690791Y+1904024D01*
X+2680296Y+1904997D01*
X+2679700Y+1905000D01*
X+2616200Y+1841500D02*
X+2616417Y+1846747D01*
X+2618182Y+1857242D01*
X+2621874Y+1867737D01*
X+2627902Y+1878232D01*
X+2637124Y+1888612D01*
X+2647619Y+1896300D01*
X+2658114Y+1901218D01*
X+2668609Y+1904024D01*
X+2679104Y+1904997D01*
X+2679700Y+1905000D01*
X+2616200Y+1841500D02*
X+2616417Y+1836253D01*
X+2618182Y+1825758D01*
X+2621874Y+1815263D01*
X+2627902Y+1804768D01*
X+2637124Y+1794388D01*
X+2647619Y+1786700D01*
X+2658114Y+1781782D01*
X+2668609Y+1778976D01*
X+2679104Y+1778003D01*
X+2679700Y+1778000D01*
X+2743200Y+1841500D02*
X+2742983Y+1836253D01*
X+2741218Y+1825758D01*
X+2737526Y+1815263D01*
X+2731498Y+1804768D01*
X+2722276Y+1794388D01*
X+2711781Y+1786700D01*
X+2701286Y+1781782D01*
X+2690791Y+1778976D01*
X+2680296Y+1778003D01*
X+2679700Y+1778000D01*
X+2679700Y+1905000D02*
X+2679700Y+1778000D01*
X+2616200Y+1841500D02*
X+2743200Y+1841500D01*
X+3937000Y-3492500D02*
X+3937000Y-3619500D01*
X+3873500Y-3556000D02*
X+4000500Y-3556000D01*
X+3892099Y-3511099D02*
X+3981901Y-3600901D01*
X+3892099Y-3600901D02*
X+3981901Y-3511099D01*
X+6223000Y-3492500D02*
X+6223000Y-3619500D01*
X+6159500Y-3556000D02*
X+6286500Y-3556000D01*
X+6178099Y-3511099D02*
X+6267901Y-3600901D01*
X+6178099Y-3600901D02*
X+6267901Y-3511099D01*
X+3937000Y-2984500D02*
X+3937000Y-3111500D01*
X+3873500Y-3048000D02*
X+4000500Y-3048000D01*
X+3892099Y-3003099D02*
X+3981901Y-3092901D01*
X+3892099Y-3092901D02*
X+3981901Y-3003099D01*
X+6223000Y-2984500D02*
X+6223000Y-3111500D01*
X+6159500Y-3048000D02*
X+6286500Y-3048000D01*
X+6178099Y-3003099D02*
X+6267901Y-3092901D01*
X+6178099Y-3092901D02*
X+6267901Y-3003099D01*
X+3937000Y-3238500D02*
X+3937000Y-3365500D01*
X+3873500Y-3302000D02*
X+4000500Y-3302000D01*
X+3892099Y-3257099D02*
X+3981901Y-3346901D01*
X+3892099Y-3346901D02*
X+3981901Y-3257099D01*
X+6223000Y-3238500D02*
X+6223000Y-3365500D01*
X+6159500Y-3302000D02*
X+6286500Y-3302000D01*
X+6178099Y-3257099D02*
X+6267901Y-3346901D01*
X+6178099Y-3346901D02*
X+6267901Y-3257099D01*
X+5016500Y+1841500D02*
X+5016283Y+1846747D01*
X+5014518Y+1857242D01*
X+5010826Y+1867737D01*
X+5004798Y+1878232D01*
X+4995576Y+1888612D01*
X+4985081Y+1896300D01*
X+4974586Y+1901218D01*
X+4964091Y+1904024D01*
X+4953596Y+1904997D01*
X+4953000Y+1905000D01*
X+4889500Y+1841500D02*
X+4889717Y+1846747D01*
X+4891482Y+1857242D01*
X+4895174Y+1867737D01*
X+4901202Y+1878232D01*
X+4910424Y+1888612D01*
X+4920919Y+1896300D01*
X+4931414Y+1901218D01*
X+4941909Y+1904024D01*
X+4952404Y+1904997D01*
X+4953000Y+1905000D01*
X+4889500Y+1841500D02*
X+4889717Y+1836253D01*
X+4891482Y+1825758D01*
X+4895174Y+1815263D01*
X+4901202Y+1804768D01*
X+4910424Y+1794388D01*
X+4920919Y+1786700D01*
X+4931414Y+1781782D01*
X+4941909Y+1778976D01*
X+4952404Y+1778003D01*
X+4953000Y+1778000D01*
X+5016500Y+1841500D02*
X+5016283Y+1836253D01*
X+5014518Y+1825758D01*
X+5010826Y+1815263D01*
X+5004798Y+1804768D01*
X+4995576Y+1794388D01*
X+4985081Y+1786700D01*
X+4974586Y+1781782D01*
X+4964091Y+1778976D01*
X+4953596Y+1778003D01*
X+4953000Y+1778000D01*
X+4953000Y+1905000D02*
X+4953000Y+1778000D01*
X+4889500Y+1841500D02*
X+5016500Y+1841500D01*
X+7226300Y+1841500D02*
X+7226083Y+1846747D01*
X+7224318Y+1857242D01*
X+7220626Y+1867737D01*
X+7214598Y+1878232D01*
X+7205376Y+1888612D01*
X+7194881Y+1896300D01*
X+7184386Y+1901218D01*
X+7173891Y+1904024D01*
X+7163396Y+1904997D01*
X+7162800Y+1905000D01*
X+7099300Y+1841500D02*
X+7099517Y+1846747D01*
X+7101282Y+1857242D01*
X+7104974Y+1867737D01*
X+7111002Y+1878232D01*
X+7120224Y+1888612D01*
X+7130719Y+1896300D01*
X+7141214Y+1901218D01*
X+7151709Y+1904024D01*
X+7162204Y+1904997D01*
X+7162800Y+1905000D01*
X+7099300Y+1841500D02*
X+7099517Y+1836253D01*
X+7101282Y+1825758D01*
X+7104974Y+1815263D01*
X+7111002Y+1804768D01*
X+7120224Y+1794388D01*
X+7130719Y+1786700D01*
X+7141214Y+1781782D01*
X+7151709Y+1778976D01*
X+7162204Y+1778003D01*
X+7162800Y+1778000D01*
X+7226300Y+1841500D02*
X+7226083Y+1836253D01*
X+7224318Y+1825758D01*
X+7220626Y+1815263D01*
X+7214598Y+1804768D01*
X+7205376Y+1794388D01*
X+7194881Y+1786700D01*
X+7184386Y+1781782D01*
X+7173891Y+1778976D01*
X+7163396Y+1778003D01*
X+7162800Y+1778000D01*
X+7162800Y+1905000D02*
X+7162800Y+1778000D01*
X+7099300Y+1841500D02*
X+7226300Y+1841500D01*
X+7112000Y-3238500D02*
X+7112000Y-3365500D01*
X+7048500Y-3302000D02*
X+7175500Y-3302000D01*
X+7067099Y-3257099D02*
X+7156901Y-3346901D01*
X+7067099Y-3346901D02*
X+7156901Y-3257099D01*
X+5461000Y-3238500D02*
X+5461000Y-3365500D01*
X+5397500Y-3302000D02*
X+5524500Y-3302000D01*
X+5416099Y-3257099D02*
X+5505901Y-3346901D01*
X+5416099Y-3346901D02*
X+5505901Y-3257099D01*
X+2984500Y-3238500D02*
X+2984500Y-3365500D01*
X+2921000Y-3302000D02*
X+3048000Y-3302000D01*
X+2939599Y-3257099D02*
X+3029401Y-3346901D01*
X+2939599Y-3346901D02*
X+3029401Y-3257099D01*
X+571500Y-3238500D02*
X+571500Y-3365500D01*
X+508000Y-3302000D02*
X+635000Y-3302000D01*
X+526599Y-3257099D02*
X+616401Y-3346901D01*
X+526599Y-3346901D02*
X+616401Y-3257099D01*
X-1778000Y-3238500D02*
X-1778000Y-3365500D01*
X-1841500Y-3302000D02*
X-1714500Y-3302000D01*
X-1822901Y-3257099D02*
X-1733099Y-3346901D01*
X-1822901Y-3346901D02*
X-1733099Y-3257099D01*
X+7112000Y-3492500D02*
X+7112000Y-3619500D01*
X+7048500Y-3556000D02*
X+7175500Y-3556000D01*
X+7067099Y-3511099D02*
X+7156901Y-3600901D01*
X+7067099Y-3600901D02*
X+7156901Y-3511099D01*
X+5461000Y-3492500D02*
X+5461000Y-3619500D01*
X+5397500Y-3556000D02*
X+5524500Y-3556000D01*
X+5416099Y-3511099D02*
X+5505901Y-3600901D01*
X+5416099Y-3600901D02*
X+5505901Y-3511099D01*
X+2984500Y-3492500D02*
X+2984500Y-3619500D01*
X+2921000Y-3556000D02*
X+3048000Y-3556000D01*
X+2939599Y-3511099D02*
X+3029401Y-3600901D01*
X+2939599Y-3600901D02*
X+3029401Y-3511099D01*
X+571500Y-3492500D02*
X+571500Y-3619500D01*
X+508000Y-3556000D02*
X+635000Y-3556000D01*
X+526599Y-3511099D02*
X+616401Y-3600901D01*
X+526599Y-3600901D02*
X+616401Y-3511099D01*
X-1778000Y-3492500D02*
X-1778000Y-3619500D01*
X-1841500Y-3556000D02*
X-1714500Y-3556000D01*
X-1822901Y-3511099D02*
X-1733099Y-3600901D01*
X-1822901Y-3600901D02*
X-1733099Y-3511099D01*
X+7112000Y-2984500D02*
X+7112000Y-3111500D01*
X+7048500Y-3048000D02*
X+7175500Y-3048000D01*
X+7067099Y-3003099D02*
X+7156901Y-3092901D01*
X+7067099Y-3092901D02*
X+7156901Y-3003099D01*
X+5461000Y-2984500D02*
X+5461000Y-3111500D01*
X+5397500Y-3048000D02*
X+5524500Y-3048000D01*
X+5416099Y-3003099D02*
X+5505901Y-3092901D01*
X+5416099Y-3092901D02*
X+5505901Y-3003099D01*
X+2984500Y-2984500D02*
X+2984500Y-3111500D01*
X+2921000Y-3048000D02*
X+3048000Y-3048000D01*
X+2939599Y-3003099D02*
X+3029401Y-3092901D01*
X+2939599Y-3092901D02*
X+3029401Y-3003099D01*
X+571500Y-2984500D02*
X+571500Y-3111500D01*
X+508000Y-3048000D02*
X+635000Y-3048000D01*
X+526599Y-3003099D02*
X+616401Y-3092901D01*
X+526599Y-3092901D02*
X+616401Y-3003099D01*
X-1778000Y-2984500D02*
X-1778000Y-3111500D01*
X-1841500Y-3048000D02*
X-1714500Y-3048000D01*
X-1822901Y-3003099D02*
X-1733099Y-3092901D01*
X-1822901Y-3092901D02*
X-1733099Y-3003099D01*
X+6781800Y+1841500D02*
X+6781583Y+1846747D01*
X+6779818Y+1857242D01*
X+6776126Y+1867737D01*
X+6770098Y+1878232D01*
X+6760876Y+1888612D01*
X+6750381Y+1896300D01*
X+6739886Y+1901218D01*
X+6729391Y+1904024D01*
X+6718896Y+1904997D01*
X+6718300Y+1905000D01*
X+6654800Y+1841500D02*
X+6655017Y+1846747D01*
X+6656782Y+1857242D01*
X+6660474Y+1867737D01*
X+6666502Y+1878232D01*
X+6675724Y+1888612D01*
X+6686219Y+1896300D01*
X+6696714Y+1901218D01*
X+6707209Y+1904024D01*
X+6717704Y+1904997D01*
X+6718300Y+1905000D01*
X+6654800Y+1841500D02*
X+6655017Y+1836253D01*
X+6656782Y+1825758D01*
X+6660474Y+1815263D01*
X+6666502Y+1804768D01*
X+6675724Y+1794388D01*
X+6686219Y+1786700D01*
X+6696714Y+1781782D01*
X+6707209Y+1778976D01*
X+6717704Y+1778003D01*
X+6718300Y+1778000D01*
X+6781800Y+1841500D02*
X+6781583Y+1836253D01*
X+6779818Y+1825758D01*
X+6776126Y+1815263D01*
X+6770098Y+1804768D01*
X+6760876Y+1794388D01*
X+6750381Y+1786700D01*
X+6739886Y+1781782D01*
X+6729391Y+1778976D01*
X+6718896Y+1778003D01*
X+6718300Y+1778000D01*
X+6718300Y+1905000D02*
X+6718300Y+1778000D01*
X+6654800Y+1841500D02*
X+6781800Y+1841500D01*
X+4559300Y+1841500D02*
X+4559083Y+1846747D01*
X+4557318Y+1857242D01*
X+4553626Y+1867737D01*
X+4547598Y+1878232D01*
X+4538376Y+1888612D01*
X+4527881Y+1896300D01*
X+4517386Y+1901218D01*
X+4506891Y+1904024D01*
X+4496396Y+1904997D01*
X+4495800Y+1905000D01*
X+4432300Y+1841500D02*
X+4432517Y+1846747D01*
X+4434282Y+1857242D01*
X+4437974Y+1867737D01*
X+4444002Y+1878232D01*
X+4453224Y+1888612D01*
X+4463719Y+1896300D01*
X+4474214Y+1901218D01*
X+4484709Y+1904024D01*
X+4495204Y+1904997D01*
X+4495800Y+1905000D01*
X+4432300Y+1841500D02*
X+4432517Y+1836253D01*
X+4434282Y+1825758D01*
X+4437974Y+1815263D01*
X+4444002Y+1804768D01*
X+4453224Y+1794388D01*
X+4463719Y+1786700D01*
X+4474214Y+1781782D01*
X+4484709Y+1778976D01*
X+4495204Y+1778003D01*
X+4495800Y+1778000D01*
X+4559300Y+1841500D02*
X+4559083Y+1836253D01*
X+4557318Y+1825758D01*
X+4553626Y+1815263D01*
X+4547598Y+1804768D01*
X+4538376Y+1794388D01*
X+4527881Y+1786700D01*
X+4517386Y+1781782D01*
X+4506891Y+1778976D01*
X+4496396Y+1778003D01*
X+4495800Y+1778000D01*
X+4495800Y+1905000D02*
X+4495800Y+1778000D01*
X+4432300Y+1841500D02*
X+4559300Y+1841500D01*
X+2286000Y+1841500D02*
X+2285783Y+1846747D01*
X+2284018Y+1857242D01*
X+2280326Y+1867737D01*
X+2274298Y+1878232D01*
X+2265076Y+1888612D01*
X+2254581Y+1896300D01*
X+2244086Y+1901218D01*
X+2233591Y+1904024D01*
X+2223096Y+1904997D01*
X+2222500Y+1905000D01*
X+2159000Y+1841500D02*
X+2159217Y+1846747D01*
X+2160982Y+1857242D01*
X+2164674Y+1867737D01*
X+2170702Y+1878232D01*
X+2179924Y+1888612D01*
X+2190419Y+1896300D01*
X+2200914Y+1901218D01*
X+2211409Y+1904024D01*
X+2221904Y+1904997D01*
X+2222500Y+1905000D01*
X+2159000Y+1841500D02*
X+2159217Y+1836253D01*
X+2160982Y+1825758D01*
X+2164674Y+1815263D01*
X+2170702Y+1804768D01*
X+2179924Y+1794388D01*
X+2190419Y+1786700D01*
X+2200914Y+1781782D01*
X+2211409Y+1778976D01*
X+2221904Y+1778003D01*
X+2222500Y+1778000D01*
X+2286000Y+1841500D02*
X+2285783Y+1836253D01*
X+2284018Y+1825758D01*
X+2280326Y+1815263D01*
X+2274298Y+1804768D01*
X+2265076Y+1794388D01*
X+2254581Y+1786700D01*
X+2244086Y+1781782D01*
X+2233591Y+1778976D01*
X+2223096Y+1778003D01*
X+2222500Y+1778000D01*
X+2222500Y+1905000D02*
X+2222500Y+1778000D01*
X+2159000Y+1841500D02*
X+2286000Y+1841500D01*
X+38100Y+1841500D02*
X+37883Y+1846747D01*
X+36118Y+1857242D01*
X+32426Y+1867737D01*
X+26398Y+1878232D01*
X+17176Y+1888612D01*
X+6681Y+1896300D01*
X-3814Y+1901218D01*
X-14309Y+1904024D01*
X-24804Y+1904997D01*
X-25400Y+1905000D01*
X-88900Y+1841500D02*
X-88683Y+1846747D01*
X-86918Y+1857242D01*
X-83226Y+1867737D01*
X-77198Y+1878232D01*
X-67976Y+1888612D01*
X-57481Y+1896300D01*
X-46986Y+1901218D01*
X-36491Y+1904024D01*
X-25996Y+1904997D01*
X-25400Y+1905000D01*
X-88900Y+1841500D02*
X-88683Y+1836253D01*
X-86918Y+1825758D01*
X-83226Y+1815263D01*
X-77198Y+1804768D01*
X-67976Y+1794388D01*
X-57481Y+1786700D01*
X-46986Y+1781782D01*
X-36491Y+1778976D01*
X-25996Y+1778003D01*
X-25400Y+1778000D01*
X+38100Y+1841500D02*
X+37883Y+1836253D01*
X+36118Y+1825758D01*
X+32426Y+1815263D01*
X+26398Y+1804768D01*
X+17176Y+1794388D01*
X+6681Y+1786700D01*
X-3814Y+1781782D01*
X-14309Y+1778976D01*
X-24804Y+1778003D01*
X-25400Y+1778000D01*
X-25400Y+1905000D02*
X-25400Y+1778000D01*
X-88900Y+1841500D02*
X+38100Y+1841500D01*
X-2209800Y+1841500D02*
X-2210017Y+1846747D01*
X-2211782Y+1857242D01*
X-2215474Y+1867737D01*
X-2221502Y+1878232D01*
X-2230724Y+1888612D01*
X-2241219Y+1896300D01*
X-2251714Y+1901218D01*
X-2262209Y+1904024D01*
X-2272704Y+1904997D01*
X-2273300Y+1905000D01*
X-2336800Y+1841500D02*
X-2336583Y+1846747D01*
X-2334818Y+1857242D01*
X-2331126Y+1867737D01*
X-2325098Y+1878232D01*
X-2315876Y+1888612D01*
X-2305381Y+1896300D01*
X-2294886Y+1901218D01*
X-2284391Y+1904024D01*
X-2273896Y+1904997D01*
X-2273300Y+1905000D01*
X-2336800Y+1841500D02*
X-2336583Y+1836253D01*
X-2334818Y+1825758D01*
X-2331126Y+1815263D01*
X-2325098Y+1804768D01*
X-2315876Y+1794388D01*
X-2305381Y+1786700D01*
X-2294886Y+1781782D01*
X-2284391Y+1778976D01*
X-2273896Y+1778003D01*
X-2273300Y+1778000D01*
X-2209800Y+1841500D02*
X-2210017Y+1836253D01*
X-2211782Y+1825758D01*
X-2215474Y+1815263D01*
X-2221502Y+1804768D01*
X-2230724Y+1794388D01*
X-2241219Y+1786700D01*
X-2251714Y+1781782D01*
X-2262209Y+1778976D01*
X-2272704Y+1778003D01*
X-2273300Y+1778000D01*
X-2273300Y+1905000D02*
X-2273300Y+1778000D01*
X-2336800Y+1841500D02*
X-2209800Y+1841500D01*
X-5016500Y+1905000D02*
X-5016717Y+1910247D01*
X-5018482Y+1920742D01*
X-5022174Y+1931237D01*
X-5028202Y+1941732D01*
X-5037424Y+1952112D01*
X-5047919Y+1959800D01*
X-5058414Y+1964718D01*
X-5068909Y+1967524D01*
X-5079404Y+1968497D01*
X-5080000Y+1968500D01*
X-5143500Y+1905000D02*
X-5143283Y+1910247D01*
X-5141518Y+1920742D01*
X-5137826Y+1931237D01*
X-5131798Y+1941732D01*
X-5122576Y+1952112D01*
X-5112081Y+1959800D01*
X-5101586Y+1964718D01*
X-5091091Y+1967524D01*
X-5080596Y+1968497D01*
X-5080000Y+1968500D01*
X-5143500Y+1905000D02*
X-5143283Y+1899753D01*
X-5141518Y+1889258D01*
X-5137826Y+1878763D01*
X-5131798Y+1868268D01*
X-5122576Y+1857888D01*
X-5112081Y+1850200D01*
X-5101586Y+1845282D01*
X-5091091Y+1842476D01*
X-5080596Y+1841503D01*
X-5080000Y+1841500D01*
X-5016500Y+1905000D02*
X-5016717Y+1899753D01*
X-5018482Y+1889258D01*
X-5022174Y+1878763D01*
X-5028202Y+1868268D01*
X-5037424Y+1857888D01*
X-5047919Y+1850200D01*
X-5058414Y+1845282D01*
X-5068909Y+1842476D01*
X-5079404Y+1841503D01*
X-5080000Y+1841500D01*
X-5080000Y+1968500D02*
X-5080000Y+1841500D01*
X-5143500Y+1905000D02*
X-5016500Y+1905000D01*
X-4318000Y-3492500D02*
X-4318000Y-3619500D01*
X-4381500Y-3556000D02*
X-4254500Y-3556000D01*
X-4362901Y-3511099D02*
X-4273099Y-3600901D01*
X-4362901Y-3600901D02*
X-4273099Y-3511099D01*
X-4318000Y-2984500D02*
X-4318000Y-3111500D01*
X-4381500Y-3048000D02*
X-4254500Y-3048000D01*
X-4362901Y-3003099D02*
X-4273099Y-3092901D01*
X-4362901Y-3092901D02*
X-4273099Y-3003099D01*
X-4318000Y-3238500D02*
X-4318000Y-3365500D01*
X-4381500Y-3302000D02*
X-4254500Y-3302000D01*
X-4362901Y-3257099D02*
X-4273099Y-3346901D01*
X-4362901Y-3346901D02*
X-4273099Y-3257099D01*
X-6858000Y-3810000D02*
X-6858217Y-3804753D01*
X-6859982Y-3794258D01*
X-6863674Y-3783763D01*
X-6869702Y-3773268D01*
X-6878924Y-3762888D01*
X-6889419Y-3755200D01*
X-6899914Y-3750282D01*
X-6910409Y-3747476D01*
X-6920904Y-3746503D01*
X-6921500Y-3746500D01*
X-6985000Y-3810000D02*
X-6984783Y-3804753D01*
X-6983018Y-3794258D01*
X-6979326Y-3783763D01*
X-6973298Y-3773268D01*
X-6964076Y-3762888D01*
X-6953581Y-3755200D01*
X-6943086Y-3750282D01*
X-6932591Y-3747476D01*
X-6922096Y-3746503D01*
X-6921500Y-3746500D01*
X-6985000Y-3810000D02*
X-6984783Y-3815247D01*
X-6983018Y-3825742D01*
X-6979326Y-3836237D01*
X-6973298Y-3846732D01*
X-6964076Y-3857112D01*
X-6953581Y-3864800D01*
X-6943086Y-3869718D01*
X-6932591Y-3872524D01*
X-6922096Y-3873497D01*
X-6921500Y-3873500D01*
X-6858000Y-3810000D02*
X-6858217Y-3815247D01*
X-6859982Y-3825742D01*
X-6863674Y-3836237D01*
X-6869702Y-3846732D01*
X-6878924Y-3857112D01*
X-6889419Y-3864800D01*
X-6899914Y-3869718D01*
X-6910409Y-3872524D01*
X-6920904Y-3873497D01*
X-6921500Y-3873500D01*
X-6921500Y-3746500D02*
X-6921500Y-3873500D01*
X-6985000Y-3810000D02*
X-6858000Y-3810000D01*
X-6858217Y-3804753D01*
X-6859982Y-3794258D01*
X-6863674Y-3783763D01*
X-6869702Y-3773268D01*
X-6878924Y-3762888D01*
X-6889419Y-3755200D01*
X-6899914Y-3750282D01*
X-6910409Y-3747476D01*
X-6920904Y-3746503D01*
X-6921500Y-3746500D01*
X-6985000Y-3810000D02*
X-6984783Y-3804753D01*
X-6983018Y-3794258D01*
X-6979326Y-3783763D01*
X-6973298Y-3773268D01*
X-6964076Y-3762888D01*
X-6953581Y-3755200D01*
X-6943086Y-3750282D01*
X-6932591Y-3747476D01*
X-6922096Y-3746503D01*
X-6921500Y-3746500D01*
X-6985000Y-3810000D02*
X-6984783Y-3815247D01*
X-6983018Y-3825742D01*
X-6979326Y-3836237D01*
X-6973298Y-3846732D01*
X-6964076Y-3857112D01*
X-6953581Y-3864800D01*
X-6943086Y-3869718D01*
X-6932591Y-3872524D01*
X-6922096Y-3873497D01*
X-6921500Y-3873500D01*
X-6858000Y-3810000D02*
X-6858217Y-3815247D01*
X-6859982Y-3825742D01*
X-6863674Y-3836237D01*
X-6869702Y-3846732D01*
X-6878924Y-3857112D01*
X-6889419Y-3864800D01*
X-6899914Y-3869718D01*
X-6910409Y-3872524D01*
X-6920904Y-3873497D01*
X-6921500Y-3873500D01*
X-6966401Y-3765099D02*
X-6876599Y-3854901D01*
X-6966401Y-3854901D02*
X-6876599Y-3765099D01*
X-6858000Y+2413000D02*
X-6858217Y+2418247D01*
X-6859982Y+2428742D01*
X-6863674Y+2439237D01*
X-6869702Y+2449732D01*
X-6878924Y+2460112D01*
X-6889419Y+2467800D01*
X-6899914Y+2472718D01*
X-6910409Y+2475524D01*
X-6920904Y+2476497D01*
X-6921500Y+2476500D01*
X-6985000Y+2413000D02*
X-6984783Y+2418247D01*
X-6983018Y+2428742D01*
X-6979326Y+2439237D01*
X-6973298Y+2449732D01*
X-6964076Y+2460112D01*
X-6953581Y+2467800D01*
X-6943086Y+2472718D01*
X-6932591Y+2475524D01*
X-6922096Y+2476497D01*
X-6921500Y+2476500D01*
X-6985000Y+2413000D02*
X-6984783Y+2407753D01*
X-6983018Y+2397258D01*
X-6979326Y+2386763D01*
X-6973298Y+2376268D01*
X-6964076Y+2365888D01*
X-6953581Y+2358200D01*
X-6943086Y+2353282D01*
X-6932591Y+2350476D01*
X-6922096Y+2349503D01*
X-6921500Y+2349500D01*
X-6858000Y+2413000D02*
X-6858217Y+2407753D01*
X-6859982Y+2397258D01*
X-6863674Y+2386763D01*
X-6869702Y+2376268D01*
X-6878924Y+2365888D01*
X-6889419Y+2358200D01*
X-6899914Y+2353282D01*
X-6910409Y+2350476D01*
X-6920904Y+2349503D01*
X-6921500Y+2349500D01*
X-6921500Y+2476500D02*
X-6921500Y+2349500D01*
X-6985000Y+2413000D02*
X-6858000Y+2413000D01*
X-6858217Y+2418247D01*
X-6859982Y+2428742D01*
X-6863674Y+2439237D01*
X-6869702Y+2449732D01*
X-6878924Y+2460112D01*
X-6889419Y+2467800D01*
X-6899914Y+2472718D01*
X-6910409Y+2475524D01*
X-6920904Y+2476497D01*
X-6921500Y+2476500D01*
X-6985000Y+2413000D02*
X-6984783Y+2418247D01*
X-6983018Y+2428742D01*
X-6979326Y+2439237D01*
X-6973298Y+2449732D01*
X-6964076Y+2460112D01*
X-6953581Y+2467800D01*
X-6943086Y+2472718D01*
X-6932591Y+2475524D01*
X-6922096Y+2476497D01*
X-6921500Y+2476500D01*
X-6985000Y+2413000D02*
X-6984783Y+2407753D01*
X-6983018Y+2397258D01*
X-6979326Y+2386763D01*
X-6973298Y+2376268D01*
X-6964076Y+2365888D01*
X-6953581Y+2358200D01*
X-6943086Y+2353282D01*
X-6932591Y+2350476D01*
X-6922096Y+2349503D01*
X-6921500Y+2349500D01*
X-6858000Y+2413000D02*
X-6858217Y+2407753D01*
X-6859982Y+2397258D01*
X-6863674Y+2386763D01*
X-6869702Y+2376268D01*
X-6878924Y+2365888D01*
X-6889419Y+2358200D01*
X-6899914Y+2353282D01*
X-6910409Y+2350476D01*
X-6920904Y+2349503D01*
X-6921500Y+2349500D01*
X-6966401Y+2457901D02*
X-6876599Y+2368099D01*
X-6966401Y+2368099D02*
X-6876599Y+2457901D01*
X+8064500Y+2413000D02*
X+8064283Y+2418247D01*
X+8062518Y+2428742D01*
X+8058826Y+2439237D01*
X+8052798Y+2449732D01*
X+8043576Y+2460112D01*
X+8033081Y+2467800D01*
X+8022586Y+2472718D01*
X+8012091Y+2475524D01*
X+8001596Y+2476497D01*
X+8001000Y+2476500D01*
X+7937500Y+2413000D02*
X+7937717Y+2418247D01*
X+7939482Y+2428742D01*
X+7943174Y+2439237D01*
X+7949202Y+2449732D01*
X+7958424Y+2460112D01*
X+7968919Y+2467800D01*
X+7979414Y+2472718D01*
X+7989909Y+2475524D01*
X+8000404Y+2476497D01*
X+8001000Y+2476500D01*
X+7937500Y+2413000D02*
X+7937717Y+2407753D01*
X+7939482Y+2397258D01*
X+7943174Y+2386763D01*
X+7949202Y+2376268D01*
X+7958424Y+2365888D01*
X+7968919Y+2358200D01*
X+7979414Y+2353282D01*
X+7989909Y+2350476D01*
X+8000404Y+2349503D01*
X+8001000Y+2349500D01*
X+8064500Y+2413000D02*
X+8064283Y+2407753D01*
X+8062518Y+2397258D01*
X+8058826Y+2386763D01*
X+8052798Y+2376268D01*
X+8043576Y+2365888D01*
X+8033081Y+2358200D01*
X+8022586Y+2353282D01*
X+8012091Y+2350476D01*
X+8001596Y+2349503D01*
X+8001000Y+2349500D01*
X+8001000Y+2476500D02*
X+8001000Y+2349500D01*
X+7937500Y+2413000D02*
X+8064500Y+2413000D01*
X+8064283Y+2418247D01*
X+8062518Y+2428742D01*
X+8058826Y+2439237D01*
X+8052798Y+2449732D01*
X+8043576Y+2460112D01*
X+8033081Y+2467800D01*
X+8022586Y+2472718D01*
X+8012091Y+2475524D01*
X+8001596Y+2476497D01*
X+8001000Y+2476500D01*
X+7937500Y+2413000D02*
X+7937717Y+2418247D01*
X+7939482Y+2428742D01*
X+7943174Y+2439237D01*
X+7949202Y+2449732D01*
X+7958424Y+2460112D01*
X+7968919Y+2467800D01*
X+7979414Y+2472718D01*
X+7989909Y+2475524D01*
X+8000404Y+2476497D01*
X+8001000Y+2476500D01*
X+7937500Y+2413000D02*
X+7937717Y+2407753D01*
X+7939482Y+2397258D01*
X+7943174Y+2386763D01*
X+7949202Y+2376268D01*
X+7958424Y+2365888D01*
X+7968919Y+2358200D01*
X+7979414Y+2353282D01*
X+7989909Y+2350476D01*
X+8000404Y+2349503D01*
X+8001000Y+2349500D01*
X+8064500Y+2413000D02*
X+8064283Y+2407753D01*
X+8062518Y+2397258D01*
X+8058826Y+2386763D01*
X+8052798Y+2376268D01*
X+8043576Y+2365888D01*
X+8033081Y+2358200D01*
X+8022586Y+2353282D01*
X+8012091Y+2350476D01*
X+8001596Y+2349503D01*
X+8001000Y+2349500D01*
X+7956099Y+2457901D02*
X+8045901Y+2368099D01*
X+7956099Y+2368099D02*
X+8045901Y+2457901D01*
X+8064500Y-3746500D02*
X+8064283Y-3741253D01*
X+8062518Y-3730758D01*
X+8058826Y-3720263D01*
X+8052798Y-3709768D01*
X+8043576Y-3699388D01*
X+8033081Y-3691700D01*
X+8022586Y-3686782D01*
X+8012091Y-3683976D01*
X+8001596Y-3683003D01*
X+8001000Y-3683000D01*
X+7937500Y-3746500D02*
X+7937717Y-3741253D01*
X+7939482Y-3730758D01*
X+7943174Y-3720263D01*
X+7949202Y-3709768D01*
X+7958424Y-3699388D01*
X+7968919Y-3691700D01*
X+7979414Y-3686782D01*
X+7989909Y-3683976D01*
X+8000404Y-3683003D01*
X+8001000Y-3683000D01*
X+7937500Y-3746500D02*
X+7937717Y-3751747D01*
X+7939482Y-3762242D01*
X+7943174Y-3772737D01*
X+7949202Y-3783232D01*
X+7958424Y-3793612D01*
X+7968919Y-3801300D01*
X+7979414Y-3806218D01*
X+7989909Y-3809024D01*
X+8000404Y-3809997D01*
X+8001000Y-3810000D01*
X+8064500Y-3746500D02*
X+8064283Y-3751747D01*
X+8062518Y-3762242D01*
X+8058826Y-3772737D01*
X+8052798Y-3783232D01*
X+8043576Y-3793612D01*
X+8033081Y-3801300D01*
X+8022586Y-3806218D01*
X+8012091Y-3809024D01*
X+8001596Y-3809997D01*
X+8001000Y-3810000D01*
X+8001000Y-3683000D02*
X+8001000Y-3810000D01*
X+7937500Y-3746500D02*
X+8064500Y-3746500D01*
X+8064283Y-3741253D01*
X+8062518Y-3730758D01*
X+8058826Y-3720263D01*
X+8052798Y-3709768D01*
X+8043576Y-3699388D01*
X+8033081Y-3691700D01*
X+8022586Y-3686782D01*
X+8012091Y-3683976D01*
X+8001596Y-3683003D01*
X+8001000Y-3683000D01*
X+7937500Y-3746500D02*
X+7937717Y-3741253D01*
X+7939482Y-3730758D01*
X+7943174Y-3720263D01*
X+7949202Y-3709768D01*
X+7958424Y-3699388D01*
X+7968919Y-3691700D01*
X+7979414Y-3686782D01*
X+7989909Y-3683976D01*
X+8000404Y-3683003D01*
X+8001000Y-3683000D01*
X+7937500Y-3746500D02*
X+7937717Y-3751747D01*
X+7939482Y-3762242D01*
X+7943174Y-3772737D01*
X+7949202Y-3783232D01*
X+7958424Y-3793612D01*
X+7968919Y-3801300D01*
X+7979414Y-3806218D01*
X+7989909Y-3809024D01*
X+8000404Y-3809997D01*
X+8001000Y-3810000D01*
X+8064500Y-3746500D02*
X+8064283Y-3751747D01*
X+8062518Y-3762242D01*
X+8058826Y-3772737D01*
X+8052798Y-3783232D01*
X+8043576Y-3793612D01*
X+8033081Y-3801300D01*
X+8022586Y-3806218D01*
X+8012091Y-3809024D01*
X+8001596Y-3809997D01*
X+8001000Y-3810000D01*
X+7956099Y-3701599D02*
X+8045901Y-3791401D01*
X+7956099Y-3791401D02*
X+8045901Y-3701599D01*
X-5207000Y-2984500D02*
X-5207000Y-3111500D01*
X-5270500Y-3048000D02*
X-5143500Y-3048000D01*
X-5251901Y-3003099D02*
X-5162099Y-3092901D01*
X-5251901Y-3092901D02*
X-5162099Y-3003099D01*
X-5207000Y-3238500D02*
X-5207000Y-3365500D01*
X-5270500Y-3302000D02*
X-5143500Y-3302000D01*
X-5251901Y-3257099D02*
X-5162099Y-3346901D01*
X-5251901Y-3346901D02*
X-5162099Y-3257099D01*
X-5207000Y-3492500D02*
X-5207000Y-3619500D01*
X-5270500Y-3556000D02*
X-5143500Y-3556000D01*
X-5251901Y-3511099D02*
X-5162099Y-3600901D01*
X-5251901Y-3600901D02*
X-5162099Y-3511099D01*
X-5207000Y-3746500D02*
X-5207000Y-3873500D01*
X-5270500Y-3810000D02*
X-5143500Y-3810000D01*
X-5251901Y-3765099D02*
X-5162099Y-3854901D01*
X-5251901Y-3854901D02*
X-5162099Y-3765099D01*
X-4572000Y+1905000D02*
X-4572217Y+1910247D01*
X-4573982Y+1920742D01*
X-4577674Y+1931237D01*
X-4583702Y+1941732D01*
X-4592924Y+1952112D01*
X-4603419Y+1959800D01*
X-4613914Y+1964718D01*
X-4624409Y+1967524D01*
X-4634904Y+1968497D01*
X-4635500Y+1968500D01*
X-4699000Y+1905000D02*
X-4698783Y+1910247D01*
X-4697018Y+1920742D01*
X-4693326Y+1931237D01*
X-4687298Y+1941732D01*
X-4678076Y+1952112D01*
X-4667581Y+1959800D01*
X-4657086Y+1964718D01*
X-4646591Y+1967524D01*
X-4636096Y+1968497D01*
X-4635500Y+1968500D01*
X-4699000Y+1905000D02*
X-4698783Y+1899753D01*
X-4697018Y+1889258D01*
X-4693326Y+1878763D01*
X-4687298Y+1868268D01*
X-4678076Y+1857888D01*
X-4667581Y+1850200D01*
X-4657086Y+1845282D01*
X-4646591Y+1842476D01*
X-4636096Y+1841503D01*
X-4635500Y+1841500D01*
X-4572000Y+1905000D02*
X-4572217Y+1899753D01*
X-4573982Y+1889258D01*
X-4577674Y+1878763D01*
X-4583702Y+1868268D01*
X-4592924Y+1857888D01*
X-4603419Y+1850200D01*
X-4613914Y+1845282D01*
X-4624409Y+1842476D01*
X-4634904Y+1841503D01*
X-4635500Y+1841500D01*
X-4635500Y+1968500D02*
X-4635500Y+1841500D01*
X-4699000Y+1905000D02*
X-4572000Y+1905000D01*
X-7429500Y-4254500D02*
X+8509000Y-4254500D01*
X+8509000Y+2921000D01*
X-7429500Y+2921000D01*
X-7429500Y-4254500D01*
D115*
X-7442200Y-6248400D02*
X-4798060Y-6248400D01*
X-4798060Y-4521200D01*
X-7442200Y-4521200D01*
X-7442200Y-6248400D01*
D90*
X-6974838Y-4521200D02*
X-6974838Y-6248400D01*
X-6162038Y-4521200D02*
X-6162038Y-6248400D01*
X-5328918Y-4521200D02*
X-5328918Y-6248400D01*
X-7442200Y-4794250D02*
X-4798060Y-4794250D01*
X-7442200Y-5035550D02*
X-4798060Y-5035550D01*
X-7442200Y-5276850D02*
X-4798060Y-5276850D01*
X-7442200Y-5518150D02*
X-4798060Y-5518150D01*
X-7442200Y-5759450D02*
X-4798060Y-5759450D01*
X-7442200Y-6000750D02*
X-4798060Y-6000750D01*
D115*
X-7385050Y-4685030D02*
X-7369810Y-4700270D01*
X-7308850Y-4700270D01*
X-7293610Y-4685030D01*
X-7293610Y-4669790D01*
X-7308850Y-4654550D01*
X-7369810Y-4654550D01*
X-7385050Y-4639310D01*
X-7385050Y-4624070D01*
X-7369810Y-4608830D01*
X-7308850Y-4608830D01*
X-7293610Y-4624070D01*
X-7171690Y-4608830D02*
X-7263130Y-4700270D01*
X-7263130Y-4608830D02*
X-7217410Y-4654550D01*
X-7141210Y-4700270D02*
X-7141210Y-4608830D01*
X-7095490Y-4654550D01*
X-7049770Y-4608830D01*
X-7049770Y-4700270D01*
X-6917690Y-4685030D02*
X-6902450Y-4700270D01*
X-6841490Y-4700270D01*
X-6826250Y-4685030D01*
X-6826250Y-4669790D01*
X-6841490Y-4654550D01*
X-6902450Y-4654550D01*
X-6917690Y-4639310D01*
X-6917690Y-4624070D01*
X-6902450Y-4608830D01*
X-6841490Y-4608830D01*
X-6826250Y-4624070D01*
X-6780530Y-4608830D02*
X-6719570Y-4608830D01*
X-6750050Y-4608830D02*
X-6750050Y-4700270D01*
X-6780530Y-4700270D02*
X-6719570Y-4700270D01*
X-6673850Y-4608830D02*
X-6582410Y-4608830D01*
X-6673850Y-4700270D01*
X-6582410Y-4700270D01*
X-6460490Y-4700270D02*
X-6551930Y-4700270D01*
X-6551930Y-4608830D01*
X-6460490Y-4608830D01*
X-6551930Y-4654550D02*
X-6490970Y-4654550D01*
X-6104890Y-4700270D02*
X-6104890Y-4608830D01*
X-6028690Y-4608830D01*
X-6013450Y-4624070D01*
X-6013450Y-4639310D01*
X-6028690Y-4654550D01*
X-6104890Y-4654550D01*
X-5982970Y-4608830D02*
X-5982970Y-4700270D01*
X-5891530Y-4700270D01*
X-5861050Y-4700270D02*
X-5861050Y-4639310D01*
X-5830570Y-4608830D01*
X-5800090Y-4608830D01*
X-5769610Y-4639310D01*
X-5769610Y-4700270D01*
X-5861050Y-4669790D02*
X-5769610Y-4669790D01*
X-5739130Y-4608830D02*
X-5647690Y-4608830D01*
X-5693410Y-4608830D02*
X-5693410Y-4700270D01*
X-5525770Y-4700270D02*
X-5617210Y-4700270D01*
X-5617210Y-4608830D01*
X-5525770Y-4608830D01*
X-5617210Y-4654550D02*
X-5556250Y-4654550D01*
X-5495290Y-4700270D02*
X-5495290Y-4608830D01*
X-5434330Y-4608830D01*
X-5403850Y-4639310D01*
X-5403850Y-4669790D01*
X-5434330Y-4700270D01*
X-5495290Y-4700270D01*
X-5271770Y-4639310D02*
X-5241290Y-4608830D01*
X-5210810Y-4608830D01*
X-5180330Y-4639310D01*
X-5180330Y-4669790D01*
X-5210810Y-4700270D01*
X-5241290Y-4700270D01*
X-5271770Y-4669790D01*
X-5271770Y-4639310D01*
X-5210810Y-4669790D02*
X-5180330Y-4700270D01*
X-5149850Y-4608830D02*
X-5058410Y-4608830D01*
X-5104130Y-4608830D02*
X-5104130Y-4700270D01*
X-4936490Y-4608830D02*
X-5027930Y-4700270D01*
X-5027930Y-4608830D02*
X-4982210Y-4654550D01*
D40*
X-7195820Y-4845050D02*
X-7195820Y-4972050D01*
X-7259320Y-4908550D02*
X-7132320Y-4908550D01*
D115*
X-6898640Y-4933950D02*
X-6898640Y-4883150D01*
X-6885940Y-4870450D01*
X-6835140Y-4870450D01*
X-6822440Y-4883150D01*
X-6822440Y-4933950D01*
X-6835140Y-4946650D01*
X-6885940Y-4946650D01*
X-6898640Y-4933950D01*
X-6898640Y-4946650D02*
X-6822440Y-4870450D01*
X-6758940Y-4933950D02*
X-6746240Y-4933950D01*
X-6746240Y-4946650D01*
X-6758940Y-4946650D01*
X-6758940Y-4933950D01*
X-6682740Y-4883150D02*
X-6670040Y-4870450D01*
X-6631940Y-4870450D01*
X-6619240Y-4883150D01*
X-6619240Y-4895850D01*
X-6631940Y-4908550D01*
X-6619240Y-4921250D01*
X-6619240Y-4933950D01*
X-6631940Y-4946650D01*
X-6670040Y-4946650D01*
X-6682740Y-4933950D01*
X-6657340Y-4908550D02*
X-6631940Y-4908550D01*
X-6568440Y-4908550D02*
X-6581140Y-4895850D01*
X-6581140Y-4883150D01*
X-6568440Y-4870450D01*
X-6530340Y-4870450D01*
X-6517640Y-4883150D01*
X-6517640Y-4895850D01*
X-6530340Y-4908550D01*
X-6568440Y-4908550D01*
X-6581140Y-4921250D01*
X-6581140Y-4933950D01*
X-6568440Y-4946650D01*
X-6530340Y-4946650D01*
X-6517640Y-4933950D01*
X-6517640Y-4921250D01*
X-6530340Y-4908550D01*
X-6466840Y-4895850D02*
X-6441440Y-4870450D01*
X-6441440Y-4946650D01*
X-6390640Y-4946650D02*
X-6390640Y-4895850D01*
X-6390640Y-4908550D02*
X-6377940Y-4895850D01*
X-6352540Y-4921250D01*
X-6327140Y-4895850D01*
X-6314440Y-4908550D01*
X-6314440Y-4946650D01*
X-6289040Y-4946650D02*
X-6289040Y-4895850D01*
X-6289040Y-4908550D02*
X-6276340Y-4895850D01*
X-6250940Y-4921250D01*
X-6225540Y-4895850D01*
X-6212840Y-4908550D01*
X-6212840Y-4946650D01*
X-5996940Y-4870450D02*
X-6073140Y-4946650D01*
X-6073140Y-4870450D02*
X-6035040Y-4908550D01*
X-5895340Y-4946650D02*
X-5971540Y-4946650D01*
X-5971540Y-4870450D01*
X-5895340Y-4870450D01*
X-5971540Y-4908550D02*
X-5920740Y-4908550D01*
X-5869940Y-4933950D02*
X-5857240Y-4946650D01*
X-5806440Y-4946650D01*
X-5793740Y-4933950D01*
X-5793740Y-4921250D01*
X-5806440Y-4908550D01*
X-5857240Y-4908550D01*
X-5869940Y-4895850D01*
X-5869940Y-4883150D01*
X-5857240Y-4870450D01*
X-5806440Y-4870450D01*
X-5793740Y-4883150D01*
X-5201920Y-4895850D02*
X-5176520Y-4870450D01*
X-5176520Y-4946650D01*
D40*
X-7240721Y-5104949D02*
X-7150919Y-5194751D01*
X-7240721Y-5194751D02*
X-7150919Y-5104949D01*
D115*
X-6898640Y-5175250D02*
X-6898640Y-5124450D01*
X-6885940Y-5111750D01*
X-6835140Y-5111750D01*
X-6822440Y-5124450D01*
X-6822440Y-5175250D01*
X-6835140Y-5187950D01*
X-6885940Y-5187950D01*
X-6898640Y-5175250D01*
X-6898640Y-5187950D02*
X-6822440Y-5111750D01*
X-6758940Y-5175250D02*
X-6746240Y-5175250D01*
X-6746240Y-5187950D01*
X-6758940Y-5187950D01*
X-6758940Y-5175250D01*
X-6619240Y-5111750D02*
X-6682740Y-5111750D01*
X-6682740Y-5137150D01*
X-6631940Y-5137150D01*
X-6619240Y-5149850D01*
X-6619240Y-5175250D01*
X-6631940Y-5187950D01*
X-6670040Y-5187950D01*
X-6682740Y-5175250D01*
X-6593840Y-5175250D02*
X-6593840Y-5124450D01*
X-6581140Y-5111750D01*
X-6530340Y-5111750D01*
X-6517640Y-5124450D01*
X-6517640Y-5175250D01*
X-6530340Y-5187950D01*
X-6581140Y-5187950D01*
X-6593840Y-5175250D01*
X-6593840Y-5187950D02*
X-6517640Y-5111750D01*
X-6466840Y-5149850D02*
X-6479540Y-5137150D01*
X-6479540Y-5124450D01*
X-6466840Y-5111750D01*
X-6428740Y-5111750D01*
X-6416040Y-5124450D01*
X-6416040Y-5137150D01*
X-6428740Y-5149850D01*
X-6466840Y-5149850D01*
X-6479540Y-5162550D01*
X-6479540Y-5175250D01*
X-6466840Y-5187950D01*
X-6428740Y-5187950D01*
X-6416040Y-5175250D01*
X-6416040Y-5162550D01*
X-6428740Y-5149850D01*
X-6390640Y-5187950D02*
X-6390640Y-5137150D01*
X-6390640Y-5149850D02*
X-6377940Y-5137150D01*
X-6352540Y-5162550D01*
X-6327140Y-5137150D01*
X-6314440Y-5149850D01*
X-6314440Y-5187950D01*
X-6289040Y-5187950D02*
X-6289040Y-5137150D01*
X-6289040Y-5149850D02*
X-6276340Y-5137150D01*
X-6250940Y-5162550D01*
X-6225540Y-5137150D01*
X-6212840Y-5149850D01*
X-6212840Y-5187950D01*
X-5996940Y-5111750D02*
X-6073140Y-5187950D01*
X-6073140Y-5111750D02*
X-6035040Y-5149850D01*
X-5895340Y-5187950D02*
X-5971540Y-5187950D01*
X-5971540Y-5111750D01*
X-5895340Y-5111750D01*
X-5971540Y-5149850D02*
X-5920740Y-5149850D01*
X-5869940Y-5175250D02*
X-5857240Y-5187950D01*
X-5806440Y-5187950D01*
X-5793740Y-5175250D01*
X-5793740Y-5162550D01*
X-5806440Y-5149850D01*
X-5857240Y-5149850D01*
X-5869940Y-5137150D01*
X-5869940Y-5124450D01*
X-5857240Y-5111750D01*
X-5806440Y-5111750D01*
X-5793740Y-5124450D01*
X-5214620Y-5124450D02*
X-5201920Y-5111750D01*
X-5163820Y-5111750D01*
X-5151120Y-5124450D01*
X-5151120Y-5137150D01*
X-5163820Y-5149850D01*
X-5201920Y-5149850D01*
X-5214620Y-5162550D01*
X-5214620Y-5187950D01*
X-5151120Y-5187950D01*
X-5049520Y-5111750D02*
X-5113020Y-5111750D01*
X-5113020Y-5137150D01*
X-5062220Y-5137150D01*
X-5049520Y-5149850D01*
X-5049520Y-5175250D01*
X-5062220Y-5187950D01*
X-5100320Y-5187950D01*
X-5113020Y-5175250D01*
D40*
X-7195820Y-5327650D02*
X-7195820Y-5454650D01*
X-7259320Y-5391150D02*
X-7132320Y-5391150D01*
X-7240721Y-5346249D02*
X-7150919Y-5436051D01*
X-7240721Y-5436051D02*
X-7150919Y-5346249D01*
D115*
X-6873240Y-5378450D02*
X-6847840Y-5353050D01*
X-6847840Y-5429250D01*
X-6758940Y-5416550D02*
X-6746240Y-5416550D01*
X-6746240Y-5429250D01*
X-6758940Y-5429250D01*
X-6758940Y-5416550D01*
X-6682740Y-5365750D02*
X-6670040Y-5353050D01*
X-6631940Y-5353050D01*
X-6619240Y-5365750D01*
X-6619240Y-5378450D01*
X-6631940Y-5391150D01*
X-6670040Y-5391150D01*
X-6682740Y-5403850D01*
X-6682740Y-5429250D01*
X-6619240Y-5429250D01*
X-6581140Y-5353050D02*
X-6517640Y-5353050D01*
X-6517640Y-5365750D01*
X-6581140Y-5429250D01*
X-6492240Y-5429250D02*
X-6492240Y-5378450D01*
X-6492240Y-5391150D02*
X-6479540Y-5378450D01*
X-6454140Y-5403850D01*
X-6428740Y-5378450D01*
X-6416040Y-5391150D01*
X-6416040Y-5429250D01*
X-6390640Y-5429250D02*
X-6390640Y-5378450D01*
X-6390640Y-5391150D02*
X-6377940Y-5378450D01*
X-6352540Y-5403850D01*
X-6327140Y-5378450D01*
X-6314440Y-5391150D01*
X-6314440Y-5429250D01*
X-5996940Y-5353050D02*
X-6073140Y-5429250D01*
X-6073140Y-5353050D02*
X-6035040Y-5391150D01*
X-5895340Y-5429250D02*
X-5971540Y-5429250D01*
X-5971540Y-5353050D01*
X-5895340Y-5353050D01*
X-5971540Y-5391150D02*
X-5920740Y-5391150D01*
X-5869940Y-5416550D02*
X-5857240Y-5429250D01*
X-5806440Y-5429250D01*
X-5793740Y-5416550D01*
X-5793740Y-5403850D01*
X-5806440Y-5391150D01*
X-5857240Y-5391150D01*
X-5869940Y-5378450D01*
X-5869940Y-5365750D01*
X-5857240Y-5353050D01*
X-5806440Y-5353050D01*
X-5793740Y-5365750D01*
X-5214620Y-5365750D02*
X-5201920Y-5353050D01*
X-5163820Y-5353050D01*
X-5151120Y-5365750D01*
X-5151120Y-5378450D01*
X-5163820Y-5391150D01*
X-5151120Y-5403850D01*
X-5151120Y-5416550D01*
X-5163820Y-5429250D01*
X-5201920Y-5429250D01*
X-5214620Y-5416550D01*
X-5189220Y-5391150D02*
X-5163820Y-5391150D01*
X-5113020Y-5353050D02*
X-5049520Y-5353050D01*
X-5049520Y-5365750D01*
X-5113020Y-5429250D01*
D40*
X-7132320Y-5632450D02*
X-7132537Y-5627203D01*
X-7134302Y-5616708D01*
X-7137994Y-5606213D01*
X-7144022Y-5595718D01*
X-7153244Y-5585338D01*
X-7163739Y-5577650D01*
X-7174234Y-5572732D01*
X-7184729Y-5569926D01*
X-7195224Y-5568953D01*
X-7195820Y-5568950D01*
X-7259320Y-5632450D02*
X-7259103Y-5627203D01*
X-7257338Y-5616708D01*
X-7253646Y-5606213D01*
X-7247618Y-5595718D01*
X-7238396Y-5585338D01*
X-7227901Y-5577650D01*
X-7217406Y-5572732D01*
X-7206911Y-5569926D01*
X-7196416Y-5568953D01*
X-7195820Y-5568950D01*
X-7259320Y-5632450D02*
X-7259103Y-5637697D01*
X-7257338Y-5648192D01*
X-7253646Y-5658687D01*
X-7247618Y-5669182D01*
X-7238396Y-5679562D01*
X-7227901Y-5687250D01*
X-7217406Y-5692168D01*
X-7206911Y-5694974D01*
X-7196416Y-5695947D01*
X-7195820Y-5695950D01*
X-7132320Y-5632450D02*
X-7132537Y-5637697D01*
X-7134302Y-5648192D01*
X-7137994Y-5658687D01*
X-7144022Y-5669182D01*
X-7153244Y-5679562D01*
X-7163739Y-5687250D01*
X-7174234Y-5692168D01*
X-7184729Y-5694974D01*
X-7195224Y-5695947D01*
X-7195820Y-5695950D01*
X-7195820Y-5568950D02*
X-7195820Y-5695950D01*
X-7259320Y-5632450D02*
X-7132320Y-5632450D01*
D115*
X-6873240Y-5619750D02*
X-6847840Y-5594350D01*
X-6847840Y-5670550D01*
X-6758940Y-5657850D02*
X-6746240Y-5657850D01*
X-6746240Y-5670550D01*
X-6758940Y-5670550D01*
X-6758940Y-5657850D01*
X-6670040Y-5619750D02*
X-6644640Y-5594350D01*
X-6644640Y-5670550D01*
X-6517640Y-5645150D02*
X-6593840Y-5645150D01*
X-6543040Y-5594350D01*
X-6543040Y-5670550D01*
X-6479540Y-5607050D02*
X-6466840Y-5594350D01*
X-6428740Y-5594350D01*
X-6416040Y-5607050D01*
X-6416040Y-5619750D01*
X-6428740Y-5632450D01*
X-6416040Y-5645150D01*
X-6416040Y-5657850D01*
X-6428740Y-5670550D01*
X-6466840Y-5670550D01*
X-6479540Y-5657850D01*
X-6454140Y-5632450D02*
X-6428740Y-5632450D01*
X-6390640Y-5670550D02*
X-6390640Y-5619750D01*
X-6390640Y-5632450D02*
X-6377940Y-5619750D01*
X-6352540Y-5645150D01*
X-6327140Y-5619750D01*
X-6314440Y-5632450D01*
X-6314440Y-5670550D01*
X-6289040Y-5670550D02*
X-6289040Y-5619750D01*
X-6289040Y-5632450D02*
X-6276340Y-5619750D01*
X-6250940Y-5645150D01*
X-6225540Y-5619750D01*
X-6212840Y-5632450D01*
X-6212840Y-5670550D01*
X-5996940Y-5594350D02*
X-6073140Y-5670550D01*
X-6073140Y-5594350D02*
X-6035040Y-5632450D01*
X-5895340Y-5670550D02*
X-5971540Y-5670550D01*
X-5971540Y-5594350D01*
X-5895340Y-5594350D01*
X-5971540Y-5632450D02*
X-5920740Y-5632450D01*
X-5869940Y-5657850D02*
X-5857240Y-5670550D01*
X-5806440Y-5670550D01*
X-5793740Y-5657850D01*
X-5793740Y-5645150D01*
X-5806440Y-5632450D01*
X-5857240Y-5632450D01*
X-5869940Y-5619750D01*
X-5869940Y-5607050D01*
X-5857240Y-5594350D01*
X-5806440Y-5594350D01*
X-5793740Y-5607050D01*
X-5201920Y-5619750D02*
X-5176520Y-5594350D01*
X-5176520Y-5670550D01*
X-5113020Y-5607050D02*
X-5100320Y-5594350D01*
X-5062220Y-5594350D01*
X-5049520Y-5607050D01*
X-5049520Y-5619750D01*
X-5062220Y-5632450D01*
X-5100320Y-5632450D01*
X-5113020Y-5645150D01*
X-5113020Y-5670550D01*
X-5049520Y-5670550D01*
D40*
X-7132320Y-5873750D02*
X-7132537Y-5868503D01*
X-7134302Y-5858008D01*
X-7137994Y-5847513D01*
X-7144022Y-5837018D01*
X-7153244Y-5826638D01*
X-7163739Y-5818950D01*
X-7174234Y-5814032D01*
X-7184729Y-5811226D01*
X-7195224Y-5810253D01*
X-7195820Y-5810250D01*
X-7259320Y-5873750D02*
X-7259103Y-5868503D01*
X-7257338Y-5858008D01*
X-7253646Y-5847513D01*
X-7247618Y-5837018D01*
X-7238396Y-5826638D01*
X-7227901Y-5818950D01*
X-7217406Y-5814032D01*
X-7206911Y-5811226D01*
X-7196416Y-5810253D01*
X-7195820Y-5810250D01*
X-7259320Y-5873750D02*
X-7259103Y-5878997D01*
X-7257338Y-5889492D01*
X-7253646Y-5899987D01*
X-7247618Y-5910482D01*
X-7238396Y-5920862D01*
X-7227901Y-5928550D01*
X-7217406Y-5933468D01*
X-7206911Y-5936274D01*
X-7196416Y-5937247D01*
X-7195820Y-5937250D01*
X-7132320Y-5873750D02*
X-7132537Y-5878997D01*
X-7134302Y-5889492D01*
X-7137994Y-5899987D01*
X-7144022Y-5910482D01*
X-7153244Y-5920862D01*
X-7163739Y-5928550D01*
X-7174234Y-5933468D01*
X-7184729Y-5936274D01*
X-7195224Y-5937247D01*
X-7195820Y-5937250D01*
X-7240721Y-5828849D02*
X-7150919Y-5918651D01*
X-7240721Y-5918651D02*
X-7150919Y-5828849D01*
D115*
X-6873240Y-5861050D02*
X-6847840Y-5835650D01*
X-6847840Y-5911850D01*
X-6758940Y-5899150D02*
X-6746240Y-5899150D01*
X-6746240Y-5911850D01*
X-6758940Y-5911850D01*
X-6758940Y-5899150D01*
X-6619240Y-5835650D02*
X-6682740Y-5835650D01*
X-6682740Y-5861050D01*
X-6631940Y-5861050D01*
X-6619240Y-5873750D01*
X-6619240Y-5899150D01*
X-6631940Y-5911850D01*
X-6670040Y-5911850D01*
X-6682740Y-5899150D01*
X-6581140Y-5848350D02*
X-6568440Y-5835650D01*
X-6530340Y-5835650D01*
X-6517640Y-5848350D01*
X-6517640Y-5861050D01*
X-6530340Y-5873750D01*
X-6568440Y-5873750D01*
X-6581140Y-5886450D01*
X-6581140Y-5911850D01*
X-6517640Y-5911850D01*
X-6416040Y-5886450D02*
X-6492240Y-5886450D01*
X-6441440Y-5835650D01*
X-6441440Y-5911850D01*
X-6390640Y-5911850D02*
X-6390640Y-5861050D01*
X-6390640Y-5873750D02*
X-6377940Y-5861050D01*
X-6352540Y-5886450D01*
X-6327140Y-5861050D01*
X-6314440Y-5873750D01*
X-6314440Y-5911850D01*
X-6289040Y-5911850D02*
X-6289040Y-5861050D01*
X-6289040Y-5873750D02*
X-6276340Y-5861050D01*
X-6250940Y-5886450D01*
X-6225540Y-5861050D01*
X-6212840Y-5873750D01*
X-6212840Y-5911850D01*
X-5996940Y-5835650D02*
X-6073140Y-5911850D01*
X-6073140Y-5835650D02*
X-6035040Y-5873750D01*
X-5895340Y-5911850D02*
X-5971540Y-5911850D01*
X-5971540Y-5835650D01*
X-5895340Y-5835650D01*
X-5971540Y-5873750D02*
X-5920740Y-5873750D01*
X-5869940Y-5899150D02*
X-5857240Y-5911850D01*
X-5806440Y-5911850D01*
X-5793740Y-5899150D01*
X-5793740Y-5886450D01*
X-5806440Y-5873750D01*
X-5857240Y-5873750D01*
X-5869940Y-5861050D01*
X-5869940Y-5848350D01*
X-5857240Y-5835650D01*
X-5806440Y-5835650D01*
X-5793740Y-5848350D01*
X-5214620Y-5848350D02*
X-5201920Y-5835650D01*
X-5163820Y-5835650D01*
X-5151120Y-5848350D01*
X-5151120Y-5861050D01*
X-5163820Y-5873750D01*
X-5201920Y-5873750D01*
X-5214620Y-5886450D01*
X-5214620Y-5911850D01*
X-5151120Y-5911850D01*
D40*
X-7132320Y-6115050D02*
X-7132537Y-6109803D01*
X-7134302Y-6099308D01*
X-7137994Y-6088813D01*
X-7144022Y-6078318D01*
X-7153244Y-6067938D01*
X-7163739Y-6060250D01*
X-7174234Y-6055332D01*
X-7184729Y-6052526D01*
X-7195224Y-6051553D01*
X-7195820Y-6051550D01*
X-7259320Y-6115050D02*
X-7259103Y-6109803D01*
X-7257338Y-6099308D01*
X-7253646Y-6088813D01*
X-7247618Y-6078318D01*
X-7238396Y-6067938D01*
X-7227901Y-6060250D01*
X-7217406Y-6055332D01*
X-7206911Y-6052526D01*
X-7196416Y-6051553D01*
X-7195820Y-6051550D01*
X-7259320Y-6115050D02*
X-7259103Y-6120297D01*
X-7257338Y-6130792D01*
X-7253646Y-6141287D01*
X-7247618Y-6151782D01*
X-7238396Y-6162162D01*
X-7227901Y-6169850D01*
X-7217406Y-6174768D01*
X-7206911Y-6177574D01*
X-7196416Y-6178547D01*
X-7195820Y-6178550D01*
X-7132320Y-6115050D02*
X-7132537Y-6120297D01*
X-7134302Y-6130792D01*
X-7137994Y-6141287D01*
X-7144022Y-6151782D01*
X-7153244Y-6162162D01*
X-7163739Y-6169850D01*
X-7174234Y-6174768D01*
X-7184729Y-6177574D01*
X-7195224Y-6178547D01*
X-7195820Y-6178550D01*
X-7195820Y-6051550D02*
X-7195820Y-6178550D01*
X-7259320Y-6115050D02*
X-7132320Y-6115050D01*
X-7132537Y-6109803D01*
X-7134302Y-6099308D01*
X-7137994Y-6088813D01*
X-7144022Y-6078318D01*
X-7153244Y-6067938D01*
X-7163739Y-6060250D01*
X-7174234Y-6055332D01*
X-7184729Y-6052526D01*
X-7195224Y-6051553D01*
X-7195820Y-6051550D01*
X-7259320Y-6115050D02*
X-7259103Y-6109803D01*
X-7257338Y-6099308D01*
X-7253646Y-6088813D01*
X-7247618Y-6078318D01*
X-7238396Y-6067938D01*
X-7227901Y-6060250D01*
X-7217406Y-6055332D01*
X-7206911Y-6052526D01*
X-7196416Y-6051553D01*
X-7195820Y-6051550D01*
X-7259320Y-6115050D02*
X-7259103Y-6120297D01*
X-7257338Y-6130792D01*
X-7253646Y-6141287D01*
X-7247618Y-6151782D01*
X-7238396Y-6162162D01*
X-7227901Y-6169850D01*
X-7217406Y-6174768D01*
X-7206911Y-6177574D01*
X-7196416Y-6178547D01*
X-7195820Y-6178550D01*
X-7132320Y-6115050D02*
X-7132537Y-6120297D01*
X-7134302Y-6130792D01*
X-7137994Y-6141287D01*
X-7144022Y-6151782D01*
X-7153244Y-6162162D01*
X-7163739Y-6169850D01*
X-7174234Y-6174768D01*
X-7184729Y-6177574D01*
X-7195224Y-6178547D01*
X-7195820Y-6178550D01*
X-7240721Y-6070149D02*
X-7150919Y-6159951D01*
X-7240721Y-6159951D02*
X-7150919Y-6070149D01*
D115*
X-6822440Y-6127750D02*
X-6898640Y-6127750D01*
X-6847840Y-6076950D01*
X-6847840Y-6153150D01*
X-6758940Y-6140450D02*
X-6746240Y-6140450D01*
X-6746240Y-6153150D01*
X-6758940Y-6153150D01*
X-6758940Y-6140450D01*
X-6695440Y-6140450D02*
X-6695440Y-6089650D01*
X-6682740Y-6076950D01*
X-6631940Y-6076950D01*
X-6619240Y-6089650D01*
X-6619240Y-6140450D01*
X-6631940Y-6153150D01*
X-6682740Y-6153150D01*
X-6695440Y-6140450D01*
X-6695440Y-6153150D02*
X-6619240Y-6076950D01*
X-6517640Y-6089650D02*
X-6530340Y-6076950D01*
X-6568440Y-6076950D01*
X-6581140Y-6089650D01*
X-6581140Y-6140450D01*
X-6568440Y-6153150D01*
X-6530340Y-6153150D01*
X-6517640Y-6140450D01*
X-6517640Y-6127750D01*
X-6530340Y-6115050D01*
X-6581140Y-6115050D01*
X-6416040Y-6127750D02*
X-6492240Y-6127750D01*
X-6441440Y-6076950D01*
X-6441440Y-6153150D01*
X-6390640Y-6153150D02*
X-6390640Y-6102350D01*
X-6390640Y-6115050D02*
X-6377940Y-6102350D01*
X-6352540Y-6127750D01*
X-6327140Y-6102350D01*
X-6314440Y-6115050D01*
X-6314440Y-6153150D01*
X-6289040Y-6153150D02*
X-6289040Y-6102350D01*
X-6289040Y-6115050D02*
X-6276340Y-6102350D01*
X-6250940Y-6127750D01*
X-6225540Y-6102350D01*
X-6212840Y-6115050D01*
X-6212840Y-6153150D01*
X-5996940Y-6076950D02*
X-6073140Y-6153150D01*
X-6073140Y-6076950D02*
X-6035040Y-6115050D01*
X-5895340Y-6153150D02*
X-5971540Y-6153150D01*
X-5971540Y-6076950D01*
X-5895340Y-6076950D01*
X-5971540Y-6115050D02*
X-5920740Y-6115050D01*
X-5869940Y-6140450D02*
X-5857240Y-6153150D01*
X-5806440Y-6153150D01*
X-5793740Y-6140450D01*
X-5793740Y-6127750D01*
X-5806440Y-6115050D01*
X-5857240Y-6115050D01*
X-5869940Y-6102350D01*
X-5869940Y-6089650D01*
X-5857240Y-6076950D01*
X-5806440Y-6076950D01*
X-5793740Y-6089650D01*
X-5151120Y-6127750D02*
X-5227320Y-6127750D01*
X-5176520Y-6076950D01*
X-5176520Y-6153150D01*
M02*
