G04 PROTEUS RS274X GERBER FILE*
%FSLAX45Y45*%
%MOMM*%
G01*
%ADD70C,1.270000*%
%ADD71C,0.762000*%
%ADD20C,2.032000*%
%ADD22C,3.810000*%
%ADD23C,2.540000*%
%ADD24R,2.286000X2.286000*%
%ADD35C,7.620000*%
%ADD40C,0.203200*%
D70*
X-1270000Y-2413000D03*
X+6032500Y-2095500D03*
X+1079500Y-2413000D03*
D71*
X+3429000Y-3302000D03*
D70*
X+8128000Y-2730500D03*
D20*
X-2984500Y+1587500D03*
X-571500Y+1651000D03*
X+1714500Y+1651000D03*
X+4134346Y+1645009D03*
X+5778500Y+1968500D03*
X+6437156Y+1707029D03*
X+3365500Y+2095500D03*
X+952500Y+2095500D03*
X-1333500Y+2095500D03*
D70*
X-4635500Y-2476500D03*
X-3175000Y-3873500D03*
X-3746500Y+190500D03*
D20*
X-4263961Y+1955083D03*
D70*
X+1206500Y-2870200D03*
X-5394560Y+718686D03*
X-3710965Y-739165D03*
X-3579519Y-3792125D03*
X-3543300Y-2882900D03*
X+4694397Y-3045266D03*
X+6750617Y-2928609D03*
X-1054100Y-2971800D03*
D22*
X-7048500Y-2476500D03*
X-7048500Y-2921000D03*
D23*
X-1828800Y+1841500D03*
D24*
X-2921000Y-3556000D03*
X-2921000Y-3048000D03*
X-2921000Y-3302000D03*
D23*
X+431800Y+1841500D03*
D24*
X-762000Y-3556000D03*
X-762000Y-3302000D03*
X-762000Y-3048000D03*
X+1587500Y-3302000D03*
X+1587500Y-3556000D03*
X+1587500Y-3048000D03*
D23*
X+2679700Y+1841500D03*
D24*
X+3937000Y-3556000D03*
X+6223000Y-3556000D03*
X+3937000Y-3048000D03*
X+6223000Y-3048000D03*
X+3937000Y-3302000D03*
X+6223000Y-3302000D03*
D23*
X+4953000Y+1841500D03*
X+7162800Y+1841500D03*
D24*
X+7112000Y-3302000D03*
X+5461000Y-3302000D03*
X+2984500Y-3302000D03*
X+571500Y-3302000D03*
X-1778000Y-3302000D03*
X+7112000Y-3556000D03*
X+5461000Y-3556000D03*
X+2984500Y-3556000D03*
X+571500Y-3556000D03*
X-1778000Y-3556000D03*
X+7112000Y-3048000D03*
X+5461000Y-3048000D03*
X+2984500Y-3048000D03*
X+571500Y-3048000D03*
X-1778000Y-3048000D03*
D23*
X+6718300Y+1841500D03*
X+4495800Y+1841500D03*
X+2222500Y+1841500D03*
X-25400Y+1841500D03*
X-2273300Y+1841500D03*
X-5080000Y+1905000D03*
D24*
X-4318000Y-3556000D03*
X-4318000Y-3048000D03*
X-4318000Y-3302000D03*
D35*
X-6921500Y-3810000D03*
X-6921500Y+2413000D03*
X+8001000Y+2413000D03*
X+8001000Y-3746500D03*
D24*
X-5207000Y-3048000D03*
X-5207000Y-3302000D03*
X-5207000Y-3556000D03*
X-5207000Y-3810000D03*
D23*
X-4635500Y+1905000D03*
D40*
X-7429500Y-4254500D02*
X+8509000Y-4254500D01*
X+8509000Y+2921000D01*
X-7429500Y+2921000D01*
X-7429500Y-4254500D01*
M02*
