G04 PROTEUS RS274X GERBER FILE*
%FSLAX45Y45*%
%MOMM*%
G01*
%ADD40C,0.203200*%
%ADD107C,0.406400*%
%ADD124C,0.072390*%
%ADD99C,2.794000*%
%ADD114C,0.157050*%
%ADD86C,0.050000*%
%ADD93C,0.843280*%
%ADD125C,0.130000*%
%ADD105C,0.355600*%
%ADD117C,0.057150*%
%ADD87C,1.074420*%
%ADD88C,0.196920*%
%ADD126C,0.148640*%
%ADD95C,1.219200*%
%ADD113C,0.158110*%
%ADD115C,0.126560*%
%ADD109C,0.342900*%
%ADD127C,0.122500*%
%ADD101C,0.571500*%
%ADD116C,0.175890*%
%ADD97C,1.120140*%
%ADD128C,0.125230*%
%ADD11C,1.016000*%
%ADD91C,0.721360*%
%ADD112C,0.082770*%
%ADD44C,0.101600*%
%ADD129C,0.066220*%
%ADD111C,0.080270*%
%ADD90C,0.064220*%
D40*
X-7429500Y-4254500D02*
X+8509000Y-4254500D01*
X+8509000Y+2921000D01*
X-7429500Y+2921000D01*
X-7429500Y-4254500D01*
X+8041640Y-1630680D02*
X+8351520Y-1630680D01*
X+8351520Y-1338580D01*
X+8041640Y-1338580D01*
X+8041640Y-1630680D01*
D107*
X+8196580Y-1389380D02*
X+8196580Y-1389380D01*
D124*
X+8326882Y-1512951D02*
X+8310595Y-1498473D01*
X+8294307Y-1498473D01*
X+8278019Y-1512951D01*
X+8278019Y-1527429D01*
X+8294307Y-1541907D01*
X+8310595Y-1541907D01*
X+8326882Y-1527429D01*
X+8326882Y-1512951D01*
X+8294307Y-1527429D02*
X+8278019Y-1541907D01*
X+8261731Y-1498473D02*
X+8261731Y-1520190D01*
X+8237300Y-1541907D01*
X+8212868Y-1520190D01*
X+8212868Y-1498473D01*
X+8180293Y-1512951D02*
X+8164005Y-1498473D01*
X+8164005Y-1541907D01*
X+8115142Y-1512951D02*
X+8098854Y-1498473D01*
X+8098854Y-1541907D01*
D40*
X+7524750Y+7620D02*
X+8223250Y+7620D01*
X+8223250Y+1174750D01*
X+7524750Y+1174750D01*
X+7524750Y+7620D01*
D99*
X+7874000Y+825500D02*
X+7874000Y+825500D01*
D114*
X+8156702Y+362416D02*
X+8121365Y+393827D01*
X+8086027Y+393827D01*
X+8050689Y+362416D01*
X+8050689Y+331004D01*
X+8086027Y+299593D01*
X+8121365Y+299593D01*
X+8156702Y+331004D01*
X+8156702Y+362416D01*
X+8086027Y+331004D02*
X+8050689Y+299593D01*
X+8015351Y+393827D02*
X+8015351Y+346710D01*
X+7962345Y+299593D01*
X+7909338Y+346710D01*
X+7909338Y+393827D01*
X+7838663Y+362416D02*
X+7803325Y+393827D01*
X+7803325Y+299593D01*
X+7714981Y+378121D02*
X+7697312Y+393827D01*
X+7644305Y+393827D01*
X+7626636Y+378121D01*
X+7626636Y+362416D01*
X+7644305Y+346710D01*
X+7697312Y+346710D01*
X+7714981Y+331004D01*
X+7714981Y+299593D01*
X+7626636Y+299593D01*
D40*
X+5628640Y-1630680D02*
X+5938520Y-1630680D01*
X+5938520Y-1338580D01*
X+5628640Y-1338580D01*
X+5628640Y-1630680D01*
D107*
X+5783580Y-1389380D02*
X+5783580Y-1389380D01*
D124*
X+5913882Y-1512951D02*
X+5897595Y-1498473D01*
X+5881307Y-1498473D01*
X+5865019Y-1512951D01*
X+5865019Y-1527429D01*
X+5881307Y-1541907D01*
X+5897595Y-1541907D01*
X+5913882Y-1527429D01*
X+5913882Y-1512951D01*
X+5881307Y-1527429D02*
X+5865019Y-1541907D01*
X+5848731Y-1498473D02*
X+5848731Y-1520190D01*
X+5824300Y-1541907D01*
X+5799868Y-1520190D01*
X+5799868Y-1498473D01*
X+5767293Y-1512951D02*
X+5751005Y-1498473D01*
X+5751005Y-1541907D01*
X+5710286Y-1505712D02*
X+5702142Y-1498473D01*
X+5677710Y-1498473D01*
X+5669566Y-1505712D01*
X+5669566Y-1512951D01*
X+5677710Y-1520190D01*
X+5669566Y-1527429D01*
X+5669566Y-1534668D01*
X+5677710Y-1541907D01*
X+5702142Y-1541907D01*
X+5710286Y-1534668D01*
X+5693998Y-1520190D02*
X+5677710Y-1520190D01*
D40*
X+5111750Y+7620D02*
X+5810250Y+7620D01*
X+5810250Y+1174750D01*
X+5111750Y+1174750D01*
X+5111750Y+7620D01*
D99*
X+5461000Y+825500D02*
X+5461000Y+825500D01*
D114*
X+5743702Y+362416D02*
X+5708365Y+393827D01*
X+5673027Y+393827D01*
X+5637689Y+362416D01*
X+5637689Y+331004D01*
X+5673027Y+299593D01*
X+5708365Y+299593D01*
X+5743702Y+331004D01*
X+5743702Y+362416D01*
X+5673027Y+331004D02*
X+5637689Y+299593D01*
X+5602351Y+393827D02*
X+5602351Y+346710D01*
X+5549345Y+299593D01*
X+5496338Y+346710D01*
X+5496338Y+393827D01*
X+5425663Y+362416D02*
X+5390325Y+393827D01*
X+5390325Y+299593D01*
X+5213636Y+331004D02*
X+5319649Y+331004D01*
X+5248974Y+393827D01*
X+5248974Y+299593D01*
D40*
X+3215640Y-1630680D02*
X+3525520Y-1630680D01*
X+3525520Y-1338580D01*
X+3215640Y-1338580D01*
X+3215640Y-1630680D01*
D107*
X+3370580Y-1389380D02*
X+3370580Y-1389380D01*
D124*
X+3500882Y-1512951D02*
X+3484595Y-1498473D01*
X+3468307Y-1498473D01*
X+3452019Y-1512951D01*
X+3452019Y-1527429D01*
X+3468307Y-1541907D01*
X+3484595Y-1541907D01*
X+3500882Y-1527429D01*
X+3500882Y-1512951D01*
X+3468307Y-1527429D02*
X+3452019Y-1541907D01*
X+3435731Y-1498473D02*
X+3435731Y-1520190D01*
X+3411300Y-1541907D01*
X+3386868Y-1520190D01*
X+3386868Y-1498473D01*
X+3354293Y-1512951D02*
X+3338005Y-1498473D01*
X+3338005Y-1541907D01*
X+3256566Y-1498473D02*
X+3297286Y-1498473D01*
X+3297286Y-1512951D01*
X+3264710Y-1512951D01*
X+3256566Y-1520190D01*
X+3256566Y-1534668D01*
X+3264710Y-1541907D01*
X+3289142Y-1541907D01*
X+3297286Y-1534668D01*
D40*
X+2698750Y+7620D02*
X+3397250Y+7620D01*
X+3397250Y+1174750D01*
X+2698750Y+1174750D01*
X+2698750Y+7620D01*
D99*
X+3048000Y+825500D02*
X+3048000Y+825500D01*
D114*
X+3330702Y+362416D02*
X+3295365Y+393827D01*
X+3260027Y+393827D01*
X+3224689Y+362416D01*
X+3224689Y+331004D01*
X+3260027Y+299593D01*
X+3295365Y+299593D01*
X+3330702Y+331004D01*
X+3330702Y+362416D01*
X+3260027Y+331004D02*
X+3224689Y+299593D01*
X+3189351Y+393827D02*
X+3189351Y+346710D01*
X+3136345Y+299593D01*
X+3083338Y+346710D01*
X+3083338Y+393827D01*
X+3012663Y+362416D02*
X+2977325Y+393827D01*
X+2977325Y+299593D01*
X+2800636Y+378121D02*
X+2818305Y+393827D01*
X+2871312Y+393827D01*
X+2888981Y+378121D01*
X+2888981Y+315299D01*
X+2871312Y+299593D01*
X+2818305Y+299593D01*
X+2800636Y+315299D01*
X+2800636Y+331004D01*
X+2818305Y+346710D01*
X+2888981Y+346710D01*
D40*
X+802640Y-1630680D02*
X+1112520Y-1630680D01*
X+1112520Y-1338580D01*
X+802640Y-1338580D01*
X+802640Y-1630680D01*
D107*
X+957580Y-1389380D02*
X+957580Y-1389380D01*
D124*
X+1087882Y-1512951D02*
X+1071595Y-1498473D01*
X+1055307Y-1498473D01*
X+1039019Y-1512951D01*
X+1039019Y-1527429D01*
X+1055307Y-1541907D01*
X+1071595Y-1541907D01*
X+1087882Y-1527429D01*
X+1087882Y-1512951D01*
X+1055307Y-1527429D02*
X+1039019Y-1541907D01*
X+1022731Y-1498473D02*
X+1022731Y-1520190D01*
X+998300Y-1541907D01*
X+973868Y-1520190D01*
X+973868Y-1498473D01*
X+941293Y-1512951D02*
X+925005Y-1498473D01*
X+925005Y-1541907D01*
X+884286Y-1498473D02*
X+843566Y-1498473D01*
X+843566Y-1505712D01*
X+884286Y-1541907D01*
D40*
X+285750Y+7620D02*
X+984250Y+7620D01*
X+984250Y+1174750D01*
X+285750Y+1174750D01*
X+285750Y+7620D01*
D99*
X+635000Y+825500D02*
X+635000Y+825500D01*
D114*
X+917702Y+362416D02*
X+882365Y+393827D01*
X+847027Y+393827D01*
X+811689Y+362416D01*
X+811689Y+331004D01*
X+847027Y+299593D01*
X+882365Y+299593D01*
X+917702Y+331004D01*
X+917702Y+362416D01*
X+847027Y+331004D02*
X+811689Y+299593D01*
X+776351Y+393827D02*
X+776351Y+346710D01*
X+723345Y+299593D01*
X+670338Y+346710D01*
X+670338Y+393827D01*
X+599663Y+362416D02*
X+564325Y+393827D01*
X+564325Y+299593D01*
X+458312Y+346710D02*
X+475981Y+362416D01*
X+475981Y+378121D01*
X+458312Y+393827D01*
X+405305Y+393827D01*
X+387636Y+378121D01*
X+387636Y+362416D01*
X+405305Y+346710D01*
X+458312Y+346710D01*
X+475981Y+331004D01*
X+475981Y+315299D01*
X+458312Y+299593D01*
X+405305Y+299593D01*
X+387636Y+315299D01*
X+387636Y+331004D01*
X+405305Y+346710D01*
D40*
X-1610360Y-1630680D02*
X-1300480Y-1630680D01*
X-1300480Y-1338580D01*
X-1610360Y-1338580D01*
X-1610360Y-1630680D01*
D107*
X-1455420Y-1389380D02*
X-1455420Y-1389380D01*
D124*
X-1325118Y-1512951D02*
X-1341405Y-1498473D01*
X-1357693Y-1498473D01*
X-1373981Y-1512951D01*
X-1373981Y-1527429D01*
X-1357693Y-1541907D01*
X-1341405Y-1541907D01*
X-1325118Y-1527429D01*
X-1325118Y-1512951D01*
X-1357693Y-1527429D02*
X-1373981Y-1541907D01*
X-1390269Y-1498473D02*
X-1390269Y-1520190D01*
X-1414700Y-1541907D01*
X-1439132Y-1520190D01*
X-1439132Y-1498473D01*
X-1471707Y-1512951D02*
X-1487995Y-1498473D01*
X-1487995Y-1541907D01*
X-1569434Y-1512951D02*
X-1561290Y-1520190D01*
X-1536858Y-1520190D01*
X-1528714Y-1512951D01*
X-1528714Y-1505712D01*
X-1536858Y-1498473D01*
X-1561290Y-1498473D01*
X-1569434Y-1505712D01*
X-1569434Y-1534668D01*
X-1561290Y-1541907D01*
X-1536858Y-1541907D01*
D40*
X-2127250Y+7620D02*
X-1428750Y+7620D01*
X-1428750Y+1174750D01*
X-2127250Y+1174750D01*
X-2127250Y+7620D01*
D99*
X-1778000Y+825500D02*
X-1778000Y+825500D01*
D114*
X-1495298Y+362416D02*
X-1530635Y+393827D01*
X-1565973Y+393827D01*
X-1601311Y+362416D01*
X-1601311Y+331004D01*
X-1565973Y+299593D01*
X-1530635Y+299593D01*
X-1495298Y+331004D01*
X-1495298Y+362416D01*
X-1565973Y+331004D02*
X-1601311Y+299593D01*
X-1636649Y+393827D02*
X-1636649Y+346710D01*
X-1689655Y+299593D01*
X-1742662Y+346710D01*
X-1742662Y+393827D01*
X-1795668Y+378121D02*
X-1813337Y+393827D01*
X-1866344Y+393827D01*
X-1884013Y+378121D01*
X-1884013Y+362416D01*
X-1866344Y+346710D01*
X-1813337Y+346710D01*
X-1795668Y+331004D01*
X-1795668Y+299593D01*
X-1884013Y+299593D01*
X-1919351Y+315299D02*
X-1919351Y+378121D01*
X-1937019Y+393827D01*
X-2007695Y+393827D01*
X-2025364Y+378121D01*
X-2025364Y+315299D01*
X-2007695Y+299593D01*
X-1937019Y+299593D01*
X-1919351Y+315299D01*
X-1919351Y+299593D02*
X-2025364Y+393827D01*
D86*
X+6871600Y+824620D02*
X+6871600Y+1534620D01*
X+7301600Y+1534620D01*
X+7301600Y+824620D01*
X+6871600Y+824620D01*
X+7136600Y+1179620D02*
X+7036600Y+1179620D01*
X+7086600Y+1229620D02*
X+7086600Y+1129620D01*
D93*
X+7086600Y+954620D02*
X+7086600Y+954620D01*
D125*
X+7125602Y+1500958D02*
X+7047599Y+1500958D01*
X+7047599Y+1442457D01*
X+7073600Y+1413206D01*
X+7099601Y+1413206D01*
X+7125602Y+1442457D01*
X+7125602Y+1500958D01*
X+7047599Y+1383955D02*
X+7086600Y+1383955D01*
X+7125602Y+1340079D01*
X+7086600Y+1296203D01*
X+7047599Y+1296203D01*
X+7073600Y+1237702D02*
X+7047599Y+1208451D01*
X+7125602Y+1208451D01*
X+7073600Y+1120699D02*
X+7047599Y+1091448D01*
X+7125602Y+1091448D01*
D40*
X+7964020Y-1992630D02*
X+8114180Y-1992630D01*
X+8114180Y-1694180D01*
X+7964020Y-1694180D01*
X+7964020Y-1992630D01*
D105*
X+8039100Y-1725930D02*
X+8039100Y-1725930D01*
D117*
X+8056245Y-1765300D02*
X+8021955Y-1765300D01*
X+8021955Y-1791017D01*
X+8033385Y-1803876D01*
X+8044815Y-1803876D01*
X+8056245Y-1791017D01*
X+8056245Y-1765300D01*
X+8021955Y-1816735D02*
X+8039100Y-1816735D01*
X+8056245Y-1836023D01*
X+8039100Y-1855311D01*
X+8021955Y-1855311D01*
X+8033385Y-1881028D02*
X+8021955Y-1893887D01*
X+8056245Y-1893887D01*
X+8027670Y-1926034D02*
X+8021955Y-1932463D01*
X+8021955Y-1951751D01*
X+8027670Y-1958181D01*
X+8033385Y-1958181D01*
X+8039100Y-1951751D01*
X+8039100Y-1932463D01*
X+8044815Y-1926034D01*
X+8056245Y-1926034D01*
X+8056245Y-1958181D01*
D86*
X+4458600Y+824620D02*
X+4458600Y+1534620D01*
X+4888600Y+1534620D01*
X+4888600Y+824620D01*
X+4458600Y+824620D01*
X+4723600Y+1179620D02*
X+4623600Y+1179620D01*
X+4673600Y+1229620D02*
X+4673600Y+1129620D01*
D93*
X+4673600Y+954620D02*
X+4673600Y+954620D01*
D125*
X+4712602Y+1500958D02*
X+4634599Y+1500958D01*
X+4634599Y+1442457D01*
X+4660600Y+1413206D01*
X+4686601Y+1413206D01*
X+4712602Y+1442457D01*
X+4712602Y+1500958D01*
X+4634599Y+1383955D02*
X+4673600Y+1383955D01*
X+4712602Y+1340079D01*
X+4673600Y+1296203D01*
X+4634599Y+1296203D01*
X+4660600Y+1237702D02*
X+4634599Y+1208451D01*
X+4712602Y+1208451D01*
X+4647600Y+1135324D02*
X+4634599Y+1120699D01*
X+4634599Y+1076823D01*
X+4647600Y+1062197D01*
X+4660600Y+1062197D01*
X+4673600Y+1076823D01*
X+4686601Y+1062197D01*
X+4699601Y+1062197D01*
X+4712602Y+1076823D01*
X+4712602Y+1120699D01*
X+4699601Y+1135324D01*
X+4673600Y+1106073D02*
X+4673600Y+1076823D01*
D40*
X+5551020Y-1992630D02*
X+5701180Y-1992630D01*
X+5701180Y-1694180D01*
X+5551020Y-1694180D01*
X+5551020Y-1992630D01*
D105*
X+5626100Y-1725930D02*
X+5626100Y-1725930D01*
D117*
X+5643245Y-1765300D02*
X+5608955Y-1765300D01*
X+5608955Y-1791017D01*
X+5620385Y-1803876D01*
X+5631815Y-1803876D01*
X+5643245Y-1791017D01*
X+5643245Y-1765300D01*
X+5608955Y-1816735D02*
X+5626100Y-1816735D01*
X+5643245Y-1836023D01*
X+5626100Y-1855311D01*
X+5608955Y-1855311D01*
X+5620385Y-1881028D02*
X+5608955Y-1893887D01*
X+5643245Y-1893887D01*
X+5631815Y-1958181D02*
X+5631815Y-1919605D01*
X+5608955Y-1945322D01*
X+5643245Y-1945322D01*
D86*
X+2045600Y+824620D02*
X+2045600Y+1534620D01*
X+2475600Y+1534620D01*
X+2475600Y+824620D01*
X+2045600Y+824620D01*
X+2310600Y+1179620D02*
X+2210600Y+1179620D01*
X+2260600Y+1229620D02*
X+2260600Y+1129620D01*
D93*
X+2260600Y+954620D02*
X+2260600Y+954620D01*
D125*
X+2299602Y+1500958D02*
X+2221599Y+1500958D01*
X+2221599Y+1442457D01*
X+2247600Y+1413206D01*
X+2273601Y+1413206D01*
X+2299602Y+1442457D01*
X+2299602Y+1500958D01*
X+2221599Y+1383955D02*
X+2260600Y+1383955D01*
X+2299602Y+1340079D01*
X+2260600Y+1296203D01*
X+2221599Y+1296203D01*
X+2247600Y+1237702D02*
X+2221599Y+1208451D01*
X+2299602Y+1208451D01*
X+2221599Y+1062197D02*
X+2221599Y+1135324D01*
X+2247600Y+1135324D01*
X+2247600Y+1076823D01*
X+2260600Y+1062197D01*
X+2286601Y+1062197D01*
X+2299602Y+1076823D01*
X+2299602Y+1120699D01*
X+2286601Y+1135324D01*
D40*
X+3138020Y-1992630D02*
X+3288180Y-1992630D01*
X+3288180Y-1694180D01*
X+3138020Y-1694180D01*
X+3138020Y-1992630D01*
D105*
X+3213100Y-1725930D02*
X+3213100Y-1725930D01*
D117*
X+3230245Y-1765300D02*
X+3195955Y-1765300D01*
X+3195955Y-1791017D01*
X+3207385Y-1803876D01*
X+3218815Y-1803876D01*
X+3230245Y-1791017D01*
X+3230245Y-1765300D01*
X+3195955Y-1816735D02*
X+3213100Y-1816735D01*
X+3230245Y-1836023D01*
X+3213100Y-1855311D01*
X+3195955Y-1855311D01*
X+3207385Y-1881028D02*
X+3195955Y-1893887D01*
X+3230245Y-1893887D01*
X+3201670Y-1958181D02*
X+3195955Y-1951751D01*
X+3195955Y-1932463D01*
X+3201670Y-1926034D01*
X+3224530Y-1926034D01*
X+3230245Y-1932463D01*
X+3230245Y-1951751D01*
X+3224530Y-1958181D01*
X+3218815Y-1958181D01*
X+3213100Y-1951751D01*
X+3213100Y-1926034D01*
D86*
X-367400Y+824620D02*
X-367400Y+1534620D01*
X+62600Y+1534620D01*
X+62600Y+824620D01*
X-367400Y+824620D01*
X-102400Y+1179620D02*
X-202400Y+1179620D01*
X-152400Y+1229620D02*
X-152400Y+1129620D01*
D93*
X-152400Y+954620D02*
X-152400Y+954620D01*
D125*
X-113398Y+1500958D02*
X-191401Y+1500958D01*
X-191401Y+1442457D01*
X-165400Y+1413206D01*
X-139399Y+1413206D01*
X-113398Y+1442457D01*
X-113398Y+1500958D01*
X-191401Y+1383955D02*
X-152400Y+1383955D01*
X-113398Y+1340079D01*
X-152400Y+1296203D01*
X-191401Y+1296203D01*
X-165400Y+1237702D02*
X-191401Y+1208451D01*
X-113398Y+1208451D01*
X-191401Y+1135324D02*
X-191401Y+1062197D01*
X-178400Y+1062197D01*
X-113398Y+1135324D01*
D40*
X+725020Y-1992630D02*
X+875180Y-1992630D01*
X+875180Y-1694180D01*
X+725020Y-1694180D01*
X+725020Y-1992630D01*
D105*
X+800100Y-1725930D02*
X+800100Y-1725930D01*
D117*
X+817245Y-1765300D02*
X+782955Y-1765300D01*
X+782955Y-1791017D01*
X+794385Y-1803876D01*
X+805815Y-1803876D01*
X+817245Y-1791017D01*
X+817245Y-1765300D01*
X+782955Y-1816735D02*
X+800100Y-1816735D01*
X+817245Y-1836023D01*
X+800100Y-1855311D01*
X+782955Y-1855311D01*
X+794385Y-1881028D02*
X+782955Y-1893887D01*
X+817245Y-1893887D01*
X+800100Y-1932463D02*
X+794385Y-1926034D01*
X+788670Y-1926034D01*
X+782955Y-1932463D01*
X+782955Y-1951751D01*
X+788670Y-1958181D01*
X+794385Y-1958181D01*
X+800100Y-1951751D01*
X+800100Y-1932463D01*
X+805815Y-1926034D01*
X+811530Y-1926034D01*
X+817245Y-1932463D01*
X+817245Y-1951751D01*
X+811530Y-1958181D01*
X+805815Y-1958181D01*
X+800100Y-1951751D01*
D86*
X-2780400Y+824620D02*
X-2780400Y+1534620D01*
X-2350400Y+1534620D01*
X-2350400Y+824620D01*
X-2780400Y+824620D01*
X-2515400Y+1179620D02*
X-2615400Y+1179620D01*
X-2565400Y+1229620D02*
X-2565400Y+1129620D01*
D93*
X-2565400Y+954620D02*
X-2565400Y+954620D01*
D125*
X-2526398Y+1500958D02*
X-2604401Y+1500958D01*
X-2604401Y+1442457D01*
X-2578400Y+1413206D01*
X-2552399Y+1413206D01*
X-2526398Y+1442457D01*
X-2526398Y+1500958D01*
X-2604401Y+1383955D02*
X-2565400Y+1383955D01*
X-2526398Y+1340079D01*
X-2565400Y+1296203D01*
X-2604401Y+1296203D01*
X-2578400Y+1237702D02*
X-2604401Y+1208451D01*
X-2526398Y+1208451D01*
X-2578400Y+1062197D02*
X-2565400Y+1076823D01*
X-2565400Y+1120699D01*
X-2578400Y+1135324D01*
X-2591400Y+1135324D01*
X-2604401Y+1120699D01*
X-2604401Y+1076823D01*
X-2591400Y+1062197D01*
X-2539399Y+1062197D01*
X-2526398Y+1076823D01*
X-2526398Y+1120699D01*
D40*
X-1687980Y-1992630D02*
X-1537820Y-1992630D01*
X-1537820Y-1694180D01*
X-1687980Y-1694180D01*
X-1687980Y-1992630D01*
D105*
X-1612900Y-1725930D02*
X-1612900Y-1725930D01*
D117*
X-1595755Y-1765300D02*
X-1630045Y-1765300D01*
X-1630045Y-1791017D01*
X-1618615Y-1803876D01*
X-1607185Y-1803876D01*
X-1595755Y-1791017D01*
X-1595755Y-1765300D01*
X-1630045Y-1816735D02*
X-1612900Y-1816735D01*
X-1595755Y-1836023D01*
X-1612900Y-1855311D01*
X-1630045Y-1855311D01*
X-1624330Y-1874599D02*
X-1630045Y-1881028D01*
X-1630045Y-1900316D01*
X-1624330Y-1906746D01*
X-1618615Y-1906746D01*
X-1612900Y-1900316D01*
X-1612900Y-1881028D01*
X-1607185Y-1874599D01*
X-1595755Y-1874599D01*
X-1595755Y-1906746D01*
X-1601470Y-1919605D02*
X-1624330Y-1919605D01*
X-1630045Y-1926034D01*
X-1630045Y-1951751D01*
X-1624330Y-1958181D01*
X-1601470Y-1958181D01*
X-1595755Y-1951751D01*
X-1595755Y-1926034D01*
X-1601470Y-1919605D01*
X-1595755Y-1919605D02*
X-1630045Y-1958181D01*
D86*
X+6620600Y+488120D02*
X+7390600Y+488120D01*
X+7390600Y-91880D01*
X+6620600Y-91880D01*
X+6620600Y+488120D01*
X+7005600Y+148120D02*
X+7005600Y+248120D01*
X+7055600Y+198120D02*
X+6955600Y+198120D01*
D87*
X+6705600Y+198120D02*
X+6705600Y+198120D01*
D88*
X+7342064Y+257199D02*
X+7342064Y+139041D01*
X+7209137Y+139041D01*
X+7164828Y+257199D02*
X+7164828Y+198120D01*
X+7098365Y+139041D01*
X+7031901Y+198120D01*
X+7031901Y+257199D01*
X+6854665Y+237506D02*
X+6876820Y+257199D01*
X+6943283Y+257199D01*
X+6965438Y+237506D01*
X+6965438Y+158734D01*
X+6943283Y+139041D01*
X+6876820Y+139041D01*
X+6854665Y+158734D01*
X+6854665Y+178427D01*
X+6876820Y+198120D01*
X+6965438Y+198120D01*
D86*
X+4144100Y+488120D02*
X+4914100Y+488120D01*
X+4914100Y-91880D01*
X+4144100Y-91880D01*
X+4144100Y+488120D01*
X+4529100Y+148120D02*
X+4529100Y+248120D01*
X+4579100Y+198120D02*
X+4479100Y+198120D01*
D87*
X+4229100Y+198120D02*
X+4229100Y+198120D01*
D88*
X+4865564Y+257199D02*
X+4865564Y+139041D01*
X+4732637Y+139041D01*
X+4688328Y+257199D02*
X+4688328Y+198120D01*
X+4621865Y+139041D01*
X+4555401Y+198120D01*
X+4555401Y+257199D01*
X+4488938Y+257199D02*
X+4378165Y+257199D01*
X+4378165Y+237506D01*
X+4488938Y+139041D01*
D86*
X+1731100Y+488120D02*
X+2501100Y+488120D01*
X+2501100Y-91880D01*
X+1731100Y-91880D01*
X+1731100Y+488120D01*
X+2116100Y+148120D02*
X+2116100Y+248120D01*
X+2166100Y+198120D02*
X+2066100Y+198120D01*
D87*
X+1816100Y+198120D02*
X+1816100Y+198120D01*
D88*
X+2452564Y+257199D02*
X+2452564Y+139041D01*
X+2319637Y+139041D01*
X+2275328Y+257199D02*
X+2275328Y+198120D01*
X+2208865Y+139041D01*
X+2142401Y+198120D01*
X+2142401Y+257199D01*
X+2053783Y+198120D02*
X+2075938Y+217813D01*
X+2075938Y+237506D01*
X+2053783Y+257199D01*
X+1987320Y+257199D01*
X+1965165Y+237506D01*
X+1965165Y+217813D01*
X+1987320Y+198120D01*
X+2053783Y+198120D01*
X+2075938Y+178427D01*
X+2075938Y+158734D01*
X+2053783Y+139041D01*
X+1987320Y+139041D01*
X+1965165Y+158734D01*
X+1965165Y+178427D01*
X+1987320Y+198120D01*
D86*
X-681900Y+488120D02*
X+88100Y+488120D01*
X+88100Y-91880D01*
X-681900Y-91880D01*
X-681900Y+488120D01*
X-296900Y+148120D02*
X-296900Y+248120D01*
X-246900Y+198120D02*
X-346900Y+198120D01*
D87*
X-596900Y+198120D02*
X-596900Y+198120D01*
D88*
X+39564Y+257199D02*
X+39564Y+139041D01*
X-93363Y+139041D01*
X-137672Y+257199D02*
X-137672Y+198120D01*
X-204135Y+139041D01*
X-270599Y+198120D01*
X-270599Y+257199D01*
X-447835Y+217813D02*
X-425680Y+198120D01*
X-359217Y+198120D01*
X-337062Y+217813D01*
X-337062Y+237506D01*
X-359217Y+257199D01*
X-425680Y+257199D01*
X-447835Y+237506D01*
X-447835Y+158734D01*
X-425680Y+139041D01*
X-359217Y+139041D01*
D86*
X-3094900Y+488120D02*
X-2324900Y+488120D01*
X-2324900Y-91880D01*
X-3094900Y-91880D01*
X-3094900Y+488120D01*
X-2709900Y+148120D02*
X-2709900Y+248120D01*
X-2659900Y+198120D02*
X-2759900Y+198120D01*
D87*
X-3009900Y+198120D02*
X-3009900Y+198120D01*
D126*
X-2371738Y+242712D02*
X-2371738Y+153528D01*
X-2472070Y+153528D01*
X-2505514Y+242712D02*
X-2505514Y+198120D01*
X-2555680Y+153528D01*
X-2605846Y+198120D01*
X-2605846Y+242712D01*
X-2672734Y+212984D02*
X-2706178Y+242712D01*
X-2706178Y+153528D01*
X-2773066Y+168392D02*
X-2773066Y+227848D01*
X-2789788Y+242712D01*
X-2856676Y+242712D01*
X-2873398Y+227848D01*
X-2873398Y+168392D01*
X-2856676Y+153528D01*
X-2789788Y+153528D01*
X-2773066Y+168392D01*
X-2773066Y+153528D02*
X-2873398Y+242712D01*
D40*
X+5996940Y+762220D02*
X+6652260Y+762220D01*
X+6652260Y+1511520D01*
X+5996940Y+1511520D01*
X+5996940Y+762220D01*
D95*
X+6324600Y+914620D02*
X+6324600Y+914620D01*
D113*
X+6502479Y+1211927D02*
X+6520267Y+1196116D01*
X+6573631Y+1196116D01*
X+6609206Y+1227739D01*
X+6609206Y+1259362D01*
X+6573631Y+1290985D01*
X+6520267Y+1290985D01*
X+6502479Y+1275173D01*
X+6466903Y+1290985D02*
X+6466903Y+1243550D01*
X+6413540Y+1196116D01*
X+6360176Y+1243550D01*
X+6360176Y+1290985D01*
X+6217873Y+1275173D02*
X+6235661Y+1290985D01*
X+6289025Y+1290985D01*
X+6306813Y+1275173D01*
X+6306813Y+1211927D01*
X+6289025Y+1196116D01*
X+6235661Y+1196116D01*
X+6217873Y+1211927D01*
X+6217873Y+1227739D01*
X+6235661Y+1243550D01*
X+6306813Y+1243550D01*
X+6075570Y+1290985D02*
X+6164510Y+1290985D01*
X+6164510Y+1259362D01*
X+6093358Y+1259362D01*
X+6075570Y+1243550D01*
X+6075570Y+1211927D01*
X+6093358Y+1196116D01*
X+6146722Y+1196116D01*
X+6164510Y+1211927D01*
D40*
X+3583940Y+762220D02*
X+4239260Y+762220D01*
X+4239260Y+1511520D01*
X+3583940Y+1511520D01*
X+3583940Y+762220D01*
D95*
X+3911600Y+914620D02*
X+3911600Y+914620D01*
D113*
X+4089479Y+1211927D02*
X+4107267Y+1196116D01*
X+4160631Y+1196116D01*
X+4196206Y+1227739D01*
X+4196206Y+1259362D01*
X+4160631Y+1290985D01*
X+4107267Y+1290985D01*
X+4089479Y+1275173D01*
X+4053903Y+1290985D02*
X+4053903Y+1243550D01*
X+4000540Y+1196116D01*
X+3947176Y+1243550D01*
X+3947176Y+1290985D01*
X+3893813Y+1290985D02*
X+3804873Y+1290985D01*
X+3804873Y+1275173D01*
X+3893813Y+1196116D01*
X+3662570Y+1275173D02*
X+3680358Y+1290985D01*
X+3733722Y+1290985D01*
X+3751510Y+1275173D01*
X+3751510Y+1211927D01*
X+3733722Y+1196116D01*
X+3680358Y+1196116D01*
X+3662570Y+1211927D01*
X+3662570Y+1227739D01*
X+3680358Y+1243550D01*
X+3751510Y+1243550D01*
D40*
X+1170940Y+762220D02*
X+1826260Y+762220D01*
X+1826260Y+1511520D01*
X+1170940Y+1511520D01*
X+1170940Y+762220D01*
D95*
X+1498600Y+914620D02*
X+1498600Y+914620D01*
D113*
X+1676479Y+1211927D02*
X+1694267Y+1196116D01*
X+1747631Y+1196116D01*
X+1783206Y+1227739D01*
X+1783206Y+1259362D01*
X+1747631Y+1290985D01*
X+1694267Y+1290985D01*
X+1676479Y+1275173D01*
X+1640903Y+1290985D02*
X+1640903Y+1243550D01*
X+1587540Y+1196116D01*
X+1534176Y+1243550D01*
X+1534176Y+1290985D01*
X+1463025Y+1243550D02*
X+1480813Y+1259362D01*
X+1480813Y+1275173D01*
X+1463025Y+1290985D01*
X+1409661Y+1290985D01*
X+1391873Y+1275173D01*
X+1391873Y+1259362D01*
X+1409661Y+1243550D01*
X+1463025Y+1243550D01*
X+1480813Y+1227739D01*
X+1480813Y+1211927D01*
X+1463025Y+1196116D01*
X+1409661Y+1196116D01*
X+1391873Y+1211927D01*
X+1391873Y+1227739D01*
X+1409661Y+1243550D01*
X+1338510Y+1290985D02*
X+1249570Y+1290985D01*
X+1249570Y+1275173D01*
X+1338510Y+1196116D01*
D40*
X-1242060Y+762220D02*
X-586740Y+762220D01*
X-586740Y+1511520D01*
X-1242060Y+1511520D01*
X-1242060Y+762220D01*
D95*
X-914400Y+914620D02*
X-914400Y+914620D01*
D113*
X-736521Y+1211927D02*
X-718733Y+1196116D01*
X-665369Y+1196116D01*
X-629794Y+1227739D01*
X-629794Y+1259362D01*
X-665369Y+1290985D01*
X-718733Y+1290985D01*
X-736521Y+1275173D01*
X-772097Y+1290985D02*
X-772097Y+1243550D01*
X-825460Y+1196116D01*
X-878824Y+1243550D01*
X-878824Y+1290985D01*
X-1021127Y+1259362D02*
X-1003339Y+1243550D01*
X-949975Y+1243550D01*
X-932187Y+1259362D01*
X-932187Y+1275173D01*
X-949975Y+1290985D01*
X-1003339Y+1290985D01*
X-1021127Y+1275173D01*
X-1021127Y+1211927D01*
X-1003339Y+1196116D01*
X-949975Y+1196116D01*
X-1092278Y+1243550D02*
X-1074490Y+1259362D01*
X-1074490Y+1275173D01*
X-1092278Y+1290985D01*
X-1145642Y+1290985D01*
X-1163430Y+1275173D01*
X-1163430Y+1259362D01*
X-1145642Y+1243550D01*
X-1092278Y+1243550D01*
X-1074490Y+1227739D01*
X-1074490Y+1211927D01*
X-1092278Y+1196116D01*
X-1145642Y+1196116D01*
X-1163430Y+1211927D01*
X-1163430Y+1227739D01*
X-1145642Y+1243550D01*
D40*
X-3655060Y+762220D02*
X-2999740Y+762220D01*
X-2999740Y+1511520D01*
X-3655060Y+1511520D01*
X-3655060Y+762220D01*
D95*
X-3327400Y+914620D02*
X-3327400Y+914620D01*
D115*
X-3128063Y+1218237D02*
X-3113824Y+1205580D01*
X-3071109Y+1205580D01*
X-3042633Y+1230893D01*
X-3042633Y+1256206D01*
X-3071109Y+1281519D01*
X-3113824Y+1281519D01*
X-3128063Y+1268862D01*
X-3156540Y+1281519D02*
X-3156540Y+1243550D01*
X-3199255Y+1205580D01*
X-3241970Y+1243550D01*
X-3241970Y+1281519D01*
X-3298923Y+1256206D02*
X-3327400Y+1281519D01*
X-3327400Y+1205580D01*
X-3384354Y+1218237D02*
X-3384354Y+1268862D01*
X-3398592Y+1281519D01*
X-3455545Y+1281519D01*
X-3469784Y+1268862D01*
X-3469784Y+1218237D01*
X-3455545Y+1205580D01*
X-3398592Y+1205580D01*
X-3384354Y+1218237D01*
X-3384354Y+1205580D02*
X-3469784Y+1281519D01*
X-3583691Y+1256206D02*
X-3569452Y+1243550D01*
X-3526737Y+1243550D01*
X-3512499Y+1256206D01*
X-3512499Y+1268862D01*
X-3526737Y+1281519D01*
X-3569452Y+1281519D01*
X-3583691Y+1268862D01*
X-3583691Y+1218237D01*
X-3569452Y+1205580D01*
X-3526737Y+1205580D01*
D86*
X+6940300Y-1191900D02*
X+6320300Y-1191900D01*
X+6320300Y-831900D01*
X+6940300Y-831900D01*
X+6940300Y-1191900D01*
X+6630300Y-961900D02*
X+6630300Y-1061900D01*
X+6580300Y-1011900D02*
X+6680300Y-1011900D01*
D109*
X+6845300Y-914400D02*
X+6845300Y-914400D01*
D127*
X+6793492Y-975148D02*
X+6793492Y-1036402D01*
X+6779710Y-1048653D01*
X+6724582Y-1048653D01*
X+6710800Y-1036402D01*
X+6710800Y-975148D01*
X+6683235Y-975148D02*
X+6683235Y-1011900D01*
X+6641889Y-1048653D01*
X+6600543Y-1011900D01*
X+6600543Y-975148D01*
X+6545414Y-999650D02*
X+6517850Y-975148D01*
X+6517850Y-1048653D01*
X+6435157Y-999650D02*
X+6407593Y-975148D01*
X+6407593Y-1048653D01*
D40*
X+7424420Y-2202180D02*
X+7891780Y-2202180D01*
X+7891780Y-1478280D01*
X+7424420Y-1478280D01*
X+7424420Y-2202180D01*
D101*
X+7848600Y-2100580D02*
X+7848600Y-2100580D01*
D116*
X+7569454Y-1523620D02*
X+7657402Y-1523620D01*
X+7674991Y-1543408D01*
X+7674991Y-1622560D01*
X+7657402Y-1642348D01*
X+7569454Y-1642348D01*
X+7569454Y-1681925D02*
X+7622223Y-1681925D01*
X+7674991Y-1741289D01*
X+7622223Y-1800653D01*
X+7569454Y-1800653D01*
X+7604633Y-1879806D02*
X+7569454Y-1919382D01*
X+7674991Y-1919382D01*
X+7587044Y-2018323D02*
X+7569454Y-2038111D01*
X+7569454Y-2097475D01*
X+7587044Y-2117263D01*
X+7604633Y-2117263D01*
X+7622223Y-2097475D01*
X+7622223Y-2038111D01*
X+7639812Y-2018323D01*
X+7674991Y-2018323D01*
X+7674991Y-2117263D01*
D86*
X+4442950Y-1168350D02*
X+3822950Y-1168350D01*
X+3822950Y-808350D01*
X+4442950Y-808350D01*
X+4442950Y-1168350D01*
X+4132950Y-938350D02*
X+4132950Y-1038350D01*
X+4082950Y-988350D02*
X+4182950Y-988350D01*
D109*
X+4347950Y-890850D02*
X+4347950Y-890850D01*
D127*
X+4296142Y-951598D02*
X+4296142Y-1012852D01*
X+4282360Y-1025103D01*
X+4227232Y-1025103D01*
X+4213450Y-1012852D01*
X+4213450Y-951598D01*
X+4185885Y-951598D02*
X+4185885Y-988350D01*
X+4144539Y-1025103D01*
X+4103193Y-988350D01*
X+4103193Y-951598D01*
X+4048064Y-976100D02*
X+4020500Y-951598D01*
X+4020500Y-1025103D01*
X+3951589Y-963849D02*
X+3937807Y-951598D01*
X+3896461Y-951598D01*
X+3882679Y-963849D01*
X+3882679Y-976100D01*
X+3896461Y-988350D01*
X+3882679Y-1000601D01*
X+3882679Y-1012852D01*
X+3896461Y-1025103D01*
X+3937807Y-1025103D01*
X+3951589Y-1012852D01*
X+3924025Y-988350D02*
X+3896461Y-988350D01*
D40*
X+5011420Y-2202180D02*
X+5478780Y-2202180D01*
X+5478780Y-1478280D01*
X+5011420Y-1478280D01*
X+5011420Y-2202180D01*
D101*
X+5435600Y-2100580D02*
X+5435600Y-2100580D01*
D116*
X+5156454Y-1523620D02*
X+5244402Y-1523620D01*
X+5261991Y-1543408D01*
X+5261991Y-1622560D01*
X+5244402Y-1642348D01*
X+5156454Y-1642348D01*
X+5156454Y-1681925D02*
X+5209223Y-1681925D01*
X+5261991Y-1741289D01*
X+5209223Y-1800653D01*
X+5156454Y-1800653D01*
X+5191633Y-1879806D02*
X+5156454Y-1919382D01*
X+5261991Y-1919382D01*
X+5226812Y-2117263D02*
X+5226812Y-1998535D01*
X+5156454Y-2077687D01*
X+5261991Y-2077687D01*
D86*
X+2023600Y-1187400D02*
X+1403600Y-1187400D01*
X+1403600Y-827400D01*
X+2023600Y-827400D01*
X+2023600Y-1187400D01*
X+1713600Y-957400D02*
X+1713600Y-1057400D01*
X+1663600Y-1007400D02*
X+1763600Y-1007400D01*
D109*
X+1928600Y-909900D02*
X+1928600Y-909900D01*
D127*
X+1876792Y-970648D02*
X+1876792Y-1031902D01*
X+1863010Y-1044153D01*
X+1807882Y-1044153D01*
X+1794100Y-1031902D01*
X+1794100Y-970648D01*
X+1766535Y-970648D02*
X+1766535Y-1007400D01*
X+1725189Y-1044153D01*
X+1683843Y-1007400D01*
X+1683843Y-970648D01*
X+1628714Y-995150D02*
X+1601150Y-970648D01*
X+1601150Y-1044153D01*
X+1463329Y-970648D02*
X+1532239Y-970648D01*
X+1532239Y-995150D01*
X+1477111Y-995150D01*
X+1463329Y-1007400D01*
X+1463329Y-1031902D01*
X+1477111Y-1044153D01*
X+1518457Y-1044153D01*
X+1532239Y-1031902D01*
D40*
X+2598420Y-2202180D02*
X+3065780Y-2202180D01*
X+3065780Y-1478280D01*
X+2598420Y-1478280D01*
X+2598420Y-2202180D01*
D101*
X+3022600Y-2100580D02*
X+3022600Y-2100580D01*
D116*
X+2743454Y-1523620D02*
X+2831402Y-1523620D01*
X+2848991Y-1543408D01*
X+2848991Y-1622560D01*
X+2831402Y-1642348D01*
X+2743454Y-1642348D01*
X+2743454Y-1681925D02*
X+2796223Y-1681925D01*
X+2848991Y-1741289D01*
X+2796223Y-1800653D01*
X+2743454Y-1800653D01*
X+2778633Y-1879806D02*
X+2743454Y-1919382D01*
X+2848991Y-1919382D01*
X+2761044Y-2117263D02*
X+2743454Y-2097475D01*
X+2743454Y-2038111D01*
X+2761044Y-2018323D01*
X+2831402Y-2018323D01*
X+2848991Y-2038111D01*
X+2848991Y-2097475D01*
X+2831402Y-2117263D01*
X+2813812Y-2117263D01*
X+2796223Y-2097475D01*
X+2796223Y-2018323D01*
D86*
X-374900Y-1201600D02*
X-994900Y-1201600D01*
X-994900Y-841600D01*
X-374900Y-841600D01*
X-374900Y-1201600D01*
X-684900Y-971600D02*
X-684900Y-1071600D01*
X-734900Y-1021600D02*
X-634900Y-1021600D01*
D109*
X-469900Y-924100D02*
X-469900Y-924100D01*
D127*
X-521708Y-984848D02*
X-521708Y-1046102D01*
X-535490Y-1058353D01*
X-590618Y-1058353D01*
X-604400Y-1046102D01*
X-604400Y-984848D01*
X-631965Y-984848D02*
X-631965Y-1021600D01*
X-673311Y-1058353D01*
X-714657Y-1021600D01*
X-714657Y-984848D01*
X-769786Y-1009350D02*
X-797350Y-984848D01*
X-797350Y-1058353D01*
X-866261Y-984848D02*
X-935171Y-984848D01*
X-935171Y-997099D01*
X-866261Y-1058353D01*
D40*
X+185420Y-2202180D02*
X+652780Y-2202180D01*
X+652780Y-1478280D01*
X+185420Y-1478280D01*
X+185420Y-2202180D01*
D101*
X+609600Y-2100580D02*
X+609600Y-2100580D01*
D116*
X+330454Y-1523620D02*
X+418402Y-1523620D01*
X+435991Y-1543408D01*
X+435991Y-1622560D01*
X+418402Y-1642348D01*
X+330454Y-1642348D01*
X+330454Y-1681925D02*
X+383223Y-1681925D01*
X+435991Y-1741289D01*
X+383223Y-1800653D01*
X+330454Y-1800653D01*
X+365633Y-1879806D02*
X+330454Y-1919382D01*
X+435991Y-1919382D01*
X+383223Y-2038111D02*
X+365633Y-2018323D01*
X+348044Y-2018323D01*
X+330454Y-2038111D01*
X+330454Y-2097475D01*
X+348044Y-2117263D01*
X+365633Y-2117263D01*
X+383223Y-2097475D01*
X+383223Y-2038111D01*
X+400812Y-2018323D01*
X+418402Y-2018323D01*
X+435991Y-2038111D01*
X+435991Y-2097475D01*
X+418402Y-2117263D01*
X+400812Y-2117263D01*
X+383223Y-2097475D01*
D86*
X-2724400Y-1188900D02*
X-3344400Y-1188900D01*
X-3344400Y-828900D01*
X-2724400Y-828900D01*
X-2724400Y-1188900D01*
X-3034400Y-958900D02*
X-3034400Y-1058900D01*
X-3084400Y-1008900D02*
X-2984400Y-1008900D01*
D109*
X-2819400Y-911400D02*
X-2819400Y-911400D01*
D127*
X-2871208Y-972148D02*
X-2871208Y-1033402D01*
X-2884990Y-1045653D01*
X-2940118Y-1045653D01*
X-2953900Y-1033402D01*
X-2953900Y-972148D01*
X-2981465Y-972148D02*
X-2981465Y-1008900D01*
X-3022811Y-1045653D01*
X-3064157Y-1008900D01*
X-3064157Y-972148D01*
X-3119286Y-996650D02*
X-3146850Y-972148D01*
X-3146850Y-1045653D01*
X-3284671Y-996650D02*
X-3270889Y-1008900D01*
X-3229543Y-1008900D01*
X-3215761Y-996650D01*
X-3215761Y-984399D01*
X-3229543Y-972148D01*
X-3270889Y-972148D01*
X-3284671Y-984399D01*
X-3284671Y-1033402D01*
X-3270889Y-1045653D01*
X-3229543Y-1045653D01*
D40*
X-2227580Y-2202180D02*
X-1760220Y-2202180D01*
X-1760220Y-1478280D01*
X-2227580Y-1478280D01*
X-2227580Y-2202180D01*
D101*
X-1803400Y-2100580D02*
X-1803400Y-2100580D01*
D116*
X-2082546Y-1523620D02*
X-1994598Y-1523620D01*
X-1977009Y-1543408D01*
X-1977009Y-1622560D01*
X-1994598Y-1642348D01*
X-2082546Y-1642348D01*
X-2082546Y-1681925D02*
X-2029777Y-1681925D01*
X-1977009Y-1741289D01*
X-2029777Y-1800653D01*
X-2082546Y-1800653D01*
X-2064956Y-1860018D02*
X-2082546Y-1879806D01*
X-2082546Y-1939170D01*
X-2064956Y-1958958D01*
X-2047367Y-1958958D01*
X-2029777Y-1939170D01*
X-2029777Y-1879806D01*
X-2012188Y-1860018D01*
X-1977009Y-1860018D01*
X-1977009Y-1958958D01*
X-1994598Y-1998535D02*
X-2064956Y-1998535D01*
X-2082546Y-2018323D01*
X-2082546Y-2097475D01*
X-2064956Y-2117263D01*
X-1994598Y-2117263D01*
X-1977009Y-2097475D01*
X-1977009Y-2018323D01*
X-1994598Y-1998535D01*
X-1977009Y-1998535D02*
X-2082546Y-2117263D01*
D86*
X-3132400Y+732620D02*
X-3132400Y-57380D01*
X-3522400Y-57380D01*
X-3522400Y+732620D01*
X-3132400Y+732620D01*
X-3377400Y+337620D02*
X-3277400Y+337620D01*
X-3327400Y+287620D02*
X-3327400Y+387620D01*
D97*
X-3327400Y+642620D02*
X-3327400Y+642620D01*
D128*
X-3289829Y+545142D02*
X-3364970Y+545142D01*
X-3364970Y+474699D01*
X-3352446Y+460610D01*
X-3339923Y+460610D01*
X-3327400Y+474699D01*
X-3327400Y+545142D01*
X-3327400Y+474699D02*
X-3314876Y+460610D01*
X-3289829Y+460610D01*
X-3364970Y+432432D02*
X-3327400Y+432432D01*
X-3289829Y+390166D01*
X-3327400Y+347900D01*
X-3364970Y+347900D01*
X-3339923Y+291545D02*
X-3364970Y+263367D01*
X-3289829Y+263367D01*
X-3352446Y+192924D02*
X-3364970Y+178835D01*
X-3364970Y+136569D01*
X-3352446Y+122480D01*
X-3339923Y+122480D01*
X-3327400Y+136569D01*
X-3327400Y+178835D01*
X-3314876Y+192924D01*
X-3289829Y+192924D01*
X-3289829Y+122480D01*
X-3302353Y+94302D02*
X-3352446Y+94302D01*
X-3364970Y+80214D01*
X-3364970Y+23859D01*
X-3352446Y+9770D01*
X-3302353Y+9770D01*
X-3289829Y+23859D01*
X-3289829Y+80214D01*
X-3302353Y+94302D01*
X-3289829Y+94302D02*
X-3364970Y+9770D01*
D86*
X+6519600Y+732620D02*
X+6519600Y-57380D01*
X+6129600Y-57380D01*
X+6129600Y+732620D01*
X+6519600Y+732620D01*
X+6274600Y+337620D02*
X+6374600Y+337620D01*
X+6324600Y+287620D02*
X+6324600Y+387620D01*
D97*
X+6324600Y+642620D02*
X+6324600Y+642620D01*
D114*
X+6371563Y+545143D02*
X+6277637Y+545143D01*
X+6277637Y+457088D01*
X+6293291Y+439477D01*
X+6308946Y+439477D01*
X+6324600Y+457088D01*
X+6324600Y+545143D01*
X+6324600Y+457088D02*
X+6340254Y+439477D01*
X+6371563Y+439477D01*
X+6277637Y+404255D02*
X+6324600Y+404255D01*
X+6371563Y+351422D01*
X+6324600Y+298589D01*
X+6277637Y+298589D01*
X+6277637Y+245756D02*
X+6277637Y+157701D01*
X+6293291Y+157701D01*
X+6371563Y+245756D01*
X+6293291Y+104868D02*
X+6277637Y+87257D01*
X+6277637Y+34424D01*
X+6293291Y+16813D01*
X+6308946Y+16813D01*
X+6324600Y+34424D01*
X+6324600Y+87257D01*
X+6340254Y+104868D01*
X+6371563Y+104868D01*
X+6371563Y+16813D01*
D86*
X+1693600Y+732620D02*
X+1693600Y-57380D01*
X+1303600Y-57380D01*
X+1303600Y+732620D01*
X+1693600Y+732620D01*
X+1448600Y+337620D02*
X+1548600Y+337620D01*
X+1498600Y+287620D02*
X+1498600Y+387620D01*
D97*
X+1498600Y+642620D02*
X+1498600Y+642620D01*
D114*
X+1545563Y+545143D02*
X+1451637Y+545143D01*
X+1451637Y+457088D01*
X+1467291Y+439477D01*
X+1482946Y+439477D01*
X+1498600Y+457088D01*
X+1498600Y+545143D01*
X+1498600Y+457088D02*
X+1514254Y+439477D01*
X+1545563Y+439477D01*
X+1451637Y+404255D02*
X+1498600Y+404255D01*
X+1545563Y+351422D01*
X+1498600Y+298589D01*
X+1451637Y+298589D01*
X+1482946Y+157701D02*
X+1498600Y+175312D01*
X+1498600Y+228145D01*
X+1482946Y+245756D01*
X+1467291Y+245756D01*
X+1451637Y+228145D01*
X+1451637Y+175312D01*
X+1467291Y+157701D01*
X+1529909Y+157701D01*
X+1545563Y+175312D01*
X+1545563Y+228145D01*
X+1467291Y+16813D02*
X+1451637Y+34424D01*
X+1451637Y+87257D01*
X+1467291Y+104868D01*
X+1529909Y+104868D01*
X+1545563Y+87257D01*
X+1545563Y+34424D01*
X+1529909Y+16813D01*
X+1514254Y+16813D01*
X+1498600Y+34424D01*
X+1498600Y+104868D01*
D86*
X+4106600Y+732620D02*
X+4106600Y-57380D01*
X+3716600Y-57380D01*
X+3716600Y+732620D01*
X+4106600Y+732620D01*
X+3861600Y+337620D02*
X+3961600Y+337620D01*
X+3911600Y+287620D02*
X+3911600Y+387620D01*
D97*
X+3911600Y+642620D02*
X+3911600Y+642620D01*
D114*
X+3958563Y+545143D02*
X+3864637Y+545143D01*
X+3864637Y+457088D01*
X+3880291Y+439477D01*
X+3895946Y+439477D01*
X+3911600Y+457088D01*
X+3911600Y+545143D01*
X+3911600Y+457088D02*
X+3927254Y+439477D01*
X+3958563Y+439477D01*
X+3864637Y+404255D02*
X+3911600Y+404255D01*
X+3958563Y+351422D01*
X+3911600Y+298589D01*
X+3864637Y+298589D01*
X+3911600Y+228145D02*
X+3895946Y+245756D01*
X+3880291Y+245756D01*
X+3864637Y+228145D01*
X+3864637Y+175312D01*
X+3880291Y+157701D01*
X+3895946Y+157701D01*
X+3911600Y+175312D01*
X+3911600Y+228145D01*
X+3927254Y+245756D01*
X+3942909Y+245756D01*
X+3958563Y+228145D01*
X+3958563Y+175312D01*
X+3942909Y+157701D01*
X+3927254Y+157701D01*
X+3911600Y+175312D01*
X+3927254Y+16813D02*
X+3927254Y+122479D01*
X+3864637Y+52035D01*
X+3958563Y+52035D01*
D86*
X-719400Y+732620D02*
X-719400Y-57380D01*
X-1109400Y-57380D01*
X-1109400Y+732620D01*
X-719400Y+732620D01*
X-964400Y+337620D02*
X-864400Y+337620D01*
X-914400Y+287620D02*
X-914400Y+387620D01*
D97*
X-914400Y+642620D02*
X-914400Y+642620D01*
D128*
X-876829Y+545142D02*
X-951970Y+545142D01*
X-951970Y+474699D01*
X-939446Y+460610D01*
X-926923Y+460610D01*
X-914400Y+474699D01*
X-914400Y+545142D01*
X-914400Y+474699D02*
X-901876Y+460610D01*
X-876829Y+460610D01*
X-951970Y+432432D02*
X-914400Y+432432D01*
X-876829Y+390166D01*
X-914400Y+347900D01*
X-951970Y+347900D01*
X-926923Y+291545D02*
X-951970Y+263367D01*
X-876829Y+263367D01*
X-889353Y+207012D02*
X-939446Y+207012D01*
X-951970Y+192924D01*
X-951970Y+136569D01*
X-939446Y+122480D01*
X-889353Y+122480D01*
X-876829Y+136569D01*
X-876829Y+192924D01*
X-889353Y+207012D01*
X-876829Y+207012D02*
X-951970Y+122480D01*
X-914400Y+66125D02*
X-926923Y+80214D01*
X-939446Y+80214D01*
X-951970Y+66125D01*
X-951970Y+23859D01*
X-939446Y+9770D01*
X-926923Y+9770D01*
X-914400Y+23859D01*
X-914400Y+66125D01*
X-901876Y+80214D01*
X-889353Y+80214D01*
X-876829Y+66125D01*
X-876829Y+23859D01*
X-889353Y+9770D01*
X-901876Y+9770D01*
X-914400Y+23859D01*
D40*
X+7340600Y-1407160D02*
X+8026400Y-1407160D01*
X+8026400Y-878840D01*
X+7340600Y-878840D01*
X+7340600Y-1407160D01*
D11*
X+7874000Y-1143000D02*
X+7874000Y-1143000D01*
D115*
X+7607300Y-1000125D02*
X+7620000Y-985837D01*
X+7620000Y-942975D01*
X+7594600Y-914400D01*
X+7569200Y-914400D01*
X+7543800Y-942975D01*
X+7543800Y-985837D01*
X+7556500Y-1000125D01*
X+7543800Y-1028700D02*
X+7581900Y-1028700D01*
X+7620000Y-1071562D01*
X+7581900Y-1114425D01*
X+7543800Y-1114425D01*
X+7556500Y-1228725D02*
X+7543800Y-1214437D01*
X+7543800Y-1171575D01*
X+7556500Y-1157287D01*
X+7607300Y-1157287D01*
X+7620000Y-1171575D01*
X+7620000Y-1214437D01*
X+7607300Y-1228725D01*
X+7594600Y-1228725D01*
X+7581900Y-1214437D01*
X+7581900Y-1157287D01*
X+7556500Y-1343025D02*
X+7543800Y-1328737D01*
X+7543800Y-1285875D01*
X+7556500Y-1271587D01*
X+7607300Y-1271587D01*
X+7620000Y-1285875D01*
X+7620000Y-1328737D01*
X+7607300Y-1343025D01*
X+7594600Y-1343025D01*
X+7581900Y-1328737D01*
X+7581900Y-1271587D01*
D86*
X+7933600Y-869380D02*
X+7463600Y-869380D01*
X+7463600Y-639380D01*
X+7933600Y-639380D01*
X+7933600Y-869380D01*
X+7698600Y-704380D02*
X+7698600Y-804380D01*
X+7648600Y-754380D02*
X+7748600Y-754380D01*
D91*
X+7848600Y-754380D02*
X+7848600Y-754380D01*
D112*
X+7729941Y-770936D02*
X+7739254Y-779214D01*
X+7767191Y-779214D01*
X+7785816Y-762658D01*
X+7785816Y-746103D01*
X+7767191Y-729547D01*
X+7739254Y-729547D01*
X+7729941Y-737825D01*
X+7711316Y-729547D02*
X+7711316Y-754380D01*
X+7683379Y-779214D01*
X+7655441Y-754380D01*
X+7655441Y-729547D01*
X+7580941Y-737825D02*
X+7590254Y-729547D01*
X+7618191Y-729547D01*
X+7627504Y-737825D01*
X+7627504Y-770936D01*
X+7618191Y-779214D01*
X+7590254Y-779214D01*
X+7580941Y-770936D01*
X+7580941Y-762658D01*
X+7590254Y-754380D01*
X+7627504Y-754380D01*
X+7553004Y-737825D02*
X+7543691Y-729547D01*
X+7515754Y-729547D01*
X+7506441Y-737825D01*
X+7506441Y-746103D01*
X+7515754Y-754380D01*
X+7506441Y-762658D01*
X+7506441Y-770936D01*
X+7515754Y-779214D01*
X+7543691Y-779214D01*
X+7553004Y-770936D01*
X+7534379Y-754380D02*
X+7515754Y-754380D01*
D40*
X+4927600Y-1407160D02*
X+5613400Y-1407160D01*
X+5613400Y-878840D01*
X+4927600Y-878840D01*
X+4927600Y-1407160D01*
D11*
X+5461000Y-1143000D02*
X+5461000Y-1143000D01*
D115*
X+5194300Y-1000125D02*
X+5207000Y-985837D01*
X+5207000Y-942975D01*
X+5181600Y-914400D01*
X+5156200Y-914400D01*
X+5130800Y-942975D01*
X+5130800Y-985837D01*
X+5143500Y-1000125D01*
X+5130800Y-1028700D02*
X+5168900Y-1028700D01*
X+5207000Y-1071562D01*
X+5168900Y-1114425D01*
X+5130800Y-1114425D01*
X+5130800Y-1157287D02*
X+5130800Y-1228725D01*
X+5143500Y-1228725D01*
X+5207000Y-1157287D01*
X+5130800Y-1271587D02*
X+5130800Y-1343025D01*
X+5143500Y-1343025D01*
X+5207000Y-1271587D01*
D86*
X+5520600Y-869380D02*
X+5050600Y-869380D01*
X+5050600Y-639380D01*
X+5520600Y-639380D01*
X+5520600Y-869380D01*
X+5285600Y-704380D02*
X+5285600Y-804380D01*
X+5235600Y-754380D02*
X+5335600Y-754380D01*
D91*
X+5435600Y-754380D02*
X+5435600Y-754380D01*
D112*
X+5316941Y-770936D02*
X+5326254Y-779214D01*
X+5354191Y-779214D01*
X+5372816Y-762658D01*
X+5372816Y-746103D01*
X+5354191Y-729547D01*
X+5326254Y-729547D01*
X+5316941Y-737825D01*
X+5298316Y-729547D02*
X+5298316Y-754380D01*
X+5270379Y-779214D01*
X+5242441Y-754380D01*
X+5242441Y-729547D01*
X+5214504Y-729547D02*
X+5167941Y-729547D01*
X+5167941Y-737825D01*
X+5214504Y-779214D01*
X+5093441Y-762658D02*
X+5149316Y-762658D01*
X+5112066Y-729547D01*
X+5112066Y-779214D01*
D40*
X+2578100Y-1407160D02*
X+3263900Y-1407160D01*
X+3263900Y-878840D01*
X+2578100Y-878840D01*
X+2578100Y-1407160D01*
D11*
X+3111500Y-1143000D02*
X+3111500Y-1143000D01*
D115*
X+2844800Y-1000125D02*
X+2857500Y-985837D01*
X+2857500Y-942975D01*
X+2832100Y-914400D01*
X+2806700Y-914400D01*
X+2781300Y-942975D01*
X+2781300Y-985837D01*
X+2794000Y-1000125D01*
X+2781300Y-1028700D02*
X+2819400Y-1028700D01*
X+2857500Y-1071562D01*
X+2819400Y-1114425D01*
X+2781300Y-1114425D01*
X+2819400Y-1171575D02*
X+2806700Y-1157287D01*
X+2794000Y-1157287D01*
X+2781300Y-1171575D01*
X+2781300Y-1214437D01*
X+2794000Y-1228725D01*
X+2806700Y-1228725D01*
X+2819400Y-1214437D01*
X+2819400Y-1171575D01*
X+2832100Y-1157287D01*
X+2844800Y-1157287D01*
X+2857500Y-1171575D01*
X+2857500Y-1214437D01*
X+2844800Y-1228725D01*
X+2832100Y-1228725D01*
X+2819400Y-1214437D01*
X+2819400Y-1285875D02*
X+2806700Y-1271587D01*
X+2794000Y-1271587D01*
X+2781300Y-1285875D01*
X+2781300Y-1328737D01*
X+2794000Y-1343025D01*
X+2806700Y-1343025D01*
X+2819400Y-1328737D01*
X+2819400Y-1285875D01*
X+2832100Y-1271587D01*
X+2844800Y-1271587D01*
X+2857500Y-1285875D01*
X+2857500Y-1328737D01*
X+2844800Y-1343025D01*
X+2832100Y-1343025D01*
X+2819400Y-1328737D01*
D86*
X+3107600Y-869380D02*
X+2637600Y-869380D01*
X+2637600Y-639380D01*
X+3107600Y-639380D01*
X+3107600Y-869380D01*
X+2872600Y-704380D02*
X+2872600Y-804380D01*
X+2822600Y-754380D02*
X+2922600Y-754380D01*
D91*
X+3022600Y-754380D02*
X+3022600Y-754380D01*
D112*
X+2903941Y-770936D02*
X+2913254Y-779214D01*
X+2941191Y-779214D01*
X+2959816Y-762658D01*
X+2959816Y-746103D01*
X+2941191Y-729547D01*
X+2913254Y-729547D01*
X+2903941Y-737825D01*
X+2885316Y-729547D02*
X+2885316Y-754380D01*
X+2857379Y-779214D01*
X+2829441Y-754380D01*
X+2829441Y-729547D01*
X+2792191Y-754380D02*
X+2801504Y-746103D01*
X+2801504Y-737825D01*
X+2792191Y-729547D01*
X+2764254Y-729547D01*
X+2754941Y-737825D01*
X+2754941Y-746103D01*
X+2764254Y-754380D01*
X+2792191Y-754380D01*
X+2801504Y-762658D01*
X+2801504Y-770936D01*
X+2792191Y-779214D01*
X+2764254Y-779214D01*
X+2754941Y-770936D01*
X+2754941Y-762658D01*
X+2764254Y-754380D01*
X+2680441Y-729547D02*
X+2727004Y-729547D01*
X+2727004Y-746103D01*
X+2689754Y-746103D01*
X+2680441Y-754380D01*
X+2680441Y-770936D01*
X+2689754Y-779214D01*
X+2717691Y-779214D01*
X+2727004Y-770936D01*
D40*
X+101600Y-1407160D02*
X+787400Y-1407160D01*
X+787400Y-878840D01*
X+101600Y-878840D01*
X+101600Y-1407160D01*
D11*
X+635000Y-1143000D02*
X+635000Y-1143000D01*
D115*
X+368300Y-1000125D02*
X+381000Y-985837D01*
X+381000Y-942975D01*
X+355600Y-914400D01*
X+330200Y-914400D01*
X+304800Y-942975D01*
X+304800Y-985837D01*
X+317500Y-1000125D01*
X+304800Y-1028700D02*
X+342900Y-1028700D01*
X+381000Y-1071562D01*
X+342900Y-1114425D01*
X+304800Y-1114425D01*
X+330200Y-1228725D02*
X+342900Y-1214437D01*
X+342900Y-1171575D01*
X+330200Y-1157287D01*
X+317500Y-1157287D01*
X+304800Y-1171575D01*
X+304800Y-1214437D01*
X+317500Y-1228725D01*
X+368300Y-1228725D01*
X+381000Y-1214437D01*
X+381000Y-1171575D01*
X+330200Y-1343025D02*
X+342900Y-1328737D01*
X+342900Y-1285875D01*
X+330200Y-1271587D01*
X+317500Y-1271587D01*
X+304800Y-1285875D01*
X+304800Y-1328737D01*
X+317500Y-1343025D01*
X+368300Y-1343025D01*
X+381000Y-1328737D01*
X+381000Y-1285875D01*
D86*
X+694600Y-869380D02*
X+224600Y-869380D01*
X+224600Y-639380D01*
X+694600Y-639380D01*
X+694600Y-869380D01*
X+459600Y-704380D02*
X+459600Y-804380D01*
X+409600Y-754380D02*
X+509600Y-754380D01*
D91*
X+609600Y-754380D02*
X+609600Y-754380D01*
D112*
X+490941Y-770936D02*
X+500254Y-779214D01*
X+528191Y-779214D01*
X+546816Y-762658D01*
X+546816Y-746103D01*
X+528191Y-729547D01*
X+500254Y-729547D01*
X+490941Y-737825D01*
X+472316Y-729547D02*
X+472316Y-754380D01*
X+444379Y-779214D01*
X+416441Y-754380D01*
X+416441Y-729547D01*
X+341941Y-746103D02*
X+351254Y-754380D01*
X+379191Y-754380D01*
X+388504Y-746103D01*
X+388504Y-737825D01*
X+379191Y-729547D01*
X+351254Y-729547D01*
X+341941Y-737825D01*
X+341941Y-770936D01*
X+351254Y-779214D01*
X+379191Y-779214D01*
X+267441Y-737825D02*
X+276754Y-729547D01*
X+304691Y-729547D01*
X+314004Y-737825D01*
X+314004Y-770936D01*
X+304691Y-779214D01*
X+276754Y-779214D01*
X+267441Y-770936D01*
X+267441Y-762658D01*
X+276754Y-754380D01*
X+314004Y-754380D01*
D40*
X-2311400Y-1407160D02*
X-1625600Y-1407160D01*
X-1625600Y-878840D01*
X-2311400Y-878840D01*
X-2311400Y-1407160D01*
D11*
X-1778000Y-1143000D02*
X-1778000Y-1143000D01*
D44*
X-2049780Y-982980D02*
X-2039620Y-971550D01*
X-2039620Y-937260D01*
X-2059940Y-914400D01*
X-2080260Y-914400D01*
X-2100580Y-937260D01*
X-2100580Y-971550D01*
X-2090420Y-982980D01*
X-2100580Y-1005840D02*
X-2070100Y-1005840D01*
X-2039620Y-1040130D01*
X-2070100Y-1074420D01*
X-2100580Y-1074420D01*
X-2080260Y-1120140D02*
X-2100580Y-1143000D01*
X-2039620Y-1143000D01*
X-2080260Y-1211580D02*
X-2100580Y-1234440D01*
X-2039620Y-1234440D01*
X-2049780Y-1280160D02*
X-2090420Y-1280160D01*
X-2100580Y-1291590D01*
X-2100580Y-1337310D01*
X-2090420Y-1348740D01*
X-2049780Y-1348740D01*
X-2039620Y-1337310D01*
X-2039620Y-1291590D01*
X-2049780Y-1280160D01*
X-2039620Y-1280160D02*
X-2100580Y-1348740D01*
D86*
X-1718400Y-869380D02*
X-2188400Y-869380D01*
X-2188400Y-639380D01*
X-1718400Y-639380D01*
X-1718400Y-869380D01*
X-1953400Y-704380D02*
X-1953400Y-804380D01*
X-2003400Y-754380D02*
X-1903400Y-754380D01*
D91*
X-1803400Y-754380D02*
X-1803400Y-754380D01*
D129*
X-1910886Y-767625D02*
X-1903436Y-774247D01*
X-1881086Y-774247D01*
X-1866187Y-761003D01*
X-1866187Y-747758D01*
X-1881086Y-734514D01*
X-1903436Y-734514D01*
X-1910886Y-741136D01*
X-1925786Y-734514D02*
X-1925786Y-754380D01*
X-1948135Y-774247D01*
X-1970485Y-754380D01*
X-1970485Y-734514D01*
X-2000284Y-747758D02*
X-2015184Y-734514D01*
X-2015184Y-774247D01*
X-2044984Y-767625D02*
X-2044984Y-741136D01*
X-2052433Y-734514D01*
X-2082233Y-734514D01*
X-2089683Y-741136D01*
X-2089683Y-767625D01*
X-2082233Y-774247D01*
X-2052433Y-774247D01*
X-2044984Y-767625D01*
X-2044984Y-774247D02*
X-2089683Y-734514D01*
X-2112032Y-734514D02*
X-2149282Y-734514D01*
X-2149282Y-741136D01*
X-2112032Y-774247D01*
D86*
X+6790600Y-2266380D02*
X+6330600Y-2266380D01*
X+6330600Y-2036380D01*
X+6790600Y-2036380D01*
X+6790600Y-2266380D01*
X+6560600Y-2101380D02*
X+6560600Y-2201380D01*
X+6510600Y-2151380D02*
X+6610600Y-2151380D01*
D91*
X+6705600Y-2151380D02*
X+6705600Y-2151380D01*
D111*
X+6643316Y-2175464D02*
X+6643316Y-2127297D01*
X+6598160Y-2127297D01*
X+6589129Y-2135325D01*
X+6589129Y-2143353D01*
X+6598160Y-2151380D01*
X+6643316Y-2151380D01*
X+6598160Y-2151380D02*
X+6589129Y-2159408D01*
X+6589129Y-2175464D01*
X+6571066Y-2127297D02*
X+6571066Y-2151380D01*
X+6543973Y-2175464D01*
X+6516879Y-2151380D01*
X+6516879Y-2127297D01*
X+6444629Y-2135325D02*
X+6453660Y-2127297D01*
X+6480754Y-2127297D01*
X+6489785Y-2135325D01*
X+6489785Y-2167436D01*
X+6480754Y-2175464D01*
X+6453660Y-2175464D01*
X+6444629Y-2167436D01*
X+6444629Y-2159408D01*
X+6453660Y-2151380D01*
X+6489785Y-2151380D01*
X+6408504Y-2143353D02*
X+6390441Y-2127297D01*
X+6390441Y-2175464D01*
D86*
X+6763100Y-1758380D02*
X+6303100Y-1758380D01*
X+6303100Y-1528380D01*
X+6763100Y-1528380D01*
X+6763100Y-1758380D01*
X+6533100Y-1593380D02*
X+6533100Y-1693380D01*
X+6483100Y-1643380D02*
X+6583100Y-1643380D01*
D91*
X+6678100Y-1643380D02*
X+6678100Y-1643380D01*
D111*
X+6615816Y-1667464D02*
X+6615816Y-1619297D01*
X+6570660Y-1619297D01*
X+6561629Y-1627325D01*
X+6561629Y-1635353D01*
X+6570660Y-1643380D01*
X+6615816Y-1643380D01*
X+6570660Y-1643380D02*
X+6561629Y-1651408D01*
X+6561629Y-1667464D01*
X+6543566Y-1619297D02*
X+6543566Y-1643380D01*
X+6516473Y-1667464D01*
X+6489379Y-1643380D01*
X+6489379Y-1619297D01*
X+6417129Y-1627325D02*
X+6426160Y-1619297D01*
X+6453254Y-1619297D01*
X+6462285Y-1627325D01*
X+6462285Y-1659436D01*
X+6453254Y-1667464D01*
X+6426160Y-1667464D01*
X+6417129Y-1659436D01*
X+6417129Y-1651408D01*
X+6426160Y-1643380D01*
X+6462285Y-1643380D01*
X+6390035Y-1627325D02*
X+6381004Y-1619297D01*
X+6353910Y-1619297D01*
X+6344879Y-1627325D01*
X+6344879Y-1635353D01*
X+6353910Y-1643380D01*
X+6381004Y-1643380D01*
X+6390035Y-1651408D01*
X+6390035Y-1667464D01*
X+6344879Y-1667464D01*
D86*
X+6590600Y-684880D02*
X+6590600Y-224880D01*
X+6820600Y-224880D01*
X+6820600Y-684880D01*
X+6590600Y-684880D01*
X+6755600Y-454880D02*
X+6655600Y-454880D01*
X+6705600Y-404880D02*
X+6705600Y-504880D01*
D91*
X+6705600Y-599880D02*
X+6705600Y-599880D01*
D111*
X+6729684Y-248596D02*
X+6681517Y-248596D01*
X+6681517Y-293752D01*
X+6689545Y-302783D01*
X+6697573Y-302783D01*
X+6705600Y-293752D01*
X+6705600Y-248596D01*
X+6705600Y-293752D02*
X+6713628Y-302783D01*
X+6729684Y-302783D01*
X+6681517Y-320846D02*
X+6705600Y-320846D01*
X+6729684Y-347939D01*
X+6705600Y-375033D01*
X+6681517Y-375033D01*
X+6689545Y-447283D02*
X+6681517Y-438252D01*
X+6681517Y-411158D01*
X+6689545Y-402127D01*
X+6721656Y-402127D01*
X+6729684Y-411158D01*
X+6729684Y-438252D01*
X+6721656Y-447283D01*
X+6713628Y-447283D01*
X+6705600Y-438252D01*
X+6705600Y-402127D01*
X+6689545Y-474377D02*
X+6681517Y-483408D01*
X+6681517Y-510502D01*
X+6689545Y-519533D01*
X+6697573Y-519533D01*
X+6705600Y-510502D01*
X+6713628Y-519533D01*
X+6721656Y-519533D01*
X+6729684Y-510502D01*
X+6729684Y-483408D01*
X+6721656Y-474377D01*
X+6705600Y-492439D02*
X+6705600Y-510502D01*
D86*
X+6108000Y-681900D02*
X+6108000Y-221900D01*
X+6338000Y-221900D01*
X+6338000Y-681900D01*
X+6108000Y-681900D01*
X+6273000Y-451900D02*
X+6173000Y-451900D01*
X+6223000Y-401900D02*
X+6223000Y-501900D01*
D91*
X+6223000Y-596900D02*
X+6223000Y-596900D01*
D111*
X+6247084Y-245616D02*
X+6198917Y-245616D01*
X+6198917Y-290772D01*
X+6206945Y-299803D01*
X+6214973Y-299803D01*
X+6223000Y-290772D01*
X+6223000Y-245616D01*
X+6223000Y-290772D02*
X+6231028Y-299803D01*
X+6247084Y-299803D01*
X+6198917Y-317866D02*
X+6223000Y-317866D01*
X+6247084Y-344959D01*
X+6223000Y-372053D01*
X+6198917Y-372053D01*
X+6206945Y-444303D02*
X+6198917Y-435272D01*
X+6198917Y-408178D01*
X+6206945Y-399147D01*
X+6239056Y-399147D01*
X+6247084Y-408178D01*
X+6247084Y-435272D01*
X+6239056Y-444303D01*
X+6231028Y-444303D01*
X+6223000Y-435272D01*
X+6223000Y-399147D01*
X+6231028Y-516553D02*
X+6231028Y-462366D01*
X+6198917Y-498491D01*
X+6247084Y-498491D01*
D86*
X+7334600Y-2266380D02*
X+6874600Y-2266380D01*
X+6874600Y-2036380D01*
X+7334600Y-2036380D01*
X+7334600Y-2266380D01*
X+7104600Y-2101380D02*
X+7104600Y-2201380D01*
X+7054600Y-2151380D02*
X+7154600Y-2151380D01*
D91*
X+7249600Y-2151380D02*
X+7249600Y-2151380D01*
D111*
X+7187316Y-2175464D02*
X+7187316Y-2127297D01*
X+7142160Y-2127297D01*
X+7133129Y-2135325D01*
X+7133129Y-2143353D01*
X+7142160Y-2151380D01*
X+7187316Y-2151380D01*
X+7142160Y-2151380D02*
X+7133129Y-2159408D01*
X+7133129Y-2175464D01*
X+7115066Y-2127297D02*
X+7115066Y-2151380D01*
X+7087973Y-2175464D01*
X+7060879Y-2151380D01*
X+7060879Y-2127297D01*
X+6988629Y-2135325D02*
X+6997660Y-2127297D01*
X+7024754Y-2127297D01*
X+7033785Y-2135325D01*
X+7033785Y-2167436D01*
X+7024754Y-2175464D01*
X+6997660Y-2175464D01*
X+6988629Y-2167436D01*
X+6988629Y-2159408D01*
X+6997660Y-2151380D01*
X+7033785Y-2151380D01*
X+6916379Y-2127297D02*
X+6961535Y-2127297D01*
X+6961535Y-2143353D01*
X+6925410Y-2143353D01*
X+6916379Y-2151380D01*
X+6916379Y-2167436D01*
X+6925410Y-2175464D01*
X+6952504Y-2175464D01*
X+6961535Y-2167436D01*
D86*
X+8243000Y-2165000D02*
X+8243000Y-2625000D01*
X+8013000Y-2625000D01*
X+8013000Y-2165000D01*
X+8243000Y-2165000D01*
X+8078000Y-2395000D02*
X+8178000Y-2395000D01*
X+8128000Y-2445000D02*
X+8128000Y-2345000D01*
D91*
X+8128000Y-2250000D02*
X+8128000Y-2250000D01*
D111*
X+8152084Y-2312284D02*
X+8103917Y-2312284D01*
X+8103917Y-2357440D01*
X+8111945Y-2366471D01*
X+8119973Y-2366471D01*
X+8128000Y-2357440D01*
X+8128000Y-2312284D01*
X+8128000Y-2357440D02*
X+8136028Y-2366471D01*
X+8152084Y-2366471D01*
X+8103917Y-2384534D02*
X+8128000Y-2384534D01*
X+8152084Y-2411627D01*
X+8128000Y-2438721D01*
X+8103917Y-2438721D01*
X+8111945Y-2510971D02*
X+8103917Y-2501940D01*
X+8103917Y-2474846D01*
X+8111945Y-2465815D01*
X+8144056Y-2465815D01*
X+8152084Y-2474846D01*
X+8152084Y-2501940D01*
X+8144056Y-2510971D01*
X+8136028Y-2510971D01*
X+8128000Y-2501940D01*
X+8128000Y-2465815D01*
X+8128000Y-2547096D02*
X+8119973Y-2538065D01*
X+8111945Y-2538065D01*
X+8103917Y-2547096D01*
X+8103917Y-2574190D01*
X+8111945Y-2583221D01*
X+8119973Y-2583221D01*
X+8128000Y-2574190D01*
X+8128000Y-2547096D01*
X+8136028Y-2538065D01*
X+8144056Y-2538065D01*
X+8152084Y-2547096D01*
X+8152084Y-2574190D01*
X+8144056Y-2583221D01*
X+8136028Y-2583221D01*
X+8128000Y-2574190D01*
D86*
X+7933600Y-2520380D02*
X+7463600Y-2520380D01*
X+7463600Y-2290380D01*
X+7933600Y-2290380D01*
X+7933600Y-2520380D01*
X+7698600Y-2355380D02*
X+7698600Y-2455380D01*
X+7648600Y-2405380D02*
X+7748600Y-2405380D01*
D91*
X+7848600Y-2405380D02*
X+7848600Y-2405380D01*
D112*
X+7729941Y-2421936D02*
X+7739254Y-2430214D01*
X+7767191Y-2430214D01*
X+7785816Y-2413658D01*
X+7785816Y-2397103D01*
X+7767191Y-2380547D01*
X+7739254Y-2380547D01*
X+7729941Y-2388825D01*
X+7711316Y-2380547D02*
X+7711316Y-2405380D01*
X+7683379Y-2430214D01*
X+7655441Y-2405380D01*
X+7655441Y-2380547D01*
X+7580941Y-2388825D02*
X+7590254Y-2380547D01*
X+7618191Y-2380547D01*
X+7627504Y-2388825D01*
X+7627504Y-2421936D01*
X+7618191Y-2430214D01*
X+7590254Y-2430214D01*
X+7580941Y-2421936D01*
X+7580941Y-2413658D01*
X+7590254Y-2405380D01*
X+7627504Y-2405380D01*
X+7553004Y-2388825D02*
X+7543691Y-2380547D01*
X+7515754Y-2380547D01*
X+7506441Y-2388825D01*
X+7506441Y-2397103D01*
X+7515754Y-2405380D01*
X+7543691Y-2405380D01*
X+7553004Y-2413658D01*
X+7553004Y-2430214D01*
X+7506441Y-2430214D01*
D86*
X+7306500Y-394400D02*
X+6836500Y-394400D01*
X+6836500Y-164400D01*
X+7306500Y-164400D01*
X+7306500Y-394400D01*
X+7071500Y-229400D02*
X+7071500Y-329400D01*
X+7021500Y-279400D02*
X+7121500Y-279400D01*
D91*
X+7221500Y-279400D02*
X+7221500Y-279400D01*
D112*
X+7102841Y-295956D02*
X+7112154Y-304234D01*
X+7140091Y-304234D01*
X+7158716Y-287678D01*
X+7158716Y-271123D01*
X+7140091Y-254567D01*
X+7112154Y-254567D01*
X+7102841Y-262845D01*
X+7084216Y-254567D02*
X+7084216Y-279400D01*
X+7056279Y-304234D01*
X+7028341Y-279400D01*
X+7028341Y-254567D01*
X+6953841Y-262845D02*
X+6963154Y-254567D01*
X+6991091Y-254567D01*
X+7000404Y-262845D01*
X+7000404Y-295956D01*
X+6991091Y-304234D01*
X+6963154Y-304234D01*
X+6953841Y-295956D01*
X+6953841Y-287678D01*
X+6963154Y-279400D01*
X+7000404Y-279400D01*
X+6879341Y-287678D02*
X+6935216Y-287678D01*
X+6897966Y-254567D01*
X+6897966Y-304234D01*
D86*
X+8217600Y-34380D02*
X+8217600Y-494380D01*
X+7987600Y-494380D01*
X+7987600Y-34380D01*
X+8217600Y-34380D01*
X+8052600Y-264380D02*
X+8152600Y-264380D01*
X+8102600Y-314380D02*
X+8102600Y-214380D01*
D91*
X+8102600Y-119380D02*
X+8102600Y-119380D01*
D111*
X+8126684Y-181664D02*
X+8078517Y-181664D01*
X+8078517Y-226820D01*
X+8086545Y-235851D01*
X+8094573Y-235851D01*
X+8102600Y-226820D01*
X+8102600Y-181664D01*
X+8102600Y-226820D02*
X+8110628Y-235851D01*
X+8126684Y-235851D01*
X+8078517Y-253914D02*
X+8102600Y-253914D01*
X+8126684Y-281007D01*
X+8102600Y-308101D01*
X+8078517Y-308101D01*
X+8086545Y-380351D02*
X+8078517Y-371320D01*
X+8078517Y-344226D01*
X+8086545Y-335195D01*
X+8118656Y-335195D01*
X+8126684Y-344226D01*
X+8126684Y-371320D01*
X+8118656Y-380351D01*
X+8110628Y-380351D01*
X+8102600Y-371320D01*
X+8102600Y-335195D01*
X+8094573Y-452601D02*
X+8102600Y-443570D01*
X+8102600Y-416476D01*
X+8094573Y-407445D01*
X+8086545Y-407445D01*
X+8078517Y-416476D01*
X+8078517Y-443570D01*
X+8086545Y-452601D01*
X+8118656Y-452601D01*
X+8126684Y-443570D01*
X+8126684Y-416476D01*
D86*
X+7509600Y-4380D02*
X+7969600Y-4380D01*
X+7969600Y-234380D01*
X+7509600Y-234380D01*
X+7509600Y-4380D01*
X+7739600Y-169380D02*
X+7739600Y-69380D01*
X+7789600Y-119380D02*
X+7689600Y-119380D01*
D91*
X+7594600Y-119380D02*
X+7594600Y-119380D01*
D111*
X+7945884Y-143464D02*
X+7945884Y-95297D01*
X+7900728Y-95297D01*
X+7891697Y-103325D01*
X+7891697Y-111353D01*
X+7900728Y-119380D01*
X+7945884Y-119380D01*
X+7900728Y-119380D02*
X+7891697Y-127408D01*
X+7891697Y-143464D01*
X+7873634Y-95297D02*
X+7873634Y-119380D01*
X+7846541Y-143464D01*
X+7819447Y-119380D01*
X+7819447Y-95297D01*
X+7792353Y-95297D02*
X+7747197Y-95297D01*
X+7747197Y-103325D01*
X+7792353Y-143464D01*
X+7729134Y-135436D02*
X+7729134Y-103325D01*
X+7720103Y-95297D01*
X+7683978Y-95297D01*
X+7674947Y-103325D01*
X+7674947Y-135436D01*
X+7683978Y-143464D01*
X+7720103Y-143464D01*
X+7729134Y-135436D01*
X+7729134Y-143464D02*
X+7674947Y-95297D01*
D86*
X+7933600Y-2774380D02*
X+7473600Y-2774380D01*
X+7473600Y-2544380D01*
X+7933600Y-2544380D01*
X+7933600Y-2774380D01*
X+7703600Y-2609380D02*
X+7703600Y-2709380D01*
X+7653600Y-2659380D02*
X+7753600Y-2659380D01*
D91*
X+7848600Y-2659380D02*
X+7848600Y-2659380D01*
D111*
X+7786316Y-2683464D02*
X+7786316Y-2635297D01*
X+7741160Y-2635297D01*
X+7732129Y-2643325D01*
X+7732129Y-2651353D01*
X+7741160Y-2659380D01*
X+7786316Y-2659380D01*
X+7741160Y-2659380D02*
X+7732129Y-2667408D01*
X+7732129Y-2683464D01*
X+7714066Y-2635297D02*
X+7714066Y-2659380D01*
X+7686973Y-2683464D01*
X+7659879Y-2659380D01*
X+7659879Y-2635297D01*
X+7632785Y-2635297D02*
X+7587629Y-2635297D01*
X+7587629Y-2643325D01*
X+7632785Y-2683464D01*
X+7551504Y-2651353D02*
X+7533441Y-2635297D01*
X+7533441Y-2683464D01*
D86*
X+6579300Y-224880D02*
X+6579300Y-694880D01*
X+6349300Y-694880D01*
X+6349300Y-224880D01*
X+6579300Y-224880D01*
X+6414300Y-459880D02*
X+6514300Y-459880D01*
X+6464300Y-509880D02*
X+6464300Y-409880D01*
D91*
X+6464300Y-309880D02*
X+6464300Y-309880D01*
D112*
X+6480856Y-428539D02*
X+6489134Y-419226D01*
X+6489134Y-391289D01*
X+6472578Y-372664D01*
X+6456023Y-372664D01*
X+6439467Y-391289D01*
X+6439467Y-419226D01*
X+6447745Y-428539D01*
X+6439467Y-447164D02*
X+6464300Y-447164D01*
X+6489134Y-475101D01*
X+6464300Y-503039D01*
X+6439467Y-503039D01*
X+6439467Y-577539D02*
X+6439467Y-530976D01*
X+6456023Y-530976D01*
X+6456023Y-568226D01*
X+6464300Y-577539D01*
X+6480856Y-577539D01*
X+6489134Y-568226D01*
X+6489134Y-540289D01*
X+6480856Y-530976D01*
X+6456023Y-652039D02*
X+6464300Y-642726D01*
X+6464300Y-614789D01*
X+6456023Y-605476D01*
X+6447745Y-605476D01*
X+6439467Y-614789D01*
X+6439467Y-642726D01*
X+6447745Y-652039D01*
X+6480856Y-652039D01*
X+6489134Y-642726D01*
X+6489134Y-614789D01*
D86*
X+6917600Y-1524700D02*
X+6447600Y-1524700D01*
X+6447600Y-1294700D01*
X+6917600Y-1294700D01*
X+6917600Y-1524700D01*
X+6682600Y-1359700D02*
X+6682600Y-1459700D01*
X+6632600Y-1409700D02*
X+6732600Y-1409700D01*
D91*
X+6832600Y-1409700D02*
X+6832600Y-1409700D01*
D112*
X+6713941Y-1426256D02*
X+6723254Y-1434534D01*
X+6751191Y-1434534D01*
X+6769816Y-1417978D01*
X+6769816Y-1401423D01*
X+6751191Y-1384867D01*
X+6723254Y-1384867D01*
X+6713941Y-1393145D01*
X+6695316Y-1384867D02*
X+6695316Y-1409700D01*
X+6667379Y-1434534D01*
X+6639441Y-1409700D01*
X+6639441Y-1384867D01*
X+6564941Y-1384867D02*
X+6611504Y-1384867D01*
X+6611504Y-1401423D01*
X+6574254Y-1401423D01*
X+6564941Y-1409700D01*
X+6564941Y-1426256D01*
X+6574254Y-1434534D01*
X+6602191Y-1434534D01*
X+6611504Y-1426256D01*
X+6537004Y-1384867D02*
X+6490441Y-1384867D01*
X+6490441Y-1393145D01*
X+6537004Y-1434534D01*
D86*
X+7344600Y-1758380D02*
X+6874600Y-1758380D01*
X+6874600Y-1528380D01*
X+7344600Y-1528380D01*
X+7344600Y-1758380D01*
X+7109600Y-1593380D02*
X+7109600Y-1693380D01*
X+7059600Y-1643380D02*
X+7159600Y-1643380D01*
D91*
X+7259600Y-1643380D02*
X+7259600Y-1643380D01*
D112*
X+7140941Y-1659936D02*
X+7150254Y-1668214D01*
X+7178191Y-1668214D01*
X+7196816Y-1651658D01*
X+7196816Y-1635103D01*
X+7178191Y-1618547D01*
X+7150254Y-1618547D01*
X+7140941Y-1626825D01*
X+7122316Y-1618547D02*
X+7122316Y-1643380D01*
X+7094379Y-1668214D01*
X+7066441Y-1643380D01*
X+7066441Y-1618547D01*
X+6991941Y-1626825D02*
X+7001254Y-1618547D01*
X+7029191Y-1618547D01*
X+7038504Y-1626825D01*
X+7038504Y-1659936D01*
X+7029191Y-1668214D01*
X+7001254Y-1668214D01*
X+6991941Y-1659936D01*
X+6991941Y-1651658D01*
X+7001254Y-1643380D01*
X+7038504Y-1643380D01*
X+6973316Y-1659936D02*
X+6973316Y-1626825D01*
X+6964004Y-1618547D01*
X+6926754Y-1618547D01*
X+6917441Y-1626825D01*
X+6917441Y-1659936D01*
X+6926754Y-1668214D01*
X+6964004Y-1668214D01*
X+6973316Y-1659936D01*
X+6973316Y-1668214D02*
X+6917441Y-1618547D01*
D86*
X+7344600Y-2012380D02*
X+6874600Y-2012380D01*
X+6874600Y-1782380D01*
X+7344600Y-1782380D01*
X+7344600Y-2012380D01*
X+7109600Y-1847380D02*
X+7109600Y-1947380D01*
X+7059600Y-1897380D02*
X+7159600Y-1897380D01*
D91*
X+7259600Y-1897380D02*
X+7259600Y-1897380D01*
D112*
X+7140941Y-1913936D02*
X+7150254Y-1922214D01*
X+7178191Y-1922214D01*
X+7196816Y-1905658D01*
X+7196816Y-1889103D01*
X+7178191Y-1872547D01*
X+7150254Y-1872547D01*
X+7140941Y-1880825D01*
X+7122316Y-1872547D02*
X+7122316Y-1897380D01*
X+7094379Y-1922214D01*
X+7066441Y-1897380D01*
X+7066441Y-1872547D01*
X+6991941Y-1872547D02*
X+7038504Y-1872547D01*
X+7038504Y-1889103D01*
X+7001254Y-1889103D01*
X+6991941Y-1897380D01*
X+6991941Y-1913936D01*
X+7001254Y-1922214D01*
X+7029191Y-1922214D01*
X+7038504Y-1913936D01*
X+6917441Y-1880825D02*
X+6926754Y-1872547D01*
X+6954691Y-1872547D01*
X+6964004Y-1880825D01*
X+6964004Y-1913936D01*
X+6954691Y-1922214D01*
X+6926754Y-1922214D01*
X+6917441Y-1913936D01*
X+6917441Y-1905658D01*
X+6926754Y-1897380D01*
X+6964004Y-1897380D01*
D86*
X+6790600Y-2012380D02*
X+6320600Y-2012380D01*
X+6320600Y-1782380D01*
X+6790600Y-1782380D01*
X+6790600Y-2012380D01*
X+6555600Y-1847380D02*
X+6555600Y-1947380D01*
X+6505600Y-1897380D02*
X+6605600Y-1897380D01*
D91*
X+6705600Y-1897380D02*
X+6705600Y-1897380D01*
D112*
X+6586941Y-1913936D02*
X+6596254Y-1922214D01*
X+6624191Y-1922214D01*
X+6642816Y-1905658D01*
X+6642816Y-1889103D01*
X+6624191Y-1872547D01*
X+6596254Y-1872547D01*
X+6586941Y-1880825D01*
X+6568316Y-1872547D02*
X+6568316Y-1897380D01*
X+6540379Y-1922214D01*
X+6512441Y-1897380D01*
X+6512441Y-1872547D01*
X+6437941Y-1872547D02*
X+6484504Y-1872547D01*
X+6484504Y-1889103D01*
X+6447254Y-1889103D01*
X+6437941Y-1897380D01*
X+6437941Y-1913936D01*
X+6447254Y-1922214D01*
X+6475191Y-1922214D01*
X+6484504Y-1913936D01*
X+6400691Y-1897380D02*
X+6410004Y-1889103D01*
X+6410004Y-1880825D01*
X+6400691Y-1872547D01*
X+6372754Y-1872547D01*
X+6363441Y-1880825D01*
X+6363441Y-1889103D01*
X+6372754Y-1897380D01*
X+6400691Y-1897380D01*
X+6410004Y-1905658D01*
X+6410004Y-1913936D01*
X+6400691Y-1922214D01*
X+6372754Y-1922214D01*
X+6363441Y-1913936D01*
X+6363441Y-1905658D01*
X+6372754Y-1897380D01*
D86*
X+4949100Y-2012380D02*
X+4479100Y-2012380D01*
X+4479100Y-1782380D01*
X+4949100Y-1782380D01*
X+4949100Y-2012380D01*
X+4714100Y-1847380D02*
X+4714100Y-1947380D01*
X+4664100Y-1897380D02*
X+4764100Y-1897380D01*
D91*
X+4864100Y-1897380D02*
X+4864100Y-1897380D01*
D112*
X+4745441Y-1913936D02*
X+4754754Y-1922214D01*
X+4782691Y-1922214D01*
X+4801316Y-1905658D01*
X+4801316Y-1889103D01*
X+4782691Y-1872547D01*
X+4754754Y-1872547D01*
X+4745441Y-1880825D01*
X+4726816Y-1872547D02*
X+4726816Y-1897380D01*
X+4698879Y-1922214D01*
X+4670941Y-1897380D01*
X+4670941Y-1872547D01*
X+4596441Y-1880825D02*
X+4605754Y-1872547D01*
X+4633691Y-1872547D01*
X+4643004Y-1880825D01*
X+4643004Y-1913936D01*
X+4633691Y-1922214D01*
X+4605754Y-1922214D01*
X+4596441Y-1913936D01*
X+4596441Y-1905658D01*
X+4605754Y-1897380D01*
X+4643004Y-1897380D01*
X+4568504Y-1872547D02*
X+4521941Y-1872547D01*
X+4521941Y-1880825D01*
X+4568504Y-1922214D01*
D86*
X+4436300Y-1524700D02*
X+3966300Y-1524700D01*
X+3966300Y-1294700D01*
X+4436300Y-1294700D01*
X+4436300Y-1524700D01*
X+4201300Y-1359700D02*
X+4201300Y-1459700D01*
X+4151300Y-1409700D02*
X+4251300Y-1409700D01*
D91*
X+4351300Y-1409700D02*
X+4351300Y-1409700D01*
D112*
X+4232641Y-1426256D02*
X+4241954Y-1434534D01*
X+4269891Y-1434534D01*
X+4288516Y-1417978D01*
X+4288516Y-1401423D01*
X+4269891Y-1384867D01*
X+4241954Y-1384867D01*
X+4232641Y-1393145D01*
X+4214016Y-1384867D02*
X+4214016Y-1409700D01*
X+4186079Y-1434534D01*
X+4158141Y-1409700D01*
X+4158141Y-1384867D01*
X+4083641Y-1393145D02*
X+4092954Y-1384867D01*
X+4120891Y-1384867D01*
X+4130204Y-1393145D01*
X+4130204Y-1426256D01*
X+4120891Y-1434534D01*
X+4092954Y-1434534D01*
X+4083641Y-1426256D01*
X+4083641Y-1417978D01*
X+4092954Y-1409700D01*
X+4130204Y-1409700D01*
X+4046391Y-1409700D02*
X+4055704Y-1401423D01*
X+4055704Y-1393145D01*
X+4046391Y-1384867D01*
X+4018454Y-1384867D01*
X+4009141Y-1393145D01*
X+4009141Y-1401423D01*
X+4018454Y-1409700D01*
X+4046391Y-1409700D01*
X+4055704Y-1417978D01*
X+4055704Y-1426256D01*
X+4046391Y-1434534D01*
X+4018454Y-1434534D01*
X+4009141Y-1426256D01*
X+4009141Y-1417978D01*
X+4018454Y-1409700D01*
D86*
X+4296600Y-1758380D02*
X+3826600Y-1758380D01*
X+3826600Y-1528380D01*
X+4296600Y-1528380D01*
X+4296600Y-1758380D01*
X+4061600Y-1593380D02*
X+4061600Y-1693380D01*
X+4011600Y-1643380D02*
X+4111600Y-1643380D01*
D91*
X+4211600Y-1643380D02*
X+4211600Y-1643380D01*
D112*
X+4092941Y-1659936D02*
X+4102254Y-1668214D01*
X+4130191Y-1668214D01*
X+4148816Y-1651658D01*
X+4148816Y-1635103D01*
X+4130191Y-1618547D01*
X+4102254Y-1618547D01*
X+4092941Y-1626825D01*
X+4074316Y-1618547D02*
X+4074316Y-1643380D01*
X+4046379Y-1668214D01*
X+4018441Y-1643380D01*
X+4018441Y-1618547D01*
X+3943941Y-1626825D02*
X+3953254Y-1618547D01*
X+3981191Y-1618547D01*
X+3990504Y-1626825D01*
X+3990504Y-1659936D01*
X+3981191Y-1668214D01*
X+3953254Y-1668214D01*
X+3943941Y-1659936D01*
X+3943941Y-1651658D01*
X+3953254Y-1643380D01*
X+3990504Y-1643380D01*
X+3869441Y-1635103D02*
X+3878754Y-1643380D01*
X+3906691Y-1643380D01*
X+3916004Y-1635103D01*
X+3916004Y-1626825D01*
X+3906691Y-1618547D01*
X+3878754Y-1618547D01*
X+3869441Y-1626825D01*
X+3869441Y-1659936D01*
X+3878754Y-1668214D01*
X+3906691Y-1668214D01*
D86*
X+4090100Y-219800D02*
X+4090100Y-689800D01*
X+3860100Y-689800D01*
X+3860100Y-219800D01*
X+4090100Y-219800D01*
X+3925100Y-454800D02*
X+4025100Y-454800D01*
X+3975100Y-504800D02*
X+3975100Y-404800D01*
D91*
X+3975100Y-304800D02*
X+3975100Y-304800D01*
D112*
X+3991656Y-423459D02*
X+3999934Y-414146D01*
X+3999934Y-386209D01*
X+3983378Y-367584D01*
X+3966823Y-367584D01*
X+3950267Y-386209D01*
X+3950267Y-414146D01*
X+3958545Y-423459D01*
X+3950267Y-442084D02*
X+3975100Y-442084D01*
X+3999934Y-470021D01*
X+3975100Y-497959D01*
X+3950267Y-497959D01*
X+3950267Y-525896D02*
X+3950267Y-572459D01*
X+3958545Y-572459D01*
X+3999934Y-525896D01*
X+3991656Y-591084D02*
X+3958545Y-591084D01*
X+3950267Y-600396D01*
X+3950267Y-637646D01*
X+3958545Y-646959D01*
X+3991656Y-646959D01*
X+3999934Y-637646D01*
X+3999934Y-600396D01*
X+3991656Y-591084D01*
X+3999934Y-591084D02*
X+3950267Y-646959D01*
D86*
X+4949100Y-1758380D02*
X+4479100Y-1758380D01*
X+4479100Y-1528380D01*
X+4949100Y-1528380D01*
X+4949100Y-1758380D01*
X+4714100Y-1593380D02*
X+4714100Y-1693380D01*
X+4664100Y-1643380D02*
X+4764100Y-1643380D01*
D91*
X+4864100Y-1643380D02*
X+4864100Y-1643380D01*
D112*
X+4745441Y-1659936D02*
X+4754754Y-1668214D01*
X+4782691Y-1668214D01*
X+4801316Y-1651658D01*
X+4801316Y-1635103D01*
X+4782691Y-1618547D01*
X+4754754Y-1618547D01*
X+4745441Y-1626825D01*
X+4726816Y-1618547D02*
X+4726816Y-1643380D01*
X+4698879Y-1668214D01*
X+4670941Y-1643380D01*
X+4670941Y-1618547D01*
X+4643004Y-1618547D02*
X+4596441Y-1618547D01*
X+4596441Y-1626825D01*
X+4643004Y-1668214D01*
X+4559191Y-1635103D02*
X+4540566Y-1618547D01*
X+4540566Y-1668214D01*
D86*
X+5520600Y-2520380D02*
X+5050600Y-2520380D01*
X+5050600Y-2290380D01*
X+5520600Y-2290380D01*
X+5520600Y-2520380D01*
X+5285600Y-2355380D02*
X+5285600Y-2455380D01*
X+5235600Y-2405380D02*
X+5335600Y-2405380D01*
D91*
X+5435600Y-2405380D02*
X+5435600Y-2405380D01*
D112*
X+5316941Y-2421936D02*
X+5326254Y-2430214D01*
X+5354191Y-2430214D01*
X+5372816Y-2413658D01*
X+5372816Y-2397103D01*
X+5354191Y-2380547D01*
X+5326254Y-2380547D01*
X+5316941Y-2388825D01*
X+5298316Y-2380547D02*
X+5298316Y-2405380D01*
X+5270379Y-2430214D01*
X+5242441Y-2405380D01*
X+5242441Y-2380547D01*
X+5214504Y-2380547D02*
X+5167941Y-2380547D01*
X+5167941Y-2388825D01*
X+5214504Y-2430214D01*
X+5140004Y-2388825D02*
X+5130691Y-2380547D01*
X+5102754Y-2380547D01*
X+5093441Y-2388825D01*
X+5093441Y-2397103D01*
X+5102754Y-2405380D01*
X+5093441Y-2413658D01*
X+5093441Y-2421936D01*
X+5102754Y-2430214D01*
X+5130691Y-2430214D01*
X+5140004Y-2421936D01*
X+5121379Y-2405380D02*
X+5102754Y-2405380D01*
D86*
X+5520600Y-2774380D02*
X+5060600Y-2774380D01*
X+5060600Y-2544380D01*
X+5520600Y-2544380D01*
X+5520600Y-2774380D01*
X+5290600Y-2609380D02*
X+5290600Y-2709380D01*
X+5240600Y-2659380D02*
X+5340600Y-2659380D01*
D91*
X+5435600Y-2659380D02*
X+5435600Y-2659380D01*
D111*
X+5373316Y-2683464D02*
X+5373316Y-2635297D01*
X+5328160Y-2635297D01*
X+5319129Y-2643325D01*
X+5319129Y-2651353D01*
X+5328160Y-2659380D01*
X+5373316Y-2659380D01*
X+5328160Y-2659380D02*
X+5319129Y-2667408D01*
X+5319129Y-2683464D01*
X+5301066Y-2635297D02*
X+5301066Y-2659380D01*
X+5273973Y-2683464D01*
X+5246879Y-2659380D01*
X+5246879Y-2635297D01*
X+5210754Y-2659380D02*
X+5219785Y-2651353D01*
X+5219785Y-2643325D01*
X+5210754Y-2635297D01*
X+5183660Y-2635297D01*
X+5174629Y-2643325D01*
X+5174629Y-2651353D01*
X+5183660Y-2659380D01*
X+5210754Y-2659380D01*
X+5219785Y-2667408D01*
X+5219785Y-2675436D01*
X+5210754Y-2683464D01*
X+5183660Y-2683464D01*
X+5174629Y-2675436D01*
X+5174629Y-2667408D01*
X+5183660Y-2659380D01*
X+5147535Y-2643325D02*
X+5138504Y-2635297D01*
X+5111410Y-2635297D01*
X+5102379Y-2643325D01*
X+5102379Y-2651353D01*
X+5111410Y-2659380D01*
X+5102379Y-2667408D01*
X+5102379Y-2675436D01*
X+5111410Y-2683464D01*
X+5138504Y-2683464D01*
X+5147535Y-2675436D01*
X+5129473Y-2659380D02*
X+5111410Y-2659380D01*
D86*
X+5804600Y-2157380D02*
X+5804600Y-2617380D01*
X+5574600Y-2617380D01*
X+5574600Y-2157380D01*
X+5804600Y-2157380D01*
X+5639600Y-2387380D02*
X+5739600Y-2387380D01*
X+5689600Y-2437380D02*
X+5689600Y-2337380D01*
D91*
X+5689600Y-2242380D02*
X+5689600Y-2242380D01*
D111*
X+5713684Y-2304664D02*
X+5665517Y-2304664D01*
X+5665517Y-2349820D01*
X+5673545Y-2358851D01*
X+5681573Y-2358851D01*
X+5689600Y-2349820D01*
X+5689600Y-2304664D01*
X+5689600Y-2349820D02*
X+5697628Y-2358851D01*
X+5713684Y-2358851D01*
X+5665517Y-2376914D02*
X+5689600Y-2376914D01*
X+5713684Y-2404007D01*
X+5689600Y-2431101D01*
X+5665517Y-2431101D01*
X+5689600Y-2467226D02*
X+5681573Y-2458195D01*
X+5673545Y-2458195D01*
X+5665517Y-2467226D01*
X+5665517Y-2494320D01*
X+5673545Y-2503351D01*
X+5681573Y-2503351D01*
X+5689600Y-2494320D01*
X+5689600Y-2467226D01*
X+5697628Y-2458195D01*
X+5705656Y-2458195D01*
X+5713684Y-2467226D01*
X+5713684Y-2494320D01*
X+5705656Y-2503351D01*
X+5697628Y-2503351D01*
X+5689600Y-2494320D01*
X+5705656Y-2521414D02*
X+5673545Y-2521414D01*
X+5665517Y-2530445D01*
X+5665517Y-2566570D01*
X+5673545Y-2575601D01*
X+5705656Y-2575601D01*
X+5713684Y-2566570D01*
X+5713684Y-2530445D01*
X+5705656Y-2521414D01*
X+5713684Y-2521414D02*
X+5665517Y-2575601D01*
D86*
X+5804600Y-34380D02*
X+5804600Y-494380D01*
X+5574600Y-494380D01*
X+5574600Y-34380D01*
X+5804600Y-34380D01*
X+5639600Y-264380D02*
X+5739600Y-264380D01*
X+5689600Y-314380D02*
X+5689600Y-214380D01*
D91*
X+5689600Y-119380D02*
X+5689600Y-119380D01*
D111*
X+5713684Y-181664D02*
X+5665517Y-181664D01*
X+5665517Y-226820D01*
X+5673545Y-235851D01*
X+5681573Y-235851D01*
X+5689600Y-226820D01*
X+5689600Y-181664D01*
X+5689600Y-226820D02*
X+5697628Y-235851D01*
X+5713684Y-235851D01*
X+5665517Y-253914D02*
X+5689600Y-253914D01*
X+5713684Y-281007D01*
X+5689600Y-308101D01*
X+5665517Y-308101D01*
X+5689600Y-344226D02*
X+5681573Y-335195D01*
X+5673545Y-335195D01*
X+5665517Y-344226D01*
X+5665517Y-371320D01*
X+5673545Y-380351D01*
X+5681573Y-380351D01*
X+5689600Y-371320D01*
X+5689600Y-344226D01*
X+5697628Y-335195D01*
X+5705656Y-335195D01*
X+5713684Y-344226D01*
X+5713684Y-371320D01*
X+5705656Y-380351D01*
X+5697628Y-380351D01*
X+5689600Y-371320D01*
X+5681573Y-416476D02*
X+5665517Y-434539D01*
X+5713684Y-434539D01*
D86*
X+5060600Y-4380D02*
X+5520600Y-4380D01*
X+5520600Y-234380D01*
X+5060600Y-234380D01*
X+5060600Y-4380D01*
X+5290600Y-169380D02*
X+5290600Y-69380D01*
X+5340600Y-119380D02*
X+5240600Y-119380D01*
D91*
X+5145600Y-119380D02*
X+5145600Y-119380D01*
D111*
X+5496884Y-143464D02*
X+5496884Y-95297D01*
X+5451728Y-95297D01*
X+5442697Y-103325D01*
X+5442697Y-111353D01*
X+5451728Y-119380D01*
X+5496884Y-119380D01*
X+5451728Y-119380D02*
X+5442697Y-127408D01*
X+5442697Y-143464D01*
X+5424634Y-95297D02*
X+5424634Y-119380D01*
X+5397541Y-143464D01*
X+5370447Y-119380D01*
X+5370447Y-95297D01*
X+5334322Y-119380D02*
X+5343353Y-111353D01*
X+5343353Y-103325D01*
X+5334322Y-95297D01*
X+5307228Y-95297D01*
X+5298197Y-103325D01*
X+5298197Y-111353D01*
X+5307228Y-119380D01*
X+5334322Y-119380D01*
X+5343353Y-127408D01*
X+5343353Y-135436D01*
X+5334322Y-143464D01*
X+5307228Y-143464D01*
X+5298197Y-135436D01*
X+5298197Y-127408D01*
X+5307228Y-119380D01*
X+5271103Y-103325D02*
X+5262072Y-95297D01*
X+5234978Y-95297D01*
X+5225947Y-103325D01*
X+5225947Y-111353D01*
X+5234978Y-119380D01*
X+5262072Y-119380D01*
X+5271103Y-127408D01*
X+5271103Y-143464D01*
X+5225947Y-143464D01*
D86*
X+3107600Y-2774380D02*
X+2647600Y-2774380D01*
X+2647600Y-2544380D01*
X+3107600Y-2544380D01*
X+3107600Y-2774380D01*
X+2877600Y-2609380D02*
X+2877600Y-2709380D01*
X+2827600Y-2659380D02*
X+2927600Y-2659380D01*
D91*
X+3022600Y-2659380D02*
X+3022600Y-2659380D01*
D111*
X+2960316Y-2683464D02*
X+2960316Y-2635297D01*
X+2915160Y-2635297D01*
X+2906129Y-2643325D01*
X+2906129Y-2651353D01*
X+2915160Y-2659380D01*
X+2960316Y-2659380D01*
X+2915160Y-2659380D02*
X+2906129Y-2667408D01*
X+2906129Y-2683464D01*
X+2888066Y-2635297D02*
X+2888066Y-2659380D01*
X+2860973Y-2683464D01*
X+2833879Y-2659380D01*
X+2833879Y-2635297D01*
X+2761629Y-2651353D02*
X+2770660Y-2659380D01*
X+2797754Y-2659380D01*
X+2806785Y-2651353D01*
X+2806785Y-2643325D01*
X+2797754Y-2635297D01*
X+2770660Y-2635297D01*
X+2761629Y-2643325D01*
X+2761629Y-2675436D01*
X+2770660Y-2683464D01*
X+2797754Y-2683464D01*
X+2689379Y-2635297D02*
X+2734535Y-2635297D01*
X+2734535Y-2651353D01*
X+2698410Y-2651353D01*
X+2689379Y-2659380D01*
X+2689379Y-2675436D01*
X+2698410Y-2683464D01*
X+2725504Y-2683464D01*
X+2734535Y-2675436D01*
D86*
X+3391600Y-2193380D02*
X+3391600Y-2653380D01*
X+3161600Y-2653380D01*
X+3161600Y-2193380D01*
X+3391600Y-2193380D01*
X+3226600Y-2423380D02*
X+3326600Y-2423380D01*
X+3276600Y-2473380D02*
X+3276600Y-2373380D01*
D91*
X+3276600Y-2278380D02*
X+3276600Y-2278380D01*
D111*
X+3300684Y-2340664D02*
X+3252517Y-2340664D01*
X+3252517Y-2385820D01*
X+3260545Y-2394851D01*
X+3268573Y-2394851D01*
X+3276600Y-2385820D01*
X+3276600Y-2340664D01*
X+3276600Y-2385820D02*
X+3284628Y-2394851D01*
X+3300684Y-2394851D01*
X+3252517Y-2412914D02*
X+3276600Y-2412914D01*
X+3300684Y-2440007D01*
X+3276600Y-2467101D01*
X+3252517Y-2467101D01*
X+3268573Y-2539351D02*
X+3276600Y-2530320D01*
X+3276600Y-2503226D01*
X+3268573Y-2494195D01*
X+3260545Y-2494195D01*
X+3252517Y-2503226D01*
X+3252517Y-2530320D01*
X+3260545Y-2539351D01*
X+3292656Y-2539351D01*
X+3300684Y-2530320D01*
X+3300684Y-2503226D01*
X+3260545Y-2566445D02*
X+3252517Y-2575476D01*
X+3252517Y-2602570D01*
X+3260545Y-2611601D01*
X+3268573Y-2611601D01*
X+3276600Y-2602570D01*
X+3276600Y-2575476D01*
X+3284628Y-2566445D01*
X+3300684Y-2566445D01*
X+3300684Y-2611601D01*
D86*
X+3391600Y-97880D02*
X+3391600Y-557880D01*
X+3161600Y-557880D01*
X+3161600Y-97880D01*
X+3391600Y-97880D01*
X+3226600Y-327880D02*
X+3326600Y-327880D01*
X+3276600Y-377880D02*
X+3276600Y-277880D01*
D91*
X+3276600Y-182880D02*
X+3276600Y-182880D01*
D111*
X+3300684Y-245164D02*
X+3252517Y-245164D01*
X+3252517Y-290320D01*
X+3260545Y-299351D01*
X+3268573Y-299351D01*
X+3276600Y-290320D01*
X+3276600Y-245164D01*
X+3276600Y-290320D02*
X+3284628Y-299351D01*
X+3300684Y-299351D01*
X+3252517Y-317414D02*
X+3276600Y-317414D01*
X+3300684Y-344507D01*
X+3276600Y-371601D01*
X+3252517Y-371601D01*
X+3268573Y-443851D02*
X+3276600Y-434820D01*
X+3276600Y-407726D01*
X+3268573Y-398695D01*
X+3260545Y-398695D01*
X+3252517Y-407726D01*
X+3252517Y-434820D01*
X+3260545Y-443851D01*
X+3292656Y-443851D01*
X+3300684Y-434820D01*
X+3300684Y-407726D01*
X+3260545Y-470945D02*
X+3252517Y-479976D01*
X+3252517Y-507070D01*
X+3260545Y-516101D01*
X+3268573Y-516101D01*
X+3276600Y-507070D01*
X+3284628Y-516101D01*
X+3292656Y-516101D01*
X+3300684Y-507070D01*
X+3300684Y-479976D01*
X+3292656Y-470945D01*
X+3276600Y-489007D02*
X+3276600Y-507070D01*
D86*
X+2683600Y-67880D02*
X+3143600Y-67880D01*
X+3143600Y-297880D01*
X+2683600Y-297880D01*
X+2683600Y-67880D01*
X+2913600Y-232880D02*
X+2913600Y-132880D01*
X+2963600Y-182880D02*
X+2863600Y-182880D01*
D91*
X+2768600Y-182880D02*
X+2768600Y-182880D01*
D111*
X+3119884Y-206964D02*
X+3119884Y-158797D01*
X+3074728Y-158797D01*
X+3065697Y-166825D01*
X+3065697Y-174853D01*
X+3074728Y-182880D01*
X+3119884Y-182880D01*
X+3074728Y-182880D02*
X+3065697Y-190908D01*
X+3065697Y-206964D01*
X+3047634Y-158797D02*
X+3047634Y-182880D01*
X+3020541Y-206964D01*
X+2993447Y-182880D01*
X+2993447Y-158797D01*
X+2921197Y-174853D02*
X+2930228Y-182880D01*
X+2957322Y-182880D01*
X+2966353Y-174853D01*
X+2966353Y-166825D01*
X+2957322Y-158797D01*
X+2930228Y-158797D01*
X+2921197Y-166825D01*
X+2921197Y-198936D01*
X+2930228Y-206964D01*
X+2957322Y-206964D01*
X+2848947Y-190908D02*
X+2903134Y-190908D01*
X+2867009Y-158797D01*
X+2867009Y-206964D01*
D86*
X+4114100Y-679800D02*
X+4114100Y-219800D01*
X+4344100Y-219800D01*
X+4344100Y-679800D01*
X+4114100Y-679800D01*
X+4279100Y-449800D02*
X+4179100Y-449800D01*
X+4229100Y-399800D02*
X+4229100Y-499800D01*
D91*
X+4229100Y-594800D02*
X+4229100Y-594800D01*
D111*
X+4253184Y-243516D02*
X+4205017Y-243516D01*
X+4205017Y-288672D01*
X+4213045Y-297703D01*
X+4221073Y-297703D01*
X+4229100Y-288672D01*
X+4229100Y-243516D01*
X+4229100Y-288672D02*
X+4237128Y-297703D01*
X+4253184Y-297703D01*
X+4205017Y-315766D02*
X+4229100Y-315766D01*
X+4253184Y-342859D01*
X+4229100Y-369953D01*
X+4205017Y-369953D01*
X+4205017Y-397047D02*
X+4205017Y-442203D01*
X+4213045Y-442203D01*
X+4253184Y-397047D01*
X+4205017Y-514453D02*
X+4205017Y-469297D01*
X+4221073Y-469297D01*
X+4221073Y-505422D01*
X+4229100Y-514453D01*
X+4245156Y-514453D01*
X+4253184Y-505422D01*
X+4253184Y-478328D01*
X+4245156Y-469297D01*
D86*
X+3618800Y-667100D02*
X+3618800Y-207100D01*
X+3848800Y-207100D01*
X+3848800Y-667100D01*
X+3618800Y-667100D01*
X+3783800Y-437100D02*
X+3683800Y-437100D01*
X+3733800Y-387100D02*
X+3733800Y-487100D01*
D91*
X+3733800Y-582100D02*
X+3733800Y-582100D01*
D111*
X+3757884Y-230816D02*
X+3709717Y-230816D01*
X+3709717Y-275972D01*
X+3717745Y-285003D01*
X+3725773Y-285003D01*
X+3733800Y-275972D01*
X+3733800Y-230816D01*
X+3733800Y-275972D02*
X+3741828Y-285003D01*
X+3757884Y-285003D01*
X+3709717Y-303066D02*
X+3733800Y-303066D01*
X+3757884Y-330159D01*
X+3733800Y-357253D01*
X+3709717Y-357253D01*
X+3709717Y-384347D02*
X+3709717Y-429503D01*
X+3717745Y-429503D01*
X+3757884Y-384347D01*
X+3717745Y-501753D02*
X+3709717Y-492722D01*
X+3709717Y-465628D01*
X+3717745Y-456597D01*
X+3749856Y-456597D01*
X+3757884Y-465628D01*
X+3757884Y-492722D01*
X+3749856Y-501753D01*
X+3741828Y-501753D01*
X+3733800Y-492722D01*
X+3733800Y-456597D01*
D86*
X+4830000Y-369000D02*
X+4360000Y-369000D01*
X+4360000Y-139000D01*
X+4830000Y-139000D01*
X+4830000Y-369000D01*
X+4595000Y-204000D02*
X+4595000Y-304000D01*
X+4545000Y-254000D02*
X+4645000Y-254000D01*
D91*
X+4745000Y-254000D02*
X+4745000Y-254000D01*
D112*
X+4626341Y-270556D02*
X+4635654Y-278834D01*
X+4663591Y-278834D01*
X+4682216Y-262278D01*
X+4682216Y-245723D01*
X+4663591Y-229167D01*
X+4635654Y-229167D01*
X+4626341Y-237445D01*
X+4607716Y-229167D02*
X+4607716Y-254000D01*
X+4579779Y-278834D01*
X+4551841Y-254000D01*
X+4551841Y-229167D01*
X+4523904Y-229167D02*
X+4477341Y-229167D01*
X+4477341Y-237445D01*
X+4523904Y-278834D01*
X+4402841Y-229167D02*
X+4449404Y-229167D01*
X+4449404Y-245723D01*
X+4412154Y-245723D01*
X+4402841Y-254000D01*
X+4402841Y-270556D01*
X+4412154Y-278834D01*
X+4440091Y-278834D01*
X+4449404Y-270556D01*
D86*
X+4286600Y-2266380D02*
X+3826600Y-2266380D01*
X+3826600Y-2036380D01*
X+4286600Y-2036380D01*
X+4286600Y-2266380D01*
X+4056600Y-2101380D02*
X+4056600Y-2201380D01*
X+4006600Y-2151380D02*
X+4106600Y-2151380D01*
D91*
X+4201600Y-2151380D02*
X+4201600Y-2151380D01*
D111*
X+4139316Y-2175464D02*
X+4139316Y-2127297D01*
X+4094160Y-2127297D01*
X+4085129Y-2135325D01*
X+4085129Y-2143353D01*
X+4094160Y-2151380D01*
X+4139316Y-2151380D01*
X+4094160Y-2151380D02*
X+4085129Y-2159408D01*
X+4085129Y-2175464D01*
X+4067066Y-2127297D02*
X+4067066Y-2151380D01*
X+4039973Y-2175464D01*
X+4012879Y-2151380D01*
X+4012879Y-2127297D01*
X+3985785Y-2127297D02*
X+3940629Y-2127297D01*
X+3940629Y-2135325D01*
X+3985785Y-2175464D01*
X+3913535Y-2135325D02*
X+3904504Y-2127297D01*
X+3877410Y-2127297D01*
X+3868379Y-2135325D01*
X+3868379Y-2143353D01*
X+3877410Y-2151380D01*
X+3868379Y-2159408D01*
X+3868379Y-2167436D01*
X+3877410Y-2175464D01*
X+3904504Y-2175464D01*
X+3913535Y-2167436D01*
X+3895473Y-2151380D02*
X+3877410Y-2151380D01*
D86*
X+4286600Y-2012380D02*
X+3826600Y-2012380D01*
X+3826600Y-1782380D01*
X+4286600Y-1782380D01*
X+4286600Y-2012380D01*
X+4056600Y-1847380D02*
X+4056600Y-1947380D01*
X+4006600Y-1897380D02*
X+4106600Y-1897380D01*
D91*
X+4201600Y-1897380D02*
X+4201600Y-1897380D01*
D111*
X+4139316Y-1921464D02*
X+4139316Y-1873297D01*
X+4094160Y-1873297D01*
X+4085129Y-1881325D01*
X+4085129Y-1889353D01*
X+4094160Y-1897380D01*
X+4139316Y-1897380D01*
X+4094160Y-1897380D02*
X+4085129Y-1905408D01*
X+4085129Y-1921464D01*
X+4067066Y-1873297D02*
X+4067066Y-1897380D01*
X+4039973Y-1921464D01*
X+4012879Y-1897380D01*
X+4012879Y-1873297D01*
X+3985785Y-1873297D02*
X+3940629Y-1873297D01*
X+3940629Y-1881325D01*
X+3985785Y-1921464D01*
X+3868379Y-1905408D02*
X+3922566Y-1905408D01*
X+3886441Y-1873297D01*
X+3886441Y-1921464D01*
D86*
X+4949100Y-2266380D02*
X+4489100Y-2266380D01*
X+4489100Y-2036380D01*
X+4949100Y-2036380D01*
X+4949100Y-2266380D01*
X+4719100Y-2101380D02*
X+4719100Y-2201380D01*
X+4669100Y-2151380D02*
X+4769100Y-2151380D01*
D91*
X+4864100Y-2151380D02*
X+4864100Y-2151380D01*
D111*
X+4801816Y-2175464D02*
X+4801816Y-2127297D01*
X+4756660Y-2127297D01*
X+4747629Y-2135325D01*
X+4747629Y-2143353D01*
X+4756660Y-2151380D01*
X+4801816Y-2151380D01*
X+4756660Y-2151380D02*
X+4747629Y-2159408D01*
X+4747629Y-2175464D01*
X+4729566Y-2127297D02*
X+4729566Y-2151380D01*
X+4702473Y-2175464D01*
X+4675379Y-2151380D01*
X+4675379Y-2127297D01*
X+4648285Y-2127297D02*
X+4603129Y-2127297D01*
X+4603129Y-2135325D01*
X+4648285Y-2175464D01*
X+4576035Y-2127297D02*
X+4530879Y-2127297D01*
X+4530879Y-2135325D01*
X+4576035Y-2175464D01*
D86*
X+3107600Y-2520380D02*
X+2637600Y-2520380D01*
X+2637600Y-2290380D01*
X+3107600Y-2290380D01*
X+3107600Y-2520380D01*
X+2872600Y-2355380D02*
X+2872600Y-2455380D01*
X+2822600Y-2405380D02*
X+2922600Y-2405380D01*
D91*
X+3022600Y-2405380D02*
X+3022600Y-2405380D01*
D112*
X+2903941Y-2421936D02*
X+2913254Y-2430214D01*
X+2941191Y-2430214D01*
X+2959816Y-2413658D01*
X+2959816Y-2397103D01*
X+2941191Y-2380547D01*
X+2913254Y-2380547D01*
X+2903941Y-2388825D01*
X+2885316Y-2380547D02*
X+2885316Y-2405380D01*
X+2857379Y-2430214D01*
X+2829441Y-2405380D01*
X+2829441Y-2380547D01*
X+2792191Y-2405380D02*
X+2801504Y-2397103D01*
X+2801504Y-2388825D01*
X+2792191Y-2380547D01*
X+2764254Y-2380547D01*
X+2754941Y-2388825D01*
X+2754941Y-2397103D01*
X+2764254Y-2405380D01*
X+2792191Y-2405380D01*
X+2801504Y-2413658D01*
X+2801504Y-2421936D01*
X+2792191Y-2430214D01*
X+2764254Y-2430214D01*
X+2754941Y-2421936D01*
X+2754941Y-2413658D01*
X+2764254Y-2405380D01*
X+2680441Y-2413658D02*
X+2736316Y-2413658D01*
X+2699066Y-2380547D01*
X+2699066Y-2430214D01*
D86*
X+1193100Y-623480D02*
X+1193100Y-163480D01*
X+1423100Y-163480D01*
X+1423100Y-623480D01*
X+1193100Y-623480D01*
X+1358100Y-393480D02*
X+1258100Y-393480D01*
X+1308100Y-343480D02*
X+1308100Y-443480D01*
D91*
X+1308100Y-538480D02*
X+1308100Y-538480D01*
D111*
X+1332184Y-187196D02*
X+1284017Y-187196D01*
X+1284017Y-232352D01*
X+1292045Y-241383D01*
X+1300073Y-241383D01*
X+1308100Y-232352D01*
X+1308100Y-187196D01*
X+1308100Y-232352D02*
X+1316128Y-241383D01*
X+1332184Y-241383D01*
X+1284017Y-259446D02*
X+1308100Y-259446D01*
X+1332184Y-286539D01*
X+1308100Y-313633D01*
X+1284017Y-313633D01*
X+1308100Y-349758D02*
X+1300073Y-340727D01*
X+1292045Y-340727D01*
X+1284017Y-349758D01*
X+1284017Y-376852D01*
X+1292045Y-385883D01*
X+1300073Y-385883D01*
X+1308100Y-376852D01*
X+1308100Y-349758D01*
X+1316128Y-340727D01*
X+1324156Y-340727D01*
X+1332184Y-349758D01*
X+1332184Y-376852D01*
X+1324156Y-385883D01*
X+1316128Y-385883D01*
X+1308100Y-376852D01*
X+1308100Y-422008D02*
X+1300073Y-412977D01*
X+1292045Y-412977D01*
X+1284017Y-422008D01*
X+1284017Y-449102D01*
X+1292045Y-458133D01*
X+1300073Y-458133D01*
X+1308100Y-449102D01*
X+1308100Y-422008D01*
X+1316128Y-412977D01*
X+1324156Y-412977D01*
X+1332184Y-422008D01*
X+1332184Y-449102D01*
X+1324156Y-458133D01*
X+1316128Y-458133D01*
X+1308100Y-449102D01*
D86*
X+1683600Y-636180D02*
X+1683600Y-176180D01*
X+1913600Y-176180D01*
X+1913600Y-636180D01*
X+1683600Y-636180D01*
X+1848600Y-406180D02*
X+1748600Y-406180D01*
X+1798600Y-356180D02*
X+1798600Y-456180D01*
D91*
X+1798600Y-551180D02*
X+1798600Y-551180D01*
D111*
X+1822684Y-199896D02*
X+1774517Y-199896D01*
X+1774517Y-245052D01*
X+1782545Y-254083D01*
X+1790573Y-254083D01*
X+1798600Y-245052D01*
X+1798600Y-199896D01*
X+1798600Y-245052D02*
X+1806628Y-254083D01*
X+1822684Y-254083D01*
X+1774517Y-272146D02*
X+1798600Y-272146D01*
X+1822684Y-299239D01*
X+1798600Y-326333D01*
X+1774517Y-326333D01*
X+1798600Y-362458D02*
X+1790573Y-353427D01*
X+1782545Y-353427D01*
X+1774517Y-362458D01*
X+1774517Y-389552D01*
X+1782545Y-398583D01*
X+1790573Y-398583D01*
X+1798600Y-389552D01*
X+1798600Y-362458D01*
X+1806628Y-353427D01*
X+1814656Y-353427D01*
X+1822684Y-362458D01*
X+1822684Y-389552D01*
X+1814656Y-398583D01*
X+1806628Y-398583D01*
X+1798600Y-389552D01*
X+1774517Y-425677D02*
X+1774517Y-470833D01*
X+1782545Y-470833D01*
X+1822684Y-425677D01*
D86*
X-699200Y-697580D02*
X-699200Y-237580D01*
X-469200Y-237580D01*
X-469200Y-697580D01*
X-699200Y-697580D01*
X-534200Y-467580D02*
X-634200Y-467580D01*
X-584200Y-417580D02*
X-584200Y-517580D01*
D91*
X-584200Y-612580D02*
X-584200Y-612580D01*
D111*
X-560116Y-261296D02*
X-608283Y-261296D01*
X-608283Y-306452D01*
X-600255Y-315483D01*
X-592227Y-315483D01*
X-584200Y-306452D01*
X-584200Y-261296D01*
X-584200Y-306452D02*
X-576172Y-315483D01*
X-560116Y-315483D01*
X-608283Y-333546D02*
X-584200Y-333546D01*
X-560116Y-360639D01*
X-584200Y-387733D01*
X-608283Y-387733D01*
X-592227Y-459983D02*
X-584200Y-450952D01*
X-584200Y-423858D01*
X-592227Y-414827D01*
X-600255Y-414827D01*
X-608283Y-423858D01*
X-608283Y-450952D01*
X-600255Y-459983D01*
X-568144Y-459983D01*
X-560116Y-450952D01*
X-560116Y-423858D01*
X-592227Y-532233D02*
X-584200Y-523202D01*
X-584200Y-496108D01*
X-592227Y-487077D01*
X-600255Y-487077D01*
X-608283Y-496108D01*
X-608283Y-523202D01*
X-600255Y-532233D01*
X-568144Y-532233D01*
X-560116Y-523202D01*
X-560116Y-496108D01*
D86*
X-1181800Y-697580D02*
X-1181800Y-237580D01*
X-951800Y-237580D01*
X-951800Y-697580D01*
X-1181800Y-697580D01*
X-1016800Y-467580D02*
X-1116800Y-467580D01*
X-1066800Y-417580D02*
X-1066800Y-517580D01*
D91*
X-1066800Y-612580D02*
X-1066800Y-612580D01*
D90*
X-1047533Y-261299D02*
X-1086066Y-261299D01*
X-1086066Y-297423D01*
X-1079644Y-304648D01*
X-1073222Y-304648D01*
X-1066800Y-297423D01*
X-1066800Y-261299D01*
X-1066800Y-297423D02*
X-1060377Y-304648D01*
X-1047533Y-304648D01*
X-1086066Y-319098D02*
X-1066800Y-319098D01*
X-1047533Y-340772D01*
X-1066800Y-362447D01*
X-1086066Y-362447D01*
X-1073222Y-391346D02*
X-1086066Y-405796D01*
X-1047533Y-405796D01*
X-1053955Y-434696D02*
X-1079644Y-434696D01*
X-1086066Y-441920D01*
X-1086066Y-470820D01*
X-1079644Y-478045D01*
X-1053955Y-478045D01*
X-1047533Y-470820D01*
X-1047533Y-441920D01*
X-1053955Y-434696D01*
X-1047533Y-434696D02*
X-1086066Y-478045D01*
X-1053955Y-492495D02*
X-1079644Y-492495D01*
X-1086066Y-499719D01*
X-1086066Y-528619D01*
X-1079644Y-535844D01*
X-1053955Y-535844D01*
X-1047533Y-528619D01*
X-1047533Y-499719D01*
X-1053955Y-492495D01*
X-1047533Y-492495D02*
X-1086066Y-535844D01*
D86*
X+1664400Y-166180D02*
X+1664400Y-636180D01*
X+1434400Y-636180D01*
X+1434400Y-166180D01*
X+1664400Y-166180D01*
X+1499400Y-401180D02*
X+1599400Y-401180D01*
X+1549400Y-451180D02*
X+1549400Y-351180D01*
D91*
X+1549400Y-251180D02*
X+1549400Y-251180D01*
D112*
X+1565956Y-369839D02*
X+1574234Y-360526D01*
X+1574234Y-332589D01*
X+1557678Y-313964D01*
X+1541123Y-313964D01*
X+1524567Y-332589D01*
X+1524567Y-360526D01*
X+1532845Y-369839D01*
X+1524567Y-388464D02*
X+1549400Y-388464D01*
X+1574234Y-416401D01*
X+1549400Y-444339D01*
X+1524567Y-444339D01*
X+1549400Y-481589D02*
X+1541123Y-472276D01*
X+1532845Y-472276D01*
X+1524567Y-481589D01*
X+1524567Y-509526D01*
X+1532845Y-518839D01*
X+1541123Y-518839D01*
X+1549400Y-509526D01*
X+1549400Y-481589D01*
X+1557678Y-472276D01*
X+1565956Y-472276D01*
X+1574234Y-481589D01*
X+1574234Y-509526D01*
X+1565956Y-518839D01*
X+1557678Y-518839D01*
X+1549400Y-509526D01*
X+1541123Y-556089D02*
X+1524567Y-574714D01*
X+1574234Y-574714D01*
D86*
X-709450Y-238630D02*
X-709450Y-708630D01*
X-939450Y-708630D01*
X-939450Y-238630D01*
X-709450Y-238630D01*
X-874450Y-473630D02*
X-774450Y-473630D01*
X-824450Y-523630D02*
X-824450Y-423630D01*
D91*
X-824450Y-323630D02*
X-824450Y-323630D01*
D112*
X-807894Y-442289D02*
X-799616Y-432976D01*
X-799616Y-405039D01*
X-816172Y-386414D01*
X-832727Y-386414D01*
X-849283Y-405039D01*
X-849283Y-432976D01*
X-841005Y-442289D01*
X-849283Y-460914D02*
X-824450Y-460914D01*
X-799616Y-488851D01*
X-824450Y-516789D01*
X-849283Y-516789D01*
X-832727Y-591289D02*
X-824450Y-581976D01*
X-824450Y-554039D01*
X-832727Y-544726D01*
X-841005Y-544726D01*
X-849283Y-554039D01*
X-849283Y-581976D01*
X-841005Y-591289D01*
X-807894Y-591289D01*
X-799616Y-581976D01*
X-799616Y-554039D01*
X-841005Y-619226D02*
X-849283Y-628539D01*
X-849283Y-656476D01*
X-841005Y-665789D01*
X-832727Y-665789D01*
X-824450Y-656476D01*
X-824450Y-628539D01*
X-816172Y-619226D01*
X-799616Y-619226D01*
X-799616Y-665789D01*
D86*
X+2023300Y-1529780D02*
X+1553300Y-1529780D01*
X+1553300Y-1299780D01*
X+2023300Y-1299780D01*
X+2023300Y-1529780D01*
X+1788300Y-1364780D02*
X+1788300Y-1464780D01*
X+1738300Y-1414780D02*
X+1838300Y-1414780D01*
D91*
X+1938300Y-1414780D02*
X+1938300Y-1414780D01*
D112*
X+1819641Y-1431336D02*
X+1828954Y-1439614D01*
X+1856891Y-1439614D01*
X+1875516Y-1423058D01*
X+1875516Y-1406503D01*
X+1856891Y-1389947D01*
X+1828954Y-1389947D01*
X+1819641Y-1398225D01*
X+1801016Y-1389947D02*
X+1801016Y-1414780D01*
X+1773079Y-1439614D01*
X+1745141Y-1414780D01*
X+1745141Y-1389947D01*
X+1717204Y-1389947D02*
X+1670641Y-1389947D01*
X+1670641Y-1398225D01*
X+1717204Y-1439614D01*
X+1596141Y-1406503D02*
X+1605454Y-1414780D01*
X+1633391Y-1414780D01*
X+1642704Y-1406503D01*
X+1642704Y-1398225D01*
X+1633391Y-1389947D01*
X+1605454Y-1389947D01*
X+1596141Y-1398225D01*
X+1596141Y-1431336D01*
X+1605454Y-1439614D01*
X+1633391Y-1439614D01*
D86*
X-377000Y-1517080D02*
X-847000Y-1517080D01*
X-847000Y-1287080D01*
X-377000Y-1287080D01*
X-377000Y-1517080D01*
X-612000Y-1352080D02*
X-612000Y-1452080D01*
X-662000Y-1402080D02*
X-562000Y-1402080D01*
D91*
X-462000Y-1402080D02*
X-462000Y-1402080D01*
D112*
X-580659Y-1418636D02*
X-571346Y-1426914D01*
X-543409Y-1426914D01*
X-524784Y-1410358D01*
X-524784Y-1393803D01*
X-543409Y-1377247D01*
X-571346Y-1377247D01*
X-580659Y-1385525D01*
X-599284Y-1377247D02*
X-599284Y-1402080D01*
X-627221Y-1426914D01*
X-655159Y-1402080D01*
X-655159Y-1377247D01*
X-729659Y-1393803D02*
X-720346Y-1402080D01*
X-692409Y-1402080D01*
X-683096Y-1393803D01*
X-683096Y-1385525D01*
X-692409Y-1377247D01*
X-720346Y-1377247D01*
X-729659Y-1385525D01*
X-729659Y-1418636D01*
X-720346Y-1426914D01*
X-692409Y-1426914D01*
X-748284Y-1418636D02*
X-748284Y-1385525D01*
X-757596Y-1377247D01*
X-794846Y-1377247D01*
X-804159Y-1385525D01*
X-804159Y-1418636D01*
X-794846Y-1426914D01*
X-757596Y-1426914D01*
X-748284Y-1418636D01*
X-748284Y-1426914D02*
X-804159Y-1377247D01*
D86*
X+2411920Y-356300D02*
X+1941920Y-356300D01*
X+1941920Y-126300D01*
X+2411920Y-126300D01*
X+2411920Y-356300D01*
X+2176920Y-191300D02*
X+2176920Y-291300D01*
X+2126920Y-241300D02*
X+2226920Y-241300D01*
D91*
X+2326920Y-241300D02*
X+2326920Y-241300D01*
D112*
X+2208261Y-257856D02*
X+2217574Y-266134D01*
X+2245511Y-266134D01*
X+2264136Y-249578D01*
X+2264136Y-233023D01*
X+2245511Y-216467D01*
X+2217574Y-216467D01*
X+2208261Y-224745D01*
X+2189636Y-216467D02*
X+2189636Y-241300D01*
X+2161699Y-266134D01*
X+2133761Y-241300D01*
X+2133761Y-216467D01*
X+2096511Y-241300D02*
X+2105824Y-233023D01*
X+2105824Y-224745D01*
X+2096511Y-216467D01*
X+2068574Y-216467D01*
X+2059261Y-224745D01*
X+2059261Y-233023D01*
X+2068574Y-241300D01*
X+2096511Y-241300D01*
X+2105824Y-249578D01*
X+2105824Y-257856D01*
X+2096511Y-266134D01*
X+2068574Y-266134D01*
X+2059261Y-257856D01*
X+2059261Y-249578D01*
X+2068574Y-241300D01*
X+1984761Y-224745D02*
X+1994074Y-216467D01*
X+2022011Y-216467D01*
X+2031324Y-224745D01*
X+2031324Y-257856D01*
X+2022011Y-266134D01*
X+1994074Y-266134D01*
X+1984761Y-257856D01*
X+1984761Y-249578D01*
X+1994074Y-241300D01*
X+2031324Y-241300D01*
D86*
X+3720Y-407100D02*
X-466280Y-407100D01*
X-466280Y-177100D01*
X+3720Y-177100D01*
X+3720Y-407100D01*
X-231280Y-242100D02*
X-231280Y-342100D01*
X-281280Y-292100D02*
X-181280Y-292100D01*
D91*
X-81280Y-292100D02*
X-81280Y-292100D01*
D112*
X-199939Y-308656D02*
X-190626Y-316934D01*
X-162689Y-316934D01*
X-144064Y-300378D01*
X-144064Y-283823D01*
X-162689Y-267267D01*
X-190626Y-267267D01*
X-199939Y-275545D01*
X-218564Y-267267D02*
X-218564Y-292100D01*
X-246501Y-316934D01*
X-274439Y-292100D01*
X-274439Y-267267D01*
X-348939Y-283823D02*
X-339626Y-292100D01*
X-311689Y-292100D01*
X-302376Y-283823D01*
X-302376Y-275545D01*
X-311689Y-267267D01*
X-339626Y-267267D01*
X-348939Y-275545D01*
X-348939Y-308656D01*
X-339626Y-316934D01*
X-311689Y-316934D01*
X-376876Y-267267D02*
X-423439Y-267267D01*
X-423439Y-275545D01*
X-376876Y-316934D01*
D86*
X-3124900Y-648880D02*
X-3124900Y-188880D01*
X-2894900Y-188880D01*
X-2894900Y-648880D01*
X-3124900Y-648880D01*
X-2959900Y-418880D02*
X-3059900Y-418880D01*
X-3009900Y-368880D02*
X-3009900Y-468880D01*
D91*
X-3009900Y-563880D02*
X-3009900Y-563880D01*
D90*
X-2990633Y-212599D02*
X-3029166Y-212599D01*
X-3029166Y-248723D01*
X-3022744Y-255948D01*
X-3016322Y-255948D01*
X-3009900Y-248723D01*
X-3009900Y-212599D01*
X-3009900Y-248723D02*
X-3003477Y-255948D01*
X-2990633Y-255948D01*
X-3029166Y-270398D02*
X-3009900Y-270398D01*
X-2990633Y-292072D01*
X-3009900Y-313747D01*
X-3029166Y-313747D01*
X-3016322Y-342646D02*
X-3029166Y-357096D01*
X-2990633Y-357096D01*
X-3016322Y-400445D02*
X-3029166Y-414895D01*
X-2990633Y-414895D01*
X-3016322Y-458244D02*
X-3029166Y-472694D01*
X-2990633Y-472694D01*
D86*
X-3632900Y-643800D02*
X-3632900Y-183800D01*
X-3402900Y-183800D01*
X-3402900Y-643800D01*
X-3632900Y-643800D01*
X-3467900Y-413800D02*
X-3567900Y-413800D01*
X-3517900Y-363800D02*
X-3517900Y-463800D01*
D91*
X-3517900Y-558800D02*
X-3517900Y-558800D01*
D90*
X-3498633Y-207519D02*
X-3537166Y-207519D01*
X-3537166Y-243643D01*
X-3530744Y-250868D01*
X-3524322Y-250868D01*
X-3517900Y-243643D01*
X-3517900Y-207519D01*
X-3517900Y-243643D02*
X-3511477Y-250868D01*
X-3498633Y-250868D01*
X-3537166Y-265318D02*
X-3517900Y-265318D01*
X-3498633Y-286992D01*
X-3517900Y-308667D01*
X-3537166Y-308667D01*
X-3524322Y-337566D02*
X-3537166Y-352016D01*
X-3498633Y-352016D01*
X-3524322Y-395365D02*
X-3537166Y-409815D01*
X-3498633Y-409815D01*
X-3530744Y-445939D02*
X-3537166Y-453164D01*
X-3537166Y-474839D01*
X-3530744Y-482064D01*
X-3524322Y-482064D01*
X-3517900Y-474839D01*
X-3517900Y-453164D01*
X-3511477Y-445939D01*
X-3498633Y-445939D01*
X-3498633Y-482064D01*
D86*
X-2345500Y-394400D02*
X-2815500Y-394400D01*
X-2815500Y-164400D01*
X-2345500Y-164400D01*
X-2345500Y-394400D01*
X-2580500Y-229400D02*
X-2580500Y-329400D01*
X-2630500Y-279400D02*
X-2530500Y-279400D01*
D91*
X-2430500Y-279400D02*
X-2430500Y-279400D01*
D129*
X-2537986Y-292645D02*
X-2530536Y-299267D01*
X-2508186Y-299267D01*
X-2493287Y-286023D01*
X-2493287Y-272778D01*
X-2508186Y-259534D01*
X-2530536Y-259534D01*
X-2537986Y-266156D01*
X-2552886Y-259534D02*
X-2552886Y-279400D01*
X-2575235Y-299267D01*
X-2597585Y-279400D01*
X-2597585Y-259534D01*
X-2627384Y-272778D02*
X-2642284Y-259534D01*
X-2642284Y-299267D01*
X-2672084Y-292645D02*
X-2672084Y-266156D01*
X-2679533Y-259534D01*
X-2709333Y-259534D01*
X-2716783Y-266156D01*
X-2716783Y-292645D01*
X-2709333Y-299267D01*
X-2679533Y-299267D01*
X-2672084Y-292645D01*
X-2672084Y-299267D02*
X-2716783Y-259534D01*
X-2746582Y-279400D02*
X-2739132Y-272778D01*
X-2739132Y-266156D01*
X-2746582Y-259534D01*
X-2768932Y-259534D01*
X-2776382Y-266156D01*
X-2776382Y-272778D01*
X-2768932Y-279400D01*
X-2746582Y-279400D01*
X-2739132Y-286023D01*
X-2739132Y-292645D01*
X-2746582Y-299267D01*
X-2768932Y-299267D01*
X-2776382Y-292645D01*
X-2776382Y-286023D01*
X-2768932Y-279400D01*
D86*
X-3148900Y-178880D02*
X-3148900Y-648880D01*
X-3378900Y-648880D01*
X-3378900Y-178880D01*
X-3148900Y-178880D01*
X-3313900Y-413880D02*
X-3213900Y-413880D01*
X-3263900Y-463880D02*
X-3263900Y-363880D01*
D91*
X-3263900Y-263880D02*
X-3263900Y-263880D01*
D129*
X-3250655Y-371366D02*
X-3244033Y-363916D01*
X-3244033Y-341566D01*
X-3257277Y-326667D01*
X-3270522Y-326667D01*
X-3283766Y-341566D01*
X-3283766Y-363916D01*
X-3277144Y-371366D01*
X-3283766Y-386266D02*
X-3263900Y-386266D01*
X-3244033Y-408615D01*
X-3263900Y-430965D01*
X-3283766Y-430965D01*
X-3270522Y-460764D02*
X-3283766Y-475664D01*
X-3244033Y-475664D01*
X-3250655Y-505464D02*
X-3277144Y-505464D01*
X-3283766Y-512913D01*
X-3283766Y-542713D01*
X-3277144Y-550163D01*
X-3250655Y-550163D01*
X-3244033Y-542713D01*
X-3244033Y-512913D01*
X-3250655Y-505464D01*
X-3244033Y-505464D02*
X-3283766Y-550163D01*
X-3277144Y-572512D02*
X-3283766Y-579962D01*
X-3283766Y-602312D01*
X-3277144Y-609762D01*
X-3270522Y-609762D01*
X-3263900Y-602312D01*
X-3257277Y-609762D01*
X-3250655Y-609762D01*
X-3244033Y-602312D01*
X-3244033Y-579962D01*
X-3250655Y-572512D01*
X-3263900Y-587412D02*
X-3263900Y-602312D01*
D86*
X-2772500Y-1517080D02*
X-3242500Y-1517080D01*
X-3242500Y-1287080D01*
X-2772500Y-1287080D01*
X-2772500Y-1517080D01*
X-3007500Y-1352080D02*
X-3007500Y-1452080D01*
X-3057500Y-1402080D02*
X-2957500Y-1402080D01*
D91*
X-2857500Y-1402080D02*
X-2857500Y-1402080D01*
D129*
X-2964986Y-1415325D02*
X-2957536Y-1421947D01*
X-2935186Y-1421947D01*
X-2920287Y-1408703D01*
X-2920287Y-1395458D01*
X-2935186Y-1382214D01*
X-2957536Y-1382214D01*
X-2964986Y-1388836D01*
X-2979886Y-1382214D02*
X-2979886Y-1402080D01*
X-3002235Y-1421947D01*
X-3024585Y-1402080D01*
X-3024585Y-1382214D01*
X-3054384Y-1395458D02*
X-3069284Y-1382214D01*
X-3069284Y-1421947D01*
X-3099084Y-1415325D02*
X-3099084Y-1388836D01*
X-3106533Y-1382214D01*
X-3136333Y-1382214D01*
X-3143783Y-1388836D01*
X-3143783Y-1415325D01*
X-3136333Y-1421947D01*
X-3106533Y-1421947D01*
X-3099084Y-1415325D01*
X-3099084Y-1421947D02*
X-3143783Y-1382214D01*
X-3173582Y-1395458D02*
X-3188482Y-1382214D01*
X-3188482Y-1421947D01*
D86*
X+1873600Y-2266380D02*
X+1413600Y-2266380D01*
X+1413600Y-2036380D01*
X+1873600Y-2036380D01*
X+1873600Y-2266380D01*
X+1643600Y-2101380D02*
X+1643600Y-2201380D01*
X+1593600Y-2151380D02*
X+1693600Y-2151380D01*
D91*
X+1788600Y-2151380D02*
X+1788600Y-2151380D01*
D111*
X+1726316Y-2175464D02*
X+1726316Y-2127297D01*
X+1681160Y-2127297D01*
X+1672129Y-2135325D01*
X+1672129Y-2143353D01*
X+1681160Y-2151380D01*
X+1726316Y-2151380D01*
X+1681160Y-2151380D02*
X+1672129Y-2159408D01*
X+1672129Y-2175464D01*
X+1654066Y-2127297D02*
X+1654066Y-2151380D01*
X+1626973Y-2175464D01*
X+1599879Y-2151380D01*
X+1599879Y-2127297D01*
X+1563754Y-2151380D02*
X+1572785Y-2143353D01*
X+1572785Y-2135325D01*
X+1563754Y-2127297D01*
X+1536660Y-2127297D01*
X+1527629Y-2135325D01*
X+1527629Y-2143353D01*
X+1536660Y-2151380D01*
X+1563754Y-2151380D01*
X+1572785Y-2159408D01*
X+1572785Y-2167436D01*
X+1563754Y-2175464D01*
X+1536660Y-2175464D01*
X+1527629Y-2167436D01*
X+1527629Y-2159408D01*
X+1536660Y-2151380D01*
X+1455379Y-2127297D02*
X+1500535Y-2127297D01*
X+1500535Y-2143353D01*
X+1464410Y-2143353D01*
X+1455379Y-2151380D01*
X+1455379Y-2167436D01*
X+1464410Y-2175464D01*
X+1491504Y-2175464D01*
X+1500535Y-2167436D01*
D86*
X+1873600Y-1758380D02*
X+1413600Y-1758380D01*
X+1413600Y-1528380D01*
X+1873600Y-1528380D01*
X+1873600Y-1758380D01*
X+1643600Y-1593380D02*
X+1643600Y-1693380D01*
X+1593600Y-1643380D02*
X+1693600Y-1643380D01*
D91*
X+1788600Y-1643380D02*
X+1788600Y-1643380D01*
D111*
X+1726316Y-1667464D02*
X+1726316Y-1619297D01*
X+1681160Y-1619297D01*
X+1672129Y-1627325D01*
X+1672129Y-1635353D01*
X+1681160Y-1643380D01*
X+1726316Y-1643380D01*
X+1681160Y-1643380D02*
X+1672129Y-1651408D01*
X+1672129Y-1667464D01*
X+1654066Y-1619297D02*
X+1654066Y-1643380D01*
X+1626973Y-1667464D01*
X+1599879Y-1643380D01*
X+1599879Y-1619297D01*
X+1563754Y-1643380D02*
X+1572785Y-1635353D01*
X+1572785Y-1627325D01*
X+1563754Y-1619297D01*
X+1536660Y-1619297D01*
X+1527629Y-1627325D01*
X+1527629Y-1635353D01*
X+1536660Y-1643380D01*
X+1563754Y-1643380D01*
X+1572785Y-1651408D01*
X+1572785Y-1659436D01*
X+1563754Y-1667464D01*
X+1536660Y-1667464D01*
X+1527629Y-1659436D01*
X+1527629Y-1651408D01*
X+1536660Y-1643380D01*
X+1455379Y-1627325D02*
X+1464410Y-1619297D01*
X+1491504Y-1619297D01*
X+1500535Y-1627325D01*
X+1500535Y-1659436D01*
X+1491504Y-1667464D01*
X+1464410Y-1667464D01*
X+1455379Y-1659436D01*
X+1455379Y-1651408D01*
X+1464410Y-1643380D01*
X+1500535Y-1643380D01*
D86*
X+2445100Y-2266380D02*
X+1985100Y-2266380D01*
X+1985100Y-2036380D01*
X+2445100Y-2036380D01*
X+2445100Y-2266380D01*
X+2215100Y-2101380D02*
X+2215100Y-2201380D01*
X+2165100Y-2151380D02*
X+2265100Y-2151380D01*
D91*
X+2360100Y-2151380D02*
X+2360100Y-2151380D01*
D111*
X+2297816Y-2175464D02*
X+2297816Y-2127297D01*
X+2252660Y-2127297D01*
X+2243629Y-2135325D01*
X+2243629Y-2143353D01*
X+2252660Y-2151380D01*
X+2297816Y-2151380D01*
X+2252660Y-2151380D02*
X+2243629Y-2159408D01*
X+2243629Y-2175464D01*
X+2225566Y-2127297D02*
X+2225566Y-2151380D01*
X+2198473Y-2175464D01*
X+2171379Y-2151380D01*
X+2171379Y-2127297D01*
X+2135254Y-2151380D02*
X+2144285Y-2143353D01*
X+2144285Y-2135325D01*
X+2135254Y-2127297D01*
X+2108160Y-2127297D01*
X+2099129Y-2135325D01*
X+2099129Y-2143353D01*
X+2108160Y-2151380D01*
X+2135254Y-2151380D01*
X+2144285Y-2159408D01*
X+2144285Y-2167436D01*
X+2135254Y-2175464D01*
X+2108160Y-2175464D01*
X+2099129Y-2167436D01*
X+2099129Y-2159408D01*
X+2108160Y-2151380D01*
X+2026879Y-2143353D02*
X+2035910Y-2151380D01*
X+2063004Y-2151380D01*
X+2072035Y-2143353D01*
X+2072035Y-2135325D01*
X+2063004Y-2127297D01*
X+2035910Y-2127297D01*
X+2026879Y-2135325D01*
X+2026879Y-2167436D01*
X+2035910Y-2175464D01*
X+2063004Y-2175464D01*
D86*
X+2455100Y-2012380D02*
X+1985100Y-2012380D01*
X+1985100Y-1782380D01*
X+2455100Y-1782380D01*
X+2455100Y-2012380D01*
X+2220100Y-1847380D02*
X+2220100Y-1947380D01*
X+2170100Y-1897380D02*
X+2270100Y-1897380D01*
D91*
X+2370100Y-1897380D02*
X+2370100Y-1897380D01*
D112*
X+2251441Y-1913936D02*
X+2260754Y-1922214D01*
X+2288691Y-1922214D01*
X+2307316Y-1905658D01*
X+2307316Y-1889103D01*
X+2288691Y-1872547D01*
X+2260754Y-1872547D01*
X+2251441Y-1880825D01*
X+2232816Y-1872547D02*
X+2232816Y-1897380D01*
X+2204879Y-1922214D01*
X+2176941Y-1897380D01*
X+2176941Y-1872547D01*
X+2149004Y-1872547D02*
X+2102441Y-1872547D01*
X+2102441Y-1880825D01*
X+2149004Y-1922214D01*
X+2065191Y-1897380D02*
X+2074504Y-1889103D01*
X+2074504Y-1880825D01*
X+2065191Y-1872547D01*
X+2037254Y-1872547D01*
X+2027941Y-1880825D01*
X+2027941Y-1889103D01*
X+2037254Y-1897380D01*
X+2065191Y-1897380D01*
X+2074504Y-1905658D01*
X+2074504Y-1913936D01*
X+2065191Y-1922214D01*
X+2037254Y-1922214D01*
X+2027941Y-1913936D01*
X+2027941Y-1905658D01*
X+2037254Y-1897380D01*
D86*
X+1883600Y-2012380D02*
X+1413600Y-2012380D01*
X+1413600Y-1782380D01*
X+1883600Y-1782380D01*
X+1883600Y-2012380D01*
X+1648600Y-1847380D02*
X+1648600Y-1947380D01*
X+1598600Y-1897380D02*
X+1698600Y-1897380D01*
D91*
X+1798600Y-1897380D02*
X+1798600Y-1897380D01*
D112*
X+1679941Y-1913936D02*
X+1689254Y-1922214D01*
X+1717191Y-1922214D01*
X+1735816Y-1905658D01*
X+1735816Y-1889103D01*
X+1717191Y-1872547D01*
X+1689254Y-1872547D01*
X+1679941Y-1880825D01*
X+1661316Y-1872547D02*
X+1661316Y-1897380D01*
X+1633379Y-1922214D01*
X+1605441Y-1897380D01*
X+1605441Y-1872547D01*
X+1568191Y-1897380D02*
X+1577504Y-1889103D01*
X+1577504Y-1880825D01*
X+1568191Y-1872547D01*
X+1540254Y-1872547D01*
X+1530941Y-1880825D01*
X+1530941Y-1889103D01*
X+1540254Y-1897380D01*
X+1568191Y-1897380D01*
X+1577504Y-1905658D01*
X+1577504Y-1913936D01*
X+1568191Y-1922214D01*
X+1540254Y-1922214D01*
X+1530941Y-1913936D01*
X+1530941Y-1905658D01*
X+1540254Y-1897380D01*
X+1512316Y-1913936D02*
X+1512316Y-1880825D01*
X+1503004Y-1872547D01*
X+1465754Y-1872547D01*
X+1456441Y-1880825D01*
X+1456441Y-1913936D01*
X+1465754Y-1922214D01*
X+1503004Y-1922214D01*
X+1512316Y-1913936D01*
X+1512316Y-1922214D02*
X+1456441Y-1872547D01*
D86*
X+2455100Y-1758380D02*
X+1985100Y-1758380D01*
X+1985100Y-1528380D01*
X+2455100Y-1528380D01*
X+2455100Y-1758380D01*
X+2220100Y-1593380D02*
X+2220100Y-1693380D01*
X+2170100Y-1643380D02*
X+2270100Y-1643380D01*
D91*
X+2370100Y-1643380D02*
X+2370100Y-1643380D01*
D112*
X+2251441Y-1659936D02*
X+2260754Y-1668214D01*
X+2288691Y-1668214D01*
X+2307316Y-1651658D01*
X+2307316Y-1635103D01*
X+2288691Y-1618547D01*
X+2260754Y-1618547D01*
X+2251441Y-1626825D01*
X+2232816Y-1618547D02*
X+2232816Y-1643380D01*
X+2204879Y-1668214D01*
X+2176941Y-1643380D01*
X+2176941Y-1618547D01*
X+2139691Y-1643380D02*
X+2149004Y-1635103D01*
X+2149004Y-1626825D01*
X+2139691Y-1618547D01*
X+2111754Y-1618547D01*
X+2102441Y-1626825D01*
X+2102441Y-1635103D01*
X+2111754Y-1643380D01*
X+2139691Y-1643380D01*
X+2149004Y-1651658D01*
X+2149004Y-1659936D01*
X+2139691Y-1668214D01*
X+2111754Y-1668214D01*
X+2102441Y-1659936D01*
X+2102441Y-1651658D01*
X+2111754Y-1643380D01*
X+2074504Y-1626825D02*
X+2065191Y-1618547D01*
X+2037254Y-1618547D01*
X+2027941Y-1626825D01*
X+2027941Y-1635103D01*
X+2037254Y-1643380D01*
X+2065191Y-1643380D01*
X+2074504Y-1651658D01*
X+2074504Y-1668214D01*
X+2027941Y-1668214D01*
D86*
X+694600Y-2520380D02*
X+224600Y-2520380D01*
X+224600Y-2290380D01*
X+694600Y-2290380D01*
X+694600Y-2520380D01*
X+459600Y-2355380D02*
X+459600Y-2455380D01*
X+409600Y-2405380D02*
X+509600Y-2405380D01*
D91*
X+609600Y-2405380D02*
X+609600Y-2405380D01*
D112*
X+490941Y-2421936D02*
X+500254Y-2430214D01*
X+528191Y-2430214D01*
X+546816Y-2413658D01*
X+546816Y-2397103D01*
X+528191Y-2380547D01*
X+500254Y-2380547D01*
X+490941Y-2388825D01*
X+472316Y-2380547D02*
X+472316Y-2405380D01*
X+444379Y-2430214D01*
X+416441Y-2405380D01*
X+416441Y-2380547D01*
X+341941Y-2397103D02*
X+351254Y-2405380D01*
X+379191Y-2405380D01*
X+388504Y-2397103D01*
X+388504Y-2388825D01*
X+379191Y-2380547D01*
X+351254Y-2380547D01*
X+341941Y-2388825D01*
X+341941Y-2421936D01*
X+351254Y-2430214D01*
X+379191Y-2430214D01*
X+267441Y-2380547D02*
X+314004Y-2380547D01*
X+314004Y-2397103D01*
X+276754Y-2397103D01*
X+267441Y-2405380D01*
X+267441Y-2421936D01*
X+276754Y-2430214D01*
X+304691Y-2430214D01*
X+314004Y-2421936D01*
D86*
X+978600Y-2157380D02*
X+978600Y-2617380D01*
X+748600Y-2617380D01*
X+748600Y-2157380D01*
X+978600Y-2157380D01*
X+813600Y-2387380D02*
X+913600Y-2387380D01*
X+863600Y-2437380D02*
X+863600Y-2337380D01*
D91*
X+863600Y-2242380D02*
X+863600Y-2242380D01*
D90*
X+882867Y-2304667D02*
X+844334Y-2304667D01*
X+844334Y-2340791D01*
X+850756Y-2348016D01*
X+857178Y-2348016D01*
X+863600Y-2340791D01*
X+863600Y-2304667D01*
X+863600Y-2340791D02*
X+870023Y-2348016D01*
X+882867Y-2348016D01*
X+844334Y-2362466D02*
X+863600Y-2362466D01*
X+882867Y-2384140D01*
X+863600Y-2405815D01*
X+844334Y-2405815D01*
X+857178Y-2434714D02*
X+844334Y-2449164D01*
X+882867Y-2449164D01*
X+876445Y-2478064D02*
X+850756Y-2478064D01*
X+844334Y-2485288D01*
X+844334Y-2514188D01*
X+850756Y-2521413D01*
X+876445Y-2521413D01*
X+882867Y-2514188D01*
X+882867Y-2485288D01*
X+876445Y-2478064D01*
X+882867Y-2478064D02*
X+844334Y-2521413D01*
X+870023Y-2579212D02*
X+870023Y-2535863D01*
X+844334Y-2564762D01*
X+882867Y-2564762D01*
D86*
X+694600Y-2774380D02*
X+234600Y-2774380D01*
X+234600Y-2544380D01*
X+694600Y-2544380D01*
X+694600Y-2774380D01*
X+464600Y-2609380D02*
X+464600Y-2709380D01*
X+414600Y-2659380D02*
X+514600Y-2659380D01*
D91*
X+609600Y-2659380D02*
X+609600Y-2659380D01*
D90*
X+547313Y-2678647D02*
X+547313Y-2640114D01*
X+511189Y-2640114D01*
X+503964Y-2646536D01*
X+503964Y-2652958D01*
X+511189Y-2659380D01*
X+547313Y-2659380D01*
X+511189Y-2659380D02*
X+503964Y-2665803D01*
X+503964Y-2678647D01*
X+489514Y-2640114D02*
X+489514Y-2659380D01*
X+467840Y-2678647D01*
X+446165Y-2659380D01*
X+446165Y-2640114D01*
X+417266Y-2652958D02*
X+402816Y-2640114D01*
X+402816Y-2678647D01*
X+373916Y-2672225D02*
X+373916Y-2646536D01*
X+366692Y-2640114D01*
X+337792Y-2640114D01*
X+330567Y-2646536D01*
X+330567Y-2672225D01*
X+337792Y-2678647D01*
X+366692Y-2678647D01*
X+373916Y-2672225D01*
X+373916Y-2678647D02*
X+330567Y-2640114D01*
X+308893Y-2640114D02*
X+272768Y-2640114D01*
X+272768Y-2646536D01*
X+308893Y-2678647D01*
D86*
X+978600Y-97880D02*
X+978600Y-557880D01*
X+748600Y-557880D01*
X+748600Y-97880D01*
X+978600Y-97880D01*
X+813600Y-327880D02*
X+913600Y-327880D01*
X+863600Y-377880D02*
X+863600Y-277880D01*
D91*
X+863600Y-182880D02*
X+863600Y-182880D01*
D90*
X+882867Y-245167D02*
X+844334Y-245167D01*
X+844334Y-281291D01*
X+850756Y-288516D01*
X+857178Y-288516D01*
X+863600Y-281291D01*
X+863600Y-245167D01*
X+863600Y-281291D02*
X+870023Y-288516D01*
X+882867Y-288516D01*
X+844334Y-302966D02*
X+863600Y-302966D01*
X+882867Y-324640D01*
X+863600Y-346315D01*
X+844334Y-346315D01*
X+857178Y-375214D02*
X+844334Y-389664D01*
X+882867Y-389664D01*
X+876445Y-418564D02*
X+850756Y-418564D01*
X+844334Y-425788D01*
X+844334Y-454688D01*
X+850756Y-461913D01*
X+876445Y-461913D01*
X+882867Y-454688D01*
X+882867Y-425788D01*
X+876445Y-418564D01*
X+882867Y-418564D02*
X+844334Y-461913D01*
X+844334Y-519712D02*
X+844334Y-483587D01*
X+857178Y-483587D01*
X+857178Y-512487D01*
X+863600Y-519712D01*
X+876445Y-519712D01*
X+882867Y-512487D01*
X+882867Y-490812D01*
X+876445Y-483587D01*
D86*
X+270600Y-67880D02*
X+730600Y-67880D01*
X+730600Y-297880D01*
X+270600Y-297880D01*
X+270600Y-67880D01*
X+500600Y-232880D02*
X+500600Y-132880D01*
X+550600Y-182880D02*
X+450600Y-182880D01*
D91*
X+355600Y-182880D02*
X+355600Y-182880D01*
D90*
X+706881Y-202147D02*
X+706881Y-163614D01*
X+670757Y-163614D01*
X+663532Y-170036D01*
X+663532Y-176458D01*
X+670757Y-182880D01*
X+706881Y-182880D01*
X+670757Y-182880D02*
X+663532Y-189303D01*
X+663532Y-202147D01*
X+649082Y-163614D02*
X+649082Y-182880D01*
X+627408Y-202147D01*
X+605733Y-182880D01*
X+605733Y-163614D01*
X+576834Y-176458D02*
X+562384Y-163614D01*
X+562384Y-202147D01*
X+533484Y-195725D02*
X+533484Y-170036D01*
X+526260Y-163614D01*
X+497360Y-163614D01*
X+490135Y-170036D01*
X+490135Y-195725D01*
X+497360Y-202147D01*
X+526260Y-202147D01*
X+533484Y-195725D01*
X+533484Y-202147D02*
X+490135Y-163614D01*
X+432336Y-170036D02*
X+439561Y-163614D01*
X+461236Y-163614D01*
X+468461Y-170036D01*
X+468461Y-195725D01*
X+461236Y-202147D01*
X+439561Y-202147D01*
X+432336Y-195725D01*
X+432336Y-189303D01*
X+439561Y-182880D01*
X+468461Y-182880D01*
D86*
X+95600Y-2266380D02*
X-364400Y-2266380D01*
X-364400Y-2036380D01*
X+95600Y-2036380D01*
X+95600Y-2266380D01*
X-134400Y-2101380D02*
X-134400Y-2201380D01*
X-184400Y-2151380D02*
X-84400Y-2151380D01*
D91*
X+10600Y-2151380D02*
X+10600Y-2151380D01*
D90*
X-51687Y-2170647D02*
X-51687Y-2132114D01*
X-87811Y-2132114D01*
X-95036Y-2138536D01*
X-95036Y-2144958D01*
X-87811Y-2151380D01*
X-51687Y-2151380D01*
X-87811Y-2151380D02*
X-95036Y-2157803D01*
X-95036Y-2170647D01*
X-109486Y-2132114D02*
X-109486Y-2151380D01*
X-131160Y-2170647D01*
X-152835Y-2151380D01*
X-152835Y-2132114D01*
X-181734Y-2144958D02*
X-196184Y-2132114D01*
X-196184Y-2170647D01*
X-225084Y-2164225D02*
X-225084Y-2138536D01*
X-232308Y-2132114D01*
X-261208Y-2132114D01*
X-268433Y-2138536D01*
X-268433Y-2164225D01*
X-261208Y-2170647D01*
X-232308Y-2170647D01*
X-225084Y-2164225D01*
X-225084Y-2170647D02*
X-268433Y-2132114D01*
X-297332Y-2144958D02*
X-311782Y-2132114D01*
X-311782Y-2170647D01*
D86*
X-539400Y-2266380D02*
X-999400Y-2266380D01*
X-999400Y-2036380D01*
X-539400Y-2036380D01*
X-539400Y-2266380D01*
X-769400Y-2101380D02*
X-769400Y-2201380D01*
X-819400Y-2151380D02*
X-719400Y-2151380D01*
D91*
X-624400Y-2151380D02*
X-624400Y-2151380D01*
D111*
X-686684Y-2175464D02*
X-686684Y-2127297D01*
X-731840Y-2127297D01*
X-740871Y-2135325D01*
X-740871Y-2143353D01*
X-731840Y-2151380D01*
X-686684Y-2151380D01*
X-731840Y-2151380D02*
X-740871Y-2159408D01*
X-740871Y-2175464D01*
X-758934Y-2127297D02*
X-758934Y-2151380D01*
X-786027Y-2175464D01*
X-813121Y-2151380D01*
X-813121Y-2127297D01*
X-885371Y-2143353D02*
X-876340Y-2151380D01*
X-849246Y-2151380D01*
X-840215Y-2143353D01*
X-840215Y-2135325D01*
X-849246Y-2127297D01*
X-876340Y-2127297D01*
X-885371Y-2135325D01*
X-885371Y-2167436D01*
X-876340Y-2175464D01*
X-849246Y-2175464D01*
X-912465Y-2127297D02*
X-957621Y-2127297D01*
X-957621Y-2135325D01*
X-912465Y-2175464D01*
D86*
X-539400Y-1758380D02*
X-999400Y-1758380D01*
X-999400Y-1528380D01*
X-539400Y-1528380D01*
X-539400Y-1758380D01*
X-769400Y-1593380D02*
X-769400Y-1693380D01*
X-819400Y-1643380D02*
X-719400Y-1643380D01*
D91*
X-624400Y-1643380D02*
X-624400Y-1643380D01*
D111*
X-686684Y-1667464D02*
X-686684Y-1619297D01*
X-731840Y-1619297D01*
X-740871Y-1627325D01*
X-740871Y-1635353D01*
X-731840Y-1643380D01*
X-686684Y-1643380D01*
X-731840Y-1643380D02*
X-740871Y-1651408D01*
X-740871Y-1667464D01*
X-758934Y-1619297D02*
X-758934Y-1643380D01*
X-786027Y-1667464D01*
X-813121Y-1643380D01*
X-813121Y-1619297D01*
X-885371Y-1635353D02*
X-876340Y-1643380D01*
X-849246Y-1643380D01*
X-840215Y-1635353D01*
X-840215Y-1627325D01*
X-849246Y-1619297D01*
X-876340Y-1619297D01*
X-885371Y-1627325D01*
X-885371Y-1659436D01*
X-876340Y-1667464D01*
X-849246Y-1667464D01*
X-921496Y-1643380D02*
X-912465Y-1635353D01*
X-912465Y-1627325D01*
X-921496Y-1619297D01*
X-948590Y-1619297D01*
X-957621Y-1627325D01*
X-957621Y-1635353D01*
X-948590Y-1643380D01*
X-921496Y-1643380D01*
X-912465Y-1651408D01*
X-912465Y-1659436D01*
X-921496Y-1667464D01*
X-948590Y-1667464D01*
X-957621Y-1659436D01*
X-957621Y-1651408D01*
X-948590Y-1643380D01*
D86*
X+105600Y-2012380D02*
X-364400Y-2012380D01*
X-364400Y-1782380D01*
X+105600Y-1782380D01*
X+105600Y-2012380D01*
X-129400Y-1847380D02*
X-129400Y-1947380D01*
X-179400Y-1897380D02*
X-79400Y-1897380D01*
D91*
X+20600Y-1897380D02*
X+20600Y-1897380D01*
D112*
X-98059Y-1913936D02*
X-88746Y-1922214D01*
X-60809Y-1922214D01*
X-42184Y-1905658D01*
X-42184Y-1889103D01*
X-60809Y-1872547D01*
X-88746Y-1872547D01*
X-98059Y-1880825D01*
X-116684Y-1872547D02*
X-116684Y-1897380D01*
X-144621Y-1922214D01*
X-172559Y-1897380D01*
X-172559Y-1872547D01*
X-209809Y-1897380D02*
X-200496Y-1889103D01*
X-200496Y-1880825D01*
X-209809Y-1872547D01*
X-237746Y-1872547D01*
X-247059Y-1880825D01*
X-247059Y-1889103D01*
X-237746Y-1897380D01*
X-209809Y-1897380D01*
X-200496Y-1905658D01*
X-200496Y-1913936D01*
X-209809Y-1922214D01*
X-237746Y-1922214D01*
X-247059Y-1913936D01*
X-247059Y-1905658D01*
X-237746Y-1897380D01*
X-321559Y-1889103D02*
X-312246Y-1897380D01*
X-284309Y-1897380D01*
X-274996Y-1889103D01*
X-274996Y-1880825D01*
X-284309Y-1872547D01*
X-312246Y-1872547D01*
X-321559Y-1880825D01*
X-321559Y-1913936D01*
X-312246Y-1922214D01*
X-284309Y-1922214D01*
D86*
X-529400Y-2012380D02*
X-999400Y-2012380D01*
X-999400Y-1782380D01*
X-529400Y-1782380D01*
X-529400Y-2012380D01*
X-764400Y-1847380D02*
X-764400Y-1947380D01*
X-814400Y-1897380D02*
X-714400Y-1897380D01*
D91*
X-614400Y-1897380D02*
X-614400Y-1897380D01*
D112*
X-733059Y-1913936D02*
X-723746Y-1922214D01*
X-695809Y-1922214D01*
X-677184Y-1905658D01*
X-677184Y-1889103D01*
X-695809Y-1872547D01*
X-723746Y-1872547D01*
X-733059Y-1880825D01*
X-751684Y-1872547D02*
X-751684Y-1897380D01*
X-779621Y-1922214D01*
X-807559Y-1897380D01*
X-807559Y-1872547D01*
X-882059Y-1889103D02*
X-872746Y-1897380D01*
X-844809Y-1897380D01*
X-835496Y-1889103D01*
X-835496Y-1880825D01*
X-844809Y-1872547D01*
X-872746Y-1872547D01*
X-882059Y-1880825D01*
X-882059Y-1913936D01*
X-872746Y-1922214D01*
X-844809Y-1922214D01*
X-919309Y-1889103D02*
X-937934Y-1872547D01*
X-937934Y-1922214D01*
D86*
X+105600Y-1758380D02*
X-364400Y-1758380D01*
X-364400Y-1528380D01*
X+105600Y-1528380D01*
X+105600Y-1758380D01*
X-129400Y-1593380D02*
X-129400Y-1693380D01*
X-179400Y-1643380D02*
X-79400Y-1643380D01*
D91*
X+20600Y-1643380D02*
X+20600Y-1643380D01*
D112*
X-98059Y-1659936D02*
X-88746Y-1668214D01*
X-60809Y-1668214D01*
X-42184Y-1651658D01*
X-42184Y-1635103D01*
X-60809Y-1618547D01*
X-88746Y-1618547D01*
X-98059Y-1626825D01*
X-116684Y-1618547D02*
X-116684Y-1643380D01*
X-144621Y-1668214D01*
X-172559Y-1643380D01*
X-172559Y-1618547D01*
X-247059Y-1635103D02*
X-237746Y-1643380D01*
X-209809Y-1643380D01*
X-200496Y-1635103D01*
X-200496Y-1626825D01*
X-209809Y-1618547D01*
X-237746Y-1618547D01*
X-247059Y-1626825D01*
X-247059Y-1659936D01*
X-237746Y-1668214D01*
X-209809Y-1668214D01*
X-274996Y-1626825D02*
X-284309Y-1618547D01*
X-312246Y-1618547D01*
X-321559Y-1626825D01*
X-321559Y-1635103D01*
X-312246Y-1643380D01*
X-321559Y-1651658D01*
X-321559Y-1659936D01*
X-312246Y-1668214D01*
X-284309Y-1668214D01*
X-274996Y-1659936D01*
X-293621Y-1643380D02*
X-312246Y-1643380D01*
D86*
X-2307400Y-2012380D02*
X-2777400Y-2012380D01*
X-2777400Y-1782380D01*
X-2307400Y-1782380D01*
X-2307400Y-2012380D01*
X-2542400Y-1847380D02*
X-2542400Y-1947380D01*
X-2592400Y-1897380D02*
X-2492400Y-1897380D01*
D91*
X-2392400Y-1897380D02*
X-2392400Y-1897380D01*
D129*
X-2499886Y-1910625D02*
X-2492436Y-1917247D01*
X-2470086Y-1917247D01*
X-2455187Y-1904003D01*
X-2455187Y-1890758D01*
X-2470086Y-1877514D01*
X-2492436Y-1877514D01*
X-2499886Y-1884136D01*
X-2514786Y-1877514D02*
X-2514786Y-1897380D01*
X-2537135Y-1917247D01*
X-2559485Y-1897380D01*
X-2559485Y-1877514D01*
X-2589284Y-1890758D02*
X-2604184Y-1877514D01*
X-2604184Y-1917247D01*
X-2633984Y-1910625D02*
X-2633984Y-1884136D01*
X-2641433Y-1877514D01*
X-2671233Y-1877514D01*
X-2678683Y-1884136D01*
X-2678683Y-1910625D01*
X-2671233Y-1917247D01*
X-2641433Y-1917247D01*
X-2633984Y-1910625D01*
X-2633984Y-1917247D02*
X-2678683Y-1877514D01*
X-2693583Y-1910625D02*
X-2693583Y-1884136D01*
X-2701032Y-1877514D01*
X-2730832Y-1877514D01*
X-2738282Y-1884136D01*
X-2738282Y-1910625D01*
X-2730832Y-1917247D01*
X-2701032Y-1917247D01*
X-2693583Y-1910625D01*
X-2693583Y-1917247D02*
X-2738282Y-1877514D01*
D86*
X-2942400Y-1758380D02*
X-3412400Y-1758380D01*
X-3412400Y-1528380D01*
X-2942400Y-1528380D01*
X-2942400Y-1758380D01*
X-3177400Y-1593380D02*
X-3177400Y-1693380D01*
X-3227400Y-1643380D02*
X-3127400Y-1643380D01*
D91*
X-3027400Y-1643380D02*
X-3027400Y-1643380D01*
D129*
X-3134886Y-1656625D02*
X-3127436Y-1663247D01*
X-3105086Y-1663247D01*
X-3090187Y-1650003D01*
X-3090187Y-1636758D01*
X-3105086Y-1623514D01*
X-3127436Y-1623514D01*
X-3134886Y-1630136D01*
X-3149786Y-1623514D02*
X-3149786Y-1643380D01*
X-3172135Y-1663247D01*
X-3194485Y-1643380D01*
X-3194485Y-1623514D01*
X-3224284Y-1636758D02*
X-3239184Y-1623514D01*
X-3239184Y-1663247D01*
X-3268984Y-1656625D02*
X-3268984Y-1630136D01*
X-3276433Y-1623514D01*
X-3306233Y-1623514D01*
X-3313683Y-1630136D01*
X-3313683Y-1656625D01*
X-3306233Y-1663247D01*
X-3276433Y-1663247D01*
X-3268984Y-1656625D01*
X-3268984Y-1663247D02*
X-3313683Y-1623514D01*
X-3336032Y-1630136D02*
X-3343482Y-1623514D01*
X-3365832Y-1623514D01*
X-3373282Y-1630136D01*
X-3373282Y-1636758D01*
X-3365832Y-1643380D01*
X-3343482Y-1643380D01*
X-3336032Y-1650003D01*
X-3336032Y-1663247D01*
X-3373282Y-1663247D01*
D86*
X-2307400Y-1758380D02*
X-2777400Y-1758380D01*
X-2777400Y-1528380D01*
X-2307400Y-1528380D01*
X-2307400Y-1758380D01*
X-2542400Y-1593380D02*
X-2542400Y-1693380D01*
X-2592400Y-1643380D02*
X-2492400Y-1643380D01*
D91*
X-2392400Y-1643380D02*
X-2392400Y-1643380D01*
D129*
X-2499886Y-1656625D02*
X-2492436Y-1663247D01*
X-2470086Y-1663247D01*
X-2455187Y-1650003D01*
X-2455187Y-1636758D01*
X-2470086Y-1623514D01*
X-2492436Y-1623514D01*
X-2499886Y-1630136D01*
X-2514786Y-1623514D02*
X-2514786Y-1643380D01*
X-2537135Y-1663247D01*
X-2559485Y-1643380D01*
X-2559485Y-1623514D01*
X-2589284Y-1636758D02*
X-2604184Y-1623514D01*
X-2604184Y-1663247D01*
X-2633984Y-1656625D02*
X-2633984Y-1630136D01*
X-2641433Y-1623514D01*
X-2671233Y-1623514D01*
X-2678683Y-1630136D01*
X-2678683Y-1656625D01*
X-2671233Y-1663247D01*
X-2641433Y-1663247D01*
X-2633984Y-1656625D01*
X-2633984Y-1663247D02*
X-2678683Y-1623514D01*
X-2738282Y-1650003D02*
X-2693583Y-1650003D01*
X-2723382Y-1623514D01*
X-2723382Y-1663247D01*
D86*
X-1718400Y-2520380D02*
X-2188400Y-2520380D01*
X-2188400Y-2290380D01*
X-1718400Y-2290380D01*
X-1718400Y-2520380D01*
X-1953400Y-2355380D02*
X-1953400Y-2455380D01*
X-2003400Y-2405380D02*
X-1903400Y-2405380D01*
D91*
X-1803400Y-2405380D02*
X-1803400Y-2405380D01*
D129*
X-1910886Y-2418625D02*
X-1903436Y-2425247D01*
X-1881086Y-2425247D01*
X-1866187Y-2412003D01*
X-1866187Y-2398758D01*
X-1881086Y-2385514D01*
X-1903436Y-2385514D01*
X-1910886Y-2392136D01*
X-1925786Y-2385514D02*
X-1925786Y-2405380D01*
X-1948135Y-2425247D01*
X-1970485Y-2405380D01*
X-1970485Y-2385514D01*
X-2000284Y-2398758D02*
X-2015184Y-2385514D01*
X-2015184Y-2425247D01*
X-2044984Y-2418625D02*
X-2044984Y-2392136D01*
X-2052433Y-2385514D01*
X-2082233Y-2385514D01*
X-2089683Y-2392136D01*
X-2089683Y-2418625D01*
X-2082233Y-2425247D01*
X-2052433Y-2425247D01*
X-2044984Y-2418625D01*
X-2044984Y-2425247D02*
X-2089683Y-2385514D01*
X-2149282Y-2392136D02*
X-2141832Y-2385514D01*
X-2119482Y-2385514D01*
X-2112032Y-2392136D01*
X-2112032Y-2418625D01*
X-2119482Y-2425247D01*
X-2141832Y-2425247D01*
X-2149282Y-2418625D01*
X-2149282Y-2412003D01*
X-2141832Y-2405380D01*
X-2112032Y-2405380D01*
D86*
X-2952400Y-2266380D02*
X-3412400Y-2266380D01*
X-3412400Y-2036380D01*
X-2952400Y-2036380D01*
X-2952400Y-2266380D01*
X-3182400Y-2101380D02*
X-3182400Y-2201380D01*
X-3232400Y-2151380D02*
X-3132400Y-2151380D01*
D91*
X-3037400Y-2151380D02*
X-3037400Y-2151380D01*
D90*
X-3099687Y-2170647D02*
X-3099687Y-2132114D01*
X-3135811Y-2132114D01*
X-3143036Y-2138536D01*
X-3143036Y-2144958D01*
X-3135811Y-2151380D01*
X-3099687Y-2151380D01*
X-3135811Y-2151380D02*
X-3143036Y-2157803D01*
X-3143036Y-2170647D01*
X-3157486Y-2132114D02*
X-3157486Y-2151380D01*
X-3179160Y-2170647D01*
X-3200835Y-2151380D01*
X-3200835Y-2132114D01*
X-3229734Y-2144958D02*
X-3244184Y-2132114D01*
X-3244184Y-2170647D01*
X-3273084Y-2164225D02*
X-3273084Y-2138536D01*
X-3280308Y-2132114D01*
X-3309208Y-2132114D01*
X-3316433Y-2138536D01*
X-3316433Y-2164225D01*
X-3309208Y-2170647D01*
X-3280308Y-2170647D01*
X-3273084Y-2164225D01*
X-3273084Y-2170647D02*
X-3316433Y-2132114D01*
X-3374232Y-2144958D02*
X-3367007Y-2151380D01*
X-3345332Y-2151380D01*
X-3338107Y-2144958D01*
X-3338107Y-2138536D01*
X-3345332Y-2132114D01*
X-3367007Y-2132114D01*
X-3374232Y-2138536D01*
X-3374232Y-2164225D01*
X-3367007Y-2170647D01*
X-3345332Y-2170647D01*
D86*
X-2952400Y-2012380D02*
X-3412400Y-2012380D01*
X-3412400Y-1782380D01*
X-2952400Y-1782380D01*
X-2952400Y-2012380D01*
X-3182400Y-1847380D02*
X-3182400Y-1947380D01*
X-3232400Y-1897380D02*
X-3132400Y-1897380D01*
D91*
X-3037400Y-1897380D02*
X-3037400Y-1897380D01*
D90*
X-3099687Y-1916647D02*
X-3099687Y-1878114D01*
X-3135811Y-1878114D01*
X-3143036Y-1884536D01*
X-3143036Y-1890958D01*
X-3135811Y-1897380D01*
X-3099687Y-1897380D01*
X-3135811Y-1897380D02*
X-3143036Y-1903803D01*
X-3143036Y-1916647D01*
X-3157486Y-1878114D02*
X-3157486Y-1897380D01*
X-3179160Y-1916647D01*
X-3200835Y-1897380D01*
X-3200835Y-1878114D01*
X-3229734Y-1890958D02*
X-3244184Y-1878114D01*
X-3244184Y-1916647D01*
X-3287533Y-1890958D02*
X-3301983Y-1878114D01*
X-3301983Y-1916647D01*
X-3330883Y-1910225D02*
X-3330883Y-1884536D01*
X-3338107Y-1878114D01*
X-3367007Y-1878114D01*
X-3374232Y-1884536D01*
X-3374232Y-1910225D01*
X-3367007Y-1916647D01*
X-3338107Y-1916647D01*
X-3330883Y-1910225D01*
X-3330883Y-1916647D02*
X-3374232Y-1878114D01*
D86*
X-2317400Y-2266380D02*
X-2777400Y-2266380D01*
X-2777400Y-2036380D01*
X-2317400Y-2036380D01*
X-2317400Y-2266380D01*
X-2547400Y-2101380D02*
X-2547400Y-2201380D01*
X-2597400Y-2151380D02*
X-2497400Y-2151380D01*
D91*
X-2402400Y-2151380D02*
X-2402400Y-2151380D01*
D90*
X-2464687Y-2170647D02*
X-2464687Y-2132114D01*
X-2500811Y-2132114D01*
X-2508036Y-2138536D01*
X-2508036Y-2144958D01*
X-2500811Y-2151380D01*
X-2464687Y-2151380D01*
X-2500811Y-2151380D02*
X-2508036Y-2157803D01*
X-2508036Y-2170647D01*
X-2522486Y-2132114D02*
X-2522486Y-2151380D01*
X-2544160Y-2170647D01*
X-2565835Y-2151380D01*
X-2565835Y-2132114D01*
X-2594734Y-2144958D02*
X-2609184Y-2132114D01*
X-2609184Y-2170647D01*
X-2652533Y-2144958D02*
X-2666983Y-2132114D01*
X-2666983Y-2170647D01*
X-2703107Y-2138536D02*
X-2710332Y-2132114D01*
X-2732007Y-2132114D01*
X-2739232Y-2138536D01*
X-2739232Y-2144958D01*
X-2732007Y-2151380D01*
X-2739232Y-2157803D01*
X-2739232Y-2164225D01*
X-2732007Y-2170647D01*
X-2710332Y-2170647D01*
X-2703107Y-2164225D01*
X-2717557Y-2151380D02*
X-2732007Y-2151380D01*
D86*
X-1434400Y-2193380D02*
X-1434400Y-2653380D01*
X-1664400Y-2653380D01*
X-1664400Y-2193380D01*
X-1434400Y-2193380D01*
X-1599400Y-2423380D02*
X-1499400Y-2423380D01*
X-1549400Y-2473380D02*
X-1549400Y-2373380D01*
D91*
X-1549400Y-2278380D02*
X-1549400Y-2278380D01*
D90*
X-1530133Y-2340667D02*
X-1568666Y-2340667D01*
X-1568666Y-2376791D01*
X-1562244Y-2384016D01*
X-1555822Y-2384016D01*
X-1549400Y-2376791D01*
X-1549400Y-2340667D01*
X-1549400Y-2376791D02*
X-1542977Y-2384016D01*
X-1530133Y-2384016D01*
X-1568666Y-2398466D02*
X-1549400Y-2398466D01*
X-1530133Y-2420140D01*
X-1549400Y-2441815D01*
X-1568666Y-2441815D01*
X-1555822Y-2470714D02*
X-1568666Y-2485164D01*
X-1530133Y-2485164D01*
X-1555822Y-2528513D02*
X-1568666Y-2542963D01*
X-1530133Y-2542963D01*
X-1562244Y-2615212D02*
X-1568666Y-2607987D01*
X-1568666Y-2586312D01*
X-1562244Y-2579087D01*
X-1536555Y-2579087D01*
X-1530133Y-2586312D01*
X-1530133Y-2607987D01*
X-1536555Y-2615212D01*
X-1542977Y-2615212D01*
X-1549400Y-2607987D01*
X-1549400Y-2579087D01*
D86*
X-1434400Y-61880D02*
X-1434400Y-521880D01*
X-1664400Y-521880D01*
X-1664400Y-61880D01*
X-1434400Y-61880D01*
X-1599400Y-291880D02*
X-1499400Y-291880D01*
X-1549400Y-341880D02*
X-1549400Y-241880D01*
D91*
X-1549400Y-146880D02*
X-1549400Y-146880D01*
D90*
X-1530133Y-209167D02*
X-1568666Y-209167D01*
X-1568666Y-245291D01*
X-1562244Y-252516D01*
X-1555822Y-252516D01*
X-1549400Y-245291D01*
X-1549400Y-209167D01*
X-1549400Y-245291D02*
X-1542977Y-252516D01*
X-1530133Y-252516D01*
X-1568666Y-266966D02*
X-1549400Y-266966D01*
X-1530133Y-288640D01*
X-1549400Y-310315D01*
X-1568666Y-310315D01*
X-1555822Y-339214D02*
X-1568666Y-353664D01*
X-1530133Y-353664D01*
X-1555822Y-397013D02*
X-1568666Y-411463D01*
X-1530133Y-411463D01*
X-1568666Y-447587D02*
X-1568666Y-483712D01*
X-1562244Y-483712D01*
X-1530133Y-447587D01*
D86*
X-2142400Y-67880D02*
X-1682400Y-67880D01*
X-1682400Y-297880D01*
X-2142400Y-297880D01*
X-2142400Y-67880D01*
X-1912400Y-232880D02*
X-1912400Y-132880D01*
X-1862400Y-182880D02*
X-1962400Y-182880D01*
D91*
X-2057400Y-182880D02*
X-2057400Y-182880D01*
D90*
X-1706119Y-202147D02*
X-1706119Y-163614D01*
X-1742243Y-163614D01*
X-1749468Y-170036D01*
X-1749468Y-176458D01*
X-1742243Y-182880D01*
X-1706119Y-182880D01*
X-1742243Y-182880D02*
X-1749468Y-189303D01*
X-1749468Y-202147D01*
X-1763918Y-163614D02*
X-1763918Y-182880D01*
X-1785592Y-202147D01*
X-1807267Y-182880D01*
X-1807267Y-163614D01*
X-1836166Y-176458D02*
X-1850616Y-163614D01*
X-1850616Y-202147D01*
X-1893965Y-176458D02*
X-1908415Y-163614D01*
X-1908415Y-202147D01*
X-1951764Y-182880D02*
X-1944539Y-176458D01*
X-1944539Y-170036D01*
X-1951764Y-163614D01*
X-1973439Y-163614D01*
X-1980664Y-170036D01*
X-1980664Y-176458D01*
X-1973439Y-182880D01*
X-1951764Y-182880D01*
X-1944539Y-189303D01*
X-1944539Y-195725D01*
X-1951764Y-202147D01*
X-1973439Y-202147D01*
X-1980664Y-195725D01*
X-1980664Y-189303D01*
X-1973439Y-182880D01*
D86*
X-1718400Y-2774380D02*
X-2178400Y-2774380D01*
X-2178400Y-2544380D01*
X-1718400Y-2544380D01*
X-1718400Y-2774380D01*
X-1948400Y-2609380D02*
X-1948400Y-2709380D01*
X-1998400Y-2659380D02*
X-1898400Y-2659380D01*
D91*
X-1803400Y-2659380D02*
X-1803400Y-2659380D01*
D90*
X-1865687Y-2678647D02*
X-1865687Y-2640114D01*
X-1901811Y-2640114D01*
X-1909036Y-2646536D01*
X-1909036Y-2652958D01*
X-1901811Y-2659380D01*
X-1865687Y-2659380D01*
X-1901811Y-2659380D02*
X-1909036Y-2665803D01*
X-1909036Y-2678647D01*
X-1923486Y-2640114D02*
X-1923486Y-2659380D01*
X-1945160Y-2678647D01*
X-1966835Y-2659380D01*
X-1966835Y-2640114D01*
X-1995734Y-2652958D02*
X-2010184Y-2640114D01*
X-2010184Y-2678647D01*
X-2053533Y-2652958D02*
X-2067983Y-2640114D01*
X-2067983Y-2678647D01*
X-2140232Y-2652958D02*
X-2133007Y-2659380D01*
X-2111332Y-2659380D01*
X-2104107Y-2652958D01*
X-2104107Y-2646536D01*
X-2111332Y-2640114D01*
X-2133007Y-2640114D01*
X-2140232Y-2646536D01*
X-2140232Y-2672225D01*
X-2133007Y-2678647D01*
X-2111332Y-2678647D01*
D40*
X-4603750Y+0D02*
X-3905250Y+0D01*
X-3905250Y+1167130D01*
X-4603750Y+1167130D01*
X-4603750Y+0D01*
D99*
X-4254500Y+817880D02*
X-4254500Y+817880D01*
D114*
X-3971798Y+354796D02*
X-4007135Y+386207D01*
X-4042473Y+386207D01*
X-4077811Y+354796D01*
X-4077811Y+323384D01*
X-4042473Y+291973D01*
X-4007135Y+291973D01*
X-3971798Y+323384D01*
X-3971798Y+354796D01*
X-4042473Y+323384D02*
X-4077811Y+291973D01*
X-4113149Y+386207D02*
X-4113149Y+339090D01*
X-4166155Y+291973D01*
X-4219162Y+339090D01*
X-4219162Y+386207D01*
X-4272168Y+370501D02*
X-4289837Y+386207D01*
X-4342844Y+386207D01*
X-4360513Y+370501D01*
X-4360513Y+354796D01*
X-4342844Y+339090D01*
X-4289837Y+339090D01*
X-4272168Y+323384D01*
X-4272168Y+291973D01*
X-4360513Y+291973D01*
X-4413519Y+370501D02*
X-4431188Y+386207D01*
X-4484195Y+386207D01*
X-4501864Y+370501D01*
X-4501864Y+354796D01*
X-4484195Y+339090D01*
X-4431188Y+339090D01*
X-4413519Y+323384D01*
X-4413519Y+291973D01*
X-4501864Y+291973D01*
D86*
X-5710500Y+725000D02*
X-5710500Y-65000D01*
X-6100500Y-65000D01*
X-6100500Y+725000D01*
X-5710500Y+725000D01*
X-5955500Y+330000D02*
X-5855500Y+330000D01*
X-5905500Y+280000D02*
X-5905500Y+380000D01*
D97*
X-5905500Y+635000D02*
X-5905500Y+635000D01*
D128*
X-5867929Y+537522D02*
X-5943070Y+537522D01*
X-5943070Y+467079D01*
X-5930546Y+452990D01*
X-5918023Y+452990D01*
X-5905500Y+467079D01*
X-5905500Y+537522D01*
X-5905500Y+467079D02*
X-5892976Y+452990D01*
X-5867929Y+452990D01*
X-5943070Y+424812D02*
X-5905500Y+424812D01*
X-5867929Y+382546D01*
X-5905500Y+340280D01*
X-5943070Y+340280D01*
X-5918023Y+283925D02*
X-5943070Y+255747D01*
X-5867929Y+255747D01*
X-5930546Y+185304D02*
X-5943070Y+171215D01*
X-5943070Y+128949D01*
X-5930546Y+114860D01*
X-5918023Y+114860D01*
X-5905500Y+128949D01*
X-5892976Y+114860D01*
X-5880453Y+114860D01*
X-5867929Y+128949D01*
X-5867929Y+171215D01*
X-5880453Y+185304D01*
X-5905500Y+157126D02*
X-5905500Y+128949D01*
X-5930546Y+72594D02*
X-5943070Y+58505D01*
X-5943070Y+16239D01*
X-5930546Y+2150D01*
X-5918023Y+2150D01*
X-5905500Y+16239D01*
X-5905500Y+58505D01*
X-5892976Y+72594D01*
X-5867929Y+72594D01*
X-5867929Y+2150D01*
D86*
X-5137400Y-1214300D02*
X-5757400Y-1214300D01*
X-5757400Y-854300D01*
X-5137400Y-854300D01*
X-5137400Y-1214300D01*
X-5447400Y-984300D02*
X-5447400Y-1084300D01*
X-5497400Y-1034300D02*
X-5397400Y-1034300D01*
D109*
X-5232400Y-936800D02*
X-5232400Y-936800D01*
D127*
X-5284208Y-997548D02*
X-5284208Y-1058802D01*
X-5297990Y-1071053D01*
X-5353118Y-1071053D01*
X-5366900Y-1058802D01*
X-5366900Y-997548D01*
X-5394465Y-997548D02*
X-5394465Y-1034300D01*
X-5435811Y-1071053D01*
X-5477157Y-1034300D01*
X-5477157Y-997548D01*
X-5518504Y-1009799D02*
X-5532286Y-997548D01*
X-5573632Y-997548D01*
X-5587414Y-1009799D01*
X-5587414Y-1022050D01*
X-5573632Y-1034300D01*
X-5532286Y-1034300D01*
X-5518504Y-1046551D01*
X-5518504Y-1071053D01*
X-5587414Y-1071053D01*
X-5642543Y-1022050D02*
X-5670107Y-997548D01*
X-5670107Y-1071053D01*
D40*
X-4615180Y-2209800D02*
X-4147820Y-2209800D01*
X-4147820Y-1485900D01*
X-4615180Y-1485900D01*
X-4615180Y-2209800D01*
D101*
X-4191000Y-2108200D02*
X-4191000Y-2108200D01*
D116*
X-4470146Y-1531240D02*
X-4382198Y-1531240D01*
X-4364609Y-1551028D01*
X-4364609Y-1630180D01*
X-4382198Y-1649968D01*
X-4470146Y-1649968D01*
X-4470146Y-1689545D02*
X-4417377Y-1689545D01*
X-4364609Y-1748909D01*
X-4417377Y-1808273D01*
X-4470146Y-1808273D01*
X-4452556Y-1867638D02*
X-4470146Y-1887426D01*
X-4470146Y-1946790D01*
X-4452556Y-1966578D01*
X-4434967Y-1966578D01*
X-4417377Y-1946790D01*
X-4417377Y-1887426D01*
X-4399788Y-1867638D01*
X-4364609Y-1867638D01*
X-4364609Y-1966578D01*
X-4452556Y-2025943D02*
X-4470146Y-2045731D01*
X-4470146Y-2105095D01*
X-4452556Y-2124883D01*
X-4434967Y-2124883D01*
X-4417377Y-2105095D01*
X-4417377Y-2045731D01*
X-4399788Y-2025943D01*
X-4364609Y-2025943D01*
X-4364609Y-2124883D01*
D86*
X-5295000Y+880500D02*
X-5295000Y+1590500D01*
X-4865000Y+1590500D01*
X-4865000Y+880500D01*
X-5295000Y+880500D01*
X-5030000Y+1235500D02*
X-5130000Y+1235500D01*
X-5080000Y+1285500D02*
X-5080000Y+1185500D01*
D93*
X-5080000Y+1010500D02*
X-5080000Y+1010500D01*
D125*
X-5040998Y+1556838D02*
X-5119001Y+1556838D01*
X-5119001Y+1498337D01*
X-5093000Y+1469086D01*
X-5066999Y+1469086D01*
X-5040998Y+1498337D01*
X-5040998Y+1556838D01*
X-5119001Y+1439835D02*
X-5080000Y+1439835D01*
X-5040998Y+1395959D01*
X-5080000Y+1352083D01*
X-5119001Y+1352083D01*
X-5106000Y+1308207D02*
X-5119001Y+1293582D01*
X-5119001Y+1249706D01*
X-5106000Y+1235080D01*
X-5093000Y+1235080D01*
X-5080000Y+1249706D01*
X-5080000Y+1293582D01*
X-5066999Y+1308207D01*
X-5040998Y+1308207D01*
X-5040998Y+1235080D01*
X-5093000Y+1176579D02*
X-5119001Y+1147328D01*
X-5040998Y+1147328D01*
D40*
X-4075580Y-1981200D02*
X-3925420Y-1981200D01*
X-3925420Y-1682750D01*
X-4075580Y-1682750D01*
X-4075580Y-1981200D01*
D105*
X-4000500Y-1714500D02*
X-4000500Y-1714500D01*
D117*
X-3983355Y-1753870D02*
X-4017645Y-1753870D01*
X-4017645Y-1779587D01*
X-4006215Y-1792446D01*
X-3994785Y-1792446D01*
X-3983355Y-1779587D01*
X-3983355Y-1753870D01*
X-4017645Y-1805305D02*
X-4000500Y-1805305D01*
X-3983355Y-1824593D01*
X-4000500Y-1843881D01*
X-4017645Y-1843881D01*
X-4011930Y-1863169D02*
X-4017645Y-1869598D01*
X-4017645Y-1888886D01*
X-4011930Y-1895316D01*
X-4006215Y-1895316D01*
X-4000500Y-1888886D01*
X-4000500Y-1869598D01*
X-3994785Y-1863169D01*
X-3983355Y-1863169D01*
X-3983355Y-1895316D01*
X-4011930Y-1914604D02*
X-4017645Y-1921033D01*
X-4017645Y-1940321D01*
X-4011930Y-1946751D01*
X-4006215Y-1946751D01*
X-4000500Y-1940321D01*
X-4000500Y-1921033D01*
X-3994785Y-1914604D01*
X-3983355Y-1914604D01*
X-3983355Y-1946751D01*
D40*
X-3997960Y-1574800D02*
X-3688080Y-1574800D01*
X-3688080Y-1282700D01*
X-3997960Y-1282700D01*
X-3997960Y-1574800D01*
D107*
X-3843020Y-1333500D02*
X-3843020Y-1333500D01*
D124*
X-3712718Y-1457071D02*
X-3729005Y-1442593D01*
X-3745293Y-1442593D01*
X-3761581Y-1457071D01*
X-3761581Y-1471549D01*
X-3745293Y-1486027D01*
X-3729005Y-1486027D01*
X-3712718Y-1471549D01*
X-3712718Y-1457071D01*
X-3745293Y-1471549D02*
X-3761581Y-1486027D01*
X-3777869Y-1442593D02*
X-3777869Y-1464310D01*
X-3802300Y-1486027D01*
X-3826732Y-1464310D01*
X-3826732Y-1442593D01*
X-3851163Y-1449832D02*
X-3859307Y-1442593D01*
X-3883739Y-1442593D01*
X-3891883Y-1449832D01*
X-3891883Y-1457071D01*
X-3883739Y-1464310D01*
X-3859307Y-1464310D01*
X-3851163Y-1471549D01*
X-3851163Y-1486027D01*
X-3891883Y-1486027D01*
X-3924458Y-1457071D02*
X-3940746Y-1442593D01*
X-3940746Y-1486027D01*
D40*
X-6233160Y+818100D02*
X-5577840Y+818100D01*
X-5577840Y+1567400D01*
X-6233160Y+1567400D01*
X-6233160Y+818100D01*
D95*
X-5905500Y+970500D02*
X-5905500Y+970500D01*
D115*
X-5706163Y+1274117D02*
X-5691924Y+1261460D01*
X-5649209Y+1261460D01*
X-5620733Y+1286773D01*
X-5620733Y+1312086D01*
X-5649209Y+1337399D01*
X-5691924Y+1337399D01*
X-5706163Y+1324742D01*
X-5734640Y+1337399D02*
X-5734640Y+1299430D01*
X-5777355Y+1261460D01*
X-5820070Y+1299430D01*
X-5820070Y+1337399D01*
X-5877023Y+1312086D02*
X-5905500Y+1337399D01*
X-5905500Y+1261460D01*
X-5976692Y+1324742D02*
X-5990930Y+1337399D01*
X-6033645Y+1337399D01*
X-6047884Y+1324742D01*
X-6047884Y+1312086D01*
X-6033645Y+1299430D01*
X-5990930Y+1299430D01*
X-5976692Y+1286773D01*
X-5976692Y+1261460D01*
X-6047884Y+1261460D01*
X-6076361Y+1274117D02*
X-6076361Y+1324742D01*
X-6090599Y+1337399D01*
X-6147552Y+1337399D01*
X-6161791Y+1324742D01*
X-6161791Y+1274117D01*
X-6147552Y+1261460D01*
X-6090599Y+1261460D01*
X-6076361Y+1274117D01*
X-6076361Y+1261460D02*
X-6161791Y+1337399D01*
D86*
X-5574500Y+480500D02*
X-4804500Y+480500D01*
X-4804500Y-99500D01*
X-5574500Y-99500D01*
X-5574500Y+480500D01*
X-5189500Y+140500D02*
X-5189500Y+240500D01*
X-5139500Y+190500D02*
X-5239500Y+190500D01*
D87*
X-5489500Y+190500D02*
X-5489500Y+190500D01*
D126*
X-4851338Y+235092D02*
X-4851338Y+145908D01*
X-4951670Y+145908D01*
X-4985114Y+235092D02*
X-4985114Y+190500D01*
X-5035280Y+145908D01*
X-5085446Y+190500D01*
X-5085446Y+235092D01*
X-5152334Y+205364D02*
X-5185778Y+235092D01*
X-5185778Y+145908D01*
X-5286110Y+205364D02*
X-5319554Y+235092D01*
X-5319554Y+145908D01*
D86*
X-4695000Y-2020000D02*
X-5165000Y-2020000D01*
X-5165000Y-1790000D01*
X-4695000Y-1790000D01*
X-4695000Y-2020000D01*
X-4930000Y-1855000D02*
X-4930000Y-1955000D01*
X-4980000Y-1905000D02*
X-4880000Y-1905000D01*
D91*
X-4780000Y-1905000D02*
X-4780000Y-1905000D01*
D129*
X-4887486Y-1918245D02*
X-4880036Y-1924867D01*
X-4857686Y-1924867D01*
X-4842787Y-1911623D01*
X-4842787Y-1898378D01*
X-4857686Y-1885134D01*
X-4880036Y-1885134D01*
X-4887486Y-1891756D01*
X-4902386Y-1885134D02*
X-4902386Y-1905000D01*
X-4924735Y-1924867D01*
X-4947085Y-1905000D01*
X-4947085Y-1885134D01*
X-4976884Y-1898378D02*
X-4991784Y-1885134D01*
X-4991784Y-1924867D01*
X-5036483Y-1898378D02*
X-5051383Y-1885134D01*
X-5051383Y-1924867D01*
X-5096082Y-1898378D02*
X-5110982Y-1885134D01*
X-5110982Y-1924867D01*
D86*
X-5088700Y-1524700D02*
X-5558700Y-1524700D01*
X-5558700Y-1294700D01*
X-5088700Y-1294700D01*
X-5088700Y-1524700D01*
X-5323700Y-1359700D02*
X-5323700Y-1459700D01*
X-5373700Y-1409700D02*
X-5273700Y-1409700D01*
D91*
X-5173700Y-1409700D02*
X-5173700Y-1409700D01*
D129*
X-5281186Y-1422945D02*
X-5273736Y-1429567D01*
X-5251386Y-1429567D01*
X-5236487Y-1416323D01*
X-5236487Y-1403078D01*
X-5251386Y-1389834D01*
X-5273736Y-1389834D01*
X-5281186Y-1396456D01*
X-5296086Y-1389834D02*
X-5296086Y-1409700D01*
X-5318435Y-1429567D01*
X-5340785Y-1409700D01*
X-5340785Y-1389834D01*
X-5370584Y-1403078D02*
X-5385484Y-1389834D01*
X-5385484Y-1429567D01*
X-5430183Y-1403078D02*
X-5445083Y-1389834D01*
X-5445083Y-1429567D01*
X-5482332Y-1396456D02*
X-5489782Y-1389834D01*
X-5512132Y-1389834D01*
X-5519582Y-1396456D01*
X-5519582Y-1403078D01*
X-5512132Y-1409700D01*
X-5489782Y-1409700D01*
X-5482332Y-1416323D01*
X-5482332Y-1429567D01*
X-5519582Y-1429567D01*
D86*
X-5266500Y-1766000D02*
X-5736500Y-1766000D01*
X-5736500Y-1536000D01*
X-5266500Y-1536000D01*
X-5266500Y-1766000D01*
X-5501500Y-1601000D02*
X-5501500Y-1701000D01*
X-5551500Y-1651000D02*
X-5451500Y-1651000D01*
D91*
X-5351500Y-1651000D02*
X-5351500Y-1651000D01*
D129*
X-5458986Y-1664245D02*
X-5451536Y-1670867D01*
X-5429186Y-1670867D01*
X-5414287Y-1657623D01*
X-5414287Y-1644378D01*
X-5429186Y-1631134D01*
X-5451536Y-1631134D01*
X-5458986Y-1637756D01*
X-5473886Y-1631134D02*
X-5473886Y-1651000D01*
X-5496235Y-1670867D01*
X-5518585Y-1651000D01*
X-5518585Y-1631134D01*
X-5548384Y-1644378D02*
X-5563284Y-1631134D01*
X-5563284Y-1670867D01*
X-5607983Y-1644378D02*
X-5622883Y-1631134D01*
X-5622883Y-1670867D01*
X-5660132Y-1637756D02*
X-5667582Y-1631134D01*
X-5689932Y-1631134D01*
X-5697382Y-1637756D01*
X-5697382Y-1644378D01*
X-5689932Y-1651000D01*
X-5697382Y-1657623D01*
X-5697382Y-1664245D01*
X-5689932Y-1670867D01*
X-5667582Y-1670867D01*
X-5660132Y-1664245D01*
X-5675032Y-1651000D02*
X-5689932Y-1651000D01*
D86*
X-5638100Y-219800D02*
X-5638100Y-689800D01*
X-5868100Y-689800D01*
X-5868100Y-219800D01*
X-5638100Y-219800D01*
X-5803100Y-454800D02*
X-5703100Y-454800D01*
X-5753100Y-504800D02*
X-5753100Y-404800D01*
D91*
X-5753100Y-304800D02*
X-5753100Y-304800D01*
D129*
X-5739855Y-412286D02*
X-5733233Y-404836D01*
X-5733233Y-382486D01*
X-5746477Y-367587D01*
X-5759722Y-367587D01*
X-5772966Y-382486D01*
X-5772966Y-404836D01*
X-5766344Y-412286D01*
X-5772966Y-427186D02*
X-5753100Y-427186D01*
X-5733233Y-449535D01*
X-5753100Y-471885D01*
X-5772966Y-471885D01*
X-5759722Y-501684D02*
X-5772966Y-516584D01*
X-5733233Y-516584D01*
X-5759722Y-561283D02*
X-5772966Y-576183D01*
X-5733233Y-576183D01*
X-5746477Y-650682D02*
X-5746477Y-605983D01*
X-5772966Y-635782D01*
X-5733233Y-635782D01*
D86*
X-4695000Y-1766000D02*
X-5165000Y-1766000D01*
X-5165000Y-1536000D01*
X-4695000Y-1536000D01*
X-4695000Y-1766000D01*
X-4930000Y-1601000D02*
X-4930000Y-1701000D01*
X-4980000Y-1651000D02*
X-4880000Y-1651000D01*
D91*
X-4780000Y-1651000D02*
X-4780000Y-1651000D01*
D129*
X-4887486Y-1664245D02*
X-4880036Y-1670867D01*
X-4857686Y-1670867D01*
X-4842787Y-1657623D01*
X-4842787Y-1644378D01*
X-4857686Y-1631134D01*
X-4880036Y-1631134D01*
X-4887486Y-1637756D01*
X-4902386Y-1631134D02*
X-4902386Y-1651000D01*
X-4924735Y-1670867D01*
X-4947085Y-1651000D01*
X-4947085Y-1631134D01*
X-4976884Y-1644378D02*
X-4991784Y-1631134D01*
X-4991784Y-1670867D01*
X-5036483Y-1644378D02*
X-5051383Y-1631134D01*
X-5051383Y-1670867D01*
X-5125882Y-1631134D02*
X-5088632Y-1631134D01*
X-5088632Y-1644378D01*
X-5118432Y-1644378D01*
X-5125882Y-1651000D01*
X-5125882Y-1664245D01*
X-5118432Y-1670867D01*
X-5096082Y-1670867D01*
X-5088632Y-1664245D01*
D86*
X-4106000Y-2528000D02*
X-4576000Y-2528000D01*
X-4576000Y-2298000D01*
X-4106000Y-2298000D01*
X-4106000Y-2528000D01*
X-4341000Y-2363000D02*
X-4341000Y-2463000D01*
X-4391000Y-2413000D02*
X-4291000Y-2413000D01*
D91*
X-4191000Y-2413000D02*
X-4191000Y-2413000D01*
D129*
X-4298486Y-2426245D02*
X-4291036Y-2432867D01*
X-4268686Y-2432867D01*
X-4253787Y-2419623D01*
X-4253787Y-2406378D01*
X-4268686Y-2393134D01*
X-4291036Y-2393134D01*
X-4298486Y-2399756D01*
X-4313386Y-2393134D02*
X-4313386Y-2413000D01*
X-4335735Y-2432867D01*
X-4358085Y-2413000D01*
X-4358085Y-2393134D01*
X-4387884Y-2406378D02*
X-4402784Y-2393134D01*
X-4402784Y-2432867D01*
X-4447483Y-2406378D02*
X-4462383Y-2393134D01*
X-4462383Y-2432867D01*
X-4499632Y-2393134D02*
X-4536882Y-2393134D01*
X-4536882Y-2399756D01*
X-4499632Y-2432867D01*
D86*
X-4106000Y-877000D02*
X-4576000Y-877000D01*
X-4576000Y-647000D01*
X-4106000Y-647000D01*
X-4106000Y-877000D01*
X-4341000Y-712000D02*
X-4341000Y-812000D01*
X-4391000Y-762000D02*
X-4291000Y-762000D01*
D91*
X-4191000Y-762000D02*
X-4191000Y-762000D01*
D129*
X-4298486Y-775245D02*
X-4291036Y-781867D01*
X-4268686Y-781867D01*
X-4253787Y-768623D01*
X-4253787Y-755378D01*
X-4268686Y-742134D01*
X-4291036Y-742134D01*
X-4298486Y-748756D01*
X-4313386Y-742134D02*
X-4313386Y-762000D01*
X-4335735Y-781867D01*
X-4358085Y-762000D01*
X-4358085Y-742134D01*
X-4387884Y-755378D02*
X-4402784Y-742134D01*
X-4402784Y-781867D01*
X-4447483Y-755378D02*
X-4462383Y-742134D01*
X-4462383Y-781867D01*
X-4507082Y-762000D02*
X-4499632Y-755378D01*
X-4499632Y-748756D01*
X-4507082Y-742134D01*
X-4529432Y-742134D01*
X-4536882Y-748756D01*
X-4536882Y-755378D01*
X-4529432Y-762000D01*
X-4507082Y-762000D01*
X-4499632Y-768623D01*
X-4499632Y-775245D01*
X-4507082Y-781867D01*
X-4529432Y-781867D01*
X-4536882Y-775245D01*
X-4536882Y-768623D01*
X-4529432Y-762000D01*
D86*
X-4885500Y-445200D02*
X-5355500Y-445200D01*
X-5355500Y-215200D01*
X-4885500Y-215200D01*
X-4885500Y-445200D01*
X-5120500Y-280200D02*
X-5120500Y-380200D01*
X-5170500Y-330200D02*
X-5070500Y-330200D01*
D91*
X-4970500Y-330200D02*
X-4970500Y-330200D01*
D129*
X-5077986Y-343445D02*
X-5070536Y-350067D01*
X-5048186Y-350067D01*
X-5033287Y-336823D01*
X-5033287Y-323578D01*
X-5048186Y-310334D01*
X-5070536Y-310334D01*
X-5077986Y-316956D01*
X-5092886Y-310334D02*
X-5092886Y-330200D01*
X-5115235Y-350067D01*
X-5137585Y-330200D01*
X-5137585Y-310334D01*
X-5167384Y-323578D02*
X-5182284Y-310334D01*
X-5182284Y-350067D01*
X-5226983Y-323578D02*
X-5241883Y-310334D01*
X-5241883Y-350067D01*
X-5316382Y-323578D02*
X-5308932Y-330200D01*
X-5286582Y-330200D01*
X-5279132Y-323578D01*
X-5279132Y-316956D01*
X-5286582Y-310334D01*
X-5308932Y-310334D01*
X-5316382Y-316956D01*
X-5316382Y-343445D01*
X-5308932Y-350067D01*
X-5286582Y-350067D01*
D40*
X-4675010Y-1421270D02*
X-3989210Y-1421270D01*
X-3989210Y-892950D01*
X-4675010Y-892950D01*
X-4675010Y-1421270D01*
D11*
X-4141610Y-1157110D02*
X-4141610Y-1157110D01*
D44*
X-4413390Y-997090D02*
X-4403230Y-985660D01*
X-4403230Y-951370D01*
X-4423550Y-928510D01*
X-4443870Y-928510D01*
X-4464190Y-951370D01*
X-4464190Y-985660D01*
X-4454030Y-997090D01*
X-4464190Y-1019950D02*
X-4433710Y-1019950D01*
X-4403230Y-1054240D01*
X-4433710Y-1088530D01*
X-4464190Y-1088530D01*
X-4443870Y-1134250D02*
X-4464190Y-1157110D01*
X-4403230Y-1157110D01*
X-4454030Y-1214260D02*
X-4464190Y-1225690D01*
X-4464190Y-1259980D01*
X-4454030Y-1271410D01*
X-4443870Y-1271410D01*
X-4433710Y-1259980D01*
X-4433710Y-1225690D01*
X-4423550Y-1214260D01*
X-4403230Y-1214260D01*
X-4403230Y-1271410D01*
X-4443870Y-1317130D02*
X-4464190Y-1339990D01*
X-4403230Y-1339990D01*
D86*
X-5276500Y-2274000D02*
X-5736500Y-2274000D01*
X-5736500Y-2044000D01*
X-5276500Y-2044000D01*
X-5276500Y-2274000D01*
X-5506500Y-2109000D02*
X-5506500Y-2209000D01*
X-5556500Y-2159000D02*
X-5456500Y-2159000D01*
D91*
X-5361500Y-2159000D02*
X-5361500Y-2159000D01*
D90*
X-5423787Y-2178267D02*
X-5423787Y-2139734D01*
X-5459911Y-2139734D01*
X-5467136Y-2146156D01*
X-5467136Y-2152578D01*
X-5459911Y-2159000D01*
X-5423787Y-2159000D01*
X-5459911Y-2159000D02*
X-5467136Y-2165423D01*
X-5467136Y-2178267D01*
X-5481586Y-2139734D02*
X-5481586Y-2159000D01*
X-5503260Y-2178267D01*
X-5524935Y-2159000D01*
X-5524935Y-2139734D01*
X-5553834Y-2152578D02*
X-5568284Y-2139734D01*
X-5568284Y-2178267D01*
X-5604408Y-2146156D02*
X-5611633Y-2139734D01*
X-5633308Y-2139734D01*
X-5640533Y-2146156D01*
X-5640533Y-2152578D01*
X-5633308Y-2159000D01*
X-5611633Y-2159000D01*
X-5604408Y-2165423D01*
X-5604408Y-2178267D01*
X-5640533Y-2178267D01*
X-5669432Y-2152578D02*
X-5683882Y-2139734D01*
X-5683882Y-2178267D01*
D86*
X-5276500Y-2020000D02*
X-5736500Y-2020000D01*
X-5736500Y-1790000D01*
X-5276500Y-1790000D01*
X-5276500Y-2020000D01*
X-5506500Y-1855000D02*
X-5506500Y-1955000D01*
X-5556500Y-1905000D02*
X-5456500Y-1905000D01*
D91*
X-5361500Y-1905000D02*
X-5361500Y-1905000D01*
D90*
X-5423787Y-1924267D02*
X-5423787Y-1885734D01*
X-5459911Y-1885734D01*
X-5467136Y-1892156D01*
X-5467136Y-1898578D01*
X-5459911Y-1905000D01*
X-5423787Y-1905000D01*
X-5459911Y-1905000D02*
X-5467136Y-1911423D01*
X-5467136Y-1924267D01*
X-5481586Y-1885734D02*
X-5481586Y-1905000D01*
X-5503260Y-1924267D01*
X-5524935Y-1905000D01*
X-5524935Y-1885734D01*
X-5553834Y-1898578D02*
X-5568284Y-1885734D01*
X-5568284Y-1924267D01*
X-5604408Y-1892156D02*
X-5611633Y-1885734D01*
X-5633308Y-1885734D01*
X-5640533Y-1892156D01*
X-5640533Y-1898578D01*
X-5633308Y-1905000D01*
X-5611633Y-1905000D01*
X-5604408Y-1911423D01*
X-5604408Y-1924267D01*
X-5640533Y-1924267D01*
X-5662207Y-1892156D02*
X-5669432Y-1885734D01*
X-5691107Y-1885734D01*
X-5698332Y-1892156D01*
X-5698332Y-1898578D01*
X-5691107Y-1905000D01*
X-5669432Y-1905000D01*
X-5662207Y-1911423D01*
X-5662207Y-1924267D01*
X-5698332Y-1924267D01*
D86*
X-5614100Y-679800D02*
X-5614100Y-219800D01*
X-5384100Y-219800D01*
X-5384100Y-679800D01*
X-5614100Y-679800D01*
X-5449100Y-449800D02*
X-5549100Y-449800D01*
X-5499100Y-399800D02*
X-5499100Y-499800D01*
D91*
X-5499100Y-594800D02*
X-5499100Y-594800D01*
D90*
X-5479833Y-243519D02*
X-5518366Y-243519D01*
X-5518366Y-279643D01*
X-5511944Y-286868D01*
X-5505522Y-286868D01*
X-5499100Y-279643D01*
X-5499100Y-243519D01*
X-5499100Y-279643D02*
X-5492677Y-286868D01*
X-5479833Y-286868D01*
X-5518366Y-301318D02*
X-5499100Y-301318D01*
X-5479833Y-322992D01*
X-5499100Y-344667D01*
X-5518366Y-344667D01*
X-5505522Y-373566D02*
X-5518366Y-388016D01*
X-5479833Y-388016D01*
X-5511944Y-424140D02*
X-5518366Y-431365D01*
X-5518366Y-453040D01*
X-5511944Y-460265D01*
X-5505522Y-460265D01*
X-5499100Y-453040D01*
X-5499100Y-431365D01*
X-5492677Y-424140D01*
X-5479833Y-424140D01*
X-5479833Y-460265D01*
X-5511944Y-481939D02*
X-5518366Y-489164D01*
X-5518366Y-510839D01*
X-5511944Y-518064D01*
X-5505522Y-518064D01*
X-5499100Y-510839D01*
X-5492677Y-518064D01*
X-5486255Y-518064D01*
X-5479833Y-510839D01*
X-5479833Y-489164D01*
X-5486255Y-481939D01*
X-5499100Y-496389D02*
X-5499100Y-510839D01*
D86*
X-6122100Y-679800D02*
X-6122100Y-219800D01*
X-5892100Y-219800D01*
X-5892100Y-679800D01*
X-6122100Y-679800D01*
X-5957100Y-449800D02*
X-6057100Y-449800D01*
X-6007100Y-399800D02*
X-6007100Y-499800D01*
D91*
X-6007100Y-594800D02*
X-6007100Y-594800D01*
D90*
X-5987833Y-243519D02*
X-6026366Y-243519D01*
X-6026366Y-279643D01*
X-6019944Y-286868D01*
X-6013522Y-286868D01*
X-6007100Y-279643D01*
X-6007100Y-243519D01*
X-6007100Y-279643D02*
X-6000677Y-286868D01*
X-5987833Y-286868D01*
X-6026366Y-301318D02*
X-6007100Y-301318D01*
X-5987833Y-322992D01*
X-6007100Y-344667D01*
X-6026366Y-344667D01*
X-6013522Y-373566D02*
X-6026366Y-388016D01*
X-5987833Y-388016D01*
X-6019944Y-424140D02*
X-6026366Y-431365D01*
X-6026366Y-453040D01*
X-6019944Y-460265D01*
X-6013522Y-460265D01*
X-6007100Y-453040D01*
X-6007100Y-431365D01*
X-6000677Y-424140D01*
X-5987833Y-424140D01*
X-5987833Y-460265D01*
X-6000677Y-518064D02*
X-6000677Y-474715D01*
X-6026366Y-503614D01*
X-5987833Y-503614D01*
D86*
X-4705000Y-2274000D02*
X-5165000Y-2274000D01*
X-5165000Y-2044000D01*
X-4705000Y-2044000D01*
X-4705000Y-2274000D01*
X-4935000Y-2109000D02*
X-4935000Y-2209000D01*
X-4985000Y-2159000D02*
X-4885000Y-2159000D01*
D91*
X-4790000Y-2159000D02*
X-4790000Y-2159000D01*
D90*
X-4852287Y-2178267D02*
X-4852287Y-2139734D01*
X-4888411Y-2139734D01*
X-4895636Y-2146156D01*
X-4895636Y-2152578D01*
X-4888411Y-2159000D01*
X-4852287Y-2159000D01*
X-4888411Y-2159000D02*
X-4895636Y-2165423D01*
X-4895636Y-2178267D01*
X-4910086Y-2139734D02*
X-4910086Y-2159000D01*
X-4931760Y-2178267D01*
X-4953435Y-2159000D01*
X-4953435Y-2139734D01*
X-4982334Y-2152578D02*
X-4996784Y-2139734D01*
X-4996784Y-2178267D01*
X-5032908Y-2146156D02*
X-5040133Y-2139734D01*
X-5061808Y-2139734D01*
X-5069033Y-2146156D01*
X-5069033Y-2152578D01*
X-5061808Y-2159000D01*
X-5040133Y-2159000D01*
X-5032908Y-2165423D01*
X-5032908Y-2178267D01*
X-5069033Y-2178267D01*
X-5126832Y-2139734D02*
X-5090707Y-2139734D01*
X-5090707Y-2152578D01*
X-5119607Y-2152578D01*
X-5126832Y-2159000D01*
X-5126832Y-2171845D01*
X-5119607Y-2178267D01*
X-5097932Y-2178267D01*
X-5090707Y-2171845D01*
D86*
X-3822000Y-2165000D02*
X-3822000Y-2625000D01*
X-4052000Y-2625000D01*
X-4052000Y-2165000D01*
X-3822000Y-2165000D01*
X-3987000Y-2395000D02*
X-3887000Y-2395000D01*
X-3937000Y-2445000D02*
X-3937000Y-2345000D01*
D91*
X-3937000Y-2250000D02*
X-3937000Y-2250000D01*
D90*
X-3917733Y-2312287D02*
X-3956266Y-2312287D01*
X-3956266Y-2348411D01*
X-3949844Y-2355636D01*
X-3943422Y-2355636D01*
X-3937000Y-2348411D01*
X-3937000Y-2312287D01*
X-3937000Y-2348411D02*
X-3930577Y-2355636D01*
X-3917733Y-2355636D01*
X-3956266Y-2370086D02*
X-3937000Y-2370086D01*
X-3917733Y-2391760D01*
X-3937000Y-2413435D01*
X-3956266Y-2413435D01*
X-3943422Y-2442334D02*
X-3956266Y-2456784D01*
X-3917733Y-2456784D01*
X-3949844Y-2492908D02*
X-3956266Y-2500133D01*
X-3956266Y-2521808D01*
X-3949844Y-2529033D01*
X-3943422Y-2529033D01*
X-3937000Y-2521808D01*
X-3937000Y-2500133D01*
X-3930577Y-2492908D01*
X-3917733Y-2492908D01*
X-3917733Y-2529033D01*
X-3937000Y-2557932D02*
X-3943422Y-2550707D01*
X-3949844Y-2550707D01*
X-3956266Y-2557932D01*
X-3956266Y-2579607D01*
X-3949844Y-2586832D01*
X-3943422Y-2586832D01*
X-3937000Y-2579607D01*
X-3937000Y-2557932D01*
X-3930577Y-2550707D01*
X-3924155Y-2550707D01*
X-3917733Y-2557932D01*
X-3917733Y-2579607D01*
X-3924155Y-2586832D01*
X-3930577Y-2586832D01*
X-3937000Y-2579607D01*
D86*
X-3885500Y-105500D02*
X-3885500Y-565500D01*
X-4115500Y-565500D01*
X-4115500Y-105500D01*
X-3885500Y-105500D01*
X-4050500Y-335500D02*
X-3950500Y-335500D01*
X-4000500Y-385500D02*
X-4000500Y-285500D01*
D91*
X-4000500Y-190500D02*
X-4000500Y-190500D01*
D90*
X-3981233Y-252787D02*
X-4019766Y-252787D01*
X-4019766Y-288911D01*
X-4013344Y-296136D01*
X-4006922Y-296136D01*
X-4000500Y-288911D01*
X-4000500Y-252787D01*
X-4000500Y-288911D02*
X-3994077Y-296136D01*
X-3981233Y-296136D01*
X-4019766Y-310586D02*
X-4000500Y-310586D01*
X-3981233Y-332260D01*
X-4000500Y-353935D01*
X-4019766Y-353935D01*
X-4006922Y-382834D02*
X-4019766Y-397284D01*
X-3981233Y-397284D01*
X-4013344Y-433408D02*
X-4019766Y-440633D01*
X-4019766Y-462308D01*
X-4013344Y-469533D01*
X-4006922Y-469533D01*
X-4000500Y-462308D01*
X-4000500Y-440633D01*
X-3994077Y-433408D01*
X-3981233Y-433408D01*
X-3981233Y-469533D01*
X-4006922Y-527332D02*
X-4000500Y-520107D01*
X-4000500Y-498432D01*
X-4006922Y-491207D01*
X-4013344Y-491207D01*
X-4019766Y-498432D01*
X-4019766Y-520107D01*
X-4013344Y-527332D01*
X-3987655Y-527332D01*
X-3981233Y-520107D01*
X-3981233Y-498432D01*
D86*
X-4593500Y-75500D02*
X-4133500Y-75500D01*
X-4133500Y-305500D01*
X-4593500Y-305500D01*
X-4593500Y-75500D01*
X-4363500Y-240500D02*
X-4363500Y-140500D01*
X-4313500Y-190500D02*
X-4413500Y-190500D01*
D91*
X-4508500Y-190500D02*
X-4508500Y-190500D01*
D90*
X-4157219Y-209767D02*
X-4157219Y-171234D01*
X-4193343Y-171234D01*
X-4200568Y-177656D01*
X-4200568Y-184078D01*
X-4193343Y-190500D01*
X-4157219Y-190500D01*
X-4193343Y-190500D02*
X-4200568Y-196923D01*
X-4200568Y-209767D01*
X-4215018Y-171234D02*
X-4215018Y-190500D01*
X-4236692Y-209767D01*
X-4258367Y-190500D01*
X-4258367Y-171234D01*
X-4287266Y-184078D02*
X-4301716Y-171234D01*
X-4301716Y-209767D01*
X-4337840Y-177656D02*
X-4345065Y-171234D01*
X-4366740Y-171234D01*
X-4373965Y-177656D01*
X-4373965Y-184078D01*
X-4366740Y-190500D01*
X-4373965Y-196923D01*
X-4373965Y-203345D01*
X-4366740Y-209767D01*
X-4345065Y-209767D01*
X-4337840Y-203345D01*
X-4352290Y-190500D02*
X-4366740Y-190500D01*
X-4388415Y-203345D02*
X-4388415Y-177656D01*
X-4395639Y-171234D01*
X-4424539Y-171234D01*
X-4431764Y-177656D01*
X-4431764Y-203345D01*
X-4424539Y-209767D01*
X-4395639Y-209767D01*
X-4388415Y-203345D01*
X-4388415Y-209767D02*
X-4431764Y-171234D01*
D86*
X-4106000Y-2782000D02*
X-4566000Y-2782000D01*
X-4566000Y-2552000D01*
X-4106000Y-2552000D01*
X-4106000Y-2782000D01*
X-4336000Y-2617000D02*
X-4336000Y-2717000D01*
X-4386000Y-2667000D02*
X-4286000Y-2667000D01*
D91*
X-4191000Y-2667000D02*
X-4191000Y-2667000D01*
D90*
X-4253287Y-2686267D02*
X-4253287Y-2647734D01*
X-4289411Y-2647734D01*
X-4296636Y-2654156D01*
X-4296636Y-2660578D01*
X-4289411Y-2667000D01*
X-4253287Y-2667000D01*
X-4289411Y-2667000D02*
X-4296636Y-2673423D01*
X-4296636Y-2686267D01*
X-4311086Y-2647734D02*
X-4311086Y-2667000D01*
X-4332760Y-2686267D01*
X-4354435Y-2667000D01*
X-4354435Y-2647734D01*
X-4383334Y-2660578D02*
X-4397784Y-2647734D01*
X-4397784Y-2686267D01*
X-4433908Y-2654156D02*
X-4441133Y-2647734D01*
X-4462808Y-2647734D01*
X-4470033Y-2654156D01*
X-4470033Y-2660578D01*
X-4462808Y-2667000D01*
X-4470033Y-2673423D01*
X-4470033Y-2679845D01*
X-4462808Y-2686267D01*
X-4441133Y-2686267D01*
X-4433908Y-2679845D01*
X-4448358Y-2667000D02*
X-4462808Y-2667000D01*
X-4498932Y-2660578D02*
X-4513382Y-2647734D01*
X-4513382Y-2686267D01*
D86*
X+7451000Y-2528000D02*
X+6991000Y-2528000D01*
X+6991000Y-2298000D01*
X+7451000Y-2298000D01*
X+7451000Y-2528000D01*
X+7221000Y-2363000D02*
X+7221000Y-2463000D01*
X+7171000Y-2413000D02*
X+7271000Y-2413000D01*
D91*
X+7366000Y-2413000D02*
X+7366000Y-2413000D01*
D111*
X+7303716Y-2437084D02*
X+7303716Y-2388917D01*
X+7258560Y-2388917D01*
X+7249529Y-2396945D01*
X+7249529Y-2404973D01*
X+7258560Y-2413000D01*
X+7303716Y-2413000D01*
X+7258560Y-2413000D02*
X+7249529Y-2421028D01*
X+7249529Y-2437084D01*
X+7231466Y-2388917D02*
X+7231466Y-2413000D01*
X+7204373Y-2437084D01*
X+7177279Y-2413000D01*
X+7177279Y-2388917D01*
X+7105029Y-2421028D02*
X+7159216Y-2421028D01*
X+7123091Y-2388917D01*
X+7123091Y-2437084D01*
X+7077935Y-2396945D02*
X+7068904Y-2388917D01*
X+7041810Y-2388917D01*
X+7032779Y-2396945D01*
X+7032779Y-2404973D01*
X+7041810Y-2413000D01*
X+7032779Y-2421028D01*
X+7032779Y-2429056D01*
X+7041810Y-2437084D01*
X+7068904Y-2437084D01*
X+7077935Y-2429056D01*
X+7059873Y-2413000D02*
X+7041810Y-2413000D01*
D86*
X+5038000Y-2528000D02*
X+4578000Y-2528000D01*
X+4578000Y-2298000D01*
X+5038000Y-2298000D01*
X+5038000Y-2528000D01*
X+4808000Y-2363000D02*
X+4808000Y-2463000D01*
X+4758000Y-2413000D02*
X+4858000Y-2413000D01*
D91*
X+4953000Y-2413000D02*
X+4953000Y-2413000D01*
D111*
X+4890716Y-2437084D02*
X+4890716Y-2388917D01*
X+4845560Y-2388917D01*
X+4836529Y-2396945D01*
X+4836529Y-2404973D01*
X+4845560Y-2413000D01*
X+4890716Y-2413000D01*
X+4845560Y-2413000D02*
X+4836529Y-2421028D01*
X+4836529Y-2437084D01*
X+4818466Y-2388917D02*
X+4818466Y-2413000D01*
X+4791373Y-2437084D01*
X+4764279Y-2413000D01*
X+4764279Y-2388917D01*
X+4692029Y-2388917D02*
X+4737185Y-2388917D01*
X+4737185Y-2404973D01*
X+4701060Y-2404973D01*
X+4692029Y-2413000D01*
X+4692029Y-2429056D01*
X+4701060Y-2437084D01*
X+4728154Y-2437084D01*
X+4737185Y-2429056D01*
X+4619779Y-2421028D02*
X+4673966Y-2421028D01*
X+4637841Y-2388917D01*
X+4637841Y-2437084D01*
D86*
X+2625000Y-2528000D02*
X+2165000Y-2528000D01*
X+2165000Y-2298000D01*
X+2625000Y-2298000D01*
X+2625000Y-2528000D01*
X+2395000Y-2363000D02*
X+2395000Y-2463000D01*
X+2345000Y-2413000D02*
X+2445000Y-2413000D01*
D91*
X+2540000Y-2413000D02*
X+2540000Y-2413000D01*
D111*
X+2477716Y-2437084D02*
X+2477716Y-2388917D01*
X+2432560Y-2388917D01*
X+2423529Y-2396945D01*
X+2423529Y-2404973D01*
X+2432560Y-2413000D01*
X+2477716Y-2413000D01*
X+2432560Y-2413000D02*
X+2423529Y-2421028D01*
X+2423529Y-2437084D01*
X+2405466Y-2388917D02*
X+2405466Y-2413000D01*
X+2378373Y-2437084D01*
X+2351279Y-2413000D01*
X+2351279Y-2388917D01*
X+2279029Y-2388917D02*
X+2324185Y-2388917D01*
X+2324185Y-2404973D01*
X+2288060Y-2404973D01*
X+2279029Y-2413000D01*
X+2279029Y-2429056D01*
X+2288060Y-2437084D01*
X+2315154Y-2437084D01*
X+2324185Y-2429056D01*
X+2206779Y-2388917D02*
X+2251935Y-2388917D01*
X+2251935Y-2404973D01*
X+2215810Y-2404973D01*
X+2206779Y-2413000D01*
X+2206779Y-2429056D01*
X+2215810Y-2437084D01*
X+2242904Y-2437084D01*
X+2251935Y-2429056D01*
D86*
X+212000Y-2528000D02*
X-248000Y-2528000D01*
X-248000Y-2298000D01*
X+212000Y-2298000D01*
X+212000Y-2528000D01*
X-18000Y-2363000D02*
X-18000Y-2463000D01*
X-68000Y-2413000D02*
X+32000Y-2413000D01*
D91*
X+127000Y-2413000D02*
X+127000Y-2413000D01*
D111*
X+64716Y-2437084D02*
X+64716Y-2388917D01*
X+19560Y-2388917D01*
X+10529Y-2396945D01*
X+10529Y-2404973D01*
X+19560Y-2413000D01*
X+64716Y-2413000D01*
X+19560Y-2413000D02*
X+10529Y-2421028D01*
X+10529Y-2437084D01*
X-7534Y-2388917D02*
X-7534Y-2413000D01*
X-34627Y-2437084D01*
X-61721Y-2413000D01*
X-61721Y-2388917D01*
X-133971Y-2396945D02*
X-124940Y-2388917D01*
X-97846Y-2388917D01*
X-88815Y-2396945D01*
X-88815Y-2429056D01*
X-97846Y-2437084D01*
X-124940Y-2437084D01*
X-133971Y-2429056D01*
X-133971Y-2421028D01*
X-124940Y-2413000D01*
X-88815Y-2413000D01*
X-206221Y-2396945D02*
X-197190Y-2388917D01*
X-170096Y-2388917D01*
X-161065Y-2396945D01*
X-161065Y-2429056D01*
X-170096Y-2437084D01*
X-197190Y-2437084D01*
X-206221Y-2429056D01*
X-206221Y-2421028D01*
X-197190Y-2413000D01*
X-161065Y-2413000D01*
D86*
X-2201000Y-2528000D02*
X-2661000Y-2528000D01*
X-2661000Y-2298000D01*
X-2201000Y-2298000D01*
X-2201000Y-2528000D01*
X-2431000Y-2363000D02*
X-2431000Y-2463000D01*
X-2481000Y-2413000D02*
X-2381000Y-2413000D01*
D91*
X-2286000Y-2413000D02*
X-2286000Y-2413000D01*
D111*
X-2348284Y-2437084D02*
X-2348284Y-2388917D01*
X-2393440Y-2388917D01*
X-2402471Y-2396945D01*
X-2402471Y-2404973D01*
X-2393440Y-2413000D01*
X-2348284Y-2413000D01*
X-2393440Y-2413000D02*
X-2402471Y-2421028D01*
X-2402471Y-2437084D01*
X-2420534Y-2388917D02*
X-2420534Y-2413000D01*
X-2447627Y-2437084D01*
X-2474721Y-2413000D01*
X-2474721Y-2388917D01*
X-2546971Y-2396945D02*
X-2537940Y-2388917D01*
X-2510846Y-2388917D01*
X-2501815Y-2396945D01*
X-2501815Y-2429056D01*
X-2510846Y-2437084D01*
X-2537940Y-2437084D01*
X-2546971Y-2429056D01*
X-2546971Y-2421028D01*
X-2537940Y-2413000D01*
X-2501815Y-2413000D01*
X-2574065Y-2388917D02*
X-2619221Y-2388917D01*
X-2619221Y-2396945D01*
X-2574065Y-2437084D01*
D86*
X-4705000Y-2591500D02*
X-5165000Y-2591500D01*
X-5165000Y-2361500D01*
X-4705000Y-2361500D01*
X-4705000Y-2591500D01*
X-4935000Y-2426500D02*
X-4935000Y-2526500D01*
X-4985000Y-2476500D02*
X-4885000Y-2476500D01*
D91*
X-4790000Y-2476500D02*
X-4790000Y-2476500D01*
D111*
X-4852284Y-2500584D02*
X-4852284Y-2452417D01*
X-4897440Y-2452417D01*
X-4906471Y-2460445D01*
X-4906471Y-2468473D01*
X-4897440Y-2476500D01*
X-4852284Y-2476500D01*
X-4897440Y-2476500D02*
X-4906471Y-2484528D01*
X-4906471Y-2500584D01*
X-4924534Y-2452417D02*
X-4924534Y-2476500D01*
X-4951627Y-2500584D01*
X-4978721Y-2476500D01*
X-4978721Y-2452417D01*
X-5005815Y-2452417D02*
X-5050971Y-2452417D01*
X-5050971Y-2460445D01*
X-5005815Y-2500584D01*
X-5087096Y-2476500D02*
X-5078065Y-2468473D01*
X-5078065Y-2460445D01*
X-5087096Y-2452417D01*
X-5114190Y-2452417D01*
X-5123221Y-2460445D01*
X-5123221Y-2468473D01*
X-5114190Y-2476500D01*
X-5087096Y-2476500D01*
X-5078065Y-2484528D01*
X-5078065Y-2492556D01*
X-5087096Y-2500584D01*
X-5114190Y-2500584D01*
X-5123221Y-2492556D01*
X-5123221Y-2484528D01*
X-5114190Y-2476500D01*
M02*
